<svg width="582" height="508" fill="none" xmlns="http://www.w3.org/2000/svg"><path opacity=".747" fill-rule="evenodd" clip-rule="evenodd" d="m465.223 197.923-1.26 2.566c-20.728 41.98-48.236 87.415-93.272 113.723-45.136 26.356-107.804 33.586-165.393 37.769l-3.519.252c-58.647 4.197-111.527 5.564-145.939-9.658-34.386-15.167-50.305-46.922-49.83-85.86.475-38.938 17.447-85.107 59.187-124.544 41.714-39.491 108.195-72.254 175.876-96.456C308.753 11.513 377.504-4.14 423.189 4.317c45.609 8.563 68.025 41.228 72.329 76.845 4.28 35.56-9.526 74.126-30.295 116.761Z" fill="#F7D59C" fill-opacity=".5"/><path fill-rule="evenodd" clip-rule="evenodd" d="m288.712 11.368 121.963 327.664c1.683 4.521-1.082 9.409-6.194 10.915l-263.587 77.609c-5.102 1.509-10.608-.962-12.294-5.473L6.637 94.415C4.954 89.906 7.723 85 12.835 83.492l263.573-77.59c5.122-1.506 10.628.956 12.304 5.467Z" fill="#fff"/><path fill-rule="evenodd" clip-rule="evenodd" d="M129.528 280.098c-1.044-.185-1.95-.859-2.316-1.825-.53-1.427.338-2.967 1.954-3.448l182.208-53.715c1.606-.472 3.352.306 3.883 1.734.53 1.427-.345 2.98-1.95 3.442L131.095 280.01a3.33 3.33 0 0 1-1.567.088ZM142.134 313.92c-1.044-.185-1.95-.859-2.316-1.822-.53-1.427.345-2.97 1.95-3.451l182.212-53.712c1.606-.465 3.338.306 3.872 1.734.541 1.427-.337 2.977-1.94 3.442l-182.211 53.721a3.275 3.275 0 0 1-1.567.088ZM116.939 246.266c-1.044-.184-1.95-.85-2.316-1.815-.53-1.437.338-2.977 1.954-3.458l182.208-53.715c1.606-.471 3.342.307 3.872 1.734.541 1.428-.334 2.98-1.939 3.443l-182.212 53.724a3.356 3.356 0 0 1-1.567.087ZM104.343 212.441c-1.044-.184-1.95-.859-2.316-1.821-.53-1.428.344-2.98 1.95-3.452l182.212-53.715c1.616-.471 3.341.31 3.882 1.737.531 1.428-.344 2.968-1.95 3.443L105.91 212.354a3.431 3.431 0 0 1-1.567.087ZM91.757 178.61c-1.043-.185-1.95-.859-2.315-1.821-.53-1.428.337-2.971 1.953-3.452l182.209-53.715c1.605-.472 3.341.306 3.872 1.737.541 1.427-.334 2.977-1.94 3.442L93.324 178.522a3.317 3.317 0 0 1-1.567.088ZM79.162 144.778c-1.044-.184-1.95-.849-2.316-1.811-.53-1.437.345-2.981 1.95-3.462l182.212-53.711c1.616-.475 3.342.306 3.883 1.733.53 1.428-.345 2.977-1.95 3.443L80.729 144.69a3.274 3.274 0 0 1-1.567.087ZM66.577 110.956c-1.044-.184-1.95-.859-2.316-1.824-.53-1.428.338-2.977 1.954-3.449l182.208-53.715c1.606-.471 3.341.307 3.882 1.734.531 1.428-.344 2.971-1.95 3.443L68.144 110.869a3.436 3.436 0 0 1-1.567.087ZM154.744 347.745c-1.044-.185-1.95-.859-2.316-1.815-.53-1.434.338-2.977 1.95-3.458l182.212-53.715c1.606-.462 3.341.306 3.882 1.734.531 1.43-.344 2.98-1.95 3.442l-182.211 53.724a3.306 3.306 0 0 1-1.567.088ZM202.583 371.183c-1.043-.184-1.95-.859-2.315-1.821-.53-1.428.337-2.971 1.95-3.452l111.742-32.935c1.616-.465 3.338.306 3.879 1.734.534 1.428-.344 2.977-1.95 3.442L204.15 371.096a3.315 3.315 0 0 1-1.567.087Z" fill="#B86767"/><mask id="a" style="mask-type:alpha" maskUnits="userSpaceOnUse" x="0" y="0" width="418" height="434"><path fill-rule="evenodd" clip-rule="evenodd" d="M0 0h417.312v433.454H0V0Z" fill="#fff"/></mask><g mask="url(#a)"><path fill-rule="evenodd" clip-rule="evenodd" d="M282.591.271a17.735 17.735 0 0 0-8.105.447l-263.587 77.6c-4.02 1.184-7.287 3.69-9.199 7.053-1.9 3.371-2.227 7.192-.885 10.756l121.952 327.677c1.792 4.783 6.363 8.381 11.946 9.381 2.691.472 5.499.325 8.116-.447l263.577-77.6c4.019-1.193 7.29-3.689 9.198-7.063 1.911-3.37 2.228-7.181.899-10.755L294.537 9.652c-1.781-4.798-6.363-8.39-11.946-9.38Zm-1.212 5.352c3.32.596 6.198 2.699 7.329 5.747l121.963 327.668c1.687 4.511-1.082 9.406-6.194 10.912L140.89 427.553c-1.666.49-3.366.559-4.965.278-3.317-.594-6.194-2.706-7.325-5.754L6.637 94.418c-1.676-4.52 1.082-9.415 6.194-10.924l263.587-77.59c1.662-.5 3.366-.569 4.961-.281Z" fill="#B86767"/></g><path fill-rule="evenodd" clip-rule="evenodd" d="m339.26 33.02 34.727 343.764c.481 4.739-3.475 8.944-8.833 9.375L88.613 408.257c-5.358.431-10.084-3.093-10.565-7.831L43.318 56.67c-.471-4.739 3.478-8.944 8.836-9.375l276.538-22.098c5.358-.422 10.094 3.083 10.568 7.822Z" fill="#fff"/><path fill-rule="evenodd" clip-rule="evenodd" d="M115.361 262.382c-.977-.393-1.676-1.237-1.785-2.243-.147-1.505 1.097-2.83 2.779-2.971l191.196-15.344c1.683-.125 3.169.981 3.327 2.487.148 1.49-1.092 2.821-2.786 2.952L116.907 262.61a3.458 3.458 0 0 1-1.546-.228ZM118.97 297.863c-.973-.393-1.683-1.224-1.792-2.243-.148-1.496 1.093-2.818 2.786-2.958l191.185-15.348c1.683-.121 3.173.981 3.328 2.481.151 1.496-1.093 2.827-2.787 2.958L120.516 298.1a3.325 3.325 0 0 1-1.546-.237ZM111.777 226.889c-.973-.394-1.683-1.234-1.792-2.24-.147-1.509 1.104-2.83 2.787-2.971l191.185-15.347c1.693-.122 3.173.981 3.338 2.49.147 1.487-1.104 2.82-2.787 2.952l-191.185 15.344a3.46 3.46 0 0 1-1.546-.228ZM108.19 191.399c-.973-.394-1.672-1.234-1.781-2.243-.158-1.506 1.093-2.827 2.776-2.968l191.195-15.347c1.694-.122 3.173.981 3.328 2.48.151 1.496-1.093 2.827-2.787 2.958l-191.185 15.348a3.483 3.483 0 0 1-1.546-.228ZM104.607 155.909c-.973-.394-1.673-1.237-1.782-2.243-.147-1.506 1.093-2.831 2.776-2.971l191.196-15.344c1.683-.125 3.172.98 3.33 2.486.148 1.49-1.096 2.821-2.789 2.952l-191.185 15.348a3.493 3.493 0 0 1-1.546-.228ZM101.026 120.415c-.977-.393-1.686-1.234-1.795-2.243-.148-1.505 1.103-2.83 2.789-2.967l191.185-15.348c1.694-.122 3.17.981 3.338 2.487.148 1.49-1.103 2.821-2.789 2.952l-191.182 15.347a3.435 3.435 0 0 1-1.546-.228ZM97.442 84.925c-.973-.393-1.683-1.237-1.791-2.243-.148-1.505 1.103-2.83 2.786-2.97l191.185-15.345c1.693-.125 3.173.981 3.338 2.487.147 1.49-1.104 2.82-2.787 2.952L98.988 85.153a3.456 3.456 0 0 1-1.546-.228ZM122.563 333.356c-.973-.396-1.683-1.227-1.781-2.243-.158-1.499 1.093-2.82 2.776-2.961l191.185-15.348c1.693-.121 3.173.981 3.338 2.481.147 1.496-1.093 2.83-2.786 2.961l-191.186 15.345a3.379 3.379 0 0 1-1.546-.235ZM163.141 365.879c-.974-.394-1.683-1.228-1.792-2.243-.148-1.497 1.103-2.821 2.786-2.962l117.248-9.406c1.683-.131 3.172.972 3.327 2.471.148 1.506-1.093 2.837-2.776 2.968l-117.247 9.409a3.457 3.457 0 0 1-1.546-.237Z" fill="#B86767"/><path fill-rule="evenodd" clip-rule="evenodd" d="M336.147 20.974c-2.491-1.016-5.27-1.437-8.007-1.219L51.602 41.857c-4.216.34-8.049 2.111-10.758 5-2.726 2.89-4.016 6.552-3.643 10.303l34.737 343.756c.503 5.029 4.04 9.462 9.22 11.564 2.501 1.016 5.27 1.428 8.007 1.209l276.538-22.092c4.226-.34 8.049-2.121 10.765-5.01 2.719-2.89 4.009-6.545 3.636-10.293l-34.73-343.765c-.51-5.03-4.048-9.462-9.227-11.555Zm-2.55 4.957c3.084 1.253 5.336 3.899 5.663 7.085l34.727 343.768c.485 4.739-3.475 8.944-8.833 9.372L88.617 408.257a10.86 10.86 0 0 1-4.905-.744c-3.085-1.252-5.34-3.879-5.664-7.087l-34.72-343.76c-.481-4.738 3.468-8.943 8.826-9.37l276.538-22.102c1.742-.137 3.418.14 4.905.737Z" fill="#B86767"/><path fill-rule="evenodd" clip-rule="evenodd" d="M448.15 495.706c-1.497 7.963-10.038 13.392-19.001 12.105l-287.075-42.178c-8.952-1.331-15.041-8.916-13.583-16.888l4.856-26.165.059-.322 4.058-21.795 53.433-287.52c1.448-7.981 9.986-13.395 18.948-12.099l232.061 34.085 41.118 6.035 13.889 2.049c8.963 1.341 15.048 8.9 13.594 16.897L448.15 495.706Z" fill="#F7D59C"/><path fill-rule="evenodd" clip-rule="evenodd" d="m133.29 422.986.228-1.19 52.576-283.081 279.71 41.097 39.917 5.861-52.79 284.265-319.641-46.952Z" fill="#B86767"/><path fill-rule="evenodd" clip-rule="evenodd" d="m379.261 388.692-130.757-19.208c-8.412-1.234-13.513-11.852-11.338-23.589l15.73-84.619c2.185-11.736 10.842-20.33 19.253-19.093l130.771 19.218c8.401 1.225 13.503 11.843 11.328 23.579l-15.73 84.619c-2.189 11.737-10.846 20.33-19.257 19.093Z" fill="#FAF9FF"/><path fill-rule="evenodd" clip-rule="evenodd" d="m505.729 185.676-39.92-5.861c4.008-18.843 8.017-27.18 17.216-38.848l13.888 2.049c8.963 1.331 15.049 8.9 13.59 16.897l-4.774 25.763Z" fill="#000F3F"/><path fill-rule="evenodd" clip-rule="evenodd" d="M264.301 307.435c-.815-.428-1.202-1.434-.865-2.506.383-1.312 1.673-2.224 2.874-2.055l124.208 17.693c1.304.185 2.298 1.481 2.189 2.89-.119 1.418-1.289 2.418-2.621 2.233l-125.185-18.071a1.694 1.694 0 0 1-.6-.184ZM274.37 328.661c-.857-.456-1.272-1.543-.956-2.699.383-1.399 1.715-2.383 2.955-2.199l95.675 14.341c1.332.2 2.305 1.575 2.136 3.074-.154 1.497-1.387 2.549-2.747 2.34l-96.445-14.657a1.713 1.713 0 0 1-.618-.2Z" fill="#CEE5D0"/><path fill-rule="evenodd" clip-rule="evenodd" d="M474.142 480.993c-1.3 4.073 1.349 8.303 5.931 9.459 4.571 1.156 9.328-1.209 10.639-5.264 1.289-4.064-1.36-8.303-5.931-9.468-4.571-1.15-9.339 1.209-10.639 5.273Z" fill="#F7D59C"/><path fill-rule="evenodd" clip-rule="evenodd" d="M247.284 196.744c-3.151 2.227-9.17 4.617-16.183 14.751-.622.912-1.272 1.824-2.048 2.621-1.086 1.121-2.828.912-3.517-.466-1.556-3.118-.731-7.488-6.286-16.247-3.257-5.142-7.062-7.235-2.954-9.294 10.262-5.135 15.473-14.585 17.651-16.959.935-1.015 2.6-.825 3.278.334.731 1.25.949 2.637 1.251 3.992 2.256 10.075 7.241 15.357 9.202 17.844.492.631.689 2.661-.394 3.424ZM511.985 441.917c-2.986 1.105-8.657 1.946-15.445 7.903-.601.534-1.229 1.068-1.978 1.515-1.036.622-2.66.244-3.271-.781-1.377-2.302-.502-5.157-5.484-11.808-2.917-3.905-6.423-5.807-2.534-6.673 9.694-2.155 14.774-7.884 16.861-9.209.907-.568 2.453-.225 3.054.641.66.946.818 1.908 1.075 2.873 1.873 7.123 6.423 11.353 8.165 13.271.453.49.58 1.893-.443 2.268Z" fill="#FFCF00"/><mask id="b" style="mask-type:alpha" maskUnits="userSpaceOnUse" x="434" y="71" width="148" height="274"><path fill-rule="evenodd" clip-rule="evenodd" d="M434.771 71.674h147.013v273.175H434.771V71.674Z" fill="#fff"/></mask><g mask="url(#b)"><path fill-rule="evenodd" clip-rule="evenodd" d="m573.163 333.372-40.932 11.012c-6.391 1.734-13.091-1.525-15.052-7.201L435.294 96.515c-1.932-5.623 1.645-11.624 8.036-13.339l.808-.219 39.319-10.599.808-.218c6.412-1.728 13.186 1.524 15.097 7.138l81.906 240.64c1.943 5.713-1.683 11.739-8.105 13.454Z" fill="#CEE5D0"/></g><path fill-rule="evenodd" clip-rule="evenodd" d="M443.452 51.39c-1.11.31-2.136.79-3.042 1.403l-6.254-18.368c-.267-.762-.148-1.55.295-2.224l7.269-11.046 8.144-12.352c1.35-2.102 4.877-1.724 5.664.597l11.732 34.512.523 1.506a11.148 11.148 0 0 0-3.419.359l-20.912 5.614ZM564.973 272.038l-42.995 11.574-21.066 5.682-48.588-142.707-1.732-5.117 19.313-5.21 44.786-12.027 50.282 147.805Z" fill="#CEE5D0"/><path fill-rule="evenodd" clip-rule="evenodd" d="m500.894 289.294 6.668 19.593 64.079-17.247-6.665-19.596-64.082 17.25ZM483.453 72.358l-39.319 10.6-7.101-20.893c-.099-.269-.158-.525-.225-.812a7.26 7.26 0 0 1-.042-3.121c.031-.21.091-.41.147-.628.06-.212.12-.403.197-.615.446-1.2 1.223-2.33 2.228-3.25.158-.13.333-.296.523-.446.176-.131.362-.281.552-.393.214-.15.453-.291.678-.438.176-.097.376-.203.573-.29.196-.107.404-.185.607-.263.355-.165.78-.306 1.184-.421l20.909-5.605a10.875 10.875 0 0 1 3.419-.359c3.9.21 7.385 2.53 8.58 6.06l4.911 14.47 2.179 6.404Z" fill="#95AB97"/><path fill-rule="evenodd" clip-rule="evenodd" d="M373.411 417.204c2.966.753 5.523 2.33 7.544 4.67a1880.46 1880.46 0 0 0 11.879 13.508l5.713 6.472c.699.806 1.409 1.628 2.157 2.409 1.901-3.39 2.758-6.501 3.633-9.609.622-2.225 1.251-4.452 1.971-6.648.738-2.199 1.416-4.417 2.108-6.623a328.689 328.689 0 0 1 2.017-6.385c1.054-3.164 3.548-5.588 7.034-6.807 3.91-1.383 7.821-2.758 11.77-4.064 2.512-.824 5.031-1.596 7.554-2.374 4.216-1.296 8.432-2.593 12.529-4.117.038-.072.088-.141.116-.209-.837-.641-1.557-1.175-2.344-1.622l-20.427-11.527c-1.968-1.121-3.939-2.277-5.692-3.617-1.447-1.131-2.463-2.462-3.282-3.54-2.48-3.251-2.649-6.297-2.589-8.331.032-.962.098-1.927.179-2.889.099-1.325.204-2.637.137-3.961-.256-5.414-.66-10.828-1.054-16.232l-.147-2.021c-.039-.484-.13-.956-.229-1.437-3.309 2.137-6.233 4.264-9.159 6.41l-7.86 5.714c-3.278 2.389-6.619 4.695-9.996 6.972-2.933 1.977-6.588 2.565-10.263 1.656a1919.9 1919.9 0 0 1-17.265-4.442c-2.691-.7-5.368-1.437-8.049-2.165l-3.988-1.094c-1.339-.343-2.61-.446-3.822-.237.414-.062.6.568.867 1.165l12.579 28.627-.131 1.084c-.509 3.889-1.967 7.282-4.606 10.643l-2.751 3.505a946.972 946.972 0 0 0-7.434 9.565 261.902 261.902 0 0 0-6.008 8.207c3.879-.113 7.603-.122 11.327-.138 5.211-.009 10.144-.028 15.031-.615 1.574-.191 3.169-.263 4.775-.341l.983-.043c1.845-.078 3.577.078 5.193.481Zm25.044 35.809a11.071 11.071 0 0 1-5.21-3.04c-.868-.884-1.694-1.831-2.512-2.774l-5.632-6.404c-4.002-4.511-8.001-9.022-11.95-13.57-1.17-1.365-2.403-1.84-4.402-1.759l-1.015.044c-1.318.069-2.65.122-3.96.278-5.534.669-11.018.684-16.32.694-3.623.009-7.259.018-10.871.237-.998.069-1.862-.053-2.435-.15-3.239-.378-5.899-2.252-7.308-4.861-1.349-2.524-1.289-5.301.169-7.419 2.224-3.233 4.56-6.413 6.953-9.559 2.474-3.23 4.982-6.438 7.505-9.653l2.737-3.501c1.479-1.875 2.326-3.612 2.74-5.617L335.262 359.4a24.211 24.211 0 0 1-.994-2.671c-.633-2.024-.208-4.302 1.163-6.254a9.726 9.726 0 0 1 6.254-4.011c2.796-.49 5.533-.306 8.597.462l4.009 1.097c2.649.718 5.277 1.437 7.93 2.137a1936.66 1936.66 0 0 0 17.156 4.414c.907.228 1.328.018 1.655-.21a367.711 367.711 0 0 0 9.732-6.788l7.818-5.685c3.172-2.331 6.345-4.652 9.546-6.948 1.398-1.006 3.032-1.443 4.451-1.734 2.119-.418 4.55.019 6.669 1.2 2.136 1.203 3.633 2.996 4.114 4.898.316 1.278.583 2.531.682 3.818l.147 2.008c.404 5.473.798 10.949 1.065 16.432.077 1.637-.032 3.267-.158 4.914-.06.849-.13 1.69-.148 2.539-.038 1.34.137 2.199.58 2.777.868 1.147 1.43 1.884 1.901 2.253 1.388 1.068 2.976 1.961 4.539 2.855l20.438 11.536c1.36.778 2.6 1.69 3.823 2.627 3.271 2.487 4.047 5.886 2.403 9.522-.334.737-.777 1.403-1.272 2.112l-.805 1.155-1.893 1.263c-4.768 1.864-9.701 3.389-14.655 4.913-2.452.763-4.915 1.515-7.347 2.312-3.882 1.287-7.743 2.637-11.584 3.986-.66.238-1.004.569-1.191 1.131-.688 2.084-1.331 4.167-1.981 6.254-.706 2.268-1.406 4.529-2.147 6.779-.699 2.068-1.279 4.179-1.869 6.282-.945 3.37-1.901 6.754-3.201 10.037-1.349 3.408-4.276 5.782-7.852 6.379a10.416 10.416 0 0 1-4.382-.178Z" fill="#fff"/><path fill-rule="evenodd" clip-rule="evenodd" d="M352 385.443c-4.108-9.346-8.138-18.483-12.147-27.618-.323-.737-.6-1.499-.836-2.261-.59-1.928 1.328-4.395 3.623-4.798 2.118-.369 4.177-.204 6.208.34 3.998 1.087 7.976 2.209 11.984 3.258a2199.763 2199.763 0 0 0 17.206 4.414c2.129.544 4.198.263 5.969-.918a368.469 368.469 0 0 0 9.859-6.885c5.804-4.189 11.545-8.444 17.356-12.624.661-.471 1.596-.69 2.453-.865 1.82-.378 4.469 1.156 4.873 2.774.267 1.034.502 2.096.573 3.146.453 6.113.917 12.236 1.212 18.359.116 2.368-.236 4.767-.306 7.141-.06 1.89.207 3.748 1.437 5.36.829 1.087 1.645 2.234 2.741 3.084 1.563 1.218 3.348 2.233 5.108 3.239 6.806 3.864 13.643 7.666 20.449 11.536 1.251.719 2.382 1.597 3.517 2.462 1.366 1.034 1.633 2.496.787 4.364-.324.718-.868 1.365-1.378 2.152-7.055 2.771-14.479 4.739-21.737 7.142-3.911 1.287-7.8 2.645-11.683 4.02-2.069.728-3.485 2.084-4.107 3.967-1.419 4.327-2.688 8.691-4.125 13.017-1.774 5.342-2.905 10.837-4.996 16.116-1.584 4.024-6.155 4.767-9.061 1.762-1.17-1.209-2.235-2.496-3.338-3.748-5.537-6.283-11.109-12.518-16.587-18.834-2.217-2.559-5.052-3.618-8.569-3.452-1.792.087-3.595.141-5.376.353-8.924 1.075-17.919.35-26.871.909-.58.034-1.18-.097-1.771-.166-2.543-.306-4.592-3.68-3.25-5.616 2.175-3.177 4.469-6.298 6.816-9.381 3.356-4.396 6.806-8.75 10.221-13.12 1.901-2.437 3.282-5.064 3.746-8.629Z" fill="#F2C535"/><path fill-rule="evenodd" clip-rule="evenodd" d="m368.159 288.351 8.369-.113c.534-.009 1.036-.246 1.331-.649l4.638-6.201c.738-.991 2.453-.797 2.888.334l2.706 7.051c.179.446.583.796 1.103.918l8.056 2.009c1.304.321 1.616 1.821.545 2.549l-6.7 4.467c-.422.287-.668.743-.64 1.209l.344 7.444c.06 1.199-1.458 1.937-2.55 1.243l-6.855-4.283a1.783 1.783 0 0 0-1.507-.165l-7.839 2.593c-1.261.403-2.512-.641-2.119-1.787l2.463-7.113c.148-.456.05-.947-.284-1.325l-5.193-5.832c-.836-.947-.106-2.321 1.244-2.349ZM319.606 279.635l8.369-.122c.534 0 1.036-.246 1.331-.64l4.638-6.201c.741-.99 2.453-.8 2.888.331l2.709 7.051c.176.447.58.79 1.103.912l8.064 2.015c1.293.325 1.605 1.821.534 2.54l-6.69 4.476c-.432.291-.667.744-.65 1.209l.344 7.444c.06 1.203-1.454 1.928-2.55 1.247l-6.855-4.286a1.772 1.772 0 0 0-1.497-.166l-7.849 2.593c-1.261.403-2.512-.637-2.119-1.787l2.463-7.113c.158-.456.05-.946-.284-1.321l-5.193-5.836c-.836-.943-.099-2.321 1.244-2.346ZM271.872 270.123l8.362.412c.534.025 1.043-.184 1.37-.562l5.123-5.885c.826-.947 2.512-.647 2.856.509l2.147 7.201c.127.453.513.83 1.015.99l7.878 2.511c1.272.403 1.468 1.928.344 2.578l-7.041 4.036c-.453.256-.72.693-.738 1.165l-.246 7.447c-.049 1.19-1.605 1.831-2.652 1.068l-6.5-4.695a1.795 1.795 0 0 0-1.476-.272l-8.039 2.094c-1.289.334-2.452-.797-1.967-1.909l3.021-6.948c.197-.437.13-.937-.175-1.33l-4.719-6.148c-.748-.99.098-2.331 1.437-2.262Z" fill="#CEE5D0"/><path fill-rule="evenodd" clip-rule="evenodd" d="M233.105 275.965c.186.15.228.387.087.587l-3.682 5.167c-.295.422.176.887.65.675l103.693-44.087c.481-.2.365-.813-.169-.875l-6.134-.612-.72-.078c-.373-.038-.58-.432-.383-.719l4.233-5.913c.208-.297 0-.684-.393-.719l-7.828-.781c-.376-.05-.583-.437-.397-.718l3.714-5.186c.288-.394-.187-.875-.668-.665l-103.693 44.087c-.288.122-.365.412-.246.621.116.097.215.169.302.219.05.019.081.044.13.044l6.834.693c.387.035.601.422.387.719a131.294 131.294 0 0 1-2.397 3.345l-1.595 2.215c-.007.028-.007.044-.007.044l-.218.3a.325.325 0 0 0-.07.306l-.01.025c.021.184.207.369.463.397 2.179.243 3.862.365 5.112.496l2.267.228c.028.01.049 0 .049.019l.393.035c.12 0 .236.053.296.131Z" fill="#FFCF00"/></svg>