<svg width="582" height="508" viewBox="0 0 582 508" fill="none" xmlns="http://www.w3.org/2000/svg">
<path opacity="0.74707" fill-rule="evenodd" clip-rule="evenodd" d="M465.223 197.923L463.963 200.489C443.235 242.469 415.727 287.904 370.691 314.212C325.555 340.568 262.887 347.798 205.298 351.981L201.779 352.233C143.132 356.43 90.252 357.797 55.84 342.575C21.4538 327.408 5.53535 295.653 6.01031 256.715C6.48529 217.777 23.4575 171.608 65.1973 132.171C106.911 92.6795 173.392 59.9173 241.073 35.7153C308.753 11.5133 377.504 -4.14017 423.189 4.31679C468.798 12.88 491.214 45.5449 495.518 81.1615C499.798 116.722 485.992 155.288 465.223 197.923Z" fill="#F7D59C" fill-opacity="0.5"/>
<path fill-rule="evenodd" clip-rule="evenodd" d="M288.712 11.3678L410.675 339.032C412.358 343.553 409.593 348.441 404.481 349.947L140.894 427.556C135.792 429.065 130.286 426.594 128.6 422.083L6.63701 94.4155C4.95406 89.9046 7.72265 85.0002 12.8347 83.4914L276.408 5.90101C281.53 4.39531 287.036 6.85691 288.712 11.3678Z" fill="white"/>
<path fill-rule="evenodd" clip-rule="evenodd" d="M129.528 280.098C128.484 279.913 127.578 279.239 127.212 278.273C126.682 276.846 127.55 275.306 129.166 274.825L311.374 221.11C312.98 220.638 314.726 221.416 315.257 222.844C315.787 224.271 314.912 225.824 313.307 226.286L131.095 280.01C130.564 280.166 130.03 280.194 129.528 280.098Z" fill="#B86767"/>
<path fill-rule="evenodd" clip-rule="evenodd" d="M142.134 313.92C141.09 313.735 140.184 313.061 139.818 312.098C139.288 310.671 140.163 309.128 141.768 308.647L323.98 254.935C325.586 254.47 327.318 255.241 327.852 256.669C328.393 258.096 327.515 259.646 325.912 260.111L143.701 313.832C143.177 313.992 142.636 314.016 142.134 313.92Z" fill="#B86767"/>
<path fill-rule="evenodd" clip-rule="evenodd" d="M116.939 246.266C115.895 246.082 114.989 245.416 114.623 244.451C114.093 243.014 114.961 241.474 116.577 240.993L298.785 187.278C300.391 186.807 302.127 187.585 302.657 189.012C303.198 190.44 302.323 191.992 300.718 192.455L118.506 246.179C117.975 246.335 117.441 246.36 116.939 246.266Z" fill="#B86767"/>
<path fill-rule="evenodd" clip-rule="evenodd" d="M104.343 212.441C103.299 212.257 102.393 211.582 102.027 210.62C101.497 209.192 102.371 207.64 103.977 207.168L286.189 153.453C287.805 152.982 289.53 153.763 290.071 155.19C290.602 156.618 289.727 158.158 288.121 158.633L105.91 212.354C105.386 212.51 104.845 212.529 104.343 212.441Z" fill="#B86767"/>
<path fill-rule="evenodd" clip-rule="evenodd" d="M91.7572 178.61C90.7137 178.425 89.8073 177.751 89.4419 176.789C88.9113 175.361 89.7791 173.818 91.3953 173.337L273.604 119.622C275.209 119.15 276.945 119.928 277.476 121.359C278.017 122.786 277.142 124.336 275.536 124.801L93.3242 178.522C92.7937 178.678 92.2596 178.707 91.7572 178.61Z" fill="#B86767"/>
<path fill-rule="evenodd" clip-rule="evenodd" d="M79.1619 144.778C78.1184 144.594 77.2119 143.929 76.8465 142.967C76.316 141.53 77.1908 139.986 78.7964 139.505L261.008 85.7937C262.624 85.3188 264.35 86.0998 264.891 87.5274C265.421 88.955 264.546 90.5044 262.941 90.9699L80.7289 144.691C80.2053 144.85 79.6643 144.875 79.1619 144.778Z" fill="#B86767"/>
<path fill-rule="evenodd" clip-rule="evenodd" d="M66.5766 110.956C65.5331 110.772 64.6266 110.097 64.2612 109.132C63.7307 107.704 64.5985 106.155 66.2147 105.683L248.423 51.9685C250.029 51.4968 251.764 52.2746 252.305 53.7022C252.836 55.1298 251.961 56.673 250.355 57.1447L68.1436 110.869C67.613 111.025 67.079 111.044 66.5766 110.956Z" fill="#B86767"/>
<path fill-rule="evenodd" clip-rule="evenodd" d="M154.744 347.745C153.7 347.56 152.794 346.886 152.428 345.93C151.898 344.496 152.766 342.953 154.378 342.472L336.59 288.757C338.196 288.295 339.931 289.063 340.472 290.491C341.003 291.921 340.128 293.471 338.522 293.933L156.311 347.657C155.777 347.814 155.246 347.842 154.744 347.745Z" fill="#B86767"/>
<path fill-rule="evenodd" clip-rule="evenodd" d="M202.583 371.183C201.54 370.999 200.633 370.324 200.268 369.362C199.738 367.934 200.605 366.391 202.218 365.91L313.96 332.975C315.576 332.51 317.298 333.281 317.839 334.709C318.373 336.137 317.495 337.686 315.889 338.151L204.15 371.096C203.62 371.252 203.086 371.28 202.583 371.183Z" fill="#B86767"/>
<mask id="mask0" style="mask-type:alpha" maskUnits="userSpaceOnUse" x="0" y="0" width="418" height="434">
<path fill-rule="evenodd" clip-rule="evenodd" d="M0 0H417.312V433.454H0V0Z" fill="white"/>
</mask>
<g mask="url(#mask0)">
<path fill-rule="evenodd" clip-rule="evenodd" d="M282.591 0.271358C279.903 -0.209716 277.096 -0.0535068 274.486 0.718086L10.8985 78.3178C6.87905 79.5017 3.61154 82.0071 1.70021 85.3715C-0.20057 88.7422 -0.527318 92.5626 0.814825 96.1269L122.767 423.804C124.559 428.587 129.13 432.185 134.713 433.185C137.404 433.657 140.212 433.51 142.829 432.738L406.406 355.138C410.425 353.945 413.696 351.449 415.604 348.075C417.515 344.705 417.832 340.894 416.503 337.32L294.537 9.65227C292.756 4.85403 288.174 1.26162 282.591 0.271358ZM281.379 5.62252C284.699 6.21918 287.577 8.32152 288.708 11.3704L410.671 339.038C412.358 343.549 409.589 348.444 404.477 349.95L140.89 427.553C139.224 428.043 137.524 428.112 135.925 427.831C132.608 427.237 129.731 425.125 128.6 422.077L6.63663 94.4182C4.96071 89.898 7.71878 85.0029 12.8309 83.494L276.418 5.90365C278.08 5.40384 279.784 5.33512 281.379 5.62252Z" fill="#B86767"/>
</g>
<path fill-rule="evenodd" clip-rule="evenodd" d="M339.26 33.0192L373.987 376.784C374.468 381.523 370.512 385.728 365.154 386.159L88.613 408.257C83.2549 408.688 78.5293 405.164 78.048 400.426L43.3174 56.6699C42.8466 51.931 46.7957 47.7263 52.1537 47.2952L328.692 25.1971C334.05 24.7753 338.786 28.2803 339.26 33.0192Z" fill="white"/>
<path fill-rule="evenodd" clip-rule="evenodd" d="M115.361 262.382C114.384 261.989 113.685 261.145 113.576 260.139C113.429 258.634 114.673 257.309 116.355 257.168L307.551 241.824C309.234 241.699 310.72 242.805 310.878 244.311C311.026 245.801 309.786 247.132 308.092 247.263L116.907 262.61C116.355 262.654 115.832 262.567 115.361 262.382Z" fill="#B86767"/>
<path fill-rule="evenodd" clip-rule="evenodd" d="M118.97 297.863C117.997 297.47 117.287 296.639 117.178 295.62C117.03 294.124 118.271 292.802 119.964 292.662L311.149 277.314C312.832 277.193 314.322 278.295 314.477 279.795C314.628 281.291 313.384 282.622 311.69 282.753L120.516 298.1C119.964 298.144 119.434 298.057 118.97 297.863Z" fill="#B86767"/>
<path fill-rule="evenodd" clip-rule="evenodd" d="M111.777 226.889C110.804 226.495 110.094 225.655 109.985 224.649C109.838 223.14 111.089 221.819 112.772 221.678L303.957 206.331C305.65 206.209 307.13 207.312 307.295 208.821C307.442 210.308 306.191 211.641 304.508 211.773L113.323 227.117C112.772 227.161 112.241 227.073 111.777 226.889Z" fill="#B86767"/>
<path fill-rule="evenodd" clip-rule="evenodd" d="M108.19 191.399C107.217 191.005 106.518 190.165 106.409 189.156C106.251 187.65 107.502 186.329 109.185 186.188L300.38 170.841C302.074 170.719 303.553 171.822 303.708 173.321C303.859 174.817 302.615 176.148 300.921 176.279L109.736 191.627C109.185 191.671 108.665 191.583 108.19 191.399Z" fill="#B86767"/>
<path fill-rule="evenodd" clip-rule="evenodd" d="M104.607 155.909C103.634 155.515 102.934 154.672 102.825 153.666C102.678 152.16 103.918 150.835 105.601 150.695L296.797 135.351C298.48 135.226 299.969 136.331 300.127 137.837C300.275 139.327 299.031 140.658 297.338 140.789L106.153 156.137C105.601 156.18 105.081 156.093 104.607 155.909Z" fill="#B86767"/>
<path fill-rule="evenodd" clip-rule="evenodd" d="M101.026 120.415C100.049 120.022 99.3395 119.181 99.2306 118.172C99.083 116.667 100.334 115.342 102.02 115.205L293.205 99.8572C294.899 99.7354 296.375 100.838 296.543 102.344C296.691 103.834 295.44 105.165 293.754 105.296L102.572 120.643C102.02 120.687 101.486 120.6 101.026 120.415Z" fill="#B86767"/>
<path fill-rule="evenodd" clip-rule="evenodd" d="M97.4424 84.9252C96.4692 84.5316 95.7594 83.6881 95.6505 82.6823C95.5029 81.1766 96.7537 79.852 98.4367 79.7115L289.622 64.3671C291.315 64.2422 292.795 65.348 292.96 66.8537C293.107 68.3437 291.856 69.6745 290.173 69.8057L98.9883 85.1532C98.4367 85.197 97.9062 85.1095 97.4424 84.9252Z" fill="#B86767"/>
<path fill-rule="evenodd" clip-rule="evenodd" d="M122.563 333.356C121.59 332.96 120.88 332.129 120.782 331.113C120.624 329.614 121.875 328.293 123.558 328.152L314.743 312.804C316.436 312.683 317.916 313.785 318.081 315.285C318.228 316.781 316.988 318.115 315.295 318.246L124.109 333.591C123.558 333.634 123.027 333.547 122.563 333.356Z" fill="#B86767"/>
<path fill-rule="evenodd" clip-rule="evenodd" d="M163.141 365.879C162.167 365.485 161.458 364.651 161.349 363.636C161.201 362.139 162.452 360.815 164.135 360.674L281.383 351.268C283.066 351.137 284.555 352.24 284.71 353.739C284.858 355.245 283.617 356.576 281.934 356.707L164.687 366.116C164.135 366.16 163.604 366.063 163.141 365.879Z" fill="#B86767"/>
<path fill-rule="evenodd" clip-rule="evenodd" d="M336.147 20.9736C333.656 19.9583 330.877 19.5366 328.14 19.7553L51.6023 41.8566C47.3861 42.1971 43.553 43.9683 40.8441 46.8578C38.1176 49.7474 36.8282 53.4086 37.2006 57.1603L71.9383 400.916C72.4407 405.945 75.9787 410.378 81.1576 412.48C83.6592 413.496 86.4278 413.908 89.1648 413.689L365.703 391.597C369.929 391.257 373.752 389.476 376.468 386.587C379.187 383.697 380.477 380.042 380.104 376.294L345.374 32.5287C344.864 27.4993 341.326 23.0666 336.147 20.9736ZM333.597 25.9312C336.681 27.1838 338.933 29.8297 339.26 33.016L373.987 376.784C374.472 381.523 370.512 385.728 365.154 386.156L88.6167 408.257C86.874 408.398 85.1981 408.107 83.7119 407.513C80.6271 406.261 78.3714 403.634 78.0482 400.426L43.3281 56.6668C42.8468 51.9279 46.7959 47.7232 52.154 47.2952L328.692 25.1939C330.434 25.0565 332.11 25.3345 333.597 25.9312Z" fill="#B86767"/>
<path fill-rule="evenodd" clip-rule="evenodd" d="M448.15 495.706C446.653 503.669 438.112 509.098 429.149 507.811L142.074 465.633C133.122 464.302 127.033 456.717 128.491 448.745L133.347 422.58L133.406 422.258L137.464 400.463L190.897 112.943C192.345 104.962 200.883 99.548 209.845 100.844L441.906 134.929L483.024 140.964L496.913 143.013C505.876 144.354 511.961 151.913 510.507 159.91L448.15 495.706Z" fill="#F7D59C"/>
<path fill-rule="evenodd" clip-rule="evenodd" d="M133.29 422.986L133.518 421.796L186.094 138.715L465.804 179.812L505.721 185.673L452.931 469.938L133.29 422.986Z" fill="#B86767"/>
<path fill-rule="evenodd" clip-rule="evenodd" d="M379.261 388.692L248.504 369.484C240.092 368.25 234.991 357.632 237.166 345.895L252.896 261.276C255.081 249.54 263.738 240.946 272.149 242.183L402.92 261.401C411.321 262.626 416.423 273.244 414.248 284.98L398.518 369.599C396.329 381.336 387.672 389.929 379.261 388.692Z" fill="#FAF9FF"/>
<path fill-rule="evenodd" clip-rule="evenodd" d="M505.729 185.676L465.809 179.815C469.817 160.972 473.826 152.635 483.025 140.967L496.913 143.016C505.876 144.347 511.962 151.916 510.503 159.913L505.729 185.676Z" fill="#000F3F"/>
<path fill-rule="evenodd" clip-rule="evenodd" d="M264.301 307.435C263.486 307.007 263.099 306.001 263.436 304.929C263.819 303.617 265.109 302.705 266.31 302.874L390.518 320.567C391.822 320.752 392.816 322.048 392.707 323.457C392.588 324.875 391.418 325.875 390.086 325.69L264.901 307.619C264.687 307.594 264.48 307.531 264.301 307.435Z" fill="#CEE5D0"/>
<path fill-rule="evenodd" clip-rule="evenodd" d="M274.37 328.661C273.513 328.205 273.098 327.118 273.414 325.962C273.797 324.563 275.129 323.579 276.369 323.763L372.044 338.104C373.376 338.304 374.349 339.679 374.18 341.178C374.026 342.675 372.793 343.727 371.433 343.518L274.988 328.861C274.774 328.836 274.556 328.764 274.37 328.661Z" fill="#CEE5D0"/>
<path fill-rule="evenodd" clip-rule="evenodd" d="M474.142 480.993C472.842 485.066 475.491 489.296 480.073 490.452C484.644 491.608 489.401 489.243 490.712 485.188C492.001 481.124 489.352 476.885 484.781 475.72C480.21 474.57 475.442 476.929 474.142 480.993Z" fill="#F7D59C"/>
<path fill-rule="evenodd" clip-rule="evenodd" d="M247.284 196.744C244.133 198.971 238.114 201.361 231.101 211.495C230.479 212.407 229.829 213.319 229.053 214.116C227.967 215.237 226.225 215.028 225.536 213.65C223.98 210.532 224.805 206.162 219.25 197.403C215.993 192.261 212.188 190.168 216.296 188.109C226.558 182.974 231.769 173.524 233.947 171.15C234.882 170.135 236.547 170.325 237.225 171.484C237.956 172.734 238.174 174.121 238.476 175.476C240.732 185.551 245.717 190.833 247.678 193.32C248.17 193.951 248.367 195.981 247.284 196.744Z" fill="#FFCF00"/>
<path fill-rule="evenodd" clip-rule="evenodd" d="M511.985 441.917C508.999 443.022 503.328 443.863 496.54 449.82C495.939 450.354 495.311 450.888 494.562 451.335C493.526 451.957 491.902 451.579 491.291 450.554C489.914 448.252 490.789 445.397 485.807 438.746C482.89 434.841 479.384 432.939 483.273 432.073C492.967 429.918 498.047 424.189 500.134 422.864C501.041 422.296 502.587 422.639 503.188 423.505C503.848 424.451 504.006 425.413 504.263 426.378C506.136 433.501 510.686 437.731 512.428 439.649C512.881 440.139 513.008 441.542 511.985 441.917Z" fill="#FFCF00"/>
<mask id="mask1" style="mask-type:alpha" maskUnits="userSpaceOnUse" x="434" y="71" width="148" height="274">
<path fill-rule="evenodd" clip-rule="evenodd" d="M434.771 71.6738H581.784V344.849H434.771V71.6738Z" fill="white"/>
</mask>
<g mask="url(#mask1)">
<path fill-rule="evenodd" clip-rule="evenodd" d="M573.163 333.372L532.231 344.384C525.84 346.118 519.14 342.859 517.179 337.183L435.294 96.5151C433.362 90.8921 436.939 84.8912 443.33 83.1762L444.138 82.9575L483.457 72.3583L484.265 72.1396C490.677 70.4121 497.451 73.664 499.362 79.2776L581.268 319.918C583.211 325.631 579.585 331.657 573.163 333.372Z" fill="#CEE5D0"/>
</g>
<path fill-rule="evenodd" clip-rule="evenodd" d="M443.452 51.3906C442.342 51.6998 441.316 52.1809 440.41 52.7932L434.156 34.4249C433.889 33.6627 434.008 32.8755 434.451 32.2007L441.72 21.1548L449.864 8.80304C451.214 6.70068 454.741 7.07865 455.528 9.39968L467.26 43.9121L467.783 45.4178C466.669 45.3646 465.496 45.4709 464.364 45.777L443.452 51.3906Z" fill="#CEE5D0"/>
<path fill-rule="evenodd" clip-rule="evenodd" d="M564.973 272.038L521.978 283.612L500.912 289.294L452.324 146.587L450.592 141.47L469.905 136.26L514.691 124.233L564.973 272.038Z" fill="#CEE5D0"/>
<path fill-rule="evenodd" clip-rule="evenodd" d="M500.894 289.294L507.562 308.887L571.641 291.64L564.976 272.044L500.894 289.294Z" fill="#95AB97"/>
<path fill-rule="evenodd" clip-rule="evenodd" d="M483.453 72.358L444.134 82.9572L437.033 62.0649C436.934 61.7962 436.875 61.54 436.808 61.2526C436.569 60.1905 436.552 59.1597 436.766 58.1319C436.797 57.9226 436.857 57.7227 436.913 57.504C436.973 57.2916 437.033 57.101 437.11 56.8886C437.556 55.689 438.333 54.5582 439.338 53.6398C439.496 53.5086 439.671 53.343 439.861 53.1931C440.037 53.0619 440.223 52.9119 440.413 52.7995C440.627 52.6495 440.866 52.509 441.091 52.3621C441.267 52.2653 441.467 52.1591 441.664 52.0716C441.86 51.9654 442.068 51.8873 442.271 51.8092C442.626 51.6436 443.051 51.503 443.455 51.3875L464.364 45.7833C465.499 45.4771 466.669 45.3615 467.783 45.424C471.683 45.6333 475.168 47.9544 476.363 51.4843L481.274 65.954L483.453 72.358Z" fill="#95AB97"/>
<path fill-rule="evenodd" clip-rule="evenodd" d="M373.411 417.204C376.377 417.957 378.934 419.534 380.955 421.874C384.886 426.4 388.853 430.886 392.834 435.382L398.547 441.854C399.246 442.66 399.956 443.482 400.704 444.263C402.605 440.873 403.462 437.762 404.337 434.654C404.959 432.429 405.588 430.202 406.308 428.006C407.046 425.807 407.724 423.589 408.416 421.383C409.073 419.247 409.734 417.116 410.433 414.998C411.487 411.834 413.981 409.41 417.467 408.191C421.377 406.808 425.288 405.433 429.237 404.127C431.749 403.303 434.268 402.531 436.791 401.753C441.007 400.457 445.223 399.16 449.32 397.636C449.358 397.564 449.408 397.495 449.436 397.427C448.599 396.786 447.879 396.252 447.092 395.805L426.665 384.278C424.697 383.157 422.726 382.001 420.973 380.661C419.526 379.53 418.51 378.199 417.691 377.121C415.211 373.87 415.042 370.824 415.102 368.79C415.134 367.828 415.2 366.863 415.281 365.901C415.38 364.576 415.485 363.264 415.418 361.94C415.162 356.526 414.758 351.112 414.364 345.708L414.217 343.687C414.178 343.203 414.087 342.731 413.988 342.25C410.679 344.387 407.755 346.514 404.829 348.66L396.969 354.374C393.691 356.763 390.35 359.069 386.973 361.346C384.04 363.323 380.385 363.911 376.71 363.002C370.938 361.546 365.186 360.065 359.445 358.56C356.754 357.86 354.077 357.123 351.396 356.395L347.408 355.301C346.069 354.958 344.798 354.855 343.586 355.064C344 355.002 344.186 355.632 344.453 356.229L357.032 384.856L356.901 385.94C356.392 389.829 354.934 393.222 352.295 396.583L349.544 400.088C347.053 403.259 344.562 406.448 342.11 409.653C340.051 412.362 338.041 415.092 336.102 417.86C339.981 417.747 343.705 417.738 347.429 417.722C352.64 417.713 357.573 417.694 362.46 417.107C364.034 416.916 365.629 416.844 367.235 416.766L368.218 416.723C370.063 416.645 371.795 416.801 373.411 417.204ZM398.455 453.013C396.516 452.516 394.703 451.482 393.245 449.973C392.377 449.089 391.551 448.142 390.733 447.199L385.101 440.795C381.099 436.284 377.1 431.773 373.151 427.225C371.981 425.86 370.748 425.385 368.749 425.466L367.734 425.51C366.416 425.579 365.084 425.632 363.774 425.788C358.24 426.457 352.756 426.472 347.454 426.482C343.831 426.491 340.195 426.5 336.583 426.719C335.585 426.788 334.721 426.666 334.148 426.569C330.909 426.191 328.249 424.317 326.84 421.708C325.491 419.184 325.551 416.407 327.009 414.289C329.233 411.056 331.569 407.876 333.962 404.73C336.436 401.5 338.944 398.292 341.467 395.077L344.204 391.576C345.683 389.701 346.53 387.964 346.944 385.959L335.262 359.4C334.879 358.525 334.542 357.632 334.268 356.729C333.635 354.705 334.06 352.427 335.431 350.475C336.878 348.382 339.162 346.911 341.685 346.464C344.481 345.974 347.218 346.158 350.282 346.926L354.291 348.023C356.94 348.741 359.568 349.46 362.221 350.16C367.941 351.659 373.654 353.13 379.377 354.574C380.284 354.802 380.705 354.592 381.032 354.364C384.31 352.156 387.56 349.888 390.764 347.576L398.582 341.891C401.754 339.56 404.927 337.239 408.128 334.943C409.526 333.937 411.16 333.5 412.579 333.209C414.698 332.791 417.129 333.228 419.248 334.409C421.384 335.612 422.881 337.405 423.362 339.307C423.678 340.585 423.945 341.838 424.044 343.125L424.191 345.133C424.595 350.606 424.989 356.082 425.256 361.565C425.333 363.202 425.224 364.832 425.098 366.479C425.038 367.328 424.968 368.169 424.95 369.018C424.912 370.358 425.087 371.217 425.53 371.795C426.398 372.942 426.96 373.679 427.431 374.048C428.819 375.116 430.407 376.009 431.97 376.903L452.408 388.439C453.768 389.217 455.008 390.129 456.231 391.066C459.502 393.553 460.278 396.952 458.634 400.588C458.3 401.325 457.857 401.991 457.362 402.7L456.557 403.855L454.664 405.118C449.896 406.982 444.963 408.507 440.009 410.031C437.557 410.794 435.094 411.546 432.662 412.343C428.78 413.63 424.919 414.98 421.078 416.329C420.418 416.567 420.074 416.898 419.887 417.46C419.199 419.544 418.556 421.627 417.906 423.714C417.2 425.982 416.5 428.243 415.759 430.493C415.06 432.561 414.48 434.672 413.89 436.775C412.945 440.145 411.989 443.529 410.689 446.812C409.34 450.22 406.413 452.594 402.837 453.191C401.361 453.453 399.882 453.372 398.455 453.013Z" fill="white"/>
<path fill-rule="evenodd" clip-rule="evenodd" d="M352 385.443C347.892 376.097 343.862 366.96 339.853 357.825C339.53 357.088 339.253 356.326 339.017 355.564C338.427 353.636 340.345 351.169 342.64 350.766C344.758 350.397 346.817 350.562 348.848 351.106C352.846 352.193 356.824 353.315 360.832 354.364C366.556 355.861 372.297 357.326 378.038 358.778C380.167 359.322 382.236 359.041 384.007 357.86C387.338 355.617 390.616 353.321 393.866 350.975C399.67 346.786 405.411 342.531 411.222 338.351C411.883 337.88 412.818 337.661 413.675 337.486C415.495 337.108 418.144 338.642 418.548 340.26C418.815 341.294 419.05 342.356 419.121 343.406C419.574 349.519 420.038 355.642 420.333 361.765C420.449 364.133 420.097 366.532 420.027 368.906C419.967 370.796 420.234 372.654 421.464 374.266C422.293 375.353 423.109 376.5 424.205 377.35C425.768 378.568 427.553 379.583 429.313 380.589C436.119 384.453 442.956 388.255 449.762 392.125C451.013 392.844 452.144 393.722 453.279 394.587C454.645 395.621 454.912 397.083 454.066 398.951C453.742 399.669 453.198 400.316 452.688 401.103C445.633 403.874 438.209 405.842 430.951 408.245C427.04 409.532 423.151 410.89 419.268 412.265C417.199 412.993 415.783 414.349 415.161 416.232C413.742 420.559 412.473 424.923 411.036 429.249C409.262 434.591 408.131 440.086 406.04 445.365C404.456 449.389 399.885 450.132 396.979 447.127C395.809 445.918 394.744 444.631 393.641 443.379C388.104 437.096 382.532 430.861 377.054 424.545C374.837 421.986 372.002 420.927 368.485 421.093C366.693 421.18 364.89 421.234 363.109 421.446C354.185 422.521 345.19 421.796 336.238 422.355C335.658 422.389 335.058 422.258 334.467 422.189C331.924 421.883 329.875 418.509 331.217 416.573C333.392 413.396 335.686 410.275 338.033 407.192C341.389 402.796 344.839 398.442 348.254 394.072C350.155 391.635 351.536 389.008 352 385.443Z" fill="#F2C535"/>
<path fill-rule="evenodd" clip-rule="evenodd" d="M368.159 288.351L376.528 288.238C377.062 288.229 377.564 287.992 377.859 287.589L382.497 281.388C383.235 280.397 384.95 280.591 385.385 281.722L388.091 288.773C388.27 289.219 388.674 289.569 389.194 289.691L397.25 291.7C398.554 292.021 398.866 293.521 397.795 294.249L391.095 298.716C390.673 299.003 390.427 299.459 390.455 299.925L390.799 307.369C390.859 308.568 389.341 309.306 388.249 308.612L381.394 304.329C380.951 304.058 380.4 303.989 379.887 304.164L372.048 306.757C370.787 307.16 369.536 306.116 369.929 304.97L372.392 297.857C372.54 297.401 372.442 296.91 372.108 296.532L366.915 290.7C366.079 289.753 366.809 288.379 368.159 288.351Z" fill="#CEE5D0"/>
<path fill-rule="evenodd" clip-rule="evenodd" d="M319.606 279.635L327.975 279.513C328.509 279.513 329.011 279.267 329.306 278.873L333.944 272.672C334.685 271.682 336.397 271.872 336.832 273.003L339.541 280.054C339.717 280.501 340.121 280.844 340.644 280.966L348.708 282.981C350.001 283.306 350.313 284.802 349.242 285.521L342.552 289.997C342.12 290.288 341.885 290.741 341.902 291.206L342.246 298.65C342.306 299.853 340.792 300.578 339.696 299.897L332.841 295.611C332.398 295.342 331.847 295.27 331.344 295.445L323.495 298.038C322.234 298.441 320.983 297.401 321.376 296.251L323.839 289.138C323.997 288.682 323.889 288.192 323.555 287.817L318.362 281.981C317.526 281.038 318.263 279.66 319.606 279.635Z" fill="#CEE5D0"/>
<path fill-rule="evenodd" clip-rule="evenodd" d="M271.872 270.123L280.234 270.535C280.768 270.56 281.277 270.351 281.604 269.973L286.727 264.088C287.553 263.141 289.239 263.441 289.583 264.597L291.73 271.798C291.857 272.251 292.243 272.628 292.745 272.788L300.623 275.299C301.895 275.702 302.091 277.227 300.967 277.877L293.926 281.913C293.473 282.169 293.206 282.606 293.188 283.078L292.942 290.525C292.893 291.715 291.337 292.356 290.29 291.593L283.79 286.898C283.379 286.602 282.827 286.495 282.314 286.626L274.275 288.72C272.986 289.054 271.823 287.923 272.308 286.811L275.329 279.863C275.526 279.426 275.459 278.926 275.154 278.533L270.435 272.385C269.687 271.395 270.533 270.054 271.872 270.123Z" fill="#CEE5D0"/>
<path fill-rule="evenodd" clip-rule="evenodd" d="M233.105 275.965C233.291 276.115 233.333 276.352 233.192 276.552L229.51 281.719C229.215 282.141 229.686 282.606 230.16 282.394L333.853 238.307C334.334 238.107 334.218 237.494 333.684 237.432L327.55 236.82L326.83 236.742C326.457 236.704 326.25 236.31 326.447 236.023L330.68 230.11C330.888 229.813 330.68 229.426 330.287 229.391L322.459 228.61C322.083 228.56 321.876 228.173 322.062 227.892L325.776 222.706C326.064 222.312 325.589 221.831 325.108 222.041L221.415 266.128C221.127 266.25 221.05 266.54 221.169 266.749C221.285 266.846 221.384 266.918 221.471 266.968C221.521 266.987 221.552 267.012 221.601 267.012L228.435 267.705C228.822 267.74 229.036 268.127 228.822 268.424C227.866 269.798 227.075 270.895 226.425 271.769L224.83 273.984C224.823 274.012 224.823 274.028 224.823 274.028L224.605 274.328C224.525 274.415 224.507 274.537 224.535 274.634L224.525 274.659C224.546 274.843 224.732 275.028 224.988 275.056C227.167 275.299 228.85 275.421 230.1 275.552L232.367 275.78C232.395 275.79 232.416 275.78 232.416 275.799L232.809 275.834C232.929 275.834 233.045 275.887 233.105 275.965Z" fill="#FFCF00"/>
</svg>
