<svg width="401" height="491" fill="none" xmlns="http://www.w3.org/2000/svg"><path opacity=".747" fill-rule="evenodd" clip-rule="evenodd" d="m157.114 459.223-2.566-1.26c-41.98-20.728-87.415-48.236-113.723-93.272C14.47 319.555 7.24 256.887 3.056 199.298l-.252-3.519C-1.393 137.132-2.76 84.252 12.463 49.84 27.629 15.454 59.384-.465 98.323.01c38.937.475 85.106 17.447 124.543 59.187 39.492 41.714 72.254 108.195 96.456 175.876 24.202 67.68 39.855 136.431 31.398 182.116-8.563 45.609-41.228 68.025-76.844 72.329-35.561 4.28-74.127-9.526-116.762-30.295Z" fill="#B86767" fill-opacity=".5"/><path fill-rule="evenodd" clip-rule="evenodd" d="M255.85 153.604c3.088-1.879 15.988-12.954 10.401-14.82-5.589-1.867-36.852-46.234-112.046-8.678-63.742 31.837-42.249 130.023-35.996 138.644 6.254 8.621 10.63 41.852 79.318 15.524 68.691-26.33 63.943-22.96 63.943-22.96l-5.62-107.71Z" fill="#B77D67"/><path fill-rule="evenodd" clip-rule="evenodd" d="M314.463 284.035c-11.101 96.742-79.113 101.563-147.953 45.119-4.291-15.95-13.885-34.921-14.416-34.921-8.994 0-17.52 3.481-28.028-9.257-6.256-6.284-9.609-13.925-10.78-21.327-3.834-24.194 15.599-45.871 32.983-9.588 1.109 4.454 3.834 6.62 8.61 6.264 35.393 3.846-28.613-128.128 70.544-146.746 31.018-5.827 64.935 12.363 76.634 31.177 26.404 42.464 20.488 101.241 16.664 118.11" fill="#B77D67"/><path fill-rule="evenodd" clip-rule="evenodd" d="M315.961 283.627c-2.512 9.791-4.32 27.413-15.057 11.712-11.08-12.738 2.463-39.365 18.077-33.079.3 7.358-1.117 13.302-3.02 21.367Z" fill="#F69A75"/><path fill-rule="evenodd" clip-rule="evenodd" d="M166.51 329.154c13.059 10.549 27.418 18.995 43.032 24.863.605 1.178-.088 1.776-1.081 2.238-14.818-5.9-37-10.277-41.951-27.101ZM226.491 360.834c12.435 2.61 24.713 3.795 37.255 5.131-13.269 6.814-26.994.647-39.896-3.809.524-1.099 1.929-.568 2.641-1.322Z" fill="#5C4941"/><path fill-rule="evenodd" clip-rule="evenodd" d="M226.491 360.834c-.881.439-1.762.881-2.641 1.322-5.16-1.833-10.835-2.758-15.388-5.9.36-.745.719-1.495 1.081-2.24 5.889 1.769 11.726 3.563 16.948 6.818Z" fill="#473128"/><path fill-rule="evenodd" clip-rule="evenodd" d="M217.687 359.881c1.783-.372 3.076.26 3.931 1.788-1.31-.594-2.619-1.19-3.931-1.788Z" fill="#5C4941"/><path fill-rule="evenodd" clip-rule="evenodd" d="M179.451 284.379c.515-31.533 48.178-30.576 49.252.051.277 30.411-50.078 31-49.252-.051Z" fill="#F69973"/><path fill-rule="evenodd" clip-rule="evenodd" d="M297.471 161.907c.46.336.922.674 1.381 1.007-.459-.333-.921-.671-1.381-1.007Z" fill="#E46B33"/><path fill-rule="evenodd" clip-rule="evenodd" d="M222.254 71.864c5.089.987 10.244 1.73 15.252 3.004 17.698 4.502 33.414 12.59 47.078 24.42 13.23 11.454 22.982 25.136 28.689 41.385 2.62 7.459 4.651 15.091 4.07 23.11-1.5 1.29-3.353.89-5.074.892-28.612.025-57.223.025-85.831.012-7.766 0-15.502.933-23.275.595-2.405-.103-3.774 1.065-4.693 3.133-1.453 3.26-1.508 6.629-1.241 10.061.095 1.215.467 2.464-.481 3.547-10.599-.228-21.198-.455-31.797-.678-.336-.24-.553-.552-.55-.955.102-26.181 3.262-51.75 15.904-75.483 5.684-10.666 13.228-19.754 23.53-26.595.569-.377 1.154-.727 1.738-1.079 2.957-1.783 5.489-2.935 8.83.113 2.705 2.465 6.558 3.747 9.637 6 8.834 6.474 14.826 15.152 20.353 24.185 8.906 14.556 14.435 30.347 18.178 46.777.105.465.193.932.319 1.392.334 1.189.896 2.24 2.391 2.003 1.858-.292 1.222-1.7 1.015-2.721-2.389-11.791-5.923-23.255-10.873-34.282-4.437-9.875-9.456-19.444-16.431-27.938-4.979-6.068-10.364-11.7-17.455-15.575-1.726-.948-3.527-1.67-5.408-2.252-.957-.297-1.962-.743-1.819-1.92.14-1.128 1.2-1.498 2.176-1.602 1.939-.206 3.925-.584 5.768.451Z" fill="#93D3D3"/><path fill-rule="evenodd" clip-rule="evenodd" d="M161.166 181.319c-15.731.049-31.466.079-47.197.168-2.052.012-4.1.334-6.148.52-1.841.168-2.591-.511-2.689-2.406-1.195-23.565 5.701-44.559 21.229-62.862 12.912-15.218 28.957-26.443 47.657-34.008 8.218-3.327 16.874-5.636 25.315-8.447.762-.255 1.41-.819 2.11-1.237.16-.108.314-.24.493-.313 1.072-.433 2.439-1.187 3.134.071.736 1.323-.741 1.983-1.731 2.507-11.833 6.278-19.777 16.037-25.942 27.267-9.206 16.771-13.704 34.825-15.385 53.65-.693 7.777-.548 15.528-.279 23.298.024.668.114 1.341-.567 1.792Z" fill="#93D3D3"/><path fill-rule="evenodd" clip-rule="evenodd" d="M196.748 182.022c-.205-2.348-.762-4.729-.524-7.034.289-2.771 1.155-5.502 1.96-8.2.555-1.865 2.003-2.489 4.077-2.496 38.362-.133 76.722-.329 115.082-.51 1.341.188 2.684.54 4.027.543 24.523.029 49.045.02 73.568.02 3.905 0 5.455 1.399 5.772 5.18.095 1.12.395 2.261.252 3.349-.781 5.907-2.957 8.674-9.875 8.651-40.97-.135-81.94-.115-122.91-.023-23.81.056-47.618.339-71.429.52Z" fill="#CCF5F6"/><path fill-rule="evenodd" clip-rule="evenodd" d="M161.166 181.319c-.883-10.199-.576-20.352.61-30.537 1.452-12.472 4.389-24.578 9.039-36.249 4.206-10.562 9.666-20.48 17.843-28.828 4.265-4.355 8.711-8.405 14.352-11.078.7-.331 1.2-1.054 1.793-1.592-.724.012-1.452.028-2.181.03-.393.005-.786-.01-1.179-.018.553-4.541 5.711-8.79 10.976-9.038 4.405-.21 8.667 3.197 9.834 7.855-1.867.053-3.743.021-5.596.207-.671.067-1.288.667-1.929 1.022.567.393 1.079.975 1.712 1.152 5.435 1.52 9.885 4.642 13.917 8.265 10.97 9.863 18.4 22.038 24.472 35.135 4.913 10.595 8.63 21.53 11.287 32.822.434 1.84.686 3.721 1.179 5.546.338 1.251.548 2.412-1.167 2.544-1.433.108-3.236.706-3.76-1.592-.907-3.966-1.862-7.922-2.926-11.849-4.951-18.247-12.831-35.186-24.635-50.287-5.319-6.803-11.863-12.347-19.9-16.105-.703-.33-1.636-.621-1.965-1.194-1.536-2.687-3.331-1.624-5.262-.573-10.202 5.55-17.776 13.601-23.746 23.172-6.287 10.073-10.63 20.944-13.397 32.332a171.873 171.873 0 0 0-3.841 21.744c-.853 7.698-.879 15.48-1.296 23.227-.069 1.307-.298 2.606-.45 3.913-1.26-.01-2.524-.016-3.784-.026Z" fill="#CAF3F4"/><path d="M112.316 250.297c-.517 1.151.17 2.438 1.535 2.874 1.364.437 2.889-.143 3.406-1.294 3.543-7.889 8.467-11.344 15.068-10.858 6.527.481 12.538 7.621 17.51 21.512.422 1.178 1.896 1.845 3.293 1.489 1.397-.356 2.187-1.6 1.765-2.778-5.625-15.718-12.838-23.982-22.108-24.665-9.2-.678-16.13 4.056-20.469 13.72Z" fill="#33241F"/><path d="M130.487 250.315c-5.165 0-7.918 4.621-8.677 13.261l-.141 1.864c2.788 3.256 4.364 2.766 4.73-1.47.548-6.353 2.095-9.253 4.088-9.253l.161.008.182.028c1.83.394 4.185 4.447 6.314 11.906l.205.739-.407.134c-3.264 1.168-4.95 4.122-4.95 8.413 0 5.604 2.909 8.873 8.202 8.873h1.315c.425-2.879-.126-4.348-1.653-4.41-2.29-.092-3.257-1.285-3.257-4.463 0-3.306 1.048-4.517 3.629-4.553l2.872-.04-.862-3.455-.434-1.639c-2.925-10.664-6.434-15.943-11.317-15.943Z" fill="#33241F"/><path fill-rule="evenodd" clip-rule="evenodd" d="M276.297 258.692c2.534 8.037 5.598 15.865 10.728 22.733 2.121 2.841 1.764 5.47-.315 7.823-5.27 5.976-12.44 8.065-20.236 8.596-.507.035-1.538-.6-1.505-.791.122-.693.419-1.659.962-1.926 1.872-.917 3.898-1.531 5.822-2.353 3.056-1.304 6.213-2.452 9.068-4.087 3.263-1.866 3.284-2.747 1.358-5.817-1.529-2.443-3.098-4.865-4.537-7.359-3.233-5.603-5.81-11.45-6.632-17.897-.111-.978-.8-1.831-.659-2.862l-.795-5.665c-.824-4.007-.872-8.014.04-12.017.457-9.93 4.448-18.548 10.156-26.654 4.258-6.048 9.873-9.884 17.15-11.715 5.399-1.36 10.835-1.502 16.338-1.081 2.384.184 4.032 1.039 4.182 3.652.045.755.526 1.479.757 2.229 1.338 4.366.636 5.39-4.253 5.691-9.399.587-18.598 1.957-27.573 4.941-2.884.959-4.691 2.337-6.101 4.773-5.598 9.69-6.539 20.131-5.529 30.91.231 2.433.545 4.862.824 7.296.228.536.726.955.75 1.58Z" fill="#382924"/><mask id="a" style="mask-type:alpha" maskUnits="userSpaceOnUse" x="230" y="307" width="61" height="25"><path fill-rule="evenodd" clip-rule="evenodd" d="M230.017 307.82h60.424v24.119h-60.424V307.82Z" fill="#fff"/></mask><g mask="url(#a)"><path fill-rule="evenodd" clip-rule="evenodd" d="M276.42 308.091c3.388 0 6.777-.06 10.163.019 3.124.073 4.936 2.226 3.158 4.073-3.568 3.706-3.787 8.495-5.682 12.709-1.936 4.306-5.098 7.004-10.182 6.99-3.372-.011-6.825.272-10.1-.32-11.063-1.989-21.602-5.371-30.478-12.43-1.581-1.258-4.15-2.601-2.99-4.78.759-1.43 3.221-2.371 5.103-2.817 3.888-.92 7.875-1.647 11.863-1.953 9.694-.739 19.412-1.194 29.121-1.762.009.089.017.181.024.271Z" fill="#392A25"/></g><path fill-rule="evenodd" clip-rule="evenodd" d="M249.446 210.988c-1.91 4-5.127 4.725-9.43 4.193-11.178-1.378-22.382-1.382-33.609-.092-5.032.578-10.147.504-15.226.658-.541.019-1.098-.416-1.646-.642.324-.669.465-1.713.996-1.955 5.343-2.422 10.654-4.968 16.164-6.997 12.016-4.426 24.401-4.559 36.819-1.905 2.069.444 3.844 2.183 5.753 3.322a6.529 6.529 0 0 1 .179 3.418Z" fill="#342520"/><path fill-rule="evenodd" clip-rule="evenodd" d="M236.711 251.36c-2.01-.379-3.448-.552-4.827-.927-7.342-1.996-14.578-2.18-21.663.983-.576.257-1.126.699-1.719.759-.741.069-1.512-.173-2.272-.279.186-.54.245-1.173.579-1.612 4.329-5.675 10.058-8.725 17.436-7.848 4.036.48 7.986 1.64 11.97 2.502.41.088.819.214 1.193.389 2.151 1.001 4.213 3.8 3.267 4.619-1.071.925-2.874 1.063-3.964 1.414Z" fill="#382924"/><path fill-rule="evenodd" clip-rule="evenodd" d="M316.582 244.098c-.909.815-1.412 1.484-2.088 1.801-.491.228-1.343.2-1.81-.073-5.984-3.517-11.28-.729-16.683 1.543-2.293.964-4.682 1.73-7.07 2.452-.493.152-1.412-.124-1.707-.508-.286-.375-.239-1.251.021-1.723 4.532-8.232 18.119-11.671 26.149-6.586 1.138.723 1.974 1.894 3.188 3.094Z" fill="#3D2E2A"/><path fill-rule="evenodd" clip-rule="evenodd" d="m269.595 237.07-.038 12.018c-1.4-4.011-1.364-8.016.038-12.018ZM249.446 210.988l-.179-3.418c1.481 1.069 1.312 2.22.179 3.418ZM270.352 254.752l.657 2.862-.657-2.862Z" fill="#877D7B"/><path fill-rule="evenodd" clip-rule="evenodd" d="m276.297 258.692-.75-1.58.75 1.58Z" fill="#AAA4A2"/><path fill-rule="evenodd" clip-rule="evenodd" d="M270.357 327.674c-12.063-.881-21.881-4.745-31.073-10.266-.581-.347-.786-1.279-1.167-1.936.703-.341 1.393-.95 2.107-.978 12.912-.506 25.825-1.007 38.742-1.341 3.162-.083 3.462.639 2.583 3.832-1.221 4.437-2.66 8.711-8.072 9.978-1.4.329-2.805.64-3.12.711Z" fill="#FAF9F9"/></svg>