<svg width="490" height="546" viewBox="0 0 490 546" fill="none" xmlns="http://www.w3.org/2000/svg">
<path opacity="0.74707" fill-rule="evenodd" clip-rule="evenodd" d="M266.923 86.0737L269.489 87.3342C311.469 108.062 356.904 135.57 383.212 180.606C409.568 225.742 416.798 288.41 420.981 345.999L421.233 349.518C425.43 408.165 426.797 461.045 411.575 495.457C396.408 529.843 364.653 545.762 325.715 545.287C286.777 544.812 240.608 527.84 201.171 486.1C161.679 444.386 128.917 377.905 104.715 310.225C80.5133 242.544 64.8598 173.793 73.3167 128.108C81.88 82.4991 114.545 60.083 150.161 55.7792C185.722 51.4991 224.288 65.3047 266.923 86.0737Z" fill="#F7D59C" fill-opacity="0.5"/>
<path d="M103.334 141.37L4.30556 176.88C1.92767 177.733 0.701613 180.323 1.5671 182.666L76.7878 386.277C77.6532 388.619 80.2825 389.827 82.6604 388.975L181.688 353.464C184.066 352.612 185.292 350.021 184.427 347.679L109.206 144.068C108.341 141.725 105.711 140.517 103.334 141.37Z" fill="#1B3968"/>
<path d="M348.443 141.402L447.471 176.913C449.849 177.765 451.075 180.356 450.209 182.698L374.989 386.309C374.123 388.652 371.494 389.86 369.116 389.007L270.088 353.497C267.71 352.644 266.484 350.054 267.35 347.711L342.57 144.1C343.436 141.758 346.065 140.55 348.443 141.402Z" fill="#1B3968"/>
<path d="M97.3603 156.707L18.7241 184.905C16.8359 185.582 15.932 187.828 16.7051 189.92L83.9028 371.814C84.676 373.907 86.8335 375.055 88.7217 374.377L167.358 346.179C169.246 345.502 170.15 343.257 169.377 341.164L102.179 159.27C101.406 157.178 99.2485 156.03 97.3603 156.707Z" fill="#CEE5D0"/>
<path d="M284.326 346.628L362.962 374.826C364.851 375.503 367.008 374.355 367.781 372.262L434.979 190.368C435.752 188.276 434.848 186.03 432.96 185.353L354.324 157.155C352.436 156.478 350.278 157.626 349.505 159.719L282.307 341.612C281.534 343.705 282.438 345.95 284.326 346.628Z" fill="#CEE5D0"/>
<path d="M284.095 96.1339H224.53C222 96.1339 219.948 98.1549 219.948 100.648V136.761C219.948 139.254 222 141.275 224.53 141.275H284.095C286.625 141.275 288.677 139.254 288.677 136.761V100.648C288.677 98.1549 286.625 96.1339 284.095 96.1339Z" fill="#DAE6EB"/>
<mask id="mask0" style="mask-type:alpha" maskUnits="userSpaceOnUse" x="224" y="100" width="24" height="28">
<path d="M246.294 100.648H225.675C225.043 100.648 224.53 101.153 224.53 101.776V126.604C224.53 127.227 225.043 127.733 225.675 127.733H246.294C246.926 127.733 247.439 127.227 247.439 126.604V101.776C247.439 101.153 246.926 100.648 246.294 100.648Z" fill="white"/>
</mask>
<g mask="url(#mask0)">
<path d="M246.294 100.648H225.675C225.043 100.648 224.53 101.153 224.53 101.776V126.604C224.53 127.227 225.043 127.733 225.675 127.733H246.294C246.926 127.733 247.439 127.227 247.439 126.604V101.776C247.439 101.153 246.926 100.648 246.294 100.648Z" fill="#406080"/>
</g>
<path d="M284.095 100.648H252.021V105.162H284.095V100.648Z" fill="#406080"/>
<path d="M274.931 109.676H252.021V111.482H274.931V109.676Z" fill="black"/>
<path d="M270.349 115.996H252.021V117.802H270.349V115.996Z" fill="black"/>
<path d="M272.64 122.316H252.021V124.121H272.64V122.316Z" fill="black"/>
<path d="M257.386 87.1618C258.716 87.817 259.794 88.8796 260.459 90.19L263.476 96.1338H245.148L248.165 90.19C249.862 86.8451 253.991 85.4894 257.386 87.1618ZM256.361 89.1806C254.123 88.0778 251.405 88.9501 250.252 91.1271L250.214 91.1994L248.855 93.8767H259.769L258.41 91.1994C257.982 90.3559 257.297 89.6664 256.452 89.2267L256.361 89.1806Z" fill="#AEC6D0"/>
<path d="M254.312 56.4265L255.275 56.4342C286.968 56.9405 312.502 82.4104 312.502 113.756C312.502 145.418 286.45 171.085 254.312 171.085L255.178 171.078L255.173 171.157C253.531 201.359 265.709 220.372 291.804 228.435L292.607 228.679L292.077 230.408C264.592 222.238 251.647 202.38 253.342 171.078C221.652 170.567 196.123 145.099 196.123 113.756H197.955L197.963 114.674C198.461 144.915 223.499 169.28 254.312 169.28C285.438 169.28 310.67 144.421 310.67 113.756C310.67 83.091 285.438 58.2322 254.312 58.2322V56.4265Z" fill="black"/>
<path d="M197.039 0C229.176 0 255.229 25.6672 255.229 57.3294C255.229 88.9915 229.176 114.659 197.039 114.659C193.058 114.659 189.171 114.265 185.415 113.515C181.344 137.749 166.442 153.942 140.827 161.997L140.037 162.242L139.494 160.518C164.978 152.736 179.648 136.971 183.624 113.126C157.953 107.159 138.849 84.4422 138.849 57.3294C138.849 25.6672 164.902 0 197.039 0ZM197.039 1.80565C165.914 1.80565 140.682 26.6645 140.682 57.3294C140.682 87.9943 165.914 112.853 197.039 112.853C228.164 112.853 253.396 87.9943 253.396 57.3294C253.396 26.6645 228.164 1.80565 197.039 1.80565Z" fill="black"/>
<path d="M225.905 39.7074H166.34C163.81 39.7074 161.758 41.7284 161.758 44.2215V80.3345C161.758 82.8275 163.81 84.8486 166.34 84.8486H225.905C228.435 84.8486 230.487 82.8275 230.487 80.3345V44.2215C230.487 41.7284 228.435 39.7074 225.905 39.7074Z" fill="#DAE6EB"/>
<mask id="mask1" style="mask-type:alpha" maskUnits="userSpaceOnUse" x="166" y="44" width="24" height="28">
<path d="M188.104 44.2214H167.486C166.853 44.2214 166.34 44.7266 166.34 45.3499V70.1776C166.34 70.8009 166.853 71.3061 167.486 71.3061H188.104C188.737 71.3061 189.25 70.8009 189.25 70.1776V45.3499C189.25 44.7266 188.737 44.2214 188.104 44.2214Z" fill="white"/>
</mask>
<g mask="url(#mask1)">
<path d="M188.104 44.2214H167.486C166.853 44.2214 166.34 44.7266 166.34 45.3499V70.1776C166.34 70.8009 166.853 71.3061 167.486 71.3061H188.104C188.737 71.3061 189.25 70.8009 189.25 70.1776V45.3499C189.25 44.7266 188.737 44.2214 188.104 44.2214Z" fill="#406080"/>
</g>
<path d="M225.905 44.2215H193.832V48.7356H225.905V44.2215Z" fill="#406080"/>
<path d="M216.741 53.2497H193.832V55.0554H216.741V53.2497Z" fill="black"/>
<path d="M212.159 59.5695H193.832V61.3751H212.159V59.5695Z" fill="black"/>
<path d="M214.45 65.8893H193.832V67.6949H214.45V65.8893Z" fill="black"/>
<path d="M199.196 30.7353C200.526 31.3905 201.605 32.453 202.27 33.7634L205.287 39.7073H186.959L189.976 33.7634C191.673 30.4186 195.801 29.0628 199.196 30.7353ZM198.172 32.754C195.933 31.6512 193.216 32.5235 192.062 34.7006L192.025 34.7728L190.666 37.4502H201.58L200.221 34.7728C199.793 33.9293 199.108 33.2399 198.263 32.8002L198.172 32.754Z" fill="#AEC6D0"/>
<path d="M94.2481 361.919C89.939 361.91 86.2547 358.457 85.4985 353.72L84.4947 347.349C84.2759 346.123 84.6684 344.86 85.5204 344.048C86.3737 343.237 87.5526 343.003 88.6028 343.44C89.6531 343.875 90.4094 344.912 90.5803 346.149L91.5869 352.523C91.8481 354.166 93.2525 355.262 94.724 354.972L100.429 353.848C101.517 353.633 102.624 354.084 103.334 355.027C104.044 355.972 104.249 357.267 103.872 358.426C103.494 359.586 102.592 360.432 101.504 360.647L95.7962 361.771C95.2847 361.87 94.7664 361.919 94.2481 361.919Z" fill="#7F5B53"/>
<path d="M142.085 343.164C140.489 343.155 139.161 341.79 139.023 340.014C138.884 338.238 139.98 336.636 141.55 336.319L147.259 335.19C147.966 335.051 148.593 334.604 149.005 333.947C149.415 333.292 149.577 332.48 149.451 331.69L148.446 325.321C148.254 324.105 148.656 322.87 149.503 322.076C150.348 321.283 151.509 321.054 152.547 321.476C153.585 321.897 154.343 322.905 154.534 324.119L155.539 330.493C155.949 333.084 155.42 335.752 154.069 337.908C152.717 340.064 150.653 341.532 148.332 341.989L142.627 343.114C142.448 343.149 142.267 343.166 142.085 343.164V343.164Z" fill="#7F5B53"/>
<path d="M99.5714 189.335C98.074 189.332 96.7939 188.132 96.5327 186.484L95.5262 180.11C95.4018 179.322 95.0011 178.62 94.413 178.162C93.8263 177.697 93.0988 177.517 92.3918 177.661L86.6986 178.786C85.6114 179 84.5037 178.551 83.7939 177.606C83.0841 176.662 82.879 175.366 83.2565 174.207C83.6339 173.047 84.5365 172.202 85.6237 171.988L91.3319 170.865C96.1635 169.923 100.768 173.521 101.63 178.913L102.633 185.284C102.776 186.188 102.59 187.118 102.116 187.869C101.643 188.619 100.923 189.129 100.112 189.283C99.9338 189.318 99.752 189.335 99.5714 189.335Z" fill="#7F5B53"/>
<path d="M298.025 324.107C299.431 324.615 300.217 326.174 299.891 327.81L298.624 334.139C298.467 334.922 298.6 335.717 298.993 336.345C299.383 336.979 300.004 337.394 300.719 337.497L306.459 338.358C307.555 338.523 308.44 339.318 308.779 340.446C309.118 341.572 308.861 342.859 308.104 343.821C307.347 344.783 306.205 345.274 305.109 345.109L299.356 344.24C294.488 343.497 291.41 338.565 292.473 333.208L293.741 326.883C293.921 325.985 294.419 325.174 295.124 324.627C295.829 324.082 296.684 323.846 297.499 323.974C297.678 324.001 297.855 324.047 298.025 324.107Z" fill="#7F5B53"/>
<path d="M413.615 209.319C412.47 208.368 412.272 206.638 413.147 205.211L416.535 199.691C416.954 199.008 417.105 198.216 416.953 197.493C416.807 196.766 416.367 196.167 415.732 195.829L410.636 193.086C409.664 192.561 409.108 191.516 409.181 190.342C409.253 189.17 409.942 188.047 410.987 187.398C412.033 186.749 413.276 186.673 414.248 187.197L419.354 189.952C423.669 192.29 424.849 197.962 421.991 202.639L418.604 208.155C418.123 208.937 417.374 209.532 416.521 209.808C415.669 210.082 414.785 210.017 414.063 209.621C413.904 209.536 413.753 209.433 413.615 209.319Z" fill="#7F5B53"/>
<path d="M343.86 357.302C344.611 356.026 346.306 355.534 347.885 356.135L353.991 358.463C354.746 358.751 355.564 358.76 356.261 358.488C356.962 358.219 357.484 357.689 357.712 357.014L359.569 351.593C359.925 350.559 360.873 349.838 362.059 349.705C363.243 349.572 364.486 350.045 365.316 350.946C366.146 351.848 366.438 353.041 366.082 354.075L364.215 359.507C362.627 364.101 357.163 366.23 351.992 364.269L345.89 361.94C345.024 361.61 344.3 360.986 343.876 360.207C343.453 359.428 343.365 358.558 343.635 357.789C343.693 357.62 343.77 357.456 343.86 357.302Z" fill="#7F5B53"/>
<path d="M373.291 175.508C372.539 176.785 370.844 177.277 369.265 176.676L363.159 174.347C362.404 174.06 361.586 174.05 360.89 174.323C360.188 174.591 359.666 175.122 359.439 175.797L357.581 181.217C357.226 182.252 356.277 182.973 355.091 183.105C353.907 183.239 352.665 182.766 351.835 181.864C351.005 180.963 350.712 179.77 351.068 178.735L352.935 173.304C354.523 168.71 359.988 166.58 365.158 168.541L371.26 170.87C372.126 171.201 372.851 171.825 373.274 172.604C373.697 173.383 373.785 174.253 373.515 175.022C373.457 175.191 373.381 175.354 373.291 175.508Z" fill="#7F5B53"/>
<path d="M32.6751 208.748C31.1762 208.747 29.8948 207.545 29.6336 205.897L28.6299 199.523C27.782 194.125 31.0094 188.98 35.8424 188.025L41.5478 186.899C43.2326 186.568 44.8382 187.824 45.1363 189.706C45.433 191.587 44.3075 193.38 42.6227 193.711L36.9145 194.837C36.2089 194.976 35.5798 195.423 35.1682 196.078C34.7565 196.735 34.5965 197.547 34.721 198.337L35.7289 204.711C35.8711 205.612 35.6878 206.54 35.2174 207.29C34.7469 208.04 34.029 208.551 33.2221 208.71C33.0402 208.739 32.8583 208.753 32.6751 208.748Z" fill="#7F5B53"/>
<path d="M93.113 289.068C82.1123 289.038 73.0823 279.344 72.6256 267.071C72.1674 254.798 80.4439 244.298 91.4049 243.247C102.364 242.197 112.122 250.968 113.544 263.148C114.967 275.329 107.549 286.6 96.7137 288.723C95.5253 288.955 94.3205 289.071 93.113 289.068Z" fill="#F29C1F"/>
<path d="M90.1868 250.537C89.5344 250.537 88.8985 250.316 88.3638 249.899C86.4383 248.395 83.7004 243.887 85.6588 236.527C86.7966 232.262 85.295 230.747 85.2294 230.684C84.5647 230.163 84.1162 229.366 83.9821 228.471C83.8495 227.577 84.0437 226.659 84.5223 225.926C85.5371 224.377 87.4763 224.022 88.8821 225.126C90.8076 226.63 93.5427 231.136 91.5844 238.498C90.4466 242.759 91.9509 244.275 92.0166 244.336C92.6812 244.858 93.1297 245.655 93.2624 246.55C93.3951 247.445 93.1995 248.363 92.7208 249.096C92.1369 250.007 91.1919 250.545 90.1868 250.537Z" fill="#F29C1F"/>
<path d="M81.9718 254.772C81.8801 254.777 81.7885 254.777 81.6969 254.772C79.3584 254.544 74.9699 252.167 73.3712 244.703C72.444 240.372 70.4665 239.898 70.3831 239.871C69.5735 239.79 68.8282 239.35 68.3126 238.649C67.797 237.948 67.555 237.046 67.6411 236.143C67.8244 234.235 69.3437 232.84 71.0573 233.014C73.3958 233.242 77.7843 235.62 79.383 243.087C80.3102 247.415 82.2877 247.888 82.3738 247.919C83.1834 247.999 83.9287 248.439 84.4443 249.14C84.9599 249.841 85.2019 250.744 85.1158 251.646C84.938 253.433 83.5814 254.781 81.9718 254.772Z" fill="#F29C1F"/>
<path d="M75.0833 263.351C71.7218 263.194 68.5723 261.471 66.3993 258.603C63.6614 255.377 61.7332 256.067 61.6552 256.097C60.9181 256.479 60.0743 256.516 59.314 256.195C58.5522 255.876 57.9396 255.229 57.61 254.399C56.9112 252.648 57.599 250.592 59.1553 249.782C61.2873 248.674 66.1518 248.288 70.8739 253.857C73.6186 257.087 75.5414 256.388 75.6248 256.36C76.3619 255.978 77.2044 255.945 77.9647 256.264C78.7251 256.583 79.3378 257.231 79.6673 258.061C80.3675 259.811 79.6796 261.867 78.122 262.674C77.1647 263.142 76.1281 263.372 75.0833 263.351Z" fill="#F29C1F"/>
<path d="M58.9024 276.465C57.7304 276.467 56.6569 275.734 56.1236 274.569C55.5916 273.402 55.6887 272.002 56.3766 270.943C57.725 268.793 61.7606 265.736 68.3523 267.931C72.176 269.197 73.5285 267.52 73.5818 267.448C74.0495 266.704 74.7648 266.203 75.5675 266.057C76.3689 265.909 77.1908 266.129 77.8459 266.665C79.2367 267.795 79.5553 269.962 78.5638 271.53C77.2154 273.68 73.1743 276.731 66.5881 274.546C62.7685 273.28 61.4146 274.957 61.3558 275.025C60.7992 275.928 59.8816 276.465 58.9024 276.465Z" fill="#F29C1F"/>
<path d="M66.5197 294.686C66.424 294.686 66.331 294.686 66.2325 294.686C64.5162 294.483 63.2649 292.774 63.429 290.855C63.6369 288.242 65.7662 283.346 72.4508 281.561C76.3265 280.526 76.749 278.318 76.7777 278.221C76.9432 276.348 78.4366 274.978 80.1146 275.16C81.8268 275.363 83.074 277.062 82.9181 278.977C82.7143 281.589 80.585 286.489 73.9004 288.274C70.022 289.309 69.5981 291.518 69.5735 291.611C69.434 293.371 68.102 294.712 66.5197 294.686V294.686Z" fill="#F29C1F"/>
<path d="M81.3537 306.194C80.1229 306.188 79.0042 305.389 78.4804 304.145C77.4876 301.767 77.1361 296.335 82.1304 291.059C85.0228 287.998 84.402 285.848 84.3705 285.758C84.03 284.934 83.9985 283.994 84.2843 283.145C84.5702 282.296 85.1486 281.61 85.8912 281.24C87.4598 280.463 89.2992 281.23 90.0267 282.966C91.0209 285.344 91.371 290.775 86.3794 296.056C83.483 299.113 84.1079 301.263 84.1353 301.353C84.4799 302.181 84.51 303.129 84.2187 303.983C83.9274 304.835 83.3407 305.521 82.5899 305.884C82.2029 306.084 81.7817 306.191 81.3537 306.194V306.194Z" fill="#F29C1F"/>
<path d="M99.2549 307.9C98.6012 307.901 97.964 307.678 97.4279 307.262C95.5024 305.756 92.7672 301.25 94.7269 293.889C95.8607 289.623 94.3591 288.112 94.2975 288.05C93.6329 287.527 93.1843 286.73 93.0517 285.835C92.9177 284.941 93.1119 284.024 93.5891 283.291C94.6039 281.741 96.5431 281.384 97.9503 282.487C99.8758 283.991 102.611 288.502 100.651 295.859C99.5134 300.124 101.016 301.636 101.081 301.698C101.745 302.221 102.194 303.019 102.326 303.914C102.459 304.809 102.264 305.727 101.785 306.46C101.204 307.373 100.257 307.911 99.2549 307.9V307.9Z" fill="#F29C1F"/>
<path d="M115.519 299.39C115.428 299.394 115.336 299.394 115.245 299.39C112.905 299.162 108.516 296.784 106.919 289.316C105.992 284.988 104.014 284.516 103.927 284.484C103.118 284.403 102.373 283.962 101.858 283.262C101.343 282.561 101.101 281.659 101.186 280.758C101.364 278.844 102.889 277.447 104.604 277.627C106.943 277.855 111.332 280.233 112.929 287.697C113.856 292.029 115.835 292.498 115.919 292.528C116.727 292.609 117.474 293.051 117.988 293.75C118.503 294.451 118.746 295.354 118.659 296.256C118.486 298.044 117.13 299.396 115.519 299.39Z" fill="#F29C1F"/>
<path d="M124.105 283.273C120.745 283.12 117.597 281.402 115.424 278.535C112.686 275.309 110.758 276.003 110.677 276.033C109.94 276.415 109.096 276.449 108.334 276.129C107.574 275.809 106.961 275.161 106.632 274.332C105.934 272.58 106.622 270.53 108.177 269.719C110.309 268.61 115.173 268.221 119.898 273.79C122.638 277.02 124.569 276.329 124.642 276.296C125.38 275.913 126.223 275.876 126.985 276.195C127.745 276.516 128.359 277.163 128.688 277.994C129.386 279.745 128.7 281.799 127.144 282.61C126.184 283.07 125.148 283.296 124.105 283.273V283.273Z" fill="#F29C1F"/>
<path d="M110.275 266.35C109.101 266.355 108.025 265.623 107.492 264.457C106.957 263.29 107.055 261.888 107.747 260.828C109.094 258.678 113.134 255.624 119.723 257.812C123.54 259.078 124.897 257.402 124.955 257.333C125.422 256.591 126.136 256.088 126.937 255.94C127.738 255.79 128.56 256.009 129.217 256.542C130.606 257.675 130.926 259.842 129.933 261.412C128.589 263.562 124.563 266.616 117.958 264.428C114.141 263.162 112.787 264.835 112.729 264.907C112.174 265.813 111.257 266.352 110.275 266.35V266.35Z" fill="#F29C1F"/>
<path d="M106.482 257.24C106.386 257.24 106.29 257.24 106.197 257.24C104.487 257.037 103.238 255.337 103.395 253.422C103.599 250.811 105.728 245.91 112.413 244.125C116.291 243.09 116.715 240.882 116.74 240.789C116.815 239.888 117.21 239.057 117.838 238.481C118.464 237.907 119.271 237.635 120.078 237.728C121.787 237.932 123.035 239.628 122.88 241.542C122.676 244.153 120.547 249.053 113.86 250.838C109.984 251.874 109.56 254.082 109.533 254.178C109.388 255.931 108.059 257.266 106.482 257.24Z" fill="#F29C1F"/>
<path d="M99.1739 251.455C97.9417 251.448 96.8244 250.65 96.2993 249.406C95.3078 247.028 94.955 241.596 99.9465 236.316C102.842 233.256 102.218 231.106 102.189 231.019C101.847 230.195 101.816 229.253 102.102 228.404C102.388 227.555 102.967 226.87 103.71 226.501C105.28 225.724 107.118 226.491 107.846 228.227C108.837 230.605 109.187 236.036 104.196 241.314C101.303 244.374 101.927 246.524 101.955 246.614C102.296 247.437 102.327 248.38 102.042 249.229C101.756 250.078 101.177 250.763 100.435 251.131C100.041 251.341 99.6101 251.451 99.1739 251.455Z" fill="#F29C1F"/>
<path d="M67.7911 205.81C66.2923 205.809 65.0095 204.606 64.7511 202.956L64.2492 199.771C64.0016 197.92 65.1189 196.185 66.7696 195.86C68.4202 195.536 70.0025 196.74 70.3348 198.574L70.8381 201.759C70.9817 202.66 70.797 203.589 70.3266 204.34C69.8562 205.09 69.1368 205.6 68.3286 205.758C68.1522 205.792 67.9717 205.81 67.7911 205.81Z" fill="#F0C419"/>
<path d="M60.2386 213.872C58.6358 213.872 57.2983 212.504 57.1588 210.72C57.0193 208.936 58.1243 207.33 59.7039 207.021L62.5593 206.459C63.6479 206.246 64.7543 206.696 65.4627 207.641C66.1724 208.587 66.3762 209.882 65.9974 211.041C65.6199 212.2 64.716 213.044 63.6288 213.258L60.776 213.82C60.5982 213.853 60.4191 213.872 60.2386 213.872Z" fill="#F0C419"/>
<path d="M70.3104 221.744C68.8116 221.742 67.5302 220.54 67.269 218.893L66.7657 215.707C66.5729 214.493 66.9763 213.256 67.8215 212.464C68.668 211.67 69.8277 211.442 70.8656 211.864C71.9036 212.285 72.6613 213.291 72.8541 214.507L73.3573 217.696C73.6527 219.571 72.5313 221.36 70.8506 221.692C70.6728 221.727 70.4923 221.745 70.3104 221.744Z" fill="#F0C419"/>
<path d="M74.5076 211.059C72.9048 211.057 71.5687 209.689 71.4306 207.906C71.2925 206.123 72.3975 204.517 73.9756 204.209L76.8283 203.647C78.5091 203.315 80.1132 204.569 80.4086 206.447C80.7054 208.324 79.5826 210.114 77.9005 210.445L75.045 211.007C74.8673 211.042 74.6881 211.059 74.5076 211.059Z" fill="#F0C419"/>
<path d="M112.345 322.92C110.847 322.917 109.567 321.713 109.307 320.066L108.804 316.88C108.584 315.654 108.976 314.391 109.83 313.579C110.682 312.768 111.862 312.534 112.911 312.971C113.961 313.406 114.719 314.443 114.888 315.68L115.393 318.869C115.688 320.744 114.565 322.533 112.886 322.865C112.708 322.902 112.526 322.92 112.345 322.92V322.92Z" fill="#F0C419"/>
<path d="M104.791 330.992C103.195 330.983 101.867 329.616 101.729 327.84C101.59 326.064 102.685 324.462 104.256 324.145L107.113 323.583C108.769 323.305 110.323 324.554 110.614 326.395C110.906 328.239 109.828 330.005 108.185 330.376L105.333 330.94C105.154 330.975 104.973 330.993 104.791 330.992V330.992Z" fill="#F0C419"/>
<path d="M114.864 338.853C113.366 338.85 112.086 337.648 111.827 336.002L111.319 332.814C111.024 330.937 112.147 329.146 113.827 328.816C115.508 328.484 117.112 329.738 117.408 331.616L117.911 334.802C118.054 335.703 117.87 336.631 117.401 337.381C116.93 338.131 116.212 338.642 115.405 338.801C115.226 338.835 115.046 338.853 114.864 338.853Z" fill="#F0C419"/>
<path d="M120.727 326.982C119.124 326.984 117.787 325.614 117.647 323.83C117.508 322.048 118.613 320.442 120.192 320.132L123.048 319.57C124.165 319.272 125.338 319.689 126.095 320.656C126.849 321.621 127.064 322.974 126.65 324.171C126.235 325.367 125.262 326.208 124.12 326.355L121.268 326.917C121.089 326.958 120.909 326.979 120.727 326.982V326.982Z" fill="#F0C419"/>
<g clip-path="url(#clip0)">
<path d="M343.736 277.35C361.779 277.35 376.404 262.939 376.404 245.163C376.404 237.286 373.523 230.081 368.756 224.486C383.484 229.144 394.15 242.735 394.15 258.792C394.15 278.697 377.773 294.831 357.57 294.831C341.272 294.831 327.476 284.323 322.749 269.813C328.428 274.512 335.743 277.35 343.736 277.35Z" fill="#464F5D"/>
<path d="M380.178 230.506C385.071 236.63 388.011 244.34 388.011 252.742C388.011 272.646 371.635 288.78 351.431 288.78C342.904 288.78 335.078 285.884 328.862 281.064C335.556 289.436 345.915 294.83 357.572 294.83C377.776 294.83 394.152 278.696 394.152 258.792C394.152 247.307 388.676 237.103 380.178 230.506Z" fill="#2C2F38"/>
<path d="M341.056 238.554L344.824 246.079L353.251 247.284L347.154 253.14L348.592 261.409L341.056 257.506L333.519 261.409L334.957 253.14L328.859 247.284L337.286 246.079L341.056 238.554Z" fill="#FFD83B"/>
<path d="M362.309 236.146L364.262 240.047L368.631 240.671L365.469 243.707L366.216 247.991L362.309 245.969L358.402 247.991L359.15 243.707L355.988 240.671L360.357 240.047L362.309 236.146Z" fill="#FFD83B"/>
</g>
<defs>
<clipPath id="clip0">
<rect width="71.4033" height="70.3473" fill="white" transform="translate(322.749 224.484)"/>
</clipPath>
</defs>
</svg>
