<svg width="490" height="546" fill="none" xmlns="http://www.w3.org/2000/svg"><path opacity=".747" fill-rule="evenodd" clip-rule="evenodd" d="m266.923 86.074 2.566 1.26c41.98 20.728 87.415 48.236 113.723 93.272 26.356 45.136 33.586 107.804 37.769 165.393l.252 3.519c4.197 58.647 5.564 111.527-9.658 145.939-15.167 34.386-46.922 50.305-85.86 49.83-38.938-.475-85.107-17.447-124.544-59.187-39.492-41.714-72.254-108.195-96.456-175.875-24.202-67.681-39.855-136.432-31.398-182.117 8.563-45.609 41.228-68.025 76.844-72.329 35.561-4.28 74.127 9.526 116.762 30.295Z" fill="#F7D59C" fill-opacity=".5"/><path d="M103.334 141.37 4.306 176.88c-2.378.853-3.604 3.443-2.739 5.786l75.22 203.611c.866 2.342 3.495 3.55 5.873 2.698l99.028-35.511c2.378-.852 3.604-3.443 2.739-5.785l-75.221-203.611c-.865-2.343-3.495-3.551-5.872-2.698ZM348.443 141.402l99.028 35.511c2.378.852 3.604 3.443 2.738 5.785l-75.22 203.611c-.866 2.343-3.495 3.551-5.873 2.698l-99.028-35.51c-2.378-.853-3.604-3.443-2.738-5.786L342.57 144.1c.866-2.342 3.495-3.55 5.873-2.698Z" fill="#1B3968"/><path d="m97.36 156.707-78.636 28.198c-1.888.677-2.792 2.923-2.019 5.015l67.198 181.894c.773 2.093 2.93 3.241 4.819 2.563l78.636-28.198c1.888-.677 2.792-2.922 2.019-5.015L102.179 159.27c-.773-2.092-2.93-3.24-4.819-2.563ZM284.326 346.628l78.636 28.198c1.889.677 4.046-.471 4.819-2.564l67.198-181.894c.773-2.092-.131-4.338-2.019-5.015l-78.636-28.198c-1.888-.677-4.046.471-4.819 2.564l-67.198 181.893c-.773 2.093.131 4.338 2.019 5.016Z" fill="#CEE5D0"/><path d="M284.095 96.134H224.53c-2.53 0-4.582 2.02-4.582 4.514v36.113c0 2.493 2.052 4.514 4.582 4.514h59.565c2.53 0 4.582-2.021 4.582-4.514v-36.113c0-2.493-2.052-4.514-4.582-4.514Z" fill="#DAE6EB"/><mask id="a" style="mask-type:alpha" maskUnits="userSpaceOnUse" x="224" y="100" width="24" height="28"><path d="M246.294 100.648h-20.619c-.632 0-1.145.505-1.145 1.128v24.828c0 .623.513 1.129 1.145 1.129h20.619c.632 0 1.145-.506 1.145-1.129v-24.828c0-.623-.513-1.128-1.145-1.128Z" fill="#fff"/></mask><g mask="url(#a)"><path d="M246.294 100.648h-20.619c-.632 0-1.145.505-1.145 1.128v24.828c0 .623.513 1.129 1.145 1.129h20.619c.632 0 1.145-.506 1.145-1.129v-24.828c0-.623-.513-1.128-1.145-1.128Z" fill="#406080"/></g><path d="M284.095 100.648h-32.074v4.514h32.074v-4.514Z" fill="#406080"/><path d="M274.931 109.676h-22.91v1.806h22.91v-1.806ZM270.349 115.996h-18.328v1.806h18.328v-1.806ZM272.64 122.316h-20.619v1.805h20.619v-1.805Z" fill="#000"/><path d="M257.386 87.162a6.822 6.822 0 0 1 3.073 3.028l3.017 5.944h-18.328l3.017-5.944c1.697-3.345 5.826-4.7 9.221-3.028Zm-1.025 2.019c-2.238-1.103-4.956-.23-6.109 1.946l-.038.072-1.359 2.678h10.914l-1.359-2.678a4.545 4.545 0 0 0-1.958-1.972l-.091-.046Z" fill="#AEC6D0"/><path d="m254.312 56.426.963.008c31.693.507 57.227 25.976 57.227 57.322 0 31.662-26.052 57.329-58.19 57.329l.866-.007-.005.079c-1.642 30.202 10.536 49.215 36.631 57.278l.803.244-.53 1.729c-27.485-8.17-40.43-28.028-38.735-59.33-31.69-.511-57.219-25.979-57.219-57.322h1.832l.008.918c.498 30.241 25.536 54.606 56.349 54.606 31.126 0 56.358-24.859 56.358-55.524s-25.232-55.524-56.358-55.524v-1.806Z" fill="#000"/><path d="M197.039 0c32.137 0 58.19 25.667 58.19 57.33 0 31.662-26.053 57.329-58.19 57.329-3.981 0-7.868-.394-11.624-1.144-4.071 24.234-18.973 40.427-44.588 48.482l-.79.245-.543-1.724c25.484-7.782 40.154-23.547 44.13-47.392-25.671-5.967-44.775-28.684-44.775-55.797C138.849 25.667 164.902 0 197.039 0Zm0 1.806c-31.125 0-56.357 24.858-56.357 55.523 0 30.665 25.232 55.524 56.357 55.524s56.357-24.859 56.357-55.524-25.232-55.523-56.357-55.523Z" fill="#000"/><path d="M225.905 39.707H166.34c-2.53 0-4.582 2.021-4.582 4.514v36.114c0 2.493 2.052 4.514 4.582 4.514h59.565c2.53 0 4.582-2.022 4.582-4.514V44.222c0-2.494-2.052-4.515-4.582-4.515Z" fill="#DAE6EB"/><mask id="b" style="mask-type:alpha" maskUnits="userSpaceOnUse" x="166" y="44" width="24" height="28"><path d="M188.104 44.221h-20.618c-.633 0-1.146.506-1.146 1.129v24.828c0 .623.513 1.128 1.146 1.128h20.618c.633 0 1.146-.505 1.146-1.128V45.35c0-.623-.513-1.129-1.146-1.129Z" fill="#fff"/></mask><g mask="url(#b)"><path d="M188.104 44.221h-20.618c-.633 0-1.146.506-1.146 1.129v24.828c0 .623.513 1.128 1.146 1.128h20.618c.633 0 1.146-.505 1.146-1.128V45.35c0-.623-.513-1.129-1.146-1.129Z" fill="#406080"/></g><path d="M225.905 44.221h-32.073v4.515h32.073v-4.514Z" fill="#406080"/><path d="M216.741 53.25h-22.909v1.805h22.909V53.25ZM212.159 59.57h-18.327v1.805h18.327V59.57ZM214.45 65.89h-20.618v1.805h20.618v-1.806Z" fill="#000"/><path d="M199.196 30.735a6.824 6.824 0 0 1 3.074 3.028l3.017 5.944h-18.328l3.017-5.944c1.697-3.344 5.825-4.7 9.22-3.028Zm-1.024 2.019c-2.239-1.103-4.956-.23-6.11 1.947l-.037.072-1.359 2.677h10.914l-1.359-2.677a4.545 4.545 0 0 0-1.958-1.973l-.091-.046Z" fill="#AEC6D0"/><path d="M94.248 361.919c-4.309-.009-7.993-3.462-8.75-8.199l-1.003-6.371c-.22-1.226.173-2.489 1.025-3.301.854-.811 2.033-1.045 3.083-.608 1.05.435 1.806 1.472 1.977 2.709l1.007 6.374c.261 1.643 1.665 2.739 3.137 2.449l5.705-1.124c1.088-.215 2.195.236 2.905 1.179.71.945.915 2.24.538 3.399-.378 1.16-1.28 2.006-2.368 2.221l-5.708 1.124a8.146 8.146 0 0 1-1.548.148ZM142.085 343.164c-1.596-.009-2.924-1.374-3.062-3.15-.139-1.776.957-3.378 2.527-3.695l5.709-1.129c.707-.139 1.334-.586 1.746-1.243a3.3 3.3 0 0 0 .446-2.257l-1.005-6.369c-.192-1.216.21-2.451 1.057-3.245.845-.793 2.006-1.022 3.044-.6 1.038.421 1.796 1.429 1.987 2.643l1.005 6.374c.41 2.591-.119 5.259-1.47 7.415-1.352 2.156-3.416 3.624-5.737 4.081l-5.705 1.125c-.179.035-.36.052-.542.05ZM99.571 189.335c-1.497-.003-2.777-1.203-3.038-2.851l-1.007-6.374c-.124-.788-.525-1.49-1.113-1.948a2.447 2.447 0 0 0-2.021-.501l-5.693 1.125c-1.088.214-2.195-.235-2.905-1.18-.71-.944-.915-2.24-.537-3.399.377-1.16 1.28-2.005 2.367-2.219l5.708-1.123c4.832-.942 9.436 2.656 10.298 8.048l1.003 6.371a3.767 3.767 0 0 1-.517 2.585c-.473.75-1.193 1.26-2.004 1.414a2.81 2.81 0 0 1-.54.052ZM298.025 324.107c1.406.508 2.192 2.067 1.866 3.703l-1.267 6.329c-.157.783-.024 1.578.369 2.206a2.424 2.424 0 0 0 1.726 1.152l5.74.861c1.096.165 1.981.96 2.32 2.088.339 1.126.082 2.413-.675 3.375-.757.962-1.899 1.453-2.995 1.288l-5.753-.869c-4.868-.743-7.946-5.675-6.883-11.032l1.268-6.325a3.817 3.817 0 0 1 1.383-2.256c.705-.545 1.56-.781 2.375-.653.179.027.356.073.526.133ZM413.615 209.319c-1.145-.951-1.343-2.681-.468-4.108l3.388-5.52c.419-.683.57-1.475.418-2.198a2.391 2.391 0 0 0-1.221-1.664l-5.096-2.743c-.972-.525-1.528-1.57-1.455-2.744.072-1.172.761-2.295 1.806-2.944 1.046-.649 2.289-.725 3.261-.201l5.106 2.755c4.315 2.338 5.495 8.01 2.637 12.687l-3.387 5.516a3.873 3.873 0 0 1-2.083 1.653c-.852.274-1.736.209-2.458-.187a2.726 2.726 0 0 1-.448-.302ZM343.86 357.302c.751-1.276 2.446-1.768 4.025-1.167l6.106 2.328c.755.288 1.573.297 2.27.025.701-.269 1.223-.799 1.451-1.474l1.857-5.421c.356-1.034 1.304-1.755 2.49-1.888 1.184-.133 2.427.34 3.257 1.241.83.902 1.122 2.095.766 3.129l-1.867 5.432c-1.588 4.594-7.052 6.723-12.223 4.762l-6.102-2.329a3.86 3.86 0 0 1-2.014-1.733c-.423-.779-.511-1.649-.241-2.418.058-.169.135-.333.225-.487ZM373.291 175.508c-.752 1.277-2.447 1.769-4.026 1.168l-6.106-2.329c-.755-.287-1.573-.297-2.269-.024-.702.268-1.224.799-1.451 1.474l-1.858 5.42c-.355 1.035-1.304 1.756-2.49 1.888-1.184.134-2.426-.339-3.256-1.241-.83-.901-1.123-2.094-.767-3.129l1.867-5.431c1.588-4.594 7.053-6.724 12.223-4.763l6.102 2.329c.866.331 1.591.955 2.014 1.734.423.779.511 1.649.241 2.418a2.708 2.708 0 0 1-.224.486ZM32.675 208.748c-1.499-.001-2.78-1.203-3.041-2.851l-1.004-6.374c-.848-5.398 2.38-10.543 7.212-11.498l5.706-1.126c1.685-.331 3.29.925 3.588 2.807.297 1.881-.829 3.674-2.513 4.005l-5.709 1.126c-.705.139-1.334.586-1.746 1.241a3.307 3.307 0 0 0-.447 2.259l1.008 6.374a3.774 3.774 0 0 1-.512 2.579c-.47.75-1.188 1.261-1.995 1.42a2.953 2.953 0 0 1-.547.038Z" fill="#7F5B53"/><path d="M93.113 289.068c-11-.03-20.03-9.724-20.487-21.997-.459-12.273 7.818-22.773 18.779-23.824 10.959-1.05 20.717 7.721 22.139 19.901 1.423 12.181-5.995 23.452-16.83 25.575a18.544 18.544 0 0 1-3.601.345Z" fill="#F29C1F"/><path d="M90.187 250.537a2.956 2.956 0 0 1-1.823-.638c-1.926-1.504-4.664-6.012-2.705-13.372 1.138-4.265-.364-5.78-.43-5.843-.664-.521-1.113-1.318-1.247-2.213a3.692 3.692 0 0 1 .54-2.545c1.015-1.549 2.954-1.904 4.36-.8 1.926 1.504 4.66 6.01 2.702 13.372-1.137 4.261.367 5.777.433 5.838.664.522 1.113 1.319 1.245 2.214a3.693 3.693 0 0 1-.541 2.546c-.584.911-1.53 1.449-2.534 1.441ZM81.972 254.772a2.52 2.52 0 0 1-.275 0c-2.339-.228-6.727-2.605-8.326-10.069-.927-4.331-2.904-4.805-2.988-4.832-.81-.081-1.555-.521-2.07-1.222a3.66 3.66 0 0 1-.672-2.506c.183-1.908 1.703-3.303 3.416-3.129 2.339.228 6.727 2.606 8.326 10.073.927 4.328 2.905 4.801 2.99 4.832.81.08 1.556.52 2.071 1.221.516.701.758 1.604.672 2.506-.178 1.787-1.535 3.135-3.144 3.126ZM75.083 263.351c-3.361-.157-6.51-1.88-8.684-4.748-2.738-3.226-4.666-2.536-4.744-2.506a2.734 2.734 0 0 1-2.341.098c-.762-.319-1.374-.966-1.704-1.796-.699-1.751-.011-3.807 1.545-4.617 2.132-1.108 6.997-1.494 11.719 4.075 2.745 3.23 4.667 2.531 4.75 2.503a2.738 2.738 0 0 1 2.34-.096c.761.319 1.374.967 1.703 1.797.7 1.75.013 3.806-1.545 4.613a6.602 6.602 0 0 1-3.039.677ZM58.902 276.465c-1.172.002-2.245-.731-2.778-1.896-.532-1.167-.435-2.567.253-3.626 1.348-2.15 5.384-5.207 11.975-3.012 3.824 1.266 5.176-.411 5.23-.483.468-.744 1.183-1.245 1.986-1.391.8-.148 1.623.072 2.278.608 1.39 1.13 1.71 3.297.718 4.865-1.349 2.15-5.39 5.201-11.976 3.016-3.82-1.266-5.173.411-5.232.479-.557.903-1.474 1.44-2.454 1.44ZM66.52 294.686h-.287c-1.717-.203-2.968-1.912-2.804-3.831.208-2.613 2.337-7.509 9.022-9.294 3.876-1.035 4.298-3.243 4.327-3.34.165-1.873 1.659-3.243 3.337-3.061 1.712.203 2.959 1.902 2.803 3.817-.204 2.612-2.333 7.512-9.018 9.297-3.878 1.035-4.302 3.244-4.327 3.337-.139 1.76-1.471 3.101-3.053 3.075ZM81.354 306.194c-1.231-.006-2.35-.805-2.874-2.049-.992-2.378-1.344-7.81 3.65-13.086 2.893-3.061 2.272-5.211 2.24-5.301a3.753 3.753 0 0 1-.086-2.613c.286-.849.865-1.535 1.607-1.905 1.569-.777 3.408-.01 4.136 1.726.994 2.378 1.344 7.809-3.648 13.09-2.896 3.057-2.271 5.207-2.244 5.297.345.828.375 1.776.084 2.63-.292.852-.878 1.538-1.63 1.901a2.73 2.73 0 0 1-1.235.31ZM99.255 307.9a2.967 2.967 0 0 1-1.827-.638c-1.926-1.506-4.66-6.012-2.701-13.373 1.134-4.266-.368-5.777-.43-5.839-.664-.523-1.113-1.32-1.245-2.215a3.688 3.688 0 0 1 .537-2.544c1.015-1.55 2.954-1.907 4.361-.804 1.926 1.504 4.661 6.015 2.701 13.372-1.138 4.265.365 5.777.43 5.839.664.523 1.113 1.321 1.245 2.216a3.69 3.69 0 0 1-.541 2.546c-.581.913-1.528 1.451-2.53 1.44ZM115.519 299.39a3.13 3.13 0 0 1-.274 0c-2.34-.228-6.729-2.606-8.326-10.074-.927-4.328-2.905-4.8-2.992-4.832-.809-.081-1.554-.522-2.069-1.222a3.667 3.667 0 0 1-.672-2.504c.178-1.914 1.703-3.311 3.418-3.131 2.339.228 6.728 2.606 8.325 10.07.927 4.332 2.906 4.801 2.99 4.831.808.081 1.555.523 2.069 1.222a3.66 3.66 0 0 1 .671 2.506c-.173 1.788-1.529 3.14-3.14 3.134ZM124.105 283.273c-3.36-.153-6.508-1.871-8.681-4.738-2.738-3.226-4.666-2.532-4.747-2.502a2.741 2.741 0 0 1-2.343.096c-.76-.32-1.373-.968-1.702-1.797-.698-1.752-.01-3.802 1.545-4.613 2.132-1.109 6.996-1.498 11.721 4.071 2.74 3.23 4.671 2.539 4.744 2.506a2.742 2.742 0 0 1 2.343-.101c.76.321 1.374.968 1.703 1.799.698 1.751.012 3.805-1.544 4.616-.96.46-1.996.686-3.039.663ZM110.275 266.35c-1.174.005-2.25-.727-2.783-1.893-.535-1.167-.437-2.569.255-3.629 1.347-2.15 5.387-5.204 11.976-3.016 3.817 1.266 5.174-.41 5.232-.479.467-.742 1.181-1.245 1.982-1.393.801-.15 1.623.069 2.28.602 1.389 1.133 1.709 3.3.716 4.87-1.344 2.15-5.37 5.204-11.975 3.016-3.817-1.266-5.171.407-5.229.479-.555.906-1.472 1.445-2.454 1.443ZM106.482 257.24h-.285c-1.71-.203-2.959-1.903-2.802-3.818.204-2.611 2.333-7.512 9.018-9.297 3.878-1.035 4.302-3.243 4.327-3.336.075-.901.47-1.732 1.098-2.308.626-.574 1.433-.846 2.24-.753 1.709.204 2.957 1.9 2.802 3.814-.204 2.611-2.333 7.511-9.02 9.296-3.876 1.036-4.3 3.244-4.327 3.34-.145 1.753-1.474 3.088-3.051 3.062ZM99.174 251.455c-1.232-.007-2.35-.805-2.875-2.049-.991-2.378-1.344-7.81 3.647-13.09 2.896-3.06 2.272-5.21 2.243-5.297a3.749 3.749 0 0 1-.087-2.615c.286-.849.865-1.534 1.608-1.903 1.57-.777 3.408-.01 4.136 1.726.991 2.378 1.341 7.809-3.65 13.087-2.893 3.06-2.269 5.21-2.241 5.3a3.76 3.76 0 0 1 .087 2.615c-.286.849-.865 1.534-1.607 1.902a2.73 2.73 0 0 1-1.261.324Z" fill="#F29C1F"/><path d="M67.791 205.81c-1.499-.001-2.781-1.204-3.04-2.854l-.502-3.185c-.247-1.851.87-3.586 2.52-3.911 1.651-.324 3.233.88 3.566 2.714l.503 3.185a3.773 3.773 0 0 1-.511 2.581c-.47.75-1.19 1.26-1.998 1.418a2.845 2.845 0 0 1-.538.052ZM60.239 213.872c-1.603 0-2.94-1.368-3.08-3.152-.14-1.784.965-3.39 2.545-3.699l2.855-.562c1.089-.213 2.195.237 2.904 1.182.71.946.913 2.241.534 3.4-.377 1.159-1.281 2.003-2.368 2.217l-2.853.562a2.941 2.941 0 0 1-.537.052ZM70.31 221.744c-1.498-.002-2.78-1.204-3.041-2.851l-.503-3.186c-.193-1.214.21-2.451 1.055-3.243.847-.794 2.007-1.022 3.045-.6 1.038.421 1.795 1.427 1.988 2.643l.503 3.189c.296 1.875-.826 3.664-2.506 3.996a2.717 2.717 0 0 1-.54.052ZM74.508 211.059c-1.603-.002-2.94-1.37-3.077-3.153-.138-1.783.966-3.389 2.545-3.697l2.852-.562c1.681-.332 3.285.922 3.58 2.8.297 1.877-.825 3.667-2.508 3.998l-2.855.562a2.774 2.774 0 0 1-.537.052ZM112.345 322.92c-1.498-.003-2.778-1.207-3.038-2.854l-.503-3.186c-.22-1.226.172-2.489 1.026-3.301.852-.811 2.032-1.045 3.081-.608 1.05.435 1.808 1.472 1.977 2.709l.505 3.189c.295 1.875-.828 3.664-2.507 3.996-.178.037-.36.055-.541.055ZM104.791 330.992c-1.596-.009-2.924-1.376-3.062-3.152-.139-1.776.956-3.378 2.527-3.695l2.857-.562c1.656-.278 3.21.971 3.501 2.812.292 1.844-.786 3.61-2.429 3.981l-2.852.564c-.179.035-.36.053-.542.052ZM114.864 338.853c-1.498-.003-2.778-1.205-3.037-2.851l-.508-3.188c-.295-1.877.828-3.668 2.508-3.998 1.681-.332 3.285.922 3.581 2.8l.503 3.186a3.777 3.777 0 0 1-.51 2.579c-.471.75-1.189 1.261-1.996 1.42a2.891 2.891 0 0 1-.541.052ZM120.727 326.982c-1.603.002-2.94-1.368-3.08-3.152-.139-1.782.966-3.388 2.545-3.698l2.856-.562c1.117-.298 2.29.119 3.047 1.086.754.965.969 2.318.555 3.515-.415 1.196-1.388 2.037-2.53 2.184l-2.852.562a2.606 2.606 0 0 1-.541.065Z" fill="#F0C419"/><g clip-path="url(#c)"><path d="M343.736 277.35c18.043 0 32.668-14.411 32.668-32.187 0-7.877-2.881-15.082-7.648-20.677 14.728 4.658 25.394 18.249 25.394 34.306 0 19.905-16.377 36.039-36.58 36.039-16.298 0-30.094-10.508-34.821-25.018a32.812 32.812 0 0 0 20.987 7.537Z" fill="#464F5D"/><path d="M380.178 230.506c4.893 6.124 7.833 13.834 7.833 22.236 0 19.904-16.376 36.038-36.58 36.038a36.705 36.705 0 0 1-22.569-7.716 36.66 36.66 0 0 0 28.71 13.766c20.204 0 36.58-16.134 36.58-36.038 0-11.485-5.476-21.689-13.974-28.286Z" fill="#2C2F38"/><path d="m341.056 238.554 3.768 7.525 8.427 1.205-6.097 5.856 1.438 8.269-7.536-3.903-7.537 3.903 1.438-8.269-6.098-5.856 8.427-1.205 3.77-7.525ZM362.309 236.146l1.953 3.901 4.369.624-3.162 3.036.747 4.284-3.907-2.022-3.907 2.022.748-4.284-3.162-3.036 4.369-.624 1.952-3.901Z" fill="#FFD83B"/></g><defs><clipPath id="c"><path fill="#fff" transform="translate(322.749 224.484)" d="M0 0h71.403v70.347H0z"/></clipPath></defs></svg>