<svg width="491" height="466" fill="none" xmlns="http://www.w3.org/2000/svg"><path opacity=".747" fill-rule="evenodd" clip-rule="evenodd" d="m459.223 226.923-1.26 2.566c-20.728 41.98-48.236 87.415-93.272 113.723-45.136 26.356-107.804 33.586-165.393 37.769l-3.519.252c-58.647 4.197-111.527 5.564-145.939-9.658C15.454 356.408-.465 324.653.01 285.715c.475-38.938 17.447-85.107 59.187-124.544 41.714-39.491 108.195-72.254 175.876-96.456 67.68-24.202 136.431-39.855 182.116-31.398 45.609 8.563 68.025 41.228 72.329 76.845 4.28 35.56-9.526 74.126-30.295 116.761Z" fill="#F7D59C" fill-opacity=".5"/><path fill-rule="evenodd" clip-rule="evenodd" d="m282.232 145.538-3.693-1.502c-10.379 11.438-25.58 12.718-45.601 3.842 19.163 12.261 32.837 16.699 41.02 13.314 8.184-3.384 10.941-8.602 8.274-15.654Z" fill="#E85D5D"/><path fill-rule="evenodd" clip-rule="evenodd" d="M336.871 271.317c-.082-9.748-.521-22.674-1.847-35.1-4.221-39.571-19.392-83.07-43.682-87.966-27.753-5.595 5.182 53.375 12.287 75.116 6.939 21.233 10.989 33.637 16.948 53.894.236.8.21 1.678.331 2.545 3.61-5.511 15.963-8.489 15.963-8.489Z" fill="#AD603F"/><path fill-rule="evenodd" clip-rule="evenodd" d="M324.098 249.926c-.746-33.459-6.781-71.885-43.213-87.633 2.916 17.698 18.175 47.089 22.744 61.075 6.575 20.115 10.558 32.318 16.027 50.775 4.051-1.94 4.46-13.527 4.442-24.217Z" fill="#000" fill-opacity=".15" style="mix-blend-mode:overlay"/><path fill-rule="evenodd" clip-rule="evenodd" d="M404.419 311.273c-26.481-9.605-52.074-10.181-96.256-10.999-28.676-.532-32.807 52.502-25.772 62.59 36.819-3.273 97.775-.556 130.418-5.471 16.342-15.758 21.119-35.415-8.39-46.12Z" fill="#AD603F"/><path fill-rule="evenodd" clip-rule="evenodd" d="M280.073 337.01c-1.482 11.342-.44 21.898 2.318 25.854 36.818-3.273 97.775-.557 130.418-5.47 3.645-3.515 3.649-7.279 3.313-11.971.06-14.06-9.72-16.091-22.458-17.767-50.95-1.675-77.147 14.954-113.591 9.354Z" fill="#000"/><path fill-rule="evenodd" clip-rule="evenodd" d="M416.452 327.895c-4.867-9-18.466-5.873-31.963-5.233-2.819 5.136-6.758 6.097-19.729 10.448-20.874 7.004-43.064 32.93-51.015 36.907-18.74 9.372-40.797 22.379-52.838 27.15-4.09 8.861-5.724 11.942 4.998 25.673 34.079-20.674 113.944-47.044 144.017-63.148.306-.164.605-.312.9-.447 12.013-7.566 7.759-26.569 5.63-31.35Z" fill="#AD603F"/><path fill-rule="evenodd" clip-rule="evenodd" d="M416.452 327.895c-4.867-9-18.466-5.873-31.963-5.233-2.819 5.136-6.758 6.097-19.729 10.448-20.874 7.004-43.064 32.93-51.015 36.907-18.74 9.372-40.797 22.379-52.838 27.15-4.09 8.861-5.724 11.942 4.998 25.673 34.079-20.674 113.944-47.044 144.017-63.148.306-.164.605-.312.9-.447 12.013-7.566 7.759-26.569 5.63-31.35Z" fill="#000" fill-opacity=".15" style="mix-blend-mode:overlay"/><path fill-rule="evenodd" clip-rule="evenodd" d="M249.546 314.229c27.961 10.992 29.213 37.246 28.382 48.19-3.713 3.497-50.544 13.269-73.863 14.179-37.345 1.456-59.844 5.859-68.976 6.903-1.325.151-13.937-5.615-17.765-13.024-4.667-11.399-.103-18.571 6.582-24.014 6.685-5.444 69.981-27.667 82.348-30.448 9.152-2.056 24.317-6.49 43.292-1.786Z" fill="#AD603F"/><path fill-rule="evenodd" clip-rule="evenodd" d="M157.118 356.143c-9.676 6.451-11.873 16.105-10.842 25.78 12.069-1.749 31.148-4.288 57.79-5.326 23.316-.91 70.148-10.681 73.862-14.177.38-5.02.315-13.261-2.554-21.772-4.389 2.529-8.964 4.505-13.546 5.755-34.092 10.958-70.619-10.959-104.71 9.74Z" fill="#000"/><path fill-rule="evenodd" clip-rule="evenodd" d="M310.673 303.373c-1.038-4.152-5.302-18.465-5.499-22.758-.748-16.47 3.002-32.042 1.553-50.798 0 0 4.633-4.089 5.59-11.791.559-4.5-16.938-37.365-21.632-69.893-3.264-.895-7.263-2.027-10.268-3.333-7.054 8.951-21.393 9.765-21.393 9.765-22.381.808-31.482-12.977-31.592-13.144-3.196 1.338-7.185 2.878-14.471 5.707 9.189 21.957-5.604 40.575-9.964 47.312.532 7.14 9.041 37.328 10.896 48.018 2.4 13.845 4.952 26.095 3.961 35.342-.759 7.088-8.247 24.689-14.252 42.149 8.807-10.694 67.25-16.144 70.049 41.899-1.039 3.806 13.148 1.384 13.494-.346 9.688-4.845 6.574-50.863 23.528-58.129ZM280.256 144.728l.129.057-.129-.057Z" fill="#AD603F"/><path fill-rule="evenodd" clip-rule="evenodd" d="M213.948 198.46c-4.169-3.804-8.91-4.325-10.952-4.021.531 7.14 9.043 37.329 10.896 48.018 2.401 13.847 4.952 26.097 3.961 35.344-.758 7.087-8.247 24.69-14.254 42.151 5.417-5.978 19.306-7.101 24.665-6.764 3.037-17.243.776-26.023 2.359-44.22 0-3.256 2.814-11.57 4.814-19.801-14.767-13.626-8.214-32.276-16.119-44.82a35.446 35.446 0 0 0-5.37-5.887Z" fill="#000" fill-opacity=".15" style="mix-blend-mode:overlay"/><path fill-rule="evenodd" clip-rule="evenodd" d="M252.996 164.117a.603.603 0 0 1-.372-.127c-6.418-4.971-14.416-7.969-22.522-8.442a.607.607 0 0 1-.571-.643.598.598 0 0 1 .643-.572c8.346.487 16.585 3.574 23.196 8.693a.612.612 0 0 1 .108.855.605.605 0 0 1-.482.236Z" fill="#000"/><path fill-rule="evenodd" clip-rule="evenodd" d="M275.194 162.877h-.024a.608.608 0 0 1-.564-.453 1.184 1.184 0 0 1 .296-1.12c1.761-4.488 5.084-8.426 9.218-10.892a.609.609 0 0 1 .625 1.045c-3.917 2.336-7.062 6.069-8.722 10.323a.62.62 0 0 1-.069.179c-.065.17-.125.339-.185.509a.608.608 0 0 1-.575.409Z" fill="#000" fill-opacity=".25" style="mix-blend-mode:overlay"/><path fill-rule="evenodd" clip-rule="evenodd" d="M251.827 234.457c-2.491 0-5.269-.18-7.877-.667-3.363-.629-7.982-2.258-10.72-4.48-3.396-2.755-6.443-8.9-7.338-12.277a.61.61 0 0 1 1.177-.312c.961 3.629 4.041 9.304 6.927 11.644 2.574 2.087 6.966 3.627 10.178 4.227 4.606.863 9.766.734 12.784.365a.597.597 0 0 1 .678.53.607.607 0 0 1-.529.678c-1.398.172-3.243.292-5.28.292Z" fill="#000"/><path fill-rule="evenodd" clip-rule="evenodd" d="M280.22 289.17a.608.608 0 0 1-.579-.266 8.067 8.067 0 0 1-1.236-5.763l.033-.195c.067-.369.129-.717.034-.969a.61.61 0 0 1 .355-.785.612.612 0 0 1 .784.357c.213.565.114 1.122.026 1.611l-.033.183a6.855 6.855 0 0 0 1.048 4.885.607.607 0 0 1-.432.942Z" fill="#000" fill-opacity=".25" style="mix-blend-mode:overlay"/><path fill-rule="evenodd" clip-rule="evenodd" d="M408.782 310.357c-26.456-9.672-63.531-10.243-102.894-22.863-27.312-8.757-30.532 65.282-23.497 75.371 36.819-3.273 102.086-3.295 134.728-8.208 12.434-11.512 17.947-34.691-8.337-44.3Z" fill="#323C84"/><path fill-rule="evenodd" clip-rule="evenodd" d="M280.073 337.01c-1.482 11.342-.44 21.898 2.318 25.854 36.818-3.273 97.775-.558 130.418-5.47 3.645-3.515 3.649-7.279 3.313-11.971.06-14.06-9.72-16.091-22.458-17.767-30.426-1-46.208-1.481-66.476 1.672-10.171 1.581-15.595-13.562 1.833-35.545-22.839-4.854-18.314-2.473-22.366 4.213-9.015 14.687-7.699 25.02-26.582 39.014Z" fill="#000" fill-opacity=".25" style="mix-blend-mode:overlay"/><path fill-rule="evenodd" clip-rule="evenodd" d="M234.678 452.21c-.065.373-3.766 5.985-10.665 5.981l-7.596-7.354s-2.149-11.35-2.146-11.616c.004-.265 10.269-27.105 10.269-27.105l21.515-1.658-15.323 28.099 3.946 13.653Z" fill="#CEE5D0"/><path fill-rule="evenodd" clip-rule="evenodd" d="M264.965 388.892s-.115-.285-.671-.681c-.919-.652-2.863-1.355-5.298-1.469 0 0-8.709 1.55-12.259 12.506-3.002 9.258-4.555 10.208-7.99 12.557 0 0 .699 4.296-5.8 9.629-6.5 5.333-8.87 22.443-6.176 28.276 2.696 5.834 6.255 3.613 7.907 2.5 1.653-1.112 4.347-4.605 6.783-7.723 2.436-3.118 5.368-5.601 7.018-6.335l16.486-49.26Z" fill="#fff"/><path fill-rule="evenodd" clip-rule="evenodd" d="M265.696 423.005s7.797 1.238 11.589.532c3.79-.705 5.336-3.205 4.248-6.622-1.09-3.418.948-5.03-1.164-7.201-2.115-2.171-2.593-4.068-7.905-2.752-5.311 1.315-11.098.483-11.968-.411 0 0-1.078-4.174 2.506-8.286 3.583-4.111 8.387-5.182 6.428-9.493 0 0-3.037.968-5.16-.573 0 0 .871.893-.923 3.013-1.792 2.119-9.505 4.033-9.454 9.579.052 5.546 3.787 5.171 3.41 8.868-.46 4.542-6.481 3.946-10.429 7.045-3.948 3.099-10.398 12.055-5.909 20.946 0 0 2.098 5.788 10.061-1.481 6.65-6.07 6.64-6.465 9.049-7.441 2.407-.977 5.214-3.586 5.621-5.723Z" fill="#E85D5D"/><path fill-rule="evenodd" clip-rule="evenodd" d="M265.678 422.082s8.791.692 9.071-.848c.212-1.416-.807-1.941-1.27-3.446-.478-1.56.678-2.982-1.139-4.203-1.397-.936-6.449 2.446-9.659 1.986 2.212 1.844 3.526 5.43 2.997 6.511Z" fill="#CEE5D0"/><path fill-rule="evenodd" clip-rule="evenodd" d="M258.996 386.742s-2.78-1.976-8.097-1.25c0 0-9.54 3.08-12.586 15.089-2.357 9.294-9.167 10.977-11.982 16.513 0 0 7.589-2.255 13.152-5.728 5.562-3.471 4.933-5.581 8.058-13.288 4.261-10.518 11.455-11.336 11.455-11.336Z" fill="#E44E46"/><path fill-rule="evenodd" clip-rule="evenodd" d="M250.899 385.491s-5.825-.962-9.809-.661c-3.984.301-7.415 7.355-8.919 13.436-1.944 7.854-8.445 8.533-13.238 16.429-4.793 7.897-10.515 25.687-4.851 38.764 0 0 2.58 5.518 9.932 4.732 0 0 1.518-1.13-.202-4.779-1.721-3.649-4.834-2.365-5.93-6.358-1.097-3.996-2.687-16.705 8.449-29.961 0 0 9.813-4.862 11.803-12.837 2.775-11.127 8.378-17.75 12.765-18.765Z" fill="#10145F"/><path fill-rule="evenodd" clip-rule="evenodd" d="M267.411 390.627c-.02-.014 2.798-3.994 4.511-4.67 3.129-1.234 4.318 1.146 4.187 4.055 0 0-5.188 2.614-9.805 4.887 0 0 2.608-3.183 1.107-4.272Z" fill="#E85D5D"/><path fill-rule="evenodd" clip-rule="evenodd" d="M255.312 417.939a.698.698 0 0 1 .926-.652c3.981 1.366 7.113 6.7 6.321 10.773a.698.698 0 0 1-.818.552.707.707 0 0 1-.553-.82c.66-3.342-2.128-8.06-5.403-9.184a.7.7 0 0 1-.473-.669ZM252.551 420.922a.696.696 0 0 1 .069-.289.694.694 0 0 1 .929-.33c1.448.689 3.622 2.424 4.975 4.407.91 1.337 1.413 3.948.701 5.308a.698.698 0 0 1-1.237-.648c.42-.798.096-2.825-.619-3.873-1.2-1.76-3.173-3.34-4.421-3.934a.7.7 0 0 1-.397-.641ZM249.727 424.149a.698.698 0 0 1 .983-.628c1.902.85 3.631 2.209 4.624 3.638 1.011 1.453 1.483 3.357 1.243 4.97a.697.697 0 0 1-.795.587.703.703 0 0 1-.587-.794c.192-1.254-.205-2.812-1.008-3.967-.841-1.21-2.392-2.42-4.046-3.158a.7.7 0 0 1-.414-.648ZM246.529 427.022a.698.698 0 0 1 1.043-.597c.933.533 3.235 1.965 4.502 3.745 1.296 1.825 1.278 3.441 1.097 4.783a.7.7 0 0 1-1.385-.193c.185-1.298.105-2.437-.851-3.781-1.105-1.554-3.206-2.854-4.055-3.341a.699.699 0 0 1-.351-.616ZM243.897 430.369a.698.698 0 0 1 .868-.668c1.559.393 3.036 1.672 4.053 3.51.957 1.727 1.289 3.6.872 4.891a.698.698 0 0 1-1.33-.431c.3-.919-.001-2.405-.763-3.784-.818-1.48-2.004-2.538-3.173-2.832a.697.697 0 0 1-.527-.686Z" fill="#fff"/><path fill-rule="evenodd" clip-rule="evenodd" d="M416.452 327.895c-4.867-9-18.466-5.873-31.964-5.234-2.818 5.137-6.759 6.098-19.728 10.449-20.874 7.004-44.726 24.63-52.679 28.608-8.837 4.42-19.58 9.899-29.497 15.116-2.093 13.895 12.635 35.301 20.855 42.323 37.137-19.682 81.825-47.276 100.97-56.21 2.764-1.29 8.934-5.158 12.71-8.198 13.999-16.21 1.461-22.072-.667-26.854Z" fill="#323C84"/><path fill-rule="evenodd" clip-rule="evenodd" d="M319.872 385.997c-14.147 3.031-29.098.61-30.718-12.594a1367.1 1367.1 0 0 0-6.57 3.431c-2.093 13.894 12.635 35.301 20.856 42.322 37.135-19.682 81.823-47.275 100.97-56.21 1.535-.717 4.126-2.232 6.772-3.957-30.215-3.254-53.885 14.257-91.31 27.008Z" fill="#000" fill-opacity=".25" style="mix-blend-mode:overlay"/><path fill-rule="evenodd" clip-rule="evenodd" d="M249.403 307.713c27.961 10.993 29.355 43.761 28.525 54.707-3.714 3.497-50.545 13.268-73.862 14.177-37.347 1.456-60.731 6.989-69.865 8.034-1.324.151-14.122-6.536-17.95-13.945-4.667-11.4-1.602-22.938 4.832-28.676 10.456-9.327 73.821-30.861 87.913-44.506 18.566.895 25.276 3.58 40.407 10.209Z" fill="#323C84"/><path fill-rule="evenodd" clip-rule="evenodd" d="M157.118 356.143c-9.676 6.451-11.873 16.105-10.842 25.78 12.069-1.749 31.148-4.288 57.79-5.326 23.316-.91 70.148-10.681 73.862-14.177.38-5.02.315-13.261-2.554-21.772-4.389 2.529-8.964 4.505-13.546 5.755-34.092 10.958-70.619-10.959-104.71 9.74Z" fill="#000" fill-opacity=".25" style="mix-blend-mode:overlay"/><path fill-rule="evenodd" clip-rule="evenodd" d="M217.827 275.424a37.044 37.044 0 0 1-.162 2.244c-.76 7.088-8.058 24.821-14.064 42.281 8.807-10.694 67.251-16.143 70.05 41.898-1.038 3.806 13.147 1.384 13.494-.346 9.689-4.843 6.574-50.863 23.529-58.128-.832-3.322-5.658-17.48-5.353-28.487-3.392 13.83-55.5 17.94-87.494.538Z" fill="#323C84"/><path fill-rule="evenodd" clip-rule="evenodd" d="M286.933 324.271c-13.393 3.652-17.599-9.197-38.688-19.027-12.348-5.757-13.54-14.939-11.999-22.561-6.512-1.794-12.778-4.192-18.419-7.259a37.103 37.103 0 0 1-.162 2.244c-.492 4.589-3.725 13.639-7.572 24.19-2.095 5.745 1.636 12.802 8.96 11.784 20.372-2.83 35.218 8.567 54.598 48.205-1.039 3.806 13.149 1.384 13.494-.346 7.154-3.577 16.755-35.803 20.402-59.587-2.474 3.274-11.416 19.186-20.614 22.357Z" fill="#000" fill-opacity=".25" style="mix-blend-mode:overlay"/><path fill-rule="evenodd" clip-rule="evenodd" d="M310.673 303.373c-.446-1.79-2.051-6.73-3.389-12.618-.558 6.577-1.219 12.983-3.027 18.299 1.758-2.591 3.855-4.584 6.416-5.681Z" fill="#323C84"/><mask id="a" style="mask-type:alpha" maskUnits="userSpaceOnUse" x="211" y="141" width="102" height="123"><path fill-rule="evenodd" clip-rule="evenodd" d="M223.625 142.973c13.583 22.026 9.375 81.344-11.828 89.829.922 3.882 1.674 7.265 2.091 9.664 1.059 6.121 1.495 9.725 2.239 14.496 27.132 7.12 64.189 11.599 91.479-2.161a306.438 306.438 0 0 0-.885-24.976s6.874-5.383 5.681-17.307c-2.181-21.814-25.663-36.013-30.17-66.981a36.864 36.864 0 0 1-1.82-.729c-7.055 8.952-21.395 9.766-21.395 9.766-22.38.808-31.483-12.977-31.592-13.145-1.132.474-2.361.973-3.8 1.544Z" fill="#fff"/></mask><g mask="url(#a)"><path fill-rule="evenodd" clip-rule="evenodd" d="M307.606 254.801a305.967 305.967 0 0 0-.886-24.976s6.875-5.383 5.682-17.308c-2.181-21.815-25.663-36.012-30.171-66.979a38.701 38.701 0 0 1-1.82-.731c-7.053 8.953-21.394 9.766-21.394 9.766-22.38.809-31.483-12.976-31.593-13.143-1.13.472-2.361.971-3.8 1.544 13.584 22.024 9.377 81.343-11.826 89.828.92 3.883 1.673 7.265 2.088 9.664 1.06 6.12 1.496 9.726 2.24 14.496 27.132 7.12 64.19 11.6 91.48-2.161Z" fill="#CEE5D0"/></g><mask id="b" style="mask-type:alpha" maskUnits="userSpaceOnUse" x="211" y="141" width="102" height="123"><path fill-rule="evenodd" clip-rule="evenodd" d="M223.625 142.973c13.583 22.026 9.375 81.344-11.828 89.829.922 3.882 1.674 7.265 2.091 9.664 1.059 6.121 1.495 9.725 2.239 14.496 27.132 7.12 64.189 11.599 91.479-2.161a306.438 306.438 0 0 0-.885-24.976s6.874-5.383 5.681-17.307c-2.181-21.814-25.663-36.013-30.17-66.981a36.864 36.864 0 0 1-1.82-.729c-7.055 8.952-21.395 9.766-21.395 9.766-22.38.808-31.483-12.977-31.592-13.145-1.132.474-2.361.973-3.8 1.544Z" fill="#fff"/></mask><mask id="c" style="mask-type:alpha" maskUnits="userSpaceOnUse" x="211" y="141" width="102" height="123"><path fill-rule="evenodd" clip-rule="evenodd" d="M223.625 142.973c13.583 22.026 9.375 81.344-11.828 89.829.922 3.882 1.674 7.265 2.091 9.664 1.059 6.121 1.495 9.725 2.239 14.496 27.132 7.12 64.189 11.599 91.479-2.161a306.438 306.438 0 0 0-.885-24.976s6.874-5.383 5.681-17.307c-2.181-21.814-25.663-36.013-30.17-66.981a36.864 36.864 0 0 1-1.82-.729c-7.055 8.952-21.395 9.766-21.395 9.766-22.38.808-31.483-12.977-31.592-13.145-1.132.474-2.361.973-3.8 1.544Z" fill="#fff"/></mask><mask id="d" style="mask-type:alpha" maskUnits="userSpaceOnUse" x="211" y="141" width="102" height="123"><path fill-rule="evenodd" clip-rule="evenodd" d="M223.625 142.973c13.583 22.026 9.375 81.344-11.828 89.829.922 3.882 1.674 7.265 2.091 9.664 1.059 6.121 1.495 9.725 2.239 14.496 27.132 7.12 64.189 11.599 91.479-2.161a306.438 306.438 0 0 0-.885-24.976s6.874-5.383 5.681-17.307c-2.181-21.814-25.663-36.013-30.17-66.981a36.864 36.864 0 0 1-1.82-.729c-7.055 8.952-21.395 9.766-21.395 9.766-22.38.808-31.483-12.977-31.592-13.145-1.132.474-2.361.973-3.8 1.544Z" fill="#fff"/></mask><mask id="e" style="mask-type:alpha" maskUnits="userSpaceOnUse" x="211" y="141" width="102" height="123"><path fill-rule="evenodd" clip-rule="evenodd" d="M223.625 142.973c13.583 22.026 9.375 81.344-11.828 89.829.922 3.882 1.674 7.265 2.091 9.664 1.059 6.121 1.495 9.725 2.239 14.496 27.132 7.12 64.189 11.599 91.479-2.161a306.438 306.438 0 0 0-.885-24.976s6.874-5.383 5.681-17.307c-2.181-21.814-25.663-36.013-30.17-66.981a36.864 36.864 0 0 1-1.82-.729c-7.055 8.952-21.395 9.766-21.395 9.766-22.38.808-31.483-12.977-31.592-13.145-1.132.474-2.361.973-3.8 1.544Z" fill="#fff"/></mask><g mask="url(#e)"><path fill-rule="evenodd" clip-rule="evenodd" d="m219.382 264.029.025.494a2.867 2.867 0 0 0 2.895 2.724c1.586-.017 2.9-.516 3.939-1.097a105.413 105.413 0 0 1-6.878-3.191c-.001.342.001.694.019 1.07Z" fill="#B86767"/></g><mask id="f" style="mask-type:alpha" maskUnits="userSpaceOnUse" x="211" y="141" width="102" height="123"><path fill-rule="evenodd" clip-rule="evenodd" d="M223.625 142.973c13.583 22.026 9.375 81.344-11.828 89.829.922 3.882 1.674 7.265 2.091 9.664 1.059 6.121 1.495 9.725 2.239 14.496 27.132 7.12 64.189 11.599 91.479-2.161a306.438 306.438 0 0 0-.885-24.976s6.874-5.383 5.681-17.307c-2.181-21.814-25.663-36.013-30.17-66.981a36.864 36.864 0 0 1-1.82-.729c-7.055 8.952-21.395 9.766-21.395 9.766-22.38.808-31.483-12.977-31.592-13.145-1.132.474-2.361.973-3.8 1.544Z" fill="#fff"/></mask><g mask="url(#f)"><path fill-rule="evenodd" clip-rule="evenodd" d="M224.311 260.98c-.744.17-1.299.144-1.57.002l2.919 3.218c.172-.926.543-2.166.802-3.72.013-.089.019-.195.031-.286-.786.338-1.527.639-2.182.786Z" fill="#B86767"/></g><mask id="g" style="mask-type:alpha" maskUnits="userSpaceOnUse" x="211" y="141" width="102" height="123"><path fill-rule="evenodd" clip-rule="evenodd" d="M223.625 142.973c13.583 22.026 9.375 81.344-11.828 89.829.922 3.882 1.674 7.265 2.091 9.664 1.059 6.121 1.495 9.725 2.239 14.496 27.132 7.12 64.189 11.599 91.479-2.161a306.438 306.438 0 0 0-.885-24.976s6.874-5.383 5.681-17.307c-2.181-21.814-25.663-36.013-30.17-66.981a36.864 36.864 0 0 1-1.82-.729c-7.055 8.952-21.395 9.766-21.395 9.766-22.38.808-31.483-12.977-31.592-13.145-1.132.474-2.361.973-3.8 1.544Z" fill="#fff"/></mask><g mask="url(#g)"><path fill-rule="evenodd" clip-rule="evenodd" d="m225.66 264.2-2.918-3.218c.269.142.824.168 1.569-.001.655-.148 1.397-.449 2.182-.788a12.18 12.18 0 0 0 .113-2.401 9.65 9.65 0 0 0-.77-3.103c-.825-1.886-1.937-3.216-2.877-4.277-.946-1.069-1.774-1.969-2.317-2.707-.967-1.554-.977-1.792-.435-3.09.645-1.219 2.336-2.532 4.058-3.077l.655-.175c.262-.044.514-.108.788-.141a16.25 16.25 0 0 1 1.676-.162c1.161-.067 2.398-.034 3.708-.01 2.599.044 5.54.152 8.486-.461 5.803-1.183 10.412-4.082 15.434-5.415 2.477-.674 5.074-.993 7.551-.665 2.473.308 4.756 1.374 6.261 3.004 1.465 1.618 2.183 3.675 2.297 5.778.155 2.093-.244 4.21-.983 6.092-1.471 3.58-4.92 6.836-9.525 8.611-2.301.845-4.867 1.333-7.454 1.11-2.61-.195-5.211-.919-7.87-1.365a36.38 36.38 0 0 0-12.385.093c-.509.086-1.073.207-1.643.382-.553.173-1.082.372-1.591.582-1.018.417-1.968.871-2.87 1.265l-.307.132c-.012.092-.018.198-.032.287-.259 1.554-.629 2.794-.801 3.72Zm3.641-.308c1.583-1.422 2.794-2.718 4.443-3.532 3.424-1.779 7.51-2.51 11.428-1.899 2.605.411 5.084 1.369 7.717 2.126 2.649.762 5.501 1.21 8.43 1.072 2.919-.144 5.965-.871 8.669-2.524a15.252 15.252 0 0 0 3.678-3.075c1.076-1.249 1.986-2.712 2.58-4.244 1.183-3.077 1.401-6.457.539-9.598-.795-3.143-2.839-6.021-5.512-7.769-2.663-1.742-5.707-2.316-8.522-2.389-2.843-.065-5.594.313-8.283.902-2.675.606-5.27 1.343-7.847 1.914-2.573.565-5.123.961-7.532.926-2.366-.031-4.76-.532-7.455-.948a36.827 36.827 0 0 0-4.267-.431 23.268 23.268 0 0 0-2.312.022c-.391.013-.795.068-1.193.102-.418.056-.872.137-1.303.221a15.242 15.242 0 0 0-4.816 1.976c-1.476.948-2.889 2.14-3.981 3.813-1.088 1.641-1.852 3.855-1.675 6.135.158 2.282 1.191 4.263 2.233 5.65 1.039 1.407 2.101 2.396 2.953 3.289.86.888 1.497 1.619 1.794 2.159.173.279.217.472.303.724.073.302.104.756.09 1.299.009.859-.092 1.9-.097 3.145a104.9 104.9 0 0 0 6.878 3.192c.105-.059.223-.115.323-.175 1.094-.665 1.953-1.38 2.737-2.083Z" fill="#B86767"/></g><mask id="h" style="mask-type:alpha" maskUnits="userSpaceOnUse" x="211" y="141" width="102" height="123"><path fill-rule="evenodd" clip-rule="evenodd" d="M223.625 142.973c13.583 22.026 9.375 81.344-11.828 89.829.922 3.882 1.674 7.265 2.091 9.664 1.059 6.121 1.495 9.725 2.239 14.496 27.132 7.12 64.189 11.599 91.479-2.161a306.438 306.438 0 0 0-.885-24.976s6.874-5.383 5.681-17.307c-2.181-21.814-25.663-36.013-30.17-66.981a36.864 36.864 0 0 1-1.82-.729c-7.055 8.952-21.395 9.766-21.395 9.766-22.38.808-31.483-12.977-31.592-13.145-1.132.474-2.361.973-3.8 1.544Z" fill="#fff"/></mask><g mask="url(#h)"><path fill-rule="evenodd" clip-rule="evenodd" d="M283.521 251.359c.25-2.922 1.01-5.83 2.123-8.571 1.118-2.727 2.778-5.25 4.882-7.258a18.963 18.963 0 0 1 7.154-4.285c5.085-1.642 10.42-1.732 16.24-2.13 1.443-.086 2.946-.197 4.387-.313 1.436-.114 2.826-.181 4.174-.107 2.678.144 5.286 1.011 6.716 3.253.705 1.071 1.11 2.362.969 3.556-.128 1.184-.801 2.242-1.806 2.936-.998.714-2.303 1.078-3.651 1.269-1.346.217-2.775.183-4.272.202-2.959.028-6.04-.12-9.259.356-1.612.216-3.244.571-4.873 1.166a20.879 20.879 0 0 0-4.726 2.435c-1.474 1.034-2.857 2.284-4.031 3.81a14.096 14.096 0 0 0-2.58 5.39 13.973 13.973 0 0 0-.36 2.992c-.01.874.013 1.605-.015 2.138-.076 1.147-.129 1.132-.468 1.64-.329.449-1.026.894-1.737 1.129l-.137.043-.228.048-.455.099a7.68 7.68 0 0 1-.894.165c-.592.099-1.147.166-1.675.189-1.062.053-1.883-.053-2.551-.285-.623-.257-1.341-.794-1.84-1.846-.533-1.004-.868-2.336-1.027-3.715a21.011 21.011 0 0 1-.06-4.306Zm-2.772 12.155c.449.984 1.165 1.895 2.013 2.678 1.765 1.52 3.95 2.183 5.851 2.386.959.088 1.897.123 2.787.052.456-.018.893-.065 1.322-.124l.648-.082.324-.044.408-.076a10.863 10.863 0 0 0 5.871-3.3c.826-.885 1.49-2.014 1.916-3.251.416-1.236.535-2.4.542-3.342.013-.956-.04-1.717-.048-2.333-.011-.614.006-.989.077-1.448.25-1.772 1.46-3.708 3.27-5.245 3.555-3.035 9.27-4.183 15.153-5.5 2.897-.673 6.266-1.257 9.008-3.521 1.35-1.136 2.306-2.843 2.47-4.638.161-1.792-.345-3.495-1.138-4.982-.815-1.474-1.962-2.81-3.408-3.802-1.383-1.005-2.966-1.667-4.535-2.198-1.576-.516-3.166-.84-4.704-1.11a61.264 61.264 0 0 0-4.55-.61c-3.055-.287-6.237-.289-9.446.288-3.195.579-6.424 1.822-9.121 3.837-2.726 1.995-4.751 4.594-6.376 7.225-1.631 2.644-2.93 5.367-4.113 8.133-1.161 2.768-2.332 5.528-3.372 8.428-.972 2.915-2.087 5.938-1.682 9.693.104.93.394 1.915.833 2.886Z" fill="#B86767"/></g><mask id="i" style="mask-type:alpha" maskUnits="userSpaceOnUse" x="211" y="141" width="102" height="123"><path fill-rule="evenodd" clip-rule="evenodd" d="M223.625 142.973c13.583 22.026 9.375 81.344-11.828 89.829.922 3.882 1.674 7.265 2.091 9.664 1.059 6.121 1.495 9.725 2.239 14.496 27.132 7.12 64.189 11.599 91.479-2.161a306.438 306.438 0 0 0-.885-24.976s6.874-5.383 5.681-17.307c-2.181-21.814-25.663-36.013-30.17-66.981a36.864 36.864 0 0 1-1.82-.729c-7.055 8.952-21.395 9.766-21.395 9.766-22.38.808-31.483-12.977-31.592-13.145-1.132.474-2.361.973-3.8 1.544Z" fill="#fff"/></mask><g mask="url(#i)"><path fill-rule="evenodd" clip-rule="evenodd" d="M221.588 200.741c-.883 2.2-1.512 4.49-2.239 6.846-.184.587-.37 1.185-.578 1.781-.22.615-.38 1.162-.757 1.878-.696 1.276-1.478 2.329-2.219 3.319-.75.97-1.46 1.923-1.941 2.709-.24.386-.38.745-.317.818.049.116-.105.64-.015.713.045.042-.02.168.05.126.063-.031.009-.033.037-.083.006-.112-.013-.152.084-.097.19.119.928.499 1.812.735.866.277 1.893.517 2.977.748l3.425.754c.597.136 1.225.287 1.869.468l1.556.438c.93.241 1.67.348 2.205.305.401.01.888-.229 1.047-.347.094-.062.108-.039.172-.038.051-.02.118-.222.073-.628-.042-.4-.18-.952-.334-1.636-.145-.678-.269-1.569-.246-2.357.004-1.625.48-3.111 1.103-4.38 1.27-2.546 3.125-4.378 4.929-6.056 1.789-1.648 3.579-3.189 4.867-5.028 1.326-1.822 1.887-3.926 1.652-5.9-.2-1.98-1.138-3.67-2.226-4.705-1.048-1.022-2.518-1.7-3.907-1.942-.699-.097-1.366-.132-2.059 0-.732.143-1.591.498-2.49 1.022a18.43 18.43 0 0 0-5.062 4.398c-1.464 1.831-2.59 3.944-3.468 6.139Zm-.676-.278c.923-2.193 1.673-4.451 2.529-6.765.854-2.306 1.851-4.712 3.501-6.904.834-1.091 1.906-2.171 3.36-2.972 1.488-.824 3.242-1.162 4.906-1.093 3.327.198 6.406 1.934 8.221 4.714 1.808 2.759 2.001 6.005 1.386 8.734-.59 2.789-2.163 5.157-3.818 7.011-1.659 1.892-3.443 3.509-4.946 5.276-1.486 1.715-2.581 3.747-2.929 5.686-.161.964-.123 1.865.11 2.611.112.394.253.671.476 1.118.209.446.495 1.003.773 1.746.27.734.538 1.727.451 2.888a6.387 6.387 0 0 1-1.156 3.218c-1.274 1.788-3.003 2.774-4.918 3.245-1.804.42-3.474.296-4.868.107l-3.537-.582c-2.275-.352-4.729-.666-7.471-1.633-1.349-.523-2.86-1.087-4.418-2.597-.766-.757-1.487-1.775-1.89-3.009-.223-.588-.243-1.212-.304-1.819-.062-.627.079-1.095.146-1.642.068-.563.252-.964.42-1.38l.26-.621c.082-.198.174-.406.335-.674a7.922 7.922 0 0 1 1.777-2.044c1.138-.95 2.242-1.537 3.261-2.145 1.029-.587 2.023-1.127 2.794-1.721.332-.236.765-.721 1.142-1.131.369-.441.744-.889 1.078-1.368 1.37-1.906 2.412-4.063 3.329-6.254Z" fill="#B86767"/></g><mask id="j" style="mask-type:alpha" maskUnits="userSpaceOnUse" x="211" y="141" width="102" height="123"><path fill-rule="evenodd" clip-rule="evenodd" d="M223.625 142.973c13.583 22.026 9.375 81.344-11.828 89.829.922 3.882 1.674 7.265 2.091 9.664 1.059 6.121 1.495 9.725 2.239 14.496 27.132 7.12 64.189 11.599 91.479-2.161a306.438 306.438 0 0 0-.885-24.976s6.874-5.383 5.681-17.307c-2.181-21.814-25.663-36.013-30.17-66.981a36.864 36.864 0 0 1-1.82-.729c-7.055 8.952-21.395 9.766-21.395 9.766-22.38.808-31.483-12.977-31.592-13.145-1.132.474-2.361.973-3.8 1.544Z" fill="#fff"/></mask><g mask="url(#j)"><path fill-rule="evenodd" clip-rule="evenodd" d="M231.886 153.95c2.124-1.048 4.2-2.224 6.454-3.194 2.237-.983 4.608-1.999 7.21-2.447 2.574-.468 5.382-.579 8.07.192.681.142 1.335.391 1.987.65.65.264 1.316.498 1.922.86.618.336 1.246.666 1.844 1.04l1.698 1.26c2.142 1.803 4.018 3.953 5.27 6.354.733 1.157 1.177 2.415 1.709 3.631.521 1.249.912 2.697 1.142 4.081.456 2.797.362 5.752-.677 8.484-.982 2.737-2.968 5.127-5.3 6.585a14.81 14.81 0 0 1-7.573 2.353c-2.62.088-5.151-.556-7.461-1.704a16.086 16.086 0 0 1-3.267-2.186c-1.017-.852-1.848-1.802-2.691-2.598-.829-.81-1.624-1.496-2.383-1.903-.732-.403-1.451-.602-2.374-.82l-3.136-.638c-.583-.112-1.208-.295-1.895-.499-.665-.206-1.305-.484-1.943-.769-2.487-1.193-4.915-3.17-6.15-6.147-.61-1.468-.718-3.163-.396-4.62.311-1.489 1.102-2.731 1.966-3.708 1.786-1.938 3.884-3.113 5.974-4.257Zm.337.647c-2.035 1.039-3.91 2.651-4.77 4.629-.42.979-.53 1.997-.313 2.865a3.981 3.981 0 0 0 1.241 2.121c1.183 1.101 2.881 1.856 4.661 2.517.444.169.904.3 1.36.448l1.503.423c1.102.308 2.344.663 3.643 1.262 1.282.576 2.685 1.482 3.704 2.653 1.011 1.144 1.662 2.328 2.219 3.409.547 1.095 1.06 2.08 1.642 2.951.578.857 1.348 1.585 2.232 2.171 1.777 1.15 4.019 1.641 6.084 1.304 2.072-.311 3.945-1.488 5.232-2.981 1.316-1.515 1.943-3.286 2.205-5.075.218-1.802.102-3.679-.425-5.465a12.25 12.25 0 0 0-1.085-2.584c-.514-.884-.953-1.816-1.552-2.602-1.071-1.689-2.381-3.085-3.757-4.363-1.367-1.31-3.002-2.236-4.73-3.086-1.729-.861-3.662-1.523-5.764-2.031-2.102-.533-4.401-.709-6.695-.508-2.31.18-4.539.948-6.635 1.942Z" fill="#B86767"/></g><mask id="k" style="mask-type:alpha" maskUnits="userSpaceOnUse" x="211" y="141" width="102" height="123"><path fill-rule="evenodd" clip-rule="evenodd" d="M223.625 142.973c13.583 22.026 9.375 81.344-11.828 89.829.922 3.882 1.674 7.265 2.091 9.664 1.059 6.121 1.495 9.725 2.239 14.496 27.132 7.12 64.189 11.599 91.479-2.161a306.438 306.438 0 0 0-.885-24.976s6.874-5.383 5.681-17.307c-2.181-21.814-25.663-36.013-30.17-66.981a36.864 36.864 0 0 1-1.82-.729c-7.055 8.952-21.395 9.766-21.395 9.766-22.38.808-31.483-12.977-31.592-13.145-1.132.474-2.361.973-3.8 1.544Z" fill="#fff"/></mask><g mask="url(#k)"><path fill-rule="evenodd" clip-rule="evenodd" d="M291.455 182.277c.721-1.013 1.05-2.324 1.205-3.663.155-1.352.108-2.782.231-4.254.07-.728.155-1.494.369-2.274.237-.795.488-1.586 1.255-2.575l.287-.354a9.565 9.565 0 0 1 .908-.793c.154-.118.216-.146.329-.222l.617-.388c.211-.127.494-.253.744-.373l.395-.176.501-.16a4.586 4.586 0 0 1 1.15-.22c.225-.019.452-.03.676-.034.257.01.558.05.834.098.533.069 1.175.322 1.746.646 1.141.671 1.884 1.797 2.182 2.592.085.209.163.424.232.634l.125.536c.09.38.119.695.13.996a9.55 9.55 0 0 1-.345 3.064c-.129.428-.247.866-.415 1.258l-.237.582-.207.451-.848 1.802c-.567 1.201-1.113 2.409-1.792 3.569-.666 1.165-1.443 2.294-2.193 3.43-.744 1.138-1.474 2.282-2.034 3.485-.588 1.206-.994 2.405-1.424 3.78-.471 1.319-.854 2.959-2.492 4.374-.783.669-1.958 1.155-3.123 1.211a6.154 6.154 0 0 1-3.283-.716 6.554 6.554 0 0 1-2.447-2.182c-.335-.454-.567-.993-.777-1.544a6.517 6.517 0 0 1-.342-1.557c-.215-2.101.56-3.925 1.587-5.248 1.054-1.361 2.363-2.236 3.493-3.065 1.138-.832 2.167-1.668 2.963-2.71Zm.573.455c-.845 1.026-1.587 2.154-2.082 3.397-.496 1.244-.696 2.571-.626 3.668a7.983 7.983 0 0 0 .493 2.5c.045.133.106.26.137.361l.099.228c.071.182.183.401.303.624.123.225.252.44.395.639.151.204.32.382.689.409.71.107 1.718-.694 2.273-1.769.58-1.066.96-2.393 1.27-3.668.309-1.289.45-2.639.58-3.993.12-1.357.216-2.721.42-4.049.193-1.332.52-2.616.823-3.908.286-1.265.694-2.742.745-3.435.035-.405.033-.773.005-.868-.008-.027-.008-.041-.002.017a.183.183 0 0 0 .025.053.815.815 0 0 0 .053.17c.081.172.386.762.982 1.07.273.184.629.26.824.308.113.023.253.023.347.019a.67.67 0 0 0 .179-.003c.05-.005.143-.038.151-.039a.032.032 0 0 0 .03-.014.095.095 0 0 0 .019-.039c-.01-.004-.042.006-.062.006-.053.012-.088-.009-.166.017l-.253.086c-.029.007-.122.044-.099.025a.426.426 0 0 0 .077-.082.318.318 0 0 0 .049-.104l-.047.013c-.146-.032-.568.33-.974.684-.411.382-.904.806-1.363 1.287-.955.939-1.974 1.964-2.85 3.043-.89 1.078-1.598 2.224-2.444 3.347Z" fill="#B86767"/></g><mask id="l" style="mask-type:alpha" maskUnits="userSpaceOnUse" x="211" y="141" width="102" height="123"><path fill-rule="evenodd" clip-rule="evenodd" d="M223.625 142.973c13.583 22.026 9.375 81.344-11.828 89.829.922 3.882 1.674 7.265 2.091 9.664 1.059 6.121 1.495 9.725 2.239 14.496 27.132 7.12 64.189 11.599 91.479-2.161a306.438 306.438 0 0 0-.885-24.976s6.874-5.383 5.681-17.307c-2.181-21.814-25.663-36.013-30.17-66.981a36.864 36.864 0 0 1-1.82-.729c-7.055 8.952-21.395 9.766-21.395 9.766-22.38.808-31.483-12.977-31.592-13.145-1.132.474-2.361.973-3.8 1.544Z" fill="#fff"/></mask><g mask="url(#l)"><path fill-rule="evenodd" clip-rule="evenodd" d="M303.76 158.248c-1.522 1.754-3.73 2.843-5.933 3.562-2.193.759-4.428 1.438-6.04 2.405l-.569.359-.484.392c-.172.115-.271.288-.412.406-.055.058-.158.135-.17.176a.17.17 0 0 0 .074.044c-.031.173-.217.479-.395.898-.197.373-.396.836-.616 1.294-.44.922-.925 1.902-1.484 2.944-.281.526-.564 1.059-.962 1.645-.398.578-.762 1.191-1.769 2.082-.146.119-.296.235-.449.346-.083.058-.141.103-.246.168-.14.079-.285.153-.435.223-.607.275-1.214.469-1.958.474-.695.043-1.458-.12-2.179-.45-.386-.167-.584-.328-.852-.521a5.406 5.406 0 0 1-.677-.602c-.273-.313-.587-.727-.749-1.019a10.39 10.39 0 0 1-.417-.83 8.478 8.478 0 0 1-.422-1.297c-.376-1.552-.451-2.731-.514-3.945-.111-2.377-.021-4.584.006-6.771.037-2.173.021-4.304.001-6.319-.029-.992-.081-1.982-.203-2.783-.062-.396-.15-.742-.204-.966-.192-.397-.498-.881-.792-1.372-.611-.982-1.316-2.17-1.654-3.609-.321-1.441-.072-2.945.466-4.136 1.118-2.409 2.95-4.017 4.91-5.389.999-.672 2.074-1.299 3.379-1.706 1.274-.427 2.944-.491 4.472.159 1.526.639 2.615 1.766 3.44 2.655.837.919 1.496 1.705 2.051 2.167.535.412.89.564 1.609.839.699.245 1.617.49 2.694.793 1.055.309 2.365.739 3.549 1.423a12.49 12.49 0 0 1 3.149 2.521c1.812 1.993 2.9 4.629 2.944 7.12.066 2.462-.625 4.84-2.159 6.62Zm-.548-.483c1.423-1.557 1.644-3.956.889-5.799-.735-1.882-2.354-3.088-4.006-3.795a14.12 14.12 0 0 0-2.542-.808c-.841-.196-1.681-.3-2.77-.498-1.068-.205-2.307-.457-3.659-1.031-1.329-.537-2.86-1.642-3.757-2.915-.881-1.218-1.336-2.349-1.73-3.255-.393-.931-.718-1.585-1.129-2.039-.392-.475-1.063-.728-1.938-.73-.867.011-1.83.315-2.718.779-1.766.913-3.321 2.506-3.827 4.233-.261.857-.164 1.68.187 2.345.329.681.998 1.285 1.782 1.993.406.362.826.709 1.298 1.19.6.667.983 1.328 1.307 1.964.644 1.27.999 2.462 1.31 3.645.617 2.35.842 4.629 1.097 6.859.243 2.218.459 4.421.719 6.438.14.981.285 2.007.469 2.59.045.168.079.219.087.275a.239.239 0 0 0-.049-.09c-.031-.05-.155-.259-.27-.346a2.437 2.437 0 0 0-.363-.337c-.156-.116-.262-.158-.508-.298-.463-.232-.968-.294-1.381-.299-.459.037-.817.101-1.169.271a1.886 1.886 0 0 0-.244.144l-.079.044a.722.722 0 0 0-.123.093c-.171.178.144-.096.368-.424.24-.313.534-.723.824-1.14.583-.843 1.183-1.783 1.895-2.742.357-.48.741-.955 1.19-1.474.448-.489.964-1.041 1.731-1.627.236-.168.48-.325.723-.47.215-.114.362-.157.545-.236.349-.134.702-.287 1.053-.359.351-.085.7-.173 1.043-.242l1.01-.133c2.652-.208 4.864.319 7.014.329 2.132.075 4.277-.52 5.721-2.105Z" fill="#B86767"/></g><mask id="m" style="mask-type:alpha" maskUnits="userSpaceOnUse" x="211" y="141" width="102" height="123"><path fill-rule="evenodd" clip-rule="evenodd" d="M223.625 142.973c13.583 22.026 9.375 81.344-11.828 89.829.922 3.882 1.674 7.265 2.091 9.664 1.059 6.121 1.495 9.725 2.239 14.496 27.132 7.12 64.189 11.599 91.479-2.161a306.438 306.438 0 0 0-.885-24.976s6.874-5.383 5.681-17.307c-2.181-21.814-25.663-36.013-30.17-66.981a36.864 36.864 0 0 1-1.82-.729c-7.055 8.952-21.395 9.766-21.395 9.766-22.38.808-31.483-12.977-31.592-13.145-1.132.474-2.361.973-3.8 1.544Z" fill="#fff"/></mask><g mask="url(#m)"><path fill-rule="evenodd" clip-rule="evenodd" d="M307.099 215.333c-1.345-.046-2.687.045-4.207-.071-.754-.08-1.577-.19-2.421-.523-.829-.339-1.723-.873-2.402-1.685-1.452-1.621-1.876-3.868-1.7-5.684.184-1.852.799-3.46 1.557-4.902 1.561-2.877 3.922-5.005 6.558-6.634 1.32-.814 2.724-1.531 4.269-1.94 1.535-.42 3.201-.525 4.808-.331 1.647.203 3.028.661 4.476 1.259 1.414.603 2.824 1.664 3.577 3.19.79 1.494 1.038 3.151 1.099 4.767.033 1.619-.169 3.245-.712 4.708-1.061 2.934-3.322 5.273-6.253 6.384-1.455.567-2.992.88-4.442 1.1-1.453.22-2.824.361-4.207.362Zm.017-.73c1.259.046 2.496-.49 3.448-1.325.965-.843 1.662-1.965 2.265-3.04.609-1.078 1.148-2.115 1.784-3.035a29.625 29.625 0 0 1 2.036-2.628c.713-.849 1.534-1.679 2.123-2.636.601-.935.974-2.052.679-2.989-.238-.959-1.139-1.606-2.212-1.802-1.054-.21-2.349-.014-3.321.399-1.018.427-1.922 1.064-2.786 1.724-.861.666-1.719 1.326-2.507 2.088-1.581 1.524-2.84 3.368-3.952 5.027a19.255 19.255 0 0 0-1.369 2.398c-.331.733-.787 1.3-.939 2.012-.203.716.189 1.871 1.191 2.612.974.756 2.279 1.125 3.56 1.195Z" fill="#B86767"/></g><mask id="n" style="mask-type:alpha" maskUnits="userSpaceOnUse" x="211" y="141" width="102" height="123"><path fill-rule="evenodd" clip-rule="evenodd" d="M223.625 142.973c13.583 22.026 9.375 81.344-11.828 89.829.922 3.882 1.674 7.265 2.091 9.664 1.059 6.121 1.495 9.725 2.239 14.496 27.132 7.12 64.189 11.599 91.479-2.161a306.438 306.438 0 0 0-.885-24.976s6.874-5.383 5.681-17.307c-2.181-21.814-25.663-36.013-30.17-66.981a36.864 36.864 0 0 1-1.82-.729c-7.055 8.952-21.395 9.766-21.395 9.766-22.38.808-31.483-12.977-31.592-13.145-1.132.474-2.361.973-3.8 1.544Z" fill="#fff"/></mask><g mask="url(#n)"><path fill-rule="evenodd" clip-rule="evenodd" d="M213.962 150.809c-1.69-1.162-2.811-2.991-3.918-4.607-.558-.808-1.162-1.554-1.805-2.117-.616-.543-1.259-.837-2.019-1.14-.742-.309-1.584-.543-2.497-.903-.911-.358-1.952-.799-3.116-1.704-.291-.252-.582-.496-.876-.83l-.429-.503-.327-.508a23.679 23.679 0 0 1-.613-1.052c-.179-.364-.297-.772-.432-1.166-.303-.799-.352-1.606-.408-2.425-.002-.782.078-1.565.216-2.285.666-2.85 2.089-4.908 3.623-6.615 1.552-1.705 3.286-3.068 5.144-4.26.945-.583 1.902-1.14 2.978-1.607 1.057-.5 2.244-.823 3.389-1.019 2.31-.406 4.645-.189 6.795.433a15.722 15.722 0 0 1 5.786 3.097c1.668 1.406 2.904 3.202 3.795 5.105 1.742 3.823 2.818 8.032 2.905 12.19.001 2.113-.346 4.324-1.254 6.445-.912 2.129-2.433 4.053-4.515 5.398-2.068 1.301-4.373 1.788-6.524 1.785-2.153-.001-4.223-.533-5.898-1.712Zm.427-.593c1.482 1.104 3.526 1.18 5.147.484 1.647-.677 2.923-2.018 3.658-3.362 1.407-2.727 2.022-5.652 2.902-9.101.796-3.461 2.075-7.233.967-10.651-.525-1.679-1.629-3.131-3.077-4.016-1.447-.906-3.206-1.197-4.863-1.107-.835.057-1.652.225-2.435.422-.779.243-1.531.5-2.233.827-.698.361-1.343.681-1.974 1.122-.638.415-1.297.92-1.925 1.452a22.73 22.73 0 0 0-3.326 3.581c-.918 1.246-1.625 2.527-1.886 3.44-.059.218-.095.405-.129.579.033.138-.064.313-.011.425.012.062-.021.139 0 .211a.837.837 0 0 1 .08.217l.033.196c0 .05.064.135.113.223.554.831 2.385 2.22 3.857 4.024.746.901 1.421 2.052 1.804 3.162.367 1.081.539 2.108.756 3.065.386 1.896 1.026 3.703 2.542 4.807Z" fill="#B86767"/></g><mask id="o" style="mask-type:alpha" maskUnits="userSpaceOnUse" x="211" y="141" width="102" height="123"><path fill-rule="evenodd" clip-rule="evenodd" d="M223.625 142.973c13.583 22.026 9.375 81.344-11.828 89.829.922 3.882 1.674 7.265 2.091 9.664 1.059 6.121 1.495 9.725 2.239 14.496 27.132 7.12 64.189 11.599 91.479-2.161a306.438 306.438 0 0 0-.885-24.976s6.874-5.383 5.681-17.307c-2.181-21.814-25.663-36.013-30.17-66.981a36.864 36.864 0 0 1-1.82-.729c-7.055 8.952-21.395 9.766-21.395 9.766-22.38.808-31.483-12.977-31.592-13.145-1.132.474-2.361.973-3.8 1.544Z" fill="#fff"/></mask><g mask="url(#o)"><path fill-rule="evenodd" clip-rule="evenodd" d="M272.897 208.095c-3.001-1.817-5.492-3.755-7.985-5.641-1.233-.93-2.496-1.959-3.536-2.668a15.708 15.708 0 0 0-2.582-1.388c-.66-.257-1.725-.333-2.357.022-.336.153-.609.532-.684 1.107-.066.578.077 1.303.336 2.039.248.743.607 1.509.899 2.367.305.851.507 1.704.709 2.545.374 1.679.727 3.332 1.232 4.781.501 1.456 1.196 2.601 1.919 3.23.727.645 1.479 1.006 2.508 1.25 2.083.451 4.875.003 7.582-.48 1.3-.236 2.375-.528 3.196-.93.222-.107.391-.215.546-.297.166-.095.322-.228.479-.366a4.11 4.11 0 0 0 .782-.98c.369-.707.611-1.304.024-2.364-.615-1.012-2.004-1.975-3.394-2.982a.39.39 0 0 1 .184-.706c1.724-.183 3.546-.238 5.521.752a6.066 6.066 0 0 1 2.569 2.504c.625 1.16.871 2.498.79 3.742-.057 1.261-.428 2.434-.97 3.528a9.932 9.932 0 0 1-1.01 1.552 9.66 9.66 0 0 1-1.278 1.31c-1.791 1.551-3.851 2.355-5.7 2.842-1.833.456-3.653.694-5.621.637-1.947-.061-3.985-.397-6.023-1.259-2.006-.848-4.091-2.412-5.091-4.543a8.85 8.85 0 0 1-.94-3.116 13.812 13.812 0 0 1-.043-2.848c.117-1.772.394-3.371.304-4.906-.05-1.57-.494-2.832-1.333-4.32-.391-.747-.844-1.549-1.141-2.582-.287-1.024-.337-2.349.192-3.582.504-1.228 1.438-2.2 2.473-2.874a7.194 7.194 0 0 1 3.538-1.163c2.672-.113 4.762 1.045 6.277 2.274 1.55 1.253 2.604 2.51 3.677 3.86 2.083 2.716 3.788 5.757 4.546 9.229a.397.397 0 0 1-.595.424Z" fill="#B86767"/></g><mask id="p" style="mask-type:alpha" maskUnits="userSpaceOnUse" x="211" y="141" width="102" height="123"><path fill-rule="evenodd" clip-rule="evenodd" d="M211.797 232.802c.922 3.882 1.674 7.265 2.091 9.664 1.059 6.121 1.495 9.725 2.239 14.496 27.132 7.12 64.189 11.599 91.479-2.161a306.438 306.438 0 0 0-.885-24.976s6.874-5.383 5.681-17.307c-2.181-21.814-25.663-37.231-30.17-68.199a35.905 35.905 0 0 1-1.82-.729c-7.055 8.953-21.395 10.984-21.395 10.984-22.38.808-31.483-12.977-31.592-13.145-1.132.474-2.361.973-3.8 1.544 13.583 22.026 9.375 81.344-11.828 89.829Z" fill="#fff"/></mask><g mask="url(#p)"><path fill-rule="evenodd" clip-rule="evenodd" d="M233.824 248.997c-3.557-9.488-10.558-17.831-9.795-29.509l-.033-.114c-3.105 6.548-7.174 11.417-12.199 13.429.922 3.882 1.673 7.265 2.09 9.663 1.048 6.046 1.496 9.855 2.249 14.56 1.172.279 9.848 2.361 16.532 3.645 1.33-3.891 2.453-7.782 1.156-11.674Z" fill="#000" fill-opacity=".25" style="mix-blend-mode:overlay"/></g><path fill-rule="evenodd" clip-rule="evenodd" d="m172.11 275.596.359.435c6.178 7.509 13.275 15.086 37.768 35.185 12.516 10.272 21.894 16.851 28.895 21.316 11.036 7.039 13.199-6.833 13.199-6.833s-27.543-33.416-39.671-44.056c-12.13-10.638-19.211-16.792-23.377-21.385-.451-.498-18.98 13.151-17.173 15.338Z" fill="#AD603F"/><path fill-rule="evenodd" clip-rule="evenodd" d="M212.975 147.118c-7.35 3.289-11.98 6.468-16.564 11.169-11.89 12.194-17.682 29.17-19.598 45.491-1.691 14.397-2.712 28.892-3.664 43.353-.331 5.04-.635 10.083-.891 15.127-.112 2.204-.979 12.366-.207 13.175 8.181 11.773 17.33 8.607 21.984 8.835 16.306-47.96 17.504-78.719 17.819-83.963 7.39-11.585 6.212-44.17 1.121-53.187Z" fill="#AD603F"/><path fill-rule="evenodd" clip-rule="evenodd" d="M184.16 233.342c1.804-29.191 18.718-38.374 22.245-63.554.485-8.409-.22-16.817-3.005-17.432-2.539 1.745-4.773 3.659-6.988 5.931-11.891 12.193-17.683 29.17-19.599 45.491-1.691 14.397-2.712 28.892-3.664 43.353-.331 5.039-.635 10.083-.891 15.128-.112 2.204-.335 4.739-.421 6.944.628.666 5.061 1.315 8.202-4.816 3.142-6.131 3.167-20.646 4.121-31.045Z" fill="#000" fill-opacity=".15" style="mix-blend-mode:overlay"/><path fill-rule="evenodd" clip-rule="evenodd" d="M261.679 325.668c5.606.705 13.562 2.617 14.53 4.575.504 1.681-3.278 2.026-7.598 2.001-2.127-.012-5.948-.715-6.121.371-.18 1.147 1.917 3.527 4.548 5.22 7.531 4.846 13.463 4.703 21.934 7.816.77.283 1.65.728 1.746 1.543.157 1.346-1.77 1.761-3.121 1.635-4.368-.412-9.042-1.3-13.409-1.712 4.753 1.831 9.814 4.14 14.566 5.971.522.2 1.373.589 1.547 1.119.378 1.157-1.64 1.608-2.854 1.533-4.601-.286-10.276-1.196-15.831-2.623 4.511 2.314 14.795 5.533 14.026 7.856-.087 2.062-19.32-3.603-26.868-9.481-6.763-5.269-10.064-9.785-11.838-12.578-1.709-2.693-6.691-5.538-10.165-8.132-2.556-1.907 4.947-11.606 7.411-9.578 3.875 3.187 5.931 3.029 8.251 3.418 3.061.514 6.171.66 9.246 1.046Z" fill="#AD603F"/><path fill-rule="evenodd" clip-rule="evenodd" d="M265.837 343.385c-5.519-6.335-20.942-8.507-22.454-8.185 1.54 1.249 2.83 2.575 3.553 3.715 1.774 2.793 5.073 7.309 11.838 12.577 2.245 1.748 5.527 3.477 9.03 4.991-5.481-4.754 3.48-6.385-1.967-13.098Z" fill="#000" fill-opacity=".15" style="mix-blend-mode:overlay"/><path fill-rule="evenodd" clip-rule="evenodd" d="M335.012 236.027c-25.376 31.649-34.714 70.477-39.986 82.179-1.608 3.567 8.945 8.506 11.235 5.346 2.272-3.136 5.539-10.842 11.622-18.831 7.005-9.196 13.292-18.96 18.508-27.843 1.607-13.409.128-27.11-1.379-40.851Z" fill="#AD603F"/><path fill-rule="evenodd" clip-rule="evenodd" d="M302.898 340.261c.032-5.825 1.811-13.085 4.883-19.164 1.91-3.784-10.795-7.638-11.789-5.101-2.275 5.815-4.062 7.225-6.752 9.636a34.001 34.001 0 0 0-2.121 2.071c-.028.025-.059.04-.088.067-.293.268-.709.767-1.153 1.338a20.26 20.26 0 0 0-1.058 1.416c-.52.721-.991 1.396-1.264 1.78a25.545 25.545 0 0 1-4.696 5.039c-2.799 2.283-6.059 3.948-9.419 5.275-1.107.436-2.272.87-3.067 1.754-.111.124-.218.266-.227.432-.007.162.081.313.184.438.613.745 1.697.843 2.662.87 1.538.041 3.525-.313 5.509-.793-5.195 4.04-10.795 7.203-9.499 9.014 1.7 2.378 12.614-3.965 14.613-5.649-1.252 2.803-4.632 5.921-7.472 8.63-1.169 1.117-3.448 2.89-2.131 3.99 1.348 1.127 3.624.164 5.491-1.382 3.343-2.765 5.831-4.378 9.012-8.61-.673 3.674-4.01 7.355-6.074 10.468-.762 1.151-1.671 2.496-.695 3.114 1.899 1.204 3.768-.607 5.645-2.488 4.699-4.713 5.996-6.422 10.333-13 .56-.851.811-1.242 1.349-1.934.594-.764.834.073.665 1.876-.341 3.664-4.264 9.862-2.221 10.801 2.15.919 9.339-12.53 9.38-19.888Z" fill="#AD603F"/><path fill-rule="evenodd" clip-rule="evenodd" d="M289.82 347.17c6.77-2.34 3.239-4.633 6.135-9.342 1.284-2.087-1.071-6.205-3.658-7.98-1.816-1.246-5.678-1.665-6.155-1.074a29.794 29.794 0 0 0-1.321 1.751c-.521.72-.993 1.395-1.265 1.78a25.504 25.504 0 0 1-4.696 5.037c-1.963 4.087 5.35 11.768 10.96 9.828Z" fill="#000" fill-opacity=".15" style="mix-blend-mode:overlay"/><path fill-rule="evenodd" clip-rule="evenodd" d="M301.005 426.599s-65.819-16.75-70.209-17.606c-12.071-2.352-76.746-15.054-99.685-27.034.266-11.985 9.923-21.191 15.147-21.839 3.863-2.179 27.764-5.525 38.92-3.861 26.569 3.961 40.307 12.539 53.046 19.642 11.424 6.371 27.171 16.098 37.409 20.745 10.804 4.326 21.485 2.979 25.23 3.06 0 0 15.027 14.945.142 26.893Z" fill="#AD603F"/><path fill-rule="evenodd" clip-rule="evenodd" d="M141.421 386.44c27.898 10.497 78.806 20.495 89.374 22.554 1.957.381 16.092 3.913 31.171 7.714-5.089-4.192-9.314-8.989-24.038-10.859-34.522-4.385-75.965-31.556-96.507-19.409Z" fill="#000" fill-opacity=".15" style="mix-blend-mode:overlay"/><path fill-rule="evenodd" clip-rule="evenodd" d="M330.265 459.446c.052.375 3.553 6.114 10.448 6.354l7.851-7.083s2.548-11.267 2.553-11.532c.006-.265-9.306-27.451-9.306-27.451l-21.442-2.415 14.322 28.621-4.426 13.506Z" fill="#CEE5D0"/><path fill-rule="evenodd" clip-rule="evenodd" d="M302.231 395.099s.124-.28.694-.657c.941-.619 2.909-1.254 5.348-1.281 0 0 8.647 1.856 11.81 12.931 2.671 9.357 4.191 10.363 7.54 12.832 0 0-.849 4.266 5.459 9.826 6.307 5.559 8.074 22.741 5.173 28.476-2.899 5.736-6.376 3.391-7.991 2.221-1.613-1.17-4.181-4.756-6.505-7.959-2.326-3.203-5.167-5.786-6.79-6.578l-14.738-49.811Z" fill="#fff"/><path fill-rule="evenodd" clip-rule="evenodd" d="M300.297 429.165s-7.838.963-11.6.124c-3.764-.839-5.22-3.392-4.012-6.77 1.209-3.376-.771-5.059 1.418-7.153 2.19-2.095 2.734-3.975 7.995-2.473 5.261 1.503 11.075.874 11.976.011 0 0 1.225-4.133-2.211-8.369-3.437-4.235-8.2-5.474-6.09-9.714 0 0 3.002 1.075 5.177-.39 0 0-.903.862.815 3.043 1.717 2.181 9.359 4.365 9.111 9.906-.247 5.541-3.966 5.035-3.722 8.743.301 4.555 6.338 4.173 10.176 7.409 3.836 3.235 9.967 12.415 5.167 21.142 0 0-2.303 5.71-10.004-1.836-6.431-6.301-6.408-6.695-8.779-7.756-2.372-1.06-5.086-3.767-5.417-5.917Z" fill="#E85D5D"/><path fill-rule="evenodd" clip-rule="evenodd" d="M300.143 428.329s-8.774.878-9.088-.658c-.241-1.411.766-1.956 1.198-3.471.446-1.569-.741-2.967 1.051-4.225 1.376-.967 6.498 2.309 9.698 1.782-2.174 1.889-3.41 5.502-2.859 6.572Z" fill="#CEE5D0"/><path fill-rule="evenodd" clip-rule="evenodd" d="M308.273 393.161s2.848-1.876 8.135-.964c0 0 9.426 3.415 12.046 15.524 2.027 9.371 8.774 11.294 11.393 16.924 0 0-7.505-2.521-12.942-6.187-5.436-3.666-4.734-5.751-7.584-13.565-3.889-10.661-11.048-11.732-11.048-11.732Z" fill="#E44E46"/><path fill-rule="evenodd" clip-rule="evenodd" d="M316.408 392.197s5.856-.756 9.826-.316c3.971.442 7.15 7.613 8.44 13.743 1.665 7.918 8.139 8.825 12.65 16.885 4.513 8.062 9.602 26.043 3.481 38.911 0 0-2.772 5.424-10.092 4.38 0 0-1.478-1.184.37-4.769 1.847-3.587 4.914-2.193 6.15-6.147 1.237-3.953 3.275-16.598-7.387-30.239 0 0-9.635-5.205-11.34-13.245-2.383-11.217-7.75-18.034-12.098-19.203Z" fill="#10145F"/><path fill-rule="evenodd" clip-rule="evenodd" d="M297.772 394.821c.013-.02-5.852-1.116-7.691-1.193-1.775-.074-3.268 1.67-3.524 5.759 2.698.536 8.931 1.786 13.145.797 0 0-3.449-2.554-1.93-5.363Z" fill="#E85D5D"/><path fill-rule="evenodd" clip-rule="evenodd" d="M310.853 424.429a.697.697 0 0 0-.9-.646c-4.029 1.228-7.334 6.451-6.7 10.543a.699.699 0 0 0 1.381-.216c-.526-3.368 2.41-7.982 5.725-8.99a.698.698 0 0 0 .494-.691ZM313.507 427.509a.687.687 0 0 0-.059-.253.695.695 0 0 0-.918-.363c-1.472.639-3.705 2.296-5.126 4.228-.957 1.306-1.551 3.898-.886 5.282a.699.699 0 0 0 1.259-.605c-.391-.813.004-2.828.754-3.85 1.26-1.714 3.287-3.224 4.556-3.774a.7.7 0 0 0 .42-.665ZM316.214 430.834a.698.698 0 0 0-.958-.624c-1.932.781-3.706 2.079-4.75 3.471-1.058 1.415-1.607 3.31-1.418 4.924a.697.697 0 0 0 .772.615c.384-.044.684-.398.615-.772-.138-1.262.308-2.806 1.149-3.929.884-1.18 2.475-2.335 4.155-3.015a.697.697 0 0 0 .435-.67ZM319.31 433.816a.726.726 0 0 0-.077-.301.7.7 0 0 0-.944-.292c-.95.499-3.302 1.849-4.63 3.583-1.362 1.779-1.397 3.396-1.266 4.741a.699.699 0 1 0 1.391-.143c-.135-1.301-.02-2.439.985-3.749 1.158-1.515 3.302-2.74 4.169-3.198a.691.691 0 0 0 .372-.641ZM321.823 437.254a.696.696 0 0 0-.843-.658c-1.573.337-3.093 1.563-4.176 3.364-1.015 1.691-1.413 3.553-1.043 4.857a.7.7 0 0 0 .864.479.694.694 0 0 0 .48-.863c-.267-.929.085-2.403.896-3.755.869-1.448 2.093-2.464 3.27-2.717a.697.697 0 0 0 .552-.707Z" fill="#fff"/><path fill-rule="evenodd" clip-rule="evenodd" d="M276.876 386.382c-17.395-5.421-26.658-10.392-38.63-15.362-13.473-5.591-26.745-12.077-53.315-16.039-11.157-1.663-34.809 2.96-38.672 5.14-5.224.648-23.302 12.93-14.682 23.405 22.939 11.981 66.426 21.253 78.463 23.768 20.336 4.249 34.488 7.585 55.432 16.692 6.145-5.56 15.245-19.305 11.404-37.604Z" fill="#323C84"/><path fill-rule="evenodd" clip-rule="evenodd" d="M237.477 408.498c-31.657-13.393-64.531-20.698-97.405-23.133-.419 0-.983.007-1.589.104 23.949 10.53 60.71 19.558 71.556 21.825 12.677 2.65 25.352 6.005 38.176 10.364-2.703-4.303-6.513-7.752-10.738-9.16Z" fill="#000" fill-opacity=".25" style="mix-blend-mode:overlay"/><path fill-rule="evenodd" clip-rule="evenodd" d="M210.75 23.73c0 2.623-2.246 3.885-2.246 6.198 0 2.313 1.123 2.858 1.123 6.372s.192 8.611 4.827 10.454c4.634 1.844 6.828.83 9.322 4.976 2.494 4.146 9.872 0 12.116 0 2.244 0 7.4 2.213 9.418 0 2.018-2.213 2.404-4.976 7.315-4.976 4.911 0 8.512-3.716 8.512-8.102 0-4.387-1.346-9.668 2.247-12.294 3.593-2.627-2.322-10-4.837-10-2.514 0-4.145-2.294-4.145-5.496 0-3.201-3.164-7.971-7.644-7.971s-9.633.54-10.25-1.481c-.616-2.021-10.3-2.15-10.3 1.48 0 3.631-1.701 3.33-4.733 3.33-3.032 0-4.186 2.31-4.186 4.642 0 2.333-6.539 2.098-6.539 7.483v5.386Z" fill="#B5D3FF"/><path fill-rule="evenodd" clip-rule="evenodd" d="M211.272 21.673c1.022 5.009 2.886 7.513 5.591 7.513 4.058 0 2.821 6.31 7.029 4.46 4.209-1.851 7.339 1.93 8.63-1.264 1.292-3.196 7.432 2.527 8.444 1.263 1.013-1.264 4.531 1.269 4.531 4.074 0 2.52-1.811 11.172-3.836 14.755-2.126-.129-4.55-.945-5.899-.945-2.196 0-9.413 4.052-11.853 0-2.439-4.053-4.585-3.061-9.119-4.863-4.535-1.801-4.722-6.783-4.722-10.216 0-3.434-1.098-3.967-1.098-6.228 0-2.26 2.196-3.493 2.196-6.056l-.001-2.357.107-.136Z" fill="#000" fill-opacity=".25" style="mix-blend-mode:overlay"/><path fill-rule="evenodd" clip-rule="evenodd" d="M262.879 36.366c18.229-2.357 30.201 19.438 28.96 38.713-.092 1.436.532 4.254.753 5.565 1.949 11.527-8.339 41.114-19.998 42.039-.457.036-.917.057-1.381.064-5.091 16.317 7.949 21.6 7.949 21.6-7.053 8.953-21.394 9.767-21.394 9.767-22.518.813-31.599-13.153-31.599-13.153 19.516-6.562 11.603-36.991 8.968-45.485a38.583 38.583 0 0 1-.577-1.776 20.14 20.14 0 0 0-.134-.386c-5.564 1.376-6.5-4.224-6.5-7.013 0-2.793-2.815-5.407-.699-9.076 3.119-5.41 9.077-2.095 9.077-2.095 2.792-19.548 7.019-36.235 26.575-38.764Z" fill="#AD603F"/><path fill-rule="evenodd" clip-rule="evenodd" d="M238.769 103.471c5.146 9.005 19.872 19.455 32.439 19.276-5.488 16.369-18.805 25.096-34.083 23.031-7.708-1.041-10.956-4.817-10.956-4.817 19.524-6.565 11.597-37.014 8.965-45.494a49.07 49.07 0 0 0 3.635 8.004Z" fill="#000" fill-opacity=".25" style="mix-blend-mode:overlay"/><path fill-rule="evenodd" clip-rule="evenodd" d="M245.965 33.416c19.586-3.717 32.746 1.412 39.478 15.388H252.95c-.912 14.035-6.461 22.81-16.646 26.326-.501-.244-1.377-.515-2.628-.813-1.251-.298-2.54-.175-3.865.368-8.817-23.795-3.432-37.552 16.154-41.269Z" fill="#B5D3FF"/><path d="M247.819 47.91c0 6.987-2.106 13.17-6.005 16.817-2.789 2.609-6.994 4.367-12.608 5.292l-.629.1-.182-1.205c5.706-.862 9.899-2.561 12.587-5.076 3.522-3.295 5.507-8.927 5.615-15.374l.005-.554h1.217Z" fill="#AD603F"/><path d="M242.827 47.91c0 8.88-4.997 14.532-14.839 16.855l-.488.112-.263-1.19c9.474-2.096 14.213-7.182 14.368-15.359l.004-.418h1.218Z" fill="#AD603F"/><path d="M238.764 47.91c0 3.723-1.379 6.71-4.115 9.283-1.583 1.487-4.05 2.388-7.393 2.73l-.484.046-.102-1.213c3.34-.282 5.718-1.11 7.145-2.45 2.394-2.252 3.627-4.798 3.725-7.978l.007-.418h1.217Z" fill="#AD603F"/><path fill-rule="evenodd" clip-rule="evenodd" d="M267.994 100.617c-.627-.084-1.567-.091-2.193-.175-.187-.026.313.621.229.791-.062.122-.005.269.056.391.627 1.258 1.751 2.227 3.016 2.842 1.265.613 2.669.896 4.069 1.021.833.075 1.674.095 2.502-.017 2.812-.377 4.18-.885 5.627-3.325.668-1.127-6.379-3.852-8.79-2.93-.975.37-3.482 1.541-4.516 1.402Z" fill="#AA614D"/><path fill-rule="evenodd" clip-rule="evenodd" d="M275.812 97.922c-.704.222-1.308.907-1.211 1.638.088.672.69 1.137 1.212 1.569.952.788 1.79 1.715 2.48 2.741.179.265.371.556.675.656.505.166.992-.271 1.328-.682 1.052-1.288 1.916-2.717 2.776-4.14.083-.14.163-.33.052-.447-.062-.066-.162-.078-.252-.087a20.607 20.607 0 0 1-3.686-.684c-1.101-.31-2.199-.933-3.374-.564Z" fill="#300D07"/><path fill-rule="evenodd" clip-rule="evenodd" d="M278.933 103.335c.247.041.499.092.711.227.212.134.375.373.351.622-.027.277-.265.483-.496.636-.877.583-1.921.868-2.967.998-1.37.171-2.769.087-4.109-.244-.335-.083-.677-.187-.935-.417-.724-.646-.108-.993.506-1.21a13.95 13.95 0 0 1 6.939-.612Zm-3.53-5.568c2.4-.296 2.856-.113 5.174.57.094.028-.053.65.921.57.158-.013.869.197.831.351-.13.553-2.284 1.52-3.988 1.885-2.456.526-5.351.821-8.725.395-1.431-.181-2.544-.526-2.5-1.096.029-.369 2.193-1.14 2.81-1.548 1.419-.938 3.788-.919 5.477-1.127Z" fill="#F4F0E9"/><path fill-rule="evenodd" clip-rule="evenodd" d="M283.437 98.938c.188-.036.483-.187.524-.137.041.049-.218.267-.455.443l-.087.057c.015.02.003.07-.04.154-1.411 2.951-1.619 3.529-3.279 5.858-.501.705-1.485 1.458-2.256 1.851-2.183 1.109-6.17 1.147-8.437-.37-1.229-.822-2.337-1.964-3.032-3.264-.316-.591-1.952-4.207-.549-2.958.453.405 1.412 1.288 1.95 1.648.592.392 1.421.819 2.074 1.097 1.356.578 3.48.85 5.884.554 2.209-.273 4.738-1.592 6.255-3.332a9.64 9.64 0 0 1 1.046-1.024c-1.052.464-2.399.207-3.743.016-1.702-.244-2.419-.274-4.114.014-3.034.519-6.592 2.714-9.437.915-.16-.102-.341-.249-.326-.326.018-.075.231.014.402.009 2.6-.069 5.465-3.247 8.095-2.93.627.075 1.244.288 1.872.226.601-.061 1.141-.384 1.727-.526 1.998-.481 3.691 2.445 5.926 2.025Zm-7.892-31.382c.362.179.51.616.333.978-.011.023-1.141 2.329-1.474 4.053-.388 2.016-.516 4.51 1.472 7.712.64 1.029 1.454 1.914 2.243 2.771 1.37 1.488 2.662 2.893 2.404 4.611-.226 1.501-1.566 2.893-4.345 4.515a.734.734 0 0 1-1.001-.263.73.73 0 0 1 .263-.999c2.268-1.322 3.491-2.49 3.639-3.47.154-1.026-.86-2.128-2.035-3.405-.796-.863-1.697-1.842-2.41-2.99-2.265-3.65-2.08-6.599-1.664-8.758.37-1.92 1.548-4.322 1.597-4.423a.73.73 0 0 1 .978-.332ZM234.399 78.97a.731.731 0 0 1-1.077.987c-.19-.206-1.043-.401-1.685.058-.18.129-.415.464-.487.984-.08.593.076 1.257.446 1.925 1.262-1.291 2.568-.913 2.988-.74.647.268.946.664.844 1.115a.733.733 0 0 1-1.282.295 1.059 1.059 0 0 0-.69-.126c-.348.057-.697.303-1.025.717.447.903.201 1.826-.004 2.59-.263.987-.311 1.367.17 1.757a.731.731 0 0 1-.923 1.134c-1.257-1.022-.911-2.319-.658-3.266.223-.836.333-1.331-.03-1.78-1.275-1.584-1.402-2.952-1.282-3.82.114-.833.52-1.57 1.085-1.974 1.205-.86 2.899-.631 3.61.144Zm32.12-2.917a.35.35 0 0 1-.031.442c-.11.118-2.762 2.916-6.898 3.92-1.331.323-2.494.45-3.514.45-1.892 0-3.297-.438-4.392-.884a.349.349 0 0 1-.203-.422c.177-.602.948-1.724 2.676-1.61l.45.031c2.112.151 6.036.431 11.483-2.042a.352.352 0 0 1 .429.115Zm26.485-.413a.35.35 0 0 1-.187.5c-.453.161-.88.356-1.333.562-1.286.584-2.743 1.246-5.243 1.32-.115.004-.23.005-.341.005-3.688 0-5.296-1.816-5.364-1.895a.347.347 0 0 1-.033-.41.343.343 0 0 1 .38-.158c3.567.877 5.722.15 7.455-.434.813-.274 1.513-.51 2.231-.545 1.782-.075 2.409 1.009 2.435 1.055Z" fill="#3F1B13"/><path fill-rule="evenodd" clip-rule="evenodd" d="M264.705 64.602c.435.011.836.523 1.194 1.522.336.94.72 2.692.021 3.295-.424.368-1.926.556-4.768.885-2.512.292-5.361.622-6.337 1.128-2.171 1.121-8.058 5.263-8.118 5.305a.347.347 0 0 1-.414-.009.349.349 0 0 1-.113-.398c.105-.287 2.669-7.067 8.284-9.456 5.341-2.272 9.479-2.287 10.251-2.272ZM286.86 64.291c3.613.967 5.116 2.685 5.379 3.02.374.466.442 1.415.444 2.409l-.001.422a.352.352 0 0 1-.349.348.347.347 0 0 1-.318-.205c-.262-.576-1.02-1.088-2.387-1.614-1.031-.397-3.702-.241-5.848-.115-2.479.144-3.796.204-4.26-.123-.716-.504-.544-1.892-.437-2.465.056-.3.37-1.803 1.084-1.982.787-.196 2.873-.716 6.693.305Z" fill="#B5D3FF"/><path fill-rule="evenodd" clip-rule="evenodd" d="M256.6 138.066c-.825 0-1.597-.016-2.297-.039-6.714-.229-15.176-2.224-18.356-5.596a.699.699 0 0 1 1.015-.959c2.892 3.064 11.118 4.945 17.388 5.159 8.115.278 13.995-.872 16.156-3.149a.697.697 0 1 1 1.013.961c-2.868 3.024-9.844 3.623-14.919 3.623Z" fill="#181830"/><path fill-rule="evenodd" clip-rule="evenodd" d="M261.093 140.647c.151 1.192 1.582 2.523 3.37 1.186-.263 1.526-1.661 2.031-2.402 2.075-1.641.097-3.059-1.269-3.165-3.054-.105-1.783 1.085-3.229 2.725-3.35 1.017-.076 1.807.338 2.221.998-1.657-.716-2.95.558-2.749 2.145Z" fill="#fff"/></svg>