<svg width="491" height="466" viewBox="0 0 491 466" fill="none" xmlns="http://www.w3.org/2000/svg">
<path opacity="0.74707" fill-rule="evenodd" clip-rule="evenodd" d="M459.223 226.923L457.963 229.489C437.235 271.469 409.727 316.904 364.691 343.212C319.555 369.568 256.887 376.798 199.298 380.981L195.779 381.233C137.132 385.43 84.252 386.797 49.84 371.575C15.4538 356.408 -0.464654 324.653 0.0103147 285.715C0.485285 246.777 17.4575 200.608 59.1973 161.171C100.911 121.68 167.392 88.9173 235.073 64.7153C302.753 40.5133 371.504 24.8598 417.189 33.3168C462.798 41.88 485.214 74.5449 489.518 110.162C493.798 145.722 479.992 184.288 459.223 226.923Z" fill="#F7D59C" fill-opacity="0.5"/>
<path fill-rule="evenodd" clip-rule="evenodd" d="M282.232 145.538L278.539 144.036C268.16 155.474 252.959 156.754 232.938 147.878C252.101 160.139 265.775 164.577 273.958 161.192C282.142 157.808 284.899 152.59 282.232 145.538Z" fill="#E85D5D"/>
<path fill-rule="evenodd" clip-rule="evenodd" d="M336.871 271.317C336.789 261.569 336.35 248.643 335.024 236.217C330.803 196.646 315.632 153.147 291.342 148.251C263.589 142.656 296.524 201.626 303.629 223.367C310.568 244.6 314.618 257.004 320.577 277.261C320.813 278.061 320.787 278.939 320.908 279.806C324.518 274.295 336.871 271.317 336.871 271.317Z" fill="#AD603F"/>
<g style="mix-blend-mode:overlay">
<path fill-rule="evenodd" clip-rule="evenodd" d="M324.098 249.926C323.352 216.467 317.317 178.041 280.885 162.293C283.801 179.991 299.06 209.382 303.629 223.368C310.204 243.483 314.187 255.686 319.656 274.143C323.707 272.203 324.116 260.616 324.098 249.926Z" fill="black" fill-opacity="0.15"/>
</g>
<path fill-rule="evenodd" clip-rule="evenodd" d="M404.419 311.273C377.938 301.668 352.345 301.092 308.163 300.274C279.487 299.742 275.356 352.776 282.391 362.864C319.21 359.591 380.166 362.308 412.809 357.393C429.151 341.635 433.928 321.978 404.419 311.273Z" fill="#AD603F"/>
<path fill-rule="evenodd" clip-rule="evenodd" d="M280.073 337.01C278.591 348.352 279.633 358.908 282.391 362.864C319.209 359.591 380.166 362.307 412.809 357.394C416.454 353.879 416.458 350.115 416.122 345.423C416.182 331.363 406.402 329.332 393.664 327.656C342.714 325.981 316.517 342.61 280.073 337.01Z" fill="black"/>
<path fill-rule="evenodd" clip-rule="evenodd" d="M416.452 327.895C411.585 318.895 397.986 322.022 384.489 322.662C381.67 327.798 377.731 328.759 364.76 333.11C343.886 340.114 321.696 366.04 313.745 370.017C295.005 379.389 272.948 392.396 260.907 397.167C256.817 406.028 255.183 409.109 265.905 422.84C299.984 402.166 379.849 375.796 409.922 359.692C410.228 359.528 410.527 359.38 410.822 359.245C422.835 351.679 418.581 332.676 416.452 327.895Z" fill="#AD603F"/>
<g style="mix-blend-mode:overlay">
<path fill-rule="evenodd" clip-rule="evenodd" d="M416.452 327.895C411.585 318.895 397.986 322.022 384.489 322.662C381.67 327.798 377.731 328.759 364.76 333.11C343.886 340.114 321.696 366.04 313.745 370.017C295.005 379.389 272.948 392.396 260.907 397.167C256.817 406.028 255.183 409.109 265.905 422.84C299.984 402.166 379.849 375.796 409.922 359.692C410.228 359.528 410.527 359.38 410.822 359.245C422.835 351.679 418.581 332.676 416.452 327.895Z" fill="black" fill-opacity="0.15"/>
</g>
<path fill-rule="evenodd" clip-rule="evenodd" d="M249.546 314.229C277.507 325.221 278.759 351.475 277.928 362.419C274.215 365.916 227.384 375.688 204.065 376.598C166.72 378.054 144.221 382.457 135.089 383.501C133.764 383.652 121.152 377.886 117.324 370.477C112.657 359.078 117.221 351.906 123.906 346.463C130.591 341.019 193.887 318.796 206.254 316.015C215.406 313.959 230.571 309.525 249.546 314.229Z" fill="#AD603F"/>
<path fill-rule="evenodd" clip-rule="evenodd" d="M157.118 356.143C147.442 362.594 145.245 372.248 146.276 381.923C158.345 380.174 177.424 377.635 204.066 376.597C227.382 375.687 274.214 365.916 277.928 362.42C278.308 357.4 278.243 349.159 275.374 340.648C270.985 343.177 266.41 345.153 261.828 346.403C227.736 357.361 191.209 335.444 157.118 356.143Z" fill="black"/>
<path fill-rule="evenodd" clip-rule="evenodd" d="M310.673 303.373C309.635 299.221 305.371 284.908 305.174 280.615C304.426 264.145 308.176 248.573 306.727 229.817C306.727 229.817 311.36 225.728 312.317 218.026C312.876 213.526 295.379 180.661 290.685 148.133C287.421 147.238 283.422 146.106 280.417 144.8C273.363 153.751 259.024 154.565 259.024 154.565C236.643 155.373 227.542 141.588 227.432 141.421C224.236 142.759 220.247 144.299 212.961 147.128C222.15 169.085 207.357 187.703 202.997 194.44C203.529 201.58 212.038 231.768 213.893 242.458C216.293 256.303 218.845 268.553 217.854 277.8C217.095 284.888 209.607 302.489 203.602 319.949C212.409 309.255 270.852 303.805 273.651 361.848C272.612 365.654 286.799 363.232 287.145 361.502C296.833 356.657 293.719 310.639 310.673 303.373Z" fill="#AD603F"/>
<path fill-rule="evenodd" clip-rule="evenodd" d="M280.256 144.728C280.315 144.754 280.358 144.774 280.385 144.785C280.341 144.765 280.298 144.747 280.256 144.728Z" fill="#AD603F"/>
<g style="mix-blend-mode:overlay">
<path fill-rule="evenodd" clip-rule="evenodd" d="M213.948 198.46C209.779 194.656 205.038 194.135 202.996 194.439C203.527 201.579 212.039 231.768 213.892 242.457C216.293 256.304 218.844 268.554 217.853 277.801C217.095 284.888 209.606 302.491 203.599 319.952C209.016 313.974 222.905 312.851 228.264 313.188C231.301 295.945 229.04 287.165 230.623 268.968C230.623 265.712 233.437 257.398 235.437 249.167C220.67 235.541 227.223 216.891 219.318 204.347C217.864 202.34 216.114 200.36 213.948 198.46Z" fill="black" fill-opacity="0.15"/>
</g>
<path fill-rule="evenodd" clip-rule="evenodd" d="M252.996 164.117C252.866 164.117 252.734 164.076 252.624 163.99C246.206 159.019 238.208 156.021 230.102 155.548C229.767 155.528 229.51 155.241 229.531 154.905C229.549 154.57 229.817 154.318 230.174 154.333C238.52 154.82 246.759 157.907 253.37 163.026C253.634 163.233 253.683 163.615 253.478 163.881C253.358 164.037 253.178 164.117 252.996 164.117Z" fill="black"/>
<g style="mix-blend-mode:overlay">
<path fill-rule="evenodd" clip-rule="evenodd" d="M275.194 162.877C275.186 162.877 275.178 162.877 275.17 162.877C274.903 162.866 274.674 162.683 274.606 162.424C274.5 162.026 274.619 161.595 274.902 161.304C276.663 156.816 279.986 152.878 284.12 150.412C284.409 150.24 284.784 150.334 284.955 150.623C285.127 150.911 285.032 151.285 284.745 151.457C280.828 153.793 277.683 157.526 276.023 161.78C276.01 161.842 275.986 161.903 275.954 161.959C275.889 162.129 275.829 162.298 275.769 162.468C275.684 162.714 275.452 162.877 275.194 162.877Z" fill="black" fill-opacity="0.25"/>
</g>
<path fill-rule="evenodd" clip-rule="evenodd" d="M251.827 234.457C249.336 234.457 246.558 234.277 243.95 233.79C240.587 233.161 235.968 231.532 233.23 229.31C229.834 226.555 226.787 220.41 225.892 217.033C225.805 216.708 225.999 216.374 226.325 216.289C226.65 216.205 226.983 216.396 227.069 216.721C228.03 220.35 231.11 226.025 233.996 228.365C236.57 230.452 240.962 231.992 244.174 232.592C248.78 233.455 253.94 233.326 256.958 232.957C257.299 232.906 257.596 233.153 257.636 233.487C257.678 233.821 257.44 234.125 257.107 234.165C255.709 234.337 253.864 234.457 251.827 234.457Z" fill="black"/>
<g style="mix-blend-mode:overlay">
<path fill-rule="evenodd" clip-rule="evenodd" d="M280.22 289.17C280 289.197 279.773 289.101 279.641 288.904C278.522 287.228 278.07 285.128 278.405 283.141L278.438 282.946C278.505 282.577 278.567 282.229 278.472 281.977C278.354 281.661 278.513 281.311 278.827 281.192C279.141 281.077 279.493 281.234 279.611 281.549C279.824 282.114 279.725 282.671 279.637 283.16L279.604 283.343C279.323 285.027 279.704 286.808 280.652 288.228C280.84 288.508 280.764 288.886 280.486 289.071C280.403 289.127 280.313 289.159 280.22 289.17Z" fill="black" fill-opacity="0.25"/>
</g>
<path fill-rule="evenodd" clip-rule="evenodd" d="M408.782 310.357C382.326 300.685 345.251 300.114 305.888 287.494C278.576 278.737 275.356 352.776 282.391 362.865C319.21 359.592 384.477 359.57 417.119 354.657C429.553 343.145 435.066 319.966 408.782 310.357Z" fill="#323C84"/>
<g style="mix-blend-mode:overlay">
<path fill-rule="evenodd" clip-rule="evenodd" d="M280.073 337.01C278.591 348.352 279.633 358.908 282.391 362.864C319.209 359.591 380.166 362.306 412.809 357.394C416.454 353.879 416.458 350.115 416.122 345.423C416.182 331.363 406.402 329.332 393.664 327.656C363.238 326.656 347.456 326.175 327.188 329.328C317.017 330.909 311.593 315.766 329.021 293.783C306.182 288.929 310.707 291.31 306.655 297.996C297.64 312.683 298.956 323.016 280.073 337.01Z" fill="black" fill-opacity="0.25"/>
</g>
<path fill-rule="evenodd" clip-rule="evenodd" d="M234.678 452.21C234.613 452.583 230.912 458.195 224.013 458.191L216.417 450.837C216.417 450.837 214.268 439.487 214.271 439.221C214.275 438.956 224.54 412.116 224.54 412.116L246.055 410.458L230.732 438.557L234.678 452.21Z" fill="#CEE5D0"/>
<path fill-rule="evenodd" clip-rule="evenodd" d="M264.965 388.892C264.965 388.892 264.85 388.607 264.294 388.211C263.375 387.559 261.431 386.856 258.996 386.742C258.996 386.742 250.287 388.292 246.737 399.248C243.735 408.506 242.182 409.456 238.747 411.805C238.747 411.805 239.446 416.101 232.947 421.434C226.447 426.767 224.077 443.877 226.771 449.71C229.467 455.544 233.026 453.323 234.678 452.21C236.331 451.098 239.025 447.605 241.461 444.487C243.897 441.369 246.829 438.886 248.479 438.152L264.965 388.892Z" fill="white"/>
<path fill-rule="evenodd" clip-rule="evenodd" d="M265.696 423.005C265.696 423.005 273.493 424.243 277.285 423.537C281.075 422.832 282.621 420.332 281.533 416.915C280.443 413.497 282.481 411.885 280.369 409.714C278.254 407.543 277.776 405.646 272.464 406.962C267.153 408.277 261.366 407.445 260.496 406.551C260.496 406.551 259.418 402.377 263.002 398.265C266.585 394.154 271.389 393.083 269.43 388.772C269.43 388.772 266.393 389.74 264.27 388.199C264.27 388.199 265.141 389.092 263.347 391.212C261.555 393.331 253.842 395.245 253.893 400.791C253.945 406.337 257.68 405.962 257.303 409.659C256.843 414.201 250.822 413.605 246.874 416.704C242.926 419.803 236.476 428.759 240.965 437.65C240.965 437.65 243.063 443.438 251.026 436.169C257.676 430.099 257.666 429.704 260.075 428.728C262.482 427.751 265.289 425.142 265.696 423.005Z" fill="#E85D5D"/>
<path fill-rule="evenodd" clip-rule="evenodd" d="M265.678 422.082C265.678 422.082 274.469 422.774 274.749 421.234C274.961 419.818 273.942 419.293 273.479 417.788C273.001 416.228 274.157 414.806 272.34 413.585C270.943 412.649 265.891 416.031 262.681 415.571C264.893 417.415 266.207 421.001 265.678 422.082Z" fill="#CEE5D0"/>
<path fill-rule="evenodd" clip-rule="evenodd" d="M258.996 386.742C258.996 386.742 256.216 384.766 250.899 385.492C250.899 385.492 241.359 388.572 238.313 400.581C235.956 409.875 229.146 411.558 226.331 417.094C226.331 417.094 233.92 414.839 239.483 411.366C245.045 407.895 244.416 405.785 247.541 398.078C251.802 387.56 258.996 386.742 258.996 386.742Z" fill="#E44E46"/>
<path fill-rule="evenodd" clip-rule="evenodd" d="M250.899 385.491C250.899 385.491 245.074 384.529 241.09 384.83C237.106 385.131 233.675 392.185 232.171 398.266C230.227 406.12 223.726 406.799 218.933 414.695C214.14 422.592 208.418 440.382 214.082 453.459C214.082 453.459 216.662 458.977 224.014 458.191C224.014 458.191 225.532 457.061 223.812 453.412C222.091 449.763 218.978 451.047 217.882 447.054C216.785 443.058 215.195 430.349 226.331 417.093C226.331 417.093 236.144 412.231 238.134 404.256C240.909 393.129 246.512 386.506 250.899 385.491Z" fill="#10145F"/>
<path fill-rule="evenodd" clip-rule="evenodd" d="M267.411 390.627C267.391 390.613 270.209 386.633 271.922 385.957C275.051 384.723 276.24 387.103 276.109 390.012C276.109 390.012 270.921 392.626 266.304 394.899C266.304 394.899 268.912 391.716 267.411 390.627Z" fill="#E85D5D"/>
<path fill-rule="evenodd" clip-rule="evenodd" d="M255.312 417.939C255.314 417.867 255.326 417.793 255.35 417.722C255.476 417.355 255.872 417.162 256.238 417.287C260.219 418.653 263.351 423.987 262.559 428.06C262.486 428.438 262.12 428.685 261.741 428.612C261.364 428.538 261.123 428.172 261.188 427.792C261.848 424.45 259.06 419.732 255.785 418.608C255.491 418.507 255.309 418.232 255.312 417.939Z" fill="white"/>
<path fill-rule="evenodd" clip-rule="evenodd" d="M252.551 420.922C252.553 420.825 252.575 420.726 252.62 420.633C252.784 420.284 253.2 420.136 253.549 420.303C254.997 420.992 257.171 422.727 258.524 424.71C259.434 426.047 259.937 428.658 259.225 430.018C259.046 430.36 258.623 430.491 258.282 430.312C257.942 430.133 257.809 429.71 257.988 429.37C258.408 428.572 258.084 426.545 257.369 425.497C256.169 423.737 254.196 422.157 252.948 421.563C252.695 421.442 252.548 421.187 252.551 420.922Z" fill="white"/>
<path fill-rule="evenodd" clip-rule="evenodd" d="M249.727 424.149C249.729 424.058 249.748 423.964 249.788 423.875C249.945 423.522 250.358 423.364 250.71 423.521C252.612 424.371 254.341 425.73 255.334 427.159C256.345 428.612 256.817 430.516 256.577 432.129C256.52 432.512 256.165 432.773 255.782 432.716C255.401 432.659 255.146 432.305 255.195 431.922C255.387 430.668 254.99 429.11 254.187 427.955C253.346 426.745 251.795 425.535 250.141 424.797C249.878 424.68 249.724 424.42 249.727 424.149Z" fill="white"/>
<path fill-rule="evenodd" clip-rule="evenodd" d="M246.529 427.022C246.53 426.907 246.558 426.791 246.62 426.684C246.811 426.349 247.239 426.234 247.572 426.425C248.505 426.958 250.807 428.39 252.074 430.17C253.37 431.995 253.352 433.611 253.171 434.953C253.117 435.334 252.765 435.6 252.383 435.548C252.002 435.495 251.732 435.148 251.786 434.76C251.971 433.462 251.891 432.323 250.935 430.979C249.83 429.425 247.729 428.125 246.88 427.638C246.652 427.506 246.525 427.267 246.529 427.022Z" fill="white"/>
<path fill-rule="evenodd" clip-rule="evenodd" d="M243.897 430.369C243.897 430.316 243.904 430.262 243.918 430.209C244.012 429.835 244.39 429.607 244.765 429.701C246.324 430.094 247.801 431.373 248.818 433.211C249.775 434.938 250.107 436.811 249.69 438.102C249.569 438.468 249.176 438.669 248.808 438.55C248.442 438.432 248.24 438.034 248.36 437.671C248.66 436.752 248.359 435.266 247.597 433.887C246.779 432.407 245.593 431.349 244.424 431.055C244.104 430.974 243.892 430.686 243.897 430.369Z" fill="white"/>
<path fill-rule="evenodd" clip-rule="evenodd" d="M416.452 327.895C411.585 318.895 397.986 322.022 384.488 322.661C381.67 327.798 377.729 328.759 364.76 333.11C343.886 340.114 320.034 357.74 312.081 361.718C303.244 366.138 292.501 371.617 282.584 376.834C280.491 390.729 295.219 412.135 303.439 419.157C340.576 399.475 385.264 371.881 404.409 362.947C407.173 361.657 413.343 357.789 417.119 354.749C431.118 338.539 418.58 332.677 416.452 327.895Z" fill="#323C84"/>
<g style="mix-blend-mode:overlay">
<path fill-rule="evenodd" clip-rule="evenodd" d="M319.872 385.997C305.725 389.028 290.774 386.607 289.154 373.403C286.945 374.55 284.743 375.698 282.584 376.834C280.491 390.728 295.219 412.135 303.44 419.156C340.575 399.474 385.263 371.881 404.41 362.946C405.945 362.229 408.536 360.714 411.182 358.989C380.967 355.735 357.297 373.246 319.872 385.997Z" fill="black" fill-opacity="0.25"/>
</g>
<path fill-rule="evenodd" clip-rule="evenodd" d="M249.403 307.713C277.364 318.706 278.758 351.474 277.928 362.42C274.214 365.917 227.383 375.688 204.066 376.597C166.719 378.053 143.335 383.586 134.201 384.631C132.877 384.782 120.079 378.095 116.251 370.686C111.584 359.286 114.649 347.748 121.083 342.01C131.539 332.683 194.904 311.149 208.996 297.504C227.562 298.399 234.272 301.084 249.403 307.713Z" fill="#323C84"/>
<g style="mix-blend-mode:overlay">
<path fill-rule="evenodd" clip-rule="evenodd" d="M157.118 356.143C147.442 362.594 145.245 372.248 146.276 381.923C158.345 380.174 177.424 377.635 204.066 376.597C227.382 375.687 274.214 365.916 277.928 362.42C278.308 357.4 278.243 349.159 275.374 340.648C270.985 343.177 266.41 345.153 261.828 346.403C227.736 357.361 191.209 335.444 157.118 356.143Z" fill="black" fill-opacity="0.25"/>
</g>
<path fill-rule="evenodd" clip-rule="evenodd" d="M217.827 275.424C217.792 276.188 217.743 276.941 217.665 277.668C216.905 284.756 209.607 302.489 203.601 319.949C212.408 309.255 270.852 303.806 273.651 361.847C272.613 365.653 286.798 363.231 287.145 361.501C296.834 356.658 293.719 310.638 310.674 303.373C309.842 300.051 305.016 285.893 305.321 274.886C301.929 288.716 249.821 292.826 217.827 275.424Z" fill="#323C84"/>
<g style="mix-blend-mode:overlay">
<path fill-rule="evenodd" clip-rule="evenodd" d="M286.933 324.271C273.54 327.923 269.334 315.074 248.245 305.244C235.897 299.487 234.705 290.305 236.246 282.683C229.734 280.889 223.468 278.491 217.827 275.424C217.792 276.188 217.743 276.94 217.665 277.668C217.173 282.257 213.94 291.307 210.093 301.858C207.998 307.603 211.729 314.66 219.053 313.642C239.425 310.812 254.271 322.209 273.651 361.847C272.612 365.653 286.8 363.231 287.145 361.501C294.299 357.924 303.9 325.698 307.547 301.914C305.073 305.188 296.131 321.1 286.933 324.271Z" fill="black" fill-opacity="0.25"/>
</g>
<path fill-rule="evenodd" clip-rule="evenodd" d="M310.673 303.373C310.227 301.583 308.622 296.643 307.284 290.755C306.726 297.332 306.065 303.738 304.257 309.054C306.015 306.463 308.112 304.47 310.673 303.373Z" fill="#323C84"/>
<mask id="mask0" style="mask-type:alpha" maskUnits="userSpaceOnUse" x="211" y="141" width="102" height="123">
<path fill-rule="evenodd" clip-rule="evenodd" d="M223.625 142.973C237.208 164.999 233 224.317 211.797 232.802C212.719 236.684 213.471 240.067 213.888 242.466C214.947 248.587 215.383 252.191 216.127 256.962C243.259 264.082 280.316 268.561 307.606 254.801C307.645 246.283 307.349 237.975 306.721 229.825C306.721 229.825 313.595 224.442 312.402 212.518C310.221 190.704 286.739 176.505 282.232 145.537C281.598 145.301 280.985 145.057 280.412 144.808C273.357 153.76 259.017 154.574 259.017 154.574C236.637 155.382 227.534 141.597 227.425 141.429C226.293 141.903 225.064 142.402 223.625 142.973Z" fill="white"/>
</mask>
<g mask="url(#mask0)">
<path fill-rule="evenodd" clip-rule="evenodd" d="M307.606 254.801C307.644 246.283 307.35 237.974 306.72 229.825C306.72 229.825 313.595 224.442 312.402 212.517C310.221 190.702 286.739 176.505 282.231 145.538C281.597 145.3 280.986 145.057 280.411 144.807C273.358 153.76 259.017 154.573 259.017 154.573C236.637 155.382 227.534 141.597 227.424 141.43C226.294 141.902 225.063 142.401 223.624 142.974C237.208 164.998 233.001 224.317 211.798 232.802C212.718 236.685 213.471 240.067 213.886 242.466C214.946 248.586 215.382 252.192 216.126 256.962C243.258 264.082 280.316 268.562 307.606 254.801Z" fill="#CEE5D0"/>
</g>
<mask id="mask1" style="mask-type:alpha" maskUnits="userSpaceOnUse" x="211" y="141" width="102" height="123">
<path fill-rule="evenodd" clip-rule="evenodd" d="M223.625 142.973C237.208 164.999 233 224.317 211.797 232.802C212.719 236.684 213.471 240.067 213.888 242.466C214.947 248.587 215.383 252.191 216.127 256.962C243.259 264.082 280.316 268.561 307.606 254.801C307.645 246.283 307.349 237.975 306.721 229.825C306.721 229.825 313.595 224.442 312.402 212.518C310.221 190.704 286.739 176.505 282.232 145.537C281.598 145.301 280.985 145.057 280.412 144.808C273.357 153.76 259.017 154.574 259.017 154.574C236.637 155.382 227.534 141.597 227.425 141.429C226.293 141.903 225.064 142.402 223.625 142.973Z" fill="white"/>
</mask>
<g mask="url(#mask1)">
</g>
<mask id="mask2" style="mask-type:alpha" maskUnits="userSpaceOnUse" x="211" y="141" width="102" height="123">
<path fill-rule="evenodd" clip-rule="evenodd" d="M223.625 142.973C237.208 164.999 233 224.317 211.797 232.802C212.719 236.684 213.471 240.067 213.888 242.466C214.947 248.587 215.383 252.191 216.127 256.962C243.259 264.082 280.316 268.561 307.606 254.801C307.645 246.283 307.349 237.975 306.721 229.825C306.721 229.825 313.595 224.442 312.402 212.518C310.221 190.704 286.739 176.505 282.232 145.537C281.598 145.301 280.985 145.057 280.412 144.808C273.357 153.76 259.017 154.574 259.017 154.574C236.637 155.382 227.534 141.597 227.425 141.429C226.293 141.903 225.064 142.402 223.625 142.973Z" fill="white"/>
</mask>
<g mask="url(#mask2)">
</g>
<mask id="mask3" style="mask-type:alpha" maskUnits="userSpaceOnUse" x="211" y="141" width="102" height="123">
<path fill-rule="evenodd" clip-rule="evenodd" d="M223.625 142.973C237.208 164.999 233 224.317 211.797 232.802C212.719 236.684 213.471 240.067 213.888 242.466C214.947 248.587 215.383 252.191 216.127 256.962C243.259 264.082 280.316 268.561 307.606 254.801C307.645 246.283 307.349 237.975 306.721 229.825C306.721 229.825 313.595 224.442 312.402 212.518C310.221 190.704 286.739 176.505 282.232 145.537C281.598 145.301 280.985 145.057 280.412 144.808C273.357 153.76 259.017 154.574 259.017 154.574C236.637 155.382 227.534 141.597 227.425 141.429C226.293 141.903 225.064 142.402 223.625 142.973Z" fill="white"/>
</mask>
<g mask="url(#mask3)">
</g>
<mask id="mask4" style="mask-type:alpha" maskUnits="userSpaceOnUse" x="211" y="141" width="102" height="123">
<path fill-rule="evenodd" clip-rule="evenodd" d="M223.625 142.973C237.208 164.999 233 224.317 211.797 232.802C212.719 236.684 213.471 240.067 213.888 242.466C214.947 248.587 215.383 252.191 216.127 256.962C243.259 264.082 280.316 268.561 307.606 254.801C307.645 246.283 307.349 237.975 306.721 229.825C306.721 229.825 313.595 224.442 312.402 212.518C310.221 190.704 286.739 176.505 282.232 145.537C281.598 145.301 280.985 145.057 280.412 144.808C273.357 153.76 259.017 154.574 259.017 154.574C236.637 155.382 227.534 141.597 227.425 141.429C226.293 141.903 225.064 142.402 223.625 142.973Z" fill="white"/>
</mask>
<g mask="url(#mask4)">
<path fill-rule="evenodd" clip-rule="evenodd" d="M219.382 264.029L219.407 264.523C219.482 266.054 220.756 267.264 222.302 267.247C223.888 267.23 225.202 266.731 226.241 266.15C223.903 265.159 221.603 264.105 219.363 262.959C219.362 263.301 219.364 263.653 219.382 264.029Z" fill="#B86767"/>
</g>
<mask id="mask5" style="mask-type:alpha" maskUnits="userSpaceOnUse" x="211" y="141" width="102" height="123">
<path fill-rule="evenodd" clip-rule="evenodd" d="M223.625 142.973C237.208 164.999 233 224.317 211.797 232.802C212.719 236.684 213.471 240.067 213.888 242.466C214.947 248.587 215.383 252.191 216.127 256.962C243.259 264.082 280.316 268.561 307.606 254.801C307.645 246.283 307.349 237.975 306.721 229.825C306.721 229.825 313.595 224.442 312.402 212.518C310.221 190.704 286.739 176.505 282.232 145.537C281.598 145.301 280.985 145.057 280.412 144.808C273.357 153.76 259.017 154.574 259.017 154.574C236.637 155.382 227.534 141.597 227.425 141.429C226.293 141.903 225.064 142.402 223.625 142.973Z" fill="white"/>
</mask>
<g mask="url(#mask5)">
<path fill-rule="evenodd" clip-rule="evenodd" d="M224.311 260.98C223.567 261.15 223.012 261.124 222.741 260.982L225.66 264.2C225.832 263.274 226.203 262.034 226.462 260.48C226.475 260.391 226.481 260.285 226.493 260.194C225.707 260.532 224.966 260.833 224.311 260.98Z" fill="#B86767"/>
</g>
<mask id="mask6" style="mask-type:alpha" maskUnits="userSpaceOnUse" x="211" y="141" width="102" height="123">
<path fill-rule="evenodd" clip-rule="evenodd" d="M223.625 142.973C237.208 164.999 233 224.317 211.797 232.802C212.719 236.684 213.471 240.067 213.888 242.466C214.947 248.587 215.383 252.191 216.127 256.962C243.259 264.082 280.316 268.561 307.606 254.801C307.645 246.283 307.349 237.975 306.721 229.825C306.721 229.825 313.595 224.442 312.402 212.518C310.221 190.704 286.739 176.505 282.232 145.537C281.598 145.301 280.985 145.057 280.412 144.808C273.357 153.76 259.017 154.574 259.017 154.574C236.637 155.382 227.534 141.597 227.425 141.429C226.293 141.903 225.064 142.402 223.625 142.973Z" fill="white"/>
</mask>
<g mask="url(#mask6)">
<path fill-rule="evenodd" clip-rule="evenodd" d="M225.66 264.2L222.742 260.982C223.011 261.124 223.566 261.15 224.311 260.981C224.966 260.833 225.708 260.532 226.493 260.193C226.589 259.48 226.659 258.699 226.606 257.792C226.524 256.725 226.248 255.61 225.836 254.689C225.011 252.803 223.899 251.473 222.959 250.412C222.013 249.343 221.185 248.443 220.642 247.705C219.675 246.151 219.665 245.913 220.207 244.615C220.852 243.396 222.543 242.083 224.265 241.538L224.92 241.363C225.182 241.319 225.434 241.255 225.708 241.222C226.246 241.145 226.8 241.083 227.384 241.06C228.545 240.993 229.782 241.026 231.092 241.05C233.691 241.094 236.632 241.202 239.578 240.589C245.381 239.406 249.99 236.507 255.012 235.174C257.489 234.5 260.086 234.181 262.563 234.509C265.036 234.817 267.319 235.883 268.824 237.513C270.289 239.131 271.007 241.188 271.121 243.291C271.276 245.384 270.877 247.501 270.138 249.383C268.667 252.963 265.218 256.219 260.613 257.994C258.312 258.839 255.746 259.327 253.159 259.104C250.549 258.909 247.948 258.185 245.289 257.739C241.262 257.071 237.11 257.083 232.904 257.832C232.395 257.918 231.831 258.039 231.261 258.214C230.708 258.387 230.179 258.586 229.67 258.796C228.652 259.213 227.702 259.667 226.8 260.061C226.695 260.106 226.595 260.149 226.493 260.193C226.481 260.285 226.475 260.391 226.461 260.48C226.202 262.034 225.832 263.274 225.66 264.2ZM229.301 263.892C230.884 262.47 232.095 261.174 233.744 260.36C237.168 258.581 241.254 257.85 245.172 258.461C247.777 258.872 250.256 259.83 252.889 260.587C255.538 261.349 258.39 261.797 261.319 261.659C264.238 261.515 267.284 260.788 269.988 259.135C271.34 258.32 272.602 257.293 273.666 256.06C274.742 254.811 275.652 253.348 276.246 251.816C277.429 248.739 277.647 245.359 276.785 242.218C275.99 239.075 273.946 236.197 271.273 234.449C268.61 232.707 265.566 232.133 262.751 232.06C259.908 231.995 257.157 232.373 254.468 232.962C251.793 233.568 249.198 234.305 246.621 234.876C244.048 235.441 241.498 235.837 239.089 235.802C236.723 235.771 234.329 235.27 231.634 234.854C230.293 234.643 228.87 234.483 227.367 234.423C226.62 234.39 225.842 234.401 225.055 234.445C224.664 234.458 224.26 234.513 223.862 234.547C223.444 234.603 222.99 234.684 222.559 234.768C220.842 235.15 219.235 235.809 217.743 236.744C216.267 237.692 214.854 238.884 213.762 240.557C212.674 242.198 211.91 244.412 212.087 246.692C212.245 248.974 213.278 250.955 214.32 252.342C215.359 253.749 216.421 254.738 217.273 255.631C218.133 256.519 218.77 257.25 219.067 257.79C219.24 258.069 219.284 258.262 219.37 258.514C219.443 258.816 219.474 259.27 219.46 259.813C219.469 260.672 219.368 261.713 219.363 262.958C221.603 264.105 223.903 265.159 226.241 266.15C226.346 266.091 226.464 266.035 226.564 265.975C227.658 265.31 228.517 264.595 229.301 263.892Z" fill="#B86767"/>
</g>
<mask id="mask7" style="mask-type:alpha" maskUnits="userSpaceOnUse" x="211" y="141" width="102" height="123">
<path fill-rule="evenodd" clip-rule="evenodd" d="M223.625 142.973C237.208 164.999 233 224.317 211.797 232.802C212.719 236.684 213.471 240.067 213.888 242.466C214.947 248.587 215.383 252.191 216.127 256.962C243.259 264.082 280.316 268.561 307.606 254.801C307.645 246.283 307.349 237.975 306.721 229.825C306.721 229.825 313.595 224.442 312.402 212.518C310.221 190.704 286.739 176.505 282.232 145.537C281.598 145.301 280.985 145.057 280.412 144.808C273.357 153.76 259.017 154.574 259.017 154.574C236.637 155.382 227.534 141.597 227.425 141.429C226.293 141.903 225.064 142.402 223.625 142.973Z" fill="white"/>
</mask>
<g mask="url(#mask7)">
<path fill-rule="evenodd" clip-rule="evenodd" d="M283.521 251.359C283.771 248.437 284.531 245.529 285.644 242.788C286.762 240.061 288.422 237.538 290.526 235.53C292.627 233.52 295.145 232.073 297.68 231.245C302.765 229.603 308.1 229.513 313.92 229.115C315.363 229.029 316.866 228.918 318.307 228.802C319.743 228.688 321.133 228.621 322.481 228.695C325.159 228.839 327.767 229.706 329.197 231.948C329.902 233.019 330.307 234.31 330.166 235.504C330.038 236.688 329.365 237.746 328.36 238.44C327.362 239.154 326.057 239.518 324.709 239.709C323.363 239.926 321.934 239.892 320.437 239.911C317.478 239.939 314.397 239.791 311.178 240.267C309.566 240.483 307.934 240.838 306.305 241.433C304.644 242.033 303.064 242.849 301.579 243.868C300.105 244.902 298.722 246.152 297.548 247.678C296.375 249.192 295.44 251.041 294.968 253.068C294.736 254.065 294.607 255.183 294.608 256.06C294.598 256.934 294.621 257.665 294.593 258.198C294.517 259.345 294.464 259.33 294.125 259.838C293.796 260.287 293.099 260.732 292.388 260.967L292.251 261.01L292.023 261.058L291.568 261.157C291.262 261.23 290.961 261.289 290.674 261.322C290.082 261.421 289.527 261.488 288.999 261.511C287.937 261.564 287.116 261.458 286.448 261.226C285.825 260.969 285.107 260.432 284.608 259.38C284.075 258.376 283.74 257.044 283.581 255.665C283.414 254.278 283.394 252.816 283.521 251.359ZM280.749 263.514C281.198 264.498 281.914 265.409 282.762 266.192C284.527 267.712 286.712 268.375 288.613 268.578C289.572 268.666 290.51 268.701 291.4 268.63C291.856 268.612 292.293 268.565 292.722 268.506L293.37 268.424L293.694 268.38L294.102 268.304C296.283 267.859 298.319 266.789 299.973 265.004C300.799 264.119 301.463 262.99 301.889 261.753C302.305 260.517 302.424 259.353 302.431 258.411C302.444 257.455 302.391 256.694 302.383 256.078C302.372 255.464 302.389 255.089 302.46 254.63C302.71 252.858 303.92 250.922 305.73 249.385C309.285 246.35 315 245.202 320.883 243.885C323.78 243.212 327.149 242.628 329.891 240.364C331.241 239.228 332.197 237.521 332.361 235.726C332.522 233.934 332.016 232.231 331.223 230.744C330.408 229.27 329.261 227.934 327.815 226.942C326.432 225.937 324.849 225.275 323.28 224.744C321.704 224.228 320.114 223.904 318.576 223.634C317.038 223.372 315.562 223.17 314.026 223.024C310.971 222.737 307.789 222.735 304.58 223.312C301.385 223.891 298.156 225.134 295.459 227.149C292.733 229.144 290.708 231.743 289.083 234.374C287.452 237.018 286.153 239.741 284.97 242.507C283.809 245.275 282.638 248.035 281.598 250.935C280.626 253.85 279.511 256.873 279.916 260.628C280.02 261.558 280.31 262.543 280.749 263.514Z" fill="#B86767"/>
</g>
<mask id="mask8" style="mask-type:alpha" maskUnits="userSpaceOnUse" x="211" y="141" width="102" height="123">
<path fill-rule="evenodd" clip-rule="evenodd" d="M223.625 142.973C237.208 164.999 233 224.317 211.797 232.802C212.719 236.684 213.471 240.067 213.888 242.466C214.947 248.587 215.383 252.191 216.127 256.962C243.259 264.082 280.316 268.561 307.606 254.801C307.645 246.283 307.349 237.975 306.721 229.825C306.721 229.825 313.595 224.442 312.402 212.518C310.221 190.704 286.739 176.505 282.232 145.537C281.598 145.301 280.985 145.057 280.412 144.808C273.357 153.76 259.017 154.574 259.017 154.574C236.637 155.382 227.534 141.597 227.425 141.429C226.293 141.903 225.064 142.402 223.625 142.973Z" fill="white"/>
</mask>
<g mask="url(#mask8)">
<path fill-rule="evenodd" clip-rule="evenodd" d="M221.588 200.741C220.705 202.941 220.076 205.231 219.349 207.587C219.165 208.174 218.979 208.772 218.771 209.368C218.551 209.983 218.391 210.53 218.014 211.246C217.318 212.522 216.536 213.575 215.795 214.565C215.045 215.535 214.335 216.488 213.854 217.274C213.614 217.66 213.474 218.019 213.537 218.092C213.586 218.208 213.432 218.732 213.522 218.805C213.567 218.847 213.502 218.973 213.572 218.931C213.635 218.9 213.581 218.898 213.609 218.848C213.615 218.736 213.596 218.696 213.693 218.751C213.883 218.87 214.621 219.25 215.505 219.486C216.371 219.763 217.398 220.003 218.482 220.234L221.907 220.988C222.504 221.124 223.132 221.275 223.776 221.456L225.332 221.894C226.262 222.135 227.002 222.242 227.537 222.199C227.938 222.209 228.425 221.97 228.584 221.852C228.678 221.79 228.692 221.813 228.756 221.814C228.807 221.794 228.874 221.592 228.829 221.186C228.787 220.786 228.649 220.234 228.495 219.55C228.35 218.872 228.226 217.981 228.249 217.193C228.253 215.568 228.729 214.082 229.352 212.813C230.622 210.267 232.477 208.435 234.281 206.757C236.07 205.109 237.86 203.568 239.148 201.729C240.474 199.907 241.035 197.803 240.8 195.829C240.6 193.849 239.662 192.159 238.574 191.124C237.526 190.102 236.056 189.424 234.667 189.182C233.968 189.085 233.301 189.05 232.608 189.182C231.876 189.325 231.017 189.68 230.118 190.204C228.304 191.266 226.509 192.768 225.056 194.602C223.592 196.433 222.466 198.546 221.588 200.741ZM220.912 200.463C221.835 198.27 222.585 196.012 223.441 193.698C224.295 191.392 225.292 188.986 226.942 186.794C227.776 185.703 228.848 184.623 230.302 183.822C231.79 182.998 233.544 182.66 235.208 182.729C238.535 182.927 241.614 184.663 243.429 187.443C245.237 190.202 245.43 193.448 244.815 196.177C244.225 198.966 242.652 201.334 240.997 203.188C239.338 205.08 237.554 206.697 236.051 208.464C234.565 210.179 233.47 212.211 233.122 214.15C232.961 215.114 232.999 216.015 233.232 216.761C233.344 217.155 233.485 217.432 233.708 217.879C233.917 218.325 234.203 218.882 234.481 219.625C234.751 220.359 235.019 221.352 234.932 222.513C234.856 223.692 234.404 224.853 233.776 225.731C232.502 227.519 230.773 228.505 228.858 228.976C227.054 229.396 225.384 229.272 223.99 229.083L220.453 228.501C218.178 228.149 215.724 227.835 212.982 226.868C211.633 226.345 210.122 225.781 208.564 224.271C207.798 223.514 207.077 222.496 206.674 221.262C206.451 220.674 206.431 220.05 206.37 219.443C206.308 218.816 206.449 218.348 206.516 217.801C206.584 217.238 206.768 216.837 206.936 216.421L207.196 215.8C207.278 215.602 207.37 215.394 207.531 215.126C208.133 214.141 208.739 213.561 209.308 213.082C210.446 212.132 211.55 211.545 212.569 210.937C213.598 210.35 214.592 209.81 215.363 209.216C215.695 208.98 216.128 208.495 216.505 208.085C216.874 207.644 217.249 207.196 217.583 206.717C218.953 204.811 219.995 202.654 220.912 200.463Z" fill="#B86767"/>
</g>
<mask id="mask9" style="mask-type:alpha" maskUnits="userSpaceOnUse" x="211" y="141" width="102" height="123">
<path fill-rule="evenodd" clip-rule="evenodd" d="M223.625 142.973C237.208 164.999 233 224.317 211.797 232.802C212.719 236.684 213.471 240.067 213.888 242.466C214.947 248.587 215.383 252.191 216.127 256.962C243.259 264.082 280.316 268.561 307.606 254.801C307.645 246.283 307.349 237.975 306.721 229.825C306.721 229.825 313.595 224.442 312.402 212.518C310.221 190.704 286.739 176.505 282.232 145.537C281.598 145.301 280.985 145.057 280.412 144.808C273.357 153.76 259.017 154.574 259.017 154.574C236.637 155.382 227.534 141.597 227.425 141.429C226.293 141.903 225.064 142.402 223.625 142.973Z" fill="white"/>
</mask>
<g mask="url(#mask9)">
<path fill-rule="evenodd" clip-rule="evenodd" d="M231.886 153.95C234.01 152.902 236.086 151.726 238.34 150.756C240.577 149.773 242.948 148.757 245.55 148.309C248.124 147.841 250.932 147.73 253.62 148.501C254.301 148.643 254.955 148.892 255.607 149.151C256.257 149.415 256.923 149.649 257.529 150.011C258.147 150.347 258.775 150.677 259.373 151.051L261.071 152.311C263.213 154.114 265.089 156.264 266.341 158.665C267.074 159.822 267.518 161.08 268.05 162.296C268.571 163.545 268.962 164.993 269.192 166.377C269.648 169.174 269.554 172.129 268.515 174.861C267.533 177.598 265.547 179.988 263.215 181.446C260.893 182.951 258.255 183.713 255.642 183.799C253.022 183.887 250.491 183.243 248.181 182.095C247.033 181.507 245.919 180.788 244.914 179.909C243.897 179.057 243.066 178.107 242.223 177.311C241.394 176.501 240.599 175.815 239.84 175.408C239.108 175.005 238.389 174.806 237.466 174.588L234.33 173.95C233.747 173.838 233.122 173.655 232.435 173.451C231.77 173.245 231.13 172.967 230.492 172.682C228.005 171.489 225.577 169.512 224.342 166.535C223.732 165.067 223.624 163.372 223.946 161.915C224.257 160.426 225.048 159.184 225.912 158.207C227.698 156.269 229.796 155.094 231.886 153.95ZM232.223 154.597C230.188 155.636 228.313 157.248 227.453 159.226C227.033 160.205 226.923 161.223 227.14 162.091C227.343 162.972 227.774 163.666 228.381 164.212C229.564 165.313 231.262 166.068 233.042 166.729C233.486 166.898 233.946 167.029 234.402 167.177L235.905 167.6C237.007 167.908 238.249 168.263 239.548 168.862C240.83 169.438 242.233 170.344 243.252 171.515C244.263 172.659 244.914 173.843 245.471 174.924C246.018 176.019 246.531 177.004 247.113 177.875C247.691 178.732 248.461 179.46 249.345 180.046C251.122 181.196 253.364 181.687 255.429 181.35C257.501 181.039 259.374 179.862 260.661 178.369C261.977 176.854 262.604 175.083 262.866 173.294C263.084 171.492 262.968 169.615 262.441 167.829C262.167 166.923 261.847 166.114 261.356 165.245C260.842 164.361 260.403 163.429 259.804 162.643C258.733 160.954 257.423 159.558 256.047 158.28C254.68 156.97 253.045 156.044 251.317 155.194C249.588 154.333 247.655 153.671 245.553 153.163C243.451 152.63 241.152 152.454 238.858 152.655C236.548 152.835 234.319 153.603 232.223 154.597Z" fill="#B86767"/>
</g>
<mask id="mask10" style="mask-type:alpha" maskUnits="userSpaceOnUse" x="211" y="141" width="102" height="123">
<path fill-rule="evenodd" clip-rule="evenodd" d="M223.625 142.973C237.208 164.999 233 224.317 211.797 232.802C212.719 236.684 213.471 240.067 213.888 242.466C214.947 248.587 215.383 252.191 216.127 256.962C243.259 264.082 280.316 268.561 307.606 254.801C307.645 246.283 307.349 237.975 306.721 229.825C306.721 229.825 313.595 224.442 312.402 212.518C310.221 190.704 286.739 176.505 282.232 145.537C281.598 145.301 280.985 145.057 280.412 144.808C273.357 153.76 259.017 154.574 259.017 154.574C236.637 155.382 227.534 141.597 227.425 141.429C226.293 141.903 225.064 142.402 223.625 142.973Z" fill="white"/>
</mask>
<g mask="url(#mask10)">
<path fill-rule="evenodd" clip-rule="evenodd" d="M291.455 182.277C292.176 181.264 292.505 179.953 292.66 178.614C292.815 177.262 292.768 175.832 292.891 174.36C292.961 173.632 293.046 172.866 293.26 172.086C293.497 171.291 293.748 170.5 294.515 169.511L294.802 169.157C294.938 169.021 295.09 168.882 295.24 168.75C295.392 168.618 295.549 168.489 295.71 168.364C295.864 168.246 295.926 168.218 296.039 168.142L296.656 167.754C296.867 167.627 297.15 167.501 297.4 167.381L297.795 167.205L298.296 167.045C298.622 166.942 298.958 166.858 299.446 166.825C299.671 166.806 299.898 166.795 300.122 166.791C300.379 166.801 300.68 166.841 300.956 166.889C301.489 166.958 302.131 167.211 302.702 167.535C303.843 168.206 304.586 169.332 304.884 170.127C304.969 170.336 305.047 170.551 305.116 170.761L305.241 171.297C305.331 171.677 305.36 171.992 305.371 172.293C305.428 173.517 305.265 174.473 305.026 175.357C304.897 175.785 304.779 176.223 304.611 176.615L304.374 177.197L304.167 177.648L303.319 179.45C302.752 180.651 302.206 181.859 301.527 183.019C300.861 184.184 300.084 185.313 299.334 186.449C298.59 187.587 297.86 188.731 297.3 189.934C296.712 191.14 296.306 192.339 295.876 193.714C295.405 195.033 295.022 196.673 293.384 198.088C292.601 198.757 291.426 199.243 290.261 199.299C289.085 199.379 287.948 199.096 286.978 198.583C285.999 198.078 285.161 197.339 284.531 196.401C284.196 195.947 283.964 195.408 283.754 194.857C283.569 194.334 283.463 193.821 283.412 193.3C283.197 191.199 283.972 189.375 284.999 188.052C286.053 186.691 287.362 185.816 288.492 184.987C289.63 184.155 290.659 183.319 291.455 182.277ZM292.028 182.732C291.183 183.758 290.441 184.886 289.946 186.129C289.45 187.373 289.25 188.7 289.32 189.797C289.364 190.912 289.616 191.779 289.813 192.297C289.858 192.43 289.919 192.557 289.95 192.658L290.049 192.886C290.12 193.068 290.232 193.287 290.352 193.51C290.475 193.735 290.604 193.95 290.747 194.149C290.898 194.353 291.067 194.531 291.436 194.558C292.146 194.665 293.154 193.864 293.709 192.789C294.289 191.723 294.669 190.396 294.979 189.121C295.288 187.832 295.429 186.482 295.559 185.128C295.679 183.771 295.775 182.407 295.979 181.079C296.172 179.747 296.499 178.463 296.802 177.171C297.088 175.906 297.496 174.429 297.547 173.736C297.582 173.331 297.58 172.963 297.552 172.868C297.544 172.841 297.544 172.827 297.55 172.885C297.555 172.903 297.564 172.922 297.575 172.938C297.586 172.994 297.604 173.054 297.628 173.108C297.709 173.28 298.014 173.87 298.61 174.178C298.883 174.362 299.239 174.438 299.434 174.486C299.547 174.509 299.687 174.509 299.781 174.505C299.841 174.512 299.902 174.511 299.96 174.502C300.01 174.497 300.103 174.464 300.111 174.463C300.122 174.464 300.133 174.46 300.141 174.449C300.15 174.439 300.156 174.425 300.16 174.41C300.15 174.406 300.118 174.416 300.098 174.416C300.045 174.428 300.01 174.407 299.932 174.433L299.679 174.519C299.65 174.526 299.557 174.563 299.58 174.544C299.609 174.52 299.636 174.492 299.657 174.462C299.679 174.432 299.698 174.391 299.706 174.358L299.659 174.371C299.513 174.339 299.091 174.701 298.685 175.055C298.274 175.437 297.781 175.861 297.322 176.342C296.367 177.281 295.348 178.306 294.472 179.385C293.582 180.463 292.874 181.609 292.028 182.732Z" fill="#B86767"/>
</g>
<mask id="mask11" style="mask-type:alpha" maskUnits="userSpaceOnUse" x="211" y="141" width="102" height="123">
<path fill-rule="evenodd" clip-rule="evenodd" d="M223.625 142.973C237.208 164.999 233 224.317 211.797 232.802C212.719 236.684 213.471 240.067 213.888 242.466C214.947 248.587 215.383 252.191 216.127 256.962C243.259 264.082 280.316 268.561 307.606 254.801C307.645 246.283 307.349 237.975 306.721 229.825C306.721 229.825 313.595 224.442 312.402 212.518C310.221 190.704 286.739 176.505 282.232 145.537C281.598 145.301 280.985 145.057 280.412 144.808C273.357 153.76 259.017 154.574 259.017 154.574C236.637 155.382 227.534 141.597 227.425 141.429C226.293 141.903 225.064 142.402 223.625 142.973Z" fill="white"/>
</mask>
<g mask="url(#mask11)">
<path fill-rule="evenodd" clip-rule="evenodd" d="M303.76 158.248C302.238 160.002 300.03 161.091 297.827 161.81C295.634 162.569 293.399 163.248 291.787 164.215L291.218 164.574L290.734 164.966C290.562 165.081 290.463 165.254 290.322 165.372C290.267 165.43 290.164 165.507 290.152 165.548C290.18 165.574 290.205 165.587 290.226 165.592C290.195 165.765 290.009 166.071 289.831 166.49C289.634 166.863 289.435 167.326 289.215 167.784C288.775 168.706 288.29 169.686 287.731 170.728C287.45 171.254 287.167 171.787 286.769 172.373C286.371 172.951 286.007 173.564 285 174.455C284.854 174.574 284.704 174.69 284.551 174.801C284.468 174.859 284.41 174.904 284.305 174.969C284.165 175.048 284.02 175.122 283.87 175.192C283.263 175.467 282.656 175.661 281.912 175.666C281.217 175.709 280.454 175.546 279.733 175.216C279.347 175.049 279.149 174.888 278.881 174.695C278.641 174.512 278.369 174.277 278.204 174.093C277.931 173.78 277.617 173.366 277.455 173.074C277.306 172.804 277.152 172.506 277.038 172.244C276.852 171.784 276.696 171.317 276.616 170.947C276.24 169.395 276.165 168.216 276.102 167.002C275.991 164.625 276.081 162.418 276.108 160.231C276.145 158.058 276.129 155.927 276.109 153.912C276.08 152.92 276.028 151.93 275.906 151.129C275.844 150.733 275.756 150.387 275.702 150.163C275.51 149.766 275.204 149.282 274.91 148.791C274.299 147.809 273.594 146.621 273.256 145.182C272.935 143.741 273.184 142.237 273.722 141.046C274.84 138.637 276.672 137.029 278.632 135.657C279.631 134.985 280.706 134.358 282.011 133.951C283.285 133.524 284.955 133.46 286.483 134.11C288.009 134.749 289.098 135.876 289.923 136.765C290.76 137.684 291.419 138.47 291.974 138.932C292.509 139.344 292.864 139.496 293.583 139.771C294.282 140.016 295.2 140.261 296.277 140.564C297.332 140.873 298.642 141.303 299.826 141.987C301.003 142.652 302.074 143.504 302.975 144.508C304.787 146.501 305.875 149.137 305.919 151.628C305.985 154.09 305.294 156.468 303.76 158.248ZM303.212 157.765C304.635 156.208 304.856 153.809 304.101 151.966C303.366 150.084 301.747 148.878 300.095 148.171C299.264 147.813 298.408 147.552 297.553 147.363C296.712 147.167 295.872 147.063 294.783 146.865C293.715 146.66 292.476 146.408 291.124 145.834C289.795 145.297 288.264 144.192 287.367 142.919C286.486 141.701 286.031 140.57 285.637 139.664C285.244 138.733 284.919 138.079 284.508 137.625C284.116 137.15 283.445 136.897 282.57 136.895C281.703 136.906 280.74 137.21 279.852 137.674C278.086 138.587 276.531 140.18 276.025 141.907C275.764 142.764 275.861 143.587 276.212 144.252C276.541 144.933 277.21 145.537 277.994 146.245C278.4 146.607 278.82 146.954 279.292 147.435C279.892 148.102 280.275 148.763 280.599 149.399C281.243 150.669 281.598 151.861 281.909 153.044C282.526 155.394 282.751 157.673 283.006 159.903C283.249 162.121 283.465 164.324 283.725 166.341C283.865 167.322 284.01 168.348 284.194 168.931C284.239 169.099 284.273 169.15 284.281 169.206C284.279 169.195 284.257 169.139 284.232 169.116C284.201 169.066 284.077 168.857 283.962 168.77C283.887 168.687 283.735 168.527 283.599 168.433C283.443 168.317 283.337 168.275 283.091 168.135C282.628 167.903 282.123 167.841 281.71 167.836C281.251 167.873 280.893 167.937 280.541 168.107C280.454 168.149 280.373 168.199 280.297 168.251L280.218 168.295C280.172 168.322 280.132 168.354 280.095 168.388C279.924 168.566 280.239 168.292 280.463 167.964C280.703 167.651 280.997 167.241 281.287 166.824C281.87 165.981 282.47 165.041 283.182 164.082C283.539 163.602 283.923 163.127 284.372 162.608C284.82 162.119 285.336 161.567 286.103 160.981C286.339 160.813 286.583 160.656 286.826 160.511C287.041 160.397 287.188 160.354 287.371 160.275C287.72 160.141 288.073 159.988 288.424 159.916C288.775 159.831 289.124 159.743 289.467 159.674L290.477 159.541C293.129 159.333 295.341 159.86 297.491 159.87C299.623 159.945 301.768 159.35 303.212 157.765Z" fill="#B86767"/>
</g>
<mask id="mask12" style="mask-type:alpha" maskUnits="userSpaceOnUse" x="211" y="141" width="102" height="123">
<path fill-rule="evenodd" clip-rule="evenodd" d="M223.625 142.973C237.208 164.999 233 224.317 211.797 232.802C212.719 236.684 213.471 240.067 213.888 242.466C214.947 248.587 215.383 252.191 216.127 256.962C243.259 264.082 280.316 268.561 307.606 254.801C307.645 246.283 307.349 237.975 306.721 229.825C306.721 229.825 313.595 224.442 312.402 212.518C310.221 190.704 286.739 176.505 282.232 145.537C281.598 145.301 280.985 145.057 280.412 144.808C273.357 153.76 259.017 154.574 259.017 154.574C236.637 155.382 227.534 141.597 227.425 141.429C226.293 141.903 225.064 142.402 223.625 142.973Z" fill="white"/>
</mask>
<g mask="url(#mask12)">
<path fill-rule="evenodd" clip-rule="evenodd" d="M307.099 215.333C305.754 215.287 304.412 215.378 302.892 215.262C302.138 215.182 301.315 215.072 300.471 214.739C299.642 214.4 298.748 213.866 298.069 213.054C296.617 211.433 296.193 209.186 296.369 207.37C296.553 205.518 297.168 203.91 297.926 202.468C299.487 199.591 301.848 197.463 304.484 195.834C305.804 195.02 307.208 194.303 308.753 193.894C310.288 193.474 311.954 193.369 313.561 193.563C315.208 193.766 316.589 194.224 318.037 194.822C319.451 195.425 320.861 196.486 321.614 198.012C322.404 199.506 322.652 201.163 322.713 202.779C322.746 204.398 322.544 206.024 322.001 207.487C320.94 210.421 318.679 212.76 315.748 213.871C314.293 214.438 312.756 214.751 311.306 214.971C309.853 215.191 308.482 215.332 307.099 215.333ZM307.116 214.603C308.375 214.649 309.612 214.113 310.564 213.278C311.529 212.435 312.226 211.313 312.829 210.238C313.438 209.16 313.977 208.123 314.613 207.203C315.245 206.28 315.92 205.42 316.649 204.575C317.362 203.726 318.183 202.896 318.772 201.939C319.373 201.004 319.746 199.887 319.451 198.95C319.213 197.991 318.312 197.344 317.239 197.148C316.185 196.938 314.89 197.134 313.918 197.547C312.9 197.974 311.996 198.611 311.132 199.271C310.271 199.937 309.413 200.597 308.625 201.359C307.044 202.883 305.785 204.727 304.673 206.386C304.112 207.218 303.655 208.054 303.304 208.784C302.973 209.517 302.517 210.084 302.365 210.796C302.162 211.512 302.554 212.667 303.556 213.408C304.53 214.164 305.835 214.533 307.116 214.603Z" fill="#B86767"/>
</g>
<mask id="mask13" style="mask-type:alpha" maskUnits="userSpaceOnUse" x="211" y="141" width="102" height="123">
<path fill-rule="evenodd" clip-rule="evenodd" d="M223.625 142.973C237.208 164.999 233 224.317 211.797 232.802C212.719 236.684 213.471 240.067 213.888 242.466C214.947 248.587 215.383 252.191 216.127 256.962C243.259 264.082 280.316 268.561 307.606 254.801C307.645 246.283 307.349 237.975 306.721 229.825C306.721 229.825 313.595 224.442 312.402 212.518C310.221 190.704 286.739 176.505 282.232 145.537C281.598 145.301 280.985 145.057 280.412 144.808C273.357 153.76 259.017 154.574 259.017 154.574C236.637 155.382 227.534 141.597 227.425 141.429C226.293 141.903 225.064 142.402 223.625 142.973Z" fill="white"/>
</mask>
<g mask="url(#mask13)">
<path fill-rule="evenodd" clip-rule="evenodd" d="M213.962 150.809C212.272 149.647 211.151 147.818 210.044 146.202C209.486 145.394 208.882 144.648 208.239 144.085C207.623 143.542 206.98 143.248 206.22 142.945C205.478 142.636 204.636 142.402 203.723 142.042C202.812 141.684 201.771 141.243 200.607 140.338C200.316 140.086 200.025 139.842 199.731 139.508L199.302 139.005L198.975 138.497C198.763 138.154 198.558 137.802 198.362 137.445C198.183 137.081 198.065 136.673 197.93 136.279C197.627 135.48 197.578 134.673 197.522 133.854C197.52 133.072 197.6 132.289 197.738 131.569C198.404 128.719 199.827 126.661 201.361 124.954C202.913 123.249 204.647 121.886 206.505 120.694C207.45 120.111 208.407 119.554 209.483 119.087C210.54 118.587 211.727 118.264 212.872 118.068C215.182 117.662 217.517 117.879 219.667 118.501C221.823 119.128 223.798 120.192 225.453 121.598C227.121 123.004 228.357 124.8 229.248 126.703C230.99 130.526 232.066 134.735 232.153 138.893C232.154 141.006 231.807 143.217 230.899 145.338C229.987 147.467 228.466 149.391 226.384 150.736C224.316 152.037 222.011 152.524 219.86 152.521C217.707 152.52 215.637 151.988 213.962 150.809ZM214.389 150.216C215.871 151.32 217.915 151.396 219.536 150.7C221.183 150.023 222.459 148.682 223.194 147.338C224.601 144.611 225.216 141.686 226.096 138.237C226.892 134.776 228.171 131.004 227.063 127.586C226.538 125.907 225.434 124.455 223.986 123.57C222.539 122.664 220.78 122.373 219.123 122.463C218.288 122.52 217.471 122.688 216.688 122.885C215.909 123.128 215.157 123.385 214.455 123.712C213.757 124.073 213.112 124.393 212.481 124.834C211.843 125.249 211.184 125.754 210.556 126.286C209.302 127.37 208.157 128.619 207.23 129.867C206.312 131.113 205.605 132.394 205.344 133.307C205.285 133.525 205.249 133.712 205.215 133.886C205.248 134.024 205.151 134.199 205.204 134.311C205.216 134.373 205.183 134.45 205.204 134.522C205.24 134.588 205.266 134.66 205.284 134.739L205.317 134.935C205.317 134.985 205.381 135.07 205.43 135.158C205.984 135.989 207.815 137.378 209.287 139.182C210.033 140.083 210.708 141.234 211.091 142.344C211.458 143.425 211.63 144.452 211.847 145.409C212.233 147.305 212.873 149.112 214.389 150.216Z" fill="#B86767"/>
</g>
<mask id="mask14" style="mask-type:alpha" maskUnits="userSpaceOnUse" x="211" y="141" width="102" height="123">
<path fill-rule="evenodd" clip-rule="evenodd" d="M223.625 142.973C237.208 164.999 233 224.317 211.797 232.802C212.719 236.684 213.471 240.067 213.888 242.466C214.947 248.587 215.383 252.191 216.127 256.962C243.259 264.082 280.316 268.561 307.606 254.801C307.645 246.283 307.349 237.975 306.721 229.825C306.721 229.825 313.595 224.442 312.402 212.518C310.221 190.704 286.739 176.505 282.232 145.537C281.598 145.301 280.985 145.057 280.412 144.808C273.357 153.76 259.017 154.574 259.017 154.574C236.637 155.382 227.534 141.597 227.425 141.429C226.293 141.903 225.064 142.402 223.625 142.973Z" fill="white"/>
</mask>
<g mask="url(#mask14)">
<path fill-rule="evenodd" clip-rule="evenodd" d="M272.897 208.095C269.896 206.278 267.405 204.34 264.912 202.454C263.679 201.524 262.416 200.495 261.376 199.786C260.318 199.086 259.397 198.651 258.794 198.398C258.134 198.141 257.069 198.065 256.437 198.42C256.101 198.573 255.828 198.952 255.753 199.527C255.687 200.105 255.83 200.83 256.089 201.566C256.337 202.309 256.696 203.075 256.988 203.933C257.293 204.784 257.495 205.637 257.697 206.478C258.071 208.157 258.424 209.81 258.929 211.259C259.43 212.715 260.125 213.86 260.848 214.489C261.575 215.134 262.327 215.495 263.356 215.739C265.439 216.19 268.231 215.742 270.938 215.259C272.238 215.023 273.313 214.731 274.134 214.329C274.356 214.222 274.525 214.114 274.68 214.032C274.846 213.937 275.002 213.804 275.159 213.666C275.471 213.384 275.742 213.032 275.941 212.686C276.31 211.979 276.552 211.382 275.965 210.322C275.35 209.31 273.961 208.347 272.571 207.34C272.395 207.217 272.353 206.973 272.477 206.797C272.543 206.703 272.65 206.647 272.755 206.634C274.479 206.451 276.301 206.396 278.276 207.386C279.254 207.887 280.218 208.723 280.845 209.89C281.47 211.05 281.716 212.388 281.635 213.632C281.578 214.893 281.207 216.066 280.665 217.16C280.377 217.698 280.05 218.221 279.655 218.712C279.253 219.22 278.808 219.65 278.377 220.022C276.586 221.573 274.526 222.377 272.677 222.864C270.844 223.32 269.024 223.558 267.056 223.501C265.109 223.44 263.071 223.104 261.033 222.242C259.027 221.394 256.942 219.83 255.942 217.699C255.414 216.675 255.105 215.59 255.002 214.583C254.875 213.576 254.888 212.618 254.959 211.735C255.076 209.963 255.353 208.364 255.263 206.829C255.213 205.259 254.769 203.997 253.93 202.509C253.539 201.762 253.086 200.96 252.789 199.927C252.502 198.903 252.452 197.578 252.981 196.345C253.485 195.117 254.419 194.145 255.454 193.471C256.501 192.786 257.698 192.386 258.992 192.308C261.664 192.195 263.754 193.353 265.269 194.582C266.819 195.835 267.873 197.092 268.946 198.442C271.029 201.158 272.734 204.199 273.492 207.671C273.539 207.887 273.404 208.097 273.189 208.145C273.086 208.167 272.981 208.146 272.897 208.095Z" fill="#B86767"/>
</g>
<mask id="mask15" style="mask-type:alpha" maskUnits="userSpaceOnUse" x="211" y="141" width="102" height="123">
<path fill-rule="evenodd" clip-rule="evenodd" d="M211.797 232.802C212.719 236.684 213.471 240.067 213.888 242.466C214.947 248.587 215.383 252.191 216.127 256.962C243.259 264.082 280.316 268.561 307.606 254.801C307.645 246.283 307.349 237.975 306.721 229.825C306.721 229.825 313.595 224.442 312.402 212.518C310.221 190.704 286.739 175.287 282.232 144.319C281.598 144.083 280.985 143.84 280.412 143.59C273.357 152.543 259.017 154.574 259.017 154.574C236.637 155.382 227.534 141.597 227.425 141.429C226.293 141.903 225.064 142.402 223.625 142.973C237.208 164.999 233 224.317 211.797 232.802Z" fill="white"/>
</mask>
<g mask="url(#mask15)">
<g style="mix-blend-mode:overlay">
<path fill-rule="evenodd" clip-rule="evenodd" d="M233.824 248.997C230.267 239.509 223.266 231.166 224.029 219.488C224.018 219.448 224.007 219.413 223.996 219.374C220.891 225.922 216.822 230.791 211.797 232.803C212.719 236.685 213.47 240.068 213.887 242.466C214.935 248.512 215.383 252.321 216.136 257.026C217.308 257.305 225.984 259.387 232.668 260.671C233.998 256.78 235.121 252.889 233.824 248.997Z" fill="black" fill-opacity="0.25"/>
</g>
</g>
<path fill-rule="evenodd" clip-rule="evenodd" d="M172.11 275.596C172.229 275.74 172.348 275.885 172.469 276.031C178.647 283.54 185.744 291.117 210.237 311.216C222.753 321.488 232.131 328.067 239.132 332.532C250.168 339.571 252.331 325.699 252.331 325.699C252.331 325.699 224.788 292.283 212.66 281.643C200.53 271.005 193.449 264.851 189.283 260.258C188.832 259.76 170.303 273.409 172.11 275.596Z" fill="#AD603F"/>
<path fill-rule="evenodd" clip-rule="evenodd" d="M212.975 147.118C205.625 150.407 200.995 153.586 196.411 158.287C184.521 170.481 178.729 187.457 176.813 203.778C175.122 218.175 174.101 232.67 173.149 247.131C172.818 252.171 172.514 257.214 172.258 262.258C172.146 264.462 171.279 274.624 172.051 275.433C180.232 287.206 189.381 284.04 194.035 284.268C210.341 236.308 211.539 205.549 211.854 200.305C219.244 188.72 218.066 156.135 212.975 147.118Z" fill="#AD603F"/>
<g style="mix-blend-mode:overlay">
<path fill-rule="evenodd" clip-rule="evenodd" d="M184.16 233.342C185.964 204.151 202.878 194.968 206.405 169.788C206.89 161.379 206.185 152.971 203.4 152.356C200.861 154.101 198.627 156.015 196.412 158.287C184.521 170.48 178.729 187.457 176.813 203.778C175.122 218.175 174.101 232.67 173.149 247.131C172.818 252.17 172.514 257.214 172.258 262.259C172.146 264.463 171.923 266.998 171.837 269.203C172.465 269.869 176.898 270.518 180.039 264.387C183.181 258.256 183.206 243.741 184.16 233.342Z" fill="black" fill-opacity="0.15"/>
</g>
<path fill-rule="evenodd" clip-rule="evenodd" d="M261.679 325.668C267.285 326.373 275.241 328.285 276.209 330.243C276.713 331.924 272.931 332.269 268.611 332.244C266.484 332.232 262.663 331.529 262.49 332.615C262.31 333.762 264.407 336.142 267.038 337.835C274.569 342.681 280.501 342.538 288.972 345.651C289.742 345.934 290.622 346.379 290.718 347.194C290.875 348.54 288.948 348.955 287.597 348.829C283.229 348.417 278.555 347.529 274.188 347.117C278.941 348.948 284.002 351.257 288.754 353.088C289.276 353.288 290.127 353.677 290.301 354.207C290.679 355.364 288.661 355.815 287.447 355.74C282.846 355.454 277.171 354.544 271.616 353.117C276.127 355.431 286.411 358.65 285.642 360.973C285.555 363.035 266.322 357.37 258.774 351.492C252.011 346.223 248.71 341.707 246.936 338.914C245.227 336.221 240.245 333.376 236.771 330.782C234.215 328.875 241.718 319.176 244.182 321.204C248.057 324.391 250.113 324.233 252.433 324.622C255.494 325.136 258.604 325.282 261.679 325.668Z" fill="#AD603F"/>
<g style="mix-blend-mode:overlay">
<path fill-rule="evenodd" clip-rule="evenodd" d="M265.837 343.385C260.318 337.05 244.895 334.878 243.383 335.2C244.923 336.449 246.213 337.775 246.936 338.915C248.71 341.708 252.009 346.224 258.774 351.492C261.019 353.24 264.301 354.969 267.804 356.483C262.323 351.729 271.284 350.098 265.837 343.385Z" fill="black" fill-opacity="0.15"/>
</g>
<path fill-rule="evenodd" clip-rule="evenodd" d="M335.012 236.027C309.636 267.676 300.298 306.504 295.026 318.206C293.418 321.773 303.971 326.712 306.261 323.552C308.533 320.416 311.8 312.71 317.883 304.721C324.888 295.525 331.175 285.761 336.391 276.878C337.998 263.469 336.519 249.768 335.012 236.027Z" fill="#AD603F"/>
<path fill-rule="evenodd" clip-rule="evenodd" d="M302.898 340.261C302.93 334.436 304.709 327.176 307.781 321.097C309.691 317.313 296.986 313.459 295.992 315.996C293.717 321.811 291.93 323.221 289.24 325.632C288.418 326.368 287.735 327.048 287.119 327.703C287.091 327.728 287.06 327.743 287.031 327.77C286.738 328.038 286.322 328.537 285.878 329.108C285.48 329.599 285.124 330.073 284.82 330.524C284.3 331.245 283.829 331.92 283.556 332.304C282.226 334.184 280.645 335.887 278.86 337.343C276.061 339.626 272.801 341.291 269.441 342.618C268.334 343.054 267.169 343.488 266.374 344.372C266.263 344.496 266.156 344.638 266.147 344.804C266.14 344.966 266.228 345.117 266.331 345.242C266.944 345.987 268.028 346.085 268.993 346.112C270.531 346.153 272.518 345.799 274.502 345.319C269.307 349.359 263.707 352.522 265.003 354.333C266.703 356.711 277.617 350.368 279.616 348.684C278.364 351.487 274.984 354.605 272.144 357.314C270.975 358.431 268.696 360.204 270.013 361.304C271.361 362.431 273.637 361.468 275.504 359.922C278.847 357.157 281.335 355.544 284.516 351.312C283.843 354.986 280.506 358.667 278.442 361.78C277.68 362.931 276.771 364.276 277.747 364.894C279.646 366.098 281.515 364.287 283.392 362.406C288.091 357.693 289.388 355.984 293.725 349.406C294.285 348.555 294.536 348.164 295.074 347.472C295.668 346.708 295.908 347.545 295.739 349.348C295.398 353.012 291.475 359.21 293.518 360.149C295.668 361.068 302.857 347.619 302.898 340.261Z" fill="#AD603F"/>
<g style="mix-blend-mode:overlay">
<path fill-rule="evenodd" clip-rule="evenodd" d="M289.82 347.17C296.59 344.83 293.059 342.537 295.955 337.828C297.239 335.741 294.884 331.623 292.297 329.848C290.481 328.602 286.619 328.183 286.142 328.774C285.532 329.526 284.975 330.293 284.821 330.525C284.3 331.245 283.828 331.92 283.556 332.305C282.227 334.185 280.645 335.886 278.86 337.342C276.897 341.429 284.21 349.11 289.82 347.17Z" fill="black" fill-opacity="0.15"/>
</g>
<path fill-rule="evenodd" clip-rule="evenodd" d="M301.005 426.599C301.005 426.599 235.186 409.849 230.796 408.993C218.725 406.641 154.05 393.939 131.111 381.959C131.377 369.974 141.034 360.768 146.258 360.12C150.121 357.941 174.022 354.595 185.178 356.259C211.747 360.22 225.485 368.798 238.224 375.901C249.648 382.272 265.395 391.999 275.633 396.646C286.437 400.972 297.118 399.625 300.863 399.706C300.863 399.706 315.89 414.651 301.005 426.599Z" fill="#AD603F"/>
<g style="mix-blend-mode:overlay">
<path fill-rule="evenodd" clip-rule="evenodd" d="M141.421 386.44C169.319 396.937 220.227 406.935 230.795 408.994C232.752 409.375 246.887 412.907 261.966 416.708C256.877 412.516 252.652 407.719 237.928 405.849C203.406 401.464 161.963 374.293 141.421 386.44Z" fill="black" fill-opacity="0.15"/>
</g>
<path fill-rule="evenodd" clip-rule="evenodd" d="M330.265 459.446C330.317 459.821 333.818 465.56 340.713 465.8L348.564 458.717C348.564 458.717 351.112 447.45 351.117 447.185C351.123 446.92 341.811 419.734 341.811 419.734L320.369 417.319L334.691 445.94L330.265 459.446Z" fill="#CEE5D0"/>
<path fill-rule="evenodd" clip-rule="evenodd" d="M302.231 395.099C302.231 395.099 302.355 394.819 302.925 394.442C303.866 393.823 305.834 393.188 308.273 393.161C308.273 393.161 316.92 395.017 320.083 406.092C322.754 415.449 324.274 416.455 327.623 418.924C327.623 418.924 326.774 423.19 333.082 428.75C339.389 434.309 341.156 451.491 338.255 457.226C335.356 462.962 331.879 460.617 330.264 459.447C328.651 458.277 326.083 454.691 323.759 451.488C321.433 448.285 318.592 445.702 316.969 444.91L302.231 395.099Z" fill="white"/>
<path fill-rule="evenodd" clip-rule="evenodd" d="M300.297 429.165C300.297 429.165 292.459 430.128 288.697 429.289C284.933 428.45 283.477 425.897 284.685 422.519C285.894 419.143 283.914 417.46 286.103 415.366C288.293 413.271 288.837 411.391 294.098 412.893C299.359 414.396 305.173 413.767 306.074 412.904C306.074 412.904 307.299 408.771 303.863 404.535C300.426 400.3 295.663 399.061 297.773 394.821C297.773 394.821 300.775 395.896 302.95 394.431C302.95 394.431 302.047 395.293 303.765 397.474C305.482 399.655 313.124 401.839 312.876 407.38C312.629 412.921 308.91 412.415 309.154 416.123C309.455 420.678 315.492 420.296 319.33 423.532C323.166 426.767 329.297 435.947 324.497 444.674C324.497 444.674 322.194 450.384 314.493 442.838C308.062 436.537 308.085 436.143 305.714 435.082C303.342 434.022 300.628 431.315 300.297 429.165Z" fill="#E85D5D"/>
<path fill-rule="evenodd" clip-rule="evenodd" d="M300.143 428.329C300.143 428.329 291.369 429.207 291.055 427.671C290.814 426.26 291.821 425.715 292.253 424.2C292.699 422.631 291.512 421.233 293.304 419.975C294.68 419.008 299.802 422.284 303.002 421.757C300.828 423.646 299.592 427.259 300.143 428.329Z" fill="#CEE5D0"/>
<path fill-rule="evenodd" clip-rule="evenodd" d="M308.273 393.161C308.273 393.161 311.121 391.285 316.408 392.197C316.408 392.197 325.834 395.612 328.454 407.721C330.481 417.092 337.228 419.015 339.847 424.645C339.847 424.645 332.342 422.124 326.905 418.458C321.469 414.792 322.171 412.707 319.321 404.893C315.432 394.232 308.273 393.161 308.273 393.161Z" fill="#E44E46"/>
<path fill-rule="evenodd" clip-rule="evenodd" d="M316.408 392.197C316.408 392.197 322.264 391.441 326.234 391.881C330.205 392.323 333.384 399.494 334.674 405.624C336.339 413.542 342.813 414.449 347.324 422.509C351.837 430.571 356.926 448.552 350.805 461.42C350.805 461.42 348.033 466.844 340.713 465.8C340.713 465.8 339.235 464.616 341.083 461.031C342.93 457.444 345.997 458.838 347.233 454.884C348.47 450.931 350.508 438.286 339.846 424.645C339.846 424.645 330.211 419.44 328.506 411.4C326.123 400.183 320.756 393.366 316.408 392.197Z" fill="#10145F"/>
<path fill-rule="evenodd" clip-rule="evenodd" d="M297.772 394.821C297.785 394.801 291.92 393.705 290.081 393.628C288.306 393.554 286.813 395.298 286.557 399.387C289.255 399.923 295.488 401.173 299.702 400.184C299.702 400.184 296.253 397.63 297.772 394.821Z" fill="#E85D5D"/>
<path fill-rule="evenodd" clip-rule="evenodd" d="M310.853 424.429C310.851 424.369 310.842 424.308 310.824 424.249C310.712 423.88 310.321 423.671 309.953 423.783C305.924 425.011 302.619 430.234 303.253 434.326C303.314 434.707 303.672 434.968 304.052 434.907C304.433 434.847 304.695 434.493 304.634 434.11C304.108 430.742 307.044 426.128 310.359 425.12C310.668 425.025 310.864 424.737 310.853 424.429Z" fill="white"/>
<path fill-rule="evenodd" clip-rule="evenodd" d="M313.507 427.509C313.503 427.424 313.485 427.337 313.448 427.256C313.296 426.9 312.885 426.739 312.53 426.893C311.058 427.532 308.825 429.189 307.404 431.121C306.447 432.427 305.853 435.019 306.518 436.403C306.685 436.75 307.102 436.896 307.449 436.73C307.798 436.563 307.941 436.146 307.777 435.798C307.386 434.985 307.781 432.97 308.531 431.948C309.791 430.234 311.818 428.724 313.087 428.174C313.357 428.056 313.517 427.788 313.507 427.509Z" fill="white"/>
<path fill-rule="evenodd" clip-rule="evenodd" d="M316.214 430.834C316.212 430.754 316.196 430.674 316.164 430.596C316.019 430.238 315.613 430.066 315.256 430.21C313.324 430.991 311.55 432.289 310.506 433.681C309.448 435.096 308.899 436.991 309.088 438.605C309.132 438.989 309.477 439.264 309.86 439.22C310.244 439.176 310.544 438.822 310.475 438.448C310.337 437.186 310.783 435.642 311.624 434.519C312.508 433.339 314.099 432.184 315.779 431.504C316.057 431.391 316.225 431.118 316.214 430.834Z" fill="white"/>
<path fill-rule="evenodd" clip-rule="evenodd" d="M319.31 433.816C319.307 433.715 319.281 433.611 319.233 433.515C319.052 433.174 318.63 433.043 318.289 433.223C317.339 433.722 314.987 435.072 313.659 436.806C312.297 438.585 312.262 440.202 312.393 441.547C312.434 441.931 312.777 442.21 313.159 442.171C313.544 442.13 313.828 441.785 313.784 441.404C313.649 440.103 313.764 438.965 314.769 437.655C315.927 436.14 318.071 434.915 318.938 434.457C319.184 434.329 319.32 434.075 319.31 433.816Z" fill="white"/>
<path fill-rule="evenodd" clip-rule="evenodd" d="M321.823 437.254C321.822 437.214 321.817 437.173 321.808 437.131C321.728 436.754 321.357 436.515 320.98 436.596C319.407 436.933 317.887 438.159 316.804 439.96C315.789 441.651 315.391 443.513 315.761 444.817C315.868 445.188 316.255 445.401 316.625 445.296C316.997 445.19 317.213 444.807 317.105 444.433C316.838 443.504 317.19 442.03 318.001 440.678C318.87 439.23 320.094 438.214 321.271 437.961C321.609 437.889 321.835 437.586 321.823 437.254Z" fill="white"/>
<path fill-rule="evenodd" clip-rule="evenodd" d="M276.876 386.382C259.481 380.961 250.218 375.99 238.246 371.02C224.773 365.429 211.501 358.943 184.931 354.981C173.774 353.318 150.122 357.941 146.259 360.121C141.035 360.769 122.957 373.051 131.577 383.526C154.516 395.507 198.003 404.779 210.04 407.294C230.376 411.543 244.528 414.879 265.472 423.986C271.617 418.426 280.717 404.681 276.876 386.382Z" fill="#323C84"/>
<g style="mix-blend-mode:overlay">
<path fill-rule="evenodd" clip-rule="evenodd" d="M237.477 408.498C205.82 395.105 172.946 387.8 140.072 385.365C139.653 385.365 139.089 385.372 138.483 385.469C162.432 395.999 199.193 405.027 210.039 407.294C222.716 409.944 235.391 413.299 248.215 417.658C245.512 413.355 241.702 409.906 237.477 408.498Z" fill="black" fill-opacity="0.25"/>
</g>
<path fill-rule="evenodd" clip-rule="evenodd" d="M210.75 23.7308C210.75 26.3534 208.504 27.6151 208.504 29.928C208.504 32.2409 209.627 32.7865 209.627 36.3001C209.627 39.8137 209.819 44.9113 214.454 46.7544C219.088 48.5976 221.282 47.5835 223.776 51.73C226.27 55.8764 233.648 51.73 235.892 51.73C238.136 51.73 243.292 53.9429 245.31 51.73C247.328 49.5171 247.714 46.7544 252.625 46.7544C257.536 46.7544 261.137 43.0384 261.137 38.6518C261.137 34.2652 259.791 28.9843 263.384 26.3576C266.977 23.7308 261.062 16.3582 258.547 16.3582C256.033 16.3582 254.402 14.0643 254.402 10.8624C254.402 7.66062 251.238 2.89053 246.758 2.89053C242.278 2.89053 237.125 3.43084 236.508 1.40969C235.892 -0.611458 226.208 -0.739953 226.208 2.89053C226.208 6.52102 224.507 6.22085 221.475 6.22085C218.443 6.22085 217.289 8.52953 217.289 10.8624C217.289 13.1953 210.75 12.9598 210.75 18.3453C210.75 23.7308 210.75 21.1083 210.75 23.7308Z" fill="#B5D3FF"/>
<g style="mix-blend-mode:overlay">
<path fill-rule="evenodd" clip-rule="evenodd" d="M211.272 21.673C212.294 26.6817 214.158 29.1861 216.863 29.1861C220.921 29.1861 219.684 35.4961 223.892 33.6454C228.101 31.7946 231.231 35.5769 232.522 32.3815C233.814 29.1861 239.954 34.9092 240.966 33.6454C241.979 32.3815 245.497 34.9138 245.497 37.7193C245.497 40.2392 243.686 48.8911 241.661 52.4739C239.535 52.3452 237.111 51.5287 235.762 51.5287C233.566 51.5287 226.349 55.5809 223.909 51.5287C221.47 47.4765 219.324 48.4676 214.79 46.6663C210.255 44.865 210.068 39.8832 210.068 36.4495C210.068 33.0158 208.97 32.4826 208.97 30.2223C208.97 27.962 211.166 26.7289 211.166 24.1659L211.165 21.809C211.201 21.7637 211.236 21.7184 211.272 21.673Z" fill="black" fill-opacity="0.25"/>
</g>
<path fill-rule="evenodd" clip-rule="evenodd" d="M262.879 36.3661C281.108 34.0089 293.08 55.8045 291.839 75.0786C291.747 76.5153 292.371 79.3327 292.592 80.644C294.541 92.1707 284.253 121.758 272.594 122.683C272.137 122.719 271.677 122.74 271.213 122.747C266.122 139.064 279.162 144.347 279.162 144.347C272.109 153.3 257.768 154.114 257.768 154.114C235.25 154.927 226.169 140.961 226.169 140.961C245.685 134.399 237.772 103.97 235.137 95.4763C234.859 94.682 234.669 94.0683 234.56 93.7C234.495 93.5076 234.449 93.3771 234.426 93.3137C228.862 94.69 227.926 89.09 227.926 86.3008C227.926 83.5078 225.111 80.8936 227.227 77.2251C230.346 71.8155 236.304 75.1297 236.304 75.1297C239.096 55.5817 243.323 38.895 262.879 36.3661Z" fill="#AD603F"/>
<g style="mix-blend-mode:overlay">
<path fill-rule="evenodd" clip-rule="evenodd" d="M238.769 103.471C243.915 112.476 258.641 122.926 271.208 122.747C265.72 139.116 252.403 147.843 237.125 145.778C229.417 144.737 226.169 140.961 226.169 140.961C245.693 134.396 237.766 103.947 235.134 95.467C235.802 97.3791 236.981 100.342 238.769 103.471Z" fill="black" fill-opacity="0.25"/>
</g>
<path fill-rule="evenodd" clip-rule="evenodd" d="M245.965 33.4163C265.551 29.6992 278.711 34.8282 285.443 48.8035H252.95C252.038 62.8386 246.489 71.614 236.304 75.1297C235.803 74.8859 234.927 74.615 233.676 74.3169C232.425 74.0188 231.136 74.1415 229.811 74.6851C220.994 50.8897 226.379 37.1335 245.965 33.4163Z" fill="#B5D3FF"/>
<path d="M247.819 47.9098C247.819 54.8969 245.713 61.0794 241.814 64.7268C239.025 67.336 234.82 69.0935 229.206 70.0189L228.577 70.1184L228.395 68.9144C234.101 68.0524 238.294 66.3528 240.982 63.8377C244.504 60.5429 246.489 54.9112 246.597 48.4643L246.602 47.9098H247.819Z" fill="#AD603F"/>
<path d="M242.827 47.9098C242.827 56.7895 237.83 62.4419 227.988 64.7651L227.5 64.8766L227.237 63.6878C236.711 61.5905 241.45 56.5046 241.605 48.3282L241.609 47.9098H242.827Z" fill="#AD603F"/>
<path d="M238.764 47.9098C238.764 51.6332 237.385 54.6206 234.649 57.1926C233.066 58.6803 230.599 59.5813 227.256 59.9237L226.772 59.9688L226.67 58.7556C230.01 58.4736 232.388 57.6461 233.815 56.3055C236.209 54.0545 237.442 51.5079 237.54 48.3281L237.547 47.9098H238.764Z" fill="#AD603F"/>
<path fill-rule="evenodd" clip-rule="evenodd" d="M267.994 100.617C267.367 100.533 266.427 100.526 265.801 100.442C265.614 100.416 266.114 101.063 266.03 101.233C265.968 101.355 266.025 101.502 266.086 101.624C266.713 102.882 267.837 103.851 269.102 104.466C270.367 105.079 271.771 105.362 273.171 105.487C274.004 105.562 274.845 105.582 275.673 105.47C278.485 105.093 279.853 104.585 281.3 102.145C281.968 101.018 274.921 98.2927 272.51 99.2144C271.535 99.5858 269.028 100.756 267.994 100.617Z" fill="#AA614D"/>
<path fill-rule="evenodd" clip-rule="evenodd" d="M275.812 97.9221C275.108 98.1437 274.504 98.8292 274.601 99.5597C274.689 100.232 275.291 100.697 275.813 101.129C276.765 101.917 277.603 102.844 278.293 103.87C278.472 104.135 278.664 104.426 278.968 104.526C279.473 104.692 279.96 104.255 280.296 103.844C281.348 102.556 282.212 101.127 283.072 99.7034C283.155 99.5646 283.235 99.3747 283.124 99.2566C283.062 99.1908 282.962 99.1787 282.872 99.1701C281.626 99.0545 280.391 98.8256 279.186 98.4859C278.085 98.1754 276.987 97.5532 275.812 97.9221Z" fill="#300D07"/>
<path fill-rule="evenodd" clip-rule="evenodd" d="M278.933 103.335C279.18 103.376 279.432 103.427 279.644 103.562C279.856 103.696 280.019 103.935 279.995 104.184C279.968 104.461 279.73 104.667 279.499 104.82C278.622 105.403 277.578 105.688 276.532 105.818C275.162 105.989 273.763 105.905 272.423 105.574C272.088 105.491 271.746 105.387 271.488 105.157C270.764 104.511 271.38 104.164 271.994 103.947C272.725 103.688 273.479 103.49 274.244 103.356C275.79 103.086 277.384 103.075 278.933 103.335ZM275.403 97.7669C277.803 97.471 278.259 97.6536 280.577 98.3367C280.671 98.3647 280.524 98.9869 281.498 98.9077C281.656 98.8943 282.367 99.1038 282.329 99.2584C282.199 99.8112 280.045 100.778 278.341 101.143C275.885 101.669 272.99 101.964 269.616 101.538C268.185 101.357 267.072 101.012 267.116 100.442C267.145 100.073 269.309 99.3022 269.926 98.8943C271.345 97.9556 273.714 97.9751 275.403 97.7669Z" fill="#F4F0E9"/>
<path fill-rule="evenodd" clip-rule="evenodd" d="M283.437 98.9376C283.625 98.9023 283.92 98.7513 283.961 98.8012C284.002 98.8499 283.743 99.0679 283.506 99.2444L283.419 99.3014C283.434 99.3215 283.422 99.3705 283.379 99.4546C281.968 102.406 281.76 102.984 280.1 105.313C279.599 106.018 278.615 106.771 277.844 107.164C275.661 108.273 271.674 108.311 269.407 106.794C268.178 105.972 267.07 104.83 266.375 103.53C266.059 102.939 264.423 99.3231 265.826 100.572C266.279 100.977 267.238 101.86 267.776 102.22C268.368 102.612 269.197 103.039 269.85 103.317C271.206 103.895 273.33 104.167 275.734 103.871C277.943 103.598 280.472 102.279 281.989 100.539C282.307 100.175 282.73 99.7629 283.035 99.5152C281.983 99.9794 280.636 99.7222 279.292 99.5305C277.59 99.287 276.873 99.2566 275.178 99.5451C272.144 100.064 268.586 102.259 265.741 100.46C265.581 100.358 265.4 100.211 265.415 100.134C265.433 100.059 265.646 100.148 265.817 100.143C268.417 100.074 271.282 96.8957 273.912 97.2123C274.539 97.2878 275.156 97.5009 275.784 97.4388C276.385 97.3779 276.925 97.0552 277.511 96.9128C279.509 96.4318 281.202 99.3576 283.437 98.9376ZM275.545 67.556C275.907 67.7349 276.055 68.1721 275.878 68.5337C275.867 68.5568 274.737 70.8629 274.404 72.5869C274.016 74.6032 273.888 77.0968 275.876 80.299C276.516 81.3278 277.33 82.213 278.119 83.0702C279.489 84.558 280.781 85.9631 280.523 87.6811C280.297 89.1823 278.957 90.574 276.178 92.1958C276.061 92.264 275.936 92.2956 275.811 92.2956C275.559 92.2956 275.315 92.1666 275.177 91.9328C274.974 91.5846 275.092 91.1377 275.44 90.9344C277.708 89.6121 278.931 88.4445 279.079 87.4631C279.233 86.4379 278.219 85.3361 277.044 84.0588C276.248 83.1956 275.347 82.2167 274.634 81.0697C272.369 77.4195 272.554 74.4705 272.97 72.3106C273.34 70.3917 274.518 67.9894 274.567 67.8884C274.745 67.5255 275.185 67.3782 275.545 67.556ZM234.399 78.9701C234.671 79.2672 234.651 79.7299 234.354 80.0026C234.055 80.2742 233.593 80.2547 233.322 79.9576C233.132 79.7506 232.279 79.5558 231.637 80.0148C231.457 80.1439 231.222 80.4787 231.15 80.9986C231.07 81.5919 231.226 82.2558 231.596 82.9241C232.858 81.6329 234.164 82.0106 234.584 82.1844C235.231 82.4523 235.53 82.848 235.428 83.2985C235.337 83.6942 234.94 83.9377 234.554 83.8488C234.386 83.8111 234.246 83.7185 234.146 83.5943C234.041 83.5298 233.778 83.4166 233.456 83.4677C233.108 83.5254 232.759 83.7713 232.431 84.1846C232.878 85.0883 232.632 86.0109 232.427 86.7759C232.164 87.7622 232.116 88.142 232.597 88.5317C232.91 88.7861 232.957 89.2464 232.703 89.5593C232.558 89.7371 232.347 89.8296 232.135 89.8296C231.972 89.8296 231.809 89.776 231.674 89.6664C230.417 88.6437 230.763 87.347 231.016 86.3997C231.239 85.5645 231.349 85.0689 230.986 84.6196C229.711 83.0356 229.584 81.6683 229.704 80.8001C229.818 79.9673 230.224 79.2295 230.789 78.8265C231.994 77.9669 233.688 78.1946 234.399 78.9701ZM266.519 76.0526C266.615 76.1878 266.603 76.3728 266.488 76.4946C266.378 76.6127 263.726 79.4107 259.59 80.4151C258.259 80.7378 257.096 80.8656 256.076 80.8656C254.184 80.8656 252.779 80.4273 251.684 79.9805C251.518 79.9135 251.431 79.7309 251.481 79.5592C251.658 78.9565 252.429 77.8351 254.157 77.9496L254.607 77.98C256.719 78.131 260.643 78.411 266.09 75.9382C266.241 75.87 266.421 75.9175 266.519 76.0526ZM293.004 75.6399C293.054 75.73 293.062 75.8371 293.027 75.9345C292.99 76.0307 292.914 76.1062 292.817 76.1403C292.364 76.301 291.937 76.4958 291.484 76.7016C290.198 77.286 288.741 77.9484 286.241 78.0226C286.126 78.0263 286.011 78.0275 285.9 78.0275C282.212 78.0275 280.604 76.2109 280.536 76.1318C280.436 76.0161 280.423 75.8505 280.503 75.7214C280.581 75.5912 280.734 75.5266 280.883 75.5644C284.45 76.441 286.605 75.7141 288.338 75.1297C289.151 74.8557 289.851 74.6195 290.569 74.5854C292.351 74.51 292.978 75.5936 293.004 75.6399Z" fill="#3F1B13"/>
<path fill-rule="evenodd" clip-rule="evenodd" d="M264.705 64.6023C265.14 64.6133 265.541 65.1247 265.899 66.1243C266.235 67.0643 266.619 68.8163 265.92 69.419C265.496 69.7867 263.994 69.9755 261.152 70.3042C258.64 70.5964 255.791 70.9264 254.815 71.4317C252.644 72.553 246.757 76.6952 246.697 76.7366C246.636 76.7792 246.567 76.7999 246.496 76.7999C246.422 76.7999 246.347 76.7756 246.283 76.7281C246.163 76.6355 246.116 76.4736 246.17 76.3299C246.275 76.0426 248.839 69.2632 254.454 66.8743C259.795 64.6023 263.933 64.5865 264.705 64.6023Z" fill="#B5D3FF"/>
<path fill-rule="evenodd" clip-rule="evenodd" d="M286.86 64.2913C290.473 65.258 291.976 66.976 292.239 67.3108C292.613 67.7773 292.681 68.7261 292.683 69.7197L292.682 70.1417C292.682 70.3048 292.566 70.4473 292.406 70.4826C292.381 70.4875 292.356 70.4899 292.333 70.4899C292.197 70.4899 292.072 70.412 292.015 70.2853C291.753 69.7094 290.995 69.1968 289.628 68.6709C288.597 68.2739 285.926 68.4298 283.78 68.5564C281.301 68.7001 279.984 68.7597 279.52 68.4334C278.804 67.9294 278.976 66.5413 279.083 65.9679C279.139 65.6683 279.453 64.1647 280.167 63.9857C280.954 63.7896 283.04 63.2697 286.86 64.2913Z" fill="#B5D3FF"/>
<path fill-rule="evenodd" clip-rule="evenodd" d="M256.6 138.066C255.775 138.066 255.003 138.05 254.303 138.027C247.589 137.798 239.127 135.803 235.947 132.431C235.681 132.15 235.695 131.708 235.976 131.444C236.255 131.181 236.699 131.192 236.962 131.472C239.854 134.536 248.08 136.417 254.35 136.631C262.465 136.909 268.345 135.759 270.506 133.482C270.77 133.201 271.212 133.191 271.492 133.455C271.772 133.721 271.785 134.163 271.519 134.443C268.651 137.467 261.675 138.066 256.6 138.066Z" fill="#181830"/>
<path fill-rule="evenodd" clip-rule="evenodd" d="M261.093 140.647C261.244 141.839 262.675 143.17 264.463 141.833C264.2 143.359 262.802 143.864 262.061 143.908C260.42 144.005 259.002 142.639 258.896 140.854C258.791 139.071 259.981 137.625 261.621 137.504C262.638 137.428 263.428 137.842 263.842 138.502C262.185 137.786 260.892 139.06 261.093 140.647Z" fill="white"/>
</svg>
