<svg width="615" height="448" viewBox="0 0 615 448" fill="none" xmlns="http://www.w3.org/2000/svg">
<path fill-rule="evenodd" clip-rule="evenodd" d="M135.565 60.737C142.72 74.0731 141.869 107.901 132.622 110.285C128.935 111.235 121.079 108.907 113.084 104.088L118.102 139.592H88.4694L98.6699 92.0432C92.981 85.3652 89.1307 77.1814 89.7742 68.0112C91.6281 41.5882 128.41 47.4009 135.565 60.737Z" fill="#915B3C"/>
<path fill-rule="evenodd" clip-rule="evenodd" d="M148.692 42.2493C148.079 40.0924 146.428 38.2456 144.204 37.6977C143.665 37.5648 143.108 37.5111 142.552 37.5335C142.353 37.5415 142.298 37.5989 142.205 37.4596C142.135 37.3564 142.134 37.1042 142.106 36.9829C142.017 36.6057 141.907 36.2332 141.77 35.8704C141.305 34.6328 140.523 33.5375 139.58 32.6148C137.816 30.8887 135.433 29.6974 132.958 29.4819C131.603 29.364 130.258 29.5841 128.977 30.0249C128.313 30.2531 127.67 30.5372 127.044 30.8513C126.855 30.9459 126.244 31.4089 126.054 31.3789C125.845 31.3459 125.425 30.8264 125.255 30.696C123.155 29.0843 120.56 28.4506 117.944 28.4696C114.99 28.4918 112.147 28.6394 109.683 30.4398C109.162 30.821 108.665 31.2383 108.193 31.6777C107.944 31.9091 107.702 32.1491 107.472 32.3991C107.334 32.5499 107.199 32.7041 107.068 32.8625C106.848 33.1313 106.883 33.2196 106.574 33.032C105.389 32.3118 104.015 31.975 102.631 32.145C101.81 32.2461 101.01 32.4927 100.251 32.8174C99.993 32.9279 99.3948 33.3688 99.1194 33.373C98.8462 33.3773 98.2564 32.9686 97.9749 32.8647C96.4547 32.3035 94.8162 32.1652 93.2183 32.4245C91.5701 32.6921 89.951 33.3497 88.5545 34.2584C87.8828 34.6955 87.2968 35.1799 86.8261 35.8298C86.6229 36.1105 86.4392 36.4073 86.2088 36.6675C86.0739 36.8199 85.8069 36.9762 85.7345 37.169C85.7778 37.0536 83.932 36.342 83.7578 36.2965C82.8298 36.0541 81.8849 36.1033 80.9762 36.4023C79.2675 36.9646 77.798 38.2256 76.5903 39.5185C75.97 40.1826 75.4272 40.9167 74.9664 41.6987C74.7456 42.0734 74.5436 42.4587 74.3589 42.8522C74.2693 43.0428 74.21 43.2813 74.0921 43.453C73.94 43.6743 73.8379 43.6785 73.5625 43.775C72.1641 44.2649 70.8893 45.0942 69.9185 46.2147C68.9366 47.3483 68.2994 48.7444 68.0323 50.2145C68.0166 50.3011 68.0072 50.66 67.9565 50.7069C67.887 50.7714 67.6058 50.7429 67.4994 50.7553C67.131 50.7986 66.7652 50.8629 66.4043 50.9483C65.739 51.1058 65.0914 51.3375 64.4788 51.6406C62.0909 52.8221 60.3832 55.0371 59.5475 57.5295C58.6705 60.1451 58.6861 63.1418 59.7342 65.7086C59.9035 66.1232 60.105 66.5256 60.3416 66.9063C60.4869 67.14 60.5337 67.1405 60.4394 67.3857C60.3342 67.6585 60.1422 67.9236 60.0173 68.1901C59.6099 69.0599 59.3251 69.9824 59.1452 70.9246C58.8501 72.4702 58.7038 74.0944 58.995 75.6517C59.1302 76.3748 59.3657 77.0817 59.7251 77.7257C59.9083 78.0541 60.1227 78.3656 60.3648 78.6537C60.4904 78.8033 60.6239 78.9461 60.7635 79.083C60.8434 79.1612 60.948 79.2296 61.0159 79.3169C61.1816 79.5299 61.2165 79.3548 61.131 79.6675C61.0115 80.1046 60.7406 80.5359 60.5748 80.9613C60.4038 81.3996 60.2494 81.844 60.108 82.2927C59.8219 83.2013 59.5799 84.1264 59.4286 85.0674C59.138 86.874 59.189 88.7991 60.0436 90.4572C60.409 91.1664 60.9331 91.7886 61.5689 92.2726C61.8801 92.5094 62.2171 92.7134 62.5707 92.881C62.7524 92.9673 62.9844 93.0043 63.0672 93.18C63.1564 93.3689 63.024 93.7441 62.9938 93.9553C62.7311 95.7929 62.5993 97.7222 63.1455 99.5229C63.6486 101.182 64.7563 102.646 66.1945 103.615C68.9844 105.496 72.7451 105.39 75.6766 103.884C76.4408 103.492 77.1557 103.005 77.7934 102.43C79.4173 104.616 82.7589 104.547 85.1323 103.924C88.0892 103.148 90.4618 101.092 91.8288 98.3903C93.6981 100.666 97.6209 99.9275 98.9171 97.459C99.2344 96.8548 99.4226 96.189 99.5152 95.5152C99.564 95.1608 99.5329 94.8034 99.5695 94.4519C99.6162 94.004 99.9154 93.5687 100.087 93.1354C100.422 92.2921 100.63 91.421 100.639 90.5114C100.644 90.0365 100.584 89.5737 100.539 89.1026C100.498 88.6785 100.616 88.2834 100.682 87.8648C99.9241 87.9897 99.0002 87.7852 98.2857 87.5653C97.5845 87.3495 96.9279 86.7812 96.433 86.2622C95.2839 85.0569 94.582 83.477 94.1019 81.9045C93.0481 78.4532 93.4801 74.3125 96.9515 72.4183C98.5686 71.536 103.413 71.5389 105.339 71.975C107.365 72.4335 109.661 76.9022 109.773 77.3222C109.843 77.5821 109.808 77.9039 110.047 78.0771C110.572 78.4579 111.437 77.797 111.825 77.4708C112.493 76.9078 112.969 76.1588 113.382 75.3995C114.281 73.7454 115.006 71.9715 115.518 70.1606C115.913 68.7645 116.165 67.3248 116.681 65.9643C117.194 64.6105 118.004 63.4005 119.262 62.6336C120.631 61.7993 122.2 61.3599 123.703 60.8356C125.193 60.316 126.657 59.681 127.812 58.5785C128.065 58.336 128.312 58.0784 128.516 57.793C128.678 57.5677 128.837 57.1363 129.083 56.9934C129.465 56.7712 130.023 57.3492 130.353 57.559C131.984 58.5945 133.344 60.0386 134.441 61.6162C135.532 63.1851 136.427 64.6949 137.154 66.4469C137.694 67.7462 138.031 69.4103 138.98 70.4752C139.403 70.9507 142.552 71.2384 143.573 70.8232C144.593 70.4081 145.736 69.3302 146.078 68.6547C146.429 67.9633 146.512 67.2038 146.363 66.4469C146.274 66.0015 146.095 65.5856 145.996 65.1482C145.913 64.7808 145.838 64.4335 145.659 64.0969C145.32 63.4591 144.741 63.0007 144.043 62.809C144.77 62.139 145.372 61.3375 145.789 60.4415C146.221 59.5106 146.588 58.3786 146.693 57.3569C146.777 56.5271 146.647 55.6674 146.192 54.9542C145.716 54.2061 144.871 53.7181 144.141 53.2515C145.257 52.3785 146.212 51.3169 146.997 50.1415C148.523 47.8557 149.468 44.9744 148.692 42.2493Z" fill="#2C1B18"/>
<path fill-rule="evenodd" clip-rule="evenodd" d="M34.9116 293.929H130.297L142.796 447.031H0.806091L34.9116 293.929Z" fill="#C5CFD6"/>
<path fill-rule="evenodd" clip-rule="evenodd" d="M34.9116 293.929H64.2481L81.8067 447.031H0.806091L34.9116 293.929Z" fill="black" fill-opacity="0.1"/>
<path fill-rule="evenodd" clip-rule="evenodd" d="M239.045 267.7L239.401 267.492C249.607 261.774 266.277 269.54 266.265 278.172C266.23 304.304 242.382 427.462 241.137 435.248C239.892 443.033 226.553 445.09 225.777 435.273C224.541 419.654 222.244 365.582 224.542 340.554C225.49 330.222 226.512 320.383 227.517 311.605C215.005 334.201 195.651 366.558 169.457 408.674L155.237 402.177C166.403 365.388 175.559 339.416 182.705 324.261C194.941 298.312 206.414 276.09 211.242 268.262C218.838 255.949 232.06 260.246 239.045 267.7Z" fill="#915B3C"/>
<path fill-rule="evenodd" clip-rule="evenodd" d="M156.254 381.747L205.058 266.132C216.75 247.325 249.53 269.96 245.543 280.868C236.491 305.633 190.455 385.808 187.758 393.186L156.254 381.747Z" fill="#7D3336"/>
<path fill-rule="evenodd" clip-rule="evenodd" d="M153.543 394.886C150.503 397.389 148.526 399.433 147.61 401.019C146.497 402.947 145.194 405.946 143.701 410.016C145.937 411.308 166.041 422.914 204.01 444.836C208.568 440.559 209.279 437.24 206.14 434.877C203.002 432.515 200.413 430.522 198.372 428.9L177.555 400.22C177.155 399.668 176.383 399.545 175.831 399.946C175.821 399.952 175.812 399.959 175.803 399.967L171.477 403.297C167.51 402.951 164.548 402.213 162.594 401.085C161.006 400.168 159.184 398.261 157.126 395.363L157.127 395.363C156.337 394.251 154.795 393.99 153.683 394.779C153.635 394.813 153.589 394.849 153.543 394.886Z" fill="#E4E4E4"/>
<path fill-rule="evenodd" clip-rule="evenodd" d="M222.654 429.007C221.272 432.694 220.582 435.453 220.582 437.284C220.582 439.51 220.953 442.759 221.694 447.031C224.277 447.031 247.49 447.031 291.333 447.031C293.143 441.048 292.098 437.818 288.199 437.341C284.3 436.864 281.062 436.434 278.483 436.049L246.115 421.619C245.492 421.342 244.762 421.622 244.485 422.244C244.48 422.255 244.475 422.266 244.471 422.277L242.39 427.324C238.781 429.008 235.848 429.85 233.591 429.85C231.758 429.85 229.226 429.109 225.995 427.628V427.628C224.755 427.06 223.29 427.604 222.721 428.844C222.697 428.897 222.674 428.952 222.654 429.007Z" fill="#E4E4E4"/>
<path fill-rule="evenodd" clip-rule="evenodd" d="M269.686 287.055C269.686 319.857 254.108 396.372 254.098 403.594L220.582 403.62C225.487 335.347 227.227 300.843 225.8 300.107C223.66 299.004 138.074 308.653 112.406 308.653C75.3913 308.653 60.0792 285.311 58.8367 242.072H132.161C147.09 243.669 224.963 259.376 253.884 264.776C266.265 267.087 269.686 278.019 269.686 287.055Z" fill="#B86767"/>
<path fill-rule="evenodd" clip-rule="evenodd" d="M242.258 169.728C247.608 168.627 260.665 158.916 262.915 160.888C266.243 163.805 263.275 172.761 259.779 177.217C253.243 185.544 247.832 188.392 234.458 192.121C227.465 194.071 219.904 197.979 211.776 203.846L210.704 184.955L229.529 174.613C232.17 164.562 235.328 159.506 239.001 159.443C241.823 158.129 236.909 170.83 242.258 169.728ZM209.858 126.679C206.401 132.814 203.042 139.423 204.803 141.313C206.564 143.203 210.955 140.562 213.056 143.703C214.456 145.796 206.954 149.104 190.55 153.625L159.41 182.137L143.584 165.151L186.44 141.678C193.566 133.216 200.588 126.643 207.505 121.96C209.619 121.078 213.315 120.544 209.858 126.679Z" fill="#784931"/>
<mask id="mask0" style="mask-type:alpha" maskUnits="userSpaceOnUse" x="117" y="147" width="71" height="39">
<path fill-rule="evenodd" clip-rule="evenodd" d="M124.1 155.335C138.951 157.526 159.218 157.526 182.434 147.477L187.792 167.264C170.954 179.401 148.615 188.025 130.804 184.689C116.768 182.06 112.264 163.866 124.1 155.335Z" fill="white"/>
</mask>
<g mask="url(#mask0)">
<path fill-rule="evenodd" clip-rule="evenodd" d="M122.712 159.922C137.723 159.763 157.74 156.593 179.099 143.035L187.487 161.741C172.754 176.362 152.039 188.374 133.926 187.866C119.652 187.465 112.357 170.199 122.712 159.922Z" fill="#BB9C66"/>
</g>
<mask id="mask1" style="mask-type:alpha" maskUnits="userSpaceOnUse" x="43" y="112" width="194" height="180">
<path fill-rule="evenodd" clip-rule="evenodd" d="M123.712 112.429C125.602 136.714 135.116 163.478 142.924 189.919C158.86 193.894 185.584 189.207 223.095 175.859C232.4 195.108 236.701 208.831 235.999 217.028C203.816 233.84 176.232 241.334 153.508 241.827C154.24 255.305 152.599 268.136 147.085 279.861C135.752 303.96 69.3872 281.641 47.0735 286.034C33.1 240.653 60.1182 222.211 60.1399 193.174C60.1637 161.375 85.6967 112.429 89.4534 112.429H123.712Z" fill="white"/>
</mask>
<g mask="url(#mask1)">
<path fill-rule="evenodd" clip-rule="evenodd" d="M123.712 112.429C125.602 136.714 135.116 163.478 142.924 189.919C158.86 193.894 185.584 189.207 223.095 175.859C232.4 195.108 236.701 208.831 235.999 217.028C203.816 233.84 176.232 241.334 153.508 241.827C154.24 255.305 152.599 268.136 147.085 279.861C135.752 303.96 69.3872 281.641 47.0735 286.034C33.1 240.653 60.1182 222.211 60.1399 193.174C60.1637 161.375 85.6967 112.429 89.4534 112.429H123.712Z" fill="#F7D59C"/>
</g>
<path fill-rule="evenodd" clip-rule="evenodd" d="M499.828 85.1141C484.794 85.1141 479.327 67.1161 470.786 57.2392C464.675 50.1726 454.246 52.2797 451.159 42.3865C443.396 17.5092 464.173 0 491.278 0C518.382 0 536.658 15.3561 540.604 38.4404C544.55 61.5247 526.932 85.1141 499.828 85.1141Z" fill="#2C1B18"/>
<path fill-rule="evenodd" clip-rule="evenodd" d="M458.863 35.6914C451.24 49.899 452.146 85.9378 461.997 88.477C465.926 89.4897 474.295 87.0092 482.812 81.8753L477.466 119.7H509.035L498.168 69.0435C504.229 61.9291 508.33 53.2105 507.645 43.441C505.67 15.2913 466.485 21.4839 458.863 35.6914Z" fill="#57331F"/>
<path fill-rule="evenodd" clip-rule="evenodd" d="M456.969 35.7712C463.006 36.9045 475.165 42.6685 484.86 50.9365C486.006 50.3292 487.32 49.9845 488.717 49.9845C493.19 49.9845 496.815 53.518 496.815 57.8768C496.815 59.6558 496.211 61.2974 495.192 62.6173C497.111 65.7804 498.421 69.1033 498.85 72.5193C505.501 72.5193 529.774 47.3537 505.593 23.6769C481.412 1.30462e-05 446.469 33.8 456.969 35.7712Z" fill="#2C1B18"/>
<path fill-rule="evenodd" clip-rule="evenodd" d="M566.092 284.122H464.474L451.159 447.229H602.426L566.092 284.122Z" fill="#C5CFD6"/>
<path fill-rule="evenodd" clip-rule="evenodd" d="M566.092 284.122H534.839L516.133 447.229H602.426L566.092 284.122Z" fill="black" fill-opacity="0.1"/>
<path fill-rule="evenodd" clip-rule="evenodd" d="M348.621 256.179L348.242 255.958C337.369 249.866 319.61 258.139 319.623 267.336C319.66 295.175 345.066 426.382 346.393 434.676C347.719 442.971 361.929 445.161 362.757 434.704C364.073 418.063 366.519 360.458 364.072 333.794C363.062 322.788 361.973 312.305 360.902 302.953C374.231 327.027 394.85 361.498 422.756 406.366L437.905 399.445C426.009 360.251 416.255 332.582 408.642 316.436C395.607 288.791 383.384 265.117 378.24 256.778C370.148 243.66 356.063 248.238 348.621 256.179Z" fill="#57331F"/>
<path fill-rule="evenodd" clip-rule="evenodd" d="M436.822 377.679L384.829 254.509C372.373 234.473 337.451 258.587 341.698 270.208C351.342 296.591 400.386 382.005 403.259 389.866L436.822 377.679Z" fill="#7D3336"/>
<path fill-rule="evenodd" clip-rule="evenodd" d="M439.709 391.677C442.948 394.344 445.055 396.521 446.03 398.21C447.216 400.264 448.604 403.46 450.195 407.796C447.812 409.172 426.396 421.537 385.946 444.891C381.089 440.335 380.333 436.799 383.676 434.282C387.019 431.765 389.778 429.642 391.952 427.913L414.129 397.359C414.555 396.771 415.378 396.64 415.966 397.067C415.976 397.074 415.986 397.082 415.996 397.089L420.604 400.638C424.831 400.269 427.985 399.483 430.067 398.281C431.759 397.305 433.7 395.273 435.892 392.185L435.892 392.185C436.733 391.001 438.375 390.722 439.56 391.563C439.611 391.599 439.661 391.637 439.709 391.677Z" fill="#E4E4E4"/>
<path fill-rule="evenodd" clip-rule="evenodd" d="M366.084 428.027C367.555 431.956 368.291 434.895 368.291 436.845C368.291 439.217 367.896 442.679 367.106 447.229C364.354 447.229 339.624 447.229 292.917 447.229C290.989 440.856 292.102 437.415 296.255 436.907C300.409 436.398 303.86 435.939 306.607 435.53L341.089 420.157C341.753 419.862 342.53 420.16 342.826 420.823C342.831 420.835 342.836 420.846 342.841 420.857L345.057 426.234C348.903 428.028 352.027 428.925 354.431 428.925C356.385 428.925 359.082 428.137 362.524 426.559V426.559C363.845 425.953 365.406 426.533 366.012 427.854C366.038 427.911 366.062 427.969 366.084 428.027Z" fill="#E4E4E4"/>
<path fill-rule="evenodd" clip-rule="evenodd" d="M315.978 276.8C315.978 311.745 332.574 393.26 332.585 400.954L368.291 400.982C363.065 328.247 361.211 291.488 362.731 290.705C365.011 289.529 456.189 299.808 483.535 299.808C522.967 299.808 539.28 274.941 540.604 228.876H462.489C446.584 230.578 363.623 247.312 332.813 253.064C319.623 255.527 315.978 267.173 315.978 276.8Z" fill="#B86767"/>
<path fill-rule="evenodd" clip-rule="evenodd" d="M569.137 213.118L541.649 213.226C558.621 268.016 567.784 297.088 569.137 300.44C572.18 307.983 565.74 319.471 562.985 325.645C571.956 329.659 571 314.793 582.317 320.058C592.646 324.863 600.503 333.571 612.437 326.207C613.904 325.302 615.512 321.893 611.627 319.229C601.949 312.593 588.003 300.978 586.118 297.155C583.548 291.942 577.888 263.929 569.137 213.118ZM408.04 212.055L366.082 242.865C354.702 245.936 345.195 249.757 337.56 254.327C335.756 255.97 333.576 259.299 341.056 258.723C348.536 258.148 356.429 257.88 357.461 260.431C358.493 262.982 353.967 266.033 356.053 269.475C357.444 271.77 364.015 266.016 375.766 252.212L417.315 234.983L408.04 212.055Z" fill="#57331F"/>
<path fill-rule="evenodd" clip-rule="evenodd" d="M491.021 97.7749L479.647 95.824C437.446 132.28 420.112 202.317 368.384 239.419L380.834 254.852C470.574 243.741 492.816 158.312 491.021 97.7749Z" fill="#95AB97"/>
<path fill-rule="evenodd" clip-rule="evenodd" d="M540.604 240.715C494.998 240.715 461.451 240.715 439.963 240.715C435.365 240.715 436.231 234.074 436.896 230.723C444.568 192.051 474.518 150.363 474.518 95.3135L503.548 90.7613C527.559 129.379 535.862 176.925 540.604 240.715Z" fill="#C7D1D9"/>
<path fill-rule="evenodd" clip-rule="evenodd" d="M505.733 90.7613C504.753 90.7613 503.855 90.8226 503.039 90.9453L493.946 91.4647C467.872 179.833 460.681 238.79 472.373 268.338L551.586 268.34C556.278 279.283 560.769 288.49 565.058 295.961H586.642C588.673 230.28 573.057 174.533 539.795 128.72C544.011 127.509 547.35 124.682 549.811 120.241C560.422 101.095 556.59 90.554 545.251 87.0891C533.912 83.6242 523.8 90.7613 505.733 90.7613Z" fill="#CEE5D0"/>
<path fill-rule="evenodd" clip-rule="evenodd" d="M522.189 268.338L551.585 268.339C546.111 255.573 540.361 240.445 534.336 222.955C531.845 243.797 527.796 258.926 522.189 268.338Z" fill="black" fill-opacity="0.1"/>
</svg>
