<svg width="615" height="448" fill="none" xmlns="http://www.w3.org/2000/svg"><path fill-rule="evenodd" clip-rule="evenodd" d="M135.565 60.737c7.155 13.336 6.304 47.164-2.943 49.548-3.687.95-11.543-1.378-19.538-6.197l5.018 35.504H88.469l10.2-47.549c-5.688-6.678-9.538-14.862-8.895-24.032 1.854-26.423 38.636-20.61 45.791-7.274Z" fill="#915B3C"/><path fill-rule="evenodd" clip-rule="evenodd" d="M148.692 42.25c-.613-2.158-2.264-4.004-4.488-4.552a5.91 5.91 0 0 0-1.652-.165c-.199.008-.254.066-.347-.073-.07-.104-.071-.356-.099-.477a8.993 8.993 0 0 0-.336-1.113c-.465-1.237-1.247-2.332-2.19-3.255-1.764-1.726-4.147-2.918-6.622-3.133-1.355-.118-2.7.102-3.981.543-.664.228-1.307.512-1.933.826-.189.095-.8.558-.99.528-.209-.033-.629-.553-.799-.683-2.1-1.612-4.695-2.245-7.311-2.226-2.954.022-5.797.17-8.261 1.97-.521.381-1.018.798-1.49 1.238a12.268 12.268 0 0 0-1.125 1.185c-.22.268-.185.357-.494.169-1.185-.72-2.559-1.057-3.943-.887-.821.101-1.621.348-2.38.672-.258.11-.856.552-1.132.556-.273.004-.863-.404-1.144-.508a9.384 9.384 0 0 0-4.757-.44c-1.648.267-3.267.925-4.663 1.833-.672.438-1.258.922-1.729 1.572-.203.28-.387.577-.617.837-.135.153-.402.31-.475.502.044-.115-1.802-.827-1.976-.872a4.87 4.87 0 0 0-2.782.105c-1.709.563-3.178 1.824-4.386 3.117a12.457 12.457 0 0 0-1.624 2.18c-.22.374-.422.76-.607 1.153-.09.19-.149.43-.267.601-.152.221-.254.225-.53.322-1.398.49-2.673 1.32-3.644 2.44-.981 1.133-1.619 2.53-1.886 4-.015.086-.025.445-.075.492-.07.064-.351.036-.458.048a9.646 9.646 0 0 0-1.095.193 9.042 9.042 0 0 0-1.925.693c-2.388 1.181-4.096 3.396-4.931 5.889-.878 2.615-.862 5.612.186 8.179.17.414.371.817.608 1.197.145.234.192.234.097.48-.105.273-.297.538-.422.804-.407.87-.692 1.792-.872 2.735-.295 1.545-.441 3.17-.15 4.727.135.723.37 1.43.73 2.074a5.947 5.947 0 0 0 1.038 1.357c.08.078.185.147.253.234.166.213.2.038.115.35-.12.438-.39.869-.556 1.294-.171.439-.326.883-.467 1.332a19.647 19.647 0 0 0-.68 2.774c-.29 1.807-.239 3.732.616 5.39.365.71.89 1.332 1.525 1.816.311.236.648.44 1.002.608.181.086.413.123.496.299.09.189-.043.564-.073.775-.263 1.838-.395 3.767.151 5.568.504 1.659 1.611 3.123 3.05 4.092 2.79 1.881 6.55 1.775 9.482.269a9.923 9.923 0 0 0 2.116-1.454c1.624 2.186 4.966 2.117 7.34 1.494 2.956-.776 5.329-2.832 6.696-5.534 1.87 2.276 5.792 1.537 7.088-.931.317-.604.506-1.27.598-1.944.049-.354.018-.712.055-1.063.046-.448.345-.883.517-1.317.335-.843.543-1.714.552-2.624.005-.474-.055-.937-.1-1.408-.041-.424.077-.82.143-1.238-.758.125-1.682-.08-2.396-.3-.701-.215-1.358-.784-1.853-1.303-1.15-1.205-1.851-2.785-2.331-4.358-1.054-3.45-.622-7.591 2.85-9.486 1.617-.882 6.461-.88 8.387-.443 2.026.459 4.322 4.927 4.434 5.347.07.26.035.582.274.755.525.38 1.39-.28 1.778-.606.668-.563 1.144-1.312 1.557-2.072a25.63 25.63 0 0 0 2.136-5.238c.395-1.397.647-2.836 1.163-4.197.513-1.353 1.323-2.563 2.581-3.33 1.369-.835 2.938-1.274 4.441-1.798 1.49-.52 2.954-1.155 4.109-2.258.253-.242.5-.5.704-.785.162-.225.321-.657.567-.8.382-.222.94.356 1.27.566 1.631 1.035 2.991 2.48 4.088 4.057 1.091 1.57 1.986 3.079 2.713 4.83.54 1.3.877 2.964 1.826 4.03.423.475 3.572.762 4.593.347 1.02-.415 2.163-1.493 2.505-2.168.351-.692.434-1.451.285-2.208-.089-.446-.268-.861-.367-1.299-.083-.367-.158-.715-.337-1.051a2.593 2.593 0 0 0-1.616-1.288 7.591 7.591 0 0 0 1.746-2.367c.432-.931.799-2.063.904-3.085.084-.83-.046-1.69-.501-2.403-.476-.748-1.321-1.236-2.051-1.703a13.34 13.34 0 0 0 2.856-3.11c1.526-2.285 2.471-5.167 1.695-7.892Z" fill="#2C1B18"/><path fill-rule="evenodd" clip-rule="evenodd" d="M34.912 293.929h95.385l12.499 153.102H.806l34.106-153.102Z" fill="#C5CFD6"/><path fill-rule="evenodd" clip-rule="evenodd" d="M34.912 293.929h29.336l17.559 153.102h-81l34.105-153.102Z" fill="#000" fill-opacity=".1"/><path fill-rule="evenodd" clip-rule="evenodd" d="m239.045 267.7.356-.208c10.206-5.718 26.876 2.048 26.864 10.68-.035 26.132-23.883 149.29-25.128 157.076-1.245 7.785-14.584 9.842-15.36.025-1.236-15.619-3.533-69.691-1.235-94.719.948-10.332 1.97-20.171 2.975-28.949-12.512 22.596-31.866 54.953-58.06 97.069l-14.22-6.497c11.166-36.789 20.322-62.761 27.468-77.916 12.236-25.949 23.709-48.171 28.537-55.999 7.596-12.313 20.818-8.016 27.803-.562Z" fill="#915B3C"/><path fill-rule="evenodd" clip-rule="evenodd" d="m156.254 381.747 48.804-115.615c11.692-18.807 44.472 3.828 40.485 14.736-9.052 24.765-55.088 104.94-57.785 112.318l-31.504-11.439Z" fill="#7D3336"/><path fill-rule="evenodd" clip-rule="evenodd" d="M153.543 394.886c-3.04 2.503-5.017 4.547-5.933 6.133-1.113 1.928-2.416 4.927-3.909 8.997l60.309 34.82c4.558-4.277 5.269-7.596 2.13-9.959a384.276 384.276 0 0 1-7.768-5.977l-20.817-28.68a1.233 1.233 0 0 0-1.752-.253l-4.326 3.33c-3.967-.346-6.929-1.084-8.883-2.212-1.588-.917-3.41-2.824-5.468-5.722h.001a2.471 2.471 0 0 0-3.584-.477ZM222.654 429.007c-1.382 3.687-2.072 6.446-2.072 8.277 0 2.226.371 5.475 1.112 9.747h69.639c1.81-5.983.765-9.213-3.134-9.69-3.899-.477-7.137-.907-9.716-1.292l-32.368-14.43a1.235 1.235 0 0 0-1.644.658l-2.081 5.047c-3.609 1.684-6.542 2.526-8.799 2.526-1.833 0-4.365-.741-7.596-2.222a2.47 2.47 0 0 0-3.341 1.379Z" fill="#E4E4E4"/><path fill-rule="evenodd" clip-rule="evenodd" d="M269.686 287.055c0 32.802-15.578 109.317-15.588 116.539l-33.516.026c4.905-68.273 6.645-102.777 5.218-103.513-2.14-1.103-87.726 8.546-113.394 8.546-37.015 0-52.327-23.342-53.57-66.581h73.325c14.929 1.597 92.802 17.304 121.723 22.704 12.381 2.311 15.802 13.243 15.802 22.279Z" fill="#B86767"/><path fill-rule="evenodd" clip-rule="evenodd" d="M242.258 169.728c5.35-1.101 18.407-10.812 20.657-8.84 3.328 2.917.36 11.873-3.136 16.329-6.536 8.327-11.947 11.175-25.321 14.904-6.993 1.95-14.554 5.858-22.682 11.725l-1.072-18.891 18.825-10.342c2.641-10.051 5.799-15.107 9.472-15.17 2.822-1.314-2.092 11.387 3.257 10.285Zm-32.4-43.049c-3.457 6.135-6.816 12.744-5.055 14.634 1.761 1.89 6.152-.751 8.253 2.39 1.4 2.093-6.102 5.401-22.506 9.922l-31.14 28.512-15.826-16.986 42.856-23.473c7.126-8.462 14.148-15.035 21.065-19.718 2.114-.882 5.81-1.416 2.353 4.719Z" fill="#784931"/><mask id="a" style="mask-type:alpha" maskUnits="userSpaceOnUse" x="117" y="147" width="71" height="39"><path fill-rule="evenodd" clip-rule="evenodd" d="M124.1 155.335c14.851 2.191 35.118 2.191 58.334-7.858l5.358 19.787c-16.838 12.137-39.177 20.761-56.988 17.425-14.036-2.629-18.54-20.823-6.704-29.354Z" fill="#fff"/></mask><g mask="url(#a)"><path fill-rule="evenodd" clip-rule="evenodd" d="M122.712 159.922c15.011-.159 35.028-3.329 56.387-16.887l8.388 18.706c-14.733 14.621-35.448 26.633-53.561 26.125-14.274-.401-21.569-17.667-11.214-27.944Z" fill="#BB9C66"/></g><mask id="b" style="mask-type:alpha" maskUnits="userSpaceOnUse" x="43" y="112" width="194" height="180"><path fill-rule="evenodd" clip-rule="evenodd" d="M123.712 112.429c1.89 24.285 11.404 51.049 19.212 77.49 15.936 3.975 42.66-.712 80.171-14.06 9.305 19.249 13.606 32.972 12.904 41.169-32.183 16.812-59.767 24.306-82.491 24.799.732 13.478-.909 26.309-6.423 38.034-11.333 24.099-77.698 1.78-100.012 6.173-13.973-45.381 13.045-63.823 13.067-92.86.024-31.799 25.557-80.745 29.313-80.745h34.259Z" fill="#fff"/></mask><g mask="url(#b)"><path fill-rule="evenodd" clip-rule="evenodd" d="M123.712 112.429c1.89 24.285 11.404 51.049 19.212 77.49 15.936 3.975 42.66-.712 80.171-14.06 9.305 19.249 13.606 32.972 12.904 41.169-32.183 16.812-59.767 24.306-82.491 24.799.732 13.478-.909 26.309-6.423 38.034-11.333 24.099-77.698 1.78-100.012 6.173-13.973-45.381 13.045-63.823 13.067-92.86.024-31.799 25.557-80.745 29.313-80.745h34.259Z" fill="#F7D59C"/></g><path fill-rule="evenodd" clip-rule="evenodd" d="M499.828 85.114c-15.034 0-20.501-17.998-29.042-27.875-6.111-7.066-16.54-4.96-19.627-14.852C443.396 17.508 464.173 0 491.278 0c27.104 0 45.38 15.356 49.326 38.44 3.946 23.085-13.672 46.674-40.776 46.674Z" fill="#2C1B18"/><path fill-rule="evenodd" clip-rule="evenodd" d="M458.863 35.691c-7.623 14.208-6.717 50.247 3.134 52.786 3.929 1.013 12.298-1.468 20.815-6.602l-5.346 37.825h31.569l-10.867-50.657c6.061-7.114 10.162-15.833 9.477-25.602-1.975-28.15-41.16-21.957-48.782-7.75Z" fill="#57331F"/><path fill-rule="evenodd" clip-rule="evenodd" d="M456.969 35.771c6.037 1.133 18.196 6.898 27.891 15.166a8.216 8.216 0 0 1 3.857-.953c4.473 0 8.098 3.534 8.098 7.893 0 1.779-.604 3.42-1.623 4.74 1.919 3.163 3.229 6.486 3.658 9.902 6.651 0 30.924-25.165 6.743-48.842C481.412 0 446.469 33.8 456.969 35.77Z" fill="#2C1B18"/><path fill-rule="evenodd" clip-rule="evenodd" d="M566.092 284.122H464.474l-13.315 163.107h151.267l-36.334-163.107Z" fill="#C5CFD6"/><path fill-rule="evenodd" clip-rule="evenodd" d="M566.092 284.122h-31.253l-18.706 163.107h86.293l-36.334-163.107Z" fill="#000" fill-opacity=".1"/><path fill-rule="evenodd" clip-rule="evenodd" d="m348.621 256.179-.379-.221c-10.873-6.092-28.632 2.181-28.619 11.378.037 27.839 25.443 159.046 26.77 167.34 1.326 8.295 15.536 10.485 16.364.028 1.316-16.641 3.762-74.246 1.315-100.91a1392.154 1392.154 0 0 0-3.17-30.841c13.329 24.074 33.948 58.545 61.854 103.413l15.149-6.921c-11.896-39.194-21.65-66.863-29.263-83.009-13.035-27.645-25.258-51.319-30.402-59.658-8.092-13.118-22.177-8.54-29.619-.599Z" fill="#57331F"/><path fill-rule="evenodd" clip-rule="evenodd" d="m436.822 377.679-51.993-123.17c-12.456-20.036-47.378 4.078-43.131 15.699 9.644 26.383 58.688 111.797 61.561 119.658l33.563-12.187Z" fill="#7D3336"/><path fill-rule="evenodd" clip-rule="evenodd" d="M439.709 391.677c3.239 2.667 5.346 4.844 6.321 6.533 1.186 2.054 2.574 5.25 4.165 9.586l-64.249 37.095c-4.857-4.556-5.613-8.092-2.27-10.609 3.343-2.517 6.102-4.64 8.276-6.369l22.177-30.554a1.315 1.315 0 0 1 1.837-.292l.03.022 4.608 3.549c4.227-.369 7.381-1.155 9.463-2.357 1.692-.976 3.633-3.008 5.825-6.096a2.631 2.631 0 0 1 3.817-.508ZM366.084 428.027c1.471 3.929 2.207 6.868 2.207 8.818 0 2.372-.395 5.834-1.185 10.384h-74.189c-1.928-6.373-.815-9.814 3.338-10.322 4.154-.509 7.605-.968 10.352-1.377l34.482-15.373a1.316 1.316 0 0 1 1.752.7l2.216 5.377c3.846 1.794 6.97 2.691 9.374 2.691 1.954 0 4.651-.788 8.093-2.366a2.63 2.63 0 0 1 3.56 1.468Z" fill="#E4E4E4"/><path fill-rule="evenodd" clip-rule="evenodd" d="M315.978 276.8c0 34.945 16.596 116.46 16.607 124.154l35.706.028c-5.226-72.735-7.08-109.494-5.56-110.277 2.28-1.176 93.458 9.103 120.804 9.103 39.432 0 55.745-24.867 57.069-70.932h-78.115c-15.905 1.702-98.866 18.436-129.676 24.188-13.19 2.463-16.835 14.109-16.835 23.736Z" fill="#B86767"/><path fill-rule="evenodd" clip-rule="evenodd" d="m569.137 213.118-27.488.108c16.972 54.79 26.135 83.862 27.488 87.214 3.043 7.543-3.397 19.031-6.152 25.205 8.971 4.014 8.015-10.852 19.332-5.587 10.329 4.805 18.186 13.513 30.12 6.149 1.467-.905 3.075-4.314-.81-6.978-9.678-6.636-23.624-18.251-25.509-22.074-2.57-5.213-8.23-33.226-16.981-84.037Zm-161.097-1.063-41.958 30.81c-11.38 3.071-20.887 6.892-28.522 11.462-1.804 1.643-3.984 4.972 3.496 4.396 7.48-.575 15.373-.843 16.405 1.708 1.032 2.551-3.494 5.602-1.408 9.044 1.391 2.295 7.962-3.459 19.713-17.263l41.549-17.229-9.275-22.928Z" fill="#57331F"/><path fill-rule="evenodd" clip-rule="evenodd" d="m491.021 97.775-11.374-1.951c-42.201 36.456-59.535 106.493-111.263 143.595l12.45 15.433c89.74-11.111 111.982-96.54 110.187-157.077Z" fill="#95AB97"/><path fill-rule="evenodd" clip-rule="evenodd" d="M540.604 240.715H439.963c-4.598 0-3.732-6.641-3.067-9.992 7.672-38.672 37.622-80.36 37.622-135.41l29.03-4.552c24.011 38.618 32.314 86.164 37.056 149.954Z" fill="#C7D1D9"/><path fill-rule="evenodd" clip-rule="evenodd" d="M505.733 90.761c-.98 0-1.878.062-2.694.184l-9.093.52c-26.074 88.368-33.265 147.325-21.573 176.873l79.213.002c4.692 10.943 9.183 20.15 13.472 27.621h21.584c2.031-65.681-13.585-121.428-46.847-167.241 4.216-1.211 7.555-4.038 10.016-8.479 10.611-19.146 6.779-29.687-4.56-33.152-11.339-3.465-21.451 3.672-39.518 3.672Z" fill="#CEE5D0"/><path fill-rule="evenodd" clip-rule="evenodd" d="m522.189 268.338 29.396.001c-5.474-12.766-11.224-27.894-17.249-45.384-2.491 20.842-6.54 35.971-12.147 45.383Z" fill="#000" fill-opacity=".1"/></svg>