<svg width="250" height="250" viewBox="0 0 250 250" fill="none" xmlns="http://www.w3.org/2000/svg">
<path d="M79.7384 220.396H40.0159C40.0159 220.396 21.3105 233.685 21.3105 250H52.5472L59.8771 246.044L67.2071 250H98.4437C98.4437 233.685 79.7384 220.396 79.7384 220.396Z" fill="#EFEDEE"/>
<path d="M177.181 220.396H170.615C170.615 220.396 151.906 233.685 151.906 250H177.181L190.477 235.199L177.181 220.396Z" fill="#FB7073"/>
<path d="M203.769 220.396H210.334C210.334 220.396 229.041 233.685 229.041 250H203.769L190.473 235.199L203.769 220.396Z" fill="#FB7073"/>
<path d="M86.6127 0C111.345 0 131.397 15.8634 131.397 35.4309C131.397 48.7347 122.128 60.3237 108.421 66.3815C108.421 66.3815 103.294 83.4484 88.4781 87.3432C88.4781 87.3432 90.2786 76.7956 86.6127 70.8637C61.8782 70.8637 41.8281 55.0003 41.8281 35.4309C41.8281 15.8634 61.8782 0 86.6127 0Z" fill="#E5CA61"/>
<path d="M2.44141 168.228C2.44141 114.342 29.6593 106.302 59.8774 106.302C74.0013 106.302 86.5879 105.268 95.9854 104.168C106.134 102.98 115.213 110.479 115.969 120.67C116.709 130.686 117.313 145.746 117.313 168.228H2.44141Z" fill="#E98F5E"/>
<path d="M67.2068 250L64.7711 233.322H54.9807L52.5469 250H67.2068Z" fill="#E16567"/>
<path d="M52.5469 222.311V227.869C52.5469 231.916 55.8275 235.199 59.8768 235.199C63.9242 235.199 67.2068 231.916 67.2068 227.869V222.311H52.5469Z" fill="#FB7073"/>
<path d="M177.182 220.396H203.77V250H177.182V220.396Z" fill="#EFEDEE"/>
<path d="M133.041 168.232C133.041 138.489 157.173 114.21 187.519 112.72H193.431C223.777 114.208 247.909 138.489 247.909 168.232H133.041Z" fill="#596673"/>
<path d="M198.021 113.127C196.508 112.934 194.978 112.797 193.431 112.72H187.519C157.173 114.208 133.041 138.489 133.041 168.232H148.132C148.132 140.005 169.866 116.701 198.021 113.127Z" fill="#4B5866"/>
<path d="M145.427 217.205H235.523C242.363 217.205 247.909 211.66 247.909 204.819V168.232H133.041V204.819C133.041 211.658 138.588 217.205 145.427 217.205Z" fill="#596673"/>
<path d="M148.132 204.819V168.232H133.041V204.819C133.041 211.66 138.586 217.205 145.427 217.205H160.518C153.677 217.205 148.132 211.66 148.132 204.819Z" fill="#4B5866"/>
<path d="M59.8774 136.135C117.002 136.135 117.313 168.228 117.313 168.228C117.313 198.925 91.5985 223.81 59.8774 223.81C28.1563 223.81 2.44141 198.925 2.44141 168.228C2.44141 168.228 2.7504 136.135 59.8774 136.135Z" fill="#FAC4AE"/>
<path d="M2.44141 168.228H17.5323C17.5323 114.342 44.7502 106.302 74.9683 106.302C74.9683 106.302 59.8831 106.302 59.8774 106.302C49.49 106.302 39.4573 107.252 30.7636 110.687C27.2217 112.087 23.8514 113.932 20.8321 116.257C9.67789 124.847 2.44141 140.442 2.44141 168.228Z" fill="#DE8250"/>
<path d="M247.909 168.232C247.909 198.923 222.194 223.812 190.475 223.812C158.754 223.812 133.041 198.923 133.041 168.232C133.041 168.232 157.089 158.602 171.247 140.06C172.914 137.886 175.905 137.243 178.308 138.563C189.012 144.461 218.116 159.693 247.909 168.232Z" fill="#FAC4AE"/>
<path d="M133.041 168.232C133.041 198.923 158.754 223.812 190.475 223.812C192.789 223.812 195.072 223.675 197.315 223.417C169.199 220.678 146.268 203.207 148.132 160.299L133.041 168.232Z" fill="#E2B09A"/>
<path d="M32.5091 175.804C30.4262 175.804 28.7363 174.114 28.7363 172.031V166.71C28.7363 164.625 30.4262 162.937 32.5091 162.937C34.5938 162.937 36.2818 164.625 36.2818 166.71V172.031C36.2818 174.114 34.5938 175.804 32.5091 175.804Z" fill="#464C51"/>
<path d="M87.2454 175.804C85.1607 175.804 83.4727 174.114 83.4727 172.031V166.71C83.4727 164.625 85.1607 162.937 87.2454 162.937C89.3282 162.937 91.0181 164.625 91.0181 166.71V172.031C91.0181 174.114 89.3282 175.804 87.2454 175.804Z" fill="#464C51"/>
<path d="M59.8766 183.325C56.8802 183.325 54.0611 182.064 52.1404 179.869C50.7709 178.299 50.9292 175.917 52.499 174.545C54.0668 173.174 56.451 173.334 57.8224 174.904C58.3088 175.459 59.0584 175.779 59.8766 175.779C60.6949 175.779 61.4445 175.459 61.9308 174.904C63.3022 173.334 65.6864 173.174 67.2542 174.545C68.824 175.917 68.9842 178.299 67.6128 179.869C65.6921 182.064 62.8731 183.325 59.8766 183.325Z" fill="#464C51"/>
<path d="M163.109 175.804C161.026 175.804 159.336 174.114 159.336 172.031V166.71C159.336 164.625 161.026 162.937 163.109 162.937C165.191 162.937 166.881 164.625 166.881 166.71V172.031C166.881 174.114 165.191 175.804 163.109 175.804Z" fill="#464C51"/>
<path d="M217.845 175.804C215.762 175.804 214.072 174.114 214.072 172.031V166.71C214.072 164.625 215.762 162.937 217.845 162.937C219.93 162.937 221.618 164.625 221.618 166.71V172.031C221.618 174.114 219.93 175.804 217.845 175.804Z" fill="#464C51"/>
<path d="M190.477 183.325C187.481 183.325 184.66 182.064 182.741 179.869C181.369 178.299 181.53 175.917 183.099 174.545C184.667 173.174 187.05 173.334 188.423 174.904C188.909 175.459 189.657 175.779 190.477 175.779C191.295 175.779 192.045 175.459 192.531 174.904C193.901 173.334 196.285 173.174 197.855 174.545C199.422 175.917 199.583 178.299 198.211 179.869C196.293 182.064 193.473 183.325 190.477 183.325Z" fill="#464C51"/>
<path d="M163.986 18.2934C139.251 18.2934 119.201 34.1568 119.201 53.7243C119.201 67.0281 128.471 78.6171 142.175 84.6749C142.175 84.6749 147.304 101.742 162.12 105.637C162.12 105.637 160.318 95.089 163.986 89.1552C188.718 89.1552 208.77 73.2937 208.77 53.7243C208.77 34.1568 188.718 18.2934 163.986 18.2934Z" fill="#F9DB69"/>
<path d="M61.6283 223.78C63.5662 223.717 65.4984 223.577 67.4229 223.333C39.2666 219.757 17.5323 196.449 17.5323 168.228C17.5323 158.976 18.3334 151.077 19.8154 144.337C2.58446 153.845 2.44141 168.226 2.44141 168.228C2.44141 181.658 7.36427 193.975 15.5563 203.585C26.535 216.457 43.0012 223.81 59.8774 223.81C60.461 223.81 61.0447 223.799 61.6283 223.78Z" fill="#E2B09A"/>
</svg>
