<svg width="100" height="100" viewBox="0 0 100 100" fill="none" xmlns="http://www.w3.org/2000/svg">
<path d="M50.0003 0.208008C22.3862 0.208008 0 22.5942 0 50.2083C0 74.9749 18.0261 95.4859 41.6613 99.4577V60.6397H29.5997V46.6707H41.6613V36.3705C41.6613 24.4193 48.9607 17.9066 59.6235 17.9066C64.7304 17.9066 69.1191 18.2872 70.3931 18.4548V30.947L62.9977 30.9505C57.2001 30.9505 56.0824 33.705 56.0824 37.7483V46.6636H69.916L68.1117 60.6326H56.0824V99.7917C80.821 96.7808 100 75.7474 100 50.194C100 22.5942 77.6138 0.208008 50.0003 0.208008Z" fill="#F7D59C"/>
</svg>
