<svg width="491" height="465" viewBox="0 0 491 465" fill="none" xmlns="http://www.w3.org/2000/svg">
<path opacity="0.74707" fill-rule="evenodd" clip-rule="evenodd" d="M459.223 231.923L457.963 234.489C437.235 276.469 409.727 321.904 364.691 348.212C319.555 374.568 256.887 381.798 199.298 385.981L195.779 386.233C137.132 390.43 84.252 391.797 49.84 376.575C15.4538 361.408 -0.464654 329.653 0.0103147 290.715C0.485285 251.777 17.4575 205.608 59.1973 166.171C100.911 126.68 167.392 93.9173 235.073 69.7153C302.753 45.5133 371.504 29.8598 417.189 38.3168C462.798 46.88 485.214 79.5449 489.518 115.162C493.798 150.722 479.992 189.288 459.223 231.923Z" fill="#CEE5D0" fill-opacity="0.5"/>
<path d="M166.289 134.849C158.838 160.224 155.852 174.414 155.588 190.9C155.531 195.885 156.02 200.863 157.05 205.801C157.913 209.8 163.119 214.452 169.561 216.924C171.283 217.586 179.005 220.827 180.554 221.452C184.263 222.949 187.452 224.12 190.51 225.067C197.591 227.262 203.447 228.077 208.219 227.159C214.051 226.042 218.001 222.717 221.47 217.265C222.402 215.801 225.143 210.886 224.882 211.334C227.181 207.386 231.587 198.814 234.616 192.444C234.429 193.228 234.225 194.034 234.002 194.865C233.36 197.256 232.613 199.702 231.566 202.922C231.605 202.801 229.796 208.305 229.336 209.756C228.56 212.209 228.02 214.099 227.644 215.754C227.537 216.224 227.426 216.69 227.263 217.357C226.132 221.982 225.887 223.462 226.217 225.378C226.683 228.083 228.683 229.891 232.611 230.73C239.501 232.204 246.041 228.578 251.493 220.798C252.778 218.964 254.131 216.911 255.549 214.652C257.027 212.299 258.564 209.741 260.16 206.989C264.328 199.805 273.373 182.893 272.889 183.73C274.131 181.576 275.274 178.965 276.925 174.73C276.811 175.023 278.403 170.91 278.825 169.851C279.022 169.356 279.209 168.895 279.389 168.462C279.426 168.544 279.464 168.626 279.502 168.71C279.46 168.618 281.003 172.023 281.464 173.003C284.319 179.064 286.918 182.742 290.893 185.313C293.222 186.749 296.424 187.388 299.565 187.053C304.326 186.48 306.335 185.148 307.081 182.157C307.668 179.81 307.713 177.309 307.353 174.156C307.232 173.095 307.101 172.185 306.82 170.394C306.587 168.9 306.51 168.394 306.409 167.653C306.013 164.763 305.733 162.424 305.142 157.25C304.543 151.998 304.268 149.706 303.872 146.803C303.145 141.491 302.346 137.235 300.421 127.831C300.076 126.148 299.938 125.467 299.755 124.565C298.247 117.13 297.378 112.242 296.752 107.219C295.865 100.201 295.386 91.7172 295.729 87.3719C295.865 85.6502 317.103 1.04632 317.103 1.04632C317.257 0.501951 316.612 0 315.757 0H216.235C215.586 0 215.026 0.295067 214.895 0.706467L195.474 58.5238C192.479 65.8948 169.536 123.793 166.289 134.849Z" fill="#915B3C"/>
<path d="M203.385 187.514C203.364 187.577 203.326 187.695 203.274 187.861C203.186 188.137 203.088 188.446 202.984 188.779C202.683 189.733 202.383 190.697 202.102 191.612C202.059 191.751 202.059 191.751 202.017 191.891C201.601 193.252 201.274 194.361 201.065 195.133C200.511 197.18 199.878 199.16 198.822 202.243C198.708 202.578 198.622 202.826 198.405 203.457C197.391 206.406 196.942 207.748 196.433 209.412C195.966 210.932 195.613 212.177 194.871 214.879C194.616 215.812 194.516 216.172 194.38 216.663C194.128 217.57 193.91 218.338 193.695 219.071C193.01 221.487 192.914 223.781 193.647 225.603C193.837 226.076 194.585 226.36 195.315 226.237C196.046 226.114 196.485 225.63 196.295 225.156C195.68 223.63 195.766 221.575 196.384 219.396C196.6 218.662 196.819 217.889 197.072 216.977C197.209 216.484 197.309 216.123 197.565 215.189C198.303 212.499 198.654 211.262 199.117 209.757C199.621 208.111 200.067 206.778 201.076 203.842C201.293 203.21 201.379 202.962 201.493 202.627C202.557 199.52 203.197 197.518 203.759 195.439C203.965 194.684 204.288 193.585 204.701 192.234C204.743 192.096 204.743 192.096 204.785 191.957C205.065 191.045 205.365 190.084 205.664 189.133C205.769 188.801 205.867 188.493 205.954 188.218C206.006 188.053 206.044 187.936 206.064 187.873C206.216 187.394 205.741 186.925 205.001 186.827C204.261 186.727 203.537 187.035 203.385 187.514Z" fill="#713D26"/>
<path d="M182.488 182.598C182.277 183.199 182.038 183.851 181.707 184.738C181.664 184.855 181.028 186.553 180.838 187.065C180.581 187.757 180.363 188.354 180.16 188.925C179.268 191.433 178.681 193.379 178.361 195.039C177.64 198.778 176.793 202.466 175.826 206.071C175.71 206.503 175.236 208.243 175.125 208.656C174.989 209.158 174.871 209.603 174.761 210.028C173.852 213.541 173.456 215.813 173.65 217.236C173.716 217.724 174.38 218.084 175.132 218.041C175.885 217.998 176.441 217.568 176.375 217.081C176.21 215.866 176.592 213.671 177.459 210.321C177.569 209.9 177.686 209.459 177.82 208.96C177.93 208.55 178.404 206.809 178.521 206.374C179.496 202.741 180.35 199.025 181.075 195.258C181.382 193.671 181.953 191.776 182.826 189.323C183.027 188.758 183.243 188.166 183.498 187.479C183.687 186.969 184.323 185.273 184.367 185.154C184.7 184.26 184.941 183.601 185.156 182.992C185.323 182.514 184.862 182.04 184.126 181.931C183.389 181.823 182.656 182.121 182.488 182.598Z" fill="#713D26"/>
<path d="M229.322 112.167C231.415 112.447 233.497 112.283 236.826 111.766C237.561 111.652 238.013 111.174 237.838 110.698C237.661 110.223 236.923 109.929 236.189 110.043C233.24 110.501 231.447 110.642 229.876 110.431C229.137 110.332 228.413 110.64 228.26 111.12C228.107 111.598 228.582 112.067 229.322 112.167Z" fill="#713D26"/>
<path d="M173.034 181.7C174.552 181.876 176.128 182.155 180.439 182.975L180.634 183.012C184.607 183.768 186.523 184.1 188.24 184.292C190.486 184.544 192.427 184.913 195.799 185.669C196.01 185.717 196.209 185.761 196.621 185.854C199.597 186.523 201.097 186.834 202.975 187.132C203.816 187.267 204.691 187.388 205.749 187.521C206.216 187.58 206.562 187.622 207.435 187.727C211.289 188.189 212.993 188.452 215.006 188.977C219.245 190.082 222.903 190.797 230.705 192.154L231.02 192.208C237.347 193.309 240.157 193.834 243.529 194.602C244.241 194.765 245.022 194.522 245.273 194.061C245.524 193.599 245.15 193.093 244.437 192.931C240.978 192.143 238.123 191.609 231.73 190.497L231.415 190.442C223.718 189.104 220.132 188.403 216.027 187.333C213.791 186.75 211.964 186.468 207.933 185.984C207.068 185.88 206.727 185.839 206.27 185.782C205.254 185.654 204.421 185.538 203.629 185.412C201.857 185.13 200.417 184.832 197.519 184.18C197.107 184.087 196.907 184.043 196.695 183.995C193.192 183.209 191.136 182.819 188.706 182.546C187.134 182.37 185.264 182.046 181.405 181.312L181.21 181.275C176.775 180.431 175.176 180.148 173.516 179.956C172.772 179.87 172.061 180.191 171.928 180.672C171.796 181.154 172.291 181.614 173.034 181.7Z" fill="#713D26"/>
<path d="M261.482 158.744C255.01 159.907 240.567 156.955 236.204 153.722C230.287 149.369 226.696 141.809 227.19 135.431C227.228 134.942 226.647 134.526 225.892 134.501C225.138 134.477 224.496 134.854 224.457 135.342C223.929 142.16 227.736 150.174 234.147 154.89C239.189 158.626 254.712 161.8 262.214 160.451C262.942 160.321 263.368 159.832 263.166 159.361C262.964 158.89 262.21 158.613 261.482 158.744Z" fill="#713D26"/>
<path d="M172.745 156.064C177.069 155.819 181.427 156.039 185.64 156.715C187.021 156.924 188.293 157.103 190.515 157.407C192.981 157.744 193.192 157.774 194.163 157.911C200.808 158.852 205.105 159.701 209.024 161.002C217.658 163.865 225.622 167.674 230.014 171.424C230.471 171.814 231.328 171.89 231.931 171.594C232.533 171.299 232.65 170.743 232.194 170.353C227.512 166.355 219.239 162.398 210.272 159.425C206.092 158.038 201.605 157.152 194.748 156.18C193.767 156.041 193.555 156.012 191.081 155.673C188.876 155.372 187.619 155.194 186.281 154.992C181.792 154.272 177.131 154.037 172.506 154.299C171.753 154.342 171.197 154.771 171.263 155.259C171.329 155.746 171.992 156.107 172.745 156.064Z" fill="#713D26"/>
<path fill-rule="evenodd" clip-rule="evenodd" d="M238.842 140.965C237.764 137.443 238.896 133.71 242.207 130.66C247.016 126.23 255.471 124.113 263.63 125.295C271.789 126.477 278.044 130.726 279.479 136.06C280.914 141.394 277.246 146.763 270.185 149.663C260.545 153.613 247.786 151.764 241.664 145.53C241.603 145.467 241.542 145.404 241.482 145.341C239.569 145.896 237.235 146.563 235.235 147.098C223.095 150.345 205.975 154.796 194.642 157.729L194.317 157.813C194.539 158.195 194.761 158.582 194.977 158.964L195.022 159.044C195.739 160.311 196.455 161.576 197.132 162.57C199.512 166.114 199.362 168.275 196.687 169.055C195.246 169.475 194.085 168.777 193.148 168.215L193.144 168.213C192.043 167.549 191.318 167.159 190.313 167.478C188.883 167.921 189.123 168.807 189.629 170.228C189.844 170.738 189.984 171.261 190.046 171.788C190.103 172.57 189.494 173.309 188.459 173.714L188.309 173.776C187.258 174.197 185.944 174.229 184.848 173.861C183.432 173.272 182.693 172.058 182.044 170.986C182.008 170.928 181.973 170.871 181.939 170.814C181.814 170.61 181.693 170.413 181.565 170.233C181.278 169.808 180.979 169.382 180.68 168.957C180.581 168.815 180.481 168.674 180.382 168.532C179.472 167.252 178.542 165.927 177.755 164.59C177.314 163.839 176.85 163.112 176.368 162.383C174.965 162.636 173.717 162.753 172.468 162.703C170.779 162.654 170.061 162.176 169.753 161.79C169.314 161.102 169.467 160.314 170.156 159.717C171.176 158.663 175.266 157.543 179.226 156.462L181.715 155.775C189.752 153.481 198.308 151.377 206.577 149.344C209.035 148.753 211.472 148.15 213.889 147.536C223.87 145.05 232.533 142.768 238.842 140.965ZM247.444 143.156C250.44 146.215 255.986 147.804 261.498 147.182C267.008 146.561 271.398 143.849 272.62 140.314C273.841 136.779 271.653 133.114 267.075 131.031C262.498 128.948 256.434 128.856 251.712 130.797C245.264 133.446 243.348 138.977 247.43 143.156H247.444Z" fill="#E2B420"/>
<path d="M331.974 305.815C323.021 300.923 309.298 300.823 297.864 304.614C297.04 304.888 296.19 305.18 295.282 305.501C292.297 302.812 285.514 302.232 279.616 303.244C277.252 303.651 274.429 304.329 270.996 305.279C270.047 305.542 269.054 305.824 267.977 306.138C266.549 306.553 261.853 307.953 261.02 308.195C257.149 309.321 253.222 310.486 247.579 312.179C247.035 312.342 246.466 312.513 245.813 312.709C237.725 315.137 237.422 315.228 234.439 316.114C225.779 318.686 213.466 322.753 204.815 325.891C202.394 326.772 198.325 328.293 193.062 330.279L192.855 330.357C189.79 331.514 186.52 332.753 183.258 333.993C182.117 334.426 181.058 334.829 180.108 335.19C179.902 335.269 179.748 335.328 179.577 335.393C178.197 334.913 175.45 333.96 174.534 333.643C172.171 332.824 170.204 332.145 168.304 331.494C167.709 331.291 167.129 331.092 166.56 330.898C161.227 329.081 156.844 327.633 153.218 326.507C144.256 323.72 140.604 322.775 135.801 322.319C132.751 322.03 129.847 322.102 126.982 322.576C120.264 323.686 117.792 328.853 121.796 333.282C124.174 335.907 127.156 338.058 133.107 341.784C133.149 341.81 134.876 342.889 135.368 343.198C136.219 343.733 136.912 344.174 137.563 344.596C138.193 345.006 138.769 345.388 139.309 345.757C139.851 346.129 142.912 348.213 143.795 348.822C152.163 354.588 156.488 358.48 158.516 362.939C161.726 369.999 162.503 377.128 162.503 390.665C162.503 394.325 162.642 403.085 162.881 415.401C162.909 416.848 162.938 418.332 162.968 419.849C163.07 424.947 163.179 452.336 163.288 457.431C163.326 459.214 163.361 460.852 163.393 462.307C163.404 462.817 163.414 463.267 163.423 463.654C163.431 464.045 163.431 464.045 163.433 464.127C163.444 464.611 164.053 465 164.801 465H283.352C284.115 465 284.73 464.596 284.72 464.101C284.712 463.758 284.712 463.758 284.678 462.211C284.644 460.707 284.607 459.031 284.567 457.227C284.453 452.071 284.339 424.768 284.232 419.956L284.229 419.819C284.037 411.179 283.891 404.637 283.81 401.03C283.715 397.287 283.527 393.364 283.246 388.932C283.029 385.525 282.821 382.69 282.364 376.741C281.816 369.594 281.59 366.489 281.365 362.717C281.58 362.592 281.821 362.452 282.085 362.299C283.04 361.744 284.105 361.123 285.252 360.451C288.527 358.531 291.803 356.586 294.861 354.734C295.232 354.51 295.598 354.288 295.958 354.069C301.358 350.783 305.336 348.232 307.41 346.674C308.739 345.675 310.191 344.634 311.917 343.436C312.724 342.877 313.57 342.296 314.637 341.569C315.094 341.257 316.939 340.003 317.402 339.688C326.556 333.451 331.176 329.809 334.896 325.32C337.169 322.592 336.806 319.263 333.91 317.211C338.404 313.645 337.199 308.671 331.974 305.815Z" fill="#AD603F"/>
<path d="M212.768 371.488C213.282 371.47 213.656 371.45 214.648 371.394C215.243 371.36 215.552 371.344 215.902 371.328C217.508 371.254 218.632 371.271 219.604 371.411C220.341 371.517 221.072 371.216 221.236 370.739C221.4 370.261 220.936 369.788 220.198 369.682C218.911 369.496 217.556 369.475 215.708 369.56C215.339 369.578 215.019 369.595 214.409 369.629C213.448 369.684 213.09 369.702 212.616 369.719C211.862 369.746 211.284 370.164 211.326 370.653C211.368 371.142 212.013 371.515 212.768 371.488Z" fill="#744B15"/>
<path d="M208.709 337.979C213.685 337.206 219.808 337.905 225.818 340.209C231.3 342.312 234.496 345.245 236.952 349.443C237.219 349.901 238.009 350.132 238.715 349.958C239.422 349.785 239.777 349.273 239.51 348.816C236.854 344.275 233.312 341.024 227.212 338.685C220.61 336.153 213.764 335.371 208.071 336.256C207.336 336.37 206.883 336.848 207.06 337.324C207.236 337.799 207.974 338.092 208.709 337.979Z" fill="#744B15"/>
<path d="M244.01 322.677C259.81 322.677 276.986 326.099 290.177 331.803C290.806 332.075 291.655 331.965 292.074 331.559C292.494 331.152 292.325 330.601 291.697 330.33C278.059 324.433 260.354 320.905 244.01 320.905C243.255 320.905 242.643 321.302 242.643 321.791C242.643 322.281 243.255 322.677 244.01 322.677Z" fill="#744B15"/>
<path d="M271.917 325.576C273.093 325.1 274.272 324.612 275.458 324.113C282.521 321.14 302.381 311.875 303.314 311.463C312.426 307.434 318.693 305.443 324.598 304.97C325.347 304.911 325.88 304.468 325.788 303.983C325.696 303.497 325.012 303.152 324.263 303.212C317.812 303.728 311.217 305.823 301.772 309.999C300.788 310.434 280.963 319.682 273.967 322.627C272.794 323.121 271.629 323.603 270.465 324.075C269.825 324.334 269.631 324.881 270.032 325.295C270.432 325.71 271.276 325.836 271.917 325.576Z" fill="#744B15"/>
<path d="M255.69 322.829C256.31 322.542 256.884 322.274 257.866 321.816C266.713 317.696 270.503 315.958 275.663 313.702C284.525 309.828 287.901 308.459 294.199 306.315C294.868 306.087 295.125 305.552 294.774 305.119C294.422 304.686 293.595 304.519 292.926 304.747C286.518 306.928 283.071 308.326 274.133 312.233C268.943 314.503 265.138 316.247 256.269 320.378C255.287 320.835 254.713 321.103 254.094 321.391C253.48 321.676 253.34 322.23 253.781 322.627C254.222 323.024 255.077 323.115 255.69 322.829Z" fill="#744B15"/>
<path d="M331.704 316.921C332.355 317.169 333.194 317.028 333.577 316.607C333.961 316.185 333.743 315.642 333.092 315.393C330.805 314.522 328.226 314.024 325.575 313.943L325.488 313.942C323.365 313.966 321.07 314.433 318.504 315.283C316.738 315.868 314.937 316.597 312.683 317.604C312.613 317.635 308.55 319.488 307.561 319.907C297.137 324.324 292.331 326.322 286.278 328.711C285.633 328.966 285.429 329.51 285.822 329.929C286.215 330.346 287.057 330.479 287.702 330.224C293.788 327.822 298.611 325.817 309.058 321.39C310.093 320.952 314.203 319.077 314.236 319.063C316.401 318.096 318.111 317.403 319.75 316.86C321.957 316.129 323.863 315.739 325.491 315.714C327.682 315.786 329.814 316.2 331.704 316.921Z" fill="#744B15"/>
<path d="M284.493 394.355C284.192 394.306 283.871 394.262 283.542 394.222C283.659 396.499 283.748 398.775 283.809 401.039C283.953 406.651 284.22 418.996 284.432 428.665C288.146 427.664 291.476 426.105 293.378 424.559C299.294 419.656 301.596 413.32 299.677 407.222C298.042 402.084 293.002 395.666 284.493 394.355Z" fill="#EBE8E5"/>
<path d="M287.134 404.17C287.106 403.846 286.806 403.558 286.351 403.419C285.898 403.28 285.363 403.314 284.959 403.506C280.684 405.552 273.099 406.979 270.035 407.492C237.889 412.919 198.431 411.709 161.778 404.17C161.537 404.081 161.261 404.041 160.985 404.055C159.726 404.139 159.719 404.892 159.719 405.446C159.719 405.778 159.719 406.257 159.719 406.846C159.719 408.02 159.788 409.641 159.836 411.435C159.931 414.907 160.048 419.23 160.048 421.999C160.055 422.31 160.315 422.596 160.732 422.752C165.15 424.524 172.359 426.366 179.999 427.691C189.971 429.436 200.188 430.527 210.496 430.951C213.56 431.048 216.584 431.097 219.6 431.097C235.577 431.097 251.151 429.693 269.967 426.619C275.999 425.631 281.43 424.634 286.867 422.406C287.253 422.248 287.492 421.976 287.503 421.68C287.825 412.303 287.141 404.268 287.134 404.17Z" fill="#744B15"/>
<path d="M197.224 420.519L198.824 420.784C199.556 420.906 200.301 420.62 200.489 420.146C200.676 419.672 200.235 419.19 199.503 419.068L197.903 418.802C197.171 418.681 196.425 418.966 196.238 419.44C196.051 419.914 196.492 420.397 197.224 420.519Z" fill="#0B0B0A"/>
<path d="M207.35 421.525H208.403C209.159 421.525 209.771 421.128 209.771 420.639C209.771 420.15 209.159 419.753 208.403 419.753H207.35C206.595 419.753 205.982 420.15 205.982 420.639C205.982 421.128 206.595 421.525 207.35 421.525Z" fill="#0B0B0A"/>
<path d="M216.591 421.649H217.637C218.393 421.649 219.005 421.252 219.005 420.763C219.005 420.274 218.393 419.877 217.637 419.877H216.591C215.835 419.877 215.223 420.274 215.223 420.763C215.223 421.252 215.835 421.649 216.591 421.649Z" fill="#0B0B0A"/>
<path d="M225.903 421.679L227.558 421.617C228.312 421.588 228.889 421.169 228.845 420.681C228.801 420.193 228.154 419.82 227.4 419.847L225.745 419.909C224.991 419.938 224.415 420.357 224.459 420.845C224.502 421.334 225.149 421.707 225.903 421.679Z" fill="#0B0B0A"/>
<path d="M172.947 407.041C179.667 407.062 183.521 408.306 185.434 410.718C187.087 412.804 187.405 415.711 186.782 420.345C186.77 420.43 186.759 420.519 186.747 420.619C186.73 420.752 186.673 421.231 186.667 421.276C186.635 421.548 186.607 421.764 186.578 421.977C186.502 422.523 186.418 422.996 186.314 423.442C185.862 425.385 185.038 426.631 183.789 427.103C182.739 427.5 181.173 427.449 178.95 426.979C178.241 426.83 177.513 426.65 176.518 426.387C176.556 426.397 175.07 426 174.669 425.896C173.973 425.717 173.423 425.587 172.919 425.488C172.196 425.346 171.432 425.611 171.213 426.079C170.994 426.547 171.403 427.042 172.126 427.184C172.542 427.265 173.025 427.379 173.655 427.542C174.039 427.641 175.507 428.034 175.483 428.027C176.534 428.305 177.317 428.498 178.102 428.664C180.999 429.276 183.273 429.349 185.167 428.633C187.349 427.809 188.453 426.139 189.02 423.706C189.132 423.221 189.222 422.714 189.303 422.136C189.333 421.915 189.362 421.692 189.395 421.414C189.401 421.367 189.457 420.89 189.474 420.76C189.485 420.663 189.496 420.578 189.507 420.498C190.173 415.552 189.826 412.379 187.867 409.909C185.44 406.847 180.624 405.294 172.96 405.269C172.204 405.267 171.59 405.661 171.585 406.151C171.582 406.64 172.191 407.038 172.947 407.041Z" fill="#0B0B0A"/>
<path d="M181.545 418.372C182.761 418.785 184.129 419.071 186.617 419.493C186.812 419.526 187.478 419.638 187.584 419.656C188.766 419.856 189.472 419.984 190.131 420.125C190.848 420.278 191.621 420.026 191.858 419.561C192.095 419.097 191.705 418.596 190.987 418.442C190.259 418.287 189.51 418.151 188.276 417.942C188.168 417.924 187.502 417.812 187.31 417.779C185.024 417.391 183.785 417.132 182.816 416.803C182.147 416.575 181.32 416.742 180.969 417.176C180.618 417.609 180.876 418.144 181.545 418.372Z" fill="#0B0B0A"/>
</svg>
