<svg width="491" height="465" fill="none" xmlns="http://www.w3.org/2000/svg"><path opacity=".747" fill-rule="evenodd" clip-rule="evenodd" d="m459.223 231.923-1.26 2.566c-20.728 41.98-48.236 87.415-93.272 113.723-45.136 26.356-107.804 33.586-165.393 37.769l-3.519.252c-58.647 4.197-111.527 5.564-145.939-9.658C15.454 361.408-.465 329.653.01 290.715c.475-38.938 17.447-85.107 59.187-124.544 41.714-39.491 108.195-72.254 175.876-96.456 67.68-24.202 136.431-39.855 182.116-31.398 45.609 8.563 68.025 41.228 72.329 76.845 4.28 35.56-9.526 74.126-30.295 116.761Z" fill="#CEE5D0" fill-opacity=".5"/><path d="M166.289 134.849c-7.451 25.375-10.437 39.565-10.701 56.051a68.986 68.986 0 0 0 1.462 14.901c.863 3.999 6.069 8.651 12.511 11.123 1.722.662 9.444 3.903 10.993 4.528 3.709 1.497 6.898 2.668 9.956 3.615 7.081 2.195 12.937 3.01 17.709 2.092 5.832-1.117 9.782-4.442 13.251-9.894.932-1.464 3.673-6.379 3.412-5.931 2.299-3.948 6.705-12.52 9.734-18.89-.187.784-.391 1.59-.614 2.421-.642 2.391-1.389 4.837-2.436 8.057.039-.121-1.77 5.383-2.23 6.834-.776 2.453-1.316 4.343-1.692 5.998-.107.47-.218.936-.381 1.603-1.131 4.625-1.376 6.105-1.046 8.021.466 2.705 2.466 4.513 6.394 5.352 6.89 1.474 13.43-2.152 18.882-9.932a146.59 146.59 0 0 0 4.056-6.146 254.591 254.591 0 0 0 4.611-7.663c4.168-7.184 13.213-24.096 12.729-23.259 1.242-2.154 2.385-4.765 4.036-9-.114.293 1.478-3.82 1.9-4.879.197-.495.384-.956.564-1.389l.113.248c-.042-.092 1.501 3.313 1.962 4.293 2.855 6.061 5.454 9.739 9.429 12.31 2.329 1.436 5.531 2.075 8.672 1.74 4.761-.573 6.77-1.905 7.516-4.896.587-2.347.632-4.848.272-8.001-.121-1.061-.252-1.971-.533-3.762-.233-1.494-.31-2-.411-2.741-.396-2.89-.676-5.229-1.267-10.403-.599-5.252-.874-7.544-1.27-10.447-.727-5.312-1.526-9.568-3.451-18.972-.345-1.683-.483-2.364-.666-3.266-1.508-7.435-2.377-12.323-3.003-17.346-.887-7.018-1.366-15.502-1.023-19.847.136-1.722 21.374-86.326 21.374-86.326.154-.544-.491-1.046-1.346-1.046h-99.522c-.649 0-1.209.295-1.34.706l-19.421 57.818c-2.995 7.37-25.938 65.269-29.185 76.325Z" fill="#915B3C"/><path d="M203.385 187.514a161.125 161.125 0 0 0-.401 1.265c-.301.954-.601 1.918-.882 2.833l-.085.279c-.416 1.361-.743 2.47-.952 3.242-.554 2.047-1.187 4.027-2.243 7.11-.114.335-.2.583-.417 1.214-1.014 2.949-1.463 4.291-1.972 5.955-.467 1.52-.82 2.765-1.562 5.467-.255.933-.355 1.293-.491 1.784-.252.907-.47 1.675-.685 2.408-.685 2.416-.781 4.71-.048 6.532.19.473.938.757 1.668.634.731-.123 1.17-.607.98-1.081-.615-1.526-.529-3.581.089-5.76.216-.734.435-1.507.688-2.419.137-.493.237-.854.493-1.788.738-2.69 1.089-3.927 1.552-5.432.504-1.646.95-2.979 1.959-5.915l.417-1.215c1.064-3.107 1.704-5.109 2.266-7.188.206-.755.529-1.854.942-3.205l.084-.277c.28-.912.58-1.873.879-2.824l.29-.915.11-.345c.152-.479-.323-.948-1.063-1.046-.74-.1-1.464.208-1.616.687ZM182.488 182.598c-.211.601-.45 1.253-.781 2.14-.043.117-.679 1.815-.869 2.327-.257.692-.475 1.289-.678 1.86-.892 2.508-1.479 4.454-1.799 6.114a158.373 158.373 0 0 1-2.535 11.032c-.116.432-.59 2.172-.701 2.585-.136.502-.254.947-.364 1.372-.909 3.513-1.305 5.785-1.111 7.208.066.488.73.848 1.482.805.753-.043 1.309-.473 1.243-.96-.165-1.215.217-3.41 1.084-6.76.11-.421.227-.862.361-1.361.11-.41.584-2.151.701-2.586a158.504 158.504 0 0 0 2.554-11.116c.307-1.587.878-3.482 1.751-5.935.201-.565.417-1.157.672-1.844.189-.51.825-2.206.869-2.325.333-.894.574-1.553.789-2.162.167-.478-.294-.952-1.03-1.061-.737-.108-1.47.19-1.638.667ZM229.322 112.167c2.093.28 4.175.116 7.504-.401.735-.114 1.187-.592 1.012-1.068-.177-.475-.915-.769-1.649-.655-2.949.458-4.742.599-6.313.388-.739-.099-1.463.209-1.616.689-.153.478.322.947 1.062 1.047Z" fill="#713D26"/><path d="M173.034 181.7c1.518.176 3.094.455 7.405 1.275l.195.037c3.973.756 5.889 1.088 7.606 1.28 2.246.252 4.187.621 7.559 1.377l.822.185c2.976.669 4.476.98 6.354 1.278.841.135 1.716.256 2.774.389.467.059.813.101 1.686.206 3.854.462 5.558.725 7.571 1.25 4.239 1.105 7.897 1.82 15.699 3.177l.315.054c6.327 1.101 9.137 1.626 12.509 2.394.712.163 1.493-.08 1.744-.541.251-.462-.123-.968-.836-1.13-3.459-.788-6.314-1.322-12.707-2.434l-.315-.055c-7.697-1.338-11.283-2.039-15.388-3.109-2.236-.583-4.063-.865-8.094-1.349-.865-.104-1.206-.145-1.663-.202a81.157 81.157 0 0 1-2.641-.37c-1.772-.282-3.212-.58-6.11-1.232l-.824-.185c-3.503-.786-5.559-1.176-7.989-1.449-1.572-.176-3.442-.5-7.301-1.234l-.195-.037c-4.435-.844-6.034-1.127-7.694-1.319-.744-.086-1.455.235-1.588.716-.132.482.363.942 1.106 1.028ZM261.482 158.744c-6.472 1.163-20.915-1.789-25.278-5.022-5.917-4.353-9.508-11.913-9.014-18.291.038-.489-.543-.905-1.298-.93-.754-.024-1.396.353-1.435.841-.528 6.818 3.279 14.832 9.69 19.548 5.042 3.736 20.565 6.91 28.067 5.561.728-.13 1.154-.619.952-1.09-.202-.471-.956-.748-1.684-.617ZM172.745 156.064a60.219 60.219 0 0 1 12.895.651c1.381.209 2.653.388 4.875.692 2.466.337 2.677.367 3.648.504 6.645.941 10.942 1.79 14.861 3.091 8.634 2.863 16.598 6.672 20.99 10.422.457.39 1.314.466 1.917.17.602-.295.719-.851.263-1.241-4.682-3.998-12.955-7.955-21.922-10.928-4.18-1.387-8.667-2.273-15.524-3.245-.981-.139-1.193-.168-3.667-.507a323.635 323.635 0 0 1-4.8-.681 64.39 64.39 0 0 0-13.775-.693c-.753.043-1.309.472-1.243.96.066.487.729.848 1.482.805Z" fill="#713D26"/><path fill-rule="evenodd" clip-rule="evenodd" d="M238.842 140.965c-1.078-3.522.054-7.255 3.365-10.305 4.809-4.43 13.264-6.547 21.423-5.365 8.159 1.182 14.414 5.431 15.849 10.765 1.435 5.334-2.233 10.703-9.294 13.603-9.64 3.95-22.399 2.101-28.521-4.133l-.182-.189a327.893 327.893 0 0 1-6.247 1.757c-12.14 3.247-29.26 7.698-40.593 10.631l-.325.084c.222.382.444.769.66 1.151l.045.08c.717 1.267 1.433 2.532 2.11 3.526 2.38 3.544 2.23 5.705-.445 6.485-1.441.42-2.602-.278-3.539-.84l-.004-.002c-1.101-.664-1.826-1.054-2.831-.735-1.43.443-1.19 1.329-.684 2.75.215.51.355 1.033.417 1.56.057.782-.552 1.521-1.587 1.926l-.15.062c-1.051.421-2.365.453-3.461.085-1.416-.589-2.155-1.803-2.804-2.875a11.413 11.413 0 0 1-.105-.172 10.258 10.258 0 0 0-.374-.581 81.518 81.518 0 0 0-.885-1.276l-.298-.425c-.91-1.28-1.84-2.605-2.627-3.942a48.8 48.8 0 0 0-1.387-2.207c-1.403.253-2.651.37-3.9.32-1.689-.049-2.407-.527-2.715-.913-.439-.688-.286-1.476.403-2.073 1.02-1.054 5.11-2.174 9.07-3.255l2.489-.687c8.037-2.294 16.593-4.398 24.862-6.431a587.875 587.875 0 0 0 7.312-1.808c9.981-2.486 18.644-4.768 24.953-6.571Zm8.602 2.191c2.996 3.059 8.542 4.648 14.054 4.026 5.51-.621 9.9-3.333 11.122-6.868 1.221-3.535-.967-7.2-5.545-9.283-4.577-2.083-10.641-2.175-15.363-.234-6.448 2.649-8.364 8.18-4.282 12.359h.014Z" fill="#E2B420"/><path d="M331.974 305.815c-8.953-4.892-22.676-4.992-34.11-1.201-.824.274-1.674.566-2.582.887-2.985-2.689-9.768-3.269-15.666-2.257-2.364.407-5.187 1.085-8.62 2.035-.949.263-1.942.545-3.019.859-1.428.415-6.124 1.815-6.957 2.057a1619.718 1619.718 0 0 0-13.441 3.984l-1.766.53c-8.088 2.428-8.391 2.519-11.374 3.405-8.66 2.572-20.973 6.639-29.624 9.777-2.421.881-6.49 2.402-11.753 4.388l-.207.078a4488.11 4488.11 0 0 0-9.597 3.636l-3.15 1.197-.531.203c-1.38-.48-4.127-1.433-5.043-1.75-2.363-.819-4.33-1.498-6.23-2.149l-1.744-.596c-5.333-1.817-9.716-3.265-13.342-4.391-8.962-2.787-12.614-3.732-17.417-4.188-3.05-.289-5.954-.217-8.819.257-6.718 1.11-9.19 6.277-5.186 10.706 2.378 2.625 5.36 4.776 11.311 8.502.042.026 1.769 1.105 2.261 1.414.851.535 1.544.976 2.195 1.398.63.41 1.206.792 1.746 1.161.542.372 3.603 2.456 4.486 3.065 8.368 5.766 12.693 9.658 14.721 14.117 3.21 7.06 3.987 14.189 3.987 27.726 0 3.66.139 12.42.378 24.736l.087 4.448c.102 5.098.211 32.487.32 37.582a7440.467 7440.467 0 0 0 .135 6.223l.01.473c.011.484.62.873 1.368.873h118.551c.763 0 1.378-.404 1.368-.899l-.042-1.89-.111-4.984c-.114-5.156-.228-32.459-.335-37.271l-.003-.137-.419-18.789c-.095-3.743-.283-7.666-.564-12.098-.217-3.407-.425-6.242-.882-12.191-.548-7.147-.774-10.252-.999-14.024l.72-.418c.955-.555 2.02-1.176 3.167-1.848a793.365 793.365 0 0 0 10.706-6.382c5.4-3.286 9.378-5.837 11.452-7.395 1.329-.999 2.781-2.04 4.507-3.238.807-.559 1.653-1.14 2.72-1.867l2.765-1.881c9.154-6.237 13.774-9.879 17.494-14.368 2.273-2.728 1.91-6.057-.986-8.109 4.494-3.566 3.289-8.54-1.936-11.396Z" fill="#AD603F"/><path d="M212.768 371.488c.514-.018.888-.038 1.88-.094.595-.034.904-.05 1.254-.066 1.606-.074 2.73-.057 3.702.083.737.106 1.468-.195 1.632-.672.164-.478-.3-.951-1.038-1.057-1.287-.186-2.642-.207-4.49-.122-.369.018-.689.035-1.299.069-.961.055-1.319.073-1.793.09-.754.027-1.332.445-1.29.934.042.489.687.862 1.442.835ZM208.709 337.979c4.976-.773 11.099-.074 17.109 2.23 5.482 2.103 8.678 5.036 11.134 9.234.267.458 1.057.689 1.763.515.707-.173 1.062-.685.795-1.142-2.656-4.541-6.198-7.792-12.298-10.131-6.602-2.532-13.448-3.314-19.141-2.429-.735.114-1.188.592-1.011 1.068.176.475.914.768 1.649.655ZM244.01 322.677c15.8 0 32.976 3.422 46.167 9.126.629.272 1.478.162 1.897-.244.42-.407.251-.958-.377-1.229-13.638-5.897-31.343-9.425-47.687-9.425-.755 0-1.367.397-1.367.886 0 .49.612.886 1.367.886Z" fill="#744B15"/><path d="M271.917 325.576c1.176-.476 2.355-.964 3.541-1.463 7.063-2.973 26.923-12.238 27.856-12.65 9.112-4.029 15.379-6.02 21.284-6.493.749-.059 1.282-.502 1.19-.987-.092-.486-.776-.831-1.525-.771-6.451.516-13.046 2.611-22.491 6.787-.984.435-20.809 9.683-27.805 12.628-1.173.494-2.338.976-3.502 1.448-.64.259-.834.806-.433 1.22.4.415 1.244.541 1.885.281ZM255.69 322.829c.62-.287 1.194-.555 2.176-1.013 8.847-4.12 12.637-5.858 17.797-8.114 8.862-3.874 12.238-5.243 18.536-7.387.669-.228.926-.763.575-1.196-.352-.433-1.179-.6-1.848-.372-6.408 2.181-9.855 3.579-18.793 7.486-5.19 2.27-8.995 4.014-17.864 8.145l-2.175 1.013c-.614.285-.754.839-.313 1.236s1.296.488 1.909.202ZM331.704 316.921c.651.248 1.49.107 1.873-.314.384-.422.166-.965-.485-1.214-2.287-.871-4.866-1.369-7.517-1.45l-.087-.001c-2.123.024-4.418.491-6.984 1.341-1.766.585-3.567 1.314-5.821 2.321-.07.031-4.133 1.884-5.122 2.303-10.424 4.417-15.23 6.415-21.283 8.804-.645.255-.849.799-.456 1.218.393.417 1.235.55 1.88.295 6.086-2.402 10.909-4.407 21.356-8.834 1.035-.438 5.145-2.313 5.178-2.327 2.165-.967 3.875-1.66 5.514-2.203 2.207-.731 4.113-1.121 5.741-1.146 2.191.072 4.323.486 6.213 1.207Z" fill="#744B15"/><path d="M284.493 394.355a24.021 24.021 0 0 0-.951-.133c.117 2.277.206 4.553.267 6.817.144 5.612.411 17.957.623 27.626 3.714-1.001 7.044-2.56 8.946-4.106 5.916-4.903 8.218-11.239 6.299-17.337-1.635-5.138-6.675-11.556-15.184-12.867Z" fill="#EBE8E5"/><path d="M287.134 404.17c-.028-.324-.328-.612-.783-.751a2.007 2.007 0 0 0-1.392.087c-4.275 2.046-11.86 3.473-14.924 3.986-32.146 5.427-71.604 4.217-108.257-3.322a2.02 2.02 0 0 0-.793-.115c-1.259.084-1.266.837-1.266 1.391v1.4c0 1.174.069 2.795.117 4.589.095 3.472.212 7.795.212 10.564.007.311.267.597.684.753 4.418 1.772 11.627 3.614 19.267 4.939a232.65 232.65 0 0 0 30.497 3.26c3.064.097 6.088.146 9.104.146 15.977 0 31.551-1.404 50.367-4.478 6.032-.988 11.463-1.985 16.9-4.213.386-.158.625-.43.636-.726.322-9.377-.362-17.412-.369-17.51Z" fill="#744B15"/><path d="m197.224 420.519 1.6.265c.732.122 1.477-.164 1.665-.638.187-.474-.254-.956-.986-1.078l-1.6-.266c-.732-.121-1.478.164-1.665.638-.187.474.254.957.986 1.079ZM207.35 421.525h1.053c.756 0 1.368-.397 1.368-.886s-.612-.886-1.368-.886h-1.053c-.755 0-1.368.397-1.368.886s.613.886 1.368.886ZM216.591 421.649h1.046c.756 0 1.368-.397 1.368-.886s-.612-.886-1.368-.886h-1.046c-.756 0-1.368.397-1.368.886s.612.886 1.368.886ZM225.903 421.679l1.655-.062c.754-.029 1.331-.448 1.287-.936-.044-.488-.691-.861-1.445-.834l-1.655.062c-.754.029-1.33.448-1.286.936.043.489.69.862 1.444.834ZM172.947 407.041c6.72.021 10.574 1.265 12.487 3.677 1.653 2.086 1.971 4.993 1.348 9.627a13.36 13.36 0 0 0-.035.274l-.08.657c-.032.272-.06.488-.089.701-.076.546-.16 1.019-.264 1.465-.452 1.943-1.276 3.189-2.525 3.661-1.05.397-2.616.346-4.839-.124a48.033 48.033 0 0 1-2.432-.592c.038.01-1.448-.387-1.849-.491a31.141 31.141 0 0 0-1.75-.408c-.723-.142-1.487.123-1.706.591-.219.468.19.963.913 1.105.416.081.899.195 1.529.358.384.099 1.852.492 1.828.485 1.051.278 1.834.471 2.619.637 2.897.612 5.171.685 7.065-.031 2.182-.824 3.286-2.494 3.853-4.927.112-.485.202-.992.283-1.57.03-.221.059-.444.092-.722.006-.047.062-.524.079-.654.011-.097.022-.182.033-.262.666-4.946.319-8.119-1.64-10.589-2.427-3.062-7.243-4.615-14.907-4.64-.756-.002-1.37.392-1.375.882-.003.489.606.887 1.362.89Z" fill="#0B0B0A"/><path d="M181.545 418.372c1.216.413 2.584.699 5.072 1.121l.967.163c1.182.2 1.888.328 2.547.469.717.153 1.49-.099 1.727-.564.237-.464-.153-.965-.871-1.119a64.265 64.265 0 0 0-2.711-.5l-.966-.163c-2.286-.388-3.525-.647-4.494-.976-.669-.228-1.496-.061-1.847.373-.351.433-.093.968.576 1.196Z" fill="#0B0B0A"/></svg>