<svg width="391" height="102" fill="none" xmlns="http://www.w3.org/2000/svg"><path fill="#B86767" d="M0 0h336.893v102H0z"/><path d="M337.267 102 288.911 0h95.938l-47.582 102Z" fill="#B86767"/><g clip-path="url(#a)"><path d="M389.998 51.627c0 17.407-14.406 31.518-32.177 31.518-17.77 0-32.176-14.111-32.176-31.518s14.406-31.518 32.176-31.518c17.771 0 32.177 14.111 32.177 31.518Z" fill="#CEE5D0"/><path d="M380.504 29.387c-6.066-5.94-14.129-9.212-22.706-9.212-8.659 0-15.705 6.97-15.705 15.536 0 8.566 7.046 15.535 15.705 15.535 8.91 0 16.159 7.17 16.159 15.983 0 4.78-2.147 9.275-5.89 12.33l.925 1.564a31.956 31.956 0 0 0 11.512-7.255c6.064-5.94 9.404-13.839 9.404-22.24 0-8.402-3.34-16.3-9.404-22.24Z" fill="#696867"/><path d="M380.504 29.387c-6.066-5.94-14.129-9.212-22.706-9.212-.552 0-1.099.03-1.637.084 7.683.546 14.831 3.739 20.333 9.128 6.065 5.94 9.405 13.84 9.405 22.24 0 8.402-3.34 16.3-9.405 22.241a31.962 31.962 0 0 1-8.309 5.891l.807 1.364a31.958 31.958 0 0 0 11.512-7.255c6.064-5.94 9.404-13.839 9.404-22.24 0-8.402-3.34-16.3-9.404-22.24Z" fill="#544F4F"/><path d="M363.006 67.556c0 2.104-1.741 3.81-3.889 3.81-2.148 0-3.89-1.706-3.89-3.81s1.742-3.81 3.89-3.81 3.889 1.706 3.889 3.81Z" fill="#696867"/><path d="M359.117 63.746c-.734 0-1.419.2-2.005.545 1.129.667 1.885 1.88 1.885 3.265 0 1.386-.756 2.599-1.885 3.265a3.933 3.933 0 0 0 2.005.545c2.147 0 3.889-1.706 3.889-3.81 0-2.103-1.742-3.81-3.889-3.81Z" fill="#544F4F"/><path d="M363.006 34.487c0 2.103-1.741 3.81-3.889 3.81-2.148 0-3.89-1.707-3.89-3.81 0-2.104 1.742-3.81 3.89-3.81s3.889 1.706 3.889 3.81Z" fill="#F9F9ED"/><path d="M359.117 30.677c-.734 0-1.419.2-2.005.545 1.129.666 1.885 1.879 1.885 3.265 0 1.385-.756 2.598-1.885 3.265a3.933 3.933 0 0 0 2.005.544c2.147 0 3.889-1.705 3.889-3.81 0-2.103-1.742-3.81-3.889-3.81Z" fill="#ECECEC"/><path d="M385.555 33.78a1.016 1.016 0 0 0-1.389-.28.97.97 0 0 0-.286 1.36 29.966 29.966 0 0 1 5.115 16.767c0 8.157-3.242 15.825-9.13 21.592a31.167 31.167 0 0 1-11.176 7.044c3.8-3.102 6.226-7.794 6.226-13.035 0-9.318-7.668-16.9-17.094-16.9-8.144 0-14.77-6.557-14.77-14.618s6.626-14.62 14.77-14.62c9.084 0 17.697 3.87 23.631 10.62.361.41.994.457 1.414.103a.968.968 0 0 0 .105-1.385c-6.315-7.182-15.482-11.301-25.15-11.301-8.862 0-17.194 3.38-23.461 9.519-6.266 6.138-9.718 14.3-9.718 22.981 0 .78.029 1.57.085 2.345a.995.995 0 0 0 1.072.91.99.99 0 0 0 .928-1.05c-.053-.729-.08-1.47-.08-2.205 0-8.157 3.243-15.825 9.131-21.593a31.143 31.143 0 0 1 11.383-7.118c-3.732 3.044-6.114 7.649-6.114 12.794 0 9.143 7.525 16.582 16.774 16.582 8.321 0 15.09 6.7 15.09 14.936 0 8.235-6.769 14.935-15.09 14.935-7.246 0-14.303-2.488-19.873-7.008-5.498-4.46-9.295-10.671-10.691-17.486a1.003 1.003 0 0 0-1.18-.77.984.984 0 0 0-.786 1.156c1.487 7.255 5.527 13.865 11.378 18.613 5.929 4.81 13.441 7.458 21.152 7.458 8.862 0 17.195-3.38 23.461-9.519 6.267-6.138 9.718-14.3 9.718-22.98a31.896 31.896 0 0 0-5.445-17.847Z" fill="#F7D59C"/><path d="M364.008 67.556c0-2.642-2.194-4.791-4.892-4.791-2.697 0-4.891 2.149-4.891 4.791 0 2.642 2.194 4.792 4.891 4.792 2.698 0 4.892-2.15 4.892-4.792Zm-7.779 0c0-1.559 1.296-2.828 2.888-2.828 1.591 0 2.886 1.269 2.886 2.828 0 1.56-1.295 2.828-2.886 2.828-1.592 0-2.888-1.268-2.888-2.828ZM354.225 34.487c0 2.642 2.194 4.791 4.892 4.791 2.697 0 4.891-2.15 4.891-4.791 0-2.642-2.194-4.792-4.891-4.792-2.698 0-4.892 2.15-4.892 4.792Zm7.778 0c0 1.559-1.295 2.828-2.887 2.828-1.591 0-2.887-1.269-2.887-2.828 0-1.56 1.296-2.828 2.887-2.828 1.592 0 2.887 1.268 2.887 2.828Z" fill="#18191B"/></g><path d="m34.353 40.346.54 2.538c0 .612-.216 1.116-.648 1.512a2.167 2.167 0 0 1-1.512.594c-.576 0-1.008-.27-1.296-.81a4.162 4.162 0 0 1-.378-1.782c0-1.944.828-3.69 2.484-5.238 1.692-1.584 3.6-2.376 5.724-2.376h.324c.72-2.736 1.8-4.104 3.24-4.104.432 0 .648.576.648 1.728 0 .216-.054 1.08-.162 2.592.54.072 1.17.162 1.89.27 1.692.252 3.096.378 4.212.378 1.152 0 2.304-.18 3.456-.54 1.188-.396 1.98-.594 2.376-.594 1.008 0 1.512.522 1.512 1.566 0 1.008-.54 1.782-1.62 2.322-1.08.504-2.646.756-4.698.756-2.052 0-4.554-.468-7.506-1.404-.432 2.484-.684 4.356-.756 5.616-.072 1.26-.144 3.132-.216 5.616 1.512-.072 3.6-.108 6.264-.108.468 0 .864.18 1.188.54.36.36.54.738.54 1.134 0 .396-.126.72-.378.972s-.522.378-.81.378l-6.858-.378c-.144 3.528-.27 5.922-.378 7.182a7.943 7.943 0 0 1-1.026 3.51c-.612 1.08-1.332 1.62-2.16 1.62-.468 0-.99-.252-1.566-.756-.54-.468-.81-.918-.81-1.35 0-.432.054-.756.162-.972.144-.252.288-.486.432-.702.18-.252.306-.45.378-.594.432-.936.828-3.51 1.188-7.722l-2.106.27c-.288 0-.522-.09-.702-.27-.18-.216-.27-.45-.27-.702 0-.288.054-.54.162-.756.108-.216.324-.378.648-.486.324-.144.558-.234.702-.27a7.101 7.101 0 0 1 1.728-.216c.072-.864.162-2.736.27-5.616.144-2.88.342-5.13.594-6.75a6.422 6.422 0 0 0-.972-.054c-2.556 0-3.834 1.152-3.834 3.456ZM63.414 62.27c-.792 0-1.53-.09-2.214-.27-.648-.216-1.044-.414-1.188-.594-.36-.432-.54-2.664-.54-6.696 0-4.068.45-9.576 1.35-16.524.756-5.724 2.52-8.586 5.292-8.586.648 0 1.116.36 1.404 1.08.288.684.432 1.35.432 1.998 0 4.68-1.422 9.918-4.266 15.714a220.264 220.264 0 0 0-.162 7.83c0 2.196.198 3.294.594 3.294.612-.036 1.458-.792 2.538-2.268 1.08-1.512 2.142-3.438 3.186-5.778 1.08-2.34 1.728-3.51 1.944-3.51.252 0 .378.144.378.432 0 1.008-.522 2.61-1.566 4.806-2.844 6.048-5.238 9.072-7.182 9.072ZM66.6 33.164c0-1.152-.144-1.728-.432-1.728-1.08 0-1.872 4.482-2.376 13.446 1.872-4.932 2.808-8.838 2.808-11.718Zm25.964 17.118c1.44-.468 2.43-.864 2.97-1.188l1.296-.81.648-.378c.18-.108.324-.162.432-.162.288 0 .432.162.432.486 0 .324-.558.9-1.674 1.728-1.116.792-2.502 1.512-4.158 2.16-.252 3.024-1.206 5.472-2.862 7.344-1.656 1.872-4.014 2.808-7.074 2.808-2.232 0-3.942-.882-5.13-2.646-1.188-1.8-1.782-3.888-1.782-6.264 0-2.412.702-4.68 2.106-6.804 1.44-2.124 3.276-3.186 5.508-3.186 1.008-.72 2.196-1.08 3.564-1.08 1.404 0 2.7.738 3.888 2.214 1.188 1.476 1.8 3.402 1.836 5.778Zm-3.51 2.754-1.944.108c-1.656 0-3.06-.486-4.212-1.458-1.152-1.008-1.728-2.106-1.728-3.294 0-1.188.198-2.214.594-3.078-1.548 1.224-2.322 3.636-2.322 7.236 0 1.728.36 3.384 1.08 4.968.72 1.548 1.854 2.322 3.402 2.322s2.754-.648 3.618-1.944c.864-1.332 1.368-2.952 1.512-4.86Zm-3.348-8.964c-.576 0-1.026.27-1.35.81a3.032 3.032 0 0 0-.486 1.674c0 1.332.45 2.412 1.35 3.24.936.828 2.016 1.242 3.24 1.242h.648c-.072-1.764-.378-3.366-.918-4.806-.504-1.44-1.332-2.16-2.484-2.16Zm38.84 6.75c1.512 0 2.916-.648 4.212-1.944.648-.648 1.08-.972 1.296-.972.252 0 .378.18.378.54 0 .36-.234.792-.702 1.296-1.908 2.124-4.302 3.186-7.182 3.186-.576 2.664-1.476 4.896-2.7 6.696-1.224 1.764-2.772 2.646-4.644 2.646-1.872 0-3.222-1.098-4.05-3.294-1.476 2.196-3.006 3.294-4.59 3.294-2.988 0-4.482-2.88-4.482-8.64 0-3.996.396-6.714 1.188-8.154.144-.252.684-.666 1.62-1.242s1.584-.864 1.944-.864c.54 0 .81.324.81.972-.072 1.692-.576 3.69-1.512 5.994-.216.432-.324 1.476-.324 3.132 0 1.62.18 3.06.54 4.32.396 1.224.954 1.836 1.674 1.836s1.602-.864 2.646-2.592c-.18-.9-.27-1.854-.27-2.862 0-1.044.108-2.142.324-3.294.216-1.188.648-2.376 1.296-3.564.648-1.188 1.422-1.782 2.322-1.782.288 0 .486.09.594.27.144.18.216.612.216 1.296 0 1.836-.486 4.122-1.458 6.858.144 1.584.504 2.934 1.08 4.05.612 1.08 1.278 1.62 1.998 1.62 1.044 0 1.926-.666 2.646-1.998.72-1.368 1.278-3.024 1.674-4.968-1.332-.36-2.358-1.044-3.078-2.052-.72-1.008-1.08-2.16-1.08-3.456 0-1.332.306-2.466.918-3.402.648-.972 1.584-1.458 2.808-1.458 1.656 0 2.484 1.782 2.484 5.346 0 .936-.054 1.908-.162 2.916.54.18 1.062.27 1.566.27Zm-4.266-6.48c-.324 0-.486.612-.486 1.836 0 1.224.558 2.358 1.674 3.402.036-.18.054-.45.054-.81 0-2.952-.414-4.428-1.242-4.428Zm42.015-1.512c.504-3.888 1.674-6.876 3.51-8.964 1.872-2.124 4.32-3.186 7.344-3.186s4.536 1.044 4.536 3.132c0 1.404-.342 2.7-1.026 3.888a8.892 8.892 0 0 1-2.646 2.916c-2.196 1.476-4.77 2.538-7.722 3.186-.72 6.192-1.782 10.62-3.186 13.284 3.312 1.116 5.544 1.836 6.696 2.16 1.152.288 2.358.432 3.618.432 1.296 0 2.178-.522 2.646-1.566.468-1.044.81-1.566 1.026-1.566.432 0 .648.27.648.81 0 1.692-.63 3.132-1.89 4.32-1.26 1.188-2.628 1.782-4.104 1.782-1.512 0-2.88-.252-4.104-.756a125.349 125.349 0 0 1-2.322-.972c-.324-.144-.99-.45-1.998-.918-.972-.468-1.656-.792-2.052-.972-1.368 1.44-3.204 2.16-5.508 2.16-.936 0-1.764-.342-2.484-1.026-.72-.684-1.08-1.494-1.08-2.43 0-2.052 1.17-3.078 3.51-3.078 1.008 0 2.412.234 4.212.702.684-2.16 1.404-6.084 2.16-11.772-.396.036-.936.054-1.62.054-.648 0-.972-.108-.972-.324 0-.684.936-1.116 2.808-1.296Zm4.158-.594c2.304-.504 4.194-1.35 5.67-2.538 1.512-1.224 2.268-2.808 2.268-4.752s-.666-2.916-1.998-2.916c-2.916 0-4.896 3.402-5.94 10.206Zm-7.776 16.47c-2.088-.9-3.384-1.35-3.888-1.35-.468 0-.702.252-.702.756s.216.936.648 1.296c.468.36 1.062.54 1.782.54s1.44-.414 2.16-1.242Zm27.563-23.112c0-.648.342-1.206 1.026-1.674.684-.468 1.296-.702 1.836-.702.972 0 1.458.558 1.458 1.674 0 1.116-.288 2.088-.864 2.916-.576.792-1.386 1.188-2.43 1.188-.684 0-1.026-1.134-1.026-3.402Zm1.566 26.676c-1.404 0-2.466-.288-3.186-.864-.252-.252-.378-1.152-.378-2.7 0-1.548.108-4.122.324-7.722.252-3.636.468-5.598.648-5.886.18-.288.738-.828 1.674-1.62.936-.792 1.656-1.188 2.16-1.188.54 0 .81.684.81 2.052 0 .36-.108 1.062-.324 2.106-.18 1.044-.396 1.8-.648 2.268-.468 1.188-.702 4.302-.702 9.342 0 .972.108 1.458.324 1.458.612-.036 1.458-.792 2.538-2.268 1.08-1.512 2.142-3.438 3.186-5.778 1.08-2.34 1.728-3.51 1.944-3.51.252 0 .378.144.378.432 0 1.008-.522 2.61-1.566 4.806-2.844 6.048-5.238 9.072-7.182 9.072Zm19.375-2.646c1.296 0 2.43-.666 3.402-1.998.972-1.368 1.692-3.024 2.16-4.968-1.296-.396-2.286-1.08-2.97-2.052-.684-1.008-1.026-2.16-1.026-3.456 0-1.296.324-2.43.972-3.402.684-.972 1.656-1.458 2.916-1.458.756 0 1.332.486 1.728 1.458.396.936.594 1.998.594 3.186s-.09 2.376-.27 3.564a4.61 4.61 0 0 0 1.728.324c1.404 0 2.754-.648 4.05-1.944.648-.648 1.08-.972 1.296-.972.252 0 .378.18.378.54 0 .36-.234.792-.702 1.296-1.908 2.124-4.32 3.186-7.236 3.186-.684 2.628-1.746 4.842-3.186 6.642-1.44 1.8-3.204 2.7-5.292 2.7-1.224 0-2.232-.522-3.024-1.566-1.332-1.692-1.998-4.176-1.998-7.452 0-1.116.09-2.556.27-4.32.18-1.764.378-2.844.594-3.24.252-.396.828-.882 1.728-1.458.936-.576 1.584-.864 1.944-.864.54 0 .81.324.81.972 0 1.836-.468 3.834-1.404 5.994 0 2.556.198 4.752.594 6.588.432 1.8 1.08 2.7 1.944 2.7Zm4.914-15.282c-.288 0-.432.594-.432 1.782 0 1.188.54 2.322 1.62 3.402a7.87 7.87 0 0 0 .108-1.296c0-2.592-.432-3.888-1.296-3.888Zm15.963-8.748c0-.648.342-1.206 1.026-1.674.684-.468 1.296-.702 1.836-.702.972 0 1.458.558 1.458 1.674 0 1.116-.288 2.088-.864 2.916-.576.792-1.386 1.188-2.43 1.188-.684 0-1.026-1.134-1.026-3.402Zm1.566 26.676c-1.404 0-2.466-.288-3.186-.864-.252-.252-.378-1.152-.378-2.7 0-1.548.108-4.122.324-7.722.252-3.636.468-5.598.648-5.886.18-.288.738-.828 1.674-1.62.936-.792 1.656-1.188 2.16-1.188.54 0 .81.684.81 2.052 0 .36-.108 1.062-.324 2.106-.18 1.044-.396 1.8-.648 2.268-.468 1.188-.702 4.302-.702 9.342 0 .972.108 1.458.324 1.458.612-.036 1.458-.792 2.538-2.268 1.08-1.512 2.142-3.438 3.186-5.778 1.08-2.34 1.728-3.51 1.944-3.51.252 0 .378.144.378.432 0 1.008-.522 2.61-1.566 4.806-2.844 6.048-5.238 9.072-7.182 9.072Zm16.838-3.186.054 1.674c0 1.008-.288 1.512-.864 1.512a9.4 9.4 0 0 1-2.484-.324c-.792-.252-1.188-.576-1.188-.972 0-.432.09-1.854.27-4.266.216-2.448.324-4.284.324-5.508v-3.186c0-1.728.18-2.772.54-3.132.36-.36.99-.882 1.89-1.566.936-.684 1.602-1.026 1.998-1.026.432 0 .702.072.81.216.108.144.162.414.162.81 0 1.908-.36 3.708-1.08 5.4-.18 2.052-.27 3.474-.27 4.266.144-.216.9-1.44 2.268-3.672 1.368-2.232 2.52-3.87 3.456-4.914.972-1.044 1.836-1.566 2.592-1.566s1.422.252 1.998.756c.612.504.918 1.134.918 1.89 0 1.584-.18 3.924-.54 7.02-.324 3.06-.486 5.004-.486 5.832 0 .792.108 1.188.324 1.188.612-.036 1.458-.792 2.538-2.268 1.08-1.512 2.142-3.438 3.186-5.778 1.08-2.34 1.728-3.51 1.944-3.51.252 0 .378.144.378.432 0 1.008-.522 2.61-1.566 4.806-2.844 6.048-5.238 9.072-7.182 9.072-1.404 0-2.466-.288-3.186-.864-.252-.252-.378-.9-.378-1.944 0-1.08.09-2.808.27-5.184.216-2.412.324-4.212.324-5.4 0-1.188-.216-1.782-.648-1.782-.396 0-1.476 1.242-3.24 3.726-1.764 2.448-2.7 4.014-2.808 4.698a21.14 21.14 0 0 0-.324 3.564Zm34.943-5.346c-1.116 2.952-2.16 5.112-3.132 6.48-.936 1.368-2.178 2.052-3.726 2.052s-2.862-.666-3.942-1.998c-1.044-1.332-1.566-3.456-1.566-6.372s.81-5.49 2.43-7.722c1.656-2.232 3.816-3.348 6.48-3.348.54 0 1.188.234 1.944.702a7.897 7.897 0 0 1 1.998 1.62c.108-.36.63-.918 1.566-1.674.936-.792 1.656-1.188 2.16-1.188.54 0 .81.774.81 2.322s-.324 2.916-.972 4.104c-.36 2.412-.558 4.644-.594 6.696 3.528-4.464 5.4-6.822 5.616-7.074.252-.252.468-.378.648-.378.36 0 .54.18.54.54 0 .216-.072.45-.216.702-1.152 1.692-3.42 4.662-6.804 8.91-.216 4.284-.36 7.2-.432 8.748-.18 4.572-.828 7.776-1.944 9.612-1.08 1.872-3.024 2.808-5.832 2.808-1.224 0-2.376-.378-3.456-1.134-1.044-.72-1.566-1.998-1.566-3.834 0-1.8.684-3.654 2.052-5.562 1.404-1.908 3.942-4.842 7.614-8.802l.324-6.21Zm-3.78-8.964c-1.008 0-2.088.792-3.24 2.376-1.116 1.548-1.674 3.348-1.674 5.4 0 2.016.288 3.672.864 4.968.612 1.26 1.368 1.89 2.268 1.89.9 0 1.764-.738 2.592-2.214.828-1.476 1.89-4.014 3.186-7.614.072-1.224.108-1.998.108-2.322-.288-.54-.882-1.08-1.782-1.62-.9-.576-1.674-.864-2.322-.864Zm3.294 17.712c-4.104 4.428-6.156 7.974-6.156 10.638 0 1.224.216 2.232.648 3.024.432.792 1.026 1.188 1.782 1.188 1.152 0 1.962-.63 2.43-1.89.468-1.26.81-3.816 1.026-7.668l.27-5.292Z" fill="#F7D59C"/><defs><clipPath id="a"><path fill="#fff" transform="translate(324.642 19)" d="M0 0h66.358v65H0z"/></clipPath></defs></svg>