<svg width="562" height="102" fill="none" xmlns="http://www.w3.org/2000/svg"><path fill="#B86767" d="M0 0h504v102H0z"/><path d="M504 102 449 0h109.119L504 102Z" fill="#B86767"/><g clip-path="url(#a)"><path d="M560.867 49.647c0 20.084-16.282 36.366-36.367 36.366-20.085 0-36.367-16.282-36.367-36.367 0-20.085 16.282-36.367 36.367-36.367 20.085 0 36.367 16.282 36.367 36.368Z" fill="#CEE5D0"/><path d="M550.136 23.985c-6.855-6.854-15.968-10.629-25.662-10.629-9.787 0-17.75 8.041-17.75 17.926 0 9.884 7.963 17.925 17.75 17.925 10.07 0 18.263 8.273 18.263 18.442a18.466 18.466 0 0 1-6.657 14.227l1.045 1.804c4.897-1.817 9.274-4.634 13.011-8.37 6.855-6.855 10.63-15.969 10.63-25.662 0-9.695-3.775-18.808-10.63-25.663Z" fill="#696867"/><path d="M550.136 23.985c-6.855-6.854-15.968-10.629-25.662-10.629-.625 0-1.242.033-1.851.097 8.685.63 16.763 4.314 22.982 10.532 6.855 6.855 10.629 15.968 10.629 25.663 0 9.693-3.774 18.807-10.629 25.661a36.164 36.164 0 0 1-9.391 6.797l.911 1.574c4.897-1.818 9.274-4.634 13.011-8.37 6.855-6.855 10.63-15.969 10.63-25.662 0-9.695-3.775-18.808-10.63-25.663Z" fill="#544F4F"/><path d="M530.36 68.026a4.396 4.396 0 1 1-8.792 0 4.396 4.396 0 0 1 8.792 0Z" fill="#696867"/><path d="M525.964 63.63c-.829 0-1.604.23-2.266.629a4.393 4.393 0 0 1 0 7.535 4.396 4.396 0 1 0 2.266-8.163Z" fill="#544F4F"/><path d="M530.36 29.87a4.396 4.396 0 1 1-8.792-.001 4.396 4.396 0 0 1 8.792 0Z" fill="#F9F9ED"/><path d="M525.964 25.473c-.829 0-1.604.23-2.266.629a4.393 4.393 0 0 1 0 7.535 4.396 4.396 0 1 0 2.266-8.164Z" fill="#ECECEC"/><path d="M555.845 29.054a1.133 1.133 0 0 0-1.892 1.246 35.088 35.088 0 0 1 5.781 19.347c0 9.411-3.665 18.26-10.32 24.914a35.12 35.12 0 0 1-12.631 8.127 19.539 19.539 0 0 0 7.037-15.04c0-10.752-8.667-19.5-19.32-19.5-9.204 0-16.693-7.566-16.693-16.868 0-9.3 7.489-16.868 16.693-16.868a35.222 35.222 0 0 1 26.709 12.253 1.131 1.131 0 1 0 1.716-1.479 37.483 37.483 0 0 0-28.425-13.04c-10.016 0-19.434 3.901-26.517 10.984C490.901 30.213 487 39.63 487 49.647c0 .9.032 1.81.096 2.705a1.133 1.133 0 1 0 2.26-.16 35.92 35.92 0 0 1-.091-2.545c0-9.412 3.666-18.26 10.321-24.915a35.101 35.101 0 0 1 12.865-8.214 19.173 19.173 0 0 0-6.91 14.762c0 10.55 8.505 19.134 18.959 19.134 9.404 0 17.055 7.73 17.055 17.233 0 9.502-7.651 17.234-17.055 17.234a35.28 35.28 0 0 1-22.461-8.086c-6.214-5.148-10.506-12.314-12.084-20.177a1.134 1.134 0 0 0-2.221.446c1.68 8.37 6.246 15.998 12.859 21.475a37.553 37.553 0 0 0 23.907 8.607c10.016 0 19.434-3.9 26.517-10.984C558.099 69.08 562 59.662 562 49.646a37.35 37.35 0 0 0-6.155-20.592Z" fill="#F7D59C"/><path d="M531.493 68.026a5.535 5.535 0 0 0-5.529-5.528 5.535 5.535 0 0 0-5.529 5.528 5.535 5.535 0 0 0 5.529 5.529 5.535 5.535 0 0 0 5.529-5.529Zm-8.792 0c0-1.799 1.464-3.263 3.263-3.263a3.267 3.267 0 0 1 3.263 3.263c0 1.8-1.464 3.264-3.263 3.264a3.267 3.267 0 0 1-3.263-3.264ZM520.436 29.87a5.535 5.535 0 0 0 5.528 5.528 5.535 5.535 0 0 0 5.529-5.529c0-3.048-2.48-5.529-5.529-5.529a5.535 5.535 0 0 0-5.528 5.53Zm8.791 0a3.267 3.267 0 0 1-3.263 3.262 3.267 3.267 0 0 1-3.263-3.263c0-1.8 1.464-3.263 3.263-3.263a3.267 3.267 0 0 1 3.263 3.263Z" fill="#18191B"/></g><path d="m98.416 37.336.64 3.008c0 .725-.256 1.323-.768 1.792-.512.47-1.11.704-1.792.704-.683 0-1.195-.32-1.536-.96a4.932 4.932 0 0 1-.448-2.112c0-2.304.981-4.373 2.944-6.208 2.005-1.877 4.267-2.816 6.784-2.816h.384c.853-3.243 2.133-4.864 3.84-4.864.512 0 .768.683.768 2.048 0 .256-.064 1.28-.192 3.072.64.085 1.387.192 2.24.32 2.005.299 3.669.448 4.992.448 1.365 0 2.731-.213 4.096-.64 1.408-.47 2.347-.704 2.816-.704 1.195 0 1.792.619 1.792 1.856 0 1.195-.64 2.112-1.92 2.752-1.28.597-3.136.896-5.568.896-2.432 0-5.397-.555-8.896-1.664-.512 2.944-.811 5.163-.896 6.656-.085 1.493-.171 3.712-.256 6.656 1.792-.085 4.267-.128 7.424-.128.555 0 1.024.213 1.408.64.427.427.64.875.64 1.344 0 .47-.149.853-.448 1.152-.299.299-.619.448-.96.448l-8.128-.448c-.171 4.181-.32 7.019-.448 8.512a9.414 9.414 0 0 1-1.216 4.16c-.725 1.28-1.579 1.92-2.56 1.92-.555 0-1.173-.299-1.856-.896-.64-.555-.96-1.088-.96-1.6s.064-.896.192-1.152c.171-.299.341-.576.512-.832a5.77 5.77 0 0 0 .448-.704c.512-1.11.981-4.16 1.408-9.152l-2.496.32c-.341 0-.619-.107-.832-.32a1.274 1.274 0 0 1-.32-.832c0-.341.064-.64.192-.896s.384-.448.768-.576c.384-.17.661-.277.832-.32a8.414 8.414 0 0 1 2.048-.256c.085-1.024.192-3.243.32-6.656.171-3.413.405-6.08.704-8-.256-.043-.64-.064-1.152-.064-3.03 0-4.544 1.365-4.544 4.096ZM132.86 63.32a10.28 10.28 0 0 1-2.624-.32c-.768-.256-1.238-.49-1.408-.704-.427-.512-.64-3.157-.64-7.936 0-4.821.533-11.35 1.6-19.584.896-6.784 2.986-10.176 6.272-10.176.768 0 1.322.427 1.664 1.28.341.81.512 1.6.512 2.368 0 5.547-1.686 11.755-5.056 18.624a261.053 261.053 0 0 0-.192 9.28c0 2.603.234 3.904.704 3.904.725-.043 1.728-.939 3.008-2.688 1.28-1.792 2.538-4.075 3.776-6.848 1.28-2.773 2.048-4.16 2.304-4.16.298 0 .448.17.448.512 0 1.195-.619 3.093-1.856 5.696-3.371 7.168-6.208 10.752-8.512 10.752Zm3.775-34.496c0-1.365-.17-2.048-.511-2.048-1.28 0-2.219 5.312-2.816 15.936 2.218-5.845 3.327-10.475 3.327-13.888Zm30.772 20.288c1.707-.555 2.88-1.024 3.52-1.408l1.536-.96.768-.448c.213-.128.384-.192.512-.192.341 0 .512.192.512.576 0 .384-.661 1.067-1.984 2.048-1.323.939-2.965 1.792-4.928 2.56-.299 3.584-1.429 6.485-3.392 8.704-1.963 2.219-4.757 3.328-8.384 3.328-2.645 0-4.672-1.045-6.08-3.136-1.408-2.133-2.112-4.608-2.112-7.424 0-2.859.832-5.547 2.496-8.064 1.707-2.517 3.883-3.776 6.528-3.776 1.195-.853 2.603-1.28 4.224-1.28 1.664 0 3.2.875 4.608 2.624 1.408 1.75 2.133 4.032 2.176 6.848Zm-4.16 3.264-2.304.128c-1.963 0-3.627-.576-4.992-1.728-1.365-1.195-2.048-2.496-2.048-3.904s.235-2.624.704-3.648c-1.835 1.45-2.752 4.31-2.752 8.576 0 2.048.427 4.01 1.28 5.888.853 1.835 2.197 2.752 4.032 2.752s3.264-.768 4.288-2.304c1.024-1.579 1.621-3.499 1.792-5.76Zm-3.968-10.624c-.683 0-1.216.32-1.6.96a3.593 3.593 0 0 0-.576 1.984c0 1.579.533 2.859 1.6 3.84 1.109.981 2.389 1.472 3.84 1.472h.768c-.085-2.09-.448-3.99-1.088-5.696-.597-1.707-1.579-2.56-2.944-2.56Zm46.033 8c1.792 0 3.456-.768 4.992-2.304.768-.768 1.28-1.152 1.536-1.152.298 0 .448.213.448.64 0 .427-.278.939-.832 1.536-2.262 2.517-5.099 3.776-8.512 3.776-.683 3.157-1.75 5.803-3.2 7.936-1.451 2.09-3.286 3.136-5.504 3.136-2.219 0-3.819-1.301-4.8-3.904-1.75 2.603-3.563 3.904-5.44 3.904-3.542 0-5.312-3.413-5.312-10.24 0-4.736.469-7.957 1.408-9.664.17-.299.81-.79 1.92-1.472 1.109-.683 1.877-1.024 2.304-1.024.64 0 .96.384.96 1.152-.086 2.005-.683 4.373-1.792 7.104-.256.512-.384 1.75-.384 3.712 0 1.92.213 3.627.64 5.12.469 1.45 1.13 2.176 1.984 2.176.853 0 1.898-1.024 3.136-3.072a17.224 17.224 0 0 1-.32-3.392c0-1.237.128-2.539.384-3.904.256-1.408.768-2.816 1.536-4.224.768-1.408 1.685-2.112 2.752-2.112.341 0 .576.107.704.32.17.213.256.725.256 1.536 0 2.176-.576 4.885-1.728 8.128.17 1.877.597 3.477 1.28 4.8.725 1.28 1.514 1.92 2.368 1.92 1.237 0 2.282-.79 3.136-2.368.853-1.621 1.514-3.584 1.984-5.888-1.579-.427-2.795-1.237-3.648-2.432-.854-1.195-1.28-2.56-1.28-4.096 0-1.579.362-2.923 1.088-4.032.768-1.152 1.877-1.728 3.328-1.728 1.962 0 2.944 2.112 2.944 6.336 0 1.11-.064 2.261-.192 3.456.64.213 1.258.32 1.856.32Zm-5.056-7.68c-.384 0-.576.725-.576 2.176 0 1.45.661 2.795 1.984 4.032.042-.213.064-.533.064-.96 0-3.499-.491-5.248-1.472-5.248Zm49.796-1.792c.597-4.608 1.984-8.15 4.16-10.624 2.218-2.517 5.12-3.776 8.704-3.776 3.584 0 5.376 1.237 5.376 3.712 0 1.664-.406 3.2-1.216 4.608a10.546 10.546 0 0 1-3.136 3.456c-2.603 1.75-5.654 3.008-9.152 3.776-.854 7.339-2.112 12.587-3.776 15.744 3.925 1.323 6.57 2.176 7.936 2.56 1.365.341 2.794.512 4.288.512 1.536 0 2.581-.619 3.136-1.856.554-1.237.96-1.856 1.216-1.856.512 0 .768.32.768.96 0 2.005-.747 3.712-2.24 5.12-1.494 1.408-3.115 2.112-4.864 2.112-1.792 0-3.414-.299-4.864-.896a151.528 151.528 0 0 1-2.753-1.152c-.383-.17-1.173-.533-2.367-1.088a142.678 142.678 0 0 0-2.432-1.152c-1.622 1.707-3.798 2.56-6.528 2.56-1.11 0-2.091-.405-2.944-1.216-.854-.81-1.28-1.77-1.28-2.88 0-2.432 1.386-3.648 4.16-3.648 1.194 0 2.858.277 4.992.832.81-2.56 1.664-7.21 2.56-13.952-.47.043-1.11.064-1.92.064-.768 0-1.152-.128-1.152-.384 0-.81 1.109-1.323 3.328-1.536Zm4.928-.704c2.73-.597 4.97-1.6 6.72-3.008 1.792-1.45 2.688-3.328 2.688-5.632s-.79-3.456-2.368-3.456c-3.456 0-5.803 4.032-7.04 12.096Zm-9.216 19.52c-2.475-1.067-4.011-1.6-4.608-1.6-.555 0-.832.299-.832.896s.256 1.11.768 1.536c.554.427 1.258.64 2.112.64.853 0 1.706-.49 2.56-1.472Zm32.667-27.392c0-.768.405-1.43 1.216-1.984.81-.555 1.536-.832 2.176-.832 1.152 0 1.728.661 1.728 1.984s-.342 2.475-1.024 3.456c-.683.939-1.643 1.408-2.88 1.408-.811 0-1.216-1.344-1.216-4.032Zm1.855 31.616c-1.663 0-2.922-.341-3.775-1.024-.299-.299-.449-1.365-.449-3.2 0-1.835.129-4.885.385-9.152.298-4.31.554-6.635.768-6.976.213-.341.874-.981 1.984-1.92 1.109-.939 1.962-1.408 2.56-1.408.64 0 .96.81.96 2.432 0 .427-.128 1.259-.384 2.496-.214 1.237-.47 2.133-.768 2.688-.555 1.408-.832 5.099-.832 11.072 0 1.152.128 1.728.384 1.728.725-.043 1.728-.939 3.008-2.688 1.28-1.792 2.538-4.075 3.776-6.848 1.28-2.773 2.048-4.16 2.304-4.16.298 0 .448.17.448.512 0 1.195-.619 3.093-1.856 5.696-3.371 7.168-6.208 10.752-8.513 10.752Zm22.964-3.136c1.536 0 2.88-.79 4.032-2.368 1.152-1.621 2.005-3.584 2.56-5.888-1.536-.47-2.709-1.28-3.52-2.432-.811-1.195-1.216-2.56-1.216-4.096s.384-2.88 1.152-4.032c.811-1.152 1.963-1.728 3.456-1.728.896 0 1.579.576 2.048 1.728.469 1.11.704 2.368.704 3.776s-.107 2.816-.32 4.224c.64.256 1.323.384 2.048.384 1.664 0 3.264-.768 4.8-2.304.768-.768 1.28-1.152 1.536-1.152.299 0 .448.213.448.64 0 .427-.277.939-.832 1.536-2.261 2.517-5.12 3.776-8.576 3.776-.811 3.115-2.069 5.739-3.776 7.872-1.707 2.133-3.797 3.2-6.272 3.2-1.451 0-2.645-.619-3.584-1.856-1.579-2.005-2.368-4.95-2.368-8.832 0-1.323.107-3.03.32-5.12.213-2.09.448-3.37.704-3.84.299-.47.981-1.045 2.048-1.728 1.109-.683 1.877-1.024 2.304-1.024.64 0 .96.384.96 1.152 0 2.176-.555 4.544-1.664 7.104 0 3.03.235 5.632.704 7.808.512 2.133 1.28 3.2 2.304 3.2Zm5.824-18.112c-.341 0-.512.704-.512 2.112 0 1.408.64 2.752 1.92 4.032a9.364 9.364 0 0 0 .128-1.536c0-3.072-.512-4.608-1.536-4.608Zm18.919-10.368c0-.768.405-1.43 1.216-1.984.811-.555 1.536-.832 2.176-.832 1.152 0 1.728.661 1.728 1.984s-.341 2.475-1.024 3.456c-.683.939-1.643 1.408-2.88 1.408-.811 0-1.216-1.344-1.216-4.032Zm1.856 31.616c-1.664 0-2.923-.341-3.776-1.024-.299-.299-.448-1.365-.448-3.2 0-1.835.128-4.885.384-9.152.299-4.31.555-6.635.768-6.976.213-.341.875-.981 1.984-1.92s1.963-1.408 2.56-1.408c.64 0 .96.81.96 2.432 0 .427-.128 1.259-.384 2.496-.213 1.237-.469 2.133-.768 2.688-.555 1.408-.832 5.099-.832 11.072 0 1.152.128 1.728.384 1.728.725-.043 1.728-.939 3.008-2.688 1.28-1.792 2.539-4.075 3.776-6.848 1.28-2.773 2.048-4.16 2.304-4.16.299 0 .448.17.448.512 0 1.195-.619 3.093-1.856 5.696-3.371 7.168-6.208 10.752-8.512 10.752Zm19.956-3.776.064 1.984c0 1.195-.342 1.792-1.024 1.792-1.024 0-2.006-.128-2.944-.384-.939-.299-1.409-.683-1.409-1.152 0-.512.107-2.197.32-5.056.257-2.901.385-5.077.385-6.528v-3.776c0-2.048.213-3.285.64-3.712.426-.427 1.173-1.045 2.24-1.856 1.109-.81 1.898-1.216 2.368-1.216.512 0 .832.085.96.256.128.17.192.49.192.96 0 2.261-.427 4.395-1.28 6.4-.214 2.432-.32 4.117-.32 5.056.17-.256 1.066-1.707 2.688-4.352 1.621-2.645 2.986-4.587 4.096-5.824 1.152-1.237 2.176-1.856 3.072-1.856.896 0 1.685.299 2.368.896.725.597 1.088 1.344 1.088 2.24 0 1.877-.214 4.65-.64 8.32-.384 3.627-.576 5.93-.576 6.912 0 .939.128 1.408.384 1.408.725-.043 1.728-.939 3.008-2.688 1.28-1.792 2.538-4.075 3.776-6.848 1.28-2.773 2.048-4.16 2.304-4.16.298 0 .448.17.448.512 0 1.195-.619 3.093-1.856 5.696-3.371 7.168-6.208 10.752-8.512 10.752-1.664 0-2.923-.341-3.776-1.024-.299-.299-.448-1.067-.448-2.304 0-1.28.106-3.328.32-6.144.256-2.859.384-4.992.384-6.4 0-1.408-.256-2.112-.768-2.112-.47 0-1.75 1.472-3.84 4.416-2.091 2.901-3.2 4.757-3.328 5.568a25.053 25.053 0 0 0-.384 4.224Zm41.414-6.336c-1.323 3.499-2.56 6.059-3.712 7.68-1.11 1.621-2.582 2.432-4.416 2.432-1.835 0-3.392-.79-4.672-2.368-1.238-1.579-1.857-4.096-1.857-7.552 0-3.456.961-6.507 2.881-9.152 1.962-2.645 4.522-3.968 7.68-3.968.64 0 1.408.277 2.304.832a9.366 9.366 0 0 1 2.368 1.92c.128-.427.746-1.088 1.856-1.984 1.109-.939 1.962-1.408 2.56-1.408.64 0 .96.917.96 2.752 0 1.835-.384 3.456-1.152 4.864-.427 2.859-.662 5.504-.704 7.936 4.181-5.29 6.4-8.085 6.656-8.384.298-.299.554-.448.768-.448.426 0 .64.213.64.64 0 .256-.086.533-.256.832-1.366 2.005-4.054 5.525-8.064 10.56a3125.91 3125.91 0 0 0-.512 10.368c-.214 5.419-.982 9.216-2.304 11.392-1.28 2.219-3.584 3.328-6.912 3.328-1.451 0-2.816-.448-4.096-1.344-1.238-.853-1.856-2.368-1.856-4.544 0-2.133.81-4.33 2.432-6.592 1.664-2.261 4.672-5.739 9.024-10.432l.384-7.36Zm-4.48-10.624c-1.195 0-2.475.939-3.84 2.816-1.323 1.835-1.984 3.968-1.984 6.4 0 2.39.341 4.352 1.024 5.888.725 1.493 1.621 2.24 2.688 2.24 1.066 0 2.09-.875 3.072-2.624.981-1.75 2.24-4.757 3.776-9.024.085-1.45.128-2.368.128-2.752-.342-.64-1.046-1.28-2.112-1.92-1.067-.683-1.984-1.024-2.752-1.024Zm3.904 20.992c-4.864 5.248-7.296 9.45-7.296 12.608 0 1.45.256 2.645.768 3.584.512.939 1.216 1.408 2.112 1.408 1.365 0 2.325-.747 2.88-2.24.554-1.493.96-4.523 1.216-9.088l.32-6.272Z" fill="#F7D59C"/><defs><clipPath id="a"><path fill="#fff" transform="translate(487 12)" d="M0 0h75v75H0z"/></clipPath></defs></svg>