<svg width="391" height="102" viewBox="0 0 391 102" fill="none" xmlns="http://www.w3.org/2000/svg">
<rect width="336.893" height="102" fill="#B86767"/>
<path d="M337.267 102L288.911 0H384.849L337.267 102Z" fill="#B86767"/>
<g clip-path="url(#clip0)">
<path d="M389.998 51.627C389.998 69.0339 375.592 83.1451 357.821 83.1451C340.051 83.1451 325.645 69.0339 325.645 51.627C325.645 34.22 340.051 20.1089 357.821 20.1089C375.592 20.1089 389.998 34.22 389.998 51.627Z" fill="#CEE5D0"/>
<path d="M380.504 29.3873C374.438 23.4468 366.375 20.1753 357.798 20.1753C349.139 20.1753 342.093 27.1443 342.093 35.7107C342.093 44.277 349.139 51.2461 357.798 51.2461C366.708 51.2461 373.957 58.416 373.957 67.2288C373.957 72.0099 371.81 76.5043 368.067 79.5596L368.992 81.1227C373.324 79.5477 377.197 77.1068 380.504 73.8685C386.568 67.9275 389.908 60.0292 389.908 51.6279C389.908 43.2262 386.568 35.3278 380.504 29.3873V29.3873Z" fill="#696867"/>
<path d="M380.504 29.3873C374.438 23.4468 366.375 20.1753 357.798 20.1753C357.246 20.1753 356.699 20.2041 356.161 20.2591C363.844 20.8051 370.992 23.9978 376.494 29.3873C382.559 35.3278 385.899 43.2262 385.899 51.6279C385.899 60.0292 382.559 67.9275 376.494 73.868C374.026 76.2861 371.241 78.2588 368.185 79.759L368.992 81.1227C373.324 79.5472 377.197 77.1068 380.504 73.868C386.568 67.9275 389.908 60.0292 389.908 51.6279C389.908 43.2262 386.568 35.3278 380.504 29.3873V29.3873Z" fill="#544F4F"/>
<path d="M363.006 67.5561C363.006 69.6603 361.265 71.3662 359.117 71.3662C356.969 71.3662 355.227 69.6603 355.227 67.5561C355.227 65.452 356.969 63.7465 359.117 63.7465C361.265 63.7465 363.006 65.452 363.006 67.5561V67.5561Z" fill="#696867"/>
<path d="M359.117 63.7465C358.383 63.7465 357.698 63.9454 357.112 64.291C358.241 64.958 358.997 66.1705 358.997 67.5561C358.997 68.9422 358.241 70.1547 357.112 70.8212C357.698 71.1668 358.383 71.3662 359.117 71.3662C361.264 71.3662 363.006 69.6603 363.006 67.5561C363.006 65.4525 361.264 63.7465 359.117 63.7465Z" fill="#544F4F"/>
<path d="M363.006 34.4868C363.006 36.5904 361.265 38.2964 359.117 38.2964C356.969 38.2964 355.227 36.5904 355.227 34.4868C355.227 32.3826 356.969 30.6767 359.117 30.6767C361.265 30.6767 363.006 32.3826 363.006 34.4868Z" fill="#F9F9ED"/>
<path d="M359.117 30.6767C358.383 30.6767 357.698 30.8761 357.112 31.2217C358.241 31.8882 358.997 33.1007 358.997 34.4868C358.997 35.8724 358.241 37.0849 357.112 37.7519C357.698 38.0975 358.383 38.2964 359.117 38.2964C361.264 38.2964 363.006 36.5909 363.006 34.4868C363.006 32.3826 361.264 30.6767 359.117 30.6767V30.6767Z" fill="#ECECEC"/>
<path d="M385.555 33.7801C385.25 33.3274 384.629 33.2019 384.166 33.4999C383.704 33.798 383.576 34.407 383.88 34.8597C387.226 39.8401 388.995 45.6378 388.995 51.627C388.995 59.7837 385.753 67.452 379.865 73.2194C376.642 76.3764 372.837 78.7543 368.689 80.2628C372.489 77.1609 374.915 72.4691 374.915 67.2278C374.915 57.9096 367.247 50.3287 357.821 50.3287C349.677 50.3287 343.051 43.7707 343.051 35.7097C343.051 27.6487 349.677 21.0903 357.821 21.0903C366.905 21.0903 375.518 24.9608 381.452 31.7097C381.813 32.1208 382.446 32.1669 382.866 31.8128C383.285 31.4593 383.332 30.8394 382.971 30.4283C376.656 23.246 367.489 19.127 357.821 19.127C348.959 19.127 340.627 22.5076 334.36 28.646C328.094 34.7843 324.642 42.946 324.642 51.627C324.642 52.4075 324.671 53.1965 324.727 53.9716C324.765 54.4889 325.205 54.8836 325.726 54.8836C325.75 54.8836 325.774 54.8831 325.799 54.8811C326.35 54.8424 326.766 54.3728 326.727 53.8323C326.674 53.1033 326.647 52.3614 326.647 51.627C326.647 43.4702 329.89 35.8019 335.778 30.0345C339.054 26.825 342.931 24.4193 347.161 22.9157C343.429 25.9596 341.047 30.5646 341.047 35.7097C341.047 44.8533 348.572 52.292 357.821 52.292C366.142 52.292 372.911 58.9922 372.911 67.2278C372.911 75.4629 366.142 82.1631 357.821 82.1631C350.575 82.1631 343.518 79.6747 337.948 75.1554C332.45 70.6942 328.653 64.4839 327.257 57.6691C327.148 57.1375 326.619 56.7934 326.077 56.8995C325.534 57.0066 325.183 57.5238 325.291 58.0554C326.778 65.3101 330.818 71.9201 336.669 76.6675C342.598 81.4778 350.11 84.1265 357.821 84.1265C366.683 84.1265 375.016 80.7463 381.282 74.6075C387.549 68.4691 391 60.3079 391 51.627C391 45.253 389.117 39.0819 385.555 33.7801Z" fill="#F7D59C"/>
<path d="M364.008 67.5561C364.008 64.9139 361.814 62.7646 359.116 62.7646C356.419 62.7646 354.225 64.9139 354.225 67.5561C354.225 70.1983 356.419 72.3476 359.116 72.3476C361.814 72.3476 364.008 70.1983 364.008 67.5561V67.5561ZM356.229 67.5561C356.229 65.997 357.525 64.7284 359.117 64.7284C360.708 64.7284 362.003 65.997 362.003 67.5561C362.003 69.1157 360.708 70.3843 359.117 70.3843C357.525 70.3843 356.229 69.1157 356.229 67.5561V67.5561Z" fill="#18191B"/>
<path d="M354.225 34.4868C354.225 37.1285 356.419 39.2783 359.117 39.2783C361.814 39.2783 364.008 37.1285 364.008 34.4868C364.008 31.8446 361.814 29.6948 359.117 29.6948C356.419 29.6948 354.225 31.8446 354.225 34.4868V34.4868ZM362.003 34.4868C362.003 36.046 360.708 37.3145 359.116 37.3145C357.525 37.3145 356.229 36.046 356.229 34.4868C356.229 32.9272 357.525 31.6586 359.116 31.6586C360.708 31.6586 362.003 32.9272 362.003 34.4868Z" fill="#18191B"/>
</g>
<path d="M34.3526 40.346L34.8926 42.884C34.8926 43.496 34.6766 44 34.2446 44.396C33.8126 44.792 33.3086 44.99 32.7326 44.99C32.1566 44.99 31.7246 44.72 31.4366 44.18C31.1846 43.64 31.0586 43.046 31.0586 42.398C31.0586 40.454 31.8866 38.708 33.5426 37.16C35.2346 35.576 37.1426 34.784 39.2666 34.784H39.5906C40.3106 32.048 41.3906 30.68 42.8306 30.68C43.2626 30.68 43.4786 31.256 43.4786 32.408C43.4786 32.624 43.4246 33.488 43.3166 35C43.8566 35.072 44.4866 35.162 45.2066 35.27C46.8986 35.522 48.3026 35.648 49.4186 35.648C50.5706 35.648 51.7226 35.468 52.8746 35.108C54.0626 34.712 54.8546 34.514 55.2506 34.514C56.2586 34.514 56.7626 35.036 56.7626 36.08C56.7626 37.088 56.2226 37.862 55.1426 38.402C54.0626 38.906 52.4966 39.158 50.4446 39.158C48.3926 39.158 45.8906 38.69 42.9386 37.754C42.5066 40.238 42.2546 42.11 42.1826 43.37C42.1106 44.63 42.0386 46.502 41.9666 48.986C43.4786 48.914 45.5666 48.878 48.2306 48.878C48.6986 48.878 49.0946 49.058 49.4186 49.418C49.7786 49.778 49.9586 50.156 49.9586 50.552C49.9586 50.948 49.8326 51.272 49.5806 51.524C49.3286 51.776 49.0586 51.902 48.7706 51.902L41.9126 51.524C41.7686 55.052 41.6426 57.446 41.5346 58.706C41.4626 59.966 41.1206 61.136 40.5086 62.216C39.8966 63.296 39.1766 63.836 38.3486 63.836C37.8806 63.836 37.3586 63.584 36.7826 63.08C36.2426 62.612 35.9726 62.162 35.9726 61.73C35.9726 61.298 36.0266 60.974 36.1346 60.758C36.2786 60.506 36.4226 60.272 36.5666 60.056C36.7466 59.804 36.8726 59.606 36.9446 59.462C37.3766 58.526 37.7726 55.952 38.1326 51.74L36.0266 52.01C35.7386 52.01 35.5046 51.92 35.3246 51.74C35.1446 51.524 35.0546 51.29 35.0546 51.038C35.0546 50.75 35.1086 50.498 35.2166 50.282C35.3246 50.066 35.5406 49.904 35.8646 49.796C36.1886 49.652 36.4226 49.562 36.5666 49.526C37.1426 49.382 37.7186 49.31 38.2946 49.31C38.3666 48.446 38.4566 46.574 38.5646 43.694C38.7086 40.814 38.9066 38.564 39.1586 36.944C38.9426 36.908 38.6186 36.89 38.1866 36.89C35.6306 36.89 34.3526 38.042 34.3526 40.346ZM63.4144 62.27C62.6224 62.27 61.8844 62.18 61.2004 62C60.5524 61.784 60.1564 61.586 60.0124 61.406C59.6524 60.974 59.4724 58.742 59.4724 54.71C59.4724 50.642 59.9224 45.134 60.8224 38.186C61.5784 32.462 63.3424 29.6 66.1144 29.6C66.7624 29.6 67.2304 29.96 67.5184 30.68C67.8064 31.364 67.9504 32.03 67.9504 32.678C67.9504 37.358 66.5284 42.596 63.6844 48.392C63.5764 51.38 63.5224 53.99 63.5224 56.222C63.5224 58.418 63.7204 59.516 64.1164 59.516C64.7284 59.48 65.5744 58.724 66.6544 57.248C67.7344 55.736 68.7964 53.81 69.8404 51.47C70.9204 49.13 71.5684 47.96 71.7844 47.96C72.0364 47.96 72.1624 48.104 72.1624 48.392C72.1624 49.4 71.6404 51.002 70.5964 53.198C67.7524 59.246 65.3584 62.27 63.4144 62.27ZM66.6004 33.164C66.6004 32.012 66.4564 31.436 66.1684 31.436C65.0884 31.436 64.2964 35.918 63.7924 44.882C65.6644 39.95 66.6004 36.044 66.6004 33.164ZM92.5638 50.282C94.0038 49.814 94.9938 49.418 95.5338 49.094C96.1098 48.734 96.5418 48.464 96.8298 48.284L97.4778 47.906C97.6578 47.798 97.8018 47.744 97.9098 47.744C98.1978 47.744 98.3418 47.906 98.3418 48.23C98.3418 48.554 97.7838 49.13 96.6678 49.958C95.5518 50.75 94.1658 51.47 92.5098 52.118C92.2578 55.142 91.3038 57.59 89.6478 59.462C87.9918 61.334 85.6338 62.27 82.5738 62.27C80.3418 62.27 78.6318 61.388 77.4438 59.624C76.2558 57.824 75.6618 55.736 75.6618 53.36C75.6618 50.948 76.3638 48.68 77.7678 46.556C79.2078 44.432 81.0438 43.37 83.2758 43.37C84.2838 42.65 85.4718 42.29 86.8398 42.29C88.2438 42.29 89.5398 43.028 90.7278 44.504C91.9158 45.98 92.5278 47.906 92.5638 50.282ZM89.0538 53.036L87.1098 53.144C85.4538 53.144 84.0498 52.658 82.8978 51.686C81.7458 50.678 81.1698 49.58 81.1698 48.392C81.1698 47.204 81.3678 46.178 81.7638 45.314C80.2158 46.538 79.4418 48.95 79.4418 52.55C79.4418 54.278 79.8018 55.934 80.5218 57.518C81.2418 59.066 82.3758 59.84 83.9238 59.84C85.4718 59.84 86.6778 59.192 87.5418 57.896C88.4058 56.564 88.9098 54.944 89.0538 53.036ZM85.7058 44.072C85.1298 44.072 84.6798 44.342 84.3558 44.882C84.0318 45.386 83.8698 45.944 83.8698 46.556C83.8698 47.888 84.3198 48.968 85.2198 49.796C86.1558 50.624 87.2358 51.038 88.4598 51.038H89.1078C89.0358 49.274 88.7298 47.672 88.1898 46.232C87.6858 44.792 86.8578 44.072 85.7058 44.072ZM124.546 50.822C126.058 50.822 127.462 50.174 128.758 48.878C129.406 48.23 129.838 47.906 130.054 47.906C130.306 47.906 130.432 48.086 130.432 48.446C130.432 48.806 130.198 49.238 129.73 49.742C127.822 51.866 125.428 52.928 122.548 52.928C121.972 55.592 121.072 57.824 119.848 59.624C118.624 61.388 117.076 62.27 115.204 62.27C113.332 62.27 111.982 61.172 111.154 58.976C109.678 61.172 108.148 62.27 106.564 62.27C103.576 62.27 102.082 59.39 102.082 53.63C102.082 49.634 102.478 46.916 103.27 45.476C103.414 45.224 103.954 44.81 104.89 44.234C105.826 43.658 106.474 43.37 106.834 43.37C107.374 43.37 107.644 43.694 107.644 44.342C107.572 46.034 107.068 48.032 106.132 50.336C105.916 50.768 105.808 51.812 105.808 53.468C105.808 55.088 105.988 56.528 106.348 57.788C106.744 59.012 107.302 59.624 108.022 59.624C108.742 59.624 109.624 58.76 110.668 57.032C110.488 56.132 110.398 55.178 110.398 54.17C110.398 53.126 110.506 52.028 110.722 50.876C110.938 49.688 111.37 48.5 112.018 47.312C112.666 46.124 113.44 45.53 114.34 45.53C114.628 45.53 114.826 45.62 114.934 45.8C115.078 45.98 115.15 46.412 115.15 47.096C115.15 48.932 114.664 51.218 113.692 53.954C113.836 55.538 114.196 56.888 114.772 58.004C115.384 59.084 116.05 59.624 116.77 59.624C117.814 59.624 118.696 58.958 119.416 57.626C120.136 56.258 120.694 54.602 121.09 52.658C119.758 52.298 118.732 51.614 118.012 50.606C117.292 49.598 116.932 48.446 116.932 47.15C116.932 45.818 117.238 44.684 117.85 43.748C118.498 42.776 119.434 42.29 120.658 42.29C122.314 42.29 123.142 44.072 123.142 47.636C123.142 48.572 123.088 49.544 122.98 50.552C123.52 50.732 124.042 50.822 124.546 50.822ZM120.28 44.342C119.956 44.342 119.794 44.954 119.794 46.178C119.794 47.402 120.352 48.536 121.468 49.58C121.504 49.4 121.522 49.13 121.522 48.77C121.522 45.818 121.108 44.342 120.28 44.342ZM162.295 42.83C162.799 38.942 163.969 35.954 165.805 33.866C167.677 31.742 170.125 30.68 173.149 30.68C176.173 30.68 177.685 31.724 177.685 33.812C177.685 35.216 177.343 36.512 176.659 37.7C176.011 38.852 175.129 39.824 174.013 40.616C171.817 42.092 169.243 43.154 166.291 43.802C165.571 49.994 164.509 54.422 163.105 57.086C166.417 58.202 168.649 58.922 169.801 59.246C170.953 59.534 172.159 59.678 173.419 59.678C174.715 59.678 175.597 59.156 176.065 58.112C176.533 57.068 176.875 56.546 177.091 56.546C177.523 56.546 177.739 56.816 177.739 57.356C177.739 59.048 177.109 60.488 175.849 61.676C174.589 62.864 173.221 63.458 171.745 63.458C170.233 63.458 168.865 63.206 167.641 62.702C166.417 62.198 165.643 61.874 165.319 61.73C164.995 61.586 164.329 61.28 163.321 60.812C162.349 60.344 161.665 60.02 161.269 59.84C159.901 61.28 158.065 62 155.761 62C154.825 62 153.997 61.658 153.277 60.974C152.557 60.29 152.197 59.48 152.197 58.544C152.197 56.492 153.367 55.466 155.707 55.466C156.715 55.466 158.119 55.7 159.919 56.168C160.603 54.008 161.323 50.084 162.079 44.396C161.683 44.432 161.143 44.45 160.459 44.45C159.811 44.45 159.487 44.342 159.487 44.126C159.487 43.442 160.423 43.01 162.295 42.83ZM166.453 42.236C168.757 41.732 170.647 40.886 172.123 39.698C173.635 38.474 174.391 36.89 174.391 34.946C174.391 33.002 173.725 32.03 172.393 32.03C169.477 32.03 167.497 35.432 166.453 42.236ZM158.677 58.706C156.589 57.806 155.293 57.356 154.789 57.356C154.321 57.356 154.087 57.608 154.087 58.112C154.087 58.616 154.303 59.048 154.735 59.408C155.203 59.768 155.797 59.948 156.517 59.948C157.237 59.948 157.957 59.534 158.677 58.706ZM186.24 35.594C186.24 34.946 186.582 34.388 187.266 33.92C187.95 33.452 188.562 33.218 189.102 33.218C190.074 33.218 190.56 33.776 190.56 34.892C190.56 36.008 190.272 36.98 189.696 37.808C189.12 38.6 188.31 38.996 187.266 38.996C186.582 38.996 186.24 37.862 186.24 35.594ZM187.806 62.27C186.402 62.27 185.34 61.982 184.62 61.406C184.368 61.154 184.242 60.254 184.242 58.706C184.242 57.158 184.35 54.584 184.566 50.984C184.818 47.348 185.034 45.386 185.214 45.098C185.394 44.81 185.952 44.27 186.888 43.478C187.824 42.686 188.544 42.29 189.048 42.29C189.588 42.29 189.858 42.974 189.858 44.342C189.858 44.702 189.75 45.404 189.534 46.448C189.354 47.492 189.138 48.248 188.886 48.716C188.418 49.904 188.184 53.018 188.184 58.058C188.184 59.03 188.292 59.516 188.508 59.516C189.12 59.48 189.966 58.724 191.046 57.248C192.126 55.736 193.188 53.81 194.232 51.47C195.312 49.13 195.96 47.96 196.176 47.96C196.428 47.96 196.554 48.104 196.554 48.392C196.554 49.4 196.032 51.002 194.988 53.198C192.144 59.246 189.75 62.27 187.806 62.27ZM207.181 59.624C208.477 59.624 209.611 58.958 210.583 57.626C211.555 56.258 212.275 54.602 212.743 52.658C211.447 52.262 210.457 51.578 209.773 50.606C209.089 49.598 208.747 48.446 208.747 47.15C208.747 45.854 209.071 44.72 209.719 43.748C210.403 42.776 211.375 42.29 212.635 42.29C213.391 42.29 213.967 42.776 214.363 43.748C214.759 44.684 214.957 45.746 214.957 46.934C214.957 48.122 214.867 49.31 214.687 50.498C215.227 50.714 215.803 50.822 216.415 50.822C217.819 50.822 219.169 50.174 220.465 48.878C221.113 48.23 221.545 47.906 221.761 47.906C222.013 47.906 222.139 48.086 222.139 48.446C222.139 48.806 221.905 49.238 221.437 49.742C219.529 51.866 217.117 52.928 214.201 52.928C213.517 55.556 212.455 57.77 211.015 59.57C209.575 61.37 207.811 62.27 205.723 62.27C204.499 62.27 203.491 61.748 202.699 60.704C201.367 59.012 200.701 56.528 200.701 53.252C200.701 52.136 200.791 50.696 200.971 48.932C201.151 47.168 201.349 46.088 201.565 45.692C201.817 45.296 202.393 44.81 203.293 44.234C204.229 43.658 204.877 43.37 205.237 43.37C205.777 43.37 206.047 43.694 206.047 44.342C206.047 46.178 205.579 48.176 204.643 50.336C204.643 52.892 204.841 55.088 205.237 56.924C205.669 58.724 206.317 59.624 207.181 59.624ZM212.095 44.342C211.807 44.342 211.663 44.936 211.663 46.124C211.663 47.312 212.203 48.446 213.283 49.526C213.355 49.094 213.391 48.662 213.391 48.23C213.391 45.638 212.959 44.342 212.095 44.342ZM228.058 35.594C228.058 34.946 228.4 34.388 229.084 33.92C229.768 33.452 230.38 33.218 230.92 33.218C231.892 33.218 232.378 33.776 232.378 34.892C232.378 36.008 232.09 36.98 231.514 37.808C230.938 38.6 230.128 38.996 229.084 38.996C228.4 38.996 228.058 37.862 228.058 35.594ZM229.624 62.27C228.22 62.27 227.158 61.982 226.438 61.406C226.186 61.154 226.06 60.254 226.06 58.706C226.06 57.158 226.168 54.584 226.384 50.984C226.636 47.348 226.852 45.386 227.032 45.098C227.212 44.81 227.77 44.27 228.706 43.478C229.642 42.686 230.362 42.29 230.866 42.29C231.406 42.29 231.676 42.974 231.676 44.342C231.676 44.702 231.568 45.404 231.352 46.448C231.172 47.492 230.956 48.248 230.704 48.716C230.236 49.904 230.002 53.018 230.002 58.058C230.002 59.03 230.11 59.516 230.326 59.516C230.938 59.48 231.784 58.724 232.864 57.248C233.944 55.736 235.006 53.81 236.05 51.47C237.13 49.13 237.778 47.96 237.994 47.96C238.246 47.96 238.372 48.104 238.372 48.392C238.372 49.4 237.85 51.002 236.806 53.198C233.962 59.246 231.568 62.27 229.624 62.27ZM246.462 59.084L246.516 60.758C246.516 61.766 246.228 62.27 245.652 62.27C244.788 62.27 243.96 62.162 243.168 61.946C242.376 61.694 241.98 61.37 241.98 60.974C241.98 60.542 242.07 59.12 242.25 56.708C242.466 54.26 242.574 52.424 242.574 51.2V48.014C242.574 46.286 242.754 45.242 243.114 44.882C243.474 44.522 244.104 44 245.004 43.316C245.94 42.632 246.606 42.29 247.002 42.29C247.434 42.29 247.704 42.362 247.812 42.506C247.92 42.65 247.974 42.92 247.974 43.316C247.974 45.224 247.614 47.024 246.894 48.716C246.714 50.768 246.624 52.19 246.624 52.982C246.768 52.766 247.524 51.542 248.892 49.31C250.26 47.078 251.412 45.44 252.348 44.396C253.32 43.352 254.184 42.83 254.94 42.83C255.696 42.83 256.362 43.082 256.938 43.586C257.55 44.09 257.856 44.72 257.856 45.476C257.856 47.06 257.676 49.4 257.316 52.496C256.992 55.556 256.83 57.5 256.83 58.328C256.83 59.12 256.938 59.516 257.154 59.516C257.766 59.48 258.612 58.724 259.692 57.248C260.772 55.736 261.834 53.81 262.878 51.47C263.958 49.13 264.606 47.96 264.822 47.96C265.074 47.96 265.2 48.104 265.2 48.392C265.2 49.4 264.678 51.002 263.634 53.198C260.79 59.246 258.396 62.27 256.452 62.27C255.048 62.27 253.986 61.982 253.266 61.406C253.014 61.154 252.888 60.506 252.888 59.462C252.888 58.382 252.978 56.654 253.158 54.278C253.374 51.866 253.482 50.066 253.482 48.878C253.482 47.69 253.266 47.096 252.834 47.096C252.438 47.096 251.358 48.338 249.594 50.822C247.83 53.27 246.894 54.836 246.786 55.52C246.57 56.78 246.462 57.968 246.462 59.084ZM281.405 53.738C280.289 56.69 279.245 58.85 278.273 60.218C277.337 61.586 276.095 62.27 274.547 62.27C272.999 62.27 271.685 61.604 270.605 60.272C269.561 58.94 269.039 56.816 269.039 53.9C269.039 50.984 269.849 48.41 271.469 46.178C273.125 43.946 275.285 42.83 277.949 42.83C278.489 42.83 279.137 43.064 279.893 43.532C280.649 43.964 281.315 44.504 281.891 45.152C281.999 44.792 282.521 44.234 283.457 43.478C284.393 42.686 285.113 42.29 285.617 42.29C286.157 42.29 286.427 43.064 286.427 44.612C286.427 46.16 286.103 47.528 285.455 48.716C285.095 51.128 284.897 53.36 284.861 55.412C288.389 50.948 290.261 48.59 290.477 48.338C290.729 48.086 290.945 47.96 291.125 47.96C291.485 47.96 291.665 48.14 291.665 48.5C291.665 48.716 291.593 48.95 291.449 49.202C290.297 50.894 288.029 53.864 284.645 58.112C284.429 62.396 284.285 65.312 284.213 66.86C284.033 71.432 283.385 74.636 282.269 76.472C281.189 78.344 279.245 79.28 276.437 79.28C275.213 79.28 274.061 78.902 272.981 78.146C271.937 77.426 271.415 76.148 271.415 74.312C271.415 72.512 272.099 70.658 273.467 68.75C274.871 66.842 277.409 63.908 281.081 59.948L281.405 53.738ZM277.625 44.774C276.617 44.774 275.537 45.566 274.385 47.15C273.269 48.698 272.711 50.498 272.711 52.55C272.711 54.566 272.999 56.222 273.575 57.518C274.187 58.778 274.943 59.408 275.843 59.408C276.743 59.408 277.607 58.67 278.435 57.194C279.263 55.718 280.325 53.18 281.621 49.58C281.693 48.356 281.729 47.582 281.729 47.258C281.441 46.718 280.847 46.178 279.947 45.638C279.047 45.062 278.273 44.774 277.625 44.774ZM280.919 62.486C276.815 66.914 274.763 70.46 274.763 73.124C274.763 74.348 274.979 75.356 275.411 76.148C275.843 76.94 276.437 77.336 277.193 77.336C278.345 77.336 279.155 76.706 279.623 75.446C280.091 74.186 280.433 71.63 280.649 67.778L280.919 62.486Z" fill="#F7D59C"/>
<defs>
<clipPath id="clip0">
<rect width="66.3577" height="65" fill="white" transform="translate(324.642 19)"/>
</clipPath>
</defs>
</svg>
