<svg width="562" height="102" viewBox="0 0 562 102" fill="none" xmlns="http://www.w3.org/2000/svg">
<rect width="504" height="102" fill="#B86767"/>
<path d="M504 102L449 0H558.119L504 102Z" fill="#B86767"/>
<g clip-path="url(#clip0)">
<path d="M560.867 49.6465C560.867 69.7314 544.585 86.0135 524.5 86.0135C504.415 86.0135 488.133 69.7314 488.133 49.6465C488.133 29.5615 504.415 13.2794 524.5 13.2794C544.585 13.2794 560.867 29.5615 560.867 49.6465Z" fill="#CEE5D0"/>
<path d="M550.136 23.9854C543.281 17.131 534.168 13.3561 524.474 13.3561C514.687 13.3561 506.724 21.3973 506.724 31.2816C506.724 41.1659 514.687 49.207 524.474 49.207C534.544 49.207 542.737 57.48 542.737 67.6486C542.737 73.1653 540.311 78.3511 536.08 81.8765L537.125 83.6801C542.022 81.8628 546.399 79.0464 550.136 75.3099C556.991 68.4549 560.766 59.3414 560.766 49.6476C560.766 39.9534 556.991 30.8399 550.136 23.9854Z" fill="#696867"/>
<path d="M550.136 23.9854C543.281 17.131 534.168 13.3561 524.474 13.3561C523.849 13.3561 523.232 13.3893 522.623 13.4528C531.308 14.0828 539.386 17.7667 545.605 23.9854C552.46 30.8399 556.234 39.9534 556.234 49.6476C556.234 59.3414 552.46 68.4549 545.605 75.3093C542.815 78.0994 539.667 80.3756 536.214 82.1065L537.125 83.6801C542.022 81.8622 546.399 79.0464 550.136 75.3093C556.991 68.4549 560.766 59.3414 560.766 49.6476C560.766 39.9534 556.991 30.8399 550.136 23.9854Z" fill="#544F4F"/>
<path d="M530.36 68.0263C530.36 70.4542 528.392 72.4225 525.964 72.4225C523.536 72.4225 521.568 70.4542 521.568 68.0263C521.568 65.5984 523.536 63.6306 525.964 63.6306C528.392 63.6306 530.36 65.5984 530.36 68.0263Z" fill="#696867"/>
<path d="M525.964 63.6306C525.135 63.6306 524.36 63.8601 523.698 64.2589C524.975 65.0285 525.829 66.4276 525.829 68.0263C525.829 69.6256 524.975 71.0246 523.698 71.7937C524.36 72.1925 525.135 72.4225 525.964 72.4225C528.392 72.4225 530.36 70.4542 530.36 68.0263C530.36 65.599 528.392 63.6306 525.964 63.6306Z" fill="#544F4F"/>
<path d="M530.36 29.8694C530.36 32.2967 528.392 34.2651 525.964 34.2651C523.536 34.2651 521.568 32.2967 521.568 29.8694C521.568 27.4415 523.536 25.4731 525.964 25.4731C528.392 25.4731 530.36 27.4415 530.36 29.8694Z" fill="#F9F9ED"/>
<path d="M525.964 25.4731C525.135 25.4731 524.36 25.7032 523.698 26.102C524.975 26.871 525.829 28.2701 525.829 29.8694C525.829 31.4681 524.975 32.8672 523.698 33.6368C524.36 34.0356 525.135 34.2651 525.964 34.2651C528.392 34.2651 530.36 32.2973 530.36 29.8694C530.36 27.4415 528.392 25.4731 525.964 25.4731Z" fill="#ECECEC"/>
<path d="M555.845 29.054C555.501 28.5316 554.799 28.3868 554.276 28.7307C553.753 29.0746 553.609 29.7773 553.953 30.2997C557.735 36.0463 559.734 42.736 559.734 49.6465C559.734 59.0581 556.069 67.9061 549.414 74.5608C545.772 78.2035 541.472 80.9472 536.783 82.6879C541.078 79.1087 543.82 73.6951 543.82 67.6475C543.82 56.8957 535.153 48.1485 524.5 48.1485C515.296 48.1485 507.807 40.5816 507.807 31.2804C507.807 21.9792 515.296 14.4118 524.5 14.4118C534.767 14.4118 544.502 18.8779 551.209 26.665C551.617 27.1394 552.332 27.1926 552.806 26.784C553.28 26.3761 553.333 25.6608 552.925 25.1865C545.788 16.8992 535.427 12.1465 524.5 12.1465C514.484 12.1465 505.066 16.0472 497.983 23.13C490.901 30.2127 487 39.63 487 49.6465C487 50.5471 487.032 51.4575 487.096 52.3519C487.138 52.9487 487.636 53.4042 488.225 53.4042C488.252 53.4042 488.279 53.4036 488.307 53.4013C488.931 53.3567 489.4 52.8148 489.356 52.1911C489.296 51.3499 489.265 50.4939 489.265 49.6465C489.265 40.2349 492.931 31.3869 499.586 24.7321C503.288 21.0288 507.671 18.2531 512.451 16.5181C508.234 20.0303 505.541 25.3438 505.541 31.2804C505.541 41.8307 514.046 50.4138 524.5 50.4138C533.904 50.4138 541.555 58.1449 541.555 67.6475C541.555 77.1495 533.904 84.8806 524.5 84.8806C516.311 84.8806 508.334 82.0092 502.039 76.7947C495.825 71.6472 491.533 64.4815 489.955 56.6182C489.832 56.0048 489.234 55.6077 488.622 55.7302C488.008 55.8538 487.611 56.4506 487.734 57.064C489.414 65.4348 493.98 73.0617 500.593 78.5394C507.294 84.0898 515.784 87.1459 524.5 87.1459C534.516 87.1459 543.934 83.2458 551.017 76.1624C558.099 69.0797 562 59.6629 562 49.6465C562 42.2919 559.871 35.1714 555.845 29.054Z" fill="#F7D59C"/>
<path d="M531.493 68.0263C531.493 64.9776 529.012 62.4976 525.964 62.4976C522.916 62.4976 520.435 64.9776 520.435 68.0263C520.435 71.075 522.916 73.5549 525.964 73.5549C529.012 73.5549 531.493 71.075 531.493 68.0263ZM522.701 68.0263C522.701 66.2272 524.165 64.7635 525.964 64.7635C527.763 64.7635 529.227 66.2272 529.227 68.0263C529.227 69.8258 527.763 71.2895 525.964 71.2895C524.165 71.2895 522.701 69.8258 522.701 68.0263Z" fill="#18191B"/>
<path d="M520.436 29.8694C520.436 32.9175 522.916 35.398 525.964 35.398C529.013 35.398 531.493 32.9175 531.493 29.8694C531.493 26.8207 529.013 24.3401 525.964 24.3401C522.916 24.3401 520.436 26.8207 520.436 29.8694ZM529.227 29.8694C529.227 31.6684 527.763 33.1321 525.964 33.1321C524.165 33.1321 522.701 31.6684 522.701 29.8694C522.701 28.0698 524.165 26.6061 525.964 26.6061C527.763 26.6061 529.227 28.0698 529.227 29.8694Z" fill="#18191B"/>
</g>
<path d="M98.416 37.336L99.056 40.344C99.056 41.0693 98.8 41.6667 98.288 42.136C97.776 42.6053 97.1787 42.84 96.496 42.84C95.8133 42.84 95.3013 42.52 94.96 41.88C94.6613 41.24 94.512 40.536 94.512 39.768C94.512 37.464 95.4933 35.3947 97.456 33.56C99.4613 31.6827 101.723 30.744 104.24 30.744H104.624C105.477 27.5013 106.757 25.88 108.464 25.88C108.976 25.88 109.232 26.5627 109.232 27.928C109.232 28.184 109.168 29.208 109.04 31C109.68 31.0853 110.427 31.192 111.28 31.32C113.285 31.6187 114.949 31.768 116.272 31.768C117.637 31.768 119.003 31.5547 120.368 31.128C121.776 30.6587 122.715 30.424 123.184 30.424C124.379 30.424 124.976 31.0427 124.976 32.28C124.976 33.4747 124.336 34.392 123.056 35.032C121.776 35.6293 119.92 35.928 117.488 35.928C115.056 35.928 112.091 35.3733 108.592 34.264C108.08 37.208 107.781 39.4267 107.696 40.92C107.611 42.4133 107.525 44.632 107.44 47.576C109.232 47.4907 111.707 47.448 114.864 47.448C115.419 47.448 115.888 47.6613 116.272 48.088C116.699 48.5147 116.912 48.9627 116.912 49.432C116.912 49.9013 116.763 50.2853 116.464 50.584C116.165 50.8827 115.845 51.032 115.504 51.032L107.376 50.584C107.205 54.7653 107.056 57.6027 106.928 59.096C106.843 60.5893 106.437 61.976 105.712 63.256C104.987 64.536 104.133 65.176 103.152 65.176C102.597 65.176 101.979 64.8773 101.296 64.28C100.656 63.7253 100.336 63.192 100.336 62.68C100.336 62.168 100.4 61.784 100.528 61.528C100.699 61.2293 100.869 60.952 101.04 60.696C101.253 60.3973 101.403 60.1627 101.488 59.992C102 58.8827 102.469 55.832 102.896 50.84L100.4 51.16C100.059 51.16 99.7813 51.0533 99.568 50.84C99.3547 50.584 99.248 50.3067 99.248 50.008C99.248 49.6667 99.312 49.368 99.44 49.112C99.568 48.856 99.824 48.664 100.208 48.536C100.592 48.3653 100.869 48.2587 101.04 48.216C101.723 48.0453 102.405 47.96 103.088 47.96C103.173 46.936 103.28 44.7173 103.408 41.304C103.579 37.8907 103.813 35.224 104.112 33.304C103.856 33.2613 103.472 33.24 102.96 33.24C99.9307 33.24 98.416 34.6053 98.416 37.336ZM132.86 63.32C131.921 63.32 131.046 63.2133 130.236 63C129.468 62.744 128.998 62.5093 128.828 62.296C128.401 61.784 128.188 59.1387 128.188 54.36C128.188 49.5387 128.721 43.0107 129.788 34.776C130.684 27.992 132.774 24.6 136.06 24.6C136.828 24.6 137.382 25.0267 137.724 25.88C138.065 26.6907 138.236 27.48 138.236 28.248C138.236 33.7947 136.55 40.0027 133.18 46.872C133.052 50.4133 132.988 53.5067 132.988 56.152C132.988 58.7547 133.222 60.056 133.692 60.056C134.417 60.0133 135.42 59.1173 136.7 57.368C137.98 55.576 139.238 53.2933 140.476 50.52C141.756 47.7467 142.524 46.36 142.78 46.36C143.078 46.36 143.228 46.5307 143.228 46.872C143.228 48.0667 142.609 49.9653 141.372 52.568C138.001 59.736 135.164 63.32 132.86 63.32ZM136.635 28.824C136.635 27.4587 136.465 26.776 136.124 26.776C134.844 26.776 133.905 32.088 133.308 42.712C135.526 36.8667 136.635 32.2373 136.635 28.824ZM167.407 49.112C169.114 48.5573 170.287 48.088 170.927 47.704C171.61 47.2773 172.122 46.9573 172.463 46.744L173.231 46.296C173.444 46.168 173.615 46.104 173.743 46.104C174.084 46.104 174.255 46.296 174.255 46.68C174.255 47.064 173.594 47.7467 172.271 48.728C170.948 49.6667 169.306 50.52 167.343 51.288C167.044 54.872 165.914 57.7733 163.951 59.992C161.988 62.2107 159.194 63.32 155.567 63.32C152.922 63.32 150.895 62.2747 149.487 60.184C148.079 58.0507 147.375 55.576 147.375 52.76C147.375 49.9013 148.207 47.2133 149.871 44.696C151.578 42.1787 153.754 40.92 156.399 40.92C157.594 40.0667 159.002 39.64 160.623 39.64C162.287 39.64 163.823 40.5147 165.231 42.264C166.639 44.0133 167.364 46.296 167.407 49.112ZM163.247 52.376L160.943 52.504C158.98 52.504 157.316 51.928 155.951 50.776C154.586 49.5813 153.903 48.28 153.903 46.872C153.903 45.464 154.138 44.248 154.607 43.224C152.772 44.6747 151.855 47.5333 151.855 51.8C151.855 53.848 152.282 55.8107 153.135 57.688C153.988 59.5227 155.332 60.44 157.167 60.44C159.002 60.44 160.431 59.672 161.455 58.136C162.479 56.5573 163.076 54.6373 163.247 52.376ZM159.279 41.752C158.596 41.752 158.063 42.072 157.679 42.712C157.295 43.3093 157.103 43.9707 157.103 44.696C157.103 46.2747 157.636 47.5547 158.703 48.536C159.812 49.5173 161.092 50.008 162.543 50.008H163.311C163.226 47.9173 162.863 46.0187 162.223 44.312C161.626 42.6053 160.644 41.752 159.279 41.752ZM205.312 49.752C207.104 49.752 208.768 48.984 210.304 47.448C211.072 46.68 211.584 46.296 211.84 46.296C212.138 46.296 212.288 46.5093 212.288 46.936C212.288 47.3627 212.01 47.8747 211.456 48.472C209.194 50.9893 206.357 52.248 202.944 52.248C202.261 55.4053 201.194 58.0507 199.744 60.184C198.293 62.2747 196.458 63.32 194.24 63.32C192.021 63.32 190.421 62.0187 189.44 59.416C187.69 62.0187 185.877 63.32 184 63.32C180.458 63.32 178.688 59.9067 178.688 53.08C178.688 48.344 179.157 45.1227 180.096 43.416C180.266 43.1173 180.906 42.6267 182.016 41.944C183.125 41.2613 183.893 40.92 184.32 40.92C184.96 40.92 185.28 41.304 185.28 42.072C185.194 44.0773 184.597 46.4453 183.488 49.176C183.232 49.688 183.104 50.9253 183.104 52.888C183.104 54.808 183.317 56.5147 183.744 58.008C184.213 59.4587 184.874 60.184 185.728 60.184C186.581 60.184 187.626 59.16 188.864 57.112C188.65 56.0453 188.544 54.9147 188.544 53.72C188.544 52.4827 188.672 51.1813 188.928 49.816C189.184 48.408 189.696 47 190.464 45.592C191.232 44.184 192.149 43.48 193.216 43.48C193.557 43.48 193.792 43.5867 193.92 43.8C194.09 44.0133 194.176 44.5253 194.176 45.336C194.176 47.512 193.6 50.2213 192.448 53.464C192.618 55.3413 193.045 56.9413 193.728 58.264C194.453 59.544 195.242 60.184 196.096 60.184C197.333 60.184 198.378 59.3947 199.232 57.816C200.085 56.1947 200.746 54.232 201.216 51.928C199.637 51.5013 198.421 50.6907 197.568 49.496C196.714 48.3013 196.288 46.936 196.288 45.4C196.288 43.8213 196.65 42.4773 197.376 41.368C198.144 40.216 199.253 39.64 200.704 39.64C202.666 39.64 203.648 41.752 203.648 45.976C203.648 47.0853 203.584 48.2373 203.456 49.432C204.096 49.6453 204.714 49.752 205.312 49.752ZM200.256 42.072C199.872 42.072 199.68 42.7973 199.68 44.248C199.68 45.6987 200.341 47.0427 201.664 48.28C201.706 48.0667 201.728 47.7467 201.728 47.32C201.728 43.8213 201.237 42.072 200.256 42.072ZM250.052 40.28C250.649 35.672 252.036 32.1307 254.212 29.656C256.43 27.1387 259.332 25.88 262.916 25.88C266.5 25.88 268.292 27.1173 268.292 29.592C268.292 31.256 267.886 32.792 267.076 34.2C266.308 35.5653 265.262 36.7173 263.94 37.656C261.337 39.4053 258.286 40.664 254.788 41.432C253.934 48.7707 252.676 54.0187 251.012 57.176C254.937 58.4987 257.582 59.352 258.948 59.736C260.313 60.0773 261.742 60.248 263.236 60.248C264.772 60.248 265.817 59.6293 266.372 58.392C266.926 57.1547 267.332 56.536 267.588 56.536C268.1 56.536 268.356 56.856 268.356 57.496C268.356 59.5013 267.609 61.208 266.116 62.616C264.622 64.024 263.001 64.728 261.252 64.728C259.46 64.728 257.838 64.4293 256.388 63.832C254.937 63.2347 254.02 62.8507 253.635 62.68C253.252 62.5093 252.462 62.1467 251.268 61.592C250.116 61.0373 249.305 60.6533 248.836 60.44C247.214 62.1467 245.038 63 242.308 63C241.198 63 240.217 62.5947 239.364 61.784C238.51 60.9733 238.084 60.0133 238.084 58.904C238.084 56.472 239.47 55.256 242.244 55.256C243.438 55.256 245.102 55.5333 247.236 56.088C248.046 53.528 248.9 48.8773 249.796 42.136C249.326 42.1787 248.686 42.2 247.876 42.2C247.108 42.2 246.724 42.072 246.724 41.816C246.724 41.0053 247.833 40.4933 250.052 40.28ZM254.98 39.576C257.71 38.9787 259.95 37.976 261.7 36.568C263.492 35.1173 264.388 33.24 264.388 30.936C264.388 28.632 263.598 27.48 262.02 27.48C258.564 27.48 256.217 31.512 254.98 39.576ZM245.764 59.096C243.289 58.0293 241.753 57.496 241.156 57.496C240.601 57.496 240.324 57.7947 240.324 58.392C240.324 58.9893 240.58 59.5013 241.092 59.928C241.646 60.3547 242.35 60.568 243.204 60.568C244.057 60.568 244.91 60.0773 245.764 59.096ZM278.431 31.704C278.431 30.936 278.836 30.2747 279.647 29.72C280.457 29.1653 281.183 28.888 281.823 28.888C282.975 28.888 283.551 29.5493 283.551 30.872C283.551 32.1947 283.209 33.3467 282.527 34.328C281.844 35.2667 280.884 35.736 279.647 35.736C278.836 35.736 278.431 34.392 278.431 31.704ZM280.286 63.32C278.623 63.32 277.364 62.9787 276.511 62.296C276.212 61.9973 276.062 60.9307 276.062 59.096C276.062 57.2613 276.191 54.2107 276.447 49.944C276.745 45.6347 277.001 43.3093 277.215 42.968C277.428 42.6267 278.089 41.9867 279.199 41.048C280.308 40.1093 281.161 39.64 281.759 39.64C282.399 39.64 282.719 40.4507 282.719 42.072C282.719 42.4987 282.591 43.3307 282.335 44.568C282.121 45.8053 281.865 46.7013 281.567 47.256C281.012 48.664 280.735 52.3547 280.735 58.328C280.735 59.48 280.863 60.056 281.119 60.056C281.844 60.0133 282.847 59.1173 284.127 57.368C285.407 55.576 286.665 53.2933 287.903 50.52C289.183 47.7467 289.951 46.36 290.207 46.36C290.505 46.36 290.655 46.5307 290.655 46.872C290.655 48.0667 290.036 49.9653 288.799 52.568C285.428 59.736 282.591 63.32 280.286 63.32ZM303.25 60.184C304.786 60.184 306.13 59.3947 307.282 57.816C308.434 56.1947 309.287 54.232 309.842 51.928C308.306 51.4587 307.133 50.648 306.322 49.496C305.511 48.3013 305.106 46.936 305.106 45.4C305.106 43.864 305.49 42.52 306.258 41.368C307.069 40.216 308.221 39.64 309.714 39.64C310.61 39.64 311.293 40.216 311.762 41.368C312.231 42.4773 312.466 43.736 312.466 45.144C312.466 46.552 312.359 47.96 312.146 49.368C312.786 49.624 313.469 49.752 314.194 49.752C315.858 49.752 317.458 48.984 318.994 47.448C319.762 46.68 320.274 46.296 320.53 46.296C320.829 46.296 320.978 46.5093 320.978 46.936C320.978 47.3627 320.701 47.8747 320.146 48.472C317.885 50.9893 315.026 52.248 311.57 52.248C310.759 55.3627 309.501 57.9867 307.794 60.12C306.087 62.2533 303.997 63.32 301.522 63.32C300.071 63.32 298.877 62.7013 297.938 61.464C296.359 59.4587 295.57 56.5147 295.57 52.632C295.57 51.3093 295.677 49.6027 295.89 47.512C296.103 45.4213 296.338 44.1413 296.594 43.672C296.893 43.2027 297.575 42.6267 298.642 41.944C299.751 41.2613 300.519 40.92 300.946 40.92C301.586 40.92 301.906 41.304 301.906 42.072C301.906 44.248 301.351 46.616 300.242 49.176C300.242 52.2053 300.477 54.808 300.946 56.984C301.458 59.1173 302.226 60.184 303.25 60.184ZM309.074 42.072C308.733 42.072 308.562 42.776 308.562 44.184C308.562 45.592 309.202 46.936 310.482 48.216C310.567 47.704 310.61 47.192 310.61 46.68C310.61 43.608 310.098 42.072 309.074 42.072ZM327.993 31.704C327.993 30.936 328.398 30.2747 329.209 29.72C330.02 29.1653 330.745 28.888 331.385 28.888C332.537 28.888 333.113 29.5493 333.113 30.872C333.113 32.1947 332.772 33.3467 332.089 34.328C331.406 35.2667 330.446 35.736 329.209 35.736C328.398 35.736 327.993 34.392 327.993 31.704ZM329.849 63.32C328.185 63.32 326.926 62.9787 326.073 62.296C325.774 61.9973 325.625 60.9307 325.625 59.096C325.625 57.2613 325.753 54.2107 326.009 49.944C326.308 45.6347 326.564 43.3093 326.777 42.968C326.99 42.6267 327.652 41.9867 328.761 41.048C329.87 40.1093 330.724 39.64 331.321 39.64C331.961 39.64 332.281 40.4507 332.281 42.072C332.281 42.4987 332.153 43.3307 331.897 44.568C331.684 45.8053 331.428 46.7013 331.129 47.256C330.574 48.664 330.297 52.3547 330.297 58.328C330.297 59.48 330.425 60.056 330.681 60.056C331.406 60.0133 332.409 59.1173 333.689 57.368C334.969 55.576 336.228 53.2933 337.465 50.52C338.745 47.7467 339.513 46.36 339.769 46.36C340.068 46.36 340.217 46.5307 340.217 46.872C340.217 48.0667 339.598 49.9653 338.361 52.568C334.99 59.736 332.153 63.32 329.849 63.32ZM349.805 59.544L349.869 61.528C349.869 62.7227 349.527 63.32 348.845 63.32C347.821 63.32 346.839 63.192 345.901 62.936C344.962 62.6373 344.492 62.2533 344.492 61.784C344.492 61.272 344.599 59.5867 344.812 56.728C345.069 53.8267 345.197 51.6507 345.197 50.2V46.424C345.197 44.376 345.41 43.1387 345.837 42.712C346.263 42.2853 347.01 41.6667 348.077 40.856C349.186 40.0453 349.975 39.64 350.445 39.64C350.957 39.64 351.277 39.7253 351.405 39.896C351.533 40.0667 351.597 40.3867 351.597 40.856C351.597 43.1173 351.17 45.2507 350.317 47.256C350.103 49.688 349.997 51.3733 349.997 52.312C350.167 52.056 351.063 50.6053 352.685 47.96C354.306 45.3147 355.671 43.3733 356.781 42.136C357.933 40.8987 358.957 40.28 359.853 40.28C360.749 40.28 361.538 40.5787 362.221 41.176C362.946 41.7733 363.309 42.52 363.309 43.416C363.309 45.2933 363.095 48.0667 362.669 51.736C362.285 55.3627 362.093 57.6667 362.093 58.648C362.093 59.5867 362.221 60.056 362.477 60.056C363.202 60.0133 364.205 59.1173 365.485 57.368C366.765 55.576 368.023 53.2933 369.261 50.52C370.541 47.7467 371.309 46.36 371.565 46.36C371.863 46.36 372.013 46.5307 372.013 46.872C372.013 48.0667 371.394 49.9653 370.157 52.568C366.786 59.736 363.949 63.32 361.645 63.32C359.981 63.32 358.722 62.9787 357.869 62.296C357.57 61.9973 357.421 61.2293 357.421 59.992C357.421 58.712 357.527 56.664 357.741 53.848C357.997 50.9893 358.125 48.856 358.125 47.448C358.125 46.04 357.869 45.336 357.357 45.336C356.887 45.336 355.607 46.808 353.517 49.752C351.426 52.6533 350.317 54.5093 350.189 55.32C349.933 56.8133 349.805 58.2213 349.805 59.544ZM391.219 53.208C389.896 56.7067 388.659 59.2667 387.507 60.888C386.397 62.5093 384.925 63.32 383.091 63.32C381.256 63.32 379.699 62.5307 378.419 60.952C377.181 59.3733 376.562 56.856 376.562 53.4C376.562 49.944 377.523 46.8933 379.443 44.248C381.405 41.6027 383.965 40.28 387.123 40.28C387.763 40.28 388.531 40.5573 389.427 41.112C390.323 41.624 391.112 42.264 391.795 43.032C391.923 42.6053 392.541 41.944 393.651 41.048C394.76 40.1093 395.613 39.64 396.211 39.64C396.851 39.64 397.171 40.5573 397.171 42.392C397.171 44.2267 396.787 45.848 396.019 47.256C395.592 50.1147 395.357 52.76 395.315 55.192C399.496 49.9013 401.715 47.1067 401.971 46.808C402.269 46.5093 402.525 46.36 402.739 46.36C403.165 46.36 403.379 46.5733 403.379 47C403.379 47.256 403.293 47.5333 403.123 47.832C401.757 49.8373 399.069 53.3573 395.059 58.392C394.803 63.4693 394.632 66.9253 394.547 68.76C394.333 74.1787 393.565 77.976 392.243 80.152C390.963 82.3707 388.659 83.48 385.331 83.48C383.88 83.48 382.515 83.032 381.235 82.136C379.997 81.2827 379.379 79.768 379.379 77.592C379.379 75.4587 380.189 73.2613 381.811 71C383.475 68.7387 386.483 65.2613 390.835 60.568L391.219 53.208ZM386.739 42.584C385.544 42.584 384.264 43.5227 382.899 45.4C381.576 47.2347 380.915 49.368 380.915 51.8C380.915 54.1893 381.256 56.152 381.939 57.688C382.664 59.1813 383.56 59.928 384.627 59.928C385.693 59.928 386.717 59.0533 387.699 57.304C388.68 55.5547 389.939 52.5467 391.475 48.28C391.56 46.8293 391.603 45.912 391.603 45.528C391.261 44.888 390.557 44.248 389.491 43.608C388.424 42.9253 387.507 42.584 386.739 42.584ZM390.643 63.576C385.779 68.824 383.347 73.0267 383.347 76.184C383.347 77.6347 383.603 78.8293 384.115 79.768C384.627 80.7067 385.331 81.176 386.227 81.176C387.592 81.176 388.552 80.4293 389.107 78.936C389.661 77.4427 390.067 74.4133 390.323 69.848L390.643 63.576Z" fill="#F7D59C"/>
<defs>
<clipPath id="clip0">
<rect width="75" height="75" fill="white" transform="translate(487 12)"/>
</clipPath>
</defs>
</svg>
