<svg width="491" height="465" viewBox="0 0 491 465" fill="none" xmlns="http://www.w3.org/2000/svg">
<path opacity="0.74707" fill-rule="evenodd" clip-rule="evenodd" d="M459.223 216.923L457.963 219.489C437.235 261.469 409.727 306.904 364.691 333.212C319.555 359.568 256.887 366.798 199.298 370.981L195.779 371.233C137.132 375.43 84.252 376.797 49.84 361.575C15.4538 346.408 -0.464654 314.653 0.0103147 275.715C0.485285 236.777 17.4575 190.608 59.1973 151.171C100.911 111.68 167.392 78.9173 235.073 54.7153C302.753 30.5133 371.504 14.8598 417.189 23.3168C462.798 31.88 485.214 64.5449 489.518 100.162C493.798 135.722 479.992 174.288 459.223 216.923Z" fill="#B86767" fill-opacity="0.5"/>
<mask id="mask0" style="mask-type:alpha" maskUnits="userSpaceOnUse" x="178" y="111" width="89" height="52">
<path fill-rule="evenodd" clip-rule="evenodd" d="M178.115 111.215H266.783V162.859H178.115V111.215Z" fill="white"/>
</mask>
<g mask="url(#mask0)">
<path fill-rule="evenodd" clip-rule="evenodd" d="M259.97 129.718C252.752 125.191 243.661 119.924 235.422 114.685C233.835 118.496 234.626 124.017 235.701 128.025C233.376 126.301 234.536 122.445 233.645 119.924C223.504 122.207 216.954 122.269 210.714 111.215C198.649 117.433 193.259 122.137 185.195 124.522C166.309 139.326 195.469 187.994 240.545 174.148C268.189 165.757 271.446 131.115 259.97 129.718Z" fill="#AD603F"/>
</g>
<mask id="mask1" style="mask-type:alpha" maskUnits="userSpaceOnUse" x="210" y="97" width="25" height="26">
<path fill-rule="evenodd" clip-rule="evenodd" d="M210.986 97.297H234.946V122.096H210.986V97.297Z" fill="white"/>
</mask>
<g mask="url(#mask1)">
<path fill-rule="evenodd" clip-rule="evenodd" d="M233.438 119.924C228.595 121.326 224.365 123.588 219.46 120.693C214.954 117.731 210.8 115.527 210.993 111.198C211.084 109.16 212.196 105.495 213.997 99.0172C215.958 91.9655 226.954 108.927 233.986 108.09C236.277 107.669 233.795 118.264 233.438 119.924Z" fill="#AD603F"/>
</g>
<path fill-rule="evenodd" clip-rule="evenodd" d="M234.929 108.907L235.929 108.952C235.637 115.528 234.042 122.709 236.522 129.224C231.158 125.367 233.649 114.915 234.929 108.907Z" fill="#37231F"/>
<path fill-rule="evenodd" clip-rule="evenodd" d="M238.039 107.697C237.85 107.966 237.662 108.235 237.474 108.504C232.42 111.181 222.331 110.302 219.415 105.589C222.228 105.59 225.176 107.054 228.047 107.472C231.359 108.712 234.887 106.668 238.039 107.697Z" fill="#3E2C26"/>
<mask id="mask2" style="mask-type:alpha" maskUnits="userSpaceOnUse" x="111" y="253" width="263" height="212">
<path fill-rule="evenodd" clip-rule="evenodd" d="M111.263 253.033H373.195V465H111.263V253.033Z" fill="white"/>
</mask>
<g mask="url(#mask2)">
<path fill-rule="evenodd" clip-rule="evenodd" d="M364.283 424.211C359.085 424.412 354.419 420.75 349.587 418.978C343.053 416.148 320.101 398.832 324.901 390.223C333.277 367.715 344.313 346.607 354.416 325.022C358.876 315.319 365.563 306.688 367.976 296.005C369.169 286.121 376.379 273.207 371.545 264.017C352.422 247.347 295.814 256.142 271.473 259.351C270.59 259.652 270.475 256.679 270.586 253.033C246.802 290.214 214.399 268.487 186.337 263.052C186.021 265.965 185.426 268.871 184.781 271.792C182.118 282.745 180.943 293.984 180.647 305.306C180.442 325.882 186.854 345.57 193.525 364.516C196.815 371.297 198.92 378.661 201.385 385.803C203.78 392.259 206.386 398.697 207.686 405.545C208.999 410.416 210.132 415.59 211.483 420.277C210.933 422.652 213.285 424.399 212.878 426.854C215.444 433.524 219.393 440.339 223.244 445.924C218.909 442.458 215.954 435.835 213.075 430.66C212.854 429.063 213.032 427.399 211.728 426.231C211.46 425.949 211.467 425.565 211.381 425.199C208.055 413.251 205.828 400.56 201.469 388.926C201.065 383.775 196.235 383.222 192.785 380.993C187.418 378.157 182.108 374.884 176.816 371.999C172.677 370.719 169.249 367.522 167.192 363.408C162.799 352.776 165.552 348.368 152.83 344.53C143.393 343.83 138.342 355.782 134.984 363.79C131.817 374.132 121.066 377.235 116.348 386.468C114.693 389.146 109.194 397.574 112.093 400.207C112.385 398.307 113.592 394.85 115.679 395.288C115.964 395.905 114.928 396.347 114.692 396.874C113.969 397.938 112.859 399.836 113.8 401.045C114.974 400.739 115.972 398.776 117.278 398.872C116.717 400.353 114.837 401.261 114.347 403.014C113.459 404.509 115.304 407.705 116.587 405.691C117.055 405.044 117.451 404.326 118.085 403.85C122.153 401.34 113.422 408.897 118.116 411.447C117.624 411.791 117.082 411.226 116.589 411.549C116.932 413.243 119.633 412.019 120.766 411.969C120.477 409.711 120.701 407.701 122.479 406.261C122.742 406.016 123.093 405.772 123.411 406.079C123.819 406.681 123.059 407.448 122.836 408.017C121.258 411.172 122.094 412.09 125.188 411.811C130.391 404.078 138.254 399.403 145.988 395.223C146.412 395.009 146.958 394.905 146.745 394.079C149.688 389.241 154.556 393.906 157.665 396.233C183.114 416.954 205.353 442.288 232.753 460.088C240.207 465.691 251.02 466.87 258.908 461.694C272.388 452.39 263.959 424.78 263.038 410.128C258.783 380.695 253.495 351.443 247.238 322.45C246.482 320.47 246.842 320.025 248.699 319.781C264.109 315.103 279.685 310.648 295.606 308.752C339.739 303.852 310.732 310.287 343.954 285.077C346.405 283.509 349.078 282.336 351.686 281.236C353.661 280.279 356.217 278.847 358.227 278.849C358.365 279.385 357.705 279.524 357.331 279.655C355.657 280.247 354.097 281.152 352.428 281.752C348.546 284.153 344.472 286.178 340.838 288.901C337.185 292.033 333.157 294.884 330.126 298.849C327.862 301.23 325.056 303.106 323.32 306.027C324.231 306.164 324.248 306.214 323.725 307.002C321.549 310.189 319.584 313.578 317.852 317.07C309.03 335.5 306.139 356.192 303.178 376.474C300.305 388.542 296.276 400.246 292.412 411.978C291.56 414.548 290.737 417.102 291.304 419.919C291.818 421.849 290.824 424.101 292.444 425.526C298.741 430.554 307.341 430.583 314.866 431.474C327.217 431.744 338.286 441.35 350.759 439.882C351.81 438.791 353.776 439.584 355.085 438.829C356.398 438.418 356.526 436.383 355.04 436.207C354.151 435.752 352.038 435.287 352.297 433.923C353.506 433.341 354.957 434.941 356.208 435.199C357.618 435.391 357.346 437.656 358.787 437.537C360.284 437.765 361.4 436.539 362.077 435.205C362.873 433.076 358.467 433.623 357.45 432.46C355.912 430.924 362.794 432.379 363.24 433.181C363.825 433.624 364.346 433.576 364.869 433.103C365.738 432.417 367.247 430.485 365.334 430.175C364.681 430.369 358.447 428.56 361.127 428.46C363.032 428.337 367.328 430.285 367.866 427.506C367.878 426.642 367.501 426.139 366.712 426.055C365.135 425.921 363.416 426.33 362.088 425.138C361.739 424.973 361.843 424.657 362.204 424.808C365.017 425.29 367.945 423.242 369.678 426.601C370.082 422.901 366.335 424.267 364.283 424.211Z" fill="#AD603F"/>
</g>
<path fill-rule="evenodd" clip-rule="evenodd" d="M322.13 306.188C331.941 294.09 343.729 281.451 358.734 278.756C355.288 281.087 351.144 282.578 347.471 284.78C346.274 285.06 345.188 286.461 344.142 287.196C341.847 287.607 340.566 289.863 338.5 290.783C335.683 294.163 331.771 296.151 329.401 300.038C328.322 300.13 328.188 301.566 327.411 301.83C325.818 302.979 324.67 304.509 323.322 306.026C322.924 306.08 322.527 306.134 322.13 306.188Z" fill="#392620"/>
<path fill-rule="evenodd" clip-rule="evenodd" d="M360.845 436.64C364.794 432.66 357.776 434.494 356.664 431.801C358.698 431.569 361.451 431.787 363.254 432.945C364.276 434.237 365.192 432.325 365.898 431.621C367.707 429.498 360.476 430.568 359.943 428.273C361.811 427.51 367.219 429.981 367.768 427.715C367.883 426.977 367.506 426.27 366.934 426.209C364.911 426.266 362.594 426.552 361.2 424.595C366.861 424.188 372.209 423.301 368.026 431.296C368.025 431.37 367.995 431.424 367.937 431.459C367.178 432.474 366.275 433.447 365.356 434.283C365.324 434.348 365.275 434.384 365.207 434.387C365.074 434.504 364.944 434.62 364.793 434.705C364.758 434.768 364.707 434.8 364.64 434.801C363.827 435.155 361.377 437.607 360.845 436.64Z" fill="#372620"/>
<path fill-rule="evenodd" clip-rule="evenodd" d="M112.092 400.207C111.914 397.895 113.811 394.478 116.035 395.04C115.644 397.061 112.716 398.411 113.745 400.964C115.1 400.294 116.105 398.541 117.669 398.619C116.687 400.844 112.108 403.724 115.389 406.159C117.031 406.462 117.663 402.562 119.484 403.027C118.953 406.139 114.286 409.022 118.658 411.65C117.953 411.855 117.278 411.775 116.587 411.549L116.572 411.565C116.431 411.497 116.236 411.53 116.176 411.309C115.089 410.729 114.993 407.975 115.583 407.048C111.713 407.839 112.592 402.926 112.092 400.207Z" fill="#392C23"/>
<path fill-rule="evenodd" clip-rule="evenodd" d="M350.721 439.736C349.127 439.101 358.992 439.117 355.167 436.447C354.173 435.702 351.574 435.448 352.125 433.625C353.443 433.351 357.456 435.035 357.77 436.73C358.054 437.95 359.277 437.113 360.076 437.233C357.728 439.061 353.912 439.689 350.857 439.805C350.78 439.857 350.734 439.838 350.721 439.736Z" fill="#3C2B24"/>
<path fill-rule="evenodd" clip-rule="evenodd" d="M120.766 411.969C119.895 409.531 121.009 405.88 123.635 405.822C124.161 407.598 120.72 410.898 123.018 411.569C123.751 411.641 124.579 411.242 125.187 411.811C123.962 413.22 122.217 412.328 120.766 411.969Z" fill="#392C23"/>
<path fill-rule="evenodd" clip-rule="evenodd" d="M193.528 364.516C196.304 368.792 197.557 373.958 199.096 378.875C198.271 379.011 197.698 375.48 197.202 374.641C195.972 371.326 194.768 367.874 193.528 364.516Z" fill="#483832"/>
<path fill-rule="evenodd" clip-rule="evenodd" d="M112.216 400.829C113.451 402.991 111.632 405.75 114.513 407.007C111.303 409.763 110.696 402.859 112.216 400.829Z" fill="#AD603F"/>
<path fill-rule="evenodd" clip-rule="evenodd" d="M199.726 380.758C200.536 382.323 201.286 383.915 201.497 385.738C200.97 386.02 200.604 385.663 200.227 385.35C200.226 385.227 200.225 385.103 200.224 384.979C201.411 384.772 199.506 381.72 199.435 380.773C199.528 380.671 199.625 380.667 199.726 380.758Z" fill="#635149"/>
<path fill-rule="evenodd" clip-rule="evenodd" d="M352.185 439.769C354.48 439.217 356.751 438.547 359.035 437.938C356.829 438.896 354.586 439.69 352.185 439.769Z" fill="#635149"/>
<path fill-rule="evenodd" clip-rule="evenodd" d="M359.345 437.831C359.589 437.631 359.833 437.432 360.077 437.233L360.079 437.258C360.133 437.174 360.403 437.243 360.231 436.998C361.384 436.47 362.599 436.18 363.702 435.424C362.25 436.226 360.798 437.028 359.345 437.831Z" fill="#635149"/>
<path fill-rule="evenodd" clip-rule="evenodd" d="M114.802 407.069C115.037 407.022 115.273 406.975 115.509 406.928C115.92 407.721 115.363 409.011 115.412 409.964C115.209 408.999 115.005 408.034 114.802 407.069Z" fill="#AD603F"/>
<path fill-rule="evenodd" clip-rule="evenodd" d="M198.283 377.657C198.553 378.062 198.823 378.468 199.093 378.874L199.07 378.88C199.191 379.46 199.648 379.966 199.39 380.629C199.021 379.638 198.652 378.648 198.283 377.657Z" fill="#635149"/>
<path fill-rule="evenodd" clip-rule="evenodd" d="M368.027 431.296L368.798 429.175L368.027 431.296Z" fill="#635149"/>
<path fill-rule="evenodd" clip-rule="evenodd" d="M199.391 380.629C199.285 380.046 199.177 379.464 199.071 378.88C199.29 379.506 199.509 380.132 199.728 380.758C199.632 380.762 199.535 380.768 199.437 380.772C199.389 380.738 199.374 380.689 199.391 380.629Z" fill="#483832"/>
<path fill-rule="evenodd" clip-rule="evenodd" d="M369.355 428.21C369.405 427.656 369.455 427.102 369.504 426.548C369.563 426.565 369.621 426.582 369.68 426.601C369.571 427.137 369.463 427.673 369.355 428.21Z" fill="#635149"/>
<path fill-rule="evenodd" clip-rule="evenodd" d="M196.943 373.93C197.028 374.167 197.114 374.404 197.199 374.642C197.114 374.404 197.028 374.167 196.943 373.93Z" fill="#635149"/>
<path fill-rule="evenodd" clip-rule="evenodd" d="M364.224 435.093C364.363 434.996 364.501 434.899 364.64 434.801C364.501 434.899 364.363 434.996 364.224 435.093Z" fill="#635149"/>
<path fill-rule="evenodd" clip-rule="evenodd" d="M364.794 434.705C364.932 434.599 365.069 434.494 365.208 434.387C365.069 434.494 364.932 434.599 364.794 434.705Z" fill="#635149"/>
<path fill-rule="evenodd" clip-rule="evenodd" d="M365.358 434.282C365.486 434.173 365.614 434.065 365.742 433.954C365.614 434.065 365.486 434.173 365.358 434.282Z" fill="#635149"/>
<path fill-rule="evenodd" clip-rule="evenodd" d="M197.313 374.965L197.501 375.483L197.313 374.965Z" fill="#635149"/>
<path fill-rule="evenodd" clip-rule="evenodd" d="M197.907 376.622L198.084 377.098L197.907 376.622Z" fill="#635149"/>
<path fill-rule="evenodd" clip-rule="evenodd" d="M367.639 431.891C367.74 431.747 367.839 431.602 367.94 431.459C367.839 431.602 367.74 431.747 367.639 431.891Z" fill="#635149"/>
<path fill-rule="evenodd" clip-rule="evenodd" d="M116.177 411.309C116.309 411.394 116.441 411.48 116.573 411.565C116.441 411.48 116.309 411.394 116.177 411.309Z" fill="#AD603F"/>
<path fill-rule="evenodd" clip-rule="evenodd" d="M350.721 439.736C350.784 439.722 350.829 439.745 350.857 439.805C350.842 439.858 350.81 439.884 350.759 439.882C350.746 439.834 350.733 439.785 350.721 439.736Z" fill="#635149"/>
<path fill-rule="evenodd" clip-rule="evenodd" d="M200.229 385.35L201.499 385.739C204.811 393.849 207.553 402.033 209.017 410.724C210.335 413.383 210.149 416.808 211.547 419.23C211.711 419.324 211.812 419.942 211.695 420.152C211.184 421.069 211.764 421.833 211.958 422.599C212.181 423.786 213.244 424.756 213.083 426.038C212.678 427.699 214.016 428.223 214.48 429.491C216.246 435.551 220.119 440.868 223.717 445.907C222.501 448.302 214.174 433.869 213.647 431.749C212.17 430.695 213.188 428.834 212.389 427.549C212.127 426.963 211.294 426.181 211.149 425.693C211.499 424.386 210.46 423.374 210.61 422.131C208.263 416.755 207.858 409.959 205.859 404.233C205.505 403.349 206.044 402.251 205.129 401.634C204.382 400.463 204.485 398.809 204.238 397.454C202.844 393.443 201.378 389.53 200.229 385.35Z" fill="#38261F"/>
<path fill-rule="evenodd" clip-rule="evenodd" d="M306.946 393.049C307.822 394.606 306.682 396.552 305.348 397.217C302.946 398.649 305.44 401.605 305.525 403.748C304.946 407.325 302.283 401.331 302.42 399.973C302.036 398.711 303.484 397.955 303.907 396.998C304.287 394.971 305.789 394.515 306.946 393.049Z" fill="#37251E"/>
<path fill-rule="evenodd" clip-rule="evenodd" d="M155.631 376.298C154.057 376.053 152.984 377.55 151.511 377.463C151.514 375.469 153.278 374.785 154.748 374.357C156.079 373.91 156.968 374.46 157.901 375.336C158.46 375.767 159.359 375.64 159.671 376.488C158.529 377.443 156.959 376.253 155.631 376.298Z" fill="#38261F"/>
<path fill-rule="evenodd" clip-rule="evenodd" d="M233.216 451.843C234.091 452.709 235.19 453.36 235.385 454.699C235.513 455.608 235.987 456.154 236.679 456.539C237.077 456.762 237.29 457.091 237.03 457.527C236.464 458.451 235.777 457.174 235.163 456.958C233.655 456.113 232.111 453.49 233.216 451.843Z" fill="#38261F"/>
<path fill-rule="evenodd" clip-rule="evenodd" d="M360.233 436.998C360.183 437.084 360.131 437.172 360.08 437.258C360.131 437.172 360.183 437.084 360.233 436.998Z" fill="#3C2B24"/>
<path fill-rule="evenodd" clip-rule="evenodd" d="M115.507 406.928C115.581 406.911 115.655 406.893 115.73 406.877C115.713 406.965 115.696 407.053 115.68 407.14C115.623 407.07 115.564 406.999 115.507 406.928Z" fill="#AD603F"/>
<path fill-rule="evenodd" clip-rule="evenodd" d="M350.205 442.547C336.516 442.04 325.951 435.869 312.647 436.122C305.041 435.516 286.417 434.709 290.59 421.915C291.318 419.279 294.661 422.733 296.068 423.285C301.905 427.777 309.002 428.692 315.827 430.085C317.412 430.394 317.471 430.462 317.76 428.646C319.306 419.332 325.797 407.418 334.911 406.339C345.872 413.591 332.048 412.63 328.632 430.561C328.37 431.815 328.376 431.838 329.478 432.052C332.424 432.399 335.219 433.314 337.963 434.517C339.189 434.901 339.304 434.854 339.545 433.393C340.617 427.315 343.641 422.064 347.759 417.968C349.652 416.684 351.834 419.417 353.722 419.973C355.222 420.808 355.357 421.393 354.541 423.099C352.475 426.754 351.355 430.851 350.198 434.932C348.971 438.277 366.449 433.335 367.704 431.193C368.113 430.793 368.81 430.345 369.175 430.947C369.917 439.878 355.623 442.402 350.205 442.547Z" fill="#68483C"/>
<path fill-rule="evenodd" clip-rule="evenodd" d="M109.007 400.946C110.456 388.639 118.974 379.374 127.237 371.666C131.391 367.443 133.264 361.395 136.432 356.377C142.176 346.672 155.505 337.665 163.73 349.158C166.846 355.189 150.233 341.678 137.148 364.52C133.679 368.974 134.588 373.345 136.575 378.333C138.73 383.744 141.446 388.755 145.585 392.671C146.378 393.422 146.847 394.274 146.881 395.501C146.923 397.016 146.894 397.305 145.703 397.911C140.522 401.415 135.948 396.163 133.061 391.774C130.767 388.227 128.632 384.581 127.404 380.389C127.162 379.563 126.952 379.492 126.381 380.014C125.083 381.742 121.917 382.84 122.283 385.415C123.188 391.555 126.783 396.264 130.825 400.336C131.78 401.744 135.072 403.254 133.29 405.214C131.57 406.668 129.513 409.972 127.139 408.209C113.726 399.991 117.108 385.328 113.169 400.868C113.6 402.328 113.474 403.832 113.503 405.329C113.753 407.441 116.812 406.235 116.448 409.151C116.881 413.961 120.067 409.131 122.534 412.786C123.199 413.331 122.803 413.681 122.275 413.981C114.346 417.626 108.775 409.548 109.007 400.946Z" fill="#68483C"/>
<path fill-rule="evenodd" clip-rule="evenodd" d="M254.658 350.24C254.767 351.024 254.875 351.808 254.985 352.592C235.938 361.669 214.15 362.371 193.98 357.286C192.823 356.371 191.253 357.008 190.209 355.934C187.015 347.309 184.488 338.433 182.507 329.389C179.551 317.351 177.776 304.579 179.142 292.197C183.725 292.899 188.514 292.868 192.865 291.168C193.848 290.086 194.997 290.143 196.246 290.181C197.857 288.784 200.151 288.481 201.313 286.364C204.264 285.315 203.66 278.805 207.399 281.109C213.636 281.906 219.991 282.934 226.25 282.593C228.35 283.937 230.362 281.853 232.433 282.436C236.46 282.977 240.545 281.214 244.334 280.469C245.924 283.319 244.292 287.028 245.471 290.105C245.679 291.9 245.093 293.855 245.08 295.714C245.214 297.658 245.612 299.564 245.113 301.513C245.319 303.967 245.113 306.328 244.94 308.771C244.788 313.725 247.364 310.467 247.852 316.568C250.878 327.336 252.339 338.592 254.411 349.525L254.401 349.506C254.601 349.702 254.584 349.991 254.658 350.24Z" fill="#FED2A7"/>
<path fill-rule="evenodd" clip-rule="evenodd" d="M303.159 311.268C289.074 313.328 275.284 319.566 260.962 318.46C263.676 315.111 266.987 312.157 270.296 309.717C279.329 301.423 289.234 294.274 299.234 287.488C285.449 294.671 269.625 307.478 257.596 319.739L257.61 319.718C255.99 320.713 254.186 321.474 252.284 321.527C255.862 313.507 263.183 307.4 269.241 301.624C271.06 300.891 271.616 298.36 273.45 297.414C275.734 295.494 278.183 293.862 280.369 291.833C285.935 287.068 292.842 283.758 298.613 279.605C292.281 281.913 286.241 286.936 280.467 290.565C272.875 295.992 265.362 302.143 259.298 309.686C258.759 311.175 257.302 311.99 256.115 312.855C255.42 314.351 254.112 315.326 253.309 316.708C252.964 317.678 252.573 318.585 251.636 319.067C251.319 319.231 251.31 319.718 251.131 320.037C249.851 321.66 248.707 314.508 248.262 313.466C247.913 311.644 250.543 311.273 250.936 309.513C256.852 300.872 256.539 289.505 256.368 279.309C255.693 276.554 259.436 276.976 260.271 274.851C261.144 273.243 263.353 273.531 263.819 271.559C264.522 270.498 265.872 270.06 266.368 268.732C267.567 267.517 269.801 269.607 271.384 269.452C273.463 270.383 275.519 269.462 277.705 269.323C279.955 268.446 281.952 266.912 283.926 265.608C285.721 261.971 287.877 258.795 288.465 254.666C296.938 253.343 305.595 253.308 314.121 253.203C314.197 253.591 313.983 253.818 313.701 253.896C310.494 255.017 310.019 258.999 308.029 261.378C306.628 263.002 307.107 265.767 305.973 267.565C304.84 270.99 304.629 274.803 303.886 278.383C303.891 283.415 302.476 288.619 302.569 293.435C302.159 293.943 302.263 294.534 302.495 295.089C302.983 297.087 302.278 299.225 302.737 301.28C302.611 304.677 303.276 307.934 303.159 311.268Z" fill="#FED2A7"/>
<path fill-rule="evenodd" clip-rule="evenodd" d="M183.805 267.964C184.942 265.588 185.055 260.355 188.089 260.384C192.073 261.512 196.104 262.459 200.121 263.448C214.462 266.789 228.934 270.842 243.706 269.092C244.088 271.49 246.27 279.69 242.654 279.553C237.949 280.185 233.215 281.643 228.506 280.931C221.595 281.488 214.167 280.844 207.448 279.086C206.173 279.111 204.738 279.097 203.56 278.725C202.354 277.436 200.774 277.175 199.238 276.955C193.902 274.689 187.632 272.813 183.805 267.964Z" fill="#FED2A7"/>
<path fill-rule="evenodd" clip-rule="evenodd" d="M255.315 354.474C256.199 357.644 256.797 360.891 257.02 364.198C257.212 366.285 255.304 365.517 254.104 365.946C238.022 371.696 220.305 374.856 203.676 370.123C195.619 367.505 192.25 368.693 190.977 358.199C212.266 364.171 234.754 362.927 255.315 354.474Z" fill="#FED2A8"/>
<path fill-rule="evenodd" clip-rule="evenodd" d="M183.808 267.964C186.999 270.962 190.533 273.061 194.357 274.773C195.855 274.695 196.835 275.871 198.057 276.486C199.704 277.021 201.776 276.883 203.169 278.036C204.574 279.324 206.678 278.416 208.359 278.987C209.217 279.121 209.989 279.925 210.879 279.988C217.02 279.906 223.046 281.355 229.106 280.789C230.03 280.811 231.025 281.088 231.918 281.028C232.729 280.194 233.714 280.81 234.585 280.613C237.263 280.465 239.834 279.469 242.498 279.351C246.476 278.867 243.372 271.98 243.709 269.092C244.32 269.067 244.933 269.041 245.545 269.015C246.429 272.698 245.83 276.757 246.803 280.461C246.168 283.714 247.621 286.922 246.804 290.214C246.9 293.371 247.215 296.598 246.997 299.827C247.229 303.15 246.624 306.29 246.717 309.59C247.543 311.545 250.448 306.834 250.956 305.767C254.289 298.464 254.136 290.677 254.705 282.784C254.282 279.244 255.09 275.52 254.1 271.9C253.932 269.951 252.267 266.587 254.772 265.834C256.737 266.875 255.015 276.083 257.323 274.345C265.134 269.766 269.043 260.908 272.667 252.648C274.47 254.889 273.393 257.3 272.123 259.409C272.023 262.308 269.093 264.288 268.811 266.811C270.177 268.387 272.782 267.131 274.582 267.792C276.652 268.146 278.149 265.787 280.228 265.486C283.511 263.211 284.8 258.709 286.422 254.985C287.105 254.879 287.786 254.772 288.468 254.666C288.464 257.063 287.711 259.619 286.193 261.33C284.849 267.05 279.298 269.4 274.539 270.268C271.94 270.316 269.078 268.321 266.631 268.756C265.712 270.099 264.465 270.947 263.681 272.422C263.476 272.973 262.717 273.369 262.131 273.628C260.22 274.48 259.558 277.154 257.245 277.317C256.82 277.377 256.22 278.624 256.517 279.13C257.069 281.055 256.484 283.058 256.696 285.06C256.828 287.361 257.062 289.672 256.103 291.842C256.466 299.088 254.005 307.356 248.904 312.224C247.408 312.924 250.146 318.916 250.723 320.287C250.817 320.159 250.987 320.036 250.994 319.904C250.962 318.676 252.18 318.637 252.643 317.883C252.982 315.607 255.176 314.723 255.891 312.688C261.266 307.461 266.244 300.881 272.534 296.373C275.243 293.21 279.013 291.851 281.94 289.116C282.38 288.497 283.499 288.367 284.142 287.964C288.043 284.545 292.776 282.578 297.14 279.962C297.737 279.577 298.49 278.872 299.166 279.383C293.274 284.048 285.912 287.271 280.148 292.308C277.289 295.321 273.177 296.953 270.943 300.666C270.751 301.199 270.036 301.688 269.478 301.835C266.289 303.794 264.091 307.473 261.22 309.916C257.642 313.168 254.568 316.968 252.286 321.527C250.728 321.856 250.329 321.69 250.697 323.65C251.118 327.651 252.029 331.642 252.093 335.66C252.054 335.656 252.014 335.652 251.975 335.649C250.41 328.264 248.527 321.143 247.147 313.796C246.887 312.214 244.745 312.5 244.785 310.826C244.81 307.403 244.775 304.059 245.079 300.712C245.265 297.528 244.425 294.381 245.336 291.261C244.443 287.89 245.251 283.846 244.387 280.58C240.795 281.525 236.717 283.194 232.909 282.817C230.753 282.114 228.797 283.908 226.784 283.175C225.002 282.335 222.928 283.825 221.072 282.726C220.933 282.656 220.74 282.492 220.659 282.543C219.346 283.328 218.172 281.896 216.892 282.498C213.744 282.462 210.295 281.73 207.153 281.274C204.336 279.303 204.174 283.937 202.924 285.54C201.401 286.387 200.396 287.939 199.028 288.995C198.127 289.295 197.29 289.422 196.653 290.318C196.427 290.559 195.89 290.506 195.5 290.488C193.52 290.151 192.247 292.827 190.032 292.086C189.783 292.036 189.452 292.071 189.25 292.217C187.465 293.558 185.264 292.72 183.238 292.717C181.84 292.554 180.357 293.447 179.144 292.197C179.19 291.363 179.235 290.529 179.282 289.696C179.717 289.357 180.123 289.586 180.522 289.788C182.982 290.567 185.725 289.719 188.319 289.718C189.815 289.51 191.137 288.392 192.755 288.895C194.022 289.322 194.187 287.712 195.229 287.448C198.622 286.377 201.181 283.421 202.978 280.354C196.442 277.611 188.053 275.8 183.118 269.824C183.348 269.204 183.578 268.584 183.808 267.964Z" fill="#B79069"/>
<path fill-rule="evenodd" clip-rule="evenodd" d="M316.854 253.13C318.756 253.017 328.944 252.091 322.737 255.359C311.31 263.079 312.104 286.21 311.646 299.447C312.227 306.653 313.508 311.745 304.8 311.186C303.286 305.33 304.617 299.365 303.861 293.466C304.023 290.361 305.565 287.268 304.507 284.075C306.104 276.402 306.608 267.969 309.815 260.77C311.185 259.152 311.817 256.875 313.436 255.624C314.029 253.871 315.641 253.835 316.854 253.13Z" fill="#FED2A8"/>
<path fill-rule="evenodd" clip-rule="evenodd" d="M183.116 269.824C185.975 272.798 189.5 274.587 193.109 276.033C196.445 277.617 199.762 279.319 203.329 280C202.508 282.766 200.008 285.536 197.474 286.519C196.648 287.851 194.876 287.22 194.26 288.763C193.989 289.271 193.661 289.308 193.168 289.285C189.596 288.882 186.344 290.926 182.757 290.18C181.49 290.946 180.445 289.803 179.279 289.696C179.861 282.902 180.403 276.067 183.116 269.824Z" fill="#F7D59C"/>
<path fill-rule="evenodd" clip-rule="evenodd" d="M253.825 266.322C253.652 271.232 255.73 276.155 254.754 280.992C254.975 289.083 254.602 298.686 251.03 306.277C250.631 308.337 248.431 309.529 246.852 310.623C246.296 310.533 246.092 307.678 246.663 307.168C246.726 306.159 245.903 305.461 246.688 304.391C246.876 301.495 246.315 298.359 246.875 295.455C247.295 293.363 245.745 291.236 246.82 289.323C246.861 286.743 245.924 284.202 246.468 281.608C246.241 277.543 245.5 273.282 245.546 269.015C248.304 268.112 251.045 267.134 253.825 266.322Z" fill="#FDD1A6"/>
<path fill-rule="evenodd" clip-rule="evenodd" d="M272.667 252.648C272.834 254.473 271.082 255.639 270.62 257.273C271.195 258.898 269.625 259.398 269.211 260.506C266.818 266.842 262.101 271.579 256.826 275C255.162 275.697 256.041 267.466 254.772 265.835C257.789 263.947 260.677 261.897 263.178 259.245C265.43 258.094 270.89 248.39 272.667 252.648Z" fill="#F7D59C"/>
<path fill-rule="evenodd" clip-rule="evenodd" d="M286.42 254.985C286.253 256.497 285.364 257.793 284.863 259.19C284.73 261.673 282.463 262.905 281.454 264.947C280.145 266.296 278.213 266.11 276.889 267.589C276.222 268.576 268.327 268.096 268.304 266.695C269.988 264.213 271.492 261.411 272.223 258.612C272.694 257.465 273.748 256.109 273.444 254.85C273.421 254.782 273.567 254.647 273.635 254.543C274.247 255.327 274.395 256.966 275.613 256.704C279.209 256.14 282.803 255.24 286.42 254.985Z" fill="#F7D59C"/>
<path fill-rule="evenodd" clip-rule="evenodd" d="M255.316 354.474C251.11 356.644 246.268 357.361 241.921 359.357C240.167 359.051 238.739 360.367 237.098 360.53C234.76 360.914 232.357 360.958 229.988 361.648C217.126 362.733 203.648 362.404 190.978 358.199C190.722 357.444 190.467 356.689 190.213 355.934C200.524 359.375 211.125 359.832 221.78 360.232C224.492 360.021 227.392 359.807 229.992 359.197C231.326 359.537 232.598 358.604 233.784 359.231C234.54 358.351 235.616 358.947 236.503 358.481C237.406 358.008 238.479 357.929 239.475 357.666C241.678 356.682 244.204 357.264 246.18 355.774C247.29 355.344 248.777 354.654 250.053 354.597C250.271 354.632 250.616 354.503 250.738 354.318C251.408 353.3 252.621 353.617 253.444 352.929C253.819 352.616 254.465 352.692 254.987 352.592C255.097 353.22 255.206 353.847 255.316 354.474Z" fill="#B79069"/>
<path fill-rule="evenodd" clip-rule="evenodd" d="M316.854 253.13C316.082 253.57 315.557 254.541 314.5 254.411C314.362 254.395 314.157 254.835 314.017 255.086C313.858 255.375 313.787 255.906 313.593 255.96C312.134 256.365 312.25 258.167 311.284 259.007C307.083 265.788 306.146 274.546 305.317 282.553C304.406 283.316 304.815 284.221 305.015 285.136C305.431 287.271 304.657 289.509 304.435 291.602C304.044 295.369 304.52 299.104 304.071 302.943C304.733 304.374 304.434 305.828 304.456 307.32C304.648 308.607 304.934 309.87 304.8 311.186C304.254 311.214 303.707 311.241 303.161 311.268C302.385 307.505 302.672 303.788 302.246 300.004C302.799 299.054 302.034 298.059 302.348 297.055C302.942 296.013 301.649 294.533 302.161 293.546C302.803 292.95 302.613 292.483 302.288 291.848C302.26 288.618 303.476 285.332 303.35 282.03C303.878 278.794 304.115 275.346 304.483 272.057C305.363 269.116 306.322 266.215 306.919 263.154C307.038 261.502 308.813 260.721 309.071 259.179C309.836 256.382 312.054 254.68 314.124 253.203C315.034 253.178 315.944 253.154 316.854 253.13Z" fill="#B79069"/>
<path fill-rule="evenodd" clip-rule="evenodd" d="M257.6 319.739C262.015 313.828 268.404 309.749 273.509 304.626C281.953 298.686 290.943 290.943 299.884 286.947C291.528 293.731 281.423 299.928 273.071 307.458C272.445 307.987 271.561 308.349 271.222 309.04C270.435 310.249 268.957 310.239 268.491 311.769C264.491 313.981 262.175 318.79 257.6 319.739Z" fill="#B8916A"/>
<path fill-rule="evenodd" clip-rule="evenodd" d="M251.974 335.648C252.014 335.648 252.053 335.652 252.092 335.661C253.152 339.92 253.859 345.029 254.411 349.524C252.709 345.218 252.775 340.291 251.974 335.648Z" fill="#C5A17F"/>
<path fill-rule="evenodd" clip-rule="evenodd" d="M254.659 350.24C254.574 349.995 254.488 349.75 254.402 349.506C254.488 349.75 254.574 349.995 254.659 350.24Z" fill="#C5A17F"/>
<path fill-rule="evenodd" clip-rule="evenodd" d="M257.417 319.891C257.482 319.834 257.547 319.776 257.611 319.718C257.547 319.776 257.482 319.834 257.417 319.891Z" fill="#B8916A"/>
<path fill-rule="evenodd" clip-rule="evenodd" d="M244.386 280.581C244.427 280.497 244.467 280.412 244.508 280.329C244.636 280.412 244.485 280.534 244.454 280.645L244.386 280.581Z" fill="#FED2A7"/>
<path fill-rule="evenodd" clip-rule="evenodd" d="M253.832 274.048C253.587 282.733 247.136 280.937 248.18 273.331C248.338 271.55 249.173 270.091 250.608 269.275C250.846 268.219 251.99 269.068 252.095 269.637C252.07 271.442 253.265 272.522 253.832 274.048Z" fill="#B79069"/>
<path fill-rule="evenodd" clip-rule="evenodd" d="M249.915 275.214C250.058 273.879 249.705 270.966 251.291 270.835C251.623 271.58 252.237 272.257 251.842 273.209C251.581 273.839 251.509 274.442 251.986 275.025C252.184 275.267 251.79 277.225 251.56 277.411C250.344 277.822 249.727 276.351 249.915 275.214Z" fill="#F9CEA3"/>
<path fill-rule="evenodd" clip-rule="evenodd" d="M364.381 273.448C363.659 275.374 366.218 276.914 365.301 278.02C363.528 278.263 361.586 272.934 363.082 271.82C363.809 271.614 364.279 272.96 364.381 273.448Z" fill="#37251F"/>
<path fill-rule="evenodd" clip-rule="evenodd" d="M393.296 150.8C394.341 154.439 428.226 147.28 420.984 142.116C420.221 141.415 416.83 141.871 417.6 140.478C419.903 132.954 402.699 137.753 399.425 138.692C399.575 141.848 394.031 143.918 394.952 145.112C402.041 143.485 409.5 141.76 416.555 140.362C408.448 144.265 398.207 144.523 389.377 147.082C387.053 149.149 388.614 155.062 386.48 157.699C384.613 161.994 380.516 164.923 376.263 165.691C375.538 165.778 374.961 166.422 374.195 166.293C373.522 166.448 373.269 166.043 374.101 165.915C378.777 164.318 383.906 161.413 385.898 156.249C387.409 153.4 385.63 148.35 388.614 146.871C391.645 143.913 395.759 142.911 398.133 138.994C399.618 132.025 383.581 140.281 379.97 139.214C372.21 138.444 372.476 152.991 368.918 158.704C356.718 170.005 343.317 180.67 330.404 191.263C325.921 195.112 319.446 196.966 317.476 203.33C313.956 211.846 314.94 221.936 316.444 230.705C312.368 220.826 312.605 207.44 318.862 198.417C311.505 185.53 305.397 171.684 298.049 158.724C292.311 147.283 285.163 135.303 272.848 132.066C267.072 130.411 261.372 128.564 255.826 126.306C255.721 126.428 255.623 126.554 255.513 126.675C240.307 143.371 214.043 133.506 200.911 119.086C200.666 118.817 200.439 118.542 200.223 118.264C194.484 121.554 187.482 123.392 181.893 126.017C173.479 129.108 168.208 137.137 162.551 144.114C145.149 168.718 128.887 195.974 122.465 226.692C118.495 238.939 130.133 240.382 137.757 243.938C147.666 247.738 157.904 250.359 168.42 249.57C180.195 250.64 191.853 249.221 203.434 250.679C208.925 250.711 212.706 255.164 217.208 257.757C219.773 258.707 222.595 258.457 225.15 259.15C226.19 259.96 227.122 259.631 228.249 259.514C233.693 260.802 238.975 257.892 244.325 256.748C246.479 256.029 248.94 254.731 249.293 252.038C249.376 251.703 249.23 251.199 248.805 251.476C245.383 252.908 241.887 253.988 238.28 254.603C236.442 255.336 231.346 254.581 236.498 253.782C240.743 253.454 254.018 250.17 252.796 244.207C250.844 242.814 248.884 247.294 246.531 247.103C243.168 247.86 239.772 248.181 236.427 248.56C235.704 248.836 234.144 249.26 233.785 248.336C239.725 246.355 247.487 247.628 252.287 242.102C254.621 240.289 256.786 237.898 252.169 238.867C247.035 240.009 241.956 241.612 236.612 242.018C235.384 242.286 234.099 241.952 232.91 242.554C232.62 242.701 232.263 242.536 232.203 242.098C232.615 240.749 234.712 241.978 235.606 240.848C239.752 240.017 244.078 240.347 248.069 238.589C257.855 235.52 243.989 235.132 241.032 235.192C236.019 235.294 230.919 236.512 225.996 236.714C223.681 235.438 219.993 233.895 221.454 230.436C221.4 227.536 224.38 226.552 226.472 226.638C228.432 226.275 231.247 224.631 231.203 222.324C229.497 221.272 226.888 222.864 224.884 222.621C219.766 223.355 217.09 229.298 212.969 232.14C208.301 237.396 201.506 232.617 195.872 232.634C185.072 230.73 174.757 226.811 164.102 224.484C162.706 223.675 167.387 225.176 167.022 224.05C163.707 221.992 158.924 222.734 155.834 220.653C145.156 219.306 138.133 222.146 130.81 230.415C133.39 225.118 138.641 220.197 144.258 219.735C147.374 217.524 150.98 219.575 154.339 219.021C154.991 218.885 155.612 219.804 156.114 218.95C157.054 216.947 158.41 215.109 159.233 213.08C162.028 206.466 166.969 201.406 169.978 194.912C173.922 189.398 177.434 183.83 181.737 178.67C185.522 174.111 189.412 168.045 195.278 166.609C193.002 168.277 190.132 170.358 188.161 172.678C187.988 173.776 186.86 173.762 186.512 174.667C182.618 179.56 177.833 184.307 175.07 190.315C178.217 201.858 179.983 213.714 181.842 225.569C182.21 227.281 181.881 226.975 180.609 227.346C180.374 228.905 184.817 228.878 186.005 229.621C193.782 231.279 201.67 232.558 209.612 233.458C214.636 231.007 217.493 224.024 222.989 222.301C225.148 222.401 233.074 218.333 232.315 222.889C231.25 228.536 225.4 226.369 223.031 229.36C219.603 237.825 232.333 235.146 236.523 234.26C241.938 233.305 249.468 232.734 253.543 237.334C253.843 237.728 254.405 237.607 254.81 237.592C256.099 237.388 256.711 239.534 255.737 240.243C254.887 241.206 252.824 242.338 253.938 243.782C255.884 246.361 252.672 248.715 250.834 249.988C250.517 250.275 250.335 250.601 250.224 250.953C256.95 253.499 264.391 251.113 270.844 247.536C271.007 244.579 271.148 241.999 270.987 241.137C271.564 222.849 271.562 204.395 272.295 186.187C282.336 209.492 294.636 233.638 317.08 244.668C321.005 246.896 329.807 235.803 333.324 233.116C347.881 217.689 360.111 199.869 374.503 184.234C382.342 172.756 389.068 173.912 400.072 169.163C399.8 168.705 399.46 169 399.182 169.111C397.458 169.646 395.578 170.417 393.89 170.71C398.349 168.618 403.48 167.028 407.948 164.49C409.722 163.1 417.981 159.768 415.796 156.92C411.485 157.042 407.411 159.296 402.99 159.421C400.857 159.702 398.747 160.16 396.578 159.982C395.566 159.897 395.405 160.077 395.195 161.208C394.772 162.734 394.511 164.692 393.742 165.926C393.49 163.162 394.338 160.055 393.948 157.197C393.841 155.965 390.617 145.149 393.296 150.8Z" fill="#AD603F"/>
<path fill-rule="evenodd" clip-rule="evenodd" d="M180.396 227.595C184.673 229.509 189.255 230.057 193.689 230.75C199.106 231.848 204.772 232.975 210.276 233.278C214.944 229.003 218.901 222.547 225.199 221.503C229.555 220.23 235.563 219.074 230.973 226.002C229.099 228.158 223.245 227.351 223.079 230.006C222.961 230.864 222.562 231.67 222.37 232.522C222.905 233.898 224.935 234.766 226.215 235.199C233.829 235.387 241.357 231.843 248.891 234.334C250.735 234.969 253.179 235.217 253.764 237.51C255.453 237.024 257.206 238.165 256.198 240.218C255.395 240.632 254.899 241.385 254.27 242.045C252.372 244.475 258.613 244.798 250.695 250.331C250.328 250.589 250.151 250.833 250.277 251.414C250.804 253.852 249.108 256.094 247.412 256.994C242.707 258.898 238.016 261.432 232.873 261.13C231.774 261.002 230.57 262.081 229.534 261.225C229.466 261.168 229.325 261.111 229.274 261.149C228.375 261.801 227.697 260.966 226.912 260.786C223.457 260.738 220.107 260.261 216.788 259.3C214.059 257.601 211.269 255.839 208.824 253.691C191.744 248.73 173.556 253.025 156.155 249.161C166.302 249.218 176.109 249.836 186.113 250.004C189.41 249.358 192.705 249.948 195.959 249.628C196.221 249.556 196.565 249.463 196.767 249.587C198.076 250.387 199.495 249.849 200.849 250.057C211.042 249.933 213.053 257.78 221.508 258.307C222.975 258.748 224.689 258.571 226.029 259.341C226.41 259.779 226.753 259.713 227.195 259.436C228.953 258.709 230.893 260.35 232.667 259.59C237.7 257.584 247.797 258.373 249.166 251.562C248.403 251.703 247.899 252.558 247.022 252.234C246.92 252.2 246.752 252.339 246.635 252.431C246.508 252.528 246.407 252.768 246.295 252.768C244.782 252.763 243.571 254.312 241.955 253.782C239.672 254.485 235.948 255.902 233.846 254.546C235.237 253.201 237.466 253.805 239.184 253.073C240.037 252.715 240.603 252.634 241.493 252.915C244.9 250.95 249.249 250.634 251.793 247.065C252.211 246.301 253.714 245.325 252.821 244.44C251.154 242.863 248.694 247.792 246.111 247.401C243.345 247.521 234.917 250.302 233.281 248.272C240.418 246.11 250.654 247.077 254.799 238.82C251.433 238.671 248.613 240.314 245.351 240.883C244.271 241.014 243.567 242.092 242.371 241.455C239.044 241.676 235.414 242.637 232.141 242.655C231.131 241.247 233.455 241.209 234.25 241.243C236.917 239.703 240.173 240.566 242.927 239.785C243.506 239.287 244.065 239.589 244.689 239.663C246.774 238.564 249.774 238.21 251.592 236.542C245.118 234.405 238.255 235.63 231.75 236.179C231.595 236.192 231.374 236.117 231.291 236.205C230.094 237.307 228.561 236.105 227.215 236.894C225.143 237.383 223.417 235.159 221.765 234.053C220.351 233.141 220.967 231.975 221.281 230.583C220.886 228.495 222.789 226.893 224.532 226.63C227.2 226.793 230.091 225.546 231.148 222.646C221.594 220.69 218.795 227.809 211.932 233.388C207.396 236.766 197.572 232.582 192.104 232.026C185.573 230.452 178.686 229.353 172.437 226.743C169.658 225.085 165.692 225.736 163.077 224.184C166.324 223.685 169.967 224.701 173.118 225.727C175.554 226.122 177.871 227.005 180.315 227.294C180.416 227.37 180.647 227.405 180.396 227.595Z" fill="#37251F"/>
<path fill-rule="evenodd" clip-rule="evenodd" d="M419.791 147.694C419.263 148.978 419.278 148.698 420.364 149.378C419.631 149.821 418.872 149.321 418.19 149.234C422.557 150.314 419.182 153 417.088 154.484C410.673 157.284 403.754 158.693 396.859 159.599C395.506 159.966 395.316 159.767 395.256 158.262C395.367 156.555 393.123 153.558 394.855 152.564C403.417 152.355 411.803 150.629 419.791 147.694Z" fill="#F2B693"/>
<path fill-rule="evenodd" clip-rule="evenodd" d="M419.793 147.694C412.235 151.875 403.668 151.773 395.501 152.898C393.345 153.033 395.692 157.276 395.38 158.864C395.414 159.407 395.514 159.734 396.076 159.536C400.832 158.542 405.959 158.056 410.421 156.553C413.692 155.101 417.942 155.052 419.95 151.39C421.22 149.707 417.969 150.039 417.452 149.021C418.383 148.718 419.404 149.293 420.365 149.378C421.631 150.553 421.751 151.654 420.706 152.859L420.699 152.866C420.627 153.096 420.538 153.366 420.369 153.537L420.376 153.527C420.321 153.608 420.253 153.675 420.189 153.748L420.193 153.741C419.091 155.271 417.288 155.694 416.035 156.97C409.542 158.048 403.03 160.512 396.321 160.182C394.365 160.434 395.373 165.533 393.666 166.537C392.778 163.736 394.59 160.317 393.69 157.291C393.644 154.346 391.248 151.068 392.279 148.251C393.807 152.311 394.937 152.008 398.558 151.27C406.453 150.383 414.878 149.225 421.753 144.674C421.782 146.016 420.858 146.848 419.956 147.502C419.902 147.566 419.847 147.63 419.793 147.694Z" fill="#392720"/>
<path fill-rule="evenodd" clip-rule="evenodd" d="M394.98 144.896C402.223 143.312 409.813 141.224 417.113 140.064C415.461 142.634 411.771 142.006 409.236 143.065C402.565 144.221 396.013 146.153 389.347 147.329C388.17 148.245 388.495 150.388 388.308 151.757C387.223 153.328 388.328 155.698 387.112 156.995C386.425 158.083 386.297 159.495 385.056 160.146C384.399 161.291 383.777 162.347 382.579 162.879C379.634 164.692 376.241 167.034 372.794 166.28C380.59 163.803 387.568 158.304 386.81 148.432C386.817 147.617 387.369 147.276 387.922 146.923C391.342 144.183 395.276 142.612 398.135 138.995C398.566 138.894 398.996 138.793 399.427 138.692C399.833 140.869 396.608 143.521 394.955 144.455C394.836 144.611 394.718 144.766 394.98 144.896Z" fill="#37251F"/>
<path fill-rule="evenodd" clip-rule="evenodd" d="M319.779 198.759C319.184 201.206 317.171 203.141 317.033 205.62C315.135 208.678 316.115 212.711 315.266 216.175C314.542 221.257 316.685 226.346 316.603 231.194C315.944 230.978 315.83 230.467 315.741 229.797C314.305 225.213 313.465 220.665 313.588 215.817C313.55 215.514 313.382 215.136 313.489 214.922C314.334 213.293 313.493 211.542 313.978 209.903C314.609 205.662 316.215 201.669 318.864 198.417C319.169 198.531 319.474 198.645 319.779 198.759Z" fill="#37251E"/>
<path fill-rule="evenodd" clip-rule="evenodd" d="M416.033 156.97C416.53 156.45 416.985 156.768 417.339 157.136C418.687 160.71 412.636 163.196 410.443 164.756C410.34 164.769 410.271 164.849 410.194 164.914L410.203 164.906C407.403 166.316 404.46 167.785 401.441 168.584C399.756 169.457 397.758 169.479 395.997 170.279C395.08 170.487 394.218 171.45 393.291 170.842C399.872 167.303 407.791 165.91 413.619 160.511C414.429 159.461 416.982 158.969 415.898 157.218C415.876 157.172 415.985 157.054 416.033 156.97Z" fill="#392620"/>
<path fill-rule="evenodd" clip-rule="evenodd" d="M389.669 137.389C386.158 138.634 382.277 139.494 378.592 139.598C377.514 139.417 376.879 140.092 376.113 140.634C375.677 140.945 375.503 141.761 374.769 141.523C376.687 136.078 384.821 138.54 389.128 137.199C389.376 137.031 389.602 136.934 389.669 137.389Z" fill="#3C2B24"/>
<path fill-rule="evenodd" clip-rule="evenodd" d="M410.526 164.708C411.837 163.28 420.757 158.269 416.047 156.963C416.001 156.889 415.954 156.816 415.907 156.742C417.027 155.422 418.778 154.857 420.194 153.741C419.958 155.594 417.295 155.364 417.81 157.49C418.206 161.317 413.221 163.614 410.526 164.708Z" fill="#AD603F"/>
<path fill-rule="evenodd" clip-rule="evenodd" d="M389.671 137.389C389.49 137.326 389.31 137.263 389.129 137.201C390.886 136.756 392.668 136.506 394.457 136.278C392.898 136.964 391.279 136.887 389.671 137.389Z" fill="#635149"/>
<path fill-rule="evenodd" clip-rule="evenodd" d="M400.527 169.034C400.812 168.903 401.097 168.773 401.382 168.643C401.097 168.773 400.812 168.903 400.527 169.034Z" fill="#AD603F"/>
<path fill-rule="evenodd" clip-rule="evenodd" d="M419.954 147.502L420.368 147.144L419.954 147.502Z" fill="#F2B693"/>
<path fill-rule="evenodd" clip-rule="evenodd" d="M401.438 168.584C401.604 168.547 401.771 168.509 401.937 168.473C401.771 168.509 401.604 168.547 401.438 168.584Z" fill="#AD603F"/>
<path fill-rule="evenodd" clip-rule="evenodd" d="M420.707 152.859C420.78 152.793 420.853 152.727 420.927 152.662C420.853 152.727 420.78 152.793 420.707 152.859Z" fill="#AD603F"/>
<path fill-rule="evenodd" clip-rule="evenodd" d="M420.566 153.173L420.699 152.866L420.566 153.173Z" fill="#AD603F"/>
<path fill-rule="evenodd" clip-rule="evenodd" d="M420.366 153.537C420.424 153.433 420.483 153.331 420.542 153.229C420.483 153.331 420.424 153.433 420.366 153.537Z" fill="#AD603F"/>
<path fill-rule="evenodd" clip-rule="evenodd" d="M409.979 165.095L410.206 164.906L409.979 165.095Z" fill="#AD603F"/>
<path fill-rule="evenodd" clip-rule="evenodd" d="M420.189 153.747C420.252 153.674 420.314 153.602 420.376 153.529C420.314 153.602 420.252 153.674 420.189 153.747Z" fill="#AD603F"/>
<path fill-rule="evenodd" clip-rule="evenodd" d="M410.197 164.914L410.446 164.756L410.197 164.914Z" fill="#AD603F"/>
<path fill-rule="evenodd" clip-rule="evenodd" d="M175.093 190.138C168.104 199.884 161.983 210.341 155.77 220.66C154.73 220.627 153.97 221.419 152.849 220.704C152.184 220.343 151.21 220.665 150.374 220.698C147.478 221.076 144.194 220.184 141.731 222.176C138.417 223.918 135.139 225.749 132.646 228.79C131.975 229.578 131.65 230.956 130.444 230.622C132.899 225.397 138.63 219.827 144.078 219.631C146.961 217.294 150.416 219.108 153.54 219.033C154.21 218.608 154.836 218.579 155.449 219.171C157.336 217.16 158.689 213.788 159.913 211.102C161.232 208.651 163.233 206.671 164.063 204.007C165.034 203.391 165.49 202.408 165.775 201.271C167.377 199.742 168.177 197.371 169.416 195.436C171.84 191.891 174.488 188.541 176.552 184.759C179.636 181.675 181.867 177.744 184.869 174.446C185.346 173.644 186.384 173.219 186.702 172.12C186.805 171.835 187.526 171.746 187.7 171.521C188.664 169.791 194.179 165.663 195.799 166.6C194.814 167.71 193.285 168.076 192.165 169.02C190.896 170.103 189.999 171.828 188.484 172.418C188.408 172.423 188.271 172.602 188.28 172.687C188.363 173.519 187.971 173.849 187.284 174.026C183.066 178.925 178.59 184.261 175.093 190.138Z" fill="#392720"/>
<path fill-rule="evenodd" clip-rule="evenodd" d="M167.026 224.113L171.749 225.318C170.175 225.667 168.443 224.559 166.823 224.325C166.891 224.255 166.958 224.184 167.026 224.113Z" fill="#F2B693"/>
<path fill-rule="evenodd" clip-rule="evenodd" d="M394.978 144.896C394.866 144.914 394.755 144.933 394.643 144.951C394.746 144.785 394.849 144.62 394.953 144.455C394.961 144.602 394.969 144.749 394.978 144.896Z" fill="#CC857D"/>
<path fill-rule="evenodd" clip-rule="evenodd" d="M171.908 225.357C173.735 225.782 175.561 226.207 177.387 226.632C177.499 226.745 177.478 226.863 177.393 226.982C175.6 226.387 173.433 226.569 171.908 225.357Z" fill="#F2B693"/>
<path fill-rule="evenodd" clip-rule="evenodd" d="M177.949 226.797C178.748 226.976 179.715 226.727 180.205 227.61C179.453 227.455 178.701 227.298 177.949 227.143C177.848 227.027 177.836 226.911 177.949 226.797Z" fill="#F2B693"/>
<path fill-rule="evenodd" clip-rule="evenodd" d="M177.953 226.796C177.953 226.911 177.953 227.027 177.953 227.143C177.766 227.09 177.579 227.035 177.393 226.982C177.391 226.865 177.389 226.749 177.386 226.631C177.575 226.686 177.764 226.741 177.953 226.796Z" fill="#AD603F"/>
<path fill-rule="evenodd" clip-rule="evenodd" d="M253.767 237.511C253.704 237.427 253.641 237.343 253.579 237.259C253.641 237.343 253.704 237.427 253.767 237.511Z" fill="#AD603F"/>
<path fill-rule="evenodd" clip-rule="evenodd" d="M393.846 145.524C393.757 145.442 393.7 145.388 393.644 145.335C393.859 145.238 394.058 144.961 394.271 145.192C394.134 145.3 393.996 145.408 393.846 145.524Z" fill="#CC857D"/>
<path fill-rule="evenodd" clip-rule="evenodd" d="M393.366 145.533L393.385 145.586L393.332 145.577L393.366 145.533Z" fill="#CC857D"/>
<path fill-rule="evenodd" clip-rule="evenodd" d="M172.45 189.732C163.96 181.929 155.526 174.055 147.125 166.136C145.913 165.201 144.224 164.217 145.471 162.412C157.899 140.254 169.754 127 193.246 120.635C198.778 119.818 206.021 108.186 207.568 112.94C210.417 130.161 236.873 142.055 239.88 118.983C240.374 116.485 242.625 118.295 243.843 119.043C251.987 123.971 260.653 128.019 269.809 129.925C272.092 142.667 271.72 155.792 272.143 168.79C272.483 186.064 273.289 203.344 273.058 220.662C271.214 229.581 278.081 243.903 273.879 247.872C254.324 268.337 246.351 275.695 218.137 270.883C206.947 268.452 194.887 267.506 184.758 261.404C182.287 259.477 182.77 255.616 182.462 252.679C182.524 249.61 189.635 251.695 191.727 251.111C209.634 250.265 206.379 255.532 220.927 260.404C229.317 262.02 245.324 262.505 248.982 252.183C249.602 250.523 251.347 249.425 252.522 248.202C255.393 244.797 250.929 244.48 255.125 239.904C255.589 238.675 255.019 237.725 253.819 237.771C251.307 237.749 252.156 233.838 248.312 234.031C239.921 232.285 231.481 238.006 223.323 234.648C221.384 233.934 221.744 231.658 222.407 229.974C223.561 226.621 227.493 228.501 229.768 226.682C231.558 225.99 232.917 221.012 230.565 220.528C226.882 221.457 222.87 221.488 219.449 223.304C216.044 226.903 212.709 232.266 208.033 233.497C203.433 232.868 180.581 231.42 180.025 226.87C178.096 215.221 175.277 203.683 173.506 191.986C175.649 193.041 176.824 190.428 178.16 188.893C181.242 185.835 184.28 181.97 186.217 177.856C187.41 176.007 188.464 174.305 189.085 172.124C189.98 169.857 191.495 167.894 191.609 165.324C191.761 163.883 192.933 162.875 192.668 161.335C192.586 160.643 192.777 159.944 193.172 159.387C193.597 158.788 193.753 158.204 193.469 157.476C194.65 148.264 192.494 137.329 186.565 130.314C184.841 129.008 183.299 126.304 181.125 126.293C182.068 127.377 183.871 128.085 184.687 129.484C196.625 144.175 192.685 167.15 181.945 181.305C180.763 183.075 179.748 185.183 178.462 186.84C177.441 187.416 176.815 188.404 176.197 189.405C175.099 191.432 173.893 190.347 172.45 189.732Z" fill="#CEE5D0"/>
<path fill-rule="evenodd" clip-rule="evenodd" d="M271.12 130.228C285.974 133.114 295.899 147.293 302.316 161.234C302.827 162.584 301.934 162.864 301.072 163.534C292.941 172.415 283.078 179.247 273.67 186.285C272.813 167.661 274.504 148.445 271.12 130.228Z" fill="#CEE5D0"/>
<path fill-rule="evenodd" clip-rule="evenodd" d="M172.449 189.732C173.065 188.41 174.332 192.188 175.961 189.31C176.527 187.828 177.841 187.097 178.839 186.096C178.975 184.674 180.256 184.151 180.73 183.013C186.878 174.072 191.669 163.21 191.896 151.844C191.598 142.221 188.405 131.437 180.437 126.229C183.029 124.764 190.052 133.452 190.446 136.251C192.402 139.921 193.559 144.149 193.61 148.4C194.558 150.729 194.418 153.923 193.722 156.257C193.298 157.111 194.382 158.36 193.633 159.159C193.028 159.971 192.767 160.826 192.954 161.906C192.222 164.485 191.652 167.271 190.395 169.688C189.188 171.44 188.992 174.213 187.867 175.97C185.777 179.027 184.236 182.332 181.692 185.092C180.855 186.112 180.372 187.676 179.263 188.321C178.572 188.589 178.086 189.048 177.873 189.858C176.831 191.259 175.212 193.714 173.505 191.986C173.389 191.101 173.18 190.268 172.449 189.732Z" fill="#0A6A6A"/>
<path fill-rule="evenodd" clip-rule="evenodd" d="M271.118 130.228C271.583 132.799 272.465 135.273 272.407 137.924C272.413 138.799 273.088 139.396 272.698 140.343C272.608 140.678 272.873 141.113 272.925 141.512C273.249 146.217 273.79 150.686 273.434 155.396C273.799 165.714 273.784 175.916 273.669 186.285C273.511 186.271 273.437 186.366 273.478 186.533C273.14 186.791 272.802 187.05 272.463 187.308C271.566 168.084 272.17 148.876 269.809 129.926C270.245 130.026 270.682 130.127 271.118 130.228Z" fill="#0A6A6A"/>
<path fill-rule="evenodd" clip-rule="evenodd" d="M273.477 186.534L273.651 186.283L273.477 186.534Z" fill="#CEE5D0"/>
<path fill-rule="evenodd" clip-rule="evenodd" d="M399.758 134.326C399.664 135.829 398.303 135.653 397.882 134.614C397.88 133.635 399.431 133.056 399.758 134.326Z" fill="#ECDDCA"/>
<path fill-rule="evenodd" clip-rule="evenodd" d="M404.899 131.797C405.667 132.398 405.444 134.458 404.504 134.228C403.37 133.76 403.485 131.791 404.899 131.797Z" fill="#ECDDCA"/>
<path fill-rule="evenodd" clip-rule="evenodd" d="M235.625 39.8509C236.521 39.2347 240.265 35.6034 238.644 34.9917C237.022 34.3794 227.946 19.8328 206.122 32.1455C187.62 42.584 193.859 74.7767 195.674 77.6041C197.489 80.4307 198.759 91.3256 218.696 82.6933C238.633 74.061 237.256 75.1651 237.256 75.1651L235.625 39.8509Z" fill="#AD603F"/>
<path fill-rule="evenodd" clip-rule="evenodd" d="M248.165 83.7351C244.943 115.454 225.202 117.035 205.221 98.5282C202.377 86.5874 198.328 91.4744 192.902 84.0435C191.086 81.9831 190.113 79.4778 189.772 77.0508C188.66 69.1184 194.301 62.0111 199.347 73.9074C199.668 75.3675 200.459 76.0779 201.846 75.961C212.118 77.222 193.54 33.9513 222.321 27.847C231.324 25.9367 241.168 31.9007 244.564 38.0691C252.228 51.9919 250.511 71.2633 249.401 76.7944" fill="#AD603F"/>
<path fill-rule="evenodd" clip-rule="evenodd" d="M205.219 98.5284C209.01 101.987 213.178 104.756 217.71 106.68C217.885 107.066 217.684 107.263 217.396 107.414C213.095 105.48 206.656 104.044 205.219 98.5284Z" fill="#5C4941"/>
<path fill-rule="evenodd" clip-rule="evenodd" d="M222.627 108.915C226.236 109.771 229.8 110.16 233.441 110.598C229.59 112.832 225.606 110.81 221.861 109.349C222.013 108.988 222.42 109.163 222.627 108.915Z" fill="#5C4941"/>
<path fill-rule="evenodd" clip-rule="evenodd" d="M222.626 108.915C222.37 109.059 222.115 109.204 221.859 109.349C220.362 108.748 218.715 108.445 217.393 107.414C217.498 107.17 217.602 106.924 217.707 106.68C219.416 107.26 221.111 107.848 222.626 108.915Z" fill="#473128"/>
<path fill-rule="evenodd" clip-rule="evenodd" d="M220.074 108.603C220.591 108.481 220.967 108.688 221.216 109.189C220.835 108.994 220.455 108.799 220.074 108.603Z" fill="#5C4941"/>
<path fill-rule="evenodd" clip-rule="evenodd" d="M243.228 43.6924C243.361 43.8025 243.495 43.9134 243.629 44.0227C243.495 43.9134 243.361 43.8025 243.228 43.6924Z" fill="#E46B33"/>
<path fill-rule="evenodd" clip-rule="evenodd" d="M229.326 37.5125C227.236 37.784 225.12 37.9167 223.063 38.3715C221.43 38.732 219.858 39.4522 218.285 40.088C217.852 40.263 217.479 40.6702 217.13 41.03C213.829 44.4305 211.474 48.4918 210.056 53.1993C209.969 53.4889 209.841 53.7642 209.732 54.0463C209.607 54.0613 209.502 54.0123 209.445 53.8954C208.49 51.915 207.556 49.9254 207.173 47.6961C207.056 47.0219 206.949 46.3446 206.75 45.6923C206.221 43.9569 206.232 42.1378 206.014 40.3527C205.768 38.3323 206.069 36.3103 205.861 34.2982C205.799 33.7062 205.832 33.0885 205.966 32.5327C206.262 31.3109 206.052 30.0258 206.357 28.8425C206.738 27.3605 207.01 25.81 207.846 24.506C207.978 24.3009 208.1 24.0837 208.334 24.0014C209.632 23.5452 210.734 22.7299 211.752 21.7661C212.056 21.4787 212.383 21.5398 212.723 21.622C213.971 21.9199 215.201 22.3121 216.483 22.4169C216.72 22.4373 216.928 22.5625 217.081 22.754C217.7 23.5256 218.549 23.9321 219.333 24.4359C219.704 24.6749 220.087 24.8748 220.357 25.2594C220.443 25.3831 220.554 25.5452 220.682 25.5498C221.754 25.5875 222.245 26.7368 223.162 27.0732C223.487 27.1924 223.726 27.4918 223.941 27.7874C224.875 29.0748 225.751 30.4134 226.823 31.5719C227.297 32.0824 227.342 32.8064 227.647 33.4037C228.175 34.4339 229.01 35.2643 229.298 36.4491C229.384 36.8058 229.575 37.149 229.326 37.5125Z" fill="#5C4B45"/>
<path fill-rule="evenodd" clip-rule="evenodd" d="M208.056 72.4145C208.055 74.3686 207.995 74.9923 206.008 75.1047C204.987 75.162 203.976 75.4154 202.956 75.521C201.85 75.6349 201.676 75.5021 201.308 74.3844C201.018 73.5066 200.81 72.5955 200.495 71.7297C200.169 70.8368 199.839 69.9258 199.37 69.1211C197.858 66.529 194.787 65.7869 192.745 67.9235C192.071 68.6294 191.057 70.6057 190.97 70.6592C190.955 70.6012 190.773 68.6422 190.631 67.6587C189.73 61.4232 188.767 55.1982 187.833 48.9688C187.787 48.6656 187.82 48.3503 187.816 48.0404C188.762 48.0924 189.606 48.5163 190.447 48.9295C191.747 49.5676 193.068 50.1151 194.503 50.2403C194.854 50.2712 195.154 50.3987 195.465 50.5774C196.367 51.094 197.223 51.7381 198.275 51.8844C198.56 51.9244 198.801 52.1167 199.03 52.306C199.259 52.4953 199.505 52.72 199.784 52.7223C201.515 52.7411 202.898 53.8498 204.438 54.4569C204.926 54.65 205.467 54.6402 205.918 54.8114C207.035 55.2344 208.299 55.4109 209.106 56.5377C207.898 61.7626 208.061 67.0953 208.056 72.4145Z" fill="#5C4B45"/>
<path fill-rule="evenodd" clip-rule="evenodd" d="M209.104 56.5377C208.238 56.0618 207.371 55.5851 206.501 55.113C206.403 55.0595 206.285 54.9818 206.188 54.9984C204.659 55.2639 203.508 54.1839 202.199 53.671C201.886 53.5489 201.595 53.3166 201.275 53.2593C200.268 53.0828 199.356 52.7351 198.413 52.2547C197.562 51.8226 196.617 51.5088 195.754 51.0375C194.396 50.2984 192.865 50.2644 191.456 49.7433C191.349 49.7033 191.231 49.6988 191.128 49.649C190.022 49.1158 188.919 48.5774 187.815 48.0404C187.733 47.6701 187.65 47.3005 187.567 46.931C188.048 46.2462 188.646 46.5094 189.194 46.7477C189.64 46.94 190.09 47.1429 190.51 47.4069C190.359 46.9099 189.958 46.5705 189.79 46.0961C189.285 44.676 188.944 43.1978 188.572 41.7325C188.412 41.099 188.806 40.479 188.884 39.8312C189.075 38.2301 189.501 36.6674 189.995 35.1576C190.51 33.5821 191.359 32.1695 192.189 30.7449C192.749 29.7818 193.605 29.1498 194.109 28.1807L194.147 28.2071L194.109 28.1837C194.21 28.1709 194.266 28.1038 194.289 27.9982L194.285 28.002C194.535 27.7169 194.96 27.6437 195.092 27.2139L195.115 27.1958C195.262 27.2583 195.294 27.1784 195.277 27.0389L195.284 27.0306C195.47 27.0464 195.409 26.7945 195.541 26.7508C195.628 26.6671 195.716 26.5819 195.803 26.4981C195.909 26.4883 195.978 26.4295 196.005 26.3164L196 26.3217C196.099 26.2975 196.149 26.2191 196.186 26.1256C196.81 25.5366 197.446 24.9619 198.05 24.3487C198.263 24.1331 198.395 23.8238 198.564 23.5576C198.652 22.5712 198.345 21.6812 198.104 20.7483C197.793 19.5416 197.451 18.3342 197.433 17.0272C197.416 15.8107 197.354 14.6312 197.671 13.4358C198.516 10.2487 199.523 7.22446 201.935 4.91669C202.922 3.97246 203.906 3.01843 205.011 2.29895C206.019 1.64206 207.11 0.892412 208.426 1.21595C208.587 1.29891 208.749 1.38112 208.91 1.46332C208.997 2.29367 208.43 2.71978 207.893 2.82612C206.233 3.15569 205.071 4.35407 203.766 5.33902C201.972 6.69578 201.107 8.74337 200.119 10.7382C198.654 13.696 198.784 16.7791 199.401 19.8953C199.647 21.1352 200.103 22.3283 200.672 23.4505C200.725 23.5546 200.797 23.7371 200.889 23.6866C200.999 23.627 200.853 23.4935 200.837 23.3872C200.563 21.5636 200.13 19.7415 200.766 17.9028C200.917 17.4654 200.877 16.9971 201.01 16.5408C201.313 15.4985 202.025 14.7843 202.528 13.9132C203.356 12.4811 204.718 11.7684 205.687 10.5896C206.656 9.41232 207.98 9.13856 209.122 8.42586C210.295 7.6928 211.492 7.89341 212.663 7.62644C213.195 7.50426 213.746 7.61814 214.205 8.0088C214.371 8.44622 214.538 8.8844 214.705 9.32257C213.525 9.89575 212.275 10.2065 211 10.2962C209.864 10.3754 208.947 10.9259 208.053 11.5957C207.984 11.6484 207.936 11.7661 207.864 11.7782C206.554 12.012 205.968 13.325 204.995 14.0565C204.758 14.2338 204.484 14.4042 204.395 14.7044C204.111 15.675 203.451 16.4035 203.043 17.2942C202.47 18.5439 202.161 19.8245 202.348 21.2415C202.432 21.8818 202.41 22.5433 202.35 23.1979C202.258 24.2002 202.683 24.6029 203.558 24.3593C203.863 24.2748 204.171 24.1851 204.481 24.167C206.801 24.0305 208.65 22.7265 210.296 21.145C211.359 20.1239 212.524 19.1057 213.079 17.5695C213.177 17.3002 213.394 17.1305 213.618 16.988C213.855 16.8372 214.015 16.632 214.032 16.3236C214.056 15.8997 214.225 15.5407 214.46 15.2225C214.787 14.7805 214.798 14.2564 214.874 13.7315C214.934 13.3137 214.785 12.6515 215.516 12.6968C215.493 13.9344 215.469 15.1712 215.446 16.4088C214.992 17.6653 214.994 17.6343 216.322 17.6962C217.314 17.7437 218.325 17.7565 219.237 18.301C219.312 18.3448 219.396 18.3787 219.48 18.387C221.308 18.562 222.973 19.4828 224.779 19.7619C225.319 19.8463 225.82 20.0907 226.328 20.2958C229.005 21.3803 231.61 22.6383 233.941 24.4558C235.82 25.9204 237.682 27.4748 239.111 29.4507C240.336 31.1454 241.561 32.8996 242.347 34.9208C242.756 35.9706 243.304 37.04 243.519 38.0747C243.873 39.7784 244.497 41.4459 244.526 43.2295C244.53 43.4678 244.566 43.7582 244.214 43.7612C243.575 42.832 242.937 41.9044 242.297 40.9753C241.802 38.9873 240.951 37.1614 240.166 35.3009C239.705 34.2066 239.196 33.1062 238.599 32.1431C237.758 30.7886 236.686 29.5865 235.577 28.4198C233.814 26.566 231.623 25.5072 229.663 24.035C228.753 23.3517 227.683 22.9347 226.612 22.5983C226.113 22.4414 225.627 22.2883 225.216 21.9241C225.037 21.7672 224.826 21.6518 224.599 21.6073C222.41 21.1699 220.376 20.1163 218.184 19.6925C217.313 19.5243 216.442 19.3727 215.591 19.0816C214.907 18.847 213.928 19.4662 213.63 20.1955C213.532 20.4346 213.672 20.4881 213.817 20.4776C214.466 20.424 215.025 20.8449 215.657 20.8728C215.742 20.8773 215.844 20.8607 215.91 20.9074C217.279 21.8939 219.212 21.4768 220.351 23.0327C221.516 23.1277 222.052 24.3895 223.089 24.7764C223.76 25.0267 224.051 25.8971 224.629 26.3594C224.788 26.4853 224.898 26.6822 225.061 26.8111C226.975 28.321 228.213 30.3935 229.294 32.6409C229.89 33.8823 230.503 35.1063 230.973 36.4118C231.107 36.7866 231.31 37.1569 231.016 37.5498C230.453 37.5377 229.89 37.5249 229.327 37.5121C228.943 36.5973 228.573 35.6749 228.172 34.7684C227.809 33.9464 227.461 33.1085 227.017 32.3392C226.694 31.7789 226.222 31.3218 225.824 30.8128C225.625 30.5586 225.442 30.2886 225.253 30.0262C225.032 29.72 224.821 29.4055 224.588 29.1114C224.423 28.9017 224.138 28.7531 224.063 28.5186C223.801 27.6965 223.21 27.3835 222.55 27.0148C221.847 26.6233 221.371 25.7681 220.46 25.7583C219.728 24.6534 218.508 24.3254 217.553 23.5787C217.373 23.4385 217.243 23.2265 217.071 23.0742C216.879 22.9037 216.666 22.636 216.461 22.633C215.158 22.6157 213.939 22.1647 212.694 21.8479C212.291 21.7446 212 21.6842 211.682 22.1609C211.381 22.6119 210.897 23.0531 210.418 23.1918C209.68 23.406 209.282 24.4136 208.386 24.1594C208.036 24.7771 207.65 25.3759 207.347 26.02C207.172 26.3941 207.152 26.8518 207.022 27.2568C206.631 28.4673 206.38 29.6792 206.469 30.9938C206.515 31.6771 206.168 32.383 206.145 33.0836C206.095 34.6613 206.134 36.2436 206.14 37.8243C206.15 40.9685 206.551 44.0433 207.267 47.0999C207.62 48.6068 208.074 50.0608 208.558 51.5066C208.854 52.3912 209.335 53.2019 209.733 54.0459C209.523 54.8762 209.314 55.7066 209.104 56.5377Z" fill="#B27964"/>
<path fill-rule="evenodd" clip-rule="evenodd" d="M231.015 37.55C230.817 36.8434 230.69 36.1005 230.404 35.4391C230.034 34.5801 229.522 33.795 229.098 32.9632C228.732 32.2459 228.452 31.4706 228.042 30.7866C227.68 30.1833 227.182 29.6802 226.765 29.1146C226.401 28.6236 226.137 28.0143 225.704 27.6213C224.869 26.8604 223.945 26.2171 223.342 25.1876C223.298 25.1129 223.215 25.0134 223.149 25.0126C222.347 25.0111 221.911 24.4463 221.53 23.7894C221.514 23.7637 221.489 23.7298 221.466 23.729C220.195 23.6491 219.551 22.2335 218.357 21.9937C218.136 21.9492 217.912 21.9039 217.689 21.8911C217.188 21.8632 216.656 21.9733 216.358 21.3285C216.299 21.201 216.073 21.1279 215.914 21.1007C215.113 20.9673 214.308 20.8624 213.506 20.7335C213.356 20.7086 213.213 20.6181 213.067 20.5577C213.137 20.428 213.193 20.2855 213.281 20.1716C213.636 19.7108 213.941 19.1565 214.384 18.8375C214.681 18.624 215.201 18.6497 215.588 18.7387C216.923 19.0434 218.251 19.3971 219.569 19.7809C221.299 20.2847 223.097 20.6407 224.719 21.4213C226.293 22.1777 227.971 22.6702 229.472 23.5699C231.009 24.4915 232.47 25.5722 233.924 26.6477C235.346 27.6983 236.655 28.8959 237.613 30.494C237.921 31.0091 238.622 31.1403 238.761 31.8553C238.809 32.1057 238.958 32.3312 239.043 32.5755C239.103 32.746 239.087 32.9662 239.181 33.1004C240.345 34.7634 241.095 36.6481 241.708 38.6119C241.825 38.9883 241.979 39.3804 242.21 39.6776C242.552 40.118 242.445 40.5298 242.296 40.9755C242.271 40.9612 242.232 40.9544 242.222 40.9318C241.576 39.6014 240.433 39.2145 239.196 38.8133C236.516 37.943 233.801 37.5093 231.015 37.55Z" fill="#5C4B45"/>
<path fill-rule="evenodd" clip-rule="evenodd" d="M244.211 43.7609C244.178 43.1304 244.167 42.4976 244.105 41.8709C244.039 41.2057 243.775 40.5919 243.602 39.9704C243.292 38.8588 243.084 37.7607 242.645 36.6513C242.19 35.5049 241.806 34.3103 241.204 33.2304C240.713 32.348 240.22 31.4528 239.619 30.6609C238.642 29.3735 237.613 28.1261 236.532 26.9413C235.974 26.3312 235.26 25.89 234.613 25.3779C234.075 24.954 233.552 24.5015 232.986 24.126C232.002 23.4713 231.025 22.7843 229.983 22.2594C228.387 21.4569 226.753 20.7359 225.104 20.07C224.346 19.7638 223.513 19.6763 222.716 19.4802C222.517 19.4305 222.329 19.3287 222.13 19.2766C221.705 19.1658 221.277 19.067 220.849 18.9712C220.325 18.8535 219.741 18.8679 219.286 18.6077C218.125 17.9447 216.898 17.9553 215.654 17.9395C215.341 17.9357 215.03 17.7743 214.719 17.6853C214.851 17.3535 214.968 17.0126 215.124 16.6951C215.184 16.5729 215.334 16.5028 215.443 16.4085C221.07 17.723 226.532 19.5858 231.694 22.3899C234.246 23.776 236.833 25.129 239.24 26.7799C243.549 29.7363 247.106 33.5893 249.666 38.4319C251.065 41.076 251.866 43.957 252.08 47.0219C252.217 48.9851 251.855 50.8622 251.358 52.7227C251.302 52.9286 251.233 53.1722 251.094 53.3012C250.675 53.6881 250.25 54.2545 249.771 54.3299C249.093 54.4355 248.958 53.6285 248.737 53.0538C247.555 49.9738 246.155 47.0189 244.441 44.2473C244.348 44.0965 244.287 43.9238 244.211 43.7609Z" fill="#5C4B45"/>
<path fill-rule="evenodd" clip-rule="evenodd" d="M215.517 12.6969C215.374 13.1321 215.231 13.5665 215.088 14.0016C214.942 14.4488 214.792 14.8953 214.652 15.3456C214.532 15.7294 214.445 16.1284 214.302 16.501C214.212 16.7355 214.08 17.0726 213.905 17.1247C213.37 17.2845 213.188 17.6564 213.113 18.1978C213.086 18.4 212.966 18.6157 212.832 18.7657C212.029 19.6685 211.226 20.5743 210.387 21.437C210.044 21.7892 209.555 21.9755 209.225 22.3375C207.791 23.9168 205.895 24.1106 204.049 24.4718C203.884 24.5043 203.718 24.5525 203.563 24.6227C202.776 24.9816 202.003 24.373 202.032 23.4612C202.061 22.5245 202.007 21.5848 202.017 20.6467C202.035 18.9882 202.509 17.4912 203.4 16.1457C203.615 15.8214 203.896 15.4896 203.966 15.1208C204.073 14.5461 204.351 14.1954 204.781 13.9164C205.286 13.5898 205.776 13.3002 205.943 12.5513C206.004 12.2791 206.575 12.126 206.927 11.9555C207.127 11.8583 207.478 11.9118 207.554 11.7678C208.026 10.8726 208.987 10.859 209.644 10.3145C209.775 10.2051 209.959 10.0965 210.113 10.1063C211.531 10.2044 212.844 9.66663 214.192 9.33932C214.357 9.29935 214.534 9.3265 214.705 9.32197C214.976 10.448 215.246 11.5724 215.517 12.6969Z" fill="#5C4B45"/>
<mask id="mask3" style="mask-type:alpha" maskUnits="userSpaceOnUse" x="193" y="0" width="16" height="24">
<path fill-rule="evenodd" clip-rule="evenodd" d="M193.44 0H208.426V23.5572H193.44V0Z" fill="white"/>
</mask>
<g mask="url(#mask3)">
<path fill-rule="evenodd" clip-rule="evenodd" d="M208.426 1.21629C207.734 1.46894 207.059 1.80983 206.35 1.95463C204.944 2.24197 203.964 3.29706 202.961 4.21338C201.85 5.2285 200.822 6.42236 199.998 7.72029C199.341 8.75502 199.046 10.062 198.591 11.2498C198.515 11.4482 198.448 11.6511 198.38 11.8532C197.847 13.4354 197.6 15.0139 197.648 16.7523C197.681 17.9514 198.094 19.0178 198.137 20.1876C198.168 21.042 198.562 21.8942 198.862 22.7186C199.026 23.1665 198.78 23.3294 198.562 23.5572C195.798 20.7675 194.268 17.2719 193.624 13.2688C193.325 11.4044 193.388 9.55218 193.829 7.72105C194.841 3.5218 197.881 0.778117 202.142 0.142348C204.346 -0.185718 206.453 0.00508809 208.426 1.21629Z" fill="#5C4B45"/>
</g>
<path fill-rule="evenodd" clip-rule="evenodd" d="M214.204 8.00911C213.052 8.01062 211.897 7.9616 210.749 8.04003C210.346 8.06793 209.959 8.4043 209.572 8.61396C209.503 8.65091 209.439 8.82814 209.417 8.81834C208.557 8.44502 208.082 9.43827 207.345 9.51142C207.077 9.53782 206.696 9.61927 206.582 9.81988C205.881 11.0658 204.793 11.7943 203.712 12.5485C203.557 12.6571 203.453 12.866 203.345 13.0432C203.117 13.409 202.972 13.8811 202.671 14.1383C201.834 14.8525 201.334 15.8623 201.139 16.8744C200.839 18.4371 200.354 20.0442 200.84 21.6913C200.897 21.8844 200.861 22.1092 200.898 22.3135C200.966 22.6831 201.068 23.0458 201.133 23.4169C201.18 23.6839 201.19 23.9599 201.217 24.2329C201.002 24.116 200.684 24.061 200.591 23.8732C200.239 23.1688 199.92 22.4357 199.662 21.683C199.371 20.8316 199.097 19.962 198.931 19.0744C198.787 18.3036 198.8 17.4981 198.753 16.707C198.655 15.0237 198.87 13.3607 199.34 11.7785C199.623 10.8222 200.228 9.97826 200.699 9.09135C201.016 8.49329 201.286 7.84395 201.692 7.32734C202.376 6.45702 203.086 5.58368 203.907 4.88004C204.778 4.1319 205.783 3.56551 206.747 2.95388C206.989 2.80078 207.293 2.73668 207.575 2.69746C208.276 2.60092 208.6 2.04736 208.91 1.46288C211.378 2.96821 213.079 5.21188 214.204 8.00911Z" fill="#5C4B45"/>
<mask id="mask4" style="mask-type:alpha" maskUnits="userSpaceOnUse" x="186" y="28" width="9" height="20">
<path fill-rule="evenodd" clip-rule="evenodd" d="M186.409 28.181H194.132V47.4662H186.409V28.181Z" fill="white"/>
</mask>
<g mask="url(#mask4)">
<path fill-rule="evenodd" clip-rule="evenodd" d="M194.101 28.181C194.154 28.6373 194.177 29.0611 193.612 29.1788C193.463 29.2097 193.281 29.3515 193.211 29.4978C192.589 30.8116 191.392 31.7671 191.192 33.3441C191.18 33.4331 191.163 33.5583 191.106 33.599C189.982 34.4188 190.035 35.7605 189.801 36.9913C189.623 37.9272 189.336 38.8383 189.106 39.7629C188.978 40.2772 188.859 40.7953 188.752 41.315C188.722 41.4575 188.721 41.6242 188.759 41.7637C189.144 43.1672 189.516 44.576 189.946 45.9637C190.084 46.4094 190.389 46.7918 190.597 47.2149C190.62 47.2624 190.485 47.4743 190.458 47.466C190.111 47.3649 189.747 47.2843 189.431 47.107C188.819 46.7624 188.216 46.5761 187.559 46.9305C186.159 44.3799 186.166 41.6838 186.867 38.9159C187.578 36.1097 189.104 33.8079 190.802 31.6547C191.795 30.3968 192.994 29.3326 194.101 28.181Z" fill="#5C4B45"/>
</g>
<path fill-rule="evenodd" clip-rule="evenodd" d="M195.093 27.214C195.193 27.9259 194.681 27.8928 194.286 28.0021C194.555 27.7389 194.824 27.4772 195.093 27.214Z" fill="#A2754A"/>
<path fill-rule="evenodd" clip-rule="evenodd" d="M195.542 26.7508C195.456 26.8443 195.371 26.9371 195.285 27.0306C195.371 26.9371 195.456 26.8443 195.542 26.7508Z" fill="#A2754A"/>
<path fill-rule="evenodd" clip-rule="evenodd" d="M196.183 26.1254C196.12 26.191 196.059 26.2567 195.997 26.3215C196.059 26.2567 196.12 26.191 196.183 26.1254Z" fill="#A2754A"/>
<path fill-rule="evenodd" clip-rule="evenodd" d="M196.005 26.3162C195.938 26.3766 195.87 26.4369 195.803 26.498C195.87 26.4369 195.938 26.3766 196.005 26.3162Z" fill="#A2754A"/>
<path fill-rule="evenodd" clip-rule="evenodd" d="M195.277 27.0387C195.224 27.0908 195.169 27.1436 195.115 27.1956C195.169 27.1436 195.224 27.0908 195.277 27.0387Z" fill="#A2754A"/>
<path fill-rule="evenodd" clip-rule="evenodd" d="M194.29 27.9984C194.23 28.0602 194.17 28.122 194.11 28.1839C194.17 28.122 194.23 28.0602 194.29 27.9984Z" fill="#A2754A"/>
<path fill-rule="evenodd" clip-rule="evenodd" d="M190.967 43.9922C190.861 43.551 190.692 43.1136 190.667 42.6671C190.636 42.1098 190.712 41.5441 190.763 40.9838C190.844 40.081 190.927 39.1791 191.038 38.2816C191.074 37.9882 191.197 37.7077 191.288 37.4241C191.371 37.1624 191.555 36.8969 191.537 36.6473C191.461 35.6261 191.785 34.8018 192.315 33.9753C192.614 33.5084 192.597 32.8138 192.815 32.2655C192.94 31.9533 193.25 31.7286 193.482 31.4699C193.599 31.3387 193.798 31.2406 193.835 31.0913C194.008 30.3846 194.428 29.9849 194.968 29.5618C195.641 29.0347 196.158 28.2654 196.73 27.5889C197.507 26.6688 198.281 25.7404 199.406 25.3211C199.674 25.2208 199.987 25.1831 200.268 25.2215C200.658 25.2766 201.043 25.4101 201.421 25.5443C202.269 25.846 202.201 25.8136 201.761 26.6228C201.022 27.9788 200.149 29.3235 199.757 30.807C199.402 32.1517 198.758 33.3727 198.5 34.7257C198.225 36.1661 198.043 37.6338 197.912 39.1006C197.753 40.885 197.491 42.701 197.643 44.4651C197.793 46.208 197.555 48.0942 198.576 49.6741C198.672 49.822 198.759 50.0173 198.755 50.1885C198.753 50.2956 198.561 50.4985 198.474 50.4864C197.773 50.3906 197.072 50.279 196.382 50.1214C195.998 50.0339 195.617 49.8861 195.264 49.7005C194.592 49.3498 193.971 48.8619 193.276 48.5957C192.28 48.2126 191.913 47.2404 191.45 46.4093C191.07 45.723 190.961 44.8565 190.732 44.0706C190.81 44.0442 190.888 44.0186 190.967 43.9922Z" fill="#5C4B45"/>
<path fill-rule="evenodd" clip-rule="evenodd" d="M208.875 54.8114C208.442 54.5942 208.012 54.3664 207.573 54.1628C206.838 53.8204 206.118 53.4033 205.351 53.1816C204.495 52.9342 203.714 52.2871 202.742 52.5315C202.603 52.5662 202.405 52.3558 202.244 52.2434C202.057 52.1114 201.887 51.8497 201.698 51.8369C200.215 51.7351 199.941 50.505 199.643 49.2878C199.491 48.6694 199.326 48.0555 199.202 47.431C199.103 46.9355 198.968 46.4189 199.008 45.9264C199.09 44.9 199.283 43.8856 199.417 42.863C199.446 42.6526 199.494 42.3795 199.404 42.2265C199.092 41.7023 199.338 41.1337 199.247 40.6419C199.047 39.5725 199.723 38.7437 199.688 37.718C199.649 36.626 199.846 35.5105 200.039 34.4275C200.185 33.6145 200.391 32.7789 200.742 32.0526C201.321 30.8543 201.444 29.45 202.273 28.3625C202.739 27.7508 203.029 26.9816 203.427 26.3028C203.725 25.796 204.115 25.5004 204.725 25.7206C205.189 25.8873 205.619 25.7802 205.964 25.3465C206.031 25.2628 206.216 25.293 206.347 25.2711C206.331 25.4091 206.357 25.5781 206.292 25.6806C205.774 26.5095 205.31 27.3473 205.57 28.4183C205.576 28.4409 205.555 28.4809 205.536 28.4997C204.439 29.6114 204.831 31.0647 204.746 32.4222C204.702 33.1281 204.446 33.8144 204.334 34.5195C204.288 34.8076 204.355 35.1229 204.396 35.4215C204.457 35.8771 204.692 36.3793 204.585 36.773C204.257 37.9631 204.914 39.0159 204.857 40.1517C204.851 40.2694 204.959 40.4066 204.932 40.5092C204.643 41.599 204.814 42.5425 205.316 43.5772C205.666 44.2989 205.477 45.311 205.641 46.1685C205.771 46.845 206.071 47.4823 206.297 48.1362C206.355 48.3059 206.411 48.4763 206.477 48.6415C206.693 49.189 206.92 49.7305 207.131 50.2795C207.347 50.8459 207.535 51.4251 207.76 51.9862C208.134 52.9184 208.528 53.8415 208.915 54.7684L208.875 54.8114Z" fill="#5C4B45"/>
<path fill-rule="evenodd" clip-rule="evenodd" d="M208.909 54.7686C208.929 54.8048 208.949 54.8417 208.969 54.8787C208.936 54.8553 208.903 54.8334 208.87 54.8116L208.909 54.7686Z" fill="#A27347"/>
<path d="M189.916 70.8866C189.766 71.2641 189.965 71.686 190.361 71.8291C190.757 71.9721 191.2 71.782 191.35 71.4045C192.378 68.8179 193.808 67.6851 195.724 67.8445C197.618 68.0022 199.363 70.3432 200.806 74.8976C200.928 75.2841 201.356 75.5027 201.761 75.386C202.167 75.2694 202.396 74.8615 202.274 74.4751C200.641 69.3218 198.548 66.6122 195.857 66.3883C193.187 66.166 191.175 67.7181 189.916 70.8866Z" fill="#33241F"/>
<path d="M195.194 70.8924C193.695 70.8924 192.895 72.4075 192.675 75.2403L192.634 75.8515C193.443 76.919 193.901 76.7584 194.007 75.3697C194.166 73.2867 194.615 72.3359 195.194 72.3359L195.241 72.3385L195.293 72.3475C195.824 72.4769 196.508 73.8055 197.126 76.2514L197.185 76.4936L197.067 76.5376C196.12 76.9205 195.631 77.889 195.631 79.2958C195.631 81.1332 196.475 82.205 198.011 82.205H198.393C198.516 81.2613 198.356 80.7794 197.913 80.7593C197.249 80.7292 196.968 80.3379 196.968 79.2958C196.968 78.2118 197.272 77.8148 198.021 77.803L198.855 77.79L198.605 76.6573L198.478 76.1196C197.629 72.6234 196.611 70.8924 195.194 70.8924Z" fill="#33241F"/>
<mask id="mask5" style="mask-type:alpha" maskUnits="userSpaceOnUse" x="237" y="54" width="16" height="35">
<path fill-rule="evenodd" clip-rule="evenodd" d="M237.044 54.3007H252.347V88.1208H237.044V54.3007Z" fill="white"/>
</mask>
<g mask="url(#mask5)">
<path fill-rule="evenodd" clip-rule="evenodd" d="M237.394 88.031C236.99 87.6577 236.878 87.2173 237.369 86.8869C237.821 86.5838 238.365 86.448 238.846 86.1878C239.827 85.6561 240.813 85.129 241.756 84.5226C242.307 84.1674 242.44 83.6025 241.996 82.9939C241.959 82.9419 241.937 82.8747 241.898 82.8234C239.988 80.2789 239.213 77.1807 238.394 74.118C238.211 73.4355 238.283 72.6707 238.25 71.943C238.105 68.7656 238.454 65.6713 239.321 62.6168C240.805 57.3859 245.45 53.8767 250.439 54.342C250.984 54.3926 251.573 54.3345 251.851 55.0314C252.201 55.9024 252.579 56.8308 252.169 57.7298C252.002 58.0986 251.381 58.3346 250.934 58.4153C249.238 58.7223 247.527 58.9282 245.824 59.1989C245.158 59.3045 244.499 59.4719 243.841 59.6296C242.257 60.0089 241.334 61.1756 240.846 62.773C238.82 69.3939 239.281 75.698 242.919 81.5806C243.056 81.803 243.195 82.0248 243.32 82.2563C244.123 83.7488 244.004 84.6749 242.741 85.7406C241.433 86.8439 239.976 87.6615 238.34 88.0446C238.024 88.1509 237.709 88.1457 237.394 88.031Z" fill="#382924"/>
</g>
<mask id="mask6" style="mask-type:alpha" maskUnits="userSpaceOnUse" x="214" y="55" width="19" height="6">
<path fill-rule="evenodd" clip-rule="evenodd" d="M214.748 55.9671H232.44V60.7605H214.748V55.9671Z" fill="white"/>
</mask>
<g mask="url(#mask6)">
<path fill-rule="evenodd" clip-rule="evenodd" d="M222.031 56.3903C222.391 56.2938 222.752 56.1972 223.113 56.1015C224.776 55.9619 226.439 55.8481 228.093 56.2055L229.743 56.4242C230.195 56.3262 230.602 56.5773 231.037 56.6196C231.785 56.8081 232.523 57.0336 232.425 58.1242C232.304 59.4839 231.479 60.4289 230.382 60.4568C229.77 60.4719 229.151 60.4478 228.545 60.361C224.331 59.7584 220.134 59.5842 215.961 60.7419C215.621 60.8354 215.17 60.5549 214.806 60.3663C214.721 60.3226 214.725 59.9168 214.795 59.7238C214.853 59.5639 215.054 59.4364 215.217 59.3542C217.15 58.3821 218.98 57.1369 221.114 56.6935C221.421 56.597 221.691 56.3684 222.031 56.3903Z" fill="#33241F"/>
</g>
<path fill-rule="evenodd" clip-rule="evenodd" d="M233.538 96.8417C231.452 96.7965 229.579 96.0634 227.846 94.8545C227.537 94.6395 227.247 94.3801 226.985 94.1003C226.649 93.7443 226.094 93.3529 226.589 92.7911C226.981 92.3461 227.495 92.552 227.916 92.9329C230.264 95.0626 232.976 95.3651 235.858 94.819C236.828 94.635 237.737 94.2994 238.517 93.6116C238.753 93.4027 239.006 93.1802 239.285 93.0777C239.483 93.0045 239.9 93.0565 239.939 93.1697C240.031 93.4336 240.07 93.8741 239.928 94.0573C238.827 95.4752 237.448 96.4292 235.74 96.7C235.015 96.8146 234.273 96.798 233.538 96.8417Z" fill="#3B2C27"/>
<path fill-rule="evenodd" clip-rule="evenodd" d="M223.61 73.1353C222.255 73.308 221.011 72.3555 219.836 71.2785C219.588 71.05 219.421 70.6239 219.375 70.2634C219.355 70.1118 219.776 69.7136 219.938 69.7483C220.277 69.8215 220.593 70.0839 220.89 70.3117C222.783 71.7605 226.17 71.7522 228.231 69.9361C228.632 69.5817 228.954 68.8818 229.605 69.3946C229.998 69.7031 229.769 70.3486 229.119 71.1013C228.053 72.3367 225.403 73.2741 223.61 73.1353Z" fill="#3C2D29"/>
<path fill-rule="evenodd" clip-rule="evenodd" d="M246.24 72.3782C245.009 72.1663 243.868 71.6844 242.943 70.7756C242.635 70.4724 242.288 69.7137 242.423 69.4761C242.719 68.952 243.299 69.2122 243.749 69.4829C244.123 69.7069 244.474 69.9784 244.856 70.1821C246.724 71.1783 248.219 70.9272 249.707 69.3879C249.796 69.2967 249.859 69.1662 249.96 69.1013C250.301 68.8826 250.654 68.685 251.002 68.4791C250.981 69.0289 251.14 69.7016 250.906 70.1051C250.153 71.4114 248.949 72.0584 247.571 72.3224C247.133 72.4913 246.688 72.5004 246.24 72.3782Z" fill="#3C2D29"/>
<path fill-rule="evenodd" clip-rule="evenodd" d="M228.1 56.2055C226.439 56.1708 224.779 56.1361 223.118 56.1014C224.784 55.8684 226.448 55.7002 228.1 56.2055Z" fill="#645855"/>
<path fill-rule="evenodd" clip-rule="evenodd" d="M231.043 56.6193C230.612 56.5545 230.18 56.4889 229.749 56.424C230.18 56.4889 230.612 56.5545 231.043 56.6193Z" fill="#645855"/>
<path fill-rule="evenodd" clip-rule="evenodd" d="M246.243 72.3782C246.687 72.3601 247.13 72.3405 247.574 72.3224C247.146 72.796 246.701 72.7606 246.243 72.3782Z" fill="#9E9794"/>
<path fill-rule="evenodd" clip-rule="evenodd" d="M222.037 56.3903C221.732 56.4921 221.425 56.5932 221.12 56.6935C221.425 56.5932 221.732 56.4921 222.037 56.3903Z" fill="#645855"/>
<path fill-rule="evenodd" clip-rule="evenodd" d="M237.396 88.031C237.712 88.0355 238.028 88.0401 238.343 88.0446C238.022 88.4865 237.706 88.5182 237.396 88.031Z" fill="#9E9794"/>
</svg>
