<svg width="491" height="465" fill="none" xmlns="http://www.w3.org/2000/svg"><path opacity=".747" fill-rule="evenodd" clip-rule="evenodd" d="m459.223 216.923-1.26 2.566c-20.728 41.98-48.236 87.415-93.272 113.723-45.136 26.356-107.804 33.586-165.393 37.769l-3.519.252c-58.647 4.197-111.527 5.564-145.939-9.658C15.454 346.408-.465 314.653.01 275.715c.475-38.938 17.447-85.107 59.187-124.544 41.714-39.491 108.195-72.254 175.876-96.456 67.68-24.202 136.431-39.855 182.116-31.398 45.609 8.563 68.025 41.228 72.329 76.845 4.28 35.56-9.526 74.126-30.295 116.761Z" fill="#B86767" fill-opacity=".5"/><mask id="a" style="mask-type:alpha" maskUnits="userSpaceOnUse" x="178" y="111" width="89" height="52"><path fill-rule="evenodd" clip-rule="evenodd" d="M178.115 111.215h88.668v51.644h-88.668v-51.644Z" fill="#fff"/></mask><g mask="url(#a)"><path fill-rule="evenodd" clip-rule="evenodd" d="M259.97 129.718c-7.218-4.527-16.309-9.794-24.548-15.033-1.587 3.811-.796 9.332.279 13.34-2.325-1.724-1.165-5.58-2.056-8.101-10.141 2.283-16.691 2.345-22.931-8.709-12.065 6.218-17.455 10.922-25.519 13.307-18.886 14.804 10.274 63.472 55.35 49.626 27.644-8.391 30.901-43.033 19.425-44.43Z" fill="#AD603F"/></g><mask id="b" style="mask-type:alpha" maskUnits="userSpaceOnUse" x="210" y="97" width="25" height="26"><path fill-rule="evenodd" clip-rule="evenodd" d="M210.986 97.297h23.96v24.799h-23.96V97.297Z" fill="#fff"/></mask><g mask="url(#b)"><path fill-rule="evenodd" clip-rule="evenodd" d="M233.438 119.924c-4.843 1.402-9.073 3.664-13.978.769-4.506-2.962-8.66-5.166-8.467-9.495.091-2.038 1.203-5.703 3.004-12.18 1.961-7.052 12.957 9.909 19.989 9.072 2.291-.421-.191 10.174-.548 11.834Z" fill="#AD603F"/></g><path fill-rule="evenodd" clip-rule="evenodd" d="m234.929 108.907 1 .045c-.292 6.576-1.887 13.757.593 20.272-5.364-3.857-2.873-14.309-1.593-20.317Z" fill="#37231F"/><path fill-rule="evenodd" clip-rule="evenodd" d="m238.039 107.697-.565.807c-5.054 2.677-15.143 1.798-18.059-2.915 2.813.001 5.761 1.465 8.632 1.883 3.312 1.24 6.84-.804 9.992.225Z" fill="#3E2C26"/><mask id="c" style="mask-type:alpha" maskUnits="userSpaceOnUse" x="111" y="253" width="263" height="212"><path fill-rule="evenodd" clip-rule="evenodd" d="M111.263 253.033h261.932V465H111.263V253.033Z" fill="#fff"/></mask><g mask="url(#c)"><path fill-rule="evenodd" clip-rule="evenodd" d="M364.283 424.211c-5.198.201-9.864-3.461-14.696-5.233-6.534-2.83-29.486-20.146-24.686-28.755 8.376-22.508 19.412-43.616 29.515-65.201 4.46-9.703 11.147-18.334 13.56-29.017 1.193-9.884 8.403-22.798 3.569-31.988-19.123-16.67-75.731-7.875-100.072-4.666-.883.301-.998-2.672-.887-6.318-23.784 37.181-56.187 15.454-84.249 10.019-.316 2.913-.911 5.819-1.556 8.74-2.663 10.953-3.838 22.192-4.134 33.514-.205 20.576 6.207 40.264 12.878 59.21 3.29 6.781 5.395 14.145 7.86 21.287 2.395 6.456 5.001 12.894 6.301 19.742 1.313 4.871 2.446 10.045 3.797 14.732-.55 2.375 1.802 4.122 1.395 6.577 2.566 6.67 6.515 13.485 10.366 19.07-4.335-3.466-7.29-10.089-10.169-15.264-.221-1.597-.043-3.261-1.347-4.429-.268-.282-.261-.666-.347-1.032-3.326-11.948-5.553-24.639-9.912-36.273-.404-5.151-5.234-5.704-8.684-7.933-5.367-2.836-10.677-6.109-15.969-8.994-4.139-1.28-7.567-4.477-9.624-8.591-4.393-10.632-1.64-15.04-14.362-18.878-9.437-.7-14.488 11.252-17.846 19.26-3.167 10.342-13.918 13.445-18.636 22.678-1.655 2.678-7.154 11.106-4.255 13.739.292-1.9 1.499-5.357 3.586-4.919.285.617-.751 1.059-.987 1.586-.723 1.064-1.833 2.962-.892 4.171 1.174-.306 2.172-2.269 3.478-2.173-.561 1.481-2.441 2.389-2.931 4.142-.888 1.495.957 4.691 2.24 2.677.468-.647.864-1.365 1.498-1.841 4.068-2.51-4.663 5.047.031 7.597-.492.344-1.034-.221-1.527.102.343 1.694 3.044.47 4.177.42-.289-2.258-.065-4.268 1.713-5.708.263-.245.614-.489.932-.182.408.602-.352 1.369-.575 1.938-1.578 3.155-.742 4.073 2.352 3.794 5.203-7.733 13.066-12.408 20.8-16.588.424-.214.97-.318.757-1.144 2.943-4.838 7.811-.173 10.92 2.154 25.449 20.721 47.688 46.055 75.088 63.855 7.454 5.603 18.267 6.782 26.155 1.606 13.48-9.304 5.051-36.914 4.13-51.566a1292.037 1292.037 0 0 0-15.8-87.678c-.756-1.98-.396-2.425 1.461-2.669 15.41-4.678 30.986-9.133 46.907-11.029 44.133-4.9 15.126 1.535 48.348-23.675 2.451-1.568 5.124-2.741 7.732-3.841 1.975-.957 4.531-2.389 6.541-2.387.138.536-.522.675-.896.806-1.674.592-3.234 1.497-4.903 2.097-3.882 2.401-7.956 4.426-11.59 7.149-3.653 3.132-7.681 5.983-10.712 9.948-2.264 2.381-5.07 4.257-6.806 7.178.911.137.928.187.405.975a84.4 84.4 0 0 0-5.873 10.068c-8.822 18.43-11.713 39.122-14.674 59.404-2.873 12.068-6.902 23.772-10.766 35.504-.852 2.57-1.675 5.124-1.108 7.941.514 1.93-.48 4.182 1.14 5.607 6.297 5.028 14.897 5.057 22.422 5.948 12.351.27 23.42 9.876 35.893 8.408 1.051-1.091 3.017-.298 4.326-1.053 1.313-.411 1.441-2.446-.045-2.622-.889-.455-3.002-.92-2.743-2.284 1.209-.582 2.66 1.018 3.911 1.276 1.41.192 1.138 2.457 2.579 2.338 1.497.228 2.613-.998 3.29-2.332.796-2.129-3.61-1.582-4.627-2.745-1.538-1.536 5.344-.081 5.79.721.585.443 1.106.395 1.629-.078.869-.686 2.378-2.618.465-2.928-.653.194-6.887-1.615-4.207-1.715 1.905-.123 6.201 1.825 6.739-.954.012-.864-.365-1.367-1.154-1.451-1.577-.134-3.296.275-4.624-.917-.349-.165-.245-.481.116-.33 2.813.482 5.741-1.566 7.474 1.793.404-3.7-3.343-2.334-5.395-2.39Z" fill="#AD603F"/></g><path fill-rule="evenodd" clip-rule="evenodd" d="M322.13 306.188c9.811-12.098 21.599-24.737 36.604-27.432-3.446 2.331-7.59 3.822-11.263 6.024-1.197.28-2.283 1.681-3.329 2.416-2.295.411-3.576 2.667-5.642 3.587-2.817 3.38-6.729 5.368-9.099 9.255-1.079.092-1.213 1.528-1.99 1.792-1.593 1.149-2.741 2.679-4.089 4.196l-1.192.162Z" fill="#392620"/><path fill-rule="evenodd" clip-rule="evenodd" d="M360.845 436.64c3.949-3.98-3.069-2.146-4.181-4.839 2.034-.232 4.787-.014 6.59 1.144 1.022 1.292 1.938-.62 2.644-1.324 1.809-2.123-5.422-1.053-5.955-3.348 1.868-.763 7.276 1.708 7.825-.558.115-.738-.262-1.445-.834-1.506-2.023.057-4.34.343-5.734-1.614 5.661-.407 11.009-1.294 6.826 6.701a.18.18 0 0 1-.089.163 20.47 20.47 0 0 1-2.581 2.824c-.032.065-.081.101-.149.104-.133.117-.263.233-.414.318a.17.17 0 0 1-.153.096c-.813.354-3.263 2.806-3.795 1.839Z" fill="#372620"/><path fill-rule="evenodd" clip-rule="evenodd" d="M112.092 400.207c-.178-2.312 1.719-5.729 3.943-5.167-.391 2.021-3.319 3.371-2.29 5.924 1.355-.67 2.36-2.423 3.924-2.345-.982 2.225-5.561 5.105-2.28 7.54 1.642.303 2.274-3.597 4.095-3.132-.531 3.112-5.198 5.995-.826 8.623-.705.205-1.38.125-2.071-.101l-.015.016c-.141-.068-.336-.035-.396-.256-1.087-.58-1.183-3.334-.593-4.261-3.87.791-2.991-4.122-3.491-6.841Z" fill="#392C23"/><path fill-rule="evenodd" clip-rule="evenodd" d="M350.721 439.736c-1.594-.635 8.271-.619 4.446-3.289-.994-.745-3.593-.999-3.042-2.822 1.318-.274 5.331 1.41 5.645 3.105.284 1.22 1.507.383 2.306.503-2.348 1.828-6.164 2.456-9.219 2.572-.077.052-.123.033-.136-.069Z" fill="#3C2B24"/><path fill-rule="evenodd" clip-rule="evenodd" d="M120.766 411.969c-.871-2.438.243-6.089 2.869-6.147.526 1.776-2.915 5.076-.617 5.747.733.072 1.561-.327 2.169.242-1.225 1.409-2.97.517-4.421.158Z" fill="#392C23"/><path fill-rule="evenodd" clip-rule="evenodd" d="M193.528 364.516c2.776 4.276 4.029 9.442 5.568 14.359-.825.136-1.398-3.395-1.894-4.234-1.23-3.315-2.434-6.767-3.674-10.125Z" fill="#483832"/><path fill-rule="evenodd" clip-rule="evenodd" d="M112.216 400.829c1.235 2.162-.584 4.921 2.297 6.178-3.21 2.756-3.817-4.148-2.297-6.178Z" fill="#AD603F"/><path fill-rule="evenodd" clip-rule="evenodd" d="M199.726 380.758c.81 1.565 1.56 3.157 1.771 4.98-.527.282-.893-.075-1.27-.388l-.003-.371c1.187-.207-.718-3.259-.789-4.206.093-.102.19-.106.291-.015ZM352.185 439.769c2.295-.552 4.566-1.222 6.85-1.831-2.206.958-4.449 1.752-6.85 1.831ZM359.345 437.831l.732-.598.002.025c.054-.084.324-.015.152-.26 1.153-.528 2.368-.818 3.471-1.574l-4.357 2.407Z" fill="#635149"/><path fill-rule="evenodd" clip-rule="evenodd" d="m114.802 407.069.707-.141c.411.793-.146 2.083-.097 3.036l-.61-2.895Z" fill="#AD603F"/><path fill-rule="evenodd" clip-rule="evenodd" d="m198.283 377.657.81 1.217-.023.006c.121.58.578 1.086.32 1.749l-1.107-2.972ZM368.027 431.296l.771-2.121-.771 2.121Z" fill="#635149"/><path fill-rule="evenodd" clip-rule="evenodd" d="m199.391 380.629-.32-1.749.657 1.878-.291.014c-.048-.034-.063-.083-.046-.143Z" fill="#483832"/><path fill-rule="evenodd" clip-rule="evenodd" d="m369.355 428.21.149-1.662c.059.017.117.034.176.053l-.325 1.609ZM196.943 373.93l.256.712-.256-.712ZM364.224 435.093ZM364.794 434.705l.414-.318-.414.318ZM365.358 434.282c.128-.109.256-.217.384-.328-.128.111-.256.219-.384.328ZM197.313 374.965l.188.518-.188-.518ZM197.907 376.622l.177.476-.177-.476ZM367.639 431.891c.101-.144.2-.289.301-.432-.101.143-.2.288-.301.432Z" fill="#635149"/><path fill-rule="evenodd" clip-rule="evenodd" d="m116.177 411.309.396.256-.396-.256Z" fill="#AD603F"/><path fill-rule="evenodd" clip-rule="evenodd" d="M350.721 439.736c.063-.014.108.009.136.069-.015.053-.047.079-.098.077a6.22 6.22 0 0 1-.038-.146Z" fill="#635149"/><path fill-rule="evenodd" clip-rule="evenodd" d="m200.229 385.35 1.27.389c3.312 8.11 6.054 16.294 7.518 24.985 1.318 2.659 1.132 6.084 2.53 8.506.164.094.265.712.148.922-.511.917.069 1.681.263 2.447.223 1.187 1.286 2.157 1.125 3.439-.405 1.661.933 2.185 1.397 3.453 1.766 6.06 5.639 11.377 9.237 16.416-1.216 2.395-9.543-12.038-10.07-14.158-1.477-1.054-.459-2.915-1.258-4.2-.262-.586-1.095-1.368-1.24-1.856.35-1.307-.689-2.319-.539-3.562-2.347-5.376-2.752-12.172-4.751-17.898-.354-.884.185-1.982-.73-2.599-.747-1.171-.644-2.825-.891-4.18-1.394-4.011-2.86-7.924-4.009-12.104Z" fill="#38261F"/><path fill-rule="evenodd" clip-rule="evenodd" d="M306.946 393.049c.876 1.557-.264 3.503-1.598 4.168-2.402 1.432.092 4.388.177 6.531-.579 3.577-3.242-2.417-3.105-3.775-.384-1.262 1.064-2.018 1.487-2.975.38-2.027 1.882-2.483 3.039-3.949Z" fill="#37251E"/><path fill-rule="evenodd" clip-rule="evenodd" d="M155.631 376.298c-1.574-.245-2.647 1.252-4.12 1.165.003-1.994 1.767-2.678 3.237-3.106 1.331-.447 2.22.103 3.153.979.559.431 1.458.304 1.77 1.152-1.142.955-2.712-.235-4.04-.19ZM233.216 451.843c.875.866 1.974 1.517 2.169 2.856.128.909.602 1.455 1.294 1.84.398.223.611.552.351.988-.566.924-1.253-.353-1.867-.569-1.508-.845-3.052-3.468-1.947-5.115Z" fill="#38261F"/><path fill-rule="evenodd" clip-rule="evenodd" d="M360.233 436.998Z" fill="#3C2B24"/><path fill-rule="evenodd" clip-rule="evenodd" d="M115.507 406.928c.074-.017.148-.035.223-.051l-.05.263-.173-.212Z" fill="#AD603F"/><path fill-rule="evenodd" clip-rule="evenodd" d="M350.205 442.547c-13.689-.507-24.254-6.678-37.558-6.425-7.606-.606-26.23-1.413-22.057-14.207.728-2.636 4.071.818 5.478 1.37 5.837 4.492 12.934 5.407 19.759 6.8 1.585.309 1.644.377 1.933-1.439 1.546-9.314 8.037-21.228 17.151-22.307 10.961 7.252-2.863 6.291-6.279 24.222-.262 1.254-.256 1.277.846 1.491 2.946.347 5.741 1.262 8.485 2.465 1.226.384 1.341.337 1.582-1.124 1.072-6.078 4.096-11.329 8.214-15.425 1.893-1.284 4.075 1.449 5.963 2.005 1.5.835 1.635 1.42.819 3.126-2.066 3.655-3.186 7.752-4.343 11.833-1.227 3.345 16.251-1.597 17.506-3.739.409-.4 1.106-.848 1.471-.246.742 8.931-13.552 11.455-18.97 11.6ZM109.007 400.946c1.449-12.307 9.967-21.572 18.23-29.28 4.154-4.223 6.027-10.271 9.195-15.289 5.744-9.705 19.073-18.712 27.298-7.219 3.116 6.031-13.497-7.48-26.582 15.362-3.469 4.454-2.56 8.825-.573 13.813 2.155 5.411 4.871 10.422 9.01 14.338.793.751 1.262 1.603 1.296 2.83.042 1.515.013 1.804-1.178 2.41-5.181 3.504-9.755-1.748-12.642-6.137-2.294-3.547-4.429-7.193-5.657-11.385-.242-.826-.452-.897-1.023-.375-1.298 1.728-4.464 2.826-4.098 5.401.905 6.14 4.5 10.849 8.542 14.921.955 1.408 4.247 2.918 2.465 4.878-1.72 1.454-3.777 4.758-6.151 2.995-13.413-8.218-10.031-22.881-13.97-7.341.431 1.46.305 2.964.334 4.461.25 2.112 3.309.906 2.945 3.822.433 4.81 3.619-.02 6.086 3.635.665.545.269.895-.259 1.195-7.929 3.645-13.5-4.433-13.268-13.035Z" fill="#68483C"/><path fill-rule="evenodd" clip-rule="evenodd" d="m254.658 350.24.327 2.352c-19.047 9.077-40.835 9.779-61.005 4.694-1.157-.915-2.727-.278-3.771-1.352-3.194-8.625-5.721-17.501-7.702-26.545-2.956-12.038-4.731-24.81-3.365-37.192 4.583.702 9.372.671 13.723-1.029.983-1.082 2.132-1.025 3.381-.987 1.611-1.397 3.905-1.7 5.067-3.817 2.951-1.049 2.347-7.559 6.086-5.255 6.237.797 12.592 1.825 18.851 1.484 2.1 1.344 4.112-.74 6.183-.157 4.027.541 8.112-1.222 11.901-1.967 1.59 2.85-.042 6.559 1.137 9.636.208 1.795-.378 3.75-.391 5.609.134 1.944.532 3.85.033 5.799.206 2.454 0 4.815-.173 7.258-.152 4.954 2.424 1.696 2.912 7.797 3.026 10.768 4.487 22.024 6.559 32.957l-.01-.019c.2.196.183.485.257.734Z" fill="#FED2A7"/><path fill-rule="evenodd" clip-rule="evenodd" d="M303.159 311.268c-14.085 2.06-27.875 8.298-42.197 7.192 2.714-3.349 6.025-6.303 9.334-8.743 9.033-8.294 18.938-15.443 28.938-22.229-13.785 7.183-29.609 19.99-41.638 32.251l.014-.021c-1.62.995-3.424 1.756-5.326 1.809 3.578-8.02 10.899-14.127 16.957-19.903 1.819-.733 2.375-3.264 4.209-4.21 2.284-1.92 4.733-3.552 6.919-5.581 5.566-4.765 12.473-8.075 18.244-12.228-6.332 2.308-12.372 7.331-18.146 10.96-7.592 5.427-15.105 11.578-21.169 19.121-.539 1.489-1.996 2.304-3.183 3.169-.695 1.496-2.003 2.471-2.806 3.853-.345.97-.736 1.877-1.673 2.359-.317.164-.326.651-.505.97-1.28 1.623-2.424-5.529-2.869-6.571-.349-1.822 2.281-2.193 2.674-3.953 5.916-8.641 5.603-20.008 5.432-30.204-.675-2.755 3.068-2.333 3.903-4.458.873-1.608 3.082-1.32 3.548-3.292.703-1.061 2.053-1.499 2.549-2.827 1.199-1.215 3.433.875 5.016.72 2.079.931 4.135.01 6.321-.129 2.25-.877 4.247-2.411 6.221-3.715 1.795-3.637 3.951-6.813 4.539-10.942 8.473-1.323 17.13-1.358 25.656-1.463.076.388-.138.615-.42.693-3.207 1.121-3.682 5.103-5.672 7.482-1.401 1.624-.922 4.389-2.056 6.187-1.133 3.425-1.344 7.238-2.087 10.818.005 5.032-1.41 10.236-1.317 15.052-.41.508-.306 1.099-.074 1.654.488 1.998-.217 4.136.242 6.191-.126 3.397.539 6.654.422 9.988ZM183.805 267.964c1.137-2.376 1.25-7.609 4.284-7.58 3.984 1.128 8.015 2.075 12.032 3.064 14.341 3.341 28.813 7.394 43.585 5.644.382 2.398 2.564 10.598-1.052 10.461-4.705.632-9.439 2.09-14.148 1.378-6.911.557-14.339-.087-21.058-1.845-1.275.025-2.71.011-3.888-.361-1.206-1.289-2.786-1.55-4.322-1.77-5.336-2.266-11.606-4.142-15.433-8.991Z" fill="#FED2A7"/><path fill-rule="evenodd" clip-rule="evenodd" d="M255.315 354.474c.884 3.17 1.482 6.417 1.705 9.724.192 2.087-1.716 1.319-2.916 1.748-16.082 5.75-33.799 8.91-50.428 4.177-8.057-2.618-11.426-1.43-12.699-11.924 21.289 5.972 43.777 4.728 64.338-3.725Z" fill="#FED2A8"/><path fill-rule="evenodd" clip-rule="evenodd" d="M183.808 267.964c3.191 2.998 6.725 5.097 10.549 6.809 1.498-.078 2.478 1.098 3.7 1.713 1.647.535 3.719.397 5.112 1.55 1.405 1.288 3.509.38 5.19.951.858.134 1.63.938 2.52 1.001 6.141-.082 12.167 1.367 18.227.801.924.022 1.919.299 2.812.239.811-.834 1.796-.218 2.667-.415 2.678-.148 5.249-1.144 7.913-1.262 3.978-.484.874-7.371 1.211-10.259l1.836-.077c.884 3.683.285 7.742 1.258 11.446-.635 3.253.818 6.461.001 9.753.096 3.157.411 6.384.193 9.613.232 3.323-.373 6.463-.28 9.763.826 1.955 3.731-2.756 4.239-3.823 3.333-7.303 3.18-15.09 3.749-22.983-.423-3.54.385-7.264-.605-10.884-.168-1.949-1.833-5.313.672-6.066 1.965 1.041.243 10.249 2.551 8.511 7.811-4.579 11.72-13.437 15.344-21.697 1.803 2.241.726 4.652-.544 6.761-.1 2.899-3.03 4.879-3.312 7.402 1.366 1.576 3.971.32 5.771.981 2.07.354 3.567-2.005 5.646-2.306 3.283-2.275 4.572-6.777 6.194-10.501l2.046-.319c-.004 2.397-.757 4.953-2.275 6.664-1.344 5.72-6.895 8.07-11.654 8.938-2.599.048-5.461-1.947-7.908-1.512-.919 1.343-2.166 2.191-2.95 3.666-.205.551-.964.947-1.55 1.206-1.911.852-2.573 3.526-4.886 3.689-.425.06-1.025 1.307-.728 1.813.552 1.925-.033 3.928.179 5.93.132 2.301.366 4.612-.593 6.782.363 7.246-2.098 15.514-7.199 20.382-1.496.7 1.242 6.692 1.819 8.063.094-.128.264-.251.271-.383-.032-1.228 1.186-1.267 1.649-2.021.339-2.276 2.533-3.16 3.248-5.195 5.375-5.227 10.353-11.807 16.643-16.315 2.709-3.163 6.479-4.522 9.406-7.257.44-.619 1.559-.749 2.202-1.152 3.901-3.419 8.634-5.386 12.998-8.002.597-.385 1.35-1.09 2.026-.579-5.892 4.665-13.254 7.888-19.018 12.925-2.859 3.013-6.971 4.645-9.205 8.358-.192.533-.907 1.022-1.465 1.169-3.189 1.959-5.387 5.638-8.258 8.081-3.578 3.252-6.652 7.052-8.934 11.611-1.558.329-1.957.163-1.589 2.123.421 4.001 1.332 7.992 1.396 12.01a4.702 4.702 0 0 0-.118-.011c-1.565-7.385-3.448-14.506-4.828-21.853-.26-1.582-2.402-1.296-2.362-2.97.025-3.423-.01-6.767.294-10.114.186-3.184-.654-6.331.257-9.451-.893-3.371-.085-7.415-.949-10.681-3.592.945-7.67 2.614-11.478 2.237-2.156-.703-4.112 1.091-6.125.358-1.782-.84-3.856.65-5.712-.449-.139-.07-.332-.234-.413-.183-1.313.785-2.487-.647-3.767-.045-3.148-.036-6.597-.768-9.739-1.224-2.817-1.971-2.979 2.663-4.229 4.266-1.523.847-2.528 2.399-3.896 3.455-.901.3-1.738.427-2.375 1.323-.226.241-.763.188-1.153.17-1.98-.337-3.253 2.339-5.468 1.598-.249-.05-.58-.015-.782.131-1.785 1.341-3.986.503-6.012.5-1.398-.163-2.881.73-4.094-.52.046-.834.091-1.668.138-2.501.435-.339.841-.11 1.24.092 2.46.779 5.203-.069 7.797-.07 1.496-.208 2.818-1.326 4.436-.823 1.267.427 1.432-1.183 2.474-1.447 3.393-1.071 5.952-4.027 7.749-7.094-6.536-2.743-14.925-4.554-19.86-10.53l.69-1.86Z" fill="#B79069"/><path fill-rule="evenodd" clip-rule="evenodd" d="M316.854 253.13c1.902-.113 12.09-1.039 5.883 2.229-11.427 7.72-10.633 30.851-11.091 44.088.581 7.206 1.862 12.298-6.846 11.739-1.514-5.856-.183-11.821-.939-17.72.162-3.105 1.704-6.198.646-9.391 1.597-7.673 2.101-16.106 5.308-23.305 1.37-1.618 2.002-3.895 3.621-5.146.593-1.753 2.205-1.789 3.418-2.494Z" fill="#FED2A8"/><path fill-rule="evenodd" clip-rule="evenodd" d="M183.116 269.824c2.859 2.974 6.384 4.763 9.993 6.209 3.336 1.584 6.653 3.286 10.22 3.967-.821 2.766-3.321 5.536-5.855 6.519-.826 1.332-2.598.701-3.214 2.244-.271.508-.599.545-1.092.522-3.572-.403-6.824 1.641-10.411.895-1.267.766-2.312-.377-3.478-.484.582-6.794 1.124-13.629 3.837-19.872Z" fill="#F7D59C"/><path fill-rule="evenodd" clip-rule="evenodd" d="M253.825 266.322c-.173 4.91 1.905 9.833.929 14.67.221 8.091-.152 17.694-3.724 25.285-.399 2.06-2.599 3.252-4.178 4.346-.556-.09-.76-2.945-.189-3.455.063-1.009-.76-1.707.025-2.777.188-2.896-.373-6.032.187-8.936.42-2.092-1.13-4.219-.055-6.132.041-2.58-.896-5.121-.352-7.715-.227-4.065-.968-8.326-.922-12.593 2.758-.903 5.499-1.881 8.279-2.693Z" fill="#FDD1A6"/><path fill-rule="evenodd" clip-rule="evenodd" d="M272.667 252.648c.167 1.825-1.585 2.991-2.047 4.625.575 1.625-.995 2.125-1.409 3.233-2.393 6.336-7.11 11.073-12.385 14.494-1.664.697-.785-7.534-2.054-9.165 3.017-1.888 5.905-3.938 8.406-6.59 2.252-1.151 7.712-10.855 9.489-6.597ZM286.42 254.985c-.167 1.512-1.056 2.808-1.557 4.205-.133 2.483-2.4 3.715-3.409 5.757-1.309 1.349-3.241 1.163-4.565 2.642-.667.987-8.562.507-8.585-.894 1.684-2.482 3.188-5.284 3.919-8.083.471-1.147 1.525-2.503 1.221-3.762-.023-.068.123-.203.191-.307.612.784.76 2.423 1.978 2.161 3.596-.564 7.19-1.464 10.807-1.719Z" fill="#F7D59C"/><path fill-rule="evenodd" clip-rule="evenodd" d="M255.316 354.474c-4.206 2.17-9.048 2.887-13.395 4.883-1.754-.306-3.182 1.01-4.823 1.173-2.338.384-4.741.428-7.11 1.118-12.862 1.085-26.34.756-39.01-3.449l-.765-2.265c10.311 3.441 20.912 3.898 31.567 4.298 2.712-.211 5.612-.425 8.212-1.035 1.334.34 2.606-.593 3.792.034.756-.88 1.832-.284 2.719-.75.903-.473 1.976-.552 2.972-.815 2.203-.984 4.729-.402 6.705-1.892 1.11-.43 2.597-1.12 3.873-1.177.218.035.563-.094.685-.279.67-1.018 1.883-.701 2.706-1.389.375-.313 1.021-.237 1.543-.337l.329 1.882ZM316.854 253.13c-.772.44-1.297 1.411-2.354 1.281-.138-.016-.343.424-.483.675-.159.289-.23.82-.424.874-1.459.405-1.343 2.207-2.309 3.047-4.201 6.781-5.138 15.539-5.967 23.546-.911.763-.502 1.668-.302 2.583.416 2.135-.358 4.373-.58 6.466-.391 3.767.085 7.502-.364 11.341.662 1.431.363 2.885.385 4.377.192 1.287.478 2.55.344 3.866l-1.639.082c-.776-3.763-.489-7.48-.915-11.264.553-.95-.212-1.945.102-2.949.594-1.042-.699-2.522-.187-3.509.642-.596.452-1.063.127-1.698-.028-3.23 1.188-6.516 1.062-9.818.528-3.236.765-6.684 1.133-9.973.88-2.941 1.839-5.842 2.436-8.903.119-1.652 1.894-2.433 2.152-3.975.765-2.797 2.983-4.499 5.053-5.976l2.73-.073Z" fill="#B79069"/><path fill-rule="evenodd" clip-rule="evenodd" d="M257.6 319.739c4.415-5.911 10.804-9.99 15.909-15.113 8.444-5.94 17.434-13.683 26.375-17.679-8.356 6.784-18.461 12.981-26.813 20.511-.626.529-1.51.891-1.849 1.582-.787 1.209-2.265 1.199-2.731 2.729-4 2.212-6.316 7.021-10.891 7.97Z" fill="#B8916A"/><path fill-rule="evenodd" clip-rule="evenodd" d="M251.974 335.648a.52.52 0 0 1 .118.013c1.06 4.259 1.767 9.368 2.319 13.863-1.702-4.306-1.636-9.233-2.437-13.876ZM254.659 350.24Z" fill="#C5A17F"/><path fill-rule="evenodd" clip-rule="evenodd" d="M257.417 319.891Z" fill="#B8916A"/><path fill-rule="evenodd" clip-rule="evenodd" d="m244.386 280.581.122-.252c.128.083-.023.205-.054.316l-.068-.064Z" fill="#FED2A7"/><path fill-rule="evenodd" clip-rule="evenodd" d="M253.832 274.048c-.245 8.685-6.696 6.889-5.652-.717.158-1.781.993-3.24 2.428-4.056.238-1.056 1.382-.207 1.487.362-.025 1.805 1.17 2.885 1.737 4.411Z" fill="#B79069"/><path fill-rule="evenodd" clip-rule="evenodd" d="M249.915 275.214c.143-1.335-.21-4.248 1.376-4.379.332.745.946 1.422.551 2.374-.261.63-.333 1.233.144 1.816.198.242-.196 2.2-.426 2.386-1.216.411-1.833-1.06-1.645-2.197Z" fill="#F9CEA3"/><path fill-rule="evenodd" clip-rule="evenodd" d="M364.381 273.448c-.722 1.926 1.837 3.466.92 4.572-1.773.243-3.715-5.086-2.219-6.2.727-.206 1.197 1.14 1.299 1.628Z" fill="#37251F"/><path fill-rule="evenodd" clip-rule="evenodd" d="M393.296 150.8c1.045 3.639 34.93-3.52 27.688-8.684-.763-.701-4.154-.245-3.384-1.638 2.303-7.524-14.901-2.725-18.175-1.786.15 3.156-5.394 5.226-4.473 6.42 7.089-1.627 14.548-3.352 21.603-4.75-8.107 3.903-18.348 4.161-27.178 6.72-2.324 2.067-.763 7.98-2.897 10.617-1.867 4.295-5.964 7.224-10.217 7.992-.725.087-1.302.731-2.068.602-.673.155-.926-.25-.094-.378 4.676-1.597 9.805-4.502 11.797-9.666 1.511-2.849-.268-7.899 2.716-9.378 3.031-2.958 7.145-3.96 9.519-7.877 1.485-6.969-14.552 1.287-18.163.22-7.76-.77-7.494 13.777-11.052 19.49-12.2 11.301-25.601 21.966-38.514 32.559-4.483 3.849-10.958 5.703-12.928 12.067-3.52 8.516-2.536 18.606-1.032 27.375-4.076-9.879-3.839-23.265 2.418-32.288-7.357-12.887-13.465-26.733-20.813-39.693-5.738-11.441-12.886-23.421-25.201-26.658-5.776-1.655-11.476-3.502-17.022-5.76-.105.122-.203.248-.313.369-15.206 16.696-41.47 6.831-54.602-7.589a13.676 13.676 0 0 1-.688-.822c-5.739 3.29-12.741 5.128-18.33 7.753-8.414 3.091-13.685 11.12-19.342 18.097-17.402 24.604-33.664 51.86-40.086 82.578-3.97 12.247 7.668 13.69 15.292 17.246 9.909 3.8 20.147 6.421 30.663 5.632 11.775 1.07 23.433-.349 35.014 1.109 5.491.032 9.272 4.485 13.774 7.078 2.565.95 5.387.7 7.942 1.393 1.04.81 1.972.481 3.099.364 5.444 1.288 10.726-1.622 16.076-2.766 2.154-.719 4.615-2.017 4.968-4.71.083-.335-.063-.839-.488-.562-3.422 1.432-6.918 2.512-10.525 3.127-1.838.733-6.934-.022-1.782-.821 4.245-.328 17.52-3.612 16.298-9.575-1.952-1.393-3.912 3.087-6.265 2.896-3.363.757-6.759 1.078-10.104 1.457-.723.276-2.283.7-2.642-.224 5.94-1.981 13.702-.708 18.502-6.234 2.334-1.813 4.499-4.204-.118-3.235-5.134 1.142-10.213 2.745-15.557 3.151-1.228.268-2.513-.066-3.702.536-.29.147-.647-.018-.707-.456.412-1.349 2.509-.12 3.403-1.25 4.146-.831 8.472-.501 12.463-2.259 9.786-3.069-4.08-3.457-7.037-3.397-5.013.102-10.113 1.32-15.036 1.522-2.315-1.276-6.003-2.819-4.542-6.278-.054-2.9 2.926-3.884 5.018-3.798 1.96-.363 4.775-2.007 4.731-4.314-1.706-1.052-4.315.54-6.319.297-5.118.734-7.794 6.677-11.915 9.519-4.668 5.256-11.463.477-17.097.494-10.8-1.904-21.115-5.823-31.77-8.15-1.396-.809 3.285.692 2.92-.434-3.315-2.058-8.098-1.316-11.188-3.397-10.678-1.347-17.701 1.493-25.024 9.762 2.58-5.297 7.831-10.218 13.448-10.68 3.116-2.211 6.722-.16 10.081-.714.652-.136 1.273.783 1.775-.071.94-2.003 2.296-3.841 3.119-5.87 2.795-6.614 7.736-11.674 10.745-18.168 3.944-5.514 7.456-11.082 11.759-16.242 3.785-4.559 7.675-10.625 13.541-12.061-2.276 1.668-5.146 3.749-7.117 6.069-.173 1.098-1.301 1.084-1.649 1.989-3.894 4.893-8.679 9.64-11.442 15.648 3.147 11.543 4.913 23.399 6.772 35.254.368 1.712.039 1.406-1.233 1.777-.235 1.559 4.208 1.532 5.396 2.275a246.282 246.282 0 0 0 23.607 3.837c5.024-2.451 7.881-9.434 13.377-11.157 2.159.1 10.085-3.968 9.326.588-1.065 5.647-6.915 3.48-9.284 6.471-3.428 8.465 9.302 5.786 13.492 4.9 5.415-.955 12.945-1.526 17.02 3.074.3.394.862.273 1.267.258 1.289-.204 1.901 1.942.927 2.651-.85.963-2.913 2.095-1.799 3.539 1.946 2.579-1.266 4.933-3.104 6.206a2.117 2.117 0 0 0-.61.965c6.726 2.546 14.167.16 20.62-3.417.163-2.957.304-5.537.143-6.399.577-18.288.575-36.742 1.308-54.95 10.041 23.305 22.341 47.451 44.785 58.481 3.925 2.228 12.727-8.865 16.244-11.552 14.557-15.427 26.787-33.247 41.179-48.882 7.839-11.478 14.565-10.322 25.569-15.071-.272-.458-.612-.163-.89-.052-1.724.535-3.604 1.306-5.292 1.599 4.459-2.092 9.59-3.682 14.058-6.22 1.774-1.39 10.033-4.722 7.848-7.57-4.311.122-8.385 2.376-12.806 2.501-2.133.281-4.243.739-6.412.561-1.012-.085-1.173.095-1.383 1.226-.423 1.526-.684 3.484-1.453 4.718-.252-2.764.596-5.871.206-8.729-.107-1.232-3.331-12.048-.652-6.397Z" fill="#AD603F"/><path fill-rule="evenodd" clip-rule="evenodd" d="M180.396 227.595c4.277 1.914 8.859 2.462 13.293 3.155 5.417 1.098 11.083 2.225 16.587 2.528 4.668-4.275 8.625-10.731 14.923-11.775 4.356-1.273 10.364-2.429 5.774 4.499-1.874 2.156-7.728 1.349-7.894 4.004-.118.858-.517 1.664-.709 2.516.535 1.376 2.565 2.244 3.845 2.677 7.614.188 15.142-3.356 22.676-.865 1.844.635 4.288.883 4.873 3.176 1.689-.486 3.442.655 2.434 2.708-.803.414-1.299 1.167-1.928 1.827-1.898 2.43 4.343 2.753-3.575 8.286-.367.258-.544.502-.418 1.083.527 2.438-1.169 4.68-2.865 5.58-4.705 1.904-9.396 4.438-14.539 4.136-1.099-.128-2.303.951-3.339.095-.068-.057-.209-.114-.26-.076-.899.652-1.577-.183-2.362-.363-3.455-.048-6.805-.525-10.124-1.486-2.729-1.699-5.519-3.461-7.964-5.609-17.08-4.961-35.268-.666-52.669-4.53 10.147.057 19.954.675 29.958.843 3.297-.646 6.592-.056 9.846-.376.262-.072.606-.165.808-.041 1.309.8 2.728.262 4.082.47 10.193-.124 12.204 7.723 20.659 8.25 1.467.441 3.181.264 4.521 1.034.381.438.724.372 1.166.095 1.758-.727 3.698.914 5.472.154 5.033-2.006 15.13-1.217 16.499-8.028-.763.141-1.267.996-2.144.672-.102-.034-.27.105-.387.197-.127.097-.228.337-.34.337-1.513-.005-2.724 1.544-4.34 1.014-2.283.703-6.007 2.12-8.109.764 1.391-1.345 3.62-.741 5.338-1.473.853-.358 1.419-.439 2.309-.158 3.407-1.965 7.756-2.281 10.3-5.85.418-.764 1.921-1.74 1.028-2.625-1.667-1.577-4.127 3.352-6.71 2.961-2.766.12-11.194 2.901-12.83.871 7.137-2.162 17.373-1.195 21.518-9.452-3.366-.149-6.186 1.494-9.448 2.063-1.08.131-1.784 1.209-2.98.572-3.327.221-6.957 1.182-10.23 1.2-1.01-1.408 1.314-1.446 2.109-1.412 2.667-1.54 5.923-.677 8.677-1.458.579-.498 1.138-.196 1.762-.122 2.085-1.099 5.085-1.453 6.903-3.121-6.474-2.137-13.337-.912-19.842-.363-.155.013-.376-.062-.459.026-1.197 1.102-2.73-.1-4.076.689-2.072.489-3.798-1.735-5.45-2.841-1.414-.912-.798-2.078-.484-3.47-.395-2.088 1.508-3.69 3.251-3.953 2.668.163 5.559-1.084 6.616-3.984-9.554-1.956-12.353 5.163-19.216 10.742-4.536 3.378-14.36-.806-19.828-1.362-6.531-1.574-13.418-2.673-19.667-5.283-2.779-1.658-6.745-1.007-9.36-2.559 3.247-.499 6.89.517 10.041 1.543 2.436.395 4.753 1.278 7.197 1.567.101.076.332.111.081.301Z" fill="#37251F"/><path fill-rule="evenodd" clip-rule="evenodd" d="M419.791 147.694c-.528 1.284-.513 1.004.573 1.684-.733.443-1.492-.057-2.174-.144 4.367 1.08.992 3.766-1.102 5.25-6.415 2.8-13.334 4.209-20.229 5.115-1.353.367-1.543.168-1.603-1.337.111-1.707-2.133-4.704-.401-5.698 8.562-.209 16.948-1.935 24.936-4.87Z" fill="#F2B693"/><path fill-rule="evenodd" clip-rule="evenodd" d="M419.793 147.694c-7.558 4.181-16.125 4.079-24.292 5.204-2.156.135.191 4.378-.121 5.966.034.543.134.87.696.672 4.756-.994 9.883-1.48 14.345-2.983 3.271-1.452 7.521-1.501 9.529-5.163 1.27-1.683-1.981-1.351-2.498-2.369.931-.303 1.952.272 2.913.357 1.266 1.175 1.386 2.276.341 3.481l-.007.007c-.072.23-.161.5-.33.671l.007-.01c-.055.081-.123.148-.187.221l.004-.007c-1.102 1.53-2.905 1.953-4.158 3.229-6.493 1.078-13.005 3.542-19.714 3.212-1.956.252-.948 5.351-2.655 6.355-.888-2.801.924-6.22.024-9.246-.046-2.945-2.442-6.223-1.411-9.04 1.528 4.06 2.658 3.757 6.279 3.019 7.895-.887 16.32-2.045 23.195-6.596.029 1.342-.895 2.174-1.797 2.828l-.163.192Z" fill="#392720"/><path fill-rule="evenodd" clip-rule="evenodd" d="M394.98 144.896c7.243-1.584 14.833-3.672 22.133-4.832-1.652 2.57-5.342 1.942-7.877 3.001-6.671 1.156-13.223 3.088-19.889 4.264-1.177.916-.852 3.059-1.039 4.428-1.085 1.571.02 3.941-1.196 5.238-.687 1.088-.815 2.5-2.056 3.151-.657 1.145-1.279 2.201-2.477 2.733-2.945 1.813-6.338 4.155-9.785 3.401 7.796-2.477 14.774-7.976 14.016-17.848.007-.815.559-1.156 1.112-1.509 3.42-2.74 7.354-4.311 10.213-7.928l1.292-.303c.406 2.177-2.819 4.829-4.472 5.763-.119.156-.237.311.025.441Z" fill="#37251F"/><path fill-rule="evenodd" clip-rule="evenodd" d="M319.779 198.759c-.595 2.447-2.608 4.382-2.746 6.861-1.898 3.058-.918 7.091-1.767 10.555-.724 5.082 1.419 10.171 1.337 15.019-.659-.216-.773-.727-.862-1.397-1.436-4.584-2.276-9.132-2.153-13.98-.038-.303-.206-.681-.099-.895.845-1.629.004-3.38.489-5.019.631-4.241 2.237-8.234 4.886-11.486l.915.342Z" fill="#37251E"/><path fill-rule="evenodd" clip-rule="evenodd" d="M416.033 156.97c.497-.52.952-.202 1.306.166 1.348 3.574-4.703 6.06-6.896 7.62-.103.013-.172.093-.249.158l.009-.008c-2.8 1.41-5.743 2.879-8.762 3.678-1.685.873-3.683.895-5.444 1.695-.917.208-1.779 1.171-2.706.563 6.581-3.539 14.5-4.932 20.328-10.331.81-1.05 3.363-1.542 2.279-3.293-.022-.046.087-.164.135-.248Z" fill="#392620"/><path fill-rule="evenodd" clip-rule="evenodd" d="M389.669 137.389c-3.511 1.245-7.392 2.105-11.077 2.209-1.078-.181-1.713.494-2.479 1.036-.436.311-.61 1.127-1.344.889 1.918-5.445 10.052-2.983 14.359-4.324.248-.168.474-.265.541.19Z" fill="#3C2B24"/><path fill-rule="evenodd" clip-rule="evenodd" d="M410.526 164.708c1.311-1.428 10.231-6.439 5.521-7.745l-.14-.221c1.12-1.32 2.871-1.885 4.287-3.001-.236 1.853-2.899 1.623-2.384 3.749.396 3.827-4.589 6.124-7.284 7.218Z" fill="#AD603F"/><path fill-rule="evenodd" clip-rule="evenodd" d="m389.671 137.389-.542-.188c1.757-.445 3.539-.695 5.328-.923-1.559.686-3.178.609-4.786 1.111Z" fill="#635149"/><path fill-rule="evenodd" clip-rule="evenodd" d="M400.527 169.034Z" fill="#AD603F"/><path fill-rule="evenodd" clip-rule="evenodd" d="m419.954 147.502.414-.358-.414.358Z" fill="#F2B693"/><path fill-rule="evenodd" clip-rule="evenodd" d="m401.438 168.584.499-.111-.499.111ZM420.707 152.859ZM420.566 153.173l.133-.307-.133.307ZM420.366 153.537c.058-.104.117-.206.176-.308-.059.102-.118.204-.176.308ZM409.979 165.095l.227-.189-.227.189ZM420.189 153.747ZM410.197 164.914l.249-.158-.249.158Z" fill="#AD603F"/><path fill-rule="evenodd" clip-rule="evenodd" d="M175.093 190.138c-6.989 9.746-13.11 20.203-19.323 30.522-1.04-.033-1.8.759-2.921.044-.665-.361-1.639-.039-2.475-.006-2.896.378-6.18-.514-8.643 1.478-3.314 1.742-6.592 3.573-9.085 6.614-.671.788-.996 2.166-2.202 1.832 2.455-5.225 8.186-10.795 13.634-10.991 2.883-2.337 6.338-.523 9.462-.598.67-.425 1.296-.454 1.909.138 1.887-2.011 3.24-5.383 4.464-8.069 1.319-2.451 3.32-4.431 4.15-7.095.971-.616 1.427-1.599 1.712-2.736 1.602-1.529 2.402-3.9 3.641-5.835 2.424-3.545 5.072-6.895 7.136-10.677 3.084-3.084 5.315-7.015 8.317-10.313.477-.802 1.515-1.227 1.833-2.326.103-.285.824-.374.998-.599.964-1.73 6.479-5.858 8.099-4.921-.985 1.11-2.514 1.476-3.634 2.42-1.269 1.083-2.166 2.808-3.681 3.398-.076.005-.213.184-.204.269.083.832-.309 1.162-.996 1.339-4.218 4.899-8.694 10.235-12.191 16.112Z" fill="#392720"/><path fill-rule="evenodd" clip-rule="evenodd" d="m167.026 224.113 4.723 1.205c-1.574.349-3.306-.759-4.926-.993l.203-.212Z" fill="#F2B693"/><path fill-rule="evenodd" clip-rule="evenodd" d="m394.978 144.896-.335.055.31-.496.025.441Z" fill="#CC857D"/><path fill-rule="evenodd" clip-rule="evenodd" d="m171.908 225.357 5.479 1.275c.112.113.091.231.006.35-1.793-.595-3.96-.413-5.485-1.625ZM177.949 226.797c.799.179 1.766-.07 2.256.813l-2.256-.467c-.101-.116-.113-.232 0-.346Z" fill="#F2B693"/><path fill-rule="evenodd" clip-rule="evenodd" d="M177.953 226.796v.347l-.56-.161a41.928 41.928 0 0 0-.007-.351l.567.165ZM253.767 237.511l-.188-.252.188.252Z" fill="#AD603F"/><path fill-rule="evenodd" clip-rule="evenodd" d="m393.846 145.524-.202-.189c.215-.097.414-.374.627-.143l-.425.332ZM393.366 145.533l.019.053-.053-.009.034-.044Z" fill="#CC857D"/><path fill-rule="evenodd" clip-rule="evenodd" d="M172.45 189.732a2744.108 2744.108 0 0 1-25.325-23.596c-1.212-.935-2.901-1.919-1.654-3.724 12.428-22.158 24.283-35.412 47.775-41.777 5.532-.817 12.775-12.449 14.322-7.695 2.849 17.221 29.305 29.115 32.312 6.043.494-2.498 2.745-.688 3.963.06 8.144 4.928 16.81 8.976 25.966 10.882 2.283 12.742 1.911 25.867 2.334 38.865.34 17.274 1.146 34.554.915 51.872-1.844 8.919 5.023 23.241.821 27.21-19.555 20.465-27.528 27.823-55.742 23.011-11.19-2.431-23.25-3.377-33.379-9.479-2.471-1.927-1.988-5.788-2.296-8.725.062-3.069 7.173-.984 9.265-1.568 17.907-.846 14.652 4.421 29.2 9.293 8.39 1.616 24.397 2.101 28.055-8.221.62-1.66 2.365-2.758 3.54-3.981 2.871-3.405-1.593-3.722 2.603-8.298.464-1.229-.106-2.179-1.306-2.133-2.512-.022-1.663-3.933-5.507-3.74-8.391-1.746-16.831 3.975-24.989.617-1.939-.714-1.579-2.99-.916-4.674 1.154-3.353 5.086-1.473 7.361-3.292 1.79-.692 3.149-5.67.797-6.154-3.683.929-7.695.96-11.116 2.776-3.405 3.599-6.74 8.962-11.416 10.193-4.6-.629-27.452-2.077-28.008-6.627-1.929-11.649-4.748-23.187-6.519-34.884 2.143 1.055 3.318-1.558 4.654-3.093 3.082-3.058 6.12-6.923 8.057-11.037 1.193-1.849 2.247-3.551 2.868-5.732.895-2.267 2.41-4.23 2.524-6.8.152-1.441 1.324-2.449 1.059-3.989a2.816 2.816 0 0 1 .504-1.948c.425-.599.581-1.183.297-1.911 1.181-9.212-.975-20.147-6.904-27.162-1.724-1.306-3.266-4.01-5.44-4.021.943 1.084 2.746 1.792 3.562 3.191 11.938 14.691 7.998 37.666-2.742 51.821-1.182 1.77-2.197 3.878-3.483 5.535-1.021.576-1.647 1.564-2.265 2.565-1.098 2.027-2.304.942-3.747.327ZM271.12 130.228c14.854 2.886 24.779 17.065 31.196 31.006.511 1.35-.382 1.63-1.244 2.3-8.131 8.881-17.994 15.713-27.402 22.751-.857-18.624.834-37.84-2.55-56.057Z" fill="#CEE5D0"/><path fill-rule="evenodd" clip-rule="evenodd" d="M172.449 189.732c.616-1.322 1.883 2.456 3.512-.422.566-1.482 1.88-2.213 2.878-3.214.136-1.422 1.417-1.945 1.891-3.083 6.148-8.941 10.939-19.803 11.166-31.169-.298-9.623-3.491-20.407-11.459-25.615 2.592-1.465 9.615 7.223 10.009 10.022 1.956 3.67 3.113 7.898 3.164 12.149.948 2.329.808 5.523.112 7.857-.424.854.66 2.103-.089 2.902-.605.812-.866 1.667-.679 2.747-.732 2.579-1.302 5.365-2.559 7.782-1.207 1.752-1.403 4.525-2.528 6.282-2.09 3.057-3.631 6.362-6.175 9.122-.837 1.02-1.32 2.584-2.429 3.229-.691.268-1.177.727-1.39 1.537-1.042 1.401-2.661 3.856-4.368 2.128-.116-.885-.325-1.718-1.056-2.254ZM271.118 130.228c.465 2.571 1.347 5.045 1.289 7.696.006.875.681 1.472.291 2.419-.09.335.175.77.227 1.169.324 4.705.865 9.174.509 13.884.365 10.318.35 20.52.235 30.889-.158-.014-.232.081-.191.248l-1.015.775c-.897-19.224-.293-38.432-2.654-57.382l1.309.302Z" fill="#0A6A6A"/><path fill-rule="evenodd" clip-rule="evenodd" d="m273.477 186.534.174-.251-.174.251Z" fill="#CEE5D0"/><path fill-rule="evenodd" clip-rule="evenodd" d="M399.758 134.326c-.094 1.503-1.455 1.327-1.876.288-.002-.979 1.549-1.558 1.876-.288ZM404.899 131.797c.768.601.545 2.661-.395 2.431-1.134-.468-1.019-2.437.395-2.431Z" fill="#ECDDCA"/><path fill-rule="evenodd" clip-rule="evenodd" d="M235.625 39.85c.896-.615 4.64-4.247 3.019-4.858-1.622-.613-10.698-15.16-32.522-2.846-18.502 10.438-12.263 42.63-10.448 45.458 1.815 2.827 3.085 13.722 23.022 5.09 19.937-8.633 18.56-7.529 18.56-7.529l-1.631-35.314Z" fill="#AD603F"/><path fill-rule="evenodd" clip-rule="evenodd" d="M248.165 83.735c-3.222 31.719-22.963 33.3-42.944 14.793-2.844-11.94-6.893-7.054-12.319-14.485-1.816-2.06-2.789-4.565-3.13-6.992-1.112-7.933 4.529-15.04 9.575-3.144.321 1.46 1.112 2.17 2.499 2.054 10.272 1.261-8.306-42.01 20.475-48.114 9.003-1.91 18.847 4.054 22.243 10.222 7.664 13.923 5.947 33.194 4.837 38.725" fill="#AD603F"/><path fill-rule="evenodd" clip-rule="evenodd" d="M205.219 98.528c3.791 3.459 7.959 6.228 12.491 8.152.175.386-.026.583-.314.734-4.301-1.934-10.74-3.37-12.177-8.886ZM222.627 108.915c3.609.856 7.173 1.245 10.814 1.683-3.851 2.234-7.835.212-11.58-1.249.152-.361.559-.186.766-.434Z" fill="#5C4941"/><path fill-rule="evenodd" clip-rule="evenodd" d="m222.626 108.915-.767.434c-1.497-.601-3.144-.904-4.466-1.935l.314-.734c1.709.58 3.404 1.168 4.919 2.235Z" fill="#473128"/><path fill-rule="evenodd" clip-rule="evenodd" d="M220.074 108.603c.517-.122.893.085 1.142.586l-1.142-.586Z" fill="#5C4941"/><path fill-rule="evenodd" clip-rule="evenodd" d="M243.228 43.692Z" fill="#E46B33"/><path fill-rule="evenodd" clip-rule="evenodd" d="M229.326 37.513c-2.09.271-4.206.404-6.263.858-1.633.361-3.205 1.081-4.778 1.717-.433.175-.806.582-1.155.942-3.301 3.4-5.656 7.462-7.074 12.17-.087.289-.215.564-.324.846-.125.015-.23-.034-.287-.15-.955-1.981-1.889-3.97-2.272-6.2-.117-.674-.224-1.351-.423-2.004-.529-1.735-.518-3.554-.736-5.34-.246-2.02.055-4.042-.153-6.054a5.308 5.308 0 0 1 .105-1.765c.296-1.222.086-2.507.391-3.69.381-1.483.653-3.033 1.489-4.337.132-.205.254-.422.488-.505 1.298-.456 2.4-1.271 3.418-2.235.304-.287.631-.226.971-.144 1.248.298 2.478.69 3.76.795.237.02.445.145.598.337.619.772 1.468 1.178 2.252 1.682.371.239.754.439 1.024.823.086.124.197.286.325.29 1.072.038 1.563 1.188 2.48 1.524.325.12.564.419.779.714.934 1.288 1.81 2.626 2.882 3.785.474.51.519 1.234.824 1.832.528 1.03 1.363 1.86 1.651 3.045.086.357.277.7.028 1.064ZM208.056 72.415c-.001 1.954-.061 2.577-2.048 2.69-1.021.057-2.032.31-3.052.416-1.106.114-1.28-.019-1.648-1.137-.29-.877-.498-1.788-.813-2.654-.326-.893-.656-1.804-1.125-2.609-1.512-2.592-4.583-3.334-6.625-1.197-.674.705-1.688 2.682-1.775 2.735-.015-.058-.197-2.017-.339-3-.901-6.236-1.864-12.46-2.798-18.69-.046-.303-.013-.619-.017-.929.946.052 1.79.476 2.631.89 1.3.638 2.621 1.185 4.056 1.31.351.031.651.159.962.337.902.517 1.758 1.161 2.81 1.307.285.04.526.233.755.422.229.19.475.414.754.416 1.731.02 3.114 1.128 4.654 1.735.488.193 1.029.183 1.48.354 1.117.423 2.381.6 3.188 1.727-1.208 5.225-1.045 10.557-1.05 15.877Z" fill="#5C4B45"/><path fill-rule="evenodd" clip-rule="evenodd" d="M209.104 56.538c-.866-.476-1.733-.953-2.603-1.425-.098-.053-.216-.131-.313-.115-1.529.266-2.68-.814-3.989-1.327-.313-.122-.604-.354-.924-.412-1.007-.176-1.919-.524-2.862-1.004-.851-.432-1.796-.746-2.659-1.218-1.358-.739-2.889-.773-4.298-1.294-.107-.04-.225-.044-.328-.094-1.106-.533-2.209-1.072-3.313-1.609l-.248-1.109c.481-.685 1.079-.422 1.627-.183.446.192.896.395 1.316.659-.151-.497-.552-.836-.72-1.31-.505-1.421-.846-2.9-1.218-4.364-.16-.634.234-1.254.312-1.902.191-1.6.617-3.164 1.111-4.673.515-1.576 1.364-2.989 2.194-4.413.56-.963 1.416-1.595 1.92-2.564l.038.026-.038-.023c.101-.013.157-.08.18-.186l-.004.004c.25-.285.675-.358.807-.788l.023-.018c.147.062.179-.018.162-.157l.007-.008c.186.015.125-.236.257-.28l.262-.253c.106-.01.175-.069.202-.182l-.005.006c.099-.024.149-.103.186-.196.624-.59 1.26-1.164 1.864-1.777.213-.216.345-.525.514-.791.088-.987-.219-1.877-.46-2.81-.311-1.206-.653-2.414-.671-3.72-.017-1.217-.079-2.397.238-3.592.845-3.187 1.852-6.212 4.264-8.52.987-.944 1.971-1.898 3.076-2.617 1.008-.657 2.099-1.407 3.415-1.083l.484.247c.087.83-.48 1.257-1.017 1.363-1.66.33-2.822 1.528-4.127 2.513-1.794 1.357-2.659 3.404-3.647 5.4-1.465 2.957-1.335 6.04-.718 9.156.246 1.24.702 2.433 1.271 3.556.053.104.125.286.217.236.11-.06-.036-.194-.052-.3-.274-1.823-.707-3.646-.071-5.484.151-.438.111-.906.244-1.362.303-1.043 1.015-1.757 1.518-2.628.828-1.432 2.19-2.145 3.159-3.323.969-1.178 2.293-1.451 3.435-2.164 1.173-.733 2.37-.533 3.541-.8a1.728 1.728 0 0 1 1.542.383l.5 1.314a10.04 10.04 0 0 1-3.705.973c-1.136.08-2.053.63-2.947 1.3-.069.052-.117.17-.189.182-1.31.234-1.896 1.547-2.869 2.278-.237.178-.511.348-.6.648-.284.971-.944 1.7-1.352 2.59-.573 1.25-.882 2.53-.695 3.947.084.64.062 1.302.002 1.957-.092 1.002.333 1.405 1.208 1.161.305-.084.613-.174.923-.192 2.32-.137 4.169-1.44 5.815-3.022 1.063-1.021 2.228-2.04 2.783-3.575.098-.27.315-.44.539-.582.237-.15.397-.356.414-.664.024-.424.193-.783.428-1.102.327-.441.338-.966.414-1.49.06-.418-.089-1.08.642-1.035l-.07 3.712c-.454 1.256-.452 1.225.876 1.287.992.048 2.003.06 2.915.605a.614.614 0 0 0 .243.086c1.828.175 3.493 1.096 5.299 1.375.54.084 1.041.329 1.549.534 2.677 1.084 5.282 2.342 7.613 4.16 1.879 1.464 3.741 3.019 5.17 4.995 1.225 1.694 2.45 3.449 3.236 5.47.409 1.05.957 2.119 1.172 3.154.354 1.703.978 3.37 1.007 5.154.004.239.04.53-.312.532l-1.917-2.786c-.495-1.988-1.346-3.814-2.131-5.674-.461-1.094-.97-2.195-1.567-3.158-.841-1.354-1.913-2.556-3.022-3.723-1.763-1.854-3.954-2.913-5.914-4.385-.91-.683-1.98-1.1-3.051-1.437-.499-.157-.985-.31-1.396-.674a1.338 1.338 0 0 0-.617-.317c-2.189-.437-4.223-1.49-6.415-1.915-.871-.168-1.742-.32-2.593-.61-.684-.235-1.663.384-1.961 1.113-.098.24.042.293.187.283.649-.054 1.208.367 1.84.395.085.004.187-.012.253.034 1.369.987 3.302.57 4.441 2.126 1.165.095 1.701 1.357 2.738 1.743.671.25.962 1.121 1.54 1.583.159.126.269.323.432.452 1.914 1.51 3.152 3.582 4.233 5.83.596 1.241 1.209 2.465 1.679 3.77.134.376.337.746.043 1.139l-1.689-.038c-.384-.915-.754-1.837-1.155-2.744-.363-.822-.711-1.66-1.155-2.429-.323-.56-.795-1.017-1.193-1.526-.199-.254-.382-.524-.571-.787-.221-.306-.432-.62-.665-.915-.165-.21-.45-.358-.525-.592-.262-.822-.853-1.135-1.513-1.504-.703-.392-1.179-1.247-2.09-1.257-.732-1.105-1.952-1.433-2.907-2.18-.18-.14-.31-.351-.482-.504-.192-.17-.405-.438-.61-.441-1.303-.017-2.522-.468-3.767-.785-.403-.103-.694-.164-1.012.313-.301.45-.785.892-1.264 1.03-.738.215-1.136 1.223-2.032.968-.35.618-.736 1.217-1.039 1.861-.175.374-.195.832-.325 1.237-.391 1.21-.642 2.422-.553 3.737.046.683-.301 1.389-.324 2.09-.05 1.577-.011 3.16-.005 4.74.01 3.145.411 6.22 1.127 9.276.353 1.507.807 2.96 1.291 4.407.296.884.777 1.695 1.175 2.539l-.629 2.492Z" fill="#B27964"/><path fill-rule="evenodd" clip-rule="evenodd" d="M231.015 37.55c-.198-.707-.325-1.45-.611-2.11-.37-.86-.882-1.645-1.306-2.477-.366-.717-.646-1.492-1.056-2.176-.362-.604-.86-1.107-1.277-1.672-.364-.491-.628-1.1-1.061-1.494-.835-.76-1.759-1.404-2.362-2.433-.044-.075-.127-.175-.193-.175-.802-.002-1.238-.567-1.619-1.224-.016-.025-.041-.06-.064-.06-1.271-.08-1.915-1.495-3.109-1.735-.221-.045-.445-.09-.668-.103-.501-.028-1.033.082-1.331-.563-.059-.127-.285-.2-.444-.227-.801-.134-1.606-.239-2.408-.367-.15-.025-.293-.116-.439-.176.07-.13.126-.273.214-.386.355-.461.66-1.015 1.103-1.335.297-.213.817-.187 1.204-.098 1.335.304 2.663.658 3.981 1.042 1.73.504 3.528.86 5.15 1.64 1.574.757 3.252 1.25 4.753 2.149 1.537.921 2.998 2.002 4.452 3.078 1.422 1.05 2.731 2.248 3.689 3.846.308.515 1.009.646 1.148 1.361.048.25.197.476.282.72.06.171.044.391.138.525 1.164 1.663 1.914 3.548 2.527 5.512.117.376.271.768.502 1.066.342.44.235.852.086 1.297-.025-.014-.064-.02-.074-.043-.646-1.33-1.789-1.718-3.026-2.119-2.68-.87-5.395-1.304-8.181-1.263Z" fill="#5C4B45"/><path fill-rule="evenodd" clip-rule="evenodd" d="M244.211 43.76c-.033-.63-.044-1.262-.106-1.89-.066-.664-.33-1.278-.503-1.9-.31-1.111-.518-2.21-.957-3.319-.455-1.146-.839-2.34-1.441-3.42-.491-.883-.984-1.778-1.585-2.57a53.536 53.536 0 0 0-3.087-3.72c-.558-.61-1.272-1.051-1.919-1.563-.538-.424-1.061-.877-1.627-1.252-.984-.655-1.961-1.342-3.003-1.867a65.174 65.174 0 0 0-4.879-2.189c-.758-.306-1.591-.394-2.388-.59-.199-.05-.387-.151-.586-.203-.425-.111-.853-.21-1.281-.306-.524-.117-1.108-.103-1.563-.363-1.161-.663-2.388-.653-3.632-.669-.313-.003-.624-.165-.935-.254.132-.331.249-.672.405-.99.06-.122.21-.192.319-.287 5.627 1.315 11.089 3.178 16.251 5.982 2.552 1.386 5.139 2.739 7.546 4.39 4.309 2.956 7.866 6.81 10.426 11.652 1.399 2.644 2.2 5.525 2.414 8.59.137 1.963-.225 3.84-.722 5.7-.056.207-.125.45-.264.58-.419.386-.844.953-1.323 1.028-.678.105-.813-.701-1.034-1.276-1.182-3.08-2.582-6.035-4.296-8.807-.093-.15-.154-.323-.23-.486ZM215.517 12.697l-.429 1.305c-.146.447-.296.893-.436 1.344-.12.383-.207.782-.35 1.155-.09.234-.222.572-.397.624-.535.16-.717.531-.792 1.073a1.146 1.146 0 0 1-.281.568c-.803.903-1.606 1.808-2.445 2.671-.343.352-.832.538-1.162.9-1.434 1.58-3.33 1.774-5.176 2.135-.165.032-.331.08-.486.15-.787.36-1.56-.249-1.531-1.16.029-.938-.025-1.877-.015-2.815a8.15 8.15 0 0 1 1.383-4.501c.215-.325.496-.656.566-1.025.107-.575.385-.926.815-1.205.505-.326.995-.616 1.162-1.365.061-.272.632-.425.984-.595.2-.098.551-.044.627-.188.472-.895 1.433-.909 2.09-1.454.131-.109.315-.217.469-.208 1.418.098 2.731-.44 4.079-.767.165-.04.342-.013.513-.017l.812 3.375Z" fill="#5C4B45"/><mask id="d" style="mask-type:alpha" maskUnits="userSpaceOnUse" x="193" y="0" width="16" height="24"><path fill-rule="evenodd" clip-rule="evenodd" d="M193.44 0h14.986v23.557H193.44V0Z" fill="#fff"/></mask><g mask="url(#d)"><path fill-rule="evenodd" clip-rule="evenodd" d="M208.426 1.216c-.692.253-1.367.594-2.076.739-1.406.287-2.386 1.342-3.389 2.258a17.563 17.563 0 0 0-2.963 3.507c-.657 1.035-.952 2.342-1.407 3.53-.076.198-.143.401-.211.603a13.795 13.795 0 0 0-.732 4.9c.033 1.198.446 2.265.489 3.435.031.854.425 1.706.725 2.53.164.448-.082.611-.3.84-2.764-2.79-4.294-6.286-4.938-10.29a14.008 14.008 0 0 1 .205-5.547c1.012-4.2 4.052-6.943 8.313-7.579 2.204-.328 4.311-.137 6.284 1.074Z" fill="#5C4B45"/></g><path fill-rule="evenodd" clip-rule="evenodd" d="M214.204 8.01c-1.152 0-2.307-.048-3.455.03-.403.028-.79.364-1.177.574-.069.037-.133.214-.155.204-.86-.373-1.335.62-2.072.693-.268.027-.649.108-.763.309-.701 1.246-1.789 1.974-2.87 2.729-.155.108-.259.317-.367.494-.228.366-.373.838-.674 1.095-.837.714-1.337 1.724-1.532 2.736-.3 1.563-.785 3.17-.299 4.817.057.193.021.418.058.623.068.37.17.732.235 1.103.047.267.057.543.084.816-.215-.117-.533-.172-.626-.36a17.92 17.92 0 0 1-.929-2.19c-.291-.851-.565-1.721-.731-2.609-.144-.77-.131-1.576-.178-2.367a14.365 14.365 0 0 1 .587-4.929c.283-.956.888-1.8 1.359-2.687.317-.598.587-1.247.993-1.764.684-.87 1.394-1.743 2.215-2.447.871-.748 1.876-1.314 2.84-1.926.242-.153.546-.217.828-.257.701-.096 1.025-.65 1.335-1.234 2.468 1.505 4.169 3.749 5.294 6.546Z" fill="#5C4B45"/><mask id="e" style="mask-type:alpha" maskUnits="userSpaceOnUse" x="186" y="28" width="9" height="20"><path fill-rule="evenodd" clip-rule="evenodd" d="M186.409 28.181h7.723v19.285h-7.723V28.181Z" fill="#fff"/></mask><g mask="url(#e)"><path fill-rule="evenodd" clip-rule="evenodd" d="M194.101 28.181c.053.456.076.88-.489.998a.653.653 0 0 0-.401.319c-.622 1.314-1.819 2.27-2.019 3.846-.012.09-.029.214-.086.255-1.124.82-1.071 2.162-1.305 3.392-.178.936-.465 1.847-.695 2.772a38.979 38.979 0 0 0-.354 1.552 1 1 0 0 0 .007.449c.385 1.403.757 2.812 1.187 4.2.138.445.443.828.651 1.25.023.048-.112.26-.139.252-.347-.101-.711-.182-1.027-.359-.612-.345-1.215-.53-1.872-.176-1.4-2.551-1.393-5.247-.692-8.015.711-2.806 2.237-5.108 3.935-7.261.993-1.258 2.192-2.322 3.299-3.474Z" fill="#5C4B45"/></g><path fill-rule="evenodd" clip-rule="evenodd" d="M195.093 27.214c.1.712-.412.679-.807.788l.807-.788ZM195.542 26.75l-.257.28.257-.28ZM196.183 26.125l-.186.197.186-.197ZM196.005 26.316c-.067.06-.135.12-.202.182l.202-.182ZM195.277 27.039l-.162.157.162-.157ZM194.29 27.998Z" fill="#A2754A"/><path fill-rule="evenodd" clip-rule="evenodd" d="M190.967 43.992c-.106-.441-.275-.878-.3-1.325-.031-.557.045-1.123.096-1.683.081-.903.164-1.805.275-2.702.036-.294.159-.574.25-.858.083-.262.267-.527.249-.777-.076-1.02.248-1.845.778-2.672.299-.467.282-1.161.5-1.71.125-.312.435-.536.667-.795.117-.131.316-.23.353-.379.173-.706.593-1.106 1.133-1.53.673-.526 1.19-1.296 1.762-1.972.777-.92 1.551-1.849 2.676-2.268.268-.1.581-.138.862-.1.39.056.775.19 1.153.323.848.302.78.27.34 1.079-.739 1.356-1.612 2.7-2.004 4.184-.355 1.345-.999 2.566-1.257 3.919a44.444 44.444 0 0 0-.588 4.375c-.159 1.784-.421 3.6-.269 5.364.15 1.743-.088 3.63.933 5.21.096.147.183.342.179.514-.002.107-.194.31-.281.297a23.96 23.96 0 0 1-2.092-.365 4.65 4.65 0 0 1-1.118-.42c-.672-.351-1.293-.84-1.988-1.105-.996-.383-1.363-1.356-1.826-2.187-.38-.686-.489-1.553-.718-2.338l.235-.079Z" fill="#5C4B45"/><path fill-rule="evenodd" clip-rule="evenodd" d="M208.875 54.811c-.433-.217-.863-.445-1.302-.648-.735-.343-1.455-.76-2.222-.981-.856-.248-1.637-.895-2.609-.65-.139.034-.337-.176-.498-.289-.187-.132-.357-.393-.546-.406-1.483-.102-1.757-1.332-2.055-2.55-.152-.618-.317-1.231-.441-1.856-.099-.495-.234-1.012-.194-1.505.082-1.026.275-2.04.409-3.063.029-.21.077-.483-.013-.636-.312-.525-.066-1.093-.157-1.585-.2-1.07.476-1.898.441-2.924-.039-1.092.158-2.208.351-3.29.146-.813.352-1.65.703-2.375.579-1.199.702-2.603 1.531-3.69.466-.612.756-1.381 1.154-2.06.298-.507.688-.803 1.298-.582.464.166.894.06 1.239-.375.067-.083.252-.053.383-.075-.016.138.01.307-.055.41-.518.828-.982 1.666-.722 2.737.006.023-.015.063-.034.082-1.097 1.111-.705 2.565-.79 3.922-.044.706-.3 1.392-.412 2.098-.046.288.021.603.062.901.061.456.296.958.189 1.352-.328 1.19.329 2.243.272 3.379-.006.117.102.255.075.357-.289 1.09-.118 2.033.384 3.068.35.722.161 1.734.325 2.592.13.676.43 1.313.656 1.967.058.17.114.34.18.505.216.548.443 1.09.654 1.639.216.566.404 1.145.629 1.706.374.932.768 1.856 1.155 2.782l-.04.043Z" fill="#5C4B45"/><path fill-rule="evenodd" clip-rule="evenodd" d="m208.909 54.769.06.11a3.6 3.6 0 0 0-.099-.067l.039-.043Z" fill="#A27347"/><path d="M189.916 70.887c-.15.377.049.799.445.942.396.143.839-.047.989-.424 1.028-2.587 2.458-3.72 4.374-3.56 1.894.157 3.639 2.498 5.082 7.053.122.386.55.605.955.488.406-.117.635-.524.513-.91-1.633-5.154-3.726-7.864-6.417-8.088-2.67-.222-4.682 1.33-5.941 4.499Z" fill="#33241F"/><path d="M195.194 70.892c-1.499 0-2.299 1.516-2.519 4.348l-.041.612c.809 1.067 1.267.906 1.373-.482.159-2.083.608-3.034 1.187-3.034l.047.002.052.01c.531.129 1.215 1.457 1.833 3.903l.059.243-.118.044c-.947.383-1.436 1.351-1.436 2.758 0 1.837.844 2.909 2.38 2.909h.382c.123-.944-.037-1.426-.48-1.446-.664-.03-.945-.421-.945-1.463 0-1.084.304-1.481 1.053-1.493l.834-.013-.25-1.133-.127-.537c-.849-3.497-1.867-5.228-3.284-5.228Z" fill="#33241F"/><mask id="f" style="mask-type:alpha" maskUnits="userSpaceOnUse" x="237" y="54" width="16" height="35"><path fill-rule="evenodd" clip-rule="evenodd" d="M237.044 54.3h15.303v33.82h-15.303V54.3Z" fill="#fff"/></mask><g mask="url(#f)"><path fill-rule="evenodd" clip-rule="evenodd" d="M237.394 88.031c-.404-.373-.516-.814-.025-1.144.452-.303.996-.439 1.477-.7.981-.53 1.967-1.058 2.91-1.664.551-.356.684-.92.24-1.53-.037-.051-.059-.118-.098-.17-1.91-2.544-2.685-5.642-3.504-8.705-.183-.682-.111-1.447-.144-2.175a29.007 29.007 0 0 1 1.071-9.326c1.484-5.231 6.129-8.74 11.118-8.275.545.05 1.134-.008 1.412.69.35.87.728 1.799.318 2.698-.167.369-.788.605-1.235.685-1.696.307-3.407.513-5.11.784-.666.105-1.325.273-1.983.43-1.584.38-2.507 1.547-2.995 3.144-2.026 6.62-1.565 12.925 2.073 18.808.137.222.276.444.401.675.803 1.493.684 2.419-.579 3.485-1.308 1.103-2.765 1.92-4.401 2.304a1.392 1.392 0 0 1-.946-.014Z" fill="#382924"/></g><mask id="g" style="mask-type:alpha" maskUnits="userSpaceOnUse" x="214" y="55" width="19" height="6"><path fill-rule="evenodd" clip-rule="evenodd" d="M214.748 55.967h17.692v4.794h-17.692v-4.794Z" fill="#fff"/></mask><g mask="url(#g)"><path fill-rule="evenodd" clip-rule="evenodd" d="M222.031 56.39c.36-.096.721-.193 1.082-.288 1.663-.14 3.326-.254 4.98.104l1.65.218c.452-.098.859.153 1.294.196.748.188 1.486.414 1.388 1.504-.121 1.36-.946 2.305-2.043 2.333a11.07 11.07 0 0 1-1.837-.096c-4.214-.603-8.411-.777-12.584.38-.34.094-.791-.186-1.155-.375-.085-.043-.081-.45-.011-.642.058-.16.259-.288.422-.37 1.933-.972 3.763-2.217 5.897-2.66.307-.097.577-.326.917-.304Z" fill="#33241F"/></g><path fill-rule="evenodd" clip-rule="evenodd" d="M233.538 96.842c-2.086-.046-3.959-.779-5.692-1.987a5.493 5.493 0 0 1-.861-.755c-.336-.356-.891-.747-.396-1.309.392-.445.906-.239 1.327.142 2.348 2.13 5.06 2.432 7.942 1.886.97-.184 1.879-.52 2.659-1.207.236-.21.489-.432.768-.534.198-.074.615-.022.654.092.092.264.131.704-.011.887-1.101 1.418-2.48 2.372-4.188 2.643-.725.115-1.467.098-2.202.142Z" fill="#3B2C27"/><path fill-rule="evenodd" clip-rule="evenodd" d="M223.61 73.135c-1.355.173-2.599-.78-3.774-1.857-.248-.228-.415-.654-.461-1.015-.02-.151.401-.55.563-.515.339.073.655.336.952.564 1.893 1.448 5.28 1.44 7.341-.376.401-.354.723-1.054 1.374-.541.393.308.164.954-.486 1.706-1.066 1.236-3.716 2.173-5.509 2.034ZM246.24 72.378c-1.231-.212-2.372-.694-3.297-1.602-.308-.304-.655-1.062-.52-1.3.296-.524.876-.264 1.326.007.374.224.725.495 1.107.7 1.868.995 3.363.744 4.851-.795.089-.091.152-.222.253-.287.341-.218.694-.416 1.042-.622-.021.55.138 1.223-.096 1.626-.753 1.306-1.957 1.953-3.335 2.217a2.086 2.086 0 0 1-1.331.056Z" fill="#3C2D29"/><path fill-rule="evenodd" clip-rule="evenodd" d="m228.1 56.206-4.982-.105c1.666-.233 3.33-.4 4.982.105ZM231.043 56.62l-1.294-.196 1.294.195Z" fill="#645855"/><path fill-rule="evenodd" clip-rule="evenodd" d="m246.243 72.378 1.331-.056c-.428.474-.873.439-1.331.056Z" fill="#9E9794"/><path fill-rule="evenodd" clip-rule="evenodd" d="M222.037 56.39Z" fill="#645855"/><path fill-rule="evenodd" clip-rule="evenodd" d="m237.396 88.031.947.014c-.321.442-.637.473-.947-.014Z" fill="#9E9794"/></svg>