<svg width="100" height="100" fill="none" xmlns="http://www.w3.org/2000/svg"><path d="M59.57 50A9.57 9.57 0 0 1 50 59.57 9.57 9.57 0 0 1 40.43 50 9.57 9.57 0 0 1 50 40.43 9.57 9.57 0 0 1 59.57 50Z" fill="#F7D59C"/><path d="M72.382 33.067a8.896 8.896 0 0 0-2.148-3.301 8.89 8.89 0 0 0-3.301-2.148c-1.012-.393-2.532-.86-5.331-.988-3.028-.138-3.936-.168-11.602-.168-7.667 0-8.575.03-11.602.168-2.8.128-4.32.595-5.33.988a8.883 8.883 0 0 0-3.302 2.148 8.902 8.902 0 0 0-2.148 3.301c-.393 1.012-.861 2.532-.988 5.332-.139 3.027-.168 3.935-.168 11.602 0 7.666.03 8.574.168 11.602.127 2.799.595 4.319.988 5.33a8.9 8.9 0 0 0 2.147 3.301 8.89 8.89 0 0 0 3.302 2.148c1.011.394 2.532.862 5.331.989 3.027.138 3.934.167 11.601.167 7.668 0 8.576-.029 11.602-.167 2.8-.127 4.32-.595 5.332-.989a9.508 9.508 0 0 0 5.449-5.449c.392-1.011.86-2.531.988-5.33.138-3.029.167-3.936.167-11.602 0-7.667-.029-8.575-.167-11.602-.127-2.8-.595-4.32-.988-5.332ZM50 64.743c-8.143 0-14.744-6.6-14.744-14.743S41.857 35.257 50 35.257c8.142 0 14.743 6.6 14.743 14.743S58.143 64.743 50 64.743Zm15.326-26.624a3.446 3.446 0 1 1 0-6.89 3.446 3.446 0 0 1 0 6.89Z" fill="#F7D59C"/><path d="M50 0C22.39 0 0 22.39 0 50s22.39 50 50 50 50-22.39 50-50S77.61 0 50 0Zm28.538 61.837c-.14 3.056-.625 5.143-1.335 6.97a14.681 14.681 0 0 1-8.397 8.396c-1.825.71-3.913 1.195-6.968 1.335-3.062.14-4.04.173-11.837.173-7.798 0-8.776-.034-11.838-.173-3.056-.14-5.143-.625-6.969-1.335a14.065 14.065 0 0 1-5.085-3.312 14.07 14.07 0 0 1-3.312-5.085c-.71-1.825-1.195-3.913-1.334-6.968-.141-3.063-.174-4.04-.174-11.838 0-7.797.033-8.775.173-11.837.14-3.056.624-5.143 1.334-6.97a14.063 14.063 0 0 1 3.313-5.084 14.062 14.062 0 0 1 5.084-3.312c1.827-.71 3.914-1.195 6.97-1.335 3.062-.14 4.04-.173 11.837-.173s8.775.034 11.837.174c3.056.139 5.143.624 6.97 1.333a14.072 14.072 0 0 1 5.085 3.313 14.067 14.067 0 0 1 3.311 5.084c.71 1.827 1.196 3.914 1.335 6.97.14 3.062.173 4.04.173 11.837s-.033 8.775-.173 11.837Z" fill="#F7D59C"/></svg>