<svg width="500" height="500" fill="none" xmlns="http://www.w3.org/2000/svg"><path d="M32.761 109.395c18.188 42.302 48.893 84.144 91.859 102.179 4.905 2.044 10.474 3.577 16.196 4.854 11.444-17.064 24.574-30.91 39.952-42.251 13.231-9.707 27.077-17.319 41.331-23.297a116.726 116.726 0 0 0-12.875-7.817c-17.881-9.35-37.244-17.575-56.096-26.414 17.728 4.803 38.061 6.591 55.023 12.773 10.576 3.883 20.334 9.248 29.428 15.634 27.129-9.248 55.484-13.693 83.787-17.064-22.939-38.113-71.883-68.716-108.77-82.56-38.522-14.46-82.152-16.248-125.016-20.692C61.32 22.032 32.76 12.223 11.865.779c-4.751-2.606-9.81 1.737-8.174 7 10.27 32.85 15.48 70.042 29.07 101.616Z" fill="#CEE5D0"/><path d="M485.671 104.388c-48.331 26.26-103.763 29.478-158.071 35.711-26.515 3.066-52.776 6.846-77.759 14.408a231.256 231.256 0 0 0-16.144 5.517c-15.787 6.029-31.012 13.948-45.368 24.523-13.487 9.911-24.523 21.662-33.821 34.588-14.816 20.64-25.136 44.396-33.617 69.073-15.48 44.805-22.582 92.421-21.202 139.781.562 19.21.868 39.186 5.62 57.936 1.073 4.138 2.094 9.4 5.313 12.465 4.189 4.036 11.7-.102 10.014-5.977-12.16-41.434-4.598-89.866 12.21-129.461 19.312-45.521 56.607-72.599 102.179-89.1 12.108-4.394 24.473-8.226 37.04-11.853.256-.102.511-.102.766-.102 2.504 0 3.577 3.678.971 4.854-14.816 6.693-29.53 13.437-43.529 20.742-68.562 35.763-98.5 119.039-72.802 119.039 2.095 0 4.547-.562 7.357-1.737 39.645-16.4 86.75-16.552 130.329-24.625 15.327-2.81 30.245-6.641 44.244-12.466 55.586-23.194 95.333-68.562 118.987-123.125 17.626-40.719 24.472-88.794 37.807-131.097 1.737-5.415-2.095-10.064-6.795-10.064-1.174-.052-2.452.255-3.729.97Z" fill="#CEE5D0"/></svg>