<svg width="50" height="50" fill="none" xmlns="http://www.w3.org/2000/svg"><g clip-path="url(#a)" fill="#B86767"><path d="M.01 34.695c0 6.574 5.33 11.903 11.903 11.903s11.902-5.329 11.902-11.903c0-6.573-5.329-11.902-11.902-11.902-1.351 0-2.644.236-3.855.65C10.736 8.083 22.716-1.824 11.611 6.329-.703 15.37-.003 34.332.011 34.68v.016ZM26.195 34.695c0 6.574 5.33 11.903 11.903 11.903S50 41.269 50 34.695c0-6.573-5.329-11.902-11.902-11.902-1.351 0-2.645.236-3.855.65C36.92 8.083 48.9-1.824 37.796 6.329c-12.314 9.042-11.614 28.004-11.6 28.351v.016Z"/></g><defs><clipPath id="a"><path fill="#fff" d="M0 0h50v50H0z"/></clipPath></defs></svg>