<svg width="100" height="100" fill="none" xmlns="http://www.w3.org/2000/svg"><path d="M50 0C22.39 0 0 22.39 0 50s22.39 50 50 50 50-22.39 50-50S77.61 0 50 0ZM35.47 75.586H23.294V38.95h12.178v36.636Zm-6.088-41.638h-.079c-4.086 0-6.73-2.813-6.73-6.329 0-3.595 2.724-6.33 6.89-6.33 4.166 0 6.73 2.735 6.809 6.33 0 3.516-2.643 6.329-6.89 6.329ZM79.38 75.586H67.204v-19.6c0-4.925-1.764-8.284-6.17-8.284-3.363 0-5.367 2.266-6.247 4.453-.322.783-.4 1.877-.4 2.972v20.459H42.21s.16-33.199 0-36.636h12.176v5.188C56.004 41.64 58.9 38.09 65.36 38.09c8.012 0 14.02 5.236 14.02 16.488v21.007Z" fill="#F7D59C"/></svg>