<svg width="380" height="491" fill="none" xmlns="http://www.w3.org/2000/svg"><path opacity=".747" fill-rule="evenodd" clip-rule="evenodd" d="m195.923 31.074 2.566 1.26c41.98 20.728 87.415 48.236 113.723 93.272 26.356 45.136 33.586 107.804 37.769 165.393l.252 3.519c4.197 58.647 5.564 111.527-9.658 145.939-15.167 34.386-46.922 50.305-85.86 49.83-38.938-.475-85.107-17.447-124.544-59.187-39.492-41.714-72.254-108.195-96.456-175.875C9.513 187.544-6.14 118.793 2.317 73.108 10.88 27.499 43.545 5.083 79.162.779c35.56-4.28 74.126 9.526 116.761 30.295Z" fill="#CC857D" fill-opacity=".5"/><path d="M217.486 336.656c41.516 0 75.17-33.654 75.17-75.17 0-41.515-33.654-75.17-75.17-75.17-41.515 0-75.17 33.655-75.17 75.17 0 41.516 33.655 75.17 75.17 75.17Z" fill="#1B3968"/><path d="M217.486 317.629c31.007 0 56.143-25.136 56.143-56.143 0-31.006-25.136-56.142-56.143-56.142-31.006 0-56.142 25.136-56.142 56.142 0 31.007 25.136 56.143 56.142 56.143Z" fill="#CEE5D0"/><path d="m296.669 331.696-9.013 9.013c-4.219 4.219-4.219 11.059 0 15.278l52.525 52.525c4.219 4.219 11.059 4.219 15.278 0l9.013-9.013c4.219-4.219 4.219-11.059 0-15.278l-52.525-52.525c-4.219-4.219-11.059-4.219-15.278 0Z" fill="#1B3968"/><path d="m299.707 329.566-.02.02a10.715 10.715 0 0 0-2.988 2.109l-9.004 9.004a10.715 10.715 0 0 0-2.109 2.988l-.02.02-22.461-22.461a75.744 75.744 0 0 0 14.141-14.141l22.461 22.461ZM257.334 261.33a3.418 3.418 0 0 1-3.4-3.115 36.684 36.684 0 0 0-26.815-32.031 3.422 3.422 0 0 1-1.835-5.406 3.434 3.434 0 0 1 1.016-.877 3.433 3.433 0 0 1 2.614-.313 43.552 43.552 0 0 1 31.836 38.029 3.423 3.423 0 0 1-3.104 3.711l-.312.002ZM202.598 227.76a3.42 3.42 0 0 1-3.356-2.77 3.415 3.415 0 0 1 2.082-3.82 43.163 43.163 0 0 1 11.977-2.91 3.418 3.418 0 1 1 .652 6.806 36.245 36.245 0 0 0-10.082 2.45 3.406 3.406 0 0 1-1.273.244Z" fill="#6D7A84"/></svg>