<svg width="697" height="515" viewBox="0 0 697 515" fill="none" xmlns="http://www.w3.org/2000/svg">
<path d="M327.542 432.331C327.542 432.331 336.413 418.101 347.802 426.515C359.191 434.928 380.283 449.125 380.283 449.125C380.283 449.125 384.603 458.205 373.422 454.794C362.241 451.383 325.74 445.895 325.74 445.895L327.542 432.331Z" fill="#72351B"/>
<path d="M79.6293 341.959C82.4563 319.733 96.5442 297.834 118.224 290.601C109.674 313.478 109.676 338.574 118.229 361.45C121.56 370.26 126.203 379.72 123.07 388.6C121.12 394.125 116.351 398.352 111.02 400.995C105.688 403.638 99.7708 404.898 93.9278 406.133L92.7778 407.062C83.5022 386.584 76.8024 364.185 79.6293 341.959Z" fill="#CEE5D0"/>
<path d="M118.439 291.022C105.814 304.853 97.9668 322.222 96.0128 340.661C95.52 344.624 95.6691 348.637 96.4546 352.554C97.3459 356.345 99.2594 359.834 101.996 362.658C104.494 365.341 107.366 367.803 109.153 371.033C110.043 372.7 110.562 374.531 110.677 376.408C110.792 378.285 110.5 380.164 109.82 381.922C108.242 386.347 105.132 389.954 101.966 393.377C98.4501 397.178 94.7367 401.072 93.2423 406.111C93.0612 406.722 92.1028 406.412 92.2836 405.802C94.8837 397.034 103.589 392.054 107.74 384.157C109.677 380.472 110.49 376.194 108.674 372.305C107.086 368.903 104.126 366.362 101.573 363.667C98.862 360.95 96.8724 357.626 95.7782 353.985C94.7913 350.119 94.4843 346.118 94.8703 342.152C95.5938 333.21 97.7508 324.435 101.262 316.148C105.216 306.668 110.799 297.92 117.771 290.281C118.202 289.809 118.868 290.552 118.439 291.022V291.022Z" fill="white"/>
<path d="M96.2846 334.688C93.1649 333.947 90.416 332.146 88.5288 329.607C86.6416 327.068 85.739 323.955 85.9823 320.826C86.0337 320.192 87.0424 320.241 86.9909 320.875C86.7589 323.789 87.5999 326.688 89.3622 329.049C91.1245 331.41 93.6919 333.077 96.6011 333.75C97.2331 333.897 96.913 334.834 96.2846 334.688Z" fill="white"/>
<path d="M100.547 361.461C106.181 358.171 110.341 352.926 112.196 346.771C112.379 346.162 113.337 346.472 113.154 347.081C111.212 353.482 106.872 358.932 101.001 362.342C100.441 362.667 99.9897 361.784 100.547 361.461V361.461Z" fill="white"/>
<path d="M106.153 307.603C107.299 308.136 108.562 308.382 109.829 308.319C111.097 308.256 112.328 307.886 113.413 307.243C113.968 306.912 114.419 307.796 113.867 308.125C112.665 308.83 111.304 309.237 109.905 309.309C108.505 309.382 107.108 309.118 105.836 308.541C105.712 308.496 105.609 308.407 105.55 308.291C105.49 308.175 105.478 308.042 105.515 307.917C105.558 307.794 105.649 307.691 105.768 307.632C105.887 307.573 106.026 307.563 106.153 307.603V307.603Z" fill="white"/>
<path d="M184.305 330.299C183.964 330.516 183.624 330.733 183.282 330.958C178.717 333.893 174.403 337.186 170.382 340.805C170.067 341.08 169.752 341.363 169.445 341.646C159.854 350.465 152.022 360.949 146.345 372.563C144.091 377.187 142.199 381.972 140.687 386.876C138.6 393.649 136.887 401.156 132.754 406.696C132.33 407.278 131.869 407.835 131.374 408.362H94.0273C93.9424 408.32 93.8571 408.287 93.7718 408.245L92.2807 408.312C92.3406 408.054 92.4084 407.787 92.4683 407.529C92.5024 407.379 92.5449 407.229 92.579 407.079C92.6044 406.979 92.6302 406.879 92.6472 406.787C92.6556 406.754 92.6643 406.721 92.6726 406.696C92.6897 406.604 92.7155 406.521 92.7325 406.437C93.1074 404.946 93.4936 403.455 93.8912 401.964C93.8912 401.955 93.8912 401.955 93.8996 401.947C96.9588 390.592 101.015 379.386 106.681 369.139C106.851 368.831 107.021 368.514 107.209 368.206C109.789 363.601 112.75 359.21 116.062 355.076C117.883 352.819 119.82 350.652 121.865 348.586C127.16 343.257 133.278 338.776 139.997 335.306C153.392 328.392 168.9 325.742 183.215 329.966C183.581 330.075 183.939 330.183 184.305 330.299Z" fill="#CEE5D0"/>
<path d="M184.221 330.763C165.624 334.374 148.663 343.623 135.748 357.196C132.915 360.07 130.563 363.362 128.778 366.952C127.155 370.504 126.534 374.416 126.981 378.282C127.323 381.894 128.1 385.551 127.538 389.182C127.222 391.036 126.509 392.804 125.445 394.37C124.381 395.936 122.991 397.265 121.365 398.268C117.381 400.873 112.677 401.922 108.041 402.791C102.893 403.756 97.53 404.68 93.2336 407.823C92.7131 408.204 92.139 407.392 92.6588 407.012C100.134 401.542 110.151 402.69 118.328 398.828C122.144 397.027 125.427 394.09 126.373 389.915C127.199 386.264 126.4 382.493 126.022 378.838C125.53 375.073 125.988 371.248 127.357 367.696C128.949 364.029 131.168 360.653 133.918 357.714C140.002 351 147.128 345.263 155.035 340.714C164.029 335.472 173.874 331.774 184.144 329.779C184.779 329.655 184.853 330.641 184.221 330.763H184.221Z" fill="white"/>
<path d="M139.644 352.586C137.609 350.158 136.523 347.102 136.58 343.964C136.637 340.826 137.833 337.809 139.954 335.454C140.385 334.978 141.161 335.611 140.729 336.087C138.749 338.277 137.636 341.087 137.589 344.009C137.542 346.932 138.565 349.774 140.474 352.024C140.888 352.513 140.056 353.073 139.644 352.586H139.644Z" fill="white"/>
<path d="M126.56 376.472C133.085 377.162 139.636 375.423 144.907 371.601C145.429 371.222 146.003 372.034 145.482 372.412C139.989 376.38 133.168 378.176 126.38 377.443C125.733 377.373 125.917 376.402 126.56 376.472V376.472Z" fill="white"/>
<path d="M164.201 336.77C164.788 337.87 165.645 338.81 166.696 339.506C167.746 340.202 168.957 340.631 170.22 340.756C170.867 340.819 170.682 341.79 170.039 341.728C168.645 341.583 167.309 341.107 166.146 340.341C164.984 339.575 164.031 338.542 163.371 337.332C163.299 337.224 163.272 337.092 163.296 336.964C163.319 336.837 163.392 336.723 163.498 336.646C163.609 336.572 163.744 336.543 163.876 336.567C164.007 336.59 164.124 336.663 164.201 336.77V336.77Z" fill="white"/>
<path d="M380.832 489.265C381.928 480.652 387.388 472.165 395.79 469.362C392.476 478.227 392.477 487.954 395.792 496.819C397.083 500.233 398.882 503.9 397.668 507.341C396.798 509.468 395.126 511.188 392.998 512.145C390.886 513.082 388.66 513.752 386.374 514.136L385.928 514.496C382.333 506.56 379.737 497.879 380.832 489.265Z" fill="#CEE5D0"/>
<path d="M395.873 469.525C390.98 474.885 387.939 481.616 387.182 488.762C386.991 490.298 387.049 491.854 387.353 493.372C387.699 494.841 388.44 496.193 389.501 497.287C390.556 498.256 391.488 499.345 392.275 500.533C392.619 501.179 392.821 501.889 392.865 502.616C392.91 503.343 392.797 504.072 392.533 504.753C391.833 506.417 390.798 507.927 389.489 509.193C388.127 510.666 386.688 512.175 386.108 514.128C386.038 514.364 385.667 514.244 385.737 514.008C386.744 510.61 390.118 508.68 391.727 505.619C392.142 504.931 392.39 504.16 392.452 503.364C392.515 502.568 392.391 501.768 392.089 501.026C391.359 499.774 390.43 498.644 389.337 497.678C388.286 496.626 387.515 495.337 387.091 493.926C386.709 492.428 386.59 490.877 386.739 489.34C387.02 485.875 387.856 482.474 389.216 479.262C390.749 475.588 392.913 472.198 395.614 469.238C395.782 469.054 396.039 469.343 395.873 469.525H395.873Z" fill="white"/>
<path d="M387.287 486.447C386.078 486.16 385.013 485.462 384.281 484.478C383.55 483.494 383.2 482.288 383.295 481.075C383.314 480.83 383.705 480.848 383.685 481.094C383.595 482.223 383.921 483.347 384.604 484.262C385.287 485.177 386.282 485.823 387.41 486.084C387.655 486.141 387.531 486.504 387.287 486.447H387.287Z" fill="white"/>
<path d="M388.939 496.823C391.123 495.548 392.735 493.516 393.453 491.13C393.525 490.894 393.896 491.014 393.825 491.25C393.072 493.731 391.39 495.843 389.115 497.165C388.898 497.291 388.723 496.948 388.939 496.823V496.823Z" fill="white"/>
<path d="M391.112 475.951C391.556 476.157 392.045 476.252 392.537 476.228C393.028 476.204 393.505 476.06 393.925 475.811C394.141 475.683 394.315 476.025 394.101 476.153C393.635 476.426 393.108 476.584 392.566 476.612C392.023 476.64 391.482 476.538 390.989 476.314C390.941 476.297 390.901 476.262 390.878 476.217C390.855 476.172 390.85 476.121 390.865 476.073C390.881 476.024 390.916 475.985 390.963 475.962C391.009 475.939 391.062 475.935 391.112 475.951L391.112 475.951Z" fill="white"/>
<path d="M421.4 484.747C421.268 484.831 421.136 484.915 421.004 485.002C419.234 486.139 417.562 487.416 416.004 488.818C415.882 488.925 415.76 489.034 415.641 489.144C411.924 492.562 408.888 496.625 406.688 501.126C405.815 502.918 405.082 504.772 404.496 506.673C403.686 509.298 403.023 512.207 401.421 514.354C401.257 514.58 401.078 514.796 400.886 515H386.412C386.38 514.984 386.346 514.971 386.313 514.955L385.735 514.981C385.759 514.881 385.785 514.777 385.808 514.677C385.821 514.619 385.838 514.561 385.851 514.503C385.861 514.464 385.871 514.425 385.878 514.39C385.881 514.377 385.884 514.364 385.887 514.354C385.894 514.319 385.904 514.286 385.911 514.254C386.056 513.676 386.206 513.098 386.36 512.52L386.363 512.514C387.494 508.099 389.157 503.831 391.316 499.799C391.382 499.68 391.448 499.557 391.521 499.437C392.521 497.653 393.668 495.951 394.952 494.349C395.658 493.474 396.408 492.635 397.201 491.834C399.253 489.769 401.624 488.032 404.228 486.687C409.419 484.007 415.429 482.981 420.977 484.618C421.119 484.66 421.258 484.701 421.4 484.747Z" fill="#CEE5D0"/>
<path d="M421.367 484.926C414.16 486.326 407.587 489.91 402.582 495.17C401.483 496.284 400.572 497.56 399.88 498.951C399.251 500.328 399.011 501.844 399.184 503.342C399.43 504.737 399.503 506.155 399.4 507.567C399.277 508.285 399.001 508.971 398.589 509.577C398.176 510.184 397.637 510.699 397.007 511.088C395.423 512.005 393.667 512.601 391.843 512.841C389.848 513.215 387.77 513.573 386.105 514.791C385.903 514.939 385.681 514.624 385.882 514.477C388.779 512.357 392.661 512.802 395.83 511.305C396.585 511 397.258 510.53 397.799 509.931C398.339 509.333 398.732 508.621 398.948 507.851C399.136 506.422 399.09 504.973 398.812 503.558C398.621 502.099 398.799 500.616 399.329 499.24C399.946 497.818 400.806 496.51 401.872 495.371C404.23 492.769 406.992 490.546 410.056 488.783C413.542 486.751 417.357 485.318 421.337 484.545C421.584 484.497 421.612 484.879 421.367 484.926H421.367Z" fill="white"/>
<path d="M404.091 493.384C403.303 492.443 402.882 491.259 402.904 490.042C402.926 488.826 403.389 487.657 404.211 486.744C404.378 486.56 404.679 486.805 404.512 486.989C403.745 487.838 403.313 488.927 403.295 490.06C403.277 491.193 403.673 492.294 404.413 493.166C404.573 493.356 404.251 493.573 404.091 493.384Z" fill="white"/>
<path d="M399.021 502.641C401.549 502.909 404.088 502.235 406.131 500.753C406.333 500.606 406.556 500.921 406.354 501.068C404.225 502.605 401.581 503.302 398.951 503.018C398.7 502.99 398.771 502.614 399.021 502.641H399.021Z" fill="white"/>
<path d="M413.608 487.254C413.836 487.681 414.168 488.045 414.575 488.315C414.982 488.584 415.452 488.751 415.941 488.799C416.192 488.823 416.12 489.2 415.871 489.176C415.331 489.12 414.813 488.935 414.362 488.638C413.912 488.341 413.543 487.941 413.287 487.472C413.259 487.43 413.248 487.379 413.258 487.33C413.267 487.28 413.295 487.236 413.336 487.206C413.379 487.178 413.431 487.167 413.482 487.176C413.533 487.185 413.579 487.213 413.608 487.254V487.254Z" fill="white"/>
<path d="M629.505 306.298C625.16 272.135 603.506 238.476 570.184 227.359C583.326 262.521 583.323 301.095 570.176 336.255C565.056 349.797 557.919 364.338 562.735 377.986C565.732 386.479 573.063 392.976 581.257 397.039C589.452 401.101 598.547 403.038 607.528 404.935L609.295 406.365C623.553 374.888 633.851 340.46 629.505 306.298Z" fill="#CEE5D0"/>
<path d="M569.854 228.004C589.259 249.263 601.32 275.96 604.323 304.303C604.929 310.379 605.003 316.594 603.644 322.583C602.274 328.41 599.333 333.773 595.127 338.113C591.288 342.237 586.872 346.021 584.125 350.986C581.23 356.219 581.119 362.164 583.101 367.723C585.526 374.524 590.306 380.067 595.173 385.33C600.577 391.172 606.285 397.157 608.582 404.903C608.86 405.841 610.333 405.364 610.055 404.427C606.059 390.951 592.679 383.296 586.298 371.158C583.321 365.494 582.071 358.919 584.862 352.94C587.303 347.712 591.853 343.806 595.777 339.664C599.897 335.314 603.056 330.541 604.684 324.781C606.349 318.89 606.523 312.659 606.079 306.595C604.967 292.85 601.652 279.362 596.255 266.625C590.177 252.054 581.595 238.608 570.88 226.867C570.217 226.14 569.195 227.283 569.854 228.005L569.854 228.004Z" fill="white"/>
<path d="M603.906 295.121C608.701 293.983 612.926 291.215 615.827 287.312C618.727 283.409 620.115 278.625 619.741 273.814C619.662 272.841 618.111 272.916 618.19 273.89C618.547 278.369 617.254 282.825 614.546 286.454C611.837 290.083 607.891 292.646 603.419 293.68C602.448 293.906 602.94 295.346 603.906 295.121H603.906Z" fill="white"/>
<path d="M597.355 336.273C588.694 331.217 582.301 323.155 579.45 313.695C579.168 312.757 577.695 313.234 577.976 314.17C580.962 324.009 587.633 332.386 596.657 337.628C597.517 338.127 598.211 336.769 597.355 336.273V336.273Z" fill="white"/>
<path d="M588.738 253.492C586.976 254.31 585.034 254.688 583.087 254.591C581.139 254.495 579.246 253.926 577.579 252.938C576.725 252.428 576.033 253.787 576.881 254.293C578.728 255.377 580.819 256.002 582.971 256.113C585.123 256.225 587.27 255.819 589.224 254.932C589.416 254.864 589.573 254.727 589.665 254.549C589.756 254.371 589.775 254.165 589.718 253.974C589.652 253.784 589.513 253.626 589.329 253.536C589.146 253.445 588.933 253.43 588.738 253.492V253.492Z" fill="white"/>
<path d="M468.614 288.376C469.138 288.709 469.661 289.042 470.186 289.388C477.203 293.9 483.835 298.962 490.014 304.524C490.499 304.946 490.983 305.382 491.455 305.817C506.196 319.372 518.235 335.485 526.96 353.338C530.425 360.444 533.332 367.799 535.656 375.337C538.865 385.748 541.498 397.285 547.85 405.801C548.502 406.697 549.211 407.552 549.972 408.362H607.375C607.506 408.298 607.637 408.247 607.768 408.183L610.06 408.285C609.968 407.888 609.863 407.478 609.771 407.081C609.719 406.851 609.654 406.62 609.601 406.39C609.562 406.236 609.523 406.082 609.496 405.942C609.484 405.89 609.47 405.839 609.457 405.801C609.431 405.66 609.391 405.532 609.365 405.404C608.789 403.112 608.195 400.82 607.584 398.527C607.584 398.515 607.584 398.515 607.571 398.502C602.869 381.048 596.635 363.825 587.926 348.075C587.664 347.601 587.402 347.114 587.114 346.64C583.148 339.562 578.597 332.813 573.506 326.459C570.707 322.989 567.73 319.66 564.587 316.484C556.449 308.293 547.044 301.405 536.717 296.072C516.129 285.444 492.293 281.372 470.29 287.864C469.727 288.031 469.177 288.197 468.614 288.376Z" fill="#CEE5D0"/>
<path d="M468.743 289.089C497.328 294.639 523.397 308.855 543.248 329.717C547.473 334.212 551.358 339.131 553.962 344.713C556.456 350.172 557.41 356.185 556.724 362.127C556.198 367.679 555.003 373.3 555.867 378.881C556.778 384.763 560.35 389.576 565.355 392.848C571.48 396.85 578.71 398.463 585.836 399.799C593.749 401.283 601.991 402.702 608.595 407.534C609.395 408.12 610.277 406.871 609.479 406.287C597.989 397.879 582.592 399.644 570.023 393.708C564.159 390.939 559.112 386.424 557.659 380.008C556.388 374.396 557.616 368.6 558.198 362.982C558.809 357.083 558.393 351.413 556.146 345.856C553.847 340.172 550.15 335.094 546.061 330.514C536.71 320.194 525.757 311.376 513.604 304.383C499.779 296.327 484.647 290.642 468.862 287.575C467.885 287.386 467.772 288.9 468.743 289.088V289.089Z" fill="white"/>
<path d="M537.26 322.632C540.388 318.901 542.057 314.203 541.97 309.38C541.882 304.556 540.044 299.919 536.783 296.298C536.121 295.568 534.929 296.54 535.592 297.271C538.635 300.638 540.347 304.957 540.419 309.449C540.491 313.941 538.918 318.31 535.984 321.768C535.348 322.52 536.627 323.38 537.26 322.632L537.26 322.632Z" fill="white"/>
<path d="M557.37 359.346C547.342 360.407 537.273 357.734 529.171 351.859C528.369 351.276 527.486 352.524 528.287 353.106C536.73 359.204 547.214 361.965 557.647 360.839C558.642 360.731 558.359 359.238 557.37 359.346V359.346Z" fill="white"/>
<path d="M499.515 298.322C498.613 300.013 497.295 301.457 495.68 302.527C494.065 303.596 492.204 304.257 490.264 304.449C489.269 304.545 489.553 306.037 490.541 305.942C492.684 305.72 494.738 304.988 496.525 303.81C498.312 302.632 499.776 301.045 500.791 299.186C500.901 299.019 500.943 298.817 500.906 298.62C500.87 298.424 500.758 298.249 500.595 298.131C500.425 298.017 500.217 297.973 500.015 298.009C499.812 298.045 499.633 298.158 499.515 298.322V298.322Z" fill="white"/>
<path d="M696.426 409.195H0.852078C0.626093 409.195 0.409363 409.107 0.249567 408.951C0.0897716 408.795 0 408.583 0 408.362C0 408.141 0.0897716 407.929 0.249567 407.773C0.409363 407.617 0.626093 407.529 0.852078 407.529H696.148C696.374 407.529 696.591 407.617 696.75 407.773C696.91 407.929 697 408.141 697 408.362C697 408.822 696.897 409.195 696.426 409.195Z" fill="#F7D59C"/>
<path d="M243.973 482.509H90.3203C90.0943 482.509 89.8776 482.421 89.7178 482.265C89.558 482.108 89.4682 481.896 89.4682 481.676C89.4682 481.455 89.558 481.243 89.7178 481.086C89.8776 480.93 90.0943 480.842 90.3203 480.842H243.694C243.92 480.842 244.137 480.93 244.297 481.086C244.457 481.243 244.546 481.455 244.546 481.676C244.546 482.136 244.443 482.509 243.973 482.509Z" fill="#F7D59C"/>
<path d="M485.111 515H331.458C331.232 515 331.016 514.912 330.856 514.756C330.696 514.6 330.606 514.388 330.606 514.167C330.606 513.946 330.696 513.734 330.856 513.578C331.016 513.422 331.232 513.334 331.458 513.334H484.832C485.058 513.334 485.275 513.422 485.435 513.578C485.595 513.734 485.685 513.946 485.685 514.167C485.685 514.627 485.581 515 485.111 515Z" fill="#F7D59C"/>
<path d="M629.964 481.676H476.312C476.086 481.676 475.869 481.588 475.709 481.432C475.55 481.275 475.46 481.063 475.46 480.842C475.46 480.621 475.55 480.41 475.709 480.253C475.869 480.097 476.086 480.009 476.312 480.009H629.686C629.912 480.009 630.129 480.097 630.288 480.253C630.448 480.41 630.538 480.621 630.538 480.842C630.538 481.303 630.435 481.676 629.964 481.676Z" fill="#F7D59C"/>
<path d="M283.962 450.017C274.417 450.017 265.679 449.123 258.736 447.009C250.484 444.497 245.302 440.434 243.334 434.924C242.409 432.585 242.132 430.048 242.533 427.571C242.934 425.094 243.997 422.764 245.615 420.818C257.823 405.264 300.187 400.878 305.872 400.359L317.404 379.009C318.142 373.915 314.651 370.058 320.682 369.962L392.031 369.014C397.954 368.893 396.273 372.479 397.287 377.446L408.158 396.419L361.373 415.725L368.447 432.578L367.985 432.84C354.293 440.606 314.915 450.016 283.962 450.017Z" fill="#2F2E41"/>
<path d="M401.681 397.23C401.681 397.23 467.018 389.919 462.757 419.162C458.496 448.404 408.783 469.118 333.502 419.162L342.025 404.54C342.025 404.54 370.077 403.176 387.122 395.865L401.681 397.23Z" fill="#22344E"/>
<path d="M309.18 264.748C309.18 264.748 296.762 262.541 293.375 281.305C289.988 300.07 284.563 344.519 284.563 344.519L267.718 401.615C265.731 402.646 264.086 404.209 262.973 406.12C261.861 408.032 261.328 410.213 261.436 412.41C261.544 414.607 262.29 416.728 263.585 418.526C264.88 420.324 266.672 421.724 268.751 422.564C270.83 423.404 273.11 423.647 275.326 423.267C277.541 422.887 279.6 421.898 281.262 420.416C282.925 418.935 284.121 417.021 284.713 414.899C285.304 412.777 285.266 410.535 284.602 408.433L307.141 347.835L311.438 295.659V268.32C311.438 267.579 311.226 266.852 310.828 266.221C310.429 265.59 309.858 265.08 309.18 264.748V264.748Z" fill="#72351B"/>
<path d="M396.589 264.748C396.589 264.748 409.008 262.541 412.394 281.305C415.781 300.07 421.206 344.519 421.206 344.519L438.051 401.615C440.038 402.646 441.684 404.209 442.796 406.12C443.908 408.032 444.441 410.213 444.333 412.41C444.225 414.607 443.48 416.728 442.184 418.526C440.889 420.324 439.097 421.724 437.018 422.564C434.939 423.404 432.659 423.647 430.443 423.267C428.228 422.887 426.169 421.898 424.507 420.416C422.845 418.935 421.648 417.021 421.056 414.899C420.465 412.777 420.503 410.535 421.167 408.433L398.628 347.835L394.332 295.659V268.32C394.332 267.579 394.543 266.852 394.942 266.221C395.34 265.59 395.911 265.08 396.589 264.748V264.748Z" fill="#72351B"/>
<path d="M395.643 249.238L372.153 240.648L326.624 240.074L307.027 249.238L312.531 280.168C312.531 280.168 301.418 298.567 313.654 316.968L316.399 382.535C316.399 382.535 360.295 407.423 397.347 377.537L388.973 316.575C388.973 316.575 402.98 288.291 392.123 277.783L395.643 249.238Z" fill="#B86767"/>
<path d="M386.076 258.849L395.643 249.238C395.643 249.238 416.523 259.976 416.093 295.892L389.754 287.955L386.076 258.849Z" fill="#B86767"/>
<path d="M317.655 258.85L307.49 248.911C307.49 248.911 289.555 262.476 289.985 298.391L313.977 287.955L317.655 258.85Z" fill="#B86767"/>
<path d="M383.916 425.226C383.916 425.226 376.599 410.174 364.38 417.39C352.161 424.605 329.679 436.59 329.679 436.59C329.679 436.59 324.421 445.184 335.903 442.923C347.385 440.663 384.271 438.899 384.271 438.899L383.916 425.226Z" fill="#72351B"/>
<path d="M363.589 156.166C363.692 156.068 363.8 155.981 363.902 155.882C370.441 149.489 371.766 140.42 366.862 135.625C362.228 131.094 353.692 132.009 347.249 137.518C341.725 132.376 334.318 130.942 329.524 134.492C323.995 138.585 324.038 147.746 329.62 154.954C330.002 155.447 330.404 155.914 330.815 156.363C323.387 159.021 316.973 163.847 312.442 170.187C307.91 176.526 305.48 184.074 305.48 191.809V227.732C305.48 228.786 305.692 229.829 306.105 230.802C306.517 231.775 307.121 232.66 307.883 233.405C308.645 234.149 309.55 234.74 310.545 235.143C311.54 235.546 312.607 235.754 313.685 235.754H381.591C383.694 235.754 385.711 234.937 387.198 233.483C388.685 232.029 389.52 230.058 389.52 228.002V191.809C389.519 183.97 387.022 176.327 382.375 169.939C377.728 163.552 371.162 158.738 363.589 156.166Z" fill="#2F2E41"/>
<path d="M371.359 222.942C383.943 210.638 383.943 190.689 371.359 178.385C358.774 166.081 338.371 166.081 325.787 178.385C313.203 190.689 313.203 210.638 325.787 222.942C338.371 235.246 358.774 235.246 371.359 222.942Z" fill="#72351B"/>
<path d="M314.713 180.846C322.077 185.808 330.817 188.449 339.76 188.414C336.57 190.577 332.938 192.038 329.115 192.696C341.006 195.19 353.295 195.257 365.213 192.894C367.862 192.479 370.419 191.621 372.77 190.357C373.941 189.717 374.962 188.843 375.766 187.792C376.569 186.742 377.138 185.537 377.434 184.258C378.226 179.834 374.701 175.815 371.037 173.106C365.427 169.022 358.96 166.209 352.102 164.869C345.244 163.529 338.167 163.696 331.383 165.359C326.953 166.478 322.516 168.37 319.638 171.848C316.761 175.326 315.909 180.688 318.65 184.27L314.713 180.846Z" fill="#2F2E41"/>
<path d="M142.356 117.974L143.372 116.635L170.425 136.255C168.954 131.874 163.751 117.986 155.22 112.445C145.029 105.825 137.859 107.884 133.953 113.633C130.047 119.381 130.883 126.642 141.074 133.262C149.713 138.874 165.102 138.094 169.591 137.726L142.356 117.974Z" fill="#CEE5D0"/>
<path d="M549.392 10.5572L550.648 11.684L527.877 35.9504C532.486 34.9763 547.155 31.3606 553.679 23.6416C561.473 14.42 560.124 7.23349 554.682 2.83695C549.241 -1.55959 541.768 -1.50136 533.974 7.72024C527.367 15.537 526.56 30.583 526.468 34.9872L549.392 10.5572Z" fill="#CEE5D0"/>
<path d="M182.146 269.655L183.402 270.781L160.631 295.048C165.24 294.074 179.909 290.458 186.433 282.739C194.227 273.517 192.878 266.331 187.437 261.934C181.995 257.538 174.523 257.596 166.728 266.818C160.121 274.634 159.315 289.68 159.222 294.085L182.146 269.655Z" fill="#CEE5D0"/>
<path d="M374.696 38.3647L376.172 39.1994L359.303 67.7042C363.588 65.7792 377.11 59.1492 381.774 50.234C387.345 39.5834 384.44 32.8518 378.155 29.709C371.87 26.5662 364.587 28.2021 359.016 38.8528C354.293 47.8809 356.831 62.7419 357.714 67.0616L374.696 38.3647Z" fill="#CEE5D0"/>
<path d="M532.331 216.65L533.806 217.485L516.937 245.99C521.222 244.065 534.745 237.435 539.408 228.52C544.98 217.869 542.074 211.137 535.79 207.995C529.505 204.852 522.222 206.488 516.65 217.138C511.927 226.167 514.465 241.027 515.348 245.347L532.331 216.65Z" fill="#CEE5D0"/>
</svg>
