<svg width="537" height="585" viewBox="0 0 537 585" fill="none" xmlns="http://www.w3.org/2000/svg">
<path opacity="0.74707" fill-rule="evenodd" clip-rule="evenodd" d="M505.223 289.923L503.963 292.489C483.235 334.469 455.727 379.904 410.691 406.212C365.555 432.568 302.887 439.798 245.298 443.981L241.779 444.233C183.132 448.43 130.252 449.797 95.84 434.575C61.4538 419.408 45.5353 387.653 46.0103 348.715C46.4853 309.777 63.4575 263.608 105.197 224.171C146.911 184.68 213.392 151.917 281.073 127.715C348.753 103.513 417.504 87.8598 463.189 96.3168C508.798 104.88 531.214 137.545 535.518 173.162C539.798 208.722 525.992 247.288 505.223 289.923Z" fill="#CEE5D0" fill-opacity="0.5"/>
<path fill-rule="evenodd" clip-rule="evenodd" d="M208.467 154.426C208.467 154.426 206.975 184.603 187.842 195.255C170.482 204.919 207.26 261 246.825 257.655C268.483 255.823 273.558 201.337 273.558 201.337C273.558 201.337 256.071 198.228 262.53 173.695L208.467 154.426Z" fill="#7D4439"/>
<path fill-rule="evenodd" clip-rule="evenodd" d="M240.025 184.94C214.365 182.089 195.846 166.589 193.253 140.876C185.794 141.967 184.034 124.11 186.112 118.374C188.191 112.63 194.979 115.988 194.979 115.988C194.979 115.988 195.543 114.627 195.937 113.137C207.147 70.8963 238.542 72.5717 238.542 72.5717C296.232 75.3328 282.715 129.443 279.419 143.798C276.122 158.154 264.83 187.693 240.025 184.94Z" fill="#7D4439"/>
<path fill-rule="evenodd" clip-rule="evenodd" d="M187.769 192.177C187.769 192.177 122.321 215.652 108.972 227.943C95.6234 240.234 71.0332 323.358 71.0332 323.358C71.0332 323.358 114.593 332.415 144.102 326.269L146.561 317.536L132.019 442.848C132.019 442.848 235.55 459.987 325.12 433.209L330.356 322.891C330.356 322.891 364.672 325.569 387.939 321.285C387.939 321.285 365.253 240.956 343.15 224.89C321.05 208.825 266.286 195.594 266.286 195.594C266.286 195.594 262.714 212.441 227.522 210.949C201.818 209.86 191.647 196.657 187.769 192.177Z" fill="#F7D59C"/>
<path fill-rule="evenodd" clip-rule="evenodd" d="M139.942 324.881L137.548 324.54L143.649 288.242L146.043 288.583L139.942 324.881Z" fill="#204EB2"/>
<path fill-rule="evenodd" clip-rule="evenodd" d="M324.979 322.603L318.878 286.305L321.273 285.964L327.373 322.262L324.979 322.603Z" fill="#204EB2"/>
<mask id="mask0" style="mask-type:alpha" maskUnits="userSpaceOnUse" x="70" y="192" width="318" height="257">
<path fill-rule="evenodd" clip-rule="evenodd" d="M108.8 228.345C95.4515 240.637 70.8613 323.761 70.8613 323.761C70.8613 323.761 114.421 332.817 143.929 326.672L146.388 317.939L131.848 443.251C131.848 443.251 235.378 460.389 324.95 433.612L330.182 323.294C330.182 323.294 364.499 325.972 387.765 321.688C387.765 321.688 365.08 241.359 342.98 225.293C320.877 209.228 266.114 195.996 266.114 195.996C266.114 195.996 262.542 212.844 227.349 211.352C201.647 210.263 191.475 197.059 187.597 192.58C187.597 192.58 122.15 216.055 108.8 228.345Z" fill="white"/>
</mask>
<g mask="url(#mask0)">
<path fill-rule="evenodd" clip-rule="evenodd" d="M230.003 450.709C227.906 450.709 223.558 450.148 220.671 445.907C217.505 441.257 219.979 436.857 221.73 435.181C222.45 434.491 223.641 434.469 224.39 435.132C225.139 435.795 225.162 436.892 224.442 437.582C224.145 437.876 221.52 440.632 223.86 444.068C226.353 447.732 230.458 447.237 230.632 447.215C231.655 447.081 232.611 447.728 232.766 448.668C232.92 449.609 232.229 450.486 231.209 450.638C231.142 450.646 230.695 450.709 230.003 450.709Z" fill="#204EB2"/>
</g>
<mask id="mask1" style="mask-type:alpha" maskUnits="userSpaceOnUse" x="70" y="192" width="318" height="257">
<path fill-rule="evenodd" clip-rule="evenodd" d="M108.8 228.345C95.4515 240.637 70.8613 323.761 70.8613 323.761C70.8613 323.761 114.421 332.817 143.929 326.672L146.388 317.939L131.848 443.251C131.848 443.251 235.378 460.389 324.95 433.612L330.182 323.294C330.182 323.294 364.499 325.972 387.765 321.688C387.765 321.688 365.08 241.359 342.98 225.293C320.877 209.228 266.114 195.996 266.114 195.996C266.114 195.996 262.542 212.844 227.349 211.352C201.647 210.263 191.475 197.059 187.597 192.58C187.597 192.58 122.15 216.055 108.8 228.345Z" fill="white"/>
</mask>
<g mask="url(#mask1)">
<path fill-rule="evenodd" clip-rule="evenodd" d="M213.229 381.482C212.399 381.482 211.64 380.972 211.414 380.199C211.294 379.813 210.082 376.331 205.68 376.393C200.986 376.47 199.327 379.963 199.259 380.112C198.856 380.987 197.758 381.407 196.804 381.044C195.849 380.68 195.389 379.682 195.776 378.801C195.879 378.566 198.384 373.048 205.612 372.929C211.573 372.832 214.391 377.053 215.047 379.299C215.317 380.223 214.723 381.173 213.72 381.422C213.556 381.463 213.391 381.482 213.229 381.482Z" fill="#204EB2"/>
</g>
<mask id="mask2" style="mask-type:alpha" maskUnits="userSpaceOnUse" x="70" y="192" width="318" height="257">
<path fill-rule="evenodd" clip-rule="evenodd" d="M108.8 228.345C95.4515 240.637 70.8613 323.761 70.8613 323.761C70.8613 323.761 114.421 332.817 143.929 326.672L146.388 317.939L131.848 443.251C131.848 443.251 235.378 460.389 324.95 433.612L330.182 323.294C330.182 323.294 364.499 325.972 387.765 321.688C387.765 321.688 365.08 241.359 342.98 225.293C320.877 209.228 266.114 195.996 266.114 195.996C266.114 195.996 262.542 212.844 227.349 211.352C201.647 210.263 191.475 197.059 187.597 192.58C187.597 192.58 122.15 216.055 108.8 228.345Z" fill="white"/>
</mask>
<g mask="url(#mask2)">
<path fill-rule="evenodd" clip-rule="evenodd" d="M256.565 340.466C255.735 340.466 254.976 339.957 254.75 339.184C254.63 338.798 253.418 335.297 249.016 335.378C244.322 335.455 242.663 338.948 242.595 339.096C242.192 339.972 241.094 340.392 240.14 340.028C239.185 339.665 238.725 338.667 239.112 337.785C239.215 337.55 241.72 332.033 248.948 331.914C254.909 331.827 257.726 336.037 258.383 338.283C258.653 339.207 258.059 340.157 257.055 340.406C256.892 340.447 256.727 340.466 256.565 340.466Z" fill="#204EB2"/>
</g>
<mask id="mask3" style="mask-type:alpha" maskUnits="userSpaceOnUse" x="70" y="192" width="318" height="257">
<path fill-rule="evenodd" clip-rule="evenodd" d="M108.8 228.345C95.4515 240.637 70.8613 323.761 70.8613 323.761C70.8613 323.761 114.421 332.817 143.929 326.672L146.388 317.939L131.848 443.251C131.848 443.251 235.378 460.389 324.95 433.612L330.182 323.294C330.182 323.294 364.499 325.972 387.765 321.688C387.765 321.688 365.08 241.359 342.98 225.293C320.877 209.228 266.114 195.996 266.114 195.996C266.114 195.996 262.542 212.844 227.349 211.352C201.647 210.263 191.475 197.059 187.597 192.58C187.597 192.58 122.15 216.055 108.8 228.345Z" fill="white"/>
</mask>
<g mask="url(#mask3)">
<path fill-rule="evenodd" clip-rule="evenodd" d="M276.868 421.381C276.038 421.381 275.279 420.871 275.053 420.099C274.933 419.712 273.719 416.209 269.319 416.293C264.625 416.37 262.966 419.863 262.897 420.011C262.494 420.887 261.397 421.307 260.442 420.943C259.488 420.579 259.027 419.582 259.414 418.7C259.517 418.465 262.023 412.948 269.251 412.829C275.21 412.736 278.029 416.952 278.686 419.198C278.956 420.122 278.362 421.072 277.358 421.321C277.195 421.362 277.03 421.381 276.868 421.381Z" fill="#204EB2"/>
</g>
<mask id="mask4" style="mask-type:alpha" maskUnits="userSpaceOnUse" x="70" y="192" width="318" height="257">
<path fill-rule="evenodd" clip-rule="evenodd" d="M108.8 228.345C95.4515 240.637 70.8613 323.761 70.8613 323.761C70.8613 323.761 114.421 332.817 143.929 326.672L146.388 317.939L131.848 443.251C131.848 443.251 235.378 460.389 324.95 433.612L330.182 323.294C330.182 323.294 364.499 325.972 387.765 321.688C387.765 321.688 365.08 241.359 342.98 225.293C320.877 209.228 266.114 195.996 266.114 195.996C266.114 195.996 262.542 212.844 227.349 211.352C201.647 210.263 191.475 197.059 187.597 192.58C187.597 192.58 122.15 216.055 108.8 228.345Z" fill="white"/>
</mask>
<g mask="url(#mask4)">
<path fill-rule="evenodd" clip-rule="evenodd" d="M184.441 425.008C183.611 425.008 182.852 424.499 182.626 423.726C182.506 423.34 181.293 419.851 176.892 419.92C172.198 419.997 170.539 423.489 170.471 423.638C170.068 424.514 168.97 424.934 168.016 424.57C167.061 424.206 166.601 423.209 166.988 422.327C167.091 422.092 169.596 416.574 176.824 416.456C182.786 416.36 185.602 420.579 186.259 422.825C186.529 423.749 185.935 424.699 184.931 424.948C184.768 424.989 184.603 425.008 184.441 425.008Z" fill="#204EB2"/>
</g>
<mask id="mask5" style="mask-type:alpha" maskUnits="userSpaceOnUse" x="70" y="192" width="318" height="257">
<path fill-rule="evenodd" clip-rule="evenodd" d="M108.8 228.345C95.4515 240.637 70.8613 323.761 70.8613 323.761C70.8613 323.761 114.421 332.817 143.929 326.672L146.388 317.939L131.848 443.251C131.848 443.251 235.378 460.389 324.95 433.612L330.182 323.294C330.182 323.294 364.499 325.972 387.765 321.688C387.765 321.688 365.08 241.359 342.98 225.293C320.877 209.228 266.114 195.996 266.114 195.996C266.114 195.996 262.542 212.844 227.349 211.352C201.647 210.263 191.475 197.059 187.597 192.58C187.597 192.58 122.15 216.055 108.8 228.345Z" fill="white"/>
</mask>
<g mask="url(#mask5)">
<path fill-rule="evenodd" clip-rule="evenodd" d="M128.985 281.036C128.155 281.036 127.396 280.526 127.17 279.753C127.05 279.367 125.836 275.866 121.436 275.947C116.742 276.024 115.083 279.517 115.015 279.666C114.612 280.541 113.514 280.961 112.56 280.597C111.605 280.234 111.145 279.236 111.532 278.355C111.635 278.12 114.14 272.602 121.368 272.483C127.33 272.387 130.146 276.607 130.803 278.853C131.073 279.776 130.479 280.727 129.475 280.976C129.312 281.016 129.147 281.036 128.985 281.036Z" fill="#204EB2"/>
</g>
<mask id="mask6" style="mask-type:alpha" maskUnits="userSpaceOnUse" x="70" y="192" width="318" height="257">
<path fill-rule="evenodd" clip-rule="evenodd" d="M108.8 228.345C95.4515 240.637 70.8613 323.761 70.8613 323.761C70.8613 323.761 114.421 332.817 143.929 326.672L146.388 317.939L131.848 443.251C131.848 443.251 235.378 460.389 324.95 433.612L330.182 323.294C330.182 323.294 364.499 325.972 387.765 321.688C387.765 321.688 365.08 241.359 342.98 225.293C320.877 209.228 266.114 195.996 266.114 195.996C266.114 195.996 262.542 212.844 227.349 211.352C201.647 210.263 191.475 197.059 187.597 192.58C187.597 192.58 122.15 216.055 108.8 228.345Z" fill="white"/>
</mask>
<g mask="url(#mask6)">
<path fill-rule="evenodd" clip-rule="evenodd" d="M305.657 292.475C304.827 292.475 304.068 291.966 303.842 291.193C303.722 290.807 302.513 287.311 298.108 287.387C293.414 287.464 291.755 290.956 291.686 291.105C291.284 291.98 290.186 292.4 289.231 292.037C288.277 291.673 287.816 290.676 288.204 289.794C288.307 289.559 290.812 284.041 298.04 283.923C304.002 283.831 306.818 288.046 307.475 290.292C307.745 291.216 307.151 292.166 306.147 292.415C305.984 292.456 305.819 292.475 305.657 292.475Z" fill="#204EB2"/>
</g>
<mask id="mask7" style="mask-type:alpha" maskUnits="userSpaceOnUse" x="70" y="192" width="318" height="257">
<path fill-rule="evenodd" clip-rule="evenodd" d="M108.8 228.345C95.4515 240.637 70.8613 323.761 70.8613 323.761C70.8613 323.761 114.421 332.817 143.929 326.672L146.388 317.939L131.848 443.251C131.848 443.251 235.378 460.389 324.95 433.612L330.182 323.294C330.182 323.294 364.499 325.972 387.765 321.688C387.765 321.688 365.08 241.359 342.98 225.293C320.877 209.228 266.114 195.996 266.114 195.996C266.114 195.996 262.542 212.844 227.349 211.352C201.647 210.263 191.475 197.059 187.597 192.58C187.597 192.58 122.15 216.055 108.8 228.345Z" fill="white"/>
</mask>
<g mask="url(#mask7)">
<path fill-rule="evenodd" clip-rule="evenodd" d="M343.235 252.855C342.403 252.855 341.644 252.346 341.418 251.573C341.297 251.187 340.09 247.703 335.685 247.767C330.99 247.844 329.331 251.336 329.262 251.485C328.858 252.361 327.764 252.781 326.807 252.417C325.855 252.053 325.394 251.056 325.782 250.174C325.883 249.939 328.39 244.421 335.617 244.303C341.58 244.209 344.393 248.426 345.052 250.672C345.322 251.596 344.729 252.546 343.723 252.795C343.562 252.836 343.396 252.855 343.235 252.855Z" fill="#204EB2"/>
</g>
<mask id="mask8" style="mask-type:alpha" maskUnits="userSpaceOnUse" x="70" y="192" width="318" height="257">
<path fill-rule="evenodd" clip-rule="evenodd" d="M108.8 228.345C95.4515 240.637 70.8613 323.761 70.8613 323.761C70.8613 323.761 114.421 332.817 143.929 326.672L146.388 317.939L131.848 443.251C131.848 443.251 235.378 460.389 324.95 433.612L330.182 323.294C330.182 323.294 364.499 325.972 387.765 321.688C387.765 321.688 365.08 241.359 342.98 225.293C320.877 209.228 266.114 195.996 266.114 195.996C266.114 195.996 262.542 212.844 227.349 211.352C201.647 210.263 191.475 197.059 187.597 192.58C187.597 192.58 122.15 216.055 108.8 228.345Z" fill="white"/>
</mask>
<g mask="url(#mask8)">
<path fill-rule="evenodd" clip-rule="evenodd" d="M268.792 233.075C266.696 233.075 262.347 232.515 259.46 228.275C256.294 223.624 258.768 219.224 260.519 217.547C261.239 216.858 262.43 216.836 263.179 217.499C263.928 218.162 263.951 219.259 263.231 219.949C262.934 220.243 260.31 222.999 262.649 226.435C265.182 230.155 269.364 229.589 269.406 229.583C270.433 229.431 271.397 230.076 271.56 231.021C271.724 231.966 271.024 232.854 269.998 233.004C269.931 233.014 269.484 233.075 268.792 233.075Z" fill="#204EB2"/>
</g>
<mask id="mask9" style="mask-type:alpha" maskUnits="userSpaceOnUse" x="70" y="192" width="318" height="257">
<path fill-rule="evenodd" clip-rule="evenodd" d="M108.8 228.345C95.4515 240.637 70.8613 323.761 70.8613 323.761C70.8613 323.761 114.421 332.817 143.929 326.672L146.388 317.939L131.848 443.251C131.848 443.251 235.378 460.389 324.95 433.612L330.182 323.294C330.182 323.294 364.499 325.972 387.765 321.688C387.765 321.688 365.08 241.359 342.98 225.293C320.877 209.228 266.114 195.996 266.114 195.996C266.114 195.996 262.542 212.844 227.349 211.352C201.647 210.263 191.475 197.059 187.597 192.58C187.597 192.58 122.15 216.055 108.8 228.345Z" fill="white"/>
</mask>
<g mask="url(#mask9)">
<path fill-rule="evenodd" clip-rule="evenodd" d="M185.455 267.673C183.359 267.673 179.01 267.113 176.123 262.873C172.957 258.222 175.431 253.822 177.182 252.145C177.902 251.456 179.093 251.434 179.842 252.097C180.591 252.76 180.614 253.857 179.894 254.547C179.597 254.841 176.972 257.597 179.312 261.033C181.805 264.695 185.911 264.201 186.084 264.179C187.107 264.045 188.064 264.694 188.218 265.634C188.372 266.575 187.681 267.452 186.661 267.602C186.594 267.612 186.147 267.673 185.455 267.673Z" fill="#204EB2"/>
</g>
<mask id="mask10" style="mask-type:alpha" maskUnits="userSpaceOnUse" x="70" y="192" width="318" height="257">
<path fill-rule="evenodd" clip-rule="evenodd" d="M108.8 228.345C95.4515 240.637 70.8613 323.761 70.8613 323.761C70.8613 323.761 114.421 332.817 143.929 326.672L146.388 317.939L131.848 443.251C131.848 443.251 235.378 460.389 324.95 433.612L330.182 323.294C330.182 323.294 364.499 325.972 387.765 321.688C387.765 321.688 365.08 241.359 342.98 225.293C320.877 209.228 266.114 195.996 266.114 195.996C266.114 195.996 262.542 212.844 227.349 211.352C201.647 210.263 191.475 197.059 187.597 192.58C187.597 192.58 122.15 216.055 108.8 228.345Z" fill="white"/>
</mask>
<g mask="url(#mask10)">
<path fill-rule="evenodd" clip-rule="evenodd" d="M88.7857 319.292C86.6896 319.292 82.3416 318.731 79.4546 314.491C76.2878 309.84 78.7622 305.44 80.5127 303.764C81.233 303.074 82.4239 303.052 83.1732 303.716C83.9221 304.378 83.9455 305.475 83.2253 306.165C82.9282 306.459 80.3036 309.216 82.6427 312.651C85.1361 316.313 89.2415 315.82 89.4151 315.797C90.4382 315.664 91.3946 316.312 91.5488 317.252C91.703 318.193 91.0127 319.071 89.9925 319.221C89.925 319.23 89.4777 319.292 88.7857 319.292Z" fill="#204EB2"/>
</g>
<mask id="mask11" style="mask-type:alpha" maskUnits="userSpaceOnUse" x="70" y="192" width="318" height="257">
<path fill-rule="evenodd" clip-rule="evenodd" d="M108.8 228.345C95.4515 240.637 70.8613 323.761 70.8613 323.761C70.8613 323.761 114.421 332.817 143.929 326.672L146.388 317.939L131.848 443.251C131.848 443.251 235.378 460.389 324.95 433.612L330.182 323.294C330.182 323.294 364.499 325.972 387.765 321.688C387.765 321.688 365.08 241.359 342.98 225.293C320.877 209.228 266.114 195.996 266.114 195.996C266.114 195.996 262.542 212.844 227.349 211.352C201.647 210.263 191.475 197.059 187.597 192.58C187.597 192.58 122.15 216.055 108.8 228.345Z" fill="white"/>
</mask>
<g mask="url(#mask11)">
<path fill-rule="evenodd" clip-rule="evenodd" d="M303.338 378.443C301.242 378.443 296.893 377.883 294.006 373.642C290.84 368.991 293.314 364.592 295.065 362.915C295.785 362.226 296.975 362.204 297.725 362.867C298.474 363.53 298.497 364.627 297.777 365.316C297.48 365.61 294.856 368.367 297.194 371.802C299.688 375.464 303.794 374.971 303.967 374.949C304.99 374.815 305.947 375.463 306.101 376.404C306.255 377.344 305.564 378.222 304.544 378.372C304.477 378.382 304.03 378.443 303.338 378.443Z" fill="#204EB2"/>
</g>
<mask id="mask12" style="mask-type:alpha" maskUnits="userSpaceOnUse" x="70" y="192" width="318" height="257">
<path fill-rule="evenodd" clip-rule="evenodd" d="M108.8 228.345C95.4515 240.637 70.8613 323.761 70.8613 323.761C70.8613 323.761 114.421 332.817 143.929 326.672L146.388 317.939L131.848 443.251C131.848 443.251 235.378 460.389 324.95 433.612L330.182 323.294C330.182 323.294 364.499 325.972 387.765 321.688C387.765 321.688 365.08 241.359 342.98 225.293C320.877 209.228 266.114 195.996 266.114 195.996C266.114 195.996 262.542 212.844 227.349 211.352C201.647 210.263 191.475 197.059 187.597 192.58C187.597 192.58 122.15 216.055 108.8 228.345Z" fill="white"/>
</mask>
<g mask="url(#mask12)">
<path fill-rule="evenodd" clip-rule="evenodd" d="M166.06 388.767C163.964 388.767 159.616 388.206 156.729 383.966C153.562 379.315 156.036 374.915 157.787 373.239C158.507 372.549 159.699 372.527 160.447 373.191C161.196 373.854 161.22 374.95 160.5 375.64C160.202 375.934 157.578 378.691 159.917 382.126C162.41 385.788 166.516 385.294 166.689 385.272C167.712 385.138 168.669 385.787 168.823 386.728C168.978 387.668 168.287 388.546 167.267 388.696C167.199 388.705 166.752 388.767 166.06 388.767Z" fill="#204EB2"/>
</g>
<mask id="mask13" style="mask-type:alpha" maskUnits="userSpaceOnUse" x="70" y="192" width="318" height="257">
<path fill-rule="evenodd" clip-rule="evenodd" d="M108.8 228.345C95.4515 240.637 70.8613 323.761 70.8613 323.761C70.8613 323.761 114.421 332.817 143.929 326.672L146.388 317.939L131.848 443.251C131.848 443.251 235.378 460.389 324.95 433.612L330.182 323.294C330.182 323.294 364.499 325.972 387.765 321.688C387.765 321.688 365.08 241.359 342.98 225.293C320.877 209.228 266.114 195.996 266.114 195.996C266.114 195.996 262.542 212.844 227.349 211.352C201.647 210.263 191.475 197.059 187.597 192.58C187.597 192.58 122.15 216.055 108.8 228.345Z" fill="white"/>
</mask>
<g mask="url(#mask13)">
<path fill-rule="evenodd" clip-rule="evenodd" d="M229.007 413.695C228.131 413.695 227.353 413.592 226.753 413.445C225.748 413.198 225.152 412.249 225.419 411.324C225.688 410.4 226.718 409.85 227.722 410.097C228.146 410.195 232.036 410.975 234.17 407.428C236.444 403.648 233.989 400.578 233.883 400.449C233.261 399.69 233.415 398.605 234.235 398.026C235.054 397.446 236.223 397.578 236.858 398.328C237.028 398.528 240.965 403.284 237.461 409.107C235.284 412.727 231.69 413.695 229.007 413.695Z" fill="#204EB2"/>
</g>
<mask id="mask14" style="mask-type:alpha" maskUnits="userSpaceOnUse" x="70" y="192" width="318" height="257">
<path fill-rule="evenodd" clip-rule="evenodd" d="M108.8 228.345C95.4515 240.637 70.8613 323.761 70.8613 323.761C70.8613 323.761 114.421 332.817 143.929 326.672L146.388 317.939L131.848 443.251C131.848 443.251 235.378 460.389 324.95 433.612L330.182 323.294C330.182 323.294 364.499 325.972 387.765 321.688C387.765 321.688 365.08 241.359 342.98 225.293C320.877 209.228 266.114 195.996 266.114 195.996C266.114 195.996 262.542 212.844 227.349 211.352C201.647 210.263 191.475 197.059 187.597 192.58C187.597 192.58 122.15 216.055 108.8 228.345Z" fill="white"/>
</mask>
<g mask="url(#mask14)">
<path fill-rule="evenodd" clip-rule="evenodd" d="M201.126 349.521C200.251 349.521 199.472 349.418 198.871 349.271C197.867 349.024 197.271 348.075 197.539 347.151C197.806 346.226 198.838 345.676 199.842 345.923C200.265 346.021 204.155 346.802 206.289 343.255C208.599 339.414 206.038 336.317 206.012 336.286C205.372 335.532 205.518 334.443 206.337 333.855C207.156 333.266 208.338 333.4 208.978 334.154C209.147 334.354 213.084 339.11 209.581 344.934C207.402 348.554 203.809 349.521 201.126 349.521Z" fill="#204EB2"/>
</g>
<mask id="mask15" style="mask-type:alpha" maskUnits="userSpaceOnUse" x="70" y="192" width="318" height="257">
<path fill-rule="evenodd" clip-rule="evenodd" d="M108.8 228.345C95.4515 240.637 70.8613 323.761 70.8613 323.761C70.8613 323.761 114.421 332.817 143.929 326.672L146.388 317.939L131.848 443.251C131.848 443.251 235.378 460.389 324.95 433.612L330.182 323.294C330.182 323.294 364.499 325.972 387.765 321.688C387.765 321.688 365.08 241.359 342.98 225.293C320.877 209.228 266.114 195.996 266.114 195.996C266.114 195.996 262.542 212.844 227.349 211.352C201.647 210.263 191.475 197.059 187.597 192.58C187.597 192.58 122.15 216.055 108.8 228.345Z" fill="white"/>
</mask>
<g mask="url(#mask15)">
<path fill-rule="evenodd" clip-rule="evenodd" d="M277.19 262.189C276.314 262.189 275.536 262.086 274.935 261.938C273.931 261.692 273.334 260.743 273.602 259.818C273.87 258.894 274.901 258.344 275.905 258.591C276.328 258.688 280.219 259.469 282.352 255.922C284.627 252.141 282.172 249.072 282.066 248.943C281.444 248.184 281.598 247.099 282.417 246.52C283.236 245.94 284.405 246.072 285.041 246.822C285.211 247.021 289.147 251.778 285.644 257.601C283.466 261.221 279.872 262.189 277.19 262.189Z" fill="#204EB2"/>
</g>
<mask id="mask16" style="mask-type:alpha" maskUnits="userSpaceOnUse" x="70" y="192" width="318" height="257">
<path fill-rule="evenodd" clip-rule="evenodd" d="M108.8 228.345C95.4515 240.637 70.8613 323.761 70.8613 323.761C70.8613 323.761 114.421 332.817 143.929 326.672L146.388 317.939L131.848 443.251C131.848 443.251 235.378 460.389 324.95 433.612L330.182 323.294C330.182 323.294 364.499 325.972 387.765 321.688C387.765 321.688 365.08 241.359 342.98 225.293C320.877 209.228 266.114 195.996 266.114 195.996C266.114 195.996 262.542 212.844 227.349 211.352C201.647 210.263 191.475 197.059 187.597 192.58C187.597 192.58 122.15 216.055 108.8 228.345Z" fill="white"/>
</mask>
<g mask="url(#mask16)">
<path fill-rule="evenodd" clip-rule="evenodd" d="M332.04 324.41C331.164 324.41 330.385 324.307 329.787 324.159C328.782 323.913 328.184 322.963 328.455 322.039C328.721 321.114 329.751 320.565 330.756 320.812C331.18 320.91 335.068 321.691 337.203 318.143C339.476 314.362 337.022 311.293 336.917 311.164C336.295 310.405 336.448 309.32 337.268 308.74C338.087 308.161 339.254 308.293 339.892 309.043C340.062 309.242 343.998 313.999 340.494 319.822C338.318 323.442 334.725 324.41 332.04 324.41Z" fill="#204EB2"/>
</g>
<mask id="mask17" style="mask-type:alpha" maskUnits="userSpaceOnUse" x="70" y="192" width="318" height="257">
<path fill-rule="evenodd" clip-rule="evenodd" d="M108.8 228.345C95.4515 240.637 70.8613 323.761 70.8613 323.761C70.8613 323.761 114.421 332.817 143.929 326.672L146.388 317.939L131.848 443.251C131.848 443.251 235.378 460.389 324.95 433.612L330.182 323.294C330.182 323.294 364.499 325.972 387.765 321.688C387.765 321.688 365.08 241.359 342.98 225.293C320.877 209.228 266.114 195.996 266.114 195.996C266.114 195.996 262.542 212.844 227.349 211.352C201.647 210.263 191.475 197.059 187.597 192.58C187.597 192.58 122.15 216.055 108.8 228.345Z" fill="white"/>
</mask>
<g mask="url(#mask17)">
<path fill-rule="evenodd" clip-rule="evenodd" d="M129.61 242.937C128.734 242.937 127.956 242.834 127.355 242.687C126.351 242.44 125.754 241.491 126.022 240.566C126.29 239.642 127.321 239.092 128.325 239.339C128.748 239.436 132.638 240.218 134.772 236.67C137.047 232.89 134.592 229.82 134.486 229.691C133.864 228.932 134.018 227.847 134.837 227.268C135.657 226.688 136.825 226.82 137.461 227.57C137.63 227.77 141.567 232.526 138.064 238.349C135.886 241.97 132.292 242.937 129.61 242.937Z" fill="#204EB2"/>
</g>
<mask id="mask18" style="mask-type:alpha" maskUnits="userSpaceOnUse" x="70" y="192" width="318" height="257">
<path fill-rule="evenodd" clip-rule="evenodd" d="M108.8 228.345C95.4515 240.637 70.8613 323.761 70.8613 323.761C70.8613 323.761 114.421 332.817 143.929 326.672L146.388 317.939L131.848 443.251C131.848 443.251 235.378 460.389 324.95 433.612L330.182 323.294C330.182 323.294 364.499 325.972 387.765 321.688C387.765 321.688 365.08 241.359 342.98 225.293C320.877 209.228 266.114 195.996 266.114 195.996C266.114 195.996 262.542 212.844 227.349 211.352C201.647 210.263 191.475 197.059 187.597 192.58C187.597 192.58 122.15 216.055 108.8 228.345Z" fill="white"/>
</mask>
<g mask="url(#mask18)">
<path fill-rule="evenodd" clip-rule="evenodd" d="M127.177 322.91C126.836 322.91 126.491 322.825 126.181 322.646C125.3 322.139 125.033 321.069 125.584 320.259C125.81 319.915 127.765 316.722 124.711 313.8C121.404 310.637 117.436 311.98 117.396 311.994C116.425 312.335 115.338 311.886 114.968 310.992C114.598 310.098 115.084 309.097 116.055 308.756C116.313 308.666 122.408 306.602 127.422 311.397C131.557 315.352 130.114 320.126 128.773 322.097C128.416 322.622 127.804 322.91 127.177 322.91Z" fill="#204EB2"/>
</g>
<mask id="mask19" style="mask-type:alpha" maskUnits="userSpaceOnUse" x="70" y="192" width="318" height="257">
<path fill-rule="evenodd" clip-rule="evenodd" d="M108.8 228.345C95.4515 240.637 70.8613 323.761 70.8613 323.761C70.8613 323.761 114.421 332.817 143.929 326.672L146.388 317.939L131.848 443.251C131.848 443.251 235.378 460.389 324.95 433.612L330.182 323.294C330.182 323.294 364.499 325.972 387.765 321.688C387.765 321.688 365.08 241.359 342.98 225.293C320.877 209.228 266.114 195.996 266.114 195.996C266.114 195.996 262.542 212.844 227.349 211.352C201.647 210.263 191.475 197.059 187.597 192.58C187.597 192.58 122.15 216.055 108.8 228.345Z" fill="white"/>
</mask>
<g mask="url(#mask19)">
<path fill-rule="evenodd" clip-rule="evenodd" d="M183.24 224.417C182.899 224.417 182.554 224.332 182.244 224.153C181.363 223.645 181.096 222.576 181.647 221.766C181.873 221.422 183.828 218.228 180.775 215.307C177.467 212.143 173.499 213.486 173.46 213.501C172.489 213.841 171.401 213.393 171.031 212.499C170.661 211.605 171.148 210.604 172.119 210.263C172.376 210.173 178.472 208.108 183.486 212.904C187.62 216.859 186.178 221.633 184.837 223.604C184.48 224.129 183.867 224.417 183.24 224.417Z" fill="#204EB2"/>
</g>
<mask id="mask20" style="mask-type:alpha" maskUnits="userSpaceOnUse" x="70" y="192" width="318" height="257">
<path fill-rule="evenodd" clip-rule="evenodd" d="M108.8 228.345C95.4515 240.637 70.8613 323.761 70.8613 323.761C70.8613 323.761 114.421 332.817 143.929 326.672L146.388 317.939L131.848 443.251C131.848 443.251 235.378 460.389 324.95 433.612L330.182 323.294C330.182 323.294 364.499 325.972 387.765 321.688C387.765 321.688 365.08 241.359 342.98 225.293C320.877 209.228 266.114 195.996 266.114 195.996C266.114 195.996 262.542 212.844 227.349 211.352C201.647 210.263 191.475 197.059 187.597 192.58C187.597 192.58 122.15 216.055 108.8 228.345Z" fill="white"/>
</mask>
<g mask="url(#mask20)">
<path fill-rule="evenodd" clip-rule="evenodd" d="M359.912 303.379C359.569 303.379 359.226 303.294 358.915 303.115C358.035 302.607 357.769 301.538 358.318 300.728C358.544 300.384 360.498 297.19 357.446 294.269C354.188 291.155 350.28 292.412 350.118 292.467C349.145 292.792 348.063 292.337 347.704 291.446C347.345 290.554 347.825 289.564 348.79 289.225C349.048 289.135 355.141 287.071 360.155 291.866C364.289 295.821 362.848 300.594 361.507 302.566C361.152 303.091 360.538 303.379 359.912 303.379Z" fill="#204EB2"/>
</g>
<mask id="mask21" style="mask-type:alpha" maskUnits="userSpaceOnUse" x="70" y="192" width="318" height="257">
<path fill-rule="evenodd" clip-rule="evenodd" d="M108.8 228.345C95.4515 240.637 70.8613 323.761 70.8613 323.761C70.8613 323.761 114.421 332.817 143.929 326.672L146.388 317.939L131.848 443.251C131.848 443.251 235.378 460.389 324.95 433.612L330.182 323.294C330.182 323.294 364.499 325.972 387.765 321.688C387.765 321.688 365.08 241.359 342.98 225.293C320.877 209.228 266.114 195.996 266.114 195.996C266.114 195.996 262.542 212.844 227.349 211.352C201.647 210.263 191.475 197.059 187.597 192.58C187.597 192.58 122.15 216.055 108.8 228.345Z" fill="white"/>
</mask>
<g mask="url(#mask21)">
<path fill-rule="evenodd" clip-rule="evenodd" d="M304.455 231.393C304.114 231.393 303.768 231.308 303.458 231.129C302.577 230.621 302.311 229.552 302.862 228.741C303.087 228.397 305.042 225.204 301.989 222.282C298.733 219.168 294.825 220.426 294.66 220.481C293.689 220.806 292.608 220.351 292.247 219.459C291.887 218.567 292.368 217.578 293.333 217.239C293.59 217.149 299.686 215.084 304.7 219.88C308.834 223.835 307.392 228.608 306.051 230.579C305.694 231.105 305.081 231.393 304.455 231.393Z" fill="#204EB2"/>
</g>
<mask id="mask22" style="mask-type:alpha" maskUnits="userSpaceOnUse" x="70" y="192" width="318" height="257">
<path fill-rule="evenodd" clip-rule="evenodd" d="M108.8 228.345C95.4515 240.637 70.8613 323.761 70.8613 323.761C70.8613 323.761 114.421 332.817 143.929 326.672L146.388 317.939L131.848 443.251C131.848 443.251 235.378 460.389 324.95 433.612L330.182 323.294C330.182 323.294 364.499 325.972 387.765 321.688C387.765 321.688 365.08 241.359 342.98 225.293C320.877 209.228 266.114 195.996 266.114 195.996C266.114 195.996 262.542 212.844 227.349 211.352C201.647 210.263 191.475 197.059 187.597 192.58C187.597 192.58 122.15 216.055 108.8 228.345Z" fill="white"/>
</mask>
<g mask="url(#mask22)">
<path fill-rule="evenodd" clip-rule="evenodd" d="M259.909 377.877C259.568 377.877 259.222 377.792 258.912 377.613C258.031 377.105 257.765 376.036 258.316 375.225C258.542 374.881 260.497 371.688 257.443 368.766C254.187 365.653 250.279 366.91 250.114 366.965C249.143 367.289 248.062 366.834 247.702 365.943C247.341 365.051 247.822 364.061 248.787 363.723C249.044 363.632 255.14 361.568 260.154 366.363C264.288 370.319 262.846 375.092 261.505 377.063C261.148 377.589 260.535 377.877 259.909 377.877Z" fill="#204EB2"/>
</g>
<mask id="mask23" style="mask-type:alpha" maskUnits="userSpaceOnUse" x="70" y="192" width="318" height="257">
<path fill-rule="evenodd" clip-rule="evenodd" d="M108.8 228.345C95.4515 240.637 70.8613 323.761 70.8613 323.761C70.8613 323.761 114.421 332.817 143.929 326.672L146.388 317.939L131.848 443.251C131.848 443.251 235.378 460.389 324.95 433.612L330.182 323.294C330.182 323.294 364.499 325.972 387.765 321.688C387.765 321.688 365.08 241.359 342.98 225.293C320.877 209.228 266.114 195.996 266.114 195.996C266.114 195.996 262.542 212.844 227.349 211.352C201.647 210.263 191.475 197.059 187.597 192.58C187.597 192.58 122.15 216.055 108.8 228.345Z" fill="white"/>
</mask>
<g mask="url(#mask23)">
<path fill-rule="evenodd" clip-rule="evenodd" d="M322.032 423.914C321.688 423.914 321.345 423.829 321.034 423.65C320.154 423.143 319.888 422.074 320.437 421.263C320.663 420.919 322.617 417.726 319.565 414.804C316.309 411.69 312.401 412.948 312.236 413.003C311.265 413.327 310.184 412.872 309.824 411.981C309.463 411.089 309.944 410.099 310.909 409.76C311.166 409.67 317.262 407.605 322.278 412.401C326.412 416.356 324.967 421.13 323.626 423.101C323.271 423.626 322.657 423.914 322.032 423.914Z" fill="#204EB2"/>
</g>
<mask id="mask24" style="mask-type:alpha" maskUnits="userSpaceOnUse" x="70" y="191" width="318" height="257">
<path fill-rule="evenodd" clip-rule="evenodd" d="M108.8 227.23C95.4515 239.521 70.8613 322.646 70.8613 322.646C70.8613 322.646 114.421 331.702 143.929 325.556L146.388 316.824L131.848 442.136C131.848 442.136 235.378 459.273 324.95 432.496L330.182 322.179C330.182 322.179 364.499 324.857 387.765 320.573C387.765 320.573 365.08 240.244 342.98 224.178C320.877 208.113 266.114 194.881 266.114 194.881C266.114 194.881 262.542 211.729 227.349 210.237C201.647 209.148 191.475 195.944 187.597 191.464C187.597 191.464 122.15 214.939 108.8 227.23Z" fill="white"/>
</mask>
<g mask="url(#mask24)">
<path fill-rule="evenodd" clip-rule="evenodd" d="M140.815 444.561C140.474 444.561 140.129 444.475 139.819 444.297C138.938 443.79 138.671 442.721 139.222 441.91C139.448 441.566 141.403 438.373 138.349 435.451C135.094 432.338 131.185 433.595 131.02 433.65C130.049 433.975 128.968 433.519 128.608 432.628C128.248 431.736 128.728 430.746 129.693 430.408C129.951 430.317 136.046 428.253 141.06 433.048C145.195 437.004 143.752 441.777 142.411 443.748C142.054 444.275 141.442 444.561 140.815 444.561Z" fill="#204EB2"/>
</g>
<path fill-rule="evenodd" clip-rule="evenodd" d="M382.138 322.4C382.138 322.4 387.629 388.068 371.787 400.14C358.452 410.301 339.586 418 300.154 371.469C260.724 324.939 233.041 298.573 232.911 280.138C232.758 258.419 228.128 201.167 234.237 200.656C240.346 200.145 246.841 259.489 270.165 280.454C293.49 301.418 329.126 322.218 329.126 322.218C329.126 322.218 346.611 324.723 382.138 322.4Z" fill="#7D4439"/>
<path fill-rule="evenodd" clip-rule="evenodd" d="M77.3303 324.861C77.3303 324.861 65.6652 390.769 88.5189 404.797C102.314 413.265 121.365 420.461 162.165 373.931C202.966 327.4 231.124 300.3 232.273 281.893C233.422 263.485 232.847 199.569 226.526 199.058C220.205 198.546 217.332 261.951 193.197 282.915C169.061 303.88 130.559 327.912 130.559 327.912C130.559 327.912 115.074 329.981 77.3303 324.861Z" fill="#7D4439"/>
<path fill-rule="evenodd" clip-rule="evenodd" d="M232.105 280.159L230.105 215.373L231.72 215.331L233.719 280.117L232.105 280.159Z" fill="black"/>
<path fill-rule="evenodd" clip-rule="evenodd" d="M225.13 506.113C225.13 506.113 242.391 513.006 244.47 510.325C246.55 507.644 228.666 524.303 228.666 524.303L215.772 517.601L225.13 506.113Z" fill="#7D4439"/>
<path fill-rule="evenodd" clip-rule="evenodd" d="M224.327 506.113L214.268 518.461L228.166 525.685L228.491 525.382L228.06 524.989C228.491 525.382 228.491 525.382 228.491 525.382L228.691 525.195C228.821 525.074 229.012 524.896 229.254 524.672C229.739 524.221 230.429 523.582 231.251 522.822C232.895 521.303 235.064 519.305 237.168 517.392C239.273 515.478 241.308 513.652 242.685 512.473C242.875 512.311 243.05 512.163 243.21 512.029C243.669 511.905 244.081 511.692 244.358 511.336L224.327 506.113ZM242.626 511.012C242.96 510.738 243.231 510.526 243.421 510.395C243.499 510.342 243.59 510.284 243.678 510.242C243.716 510.224 243.8 510.186 243.907 510.17C243.994 510.157 244.344 510.13 244.547 510.436C244.628 510.558 244.64 510.677 244.639 510.746C244.638 510.817 244.623 510.875 244.612 510.91C244.591 510.981 244.559 511.04 244.538 511.077C244.491 511.157 244.427 511.246 244.358 511.336L242.626 511.012ZM242.626 511.012C242.549 511.025 242.463 511.037 242.37 511.046C241.775 511.107 240.99 511.065 240.057 510.933C238.197 510.671 235.883 510.072 233.605 509.381C231.332 508.692 229.122 507.918 227.478 507.316C226.657 507.015 225.977 506.758 225.504 506.576C225.267 506.485 225.082 506.413 224.956 506.363C224.894 506.339 224.846 506.32 224.814 506.307L224.778 506.292L224.766 506.288C224.766 506.288 224.766 506.288 224.525 506.799L224.766 506.288L224.327 506.113L242.626 511.012ZM224.724 507.484C224.816 507.519 224.92 507.56 225.037 507.605C225.516 507.789 226.202 508.049 227.03 508.353C228.688 508.959 230.922 509.742 233.225 510.44C235.523 511.137 237.913 511.759 239.874 512.035C240.358 512.103 240.823 512.152 241.261 512.175C239.913 513.346 238.137 514.943 236.317 516.599C234.21 518.515 232.038 520.515 230.393 522.035C229.571 522.795 228.88 523.436 228.395 523.887C228.221 524.048 228.073 524.185 227.955 524.295L216.065 518.114L224.724 507.484ZM243.467 510.555C243.469 510.552 243.469 510.552 243.467 510.555V510.555Z" fill="black"/>
<path fill-rule="evenodd" clip-rule="evenodd" d="M363.423 514.538C363.423 514.538 388.794 528.132 368.622 549.386C348.45 570.639 277.12 556.087 277.12 556.087L275.249 547.662C275.249 547.662 346.995 515.687 363.423 514.538Z" fill="black"/>
<path fill-rule="evenodd" clip-rule="evenodd" d="M363.423 514.538C363.423 514.538 373.405 516.452 376.524 526.983C379.643 537.514 372.767 549.778 362.688 553.89C362.688 553.89 375.552 527.604 352.955 516.763L363.423 514.538Z" fill="#E0D3CC"/>
<path fill-rule="evenodd" clip-rule="evenodd" d="M355.272 556.877C355.272 556.877 346.162 539.812 342.003 540.195C337.844 540.578 292.821 542.73 288.297 541.941L273.377 547.471L276.015 556.237C276.015 556.237 331.525 568.199 355.272 556.877Z" fill="black"/>
<path fill-rule="evenodd" clip-rule="evenodd" d="M343.042 524.686C343.042 524.686 346.37 546.896 341.587 546.896C336.804 546.896 335.556 522.005 334.724 530.621C333.892 539.237 333.268 550.152 330.149 546.896C327.03 543.641 333.476 519.516 330.773 526.217C328.07 532.919 326.406 545.556 322.039 545.365C317.672 545.173 323.702 532.345 321.415 531.961C319.127 531.578 314.552 548.62 310.601 546.514C306.65 544.407 313.928 530.43 309.769 535.599C305.61 540.769 304.362 546.897 300.619 546.13C296.876 545.365 301.035 538.663 303.323 535.408C305.61 532.153 340.755 519.707 341.795 521.239C342.835 522.771 343.042 524.686 343.042 524.686Z" fill="#F9F9F9"/>
<path fill-rule="evenodd" clip-rule="evenodd" d="M289.389 546.514C289.389 546.514 373.404 524.111 412.501 495.581C451.597 467.052 474.264 439.288 452.221 408.079C430.177 376.868 378.396 400.611 353.44 410.759C328.485 420.907 246.653 435.259 207.609 435.168C168.565 435.076 116.16 432.395 88.917 424.928C61.6728 417.461 18.2123 406.164 4.90171 436.608C-8.40892 467.052 7.19078 496.922 30.0655 507.07C52.9403 517.218 123.438 539.046 159.623 536.94L195.808 534.834C195.808 534.834 211.405 518.942 207.246 495.773L229.081 510.325C229.081 510.325 241.558 510.134 246.134 508.602C250.709 507.07 276.08 563.172 289.389 546.514Z" fill="#B86767"/>
<path fill-rule="evenodd" clip-rule="evenodd" d="M267.138 549.194C267.138 549.194 230.537 561.64 221.803 566.81C213.068 571.98 194.976 576.384 186.242 570.831C177.508 565.278 182.706 537.706 182.706 537.706C182.706 537.706 212.029 531.579 215.356 527.366C218.683 523.154 245.302 509.177 245.302 509.177L267.138 549.194Z" fill="#7D4439"/>
<path fill-rule="evenodd" clip-rule="evenodd" d="M185.842 539.887C185.842 539.887 183.954 535.408 178.131 536.365C172.308 537.323 118.031 531.77 102.434 527.749C86.8378 523.728 53.7723 552.257 68.1205 572.362C82.4687 592.467 102.018 582.893 119.695 581.553C137.371 580.213 171.685 584.808 179.379 582.51C187.074 580.213 194.768 576 194.976 571.022C195.184 566.044 185.842 539.887 185.842 539.887Z" fill="black"/>
<path fill-rule="evenodd" clip-rule="evenodd" d="M106.484 530.371C106.484 530.371 83.5103 540.77 79.352 555.13C75.1936 569.49 77.1234 580.986 77.1234 580.986C77.1234 580.986 55.3226 571.528 67.7531 549.064C80.1836 526.6 99.7184 524.754 106.484 528.071C113.249 531.387 106.484 530.371 106.484 530.371Z" fill="#E0D3CC"/>
<path fill-rule="evenodd" clip-rule="evenodd" d="M109.028 529.885C109.028 529.885 118.448 543.641 119.695 553.598C119.695 553.598 118.864 555.512 129.261 555.321C139.66 555.13 188.135 545.335 188.135 545.335C188.135 545.335 198.563 568.335 194.794 574.274C191.025 580.213 119.695 568.916 119.695 568.916C119.695 568.916 116.784 567.384 114.912 568.724C113.041 570.065 103.377 582.341 90.1168 584.819C90.1168 584.819 110.753 574.66 112.417 561.257C114.081 547.854 109.028 529.885 109.028 529.885Z" fill="#EEDFD9"/>
<path fill-rule="evenodd" clip-rule="evenodd" d="M177.507 543.833C177.507 543.833 176.884 556.853 179.587 564.129C182.291 571.405 184.536 577.752 179.878 576.972C175.22 576.192 170.229 547.279 172.932 544.79C175.636 542.301 177.3 541.535 177.507 543.833Z" fill="white"/>
<path fill-rule="evenodd" clip-rule="evenodd" d="M169.813 545.365C169.813 545.365 169.189 558.385 171.893 565.661C174.596 572.937 176.841 579.283 172.184 578.503C167.526 577.724 162.534 548.811 165.238 546.322C167.941 543.833 169.605 543.067 169.813 545.365Z" fill="white"/>
<path fill-rule="evenodd" clip-rule="evenodd" d="M142.571 545.822C142.571 545.822 141.947 557.731 144.65 564.386C147.354 571.041 149.599 576.846 144.942 576.132C140.283 575.419 135.292 548.974 137.996 546.697C140.699 544.42 142.363 543.72 142.571 545.822Z" fill="white"/>
<path fill-rule="evenodd" clip-rule="evenodd" d="M132.172 547.27C132.172 547.27 131.549 558.386 134.252 564.598C136.956 570.81 139.201 576.227 134.543 575.562C129.885 574.896 124.894 550.213 127.598 548.087C130.301 545.962 131.965 545.309 132.172 547.27Z" fill="white"/>
<path fill-rule="evenodd" clip-rule="evenodd" d="M124.7 546.468C124.7 546.468 122.368 557.39 124.086 563.892C125.804 570.394 127.19 576.051 122.682 574.783C118.174 573.515 117.041 548.429 120.045 546.679C123.049 544.929 124.797 544.499 124.7 546.468Z" fill="white"/>
<path fill-rule="evenodd" clip-rule="evenodd" d="M160.143 546.201C160.143 546.201 160.969 559.212 164.466 566.195C167.964 573.178 170.902 579.28 166.182 578.943C161.462 578.606 153.285 550.315 155.698 547.585C158.111 544.854 159.681 543.935 160.143 546.201Z" fill="white"/>
<path fill-rule="evenodd" clip-rule="evenodd" d="M156.064 545.96C156.064 545.96 153.254 558.733 154.699 566.307C156.144 573.881 157.292 580.472 152.822 579.036C148.352 577.6 148.293 548.325 151.383 546.252C154.474 544.179 156.246 543.66 156.064 545.96Z" fill="white"/>
<path fill-rule="evenodd" clip-rule="evenodd" d="M187.249 544.462C187.249 544.462 174.18 547.088 176.883 561.64C179.587 576.192 196.009 572.091 196.009 572.091C196.009 572.091 199.902 548.154 187.249 544.462Z" fill="white"/>
<path d="M371.203 417.198L256.413 500.567L231.563 510.204L205.249 495.113L114.891 442.479L114.027 443.736L204.391 496.372L231.418 511.873L257.241 501.859L372.203 418.365L371.203 417.198Z" fill="black"/>
<path fill-rule="evenodd" clip-rule="evenodd" d="M202.463 487.157C202.463 487.157 221.179 491.944 226.378 500.177C231.577 508.411 229.914 522.579 214.525 528.515C199.136 534.451 192.897 539.429 196.848 530.047C200.799 520.665 208.078 503.432 202.463 487.157Z" fill="black"/>
<path fill-rule="evenodd" clip-rule="evenodd" d="M256.948 498.07C256.948 498.07 258.819 517.218 270.257 532.153C281.694 547.088 291.885 548.619 288.141 552.257C284.398 555.895 278.575 557.619 274.832 562.214C271.089 566.81 271.297 566.618 262.563 557.044C253.828 547.47 234.696 526.217 234.28 507.262C234.28 507.262 255.284 491.752 256.948 498.07Z" fill="black"/>
<path d="M259.675 130.383C260.125 129.962 260.85 129.939 261.329 130.32L261.548 130.507C261.692 130.627 261.861 130.763 262.053 130.911C262.606 131.334 263.228 131.759 263.901 132.154C265.738 133.233 267.592 133.882 269.313 133.908C271.056 133.934 272.667 133.412 274.109 132.515C274.607 132.205 275.047 131.873 275.423 131.543L275.544 131.434C275.638 131.349 275.713 131.277 275.767 131.222L275.844 131.142C276.271 130.668 277.034 130.602 277.549 130.996C278.064 131.389 278.135 132.092 277.708 132.566L277.627 132.653C277.504 132.781 277.327 132.952 277.096 133.156C276.626 133.568 276.082 133.979 275.465 134.363C273.639 135.498 271.561 136.172 269.274 136.138C267.033 136.104 264.78 135.315 262.599 134.035C261.834 133.586 261.131 133.106 260.503 132.625L260.322 132.484C260.034 132.258 259.821 132.078 259.691 131.96C259.213 131.529 259.207 130.823 259.675 130.383Z" fill="black"/>
<path d="M233.045 158.68C233.384 158.175 234.089 158.006 234.648 158.284L234.927 158.433L235.134 158.538C235.279 158.611 235.441 158.689 235.617 158.771C236.381 159.128 237.258 159.486 238.234 159.82C241.859 161.065 245.762 161.647 249.708 161.205C250.372 161.131 250.975 161.566 251.056 162.178C251.137 162.789 250.664 163.345 250 163.419C245.629 163.908 241.35 163.27 237.387 161.91C236.324 161.545 235.364 161.154 234.522 160.76L234.212 160.614C233.859 160.443 233.599 160.306 233.439 160.215C232.87 159.891 232.694 159.204 233.045 158.68Z" fill="black"/>
<path d="M257.356 122.858L258.893 123.312L258.743 123.756C258.622 124.118 258.488 124.532 258.342 124.991C257.927 126.303 257.512 127.713 257.125 129.163C256.694 130.776 256.325 132.34 256.036 133.817L255.953 134.254C255.251 138.01 255.152 140.878 255.779 142.42L255.816 142.507C259.4 150.671 254.533 154.811 244.317 151.912L244.006 151.822L244.498 150.406C253.7 153.118 257.391 150.063 254.318 143.064C253.473 141.138 253.603 137.869 254.447 133.553C254.742 132.044 255.118 130.45 255.556 128.809C255.906 127.5 256.277 126.225 256.652 125.022L256.792 124.575C256.876 124.308 256.957 124.057 257.034 123.821L257.231 123.225L257.356 122.858Z" fill="black"/>
<path d="M227.339 115.052C228.569 114.899 229.713 114.848 230.759 114.919C232.232 115.02 234.183 115.384 236.54 115.956C237.26 116.131 238.009 116.323 238.779 116.53C240.072 116.877 241.364 117.249 242.596 117.62L243.406 117.868L244.21 118.12C245.368 118.492 245.979 119.658 245.575 120.724C245.181 121.763 243.967 122.324 242.834 122.006L242.717 121.971L242.341 121.852C242.008 121.748 241.629 121.632 241.213 121.506C240.025 121.148 238.778 120.789 237.535 120.455C236.801 120.258 236.089 120.075 235.407 119.91L234.96 119.803C233.05 119.352 231.487 119.069 230.431 118.997C229.723 118.949 228.88 118.986 227.934 119.104C226.797 119.245 225.561 119.496 224.292 119.824C223.661 119.987 223.056 120.16 222.494 120.335L222.216 120.422C222.038 120.479 221.876 120.532 221.732 120.581L221.437 120.682C220.295 121.095 219.007 120.576 218.559 119.525C218.111 118.474 218.674 117.288 219.816 116.876L220.047 116.794C220.231 116.731 220.471 116.651 220.763 116.559C221.481 116.329 222.265 116.101 223.091 115.887C224.545 115.511 225.976 115.221 227.339 115.052Z" fill="black"/>
<path d="M266.58 121.026L267.114 121.013C269.311 120.968 271.115 121.031 272.453 121.237C273.192 121.35 273.962 121.541 274.762 121.8C275.95 122.184 277.184 122.71 278.443 123.344C279.246 123.748 280.019 124.176 280.745 124.608L281.053 124.792C281.545 125.091 281.911 125.327 282.123 125.47C283.088 126.123 283.295 127.372 282.587 128.26C281.897 129.124 280.594 129.329 279.636 128.738L279.337 128.543L279.089 128.386C278.958 128.304 278.817 128.216 278.667 128.125C277.948 127.689 277.169 127.252 276.363 126.846C275.296 126.309 274.268 125.87 273.326 125.566C272.748 125.379 272.214 125.247 271.739 125.174C270.64 125.005 268.888 124.955 266.71 125.016C265.381 125.053 263.955 125.128 262.503 125.23L261.873 125.276C261.46 125.307 261.064 125.339 260.686 125.371L259.605 125.469C258.415 125.588 257.346 124.796 257.217 123.7C257.091 122.631 257.906 121.669 259.05 121.511L259.37 121.478L259.859 121.434L259.997 121.421C260.665 121.363 261.397 121.305 262.173 121.25C263.687 121.144 265.178 121.065 266.58 121.026Z" fill="black"/>
<path d="M224.584 126.732C225.034 126.311 225.759 126.288 226.239 126.668L226.457 126.856L226.642 127.008C226.74 127.087 226.847 127.171 226.962 127.26C227.515 127.683 228.137 128.108 228.81 128.503C230.647 129.582 232.501 130.231 234.222 130.257C235.965 130.283 237.576 129.76 239.018 128.864C239.516 128.554 239.956 128.222 240.332 127.892L240.507 127.733C240.593 127.654 240.66 127.588 240.707 127.54L240.753 127.491C241.18 127.017 241.944 126.951 242.458 127.345C242.973 127.738 243.044 128.441 242.617 128.915L242.536 129.002C242.414 129.13 242.236 129.301 242.005 129.505C241.535 129.917 240.991 130.328 240.374 130.712C238.548 131.847 236.47 132.521 234.183 132.487C231.942 132.453 229.689 131.664 227.508 130.384C226.743 129.935 226.04 129.455 225.413 128.974L225.231 128.833C224.943 128.607 224.73 128.427 224.6 128.309C224.123 127.878 224.116 127.172 224.584 126.732Z" fill="black"/>
<path d="M217.486 179.737L218.276 178.441L218.565 178.585L218.829 178.715C219.23 178.909 219.685 179.123 220.192 179.352L220.412 179.451C222.117 180.216 224.001 180.981 226.011 181.694C230.633 183.335 235.2 184.455 239.448 184.818C241.374 184.982 243.199 184.987 244.908 184.818L245.248 184.782L245.445 186.257C243.517 186.476 241.463 186.483 239.299 186.298C234.883 185.921 230.179 184.767 225.43 183.081C223.375 182.351 221.449 181.57 219.705 180.788L219.046 180.488C218.766 180.359 218.502 180.235 218.257 180.117L217.8 179.895L217.486 179.737Z" fill="black"/>
<mask id="mask25" style="mask-type:alpha" maskUnits="userSpaceOnUse" x="204" y="0" width="88" height="57">
<path fill-rule="evenodd" clip-rule="evenodd" d="M204.222 0H291.26V56.7179H204.222V0Z" fill="white"/>
</mask>
<g mask="url(#mask25)">
<path fill-rule="evenodd" clip-rule="evenodd" d="M275.937 55.9966C275.937 55.9966 274.296 52.4917 283.238 52.1089C292.18 51.726 295.716 34.8765 282.822 27.4087C269.929 19.9413 283.862 12.0912 264.106 2.7091C244.35 -6.67337 234.576 11.3251 234.576 11.3251C234.576 11.3251 213.78 3.85771 206.502 19.1756C199.223 34.4933 211.7 40.6206 211.7 40.6206C211.7 40.6206 203.382 45.7904 210.037 52.1089C216.691 58.4277 234.65 51.4056 237.628 54.8209C240.607 58.2362 275.937 55.9966 275.937 55.9966Z" fill="#0F0F0F"/>
</g>
<path fill-rule="evenodd" clip-rule="evenodd" d="M216.139 59.5061C216.139 59.5061 222.433 48.8308 237.405 47.8335C252.379 46.8362 259.096 51.7324 260.832 59.5061C262.568 67.2798 216.139 59.5061 216.139 59.5061Z" fill="white"/>
<mask id="mask26" style="mask-type:alpha" maskUnits="userSpaceOnUse" x="184" y="55" width="102" height="83">
<path fill-rule="evenodd" clip-rule="evenodd" d="M184.307 55.1266H285.444V137.384H184.307V55.1266Z" fill="white"/>
</mask>
<g mask="url(#mask26)">
<path fill-rule="evenodd" clip-rule="evenodd" d="M193.319 129.081C193.319 129.081 192.695 126.592 196.646 123.146C200.597 119.699 199.142 103.807 208.5 100.935C217.858 98.0627 233.455 83.3194 240.733 83.3194C248.012 83.3194 260.49 89.4464 265.48 89.0635C270.472 88.6806 277.126 97.8713 277.542 102.658C277.958 107.445 284.775 116.009 280.534 137.384C280.534 137.384 285.444 130.23 285.444 121.805C285.444 113.38 284.197 111.466 284.821 99.4031C285.444 87.3402 283.989 74.8944 274.423 69.1503C264.857 63.4058 258.826 52.8751 244.061 55.5556C229.296 58.2364 217.858 54.9813 209.124 63.5976C202.699 69.9354 193.111 74.3201 191.031 87.3402C189.094 99.4701 178.397 105.079 188.769 118.133C188.769 118.133 193.319 124.869 193.319 129.081Z" fill="#0F0F0F"/>
</g>
<path fill-rule="evenodd" clip-rule="evenodd" d="M217.21 58.6363C217.21 58.6363 219.964 48.132 238.131 47.0168C256.298 45.9017 259.836 53.107 260.692 58.9831C260.692 58.9831 253.227 54.3861 243.661 56.2774C234.094 58.1683 223.338 56.874 217.21 58.6363Z" fill="#CEE5D0"/>
</svg>
