<svg width="537" height="585" fill="none" xmlns="http://www.w3.org/2000/svg"><path opacity=".747" fill-rule="evenodd" clip-rule="evenodd" d="m505.223 289.923-1.26 2.566c-20.728 41.98-48.236 87.415-93.272 113.723-45.136 26.356-107.804 33.586-165.393 37.769l-3.519.252c-58.647 4.197-111.527 5.564-145.939-9.658-34.386-15.167-50.305-46.922-49.83-85.86.475-38.938 17.448-85.107 59.187-124.544 41.714-39.491 108.195-72.254 175.876-96.456 67.68-24.202 136.431-39.855 182.116-31.398 45.609 8.563 68.025 41.228 72.329 76.845 4.28 35.56-9.526 74.126-30.295 116.761Z" fill="#CEE5D0" fill-opacity=".5"/><path fill-rule="evenodd" clip-rule="evenodd" d="M208.467 154.426s-1.492 30.177-20.625 40.829c-17.36 9.664 19.418 65.745 58.983 62.4 21.658-1.832 26.733-56.318 26.733-56.318s-17.487-3.109-11.028-27.642l-54.063-19.269Z" fill="#7D4439"/><path fill-rule="evenodd" clip-rule="evenodd" d="M240.025 184.94c-25.66-2.851-44.179-18.351-46.772-44.064-7.459 1.091-9.219-16.766-7.141-22.502 2.079-5.744 8.867-2.386 8.867-2.386s.564-1.361.958-2.851c11.21-42.24 42.605-40.565 42.605-40.565 57.69 2.76 44.173 56.871 40.877 71.226-3.297 14.356-14.589 43.895-39.394 41.142Z" fill="#7D4439"/><path fill-rule="evenodd" clip-rule="evenodd" d="M187.769 192.177s-65.448 23.475-78.797 35.766c-13.349 12.291-37.939 95.415-37.939 95.415s43.56 9.057 73.069 2.911l2.459-8.733-14.542 125.312s103.531 17.139 193.101-9.639l5.236-110.318s34.316 2.678 57.583-1.606c0 0-22.686-80.329-44.789-96.395-22.1-16.065-76.864-29.296-76.864-29.296s-3.572 16.847-38.764 15.355c-25.704-1.089-35.875-14.292-39.753-18.772Z" fill="#F7D59C"/><path fill-rule="evenodd" clip-rule="evenodd" d="m139.942 324.881-2.394-.341 6.101-36.298 2.394.341-6.101 36.298ZM324.979 322.603l-6.101-36.298 2.395-.341 6.1 36.298-2.394.341Z" fill="#204EB2"/><mask id="a" style="mask-type:alpha" maskUnits="userSpaceOnUse" x="70" y="192" width="318" height="257"><path fill-rule="evenodd" clip-rule="evenodd" d="M108.8 228.345c-13.349 12.292-37.939 95.416-37.939 95.416s43.56 9.056 73.068 2.911l2.459-8.733-14.54 125.312s103.53 17.138 193.102-9.639l5.232-110.318s34.317 2.678 57.583-1.606c0 0-22.685-80.329-44.785-96.395-22.103-16.065-76.866-29.297-76.866-29.297s-3.572 16.848-38.765 15.356c-25.702-1.089-35.874-14.293-39.752-18.772 0 0-65.447 23.475-78.797 35.765Z" fill="#fff"/></mask><g mask="url(#a)"><path fill-rule="evenodd" clip-rule="evenodd" d="M230.003 450.709c-2.097 0-6.445-.561-9.332-4.802-3.166-4.65-.692-9.05 1.059-10.726.72-.69 1.911-.712 2.66-.049.749.663.772 1.76.052 2.45-.297.294-2.922 3.05-.582 6.486 2.493 3.664 6.598 3.169 6.772 3.147 1.023-.134 1.979.513 2.134 1.453.154.941-.537 1.818-1.557 1.97-.067.008-.514.071-1.206.071Z" fill="#204EB2"/></g><mask id="b" style="mask-type:alpha" maskUnits="userSpaceOnUse" x="70" y="192" width="318" height="257"><path fill-rule="evenodd" clip-rule="evenodd" d="M108.8 228.345c-13.349 12.292-37.939 95.416-37.939 95.416s43.56 9.056 73.068 2.911l2.459-8.733-14.54 125.312s103.53 17.138 193.102-9.639l5.232-110.318s34.317 2.678 57.583-1.606c0 0-22.685-80.329-44.785-96.395-22.103-16.065-76.866-29.297-76.866-29.297s-3.572 16.848-38.765 15.356c-25.702-1.089-35.874-14.293-39.752-18.772 0 0-65.447 23.475-78.797 35.765Z" fill="#fff"/></mask><g mask="url(#b)"><path fill-rule="evenodd" clip-rule="evenodd" d="M213.229 381.482c-.83 0-1.589-.51-1.815-1.283-.12-.386-1.332-3.868-5.734-3.806-4.694.077-6.353 3.57-6.421 3.719-.403.875-1.501 1.295-2.455.932-.955-.364-1.415-1.362-1.028-2.243.103-.235 2.608-5.753 9.836-5.872 5.961-.097 8.779 4.124 9.435 6.37.27.924-.324 1.874-1.327 2.123-.164.041-.329.06-.491.06Z" fill="#204EB2"/></g><mask id="c" style="mask-type:alpha" maskUnits="userSpaceOnUse" x="70" y="192" width="318" height="257"><path fill-rule="evenodd" clip-rule="evenodd" d="M108.8 228.345c-13.349 12.292-37.939 95.416-37.939 95.416s43.56 9.056 73.068 2.911l2.459-8.733-14.54 125.312s103.53 17.138 193.102-9.639l5.232-110.318s34.317 2.678 57.583-1.606c0 0-22.685-80.329-44.785-96.395-22.103-16.065-76.866-29.297-76.866-29.297s-3.572 16.848-38.765 15.356c-25.702-1.089-35.874-14.293-39.752-18.772 0 0-65.447 23.475-78.797 35.765Z" fill="#fff"/></mask><g mask="url(#c)"><path fill-rule="evenodd" clip-rule="evenodd" d="M256.565 340.466c-.83 0-1.589-.509-1.815-1.282-.12-.386-1.332-3.887-5.734-3.806-4.694.077-6.353 3.57-6.421 3.718-.403.876-1.501 1.296-2.455.932-.955-.363-1.415-1.361-1.028-2.243.103-.235 2.608-5.752 9.836-5.871 5.961-.087 8.778 4.123 9.435 6.369.27.924-.324 1.874-1.328 2.123a2.01 2.01 0 0 1-.49.06Z" fill="#204EB2"/></g><mask id="d" style="mask-type:alpha" maskUnits="userSpaceOnUse" x="70" y="192" width="318" height="257"><path fill-rule="evenodd" clip-rule="evenodd" d="M108.8 228.345c-13.349 12.292-37.939 95.416-37.939 95.416s43.56 9.056 73.068 2.911l2.459-8.733-14.54 125.312s103.53 17.138 193.102-9.639l5.232-110.318s34.317 2.678 57.583-1.606c0 0-22.685-80.329-44.785-96.395-22.103-16.065-76.866-29.297-76.866-29.297s-3.572 16.848-38.765 15.356c-25.702-1.089-35.874-14.293-39.752-18.772 0 0-65.447 23.475-78.797 35.765Z" fill="#fff"/></mask><g mask="url(#d)"><path fill-rule="evenodd" clip-rule="evenodd" d="M276.868 421.381c-.83 0-1.589-.51-1.815-1.282-.12-.387-1.334-3.89-5.734-3.806-4.694.077-6.353 3.57-6.422 3.718-.403.876-1.5 1.296-2.455.932-.954-.364-1.415-1.361-1.028-2.243.103-.235 2.609-5.752 9.837-5.871 5.959-.093 8.778 4.123 9.435 6.369.27.924-.324 1.874-1.328 2.123a2.01 2.01 0 0 1-.49.06Z" fill="#204EB2"/></g><mask id="e" style="mask-type:alpha" maskUnits="userSpaceOnUse" x="70" y="192" width="318" height="257"><path fill-rule="evenodd" clip-rule="evenodd" d="M108.8 228.345c-13.349 12.292-37.939 95.416-37.939 95.416s43.56 9.056 73.068 2.911l2.459-8.733-14.54 125.312s103.53 17.138 193.102-9.639l5.232-110.318s34.317 2.678 57.583-1.606c0 0-22.685-80.329-44.785-96.395-22.103-16.065-76.866-29.297-76.866-29.297s-3.572 16.848-38.765 15.356c-25.702-1.089-35.874-14.293-39.752-18.772 0 0-65.447 23.475-78.797 35.765Z" fill="#fff"/></mask><g mask="url(#e)"><path fill-rule="evenodd" clip-rule="evenodd" d="M184.441 425.008c-.83 0-1.589-.509-1.815-1.282-.12-.386-1.333-3.875-5.734-3.806-4.694.077-6.353 3.569-6.421 3.718-.403.876-1.501 1.296-2.455.932-.955-.364-1.415-1.361-1.028-2.243.103-.235 2.608-5.753 9.836-5.871 5.962-.096 8.778 4.123 9.435 6.369.27.924-.324 1.874-1.328 2.123a2.01 2.01 0 0 1-.49.06Z" fill="#204EB2"/></g><mask id="f" style="mask-type:alpha" maskUnits="userSpaceOnUse" x="70" y="192" width="318" height="257"><path fill-rule="evenodd" clip-rule="evenodd" d="M108.8 228.345c-13.349 12.292-37.939 95.416-37.939 95.416s43.56 9.056 73.068 2.911l2.459-8.733-14.54 125.312s103.53 17.138 193.102-9.639l5.232-110.318s34.317 2.678 57.583-1.606c0 0-22.685-80.329-44.785-96.395-22.103-16.065-76.866-29.297-76.866-29.297s-3.572 16.848-38.765 15.356c-25.702-1.089-35.874-14.293-39.752-18.772 0 0-65.447 23.475-78.797 35.765Z" fill="#fff"/></mask><g mask="url(#f)"><path fill-rule="evenodd" clip-rule="evenodd" d="M128.985 281.036c-.83 0-1.589-.51-1.815-1.283-.12-.386-1.334-3.887-5.734-3.806-4.694.077-6.353 3.57-6.421 3.719-.403.875-1.501 1.295-2.455.931-.955-.363-1.415-1.361-1.028-2.242.103-.235 2.608-5.753 9.836-5.872 5.962-.096 8.778 4.124 9.435 6.37.27.923-.324 1.874-1.328 2.123a2.06 2.06 0 0 1-.49.06Z" fill="#204EB2"/></g><mask id="g" style="mask-type:alpha" maskUnits="userSpaceOnUse" x="70" y="192" width="318" height="257"><path fill-rule="evenodd" clip-rule="evenodd" d="M108.8 228.345c-13.349 12.292-37.939 95.416-37.939 95.416s43.56 9.056 73.068 2.911l2.459-8.733-14.54 125.312s103.53 17.138 193.102-9.639l5.232-110.318s34.317 2.678 57.583-1.606c0 0-22.685-80.329-44.785-96.395-22.103-16.065-76.866-29.297-76.866-29.297s-3.572 16.848-38.765 15.356c-25.702-1.089-35.874-14.293-39.752-18.772 0 0-65.447 23.475-78.797 35.765Z" fill="#fff"/></mask><g mask="url(#g)"><path fill-rule="evenodd" clip-rule="evenodd" d="M305.657 292.475c-.83 0-1.589-.509-1.815-1.282-.12-.386-1.329-3.882-5.734-3.806-4.694.077-6.353 3.569-6.422 3.718-.402.875-1.5 1.295-2.455.932-.954-.364-1.415-1.361-1.027-2.243.103-.235 2.608-5.753 9.836-5.871 5.962-.092 8.778 4.123 9.435 6.369.27.924-.324 1.874-1.328 2.123a2.01 2.01 0 0 1-.49.06Z" fill="#204EB2"/></g><mask id="h" style="mask-type:alpha" maskUnits="userSpaceOnUse" x="70" y="192" width="318" height="257"><path fill-rule="evenodd" clip-rule="evenodd" d="M108.8 228.345c-13.349 12.292-37.939 95.416-37.939 95.416s43.56 9.056 73.068 2.911l2.459-8.733-14.54 125.312s103.53 17.138 193.102-9.639l5.232-110.318s34.317 2.678 57.583-1.606c0 0-22.685-80.329-44.785-96.395-22.103-16.065-76.866-29.297-76.866-29.297s-3.572 16.848-38.765 15.356c-25.702-1.089-35.874-14.293-39.752-18.772 0 0-65.447 23.475-78.797 35.765Z" fill="#fff"/></mask><g mask="url(#h)"><path fill-rule="evenodd" clip-rule="evenodd" d="M343.235 252.855c-.832 0-1.591-.509-1.817-1.282-.121-.386-1.328-3.87-5.733-3.806-4.695.077-6.354 3.569-6.423 3.718-.404.876-1.498 1.296-2.455.932-.952-.364-1.413-1.361-1.025-2.243.101-.235 2.608-5.753 9.835-5.871 5.963-.094 8.776 4.123 9.435 6.369.27.924-.323 1.874-1.329 2.123-.161.041-.327.06-.488.06Z" fill="#204EB2"/></g><mask id="i" style="mask-type:alpha" maskUnits="userSpaceOnUse" x="70" y="192" width="318" height="257"><path fill-rule="evenodd" clip-rule="evenodd" d="M108.8 228.345c-13.349 12.292-37.939 95.416-37.939 95.416s43.56 9.056 73.068 2.911l2.459-8.733-14.54 125.312s103.53 17.138 193.102-9.639l5.232-110.318s34.317 2.678 57.583-1.606c0 0-22.685-80.329-44.785-96.395-22.103-16.065-76.866-29.297-76.866-29.297s-3.572 16.848-38.765 15.356c-25.702-1.089-35.874-14.293-39.752-18.772 0 0-65.447 23.475-78.797 35.765Z" fill="#fff"/></mask><g mask="url(#i)"><path fill-rule="evenodd" clip-rule="evenodd" d="M268.792 233.075c-2.096 0-6.445-.56-9.332-4.8-3.166-4.651-.692-9.051 1.059-10.728.72-.689 1.911-.711 2.66-.048.749.663.772 1.76.052 2.45-.297.294-2.921 3.05-.582 6.486 2.533 3.72 6.715 3.154 6.757 3.148 1.027-.152 1.991.493 2.154 1.438.164.945-.536 1.833-1.562 1.983-.067.01-.514.071-1.206.071Z" fill="#204EB2"/></g><mask id="j" style="mask-type:alpha" maskUnits="userSpaceOnUse" x="70" y="192" width="318" height="257"><path fill-rule="evenodd" clip-rule="evenodd" d="M108.8 228.345c-13.349 12.292-37.939 95.416-37.939 95.416s43.56 9.056 73.068 2.911l2.459-8.733-14.54 125.312s103.53 17.138 193.102-9.639l5.232-110.318s34.317 2.678 57.583-1.606c0 0-22.685-80.329-44.785-96.395-22.103-16.065-76.866-29.297-76.866-29.297s-3.572 16.848-38.765 15.356c-25.702-1.089-35.874-14.293-39.752-18.772 0 0-65.447 23.475-78.797 35.765Z" fill="#fff"/></mask><g mask="url(#j)"><path fill-rule="evenodd" clip-rule="evenodd" d="M185.455 267.673c-2.096 0-6.445-.56-9.332-4.8-3.166-4.651-.692-9.051 1.059-10.728.72-.689 1.911-.711 2.66-.048.749.663.772 1.76.052 2.45-.297.294-2.922 3.05-.582 6.486 2.493 3.662 6.599 3.168 6.772 3.146 1.023-.134 1.98.515 2.134 1.455.154.941-.537 1.818-1.557 1.968-.067.01-.514.071-1.206.071Z" fill="#204EB2"/></g><mask id="k" style="mask-type:alpha" maskUnits="userSpaceOnUse" x="70" y="192" width="318" height="257"><path fill-rule="evenodd" clip-rule="evenodd" d="M108.8 228.345c-13.349 12.292-37.939 95.416-37.939 95.416s43.56 9.056 73.068 2.911l2.459-8.733-14.54 125.312s103.53 17.138 193.102-9.639l5.232-110.318s34.317 2.678 57.583-1.606c0 0-22.685-80.329-44.785-96.395-22.103-16.065-76.866-29.297-76.866-29.297s-3.572 16.848-38.765 15.356c-25.702-1.089-35.874-14.293-39.752-18.772 0 0-65.447 23.475-78.797 35.765Z" fill="#fff"/></mask><g mask="url(#k)"><path fill-rule="evenodd" clip-rule="evenodd" d="M88.786 319.292c-2.096 0-6.444-.561-9.331-4.801-3.167-4.651-.693-9.051 1.058-10.727.72-.69 1.91-.712 2.66-.048.75.662.772 1.759.052 2.449-.297.294-2.921 3.051-.582 6.486 2.493 3.662 6.599 3.169 6.772 3.146 1.023-.133 1.98.515 2.134 1.455.154.941-.536 1.819-1.556 1.969-.068.009-.515.071-1.207.071Z" fill="#204EB2"/></g><mask id="l" style="mask-type:alpha" maskUnits="userSpaceOnUse" x="70" y="192" width="318" height="257"><path fill-rule="evenodd" clip-rule="evenodd" d="M108.8 228.345c-13.349 12.292-37.939 95.416-37.939 95.416s43.56 9.056 73.068 2.911l2.459-8.733-14.54 125.312s103.53 17.138 193.102-9.639l5.232-110.318s34.317 2.678 57.583-1.606c0 0-22.685-80.329-44.785-96.395-22.103-16.065-76.866-29.297-76.866-29.297s-3.572 16.848-38.765 15.356c-25.702-1.089-35.874-14.293-39.752-18.772 0 0-65.447 23.475-78.797 35.765Z" fill="#fff"/></mask><g mask="url(#l)"><path fill-rule="evenodd" clip-rule="evenodd" d="M303.338 378.443c-2.096 0-6.445-.56-9.332-4.801-3.166-4.651-.692-9.05 1.059-10.727.72-.689 1.91-.711 2.66-.048.749.663.772 1.76.052 2.449-.297.294-2.921 3.051-.583 6.486 2.494 3.662 6.6 3.169 6.773 3.147 1.023-.134 1.98.514 2.134 1.455.154.94-.537 1.818-1.557 1.968-.067.01-.514.071-1.206.071Z" fill="#204EB2"/></g><mask id="m" style="mask-type:alpha" maskUnits="userSpaceOnUse" x="70" y="192" width="318" height="257"><path fill-rule="evenodd" clip-rule="evenodd" d="M108.8 228.345c-13.349 12.292-37.939 95.416-37.939 95.416s43.56 9.056 73.068 2.911l2.459-8.733-14.54 125.312s103.53 17.138 193.102-9.639l5.232-110.318s34.317 2.678 57.583-1.606c0 0-22.685-80.329-44.785-96.395-22.103-16.065-76.866-29.297-76.866-29.297s-3.572 16.848-38.765 15.356c-25.702-1.089-35.874-14.293-39.752-18.772 0 0-65.447 23.475-78.797 35.765Z" fill="#fff"/></mask><g mask="url(#m)"><path fill-rule="evenodd" clip-rule="evenodd" d="M166.06 388.767c-2.096 0-6.444-.561-9.331-4.801-3.167-4.651-.693-9.051 1.058-10.727.72-.69 1.912-.712 2.66-.048.749.663.773 1.759.053 2.449-.298.294-2.922 3.051-.583 6.486 2.493 3.662 6.599 3.168 6.772 3.146 1.023-.134 1.98.515 2.134 1.456.155.94-.536 1.818-1.556 1.968-.068.009-.515.071-1.207.071Z" fill="#204EB2"/></g><mask id="n" style="mask-type:alpha" maskUnits="userSpaceOnUse" x="70" y="192" width="318" height="257"><path fill-rule="evenodd" clip-rule="evenodd" d="M108.8 228.345c-13.349 12.292-37.939 95.416-37.939 95.416s43.56 9.056 73.068 2.911l2.459-8.733-14.54 125.312s103.53 17.138 193.102-9.639l5.232-110.318s34.317 2.678 57.583-1.606c0 0-22.685-80.329-44.785-96.395-22.103-16.065-76.866-29.297-76.866-29.297s-3.572 16.848-38.765 15.356c-25.702-1.089-35.874-14.293-39.752-18.772 0 0-65.447 23.475-78.797 35.765Z" fill="#fff"/></mask><g mask="url(#n)"><path fill-rule="evenodd" clip-rule="evenodd" d="M229.007 413.695a9.674 9.674 0 0 1-2.254-.25c-1.005-.247-1.601-1.196-1.334-2.121.269-.924 1.299-1.474 2.303-1.227.424.098 4.314.878 6.448-2.669 2.274-3.78-.181-6.85-.287-6.979-.622-.759-.468-1.844.352-2.423.819-.58 1.988-.448 2.623.302.17.2 4.107 4.956.603 10.779-2.177 3.62-5.771 4.588-8.454 4.588Z" fill="#204EB2"/></g><mask id="o" style="mask-type:alpha" maskUnits="userSpaceOnUse" x="70" y="192" width="318" height="257"><path fill-rule="evenodd" clip-rule="evenodd" d="M108.8 228.345c-13.349 12.292-37.939 95.416-37.939 95.416s43.56 9.056 73.068 2.911l2.459-8.733-14.54 125.312s103.53 17.138 193.102-9.639l5.232-110.318s34.317 2.678 57.583-1.606c0 0-22.685-80.329-44.785-96.395-22.103-16.065-76.866-29.297-76.866-29.297s-3.572 16.848-38.765 15.356c-25.702-1.089-35.874-14.293-39.752-18.772 0 0-65.447 23.475-78.797 35.765Z" fill="#fff"/></mask><g mask="url(#o)"><path fill-rule="evenodd" clip-rule="evenodd" d="M201.126 349.521a9.696 9.696 0 0 1-2.255-.25c-1.004-.247-1.6-1.196-1.332-2.12.267-.925 1.299-1.475 2.303-1.228.423.098 4.313.879 6.447-2.668 2.31-3.841-.251-6.938-.277-6.969-.64-.754-.494-1.843.325-2.431.819-.589 2.001-.455 2.641.299.169.2 4.106 4.956.603 10.78-2.179 3.62-5.772 4.587-8.455 4.587Z" fill="#204EB2"/></g><mask id="p" style="mask-type:alpha" maskUnits="userSpaceOnUse" x="70" y="192" width="318" height="257"><path fill-rule="evenodd" clip-rule="evenodd" d="M108.8 228.345c-13.349 12.292-37.939 95.416-37.939 95.416s43.56 9.056 73.068 2.911l2.459-8.733-14.54 125.312s103.53 17.138 193.102-9.639l5.232-110.318s34.317 2.678 57.583-1.606c0 0-22.685-80.329-44.785-96.395-22.103-16.065-76.866-29.297-76.866-29.297s-3.572 16.848-38.765 15.356c-25.702-1.089-35.874-14.293-39.752-18.772 0 0-65.447 23.475-78.797 35.765Z" fill="#fff"/></mask><g mask="url(#p)"><path fill-rule="evenodd" clip-rule="evenodd" d="M277.19 262.189a9.631 9.631 0 0 1-2.255-.251c-1.004-.246-1.601-1.195-1.333-2.12.268-.924 1.299-1.474 2.303-1.227.423.097 4.314.878 6.447-2.669 2.275-3.781-.18-6.85-.286-6.979-.622-.759-.468-1.844.351-2.423.819-.58 1.988-.448 2.624.302.17.199 4.106 4.956.603 10.779-2.178 3.62-5.772 4.588-8.454 4.588Z" fill="#204EB2"/></g><mask id="q" style="mask-type:alpha" maskUnits="userSpaceOnUse" x="70" y="192" width="318" height="257"><path fill-rule="evenodd" clip-rule="evenodd" d="M108.8 228.345c-13.349 12.292-37.939 95.416-37.939 95.416s43.56 9.056 73.068 2.911l2.459-8.733-14.54 125.312s103.53 17.138 193.102-9.639l5.232-110.318s34.317 2.678 57.583-1.606c0 0-22.685-80.329-44.785-96.395-22.103-16.065-76.866-29.297-76.866-29.297s-3.572 16.848-38.765 15.356c-25.702-1.089-35.874-14.293-39.752-18.772 0 0-65.447 23.475-78.797 35.765Z" fill="#fff"/></mask><g mask="url(#q)"><path fill-rule="evenodd" clip-rule="evenodd" d="M332.04 324.41a9.593 9.593 0 0 1-2.253-.251c-1.005-.246-1.603-1.196-1.332-2.12.266-.925 1.296-1.474 2.301-1.227.424.098 4.312.879 6.447-2.669 2.273-3.781-.181-6.85-.286-6.979-.622-.759-.469-1.844.351-2.424.819-.579 1.986-.447 2.624.303.17.199 4.106 4.956.602 10.779-2.176 3.62-5.769 4.588-8.454 4.588Z" fill="#204EB2"/></g><mask id="r" style="mask-type:alpha" maskUnits="userSpaceOnUse" x="70" y="192" width="318" height="257"><path fill-rule="evenodd" clip-rule="evenodd" d="M108.8 228.345c-13.349 12.292-37.939 95.416-37.939 95.416s43.56 9.056 73.068 2.911l2.459-8.733-14.54 125.312s103.53 17.138 193.102-9.639l5.232-110.318s34.317 2.678 57.583-1.606c0 0-22.685-80.329-44.785-96.395-22.103-16.065-76.866-29.297-76.866-29.297s-3.572 16.848-38.765 15.356c-25.702-1.089-35.874-14.293-39.752-18.772 0 0-65.447 23.475-78.797 35.765Z" fill="#fff"/></mask><g mask="url(#r)"><path fill-rule="evenodd" clip-rule="evenodd" d="M129.61 242.937a9.69 9.69 0 0 1-2.255-.25c-1.004-.247-1.601-1.196-1.333-2.121.268-.924 1.299-1.474 2.303-1.227.423.097 4.313.879 6.447-2.669 2.275-3.78-.18-6.85-.286-6.979-.622-.759-.468-1.844.351-2.423.82-.58 1.988-.448 2.624.302.169.2 4.106 4.956.603 10.779-2.178 3.621-5.772 4.588-8.454 4.588Z" fill="#204EB2"/></g><mask id="s" style="mask-type:alpha" maskUnits="userSpaceOnUse" x="70" y="192" width="318" height="257"><path fill-rule="evenodd" clip-rule="evenodd" d="M108.8 228.345c-13.349 12.292-37.939 95.416-37.939 95.416s43.56 9.056 73.068 2.911l2.459-8.733-14.54 125.312s103.53 17.138 193.102-9.639l5.232-110.318s34.317 2.678 57.583-1.606c0 0-22.685-80.329-44.785-96.395-22.103-16.065-76.866-29.297-76.866-29.297s-3.572 16.848-38.765 15.356c-25.702-1.089-35.874-14.293-39.752-18.772 0 0-65.447 23.475-78.797 35.765Z" fill="#fff"/></mask><g mask="url(#s)"><path fill-rule="evenodd" clip-rule="evenodd" d="M127.177 322.91a1.99 1.99 0 0 1-.996-.264c-.881-.507-1.148-1.577-.597-2.387.226-.344 2.181-3.537-.873-6.459-3.307-3.163-7.275-1.82-7.315-1.806-.971.341-2.058-.108-2.428-1.002-.37-.894.116-1.895 1.087-2.236.258-.09 6.353-2.154 11.367 2.641 4.135 3.955 2.692 8.729 1.351 10.7-.357.525-.969.813-1.596.813Z" fill="#204EB2"/></g><mask id="t" style="mask-type:alpha" maskUnits="userSpaceOnUse" x="70" y="192" width="318" height="257"><path fill-rule="evenodd" clip-rule="evenodd" d="M108.8 228.345c-13.349 12.292-37.939 95.416-37.939 95.416s43.56 9.056 73.068 2.911l2.459-8.733-14.54 125.312s103.53 17.138 193.102-9.639l5.232-110.318s34.317 2.678 57.583-1.606c0 0-22.685-80.329-44.785-96.395-22.103-16.065-76.866-29.297-76.866-29.297s-3.572 16.848-38.765 15.356c-25.702-1.089-35.874-14.293-39.752-18.772 0 0-65.447 23.475-78.797 35.765Z" fill="#fff"/></mask><g mask="url(#t)"><path fill-rule="evenodd" clip-rule="evenodd" d="M183.24 224.417a1.99 1.99 0 0 1-.996-.264c-.881-.508-1.148-1.577-.597-2.387.226-.344 2.181-3.538-.872-6.459-3.308-3.164-7.276-1.821-7.315-1.806-.971.34-2.059-.108-2.429-1.002-.37-.894.117-1.895 1.088-2.236.257-.09 6.353-2.155 11.367 2.641 4.134 3.955 2.692 8.729 1.351 10.7-.357.525-.97.813-1.597.813Z" fill="#204EB2"/></g><mask id="u" style="mask-type:alpha" maskUnits="userSpaceOnUse" x="70" y="192" width="318" height="257"><path fill-rule="evenodd" clip-rule="evenodd" d="M108.8 228.345c-13.349 12.292-37.939 95.416-37.939 95.416s43.56 9.056 73.068 2.911l2.459-8.733-14.54 125.312s103.53 17.138 193.102-9.639l5.232-110.318s34.317 2.678 57.583-1.606c0 0-22.685-80.329-44.785-96.395-22.103-16.065-76.866-29.297-76.866-29.297s-3.572 16.848-38.765 15.356c-25.702-1.089-35.874-14.293-39.752-18.772 0 0-65.447 23.475-78.797 35.765Z" fill="#fff"/></mask><g mask="url(#u)"><path fill-rule="evenodd" clip-rule="evenodd" d="M359.912 303.379a1.99 1.99 0 0 1-.997-.264c-.88-.508-1.146-1.577-.597-2.387.226-.344 2.18-3.538-.872-6.459-3.258-3.114-7.166-1.857-7.328-1.802-.973.325-2.055-.13-2.414-1.021-.359-.892.121-1.882 1.086-2.221.258-.09 6.351-2.154 11.365 2.641 4.134 3.955 2.693 8.728 1.352 10.7-.355.525-.969.813-1.595.813Z" fill="#204EB2"/></g><mask id="v" style="mask-type:alpha" maskUnits="userSpaceOnUse" x="70" y="192" width="318" height="257"><path fill-rule="evenodd" clip-rule="evenodd" d="M108.8 228.345c-13.349 12.292-37.939 95.416-37.939 95.416s43.56 9.056 73.068 2.911l2.459-8.733-14.54 125.312s103.53 17.138 193.102-9.639l5.232-110.318s34.317 2.678 57.583-1.606c0 0-22.685-80.329-44.785-96.395-22.103-16.065-76.866-29.297-76.866-29.297s-3.572 16.848-38.765 15.356c-25.702-1.089-35.874-14.293-39.752-18.772 0 0-65.447 23.475-78.797 35.765Z" fill="#fff"/></mask><g mask="url(#v)"><path fill-rule="evenodd" clip-rule="evenodd" d="M304.455 231.393c-.341 0-.687-.085-.997-.264-.881-.508-1.147-1.577-.596-2.388.225-.344 2.18-3.537-.873-6.459-3.256-3.114-7.164-1.856-7.329-1.801-.971.325-2.052-.13-2.413-1.022-.36-.892.121-1.881 1.086-2.22.257-.09 6.353-2.155 11.367 2.641 4.134 3.955 2.692 8.728 1.351 10.699-.357.526-.97.814-1.596.814Z" fill="#204EB2"/></g><mask id="w" style="mask-type:alpha" maskUnits="userSpaceOnUse" x="70" y="192" width="318" height="257"><path fill-rule="evenodd" clip-rule="evenodd" d="M108.8 228.345c-13.349 12.292-37.939 95.416-37.939 95.416s43.56 9.056 73.068 2.911l2.459-8.733-14.54 125.312s103.53 17.138 193.102-9.639l5.232-110.318s34.317 2.678 57.583-1.606c0 0-22.685-80.329-44.785-96.395-22.103-16.065-76.866-29.297-76.866-29.297s-3.572 16.848-38.765 15.356c-25.702-1.089-35.874-14.293-39.752-18.772 0 0-65.447 23.475-78.797 35.765Z" fill="#fff"/></mask><g mask="url(#w)"><path fill-rule="evenodd" clip-rule="evenodd" d="M259.909 377.877c-.341 0-.687-.085-.997-.264-.881-.508-1.147-1.577-.596-2.388.226-.344 2.181-3.537-.873-6.459-3.256-3.113-7.164-1.856-7.329-1.801-.971.324-2.052-.131-2.412-1.022-.361-.892.12-1.882 1.085-2.22.257-.091 6.353-2.155 11.367 2.64 4.134 3.956 2.692 8.729 1.351 10.7-.357.526-.97.814-1.596.814Z" fill="#204EB2"/></g><mask id="x" style="mask-type:alpha" maskUnits="userSpaceOnUse" x="70" y="192" width="318" height="257"><path fill-rule="evenodd" clip-rule="evenodd" d="M108.8 228.345c-13.349 12.292-37.939 95.416-37.939 95.416s43.56 9.056 73.068 2.911l2.459-8.733-14.54 125.312s103.53 17.138 193.102-9.639l5.232-110.318s34.317 2.678 57.583-1.606c0 0-22.685-80.329-44.785-96.395-22.103-16.065-76.866-29.297-76.866-29.297s-3.572 16.848-38.765 15.356c-25.702-1.089-35.874-14.293-39.752-18.772 0 0-65.447 23.475-78.797 35.765Z" fill="#fff"/></mask><g mask="url(#x)"><path fill-rule="evenodd" clip-rule="evenodd" d="M322.032 423.914c-.344 0-.687-.085-.998-.264-.88-.507-1.146-1.576-.597-2.387.226-.344 2.18-3.537-.872-6.459-3.256-3.114-7.164-1.856-7.329-1.801-.971.324-2.052-.131-2.412-1.022-.361-.892.12-1.882 1.085-2.221.257-.09 6.353-2.155 11.369 2.641 4.134 3.955 2.689 8.729 1.348 10.7-.355.525-.969.813-1.594.813Z" fill="#204EB2"/></g><mask id="y" style="mask-type:alpha" maskUnits="userSpaceOnUse" x="70" y="191" width="318" height="257"><path fill-rule="evenodd" clip-rule="evenodd" d="M108.8 227.23c-13.349 12.291-37.939 95.416-37.939 95.416s43.56 9.056 73.068 2.91l2.459-8.732-14.54 125.312s103.53 17.137 193.102-9.64l5.232-110.317s34.317 2.678 57.583-1.606c0 0-22.685-80.329-44.785-96.395-22.103-16.065-76.866-29.297-76.866-29.297s-3.572 16.848-38.765 15.356c-25.702-1.089-35.874-14.293-39.752-18.773 0 0-65.447 23.475-78.797 35.766Z" fill="#fff"/></mask><g mask="url(#y)"><path fill-rule="evenodd" clip-rule="evenodd" d="M140.815 444.561a2 2 0 0 1-.996-.264c-.881-.507-1.148-1.576-.597-2.387.226-.344 2.181-3.537-.873-6.459-3.255-3.113-7.164-1.856-7.329-1.801-.971.325-2.052-.131-2.412-1.022-.36-.892.12-1.882 1.085-2.22.258-.091 6.353-2.155 11.367 2.64 4.135 3.956 2.692 8.729 1.351 10.7-.357.527-.969.813-1.596.813Z" fill="#204EB2"/></g><path fill-rule="evenodd" clip-rule="evenodd" d="M382.138 322.4s5.491 65.668-10.351 77.74c-13.335 10.161-32.201 17.86-71.633-28.671-39.43-46.53-67.113-72.896-67.243-91.331-.153-21.719-4.783-78.971 1.326-79.482 6.109-.511 12.604 58.833 35.928 79.798 23.325 20.964 58.961 41.764 58.961 41.764s17.485 2.505 53.012.182Z" fill="#7D4439"/><path fill-rule="evenodd" clip-rule="evenodd" d="M77.33 324.861s-11.665 65.908 11.189 79.936c13.795 8.468 32.846 15.664 73.646-30.866 40.801-46.531 68.959-73.631 70.108-92.038 1.149-18.408.574-82.324-5.747-82.835-6.321-.512-9.194 62.893-33.329 83.857-24.136 20.965-62.638 44.997-62.638 44.997s-15.485 2.069-53.229-3.051Z" fill="#7D4439"/><path fill-rule="evenodd" clip-rule="evenodd" d="m232.105 280.159-2-64.786 1.615-.042 1.999 64.786-1.614.042Z" fill="#000"/><path fill-rule="evenodd" clip-rule="evenodd" d="M225.13 506.113s17.261 6.893 19.34 4.212c2.08-2.681-15.804 13.978-15.804 13.978l-12.894-6.702 9.358-11.488Z" fill="#7D4439"/><path fill-rule="evenodd" clip-rule="evenodd" d="m224.327 506.113-10.059 12.348 13.898 7.224.325-.303-.431-.393.431.393.2-.187.563-.523a1033.637 1033.637 0 0 1 7.914-7.28c2.105-1.914 4.14-3.74 5.517-4.919.19-.162.365-.31.525-.444.459-.124.871-.337 1.148-.693l-20.031-5.223Zm18.299 4.899c.334-.274.605-.486.795-.617a2.05 2.05 0 0 1 .257-.153.82.82 0 0 1 .229-.072c.087-.013.437-.04.64.266a.545.545 0 0 1 .065.474.797.797 0 0 1-.074.167c-.047.08-.111.169-.18.259l-1.732-.324Zm0 0a3.655 3.655 0 0 1-.256.034c-.595.061-1.38.019-2.313-.113-1.86-.262-4.174-.861-6.452-1.552a117.052 117.052 0 0 1-6.127-2.065 135.743 135.743 0 0 1-2.664-1.009l-.036-.015-.012-.004-.241.511.241-.511-.439-.175 18.299 4.899Zm-17.902-3.528.313.121c.479.184 1.165.444 1.993.748 1.658.606 3.892 1.389 6.195 2.087 2.298.697 4.688 1.319 6.649 1.595.484.068.949.117 1.387.14a312.46 312.46 0 0 0-4.944 4.424 1043.278 1043.278 0 0 0-8.362 7.696l-11.89-6.181 8.659-10.63Zm18.743 3.071c.002-.003.002-.003 0 0ZM363.423 514.538s25.371 13.594 5.199 34.848c-20.172 21.253-91.502 6.701-91.502 6.701l-1.871-8.425s71.746-31.975 88.174-33.124Z" fill="#000"/><path fill-rule="evenodd" clip-rule="evenodd" d="M363.423 514.538s9.982 1.914 13.101 12.445c3.119 10.531-3.757 22.795-13.836 26.907 0 0 12.864-26.286-9.733-37.127l10.468-2.225Z" fill="#E0D3CC"/><path fill-rule="evenodd" clip-rule="evenodd" d="M355.272 556.877s-9.11-17.065-13.269-16.682c-4.159.383-49.182 2.535-53.706 1.746l-14.92 5.53 2.638 8.766s55.51 11.962 79.257.64Z" fill="#000"/><path fill-rule="evenodd" clip-rule="evenodd" d="M343.042 524.686s3.328 22.21-1.455 22.21c-4.783 0-6.031-24.891-6.863-16.275-.832 8.616-1.456 19.531-4.575 16.275-3.119-3.255 3.327-27.38.624-20.679-2.703 6.702-4.367 19.339-8.734 19.148-4.367-.192 1.663-13.02-.624-13.404-2.288-.383-6.863 16.659-10.814 14.553-3.951-2.107 3.327-16.084-.832-10.915-4.159 5.17-5.407 11.298-9.15 10.531-3.743-.765.416-7.467 2.704-10.722 2.287-3.255 37.432-15.701 38.472-14.169 1.04 1.532 1.247 3.447 1.247 3.447Z" fill="#F9F9F9"/><path fill-rule="evenodd" clip-rule="evenodd" d="M289.389 546.514s84.015-22.403 123.112-50.933c39.096-28.529 61.763-56.293 39.72-87.502-22.044-31.211-73.825-7.468-98.781 2.68-24.955 10.148-106.787 24.5-145.831 24.409-39.044-.092-91.449-2.773-118.692-10.24-27.244-7.467-70.705-18.764-84.015 11.68-13.31 30.444 2.289 60.314 25.163 70.462 22.875 10.148 93.373 31.976 129.558 29.87l36.185-2.106s15.597-15.892 11.438-39.061l21.835 14.552s12.477-.191 17.053-1.723c4.575-1.532 29.946 54.57 43.255 37.912Z" fill="#B86767"/><path fill-rule="evenodd" clip-rule="evenodd" d="M267.138 549.194s-36.601 12.446-45.335 17.616c-8.735 5.17-26.827 9.574-35.561 4.021-8.734-5.553-3.536-33.125-3.536-33.125s29.323-6.127 32.65-10.34c3.327-4.212 29.946-18.189 29.946-18.189l21.836 40.017Z" fill="#7D4439"/><path fill-rule="evenodd" clip-rule="evenodd" d="M185.842 539.887s-1.888-4.479-7.711-3.522c-5.823.958-60.1-4.595-75.697-8.616-15.596-4.021-48.662 24.508-34.313 44.613 14.348 20.105 33.897 10.531 51.574 9.191 17.676-1.34 51.99 3.255 59.684.957 7.695-2.297 15.389-6.51 15.597-11.488.208-4.978-9.134-31.135-9.134-31.135Z" fill="#000"/><path fill-rule="evenodd" clip-rule="evenodd" d="M106.484 530.371S83.51 540.77 79.352 555.13c-4.158 14.36-2.229 25.856-2.229 25.856s-21.8-9.458-9.37-31.922c12.43-22.464 31.965-24.31 38.731-20.993 6.765 3.316 0 2.3 0 2.3Z" fill="#E0D3CC"/><path fill-rule="evenodd" clip-rule="evenodd" d="M109.028 529.885s9.42 13.756 10.667 23.713c0 0-.831 1.914 9.566 1.723 10.399-.191 58.874-9.986 58.874-9.986s10.428 23 6.659 28.939c-3.769 5.939-75.099-5.358-75.099-5.358s-2.911-1.532-4.783-.192c-1.871 1.341-11.535 13.617-24.795 16.095 0 0 20.636-10.159 22.3-23.562 1.664-13.403-3.389-31.372-3.389-31.372Z" fill="#EEDFD9"/><path fill-rule="evenodd" clip-rule="evenodd" d="M177.507 543.833s-.623 13.02 2.08 20.296c2.704 7.276 4.949 13.623.291 12.843-4.658-.78-9.649-29.693-6.946-32.182 2.704-2.489 4.368-3.255 4.575-.957Z" fill="#fff"/><path fill-rule="evenodd" clip-rule="evenodd" d="M169.813 545.365s-.624 13.02 2.08 20.296c2.703 7.276 4.948 13.622.291 12.842-4.658-.779-9.65-29.692-6.946-32.181 2.703-2.489 4.367-3.255 4.575-.957ZM142.571 545.822s-.624 11.909 2.079 18.564c2.704 6.655 4.949 12.46.292 11.746-4.659-.713-9.65-27.158-6.946-29.435 2.703-2.277 4.367-2.977 4.575-.875ZM132.172 547.27s-.623 11.116 2.08 17.328c2.704 6.212 4.949 11.629.291 10.964-4.658-.666-9.649-25.349-6.945-27.475 2.703-2.125 4.367-2.778 4.574-.817ZM124.7 546.468s-2.332 10.922-.614 17.424c1.718 6.502 3.104 12.159-1.404 10.891-4.508-1.268-5.641-26.354-2.637-28.104s4.752-2.18 4.655-.211Z" fill="#fff"/><path fill-rule="evenodd" clip-rule="evenodd" d="M160.143 546.201s.826 13.011 4.323 19.994c3.498 6.983 6.436 13.085 1.716 12.748-4.72-.337-12.897-28.628-10.484-31.358 2.413-2.731 3.983-3.65 4.445-1.384Z" fill="#fff"/><path fill-rule="evenodd" clip-rule="evenodd" d="M156.064 545.96s-2.81 12.773-1.365 20.347c1.445 7.574 2.593 14.165-1.877 12.729s-4.529-30.711-1.439-32.784c3.091-2.073 4.863-2.592 4.681-.292ZM187.249 544.462s-13.069 2.626-10.366 17.178c2.704 14.552 19.126 10.451 19.126 10.451s3.893-23.937-8.76-27.629Z" fill="#fff"/><path d="m371.203 417.198-114.79 83.369-24.85 9.637-26.314-15.091-90.358-52.634-.864 1.257 90.364 52.636 27.027 15.501 25.823-10.014 114.962-83.494-1-1.167Z" fill="#000"/><path fill-rule="evenodd" clip-rule="evenodd" d="M202.463 487.157s18.716 4.787 23.915 13.02c5.199 8.234 3.536 22.402-11.853 28.338s-21.628 10.914-17.677 1.532c3.951-9.382 11.23-26.615 5.615-42.89ZM256.948 498.07s1.871 19.148 13.309 34.083c11.437 14.935 21.628 16.466 17.884 20.104-3.743 3.638-9.566 5.362-13.309 9.957-3.743 4.596-3.535 4.404-12.269-5.17-8.735-9.574-27.867-30.827-28.283-49.782 0 0 21.004-15.51 22.668-9.192Z" fill="#000"/><path d="M259.675 130.383a1.288 1.288 0 0 1 1.654-.063l.219.187c.144.12.313.256.505.404.553.423 1.175.848 1.848 1.243 1.837 1.079 3.691 1.728 5.412 1.754 1.743.026 3.354-.496 4.796-1.393.498-.31.938-.642 1.314-.972l.121-.109c.094-.085.169-.157.223-.212l.077-.08c.427-.474 1.19-.54 1.705-.146.515.393.586 1.096.159 1.57l-.081.087c-.123.128-.3.299-.531.503-.47.412-1.014.823-1.631 1.207-1.826 1.135-3.904 1.809-6.191 1.775-2.241-.034-4.494-.823-6.675-2.103a20.65 20.65 0 0 1-2.096-1.41l-.181-.141a12.182 12.182 0 0 1-.631-.524 1.054 1.054 0 0 1-.016-1.577ZM233.045 158.68c.339-.505 1.044-.674 1.603-.396l.279.149.207.105a26.39 26.39 0 0 0 3.1 1.282c3.625 1.245 7.528 1.827 11.474 1.385.664-.074 1.267.361 1.348.973.081.611-.392 1.167-1.056 1.241-4.371.489-8.65-.149-12.613-1.509a29.038 29.038 0 0 1-2.865-1.15l-.31-.146a14.005 14.005 0 0 1-.773-.399c-.569-.324-.745-1.011-.394-1.535ZM257.356 122.858l1.537.454-.15.444a96.047 96.047 0 0 0-1.618 5.407 70.958 70.958 0 0 0-1.089 4.654l-.083.437c-.702 3.756-.801 6.624-.174 8.166l.037.087c3.584 8.164-1.283 12.304-11.499 9.405l-.311-.09.492-1.416c9.202 2.712 12.893-.343 9.82-7.342-.845-1.926-.715-5.195.129-9.511a72.43 72.43 0 0 1 1.109-4.744c.35-1.309.721-2.584 1.096-3.787l.14-.447c.084-.267.165-.518.242-.754l.197-.596.125-.367ZM227.339 115.052c1.23-.153 2.374-.204 3.42-.133 1.473.101 3.424.465 5.781 1.037.72.175 1.469.367 2.239.574 1.293.347 2.585.719 3.817 1.09l.81.248.804.252c1.158.372 1.769 1.538 1.365 2.604-.394 1.039-1.608 1.6-2.741 1.282l-.117-.035-.376-.119a127.718 127.718 0 0 0-4.806-1.397 88.843 88.843 0 0 0-2.128-.545l-.447-.107c-1.91-.451-3.473-.734-4.529-.806-.708-.048-1.551-.011-2.497.107a29.102 29.102 0 0 0-3.642.72c-.631.163-1.236.336-1.798.511l-.278.087c-.178.057-.34.11-.484.159l-.295.101c-1.142.413-2.43-.106-2.878-1.157-.448-1.051.115-2.237 1.257-2.649l.231-.082a43.146 43.146 0 0 1 3.044-.907 33.686 33.686 0 0 1 4.248-.835Z" fill="#000"/><path d="m266.58 121.026.534-.013c2.197-.045 4.001.018 5.339.224a14.79 14.79 0 0 1 2.309.563c1.188.384 2.422.91 3.681 1.544.803.404 1.576.832 2.302 1.264l.308.184c.492.299.858.535 1.07.678.965.653 1.172 1.902.464 2.79-.69.864-1.993 1.069-2.951.478l-.299-.195-.248-.157a33.817 33.817 0 0 0-2.726-1.54c-1.067-.537-2.095-.976-3.037-1.28a10.341 10.341 0 0 0-1.587-.392c-1.099-.169-2.851-.219-5.029-.158a100.78 100.78 0 0 0-4.207.214l-.63.046c-.413.031-.809.063-1.187.095l-1.081.098c-1.19.119-2.259-.673-2.388-1.769-.126-1.069.689-2.031 1.833-2.189l.32-.033.489-.044.138-.013c.668-.058 1.4-.116 2.176-.171 1.514-.106 3.005-.185 4.407-.224ZM224.584 126.732a1.291 1.291 0 0 1 1.655-.064l.218.188.185.152a18.331 18.331 0 0 0 2.168 1.495c1.837 1.079 3.691 1.728 5.412 1.754 1.743.026 3.354-.497 4.796-1.393.498-.31.938-.642 1.314-.972l.175-.159c.086-.079.153-.145.2-.193l.046-.049c.427-.474 1.191-.54 1.705-.146.515.393.586 1.096.159 1.57l-.081.087c-.122.128-.3.299-.531.503-.47.412-1.014.823-1.631 1.207-1.826 1.135-3.904 1.809-6.191 1.775-2.241-.034-4.494-.823-6.675-2.103a20.521 20.521 0 0 1-2.095-1.41l-.182-.141a12.182 12.182 0 0 1-.631-.524 1.054 1.054 0 0 1-.016-1.577ZM217.486 179.737l.79-1.296.289.144.264.13c.401.194.856.408 1.363.637l.22.099a74.947 74.947 0 0 0 5.599 2.243c4.622 1.641 9.189 2.761 13.437 3.124 1.926.164 3.751.169 5.46 0l.34-.036.197 1.475c-1.928.219-3.982.226-6.146.041-4.416-.377-9.12-1.531-13.869-3.217a77.296 77.296 0 0 1-5.725-2.293l-.659-.3c-.28-.129-.544-.253-.789-.371l-.457-.222-.314-.158Z" fill="#000"/><mask id="z" style="mask-type:alpha" maskUnits="userSpaceOnUse" x="204" y="0" width="88" height="57"><path fill-rule="evenodd" clip-rule="evenodd" d="M204.222 0h87.038v56.718h-87.038V0Z" fill="#fff"/></mask><g mask="url(#z)"><path fill-rule="evenodd" clip-rule="evenodd" d="M275.937 55.997s-1.641-3.505 7.301-3.888 12.478-17.233-.416-24.7c-12.893-7.468 1.04-15.318-18.716-24.7s-29.53 8.616-29.53 8.616-20.796-7.467-28.074 7.85c-7.279 15.318 5.198 21.446 5.198 21.446s-8.318 5.17-1.663 11.488c6.654 6.319 24.613-.703 27.591 2.712 2.979 3.415 38.309 1.176 38.309 1.176Z" fill="#0F0F0F"/></g><path fill-rule="evenodd" clip-rule="evenodd" d="M216.139 59.506s6.294-10.675 21.266-11.672c14.974-.998 21.691 3.898 23.427 11.672 1.736 7.774-44.693 0-44.693 0Z" fill="#fff"/><mask id="A" style="mask-type:alpha" maskUnits="userSpaceOnUse" x="184" y="55" width="102" height="83"><path fill-rule="evenodd" clip-rule="evenodd" d="M184.307 55.127h101.137v82.257H184.307V55.127Z" fill="#fff"/></mask><g mask="url(#A)"><path fill-rule="evenodd" clip-rule="evenodd" d="M193.319 129.081s-.624-2.489 3.327-5.935c3.951-3.447 2.496-19.339 11.854-22.211 9.358-2.872 24.955-17.616 32.233-17.616 7.279 0 19.757 6.127 24.747 5.745 4.992-.383 11.646 8.807 12.062 13.594.416 4.787 7.233 13.351 2.992 34.726 0 0 4.91-7.154 4.91-15.579s-1.247-10.339-.623-22.402c.623-12.063-.832-24.509-10.398-30.253-9.566-5.744-15.597-16.275-30.362-13.594-14.765 2.68-26.203-.575-34.937 8.042-6.425 6.337-16.013 10.722-18.093 23.742-1.937 12.13-12.634 17.739-2.262 30.793 0 0 4.55 6.736 4.55 10.948Z" fill="#0F0F0F"/></g><path fill-rule="evenodd" clip-rule="evenodd" d="M217.21 58.636s2.754-10.504 20.921-11.62c18.167-1.114 21.705 6.091 22.561 11.967 0 0-7.465-4.597-17.031-2.706-9.567 1.891-20.323.597-26.451 2.36Z" fill="#CEE5D0"/></svg>