<svg width="697" height="515" fill="none" xmlns="http://www.w3.org/2000/svg"><path d="M327.542 432.331s8.871-14.23 20.26-5.816c11.389 8.413 32.481 22.61 32.481 22.61s4.32 9.08-6.861 5.669c-11.181-3.411-47.682-8.899-47.682-8.899l1.802-13.564Z" fill="#72351B"/><path d="M79.63 341.959c2.826-22.226 16.914-44.125 38.594-51.358a101.037 101.037 0 0 0 .005 70.849c3.331 8.81 7.974 18.27 4.841 27.15-1.95 5.525-6.719 9.752-12.05 12.395-5.332 2.643-11.25 3.903-17.092 5.138l-1.15.929c-9.276-20.478-15.976-42.877-13.149-65.103Z" fill="#CEE5D0"/><path d="M118.439 291.022c-12.625 13.831-20.472 31.2-22.426 49.639a37.15 37.15 0 0 0 .442 11.893 21.642 21.642 0 0 0 5.541 10.104c2.498 2.683 5.37 5.145 7.157 8.375a13.063 13.063 0 0 1 .667 10.889c-1.578 4.425-4.688 8.032-7.854 11.455-3.516 3.801-7.23 7.695-8.724 12.734-.18.611-1.14.301-.958-.309 2.6-8.768 11.305-13.748 15.456-21.645 1.937-3.685 2.75-7.963.934-11.852-1.588-3.402-4.548-5.943-7.101-8.638a23.144 23.144 0 0 1-5.795-9.682 34.364 34.364 0 0 1-.908-11.833 84.01 84.01 0 0 1 6.392-26.004 89.469 89.469 0 0 1 16.509-25.867c.431-.472 1.097.271.668.741Z" fill="#fff"/><path d="M96.285 334.688a13.557 13.557 0 0 1-7.756-5.081 13.02 13.02 0 0 1-2.547-8.781c.052-.634 1.06-.585 1.009.049a12.056 12.056 0 0 0 2.371 8.174 12.554 12.554 0 0 0 7.24 4.701c.631.147.311 1.084-.317.938ZM100.547 361.461c5.634-3.29 9.794-8.535 11.649-14.69.183-.609 1.141-.299.958.31-1.942 6.401-6.282 11.851-12.153 15.261-.56.325-1.011-.558-.454-.881ZM106.153 307.603a7.802 7.802 0 0 0 7.26-.36c.555-.331 1.006.553.454.882a8.752 8.752 0 0 1-8.031.416.518.518 0 0 1-.286-.25.501.501 0 0 1-.035-.374.506.506 0 0 1 .253-.285.519.519 0 0 1 .385-.029Z" fill="#fff"/><path d="M184.305 330.299c-.341.217-.681.434-1.023.659a100.637 100.637 0 0 0-12.9 9.847c-.315.275-.63.558-.937.841-9.591 8.819-17.423 19.303-23.1 30.917a99.72 99.72 0 0 0-5.658 14.313c-2.087 6.773-3.8 14.28-7.933 19.82a17.396 17.396 0 0 1-1.38 1.666H94.027c-.085-.042-.17-.075-.255-.117l-1.491.067c.06-.258.127-.525.187-.783.034-.15.077-.3.111-.45.025-.1.051-.2.068-.292.009-.033.017-.066.026-.091.017-.092.043-.175.06-.259.374-1.491.76-2.982 1.158-4.473 0-.009 0-.009.009-.017 3.059-11.355 7.115-22.561 12.781-32.808.17-.308.34-.625.528-.933a96.218 96.218 0 0 1 8.853-13.13 85.905 85.905 0 0 1 5.803-6.49 72.358 72.358 0 0 1 18.132-13.28c13.395-6.914 28.903-9.564 43.218-5.34.366.109.724.217 1.09.333Z" fill="#CEE5D0"/><path d="M184.221 330.763c-18.597 3.611-35.558 12.86-48.473 26.433a38.001 38.001 0 0 0-6.97 9.756 21.345 21.345 0 0 0-1.797 11.33c.342 3.612 1.119 7.269.557 10.9a13.167 13.167 0 0 1-2.093 5.188 13.494 13.494 0 0 1-4.08 3.898c-3.984 2.605-8.688 3.654-13.324 4.523-5.148.965-10.511 1.889-14.807 5.032-.52.381-1.095-.431-.575-.811 7.475-5.47 17.492-4.322 25.669-8.184 3.816-1.801 7.099-4.738 8.045-8.913.826-3.651.027-7.422-.351-11.077a22.76 22.76 0 0 1 1.335-11.142 35.036 35.036 0 0 1 6.561-9.982 87.106 87.106 0 0 1 21.117-17 93.049 93.049 0 0 1 29.109-10.935c.635-.124.709.862.077.984Z" fill="#fff"/><path d="M139.644 352.586a13.048 13.048 0 0 1-3.064-8.622 13.07 13.07 0 0 1 3.374-8.51c.431-.476 1.207.157.775.633a12.1 12.1 0 0 0-3.14 7.922 12.082 12.082 0 0 0 2.885 8.015c.414.489-.418 1.049-.83.562ZM126.56 376.472c6.525.69 13.076-1.049 18.347-4.871.522-.379 1.096.433.575.811-5.493 3.968-12.314 5.764-19.102 5.031-.647-.07-.463-1.041.18-.971ZM164.201 336.77a7.546 7.546 0 0 0 2.495 2.736 7.762 7.762 0 0 0 3.524 1.25c.647.063.462 1.034-.181.972a8.717 8.717 0 0 1-3.893-1.387 8.46 8.46 0 0 1-2.775-3.009.507.507 0 0 1 .127-.686.515.515 0 0 1 .703.124Z" fill="#fff"/><path d="M380.832 489.265c1.096-8.613 6.556-17.1 14.958-19.903a39.151 39.151 0 0 0 .002 27.457c1.291 3.414 3.09 7.081 1.876 10.522a9.033 9.033 0 0 1-4.67 4.804 27.619 27.619 0 0 1-6.624 1.991l-.446.36c-3.595-7.936-6.191-16.617-5.096-25.231Z" fill="#CEE5D0"/><path d="M395.873 469.525c-4.893 5.36-7.934 12.091-8.691 19.237a14.414 14.414 0 0 0 .171 4.61 8.386 8.386 0 0 0 2.148 3.915 17.628 17.628 0 0 1 2.774 3.246c.344.646.546 1.356.59 2.083a5.049 5.049 0 0 1-.332 2.137 13.417 13.417 0 0 1-3.044 4.44c-1.362 1.473-2.801 2.982-3.381 4.935-.07.236-.441.116-.371-.12 1.007-3.398 4.381-5.328 5.99-8.389a5.136 5.136 0 0 0 .362-4.593 13.637 13.637 0 0 0-2.752-3.348 8.96 8.96 0 0 1-2.246-3.752 13.344 13.344 0 0 1-.352-4.586 32.603 32.603 0 0 1 2.477-10.078 34.697 34.697 0 0 1 6.398-10.024c.168-.184.425.105.259.287Z" fill="#fff"/><path d="M387.287 486.447a5.256 5.256 0 0 1-3.006-1.969 5.043 5.043 0 0 1-.986-3.403c.019-.245.41-.227.39.019a4.673 4.673 0 0 0 .919 3.168 4.866 4.866 0 0 0 2.806 1.822c.245.057.121.42-.123.363ZM388.939 496.823a9.913 9.913 0 0 0 4.514-5.693c.072-.236.443-.116.372.12a10.322 10.322 0 0 1-4.71 5.915c-.217.126-.392-.217-.176-.342ZM391.112 475.951a3.034 3.034 0 0 0 2.813-.14c.216-.128.39.214.176.342a3.384 3.384 0 0 1-3.112.161.2.2 0 0 1-.111-.097.19.19 0 0 1-.013-.144.197.197 0 0 1 .247-.122Z" fill="#fff"/><path d="M421.4 484.747c-.132.084-.264.168-.396.255a38.932 38.932 0 0 0-5 3.816 40.368 40.368 0 0 0-9.316 12.308 38.686 38.686 0 0 0-2.192 5.547c-.81 2.625-1.473 5.534-3.075 7.681a6.595 6.595 0 0 1-.535.646h-14.474c-.032-.016-.066-.029-.099-.045l-.578.026.073-.304c.013-.058.03-.116.043-.174a2.261 2.261 0 0 0 .036-.149c.007-.035.017-.068.024-.1.145-.578.295-1.156.449-1.734l.003-.006a56.79 56.79 0 0 1 4.953-12.715c.066-.119.132-.242.205-.362 1-1.784 2.147-3.486 3.431-5.088a33.253 33.253 0 0 1 2.249-2.515 28.052 28.052 0 0 1 7.027-5.147c5.191-2.68 11.201-3.706 16.749-2.069.142.042.281.083.423.129Z" fill="#CEE5D0"/><path d="M421.367 484.926c-7.207 1.4-13.78 4.984-18.785 10.244a14.719 14.719 0 0 0-2.702 3.781 8.275 8.275 0 0 0-.696 4.391 17.14 17.14 0 0 1 .216 4.225 5.11 5.11 0 0 1-.811 2.01 5.245 5.245 0 0 1-1.582 1.511 13.937 13.937 0 0 1-5.164 1.753c-1.995.374-4.073.732-5.738 1.95-.202.148-.424-.167-.223-.314 2.897-2.12 6.779-1.675 9.948-3.172a5.354 5.354 0 0 0 1.969-1.374 5.2 5.2 0 0 0 1.149-2.08 13.278 13.278 0 0 0-.136-4.293 8.822 8.822 0 0 1 .517-4.318 13.565 13.565 0 0 1 2.543-3.869 33.768 33.768 0 0 1 8.184-6.588 36.05 36.05 0 0 1 11.281-4.238c.247-.048.275.334.03.381Z" fill="#fff"/><path d="M404.091 493.384a5.06 5.06 0 0 1-1.187-3.342 5.065 5.065 0 0 1 1.307-3.298c.167-.184.468.061.301.245a4.691 4.691 0 0 0-1.217 3.071 4.682 4.682 0 0 0 1.118 3.106c.16.19-.162.407-.322.218ZM399.021 502.641a10.275 10.275 0 0 0 7.11-1.888c.202-.147.425.168.223.315a10.698 10.698 0 0 1-7.403 1.95c-.251-.028-.18-.404.07-.377ZM413.608 487.254c.228.427.56.791.967 1.061.407.269.877.436 1.366.484.251.024.179.401-.07.377a3.378 3.378 0 0 1-1.509-.538 3.283 3.283 0 0 1-1.075-1.166.197.197 0 0 1 .049-.266.203.203 0 0 1 .272.048Z" fill="#fff"/><path d="M629.505 306.298c-4.345-34.163-25.999-67.822-59.321-78.939a155.288 155.288 0 0 1-.008 108.896c-5.12 13.542-12.257 28.083-7.441 41.731 2.997 8.493 10.328 14.99 18.522 19.053 8.195 4.062 17.29 5.999 26.271 7.896l1.767 1.43c14.258-31.477 24.556-65.905 20.21-100.067Z" fill="#CEE5D0"/><path d="M569.854 228.004c19.405 21.259 31.466 47.956 34.469 76.299.606 6.076.68 12.291-.679 18.28a33.263 33.263 0 0 1-8.517 15.53c-3.839 4.124-8.255 7.908-11.002 12.873-2.895 5.233-3.006 11.178-1.024 16.737 2.425 6.801 7.205 12.344 12.072 17.607 5.404 5.842 11.112 11.827 13.409 19.573.278.938 1.751.461 1.473-.476-3.996-13.476-17.376-21.131-23.757-33.269-2.977-5.664-4.227-12.239-1.436-18.218 2.441-5.228 6.991-9.134 10.915-13.276 4.12-4.35 7.279-9.123 8.907-14.883 1.665-5.891 1.839-12.122 1.395-18.186a129.116 129.116 0 0 0-9.824-39.97c-6.078-14.571-14.66-28.017-25.375-39.758-.663-.727-1.685.416-1.026 1.138v-.001Z" fill="#fff"/><path d="M603.906 295.121c4.795-1.138 9.02-3.906 11.921-7.809a20.016 20.016 0 0 0 3.914-13.498c-.079-.973-1.63-.898-1.551.076a18.532 18.532 0 0 1-3.644 12.564c-2.709 3.629-6.655 6.192-11.127 7.226-.971.226-.479 1.666.487 1.441ZM597.355 336.273c-8.661-5.056-15.054-13.118-17.905-22.578-.282-.938-1.755-.461-1.474.475 2.986 9.839 9.657 18.216 18.681 23.458.86.499 1.554-.859.698-1.355ZM588.738 253.492a12.01 12.01 0 0 1-11.159-.554c-.854-.51-1.546.849-.698 1.355a13.4 13.4 0 0 0 6.09 1.82 13.445 13.445 0 0 0 6.253-1.181.776.776 0 0 0 .494-.958.769.769 0 0 0-.389-.438.792.792 0 0 0-.591-.044Z" fill="#fff"/><path d="M468.614 288.376c.524.333 1.047.666 1.572 1.012a154.683 154.683 0 0 1 19.828 15.136c.485.422.969.858 1.441 1.293 14.741 13.555 26.78 29.668 35.505 47.521a153.13 153.13 0 0 1 8.696 21.999c3.209 10.411 5.842 21.948 12.194 30.464a26.59 26.59 0 0 0 2.122 2.561h57.403c.131-.064.262-.115.393-.179l2.292.102c-.092-.397-.197-.807-.289-1.204-.052-.23-.117-.461-.17-.691-.039-.154-.078-.308-.105-.448a1.513 1.513 0 0 0-.039-.141c-.026-.141-.066-.269-.092-.397a500.183 500.183 0 0 0-1.781-6.877c0-.012 0-.012-.013-.025-4.702-17.454-10.936-34.677-19.645-50.427-.262-.474-.524-.961-.812-1.435a147.899 147.899 0 0 0-13.608-20.181 132.009 132.009 0 0 0-8.919-9.975 111.2 111.2 0 0 0-27.87-20.412c-20.588-10.628-44.424-14.7-66.427-8.208-.563.167-1.113.333-1.676.512Z" fill="#CEE5D0"/><path d="M468.743 289.089c28.585 5.55 54.654 19.766 74.505 40.628 4.225 4.495 8.11 9.414 10.714 14.996a32.82 32.82 0 0 1 2.762 17.414c-.526 5.552-1.721 11.173-.857 16.754.911 5.882 4.483 10.695 9.488 13.967 6.125 4.002 13.355 5.615 20.481 6.951 7.913 1.484 16.155 2.903 22.759 7.735.8.586 1.682-.663.884-1.247-11.49-8.408-26.887-6.643-39.456-12.579-5.864-2.769-10.911-7.284-12.364-13.7-1.271-5.612-.043-11.408.539-17.026.611-5.899.195-11.569-2.052-17.126-2.299-5.684-5.996-10.762-10.085-15.342a133.905 133.905 0 0 0-32.457-26.131 143.077 143.077 0 0 0-44.742-16.808c-.977-.189-1.09 1.325-.119 1.513v.001Z" fill="#fff"/><path d="M537.26 322.632a20.057 20.057 0 0 0 4.71-13.252c-.088-4.824-1.926-9.461-5.187-13.082-.662-.73-1.854.242-1.191.973 3.043 3.367 4.755 7.686 4.827 12.178.072 4.492-1.501 8.861-4.435 12.319-.636.752.643 1.612 1.276.864ZM557.37 359.346c-10.028 1.061-20.097-1.612-28.199-7.487-.802-.583-1.685.665-.884 1.247 8.443 6.098 18.927 8.859 29.36 7.733.995-.108.712-1.601-.277-1.493ZM499.515 298.322a11.599 11.599 0 0 1-3.835 4.205 11.947 11.947 0 0 1-5.416 1.922c-.995.096-.711 1.588.277 1.493a13.378 13.378 0 0 0 5.984-2.132 13.012 13.012 0 0 0 4.266-4.624.77.77 0 0 0-.196-1.055.792.792 0 0 0-1.08.191Z" fill="#fff"/><path d="M696.426 409.195H.852a.863.863 0 0 1-.602-.244.823.823 0 0 1 0-1.178.863.863 0 0 1 .602-.244h695.296a.86.86 0 0 1 .602.244c.16.156.25.368.25.589 0 .46-.103.833-.574.833ZM243.973 482.509H90.32a.863.863 0 0 1-.602-.244.827.827 0 0 1-.25-.589c0-.221.09-.433.25-.59a.863.863 0 0 1 .602-.244h153.374c.226 0 .443.088.603.244.16.157.249.369.249.59 0 .46-.103.833-.573.833ZM485.111 515H331.458a.862.862 0 0 1-.602-.244.823.823 0 0 1 0-1.178.862.862 0 0 1 .602-.244h153.374c.226 0 .443.088.603.244.16.156.25.368.25.589 0 .46-.104.833-.574.833ZM629.964 481.676H476.312a.865.865 0 0 1-.603-.244.83.83 0 0 1-.249-.59c0-.221.09-.432.249-.589a.865.865 0 0 1 .603-.244h153.374a.86.86 0 0 1 .602.244c.16.157.25.368.25.589 0 .461-.103.834-.574.834Z" fill="#F7D59C"/><path d="M283.962 450.017c-9.545 0-18.283-.894-25.226-3.008-8.252-2.512-13.434-6.575-15.402-12.085a13.929 13.929 0 0 1-.801-7.353 14.084 14.084 0 0 1 3.082-6.753c12.208-15.554 54.572-19.94 60.257-20.459l11.532-21.35c.738-5.094-2.753-8.951 3.278-9.047l71.349-.948c5.923-.121 4.242 3.465 5.256 8.432l10.871 18.973-46.785 19.306 7.074 16.853-.462.262c-13.692 7.766-53.07 17.176-84.023 17.177Z" fill="#2F2E41"/><path d="M401.681 397.23s65.337-7.311 61.076 21.932c-4.261 29.242-53.974 49.956-129.255 0l8.523-14.622s28.052-1.364 45.097-8.675l14.559 1.365Z" fill="#22344E"/><path d="M309.18 264.748s-12.418-2.207-15.805 16.557c-3.387 18.765-8.812 63.214-8.812 63.214l-16.845 57.096a11.74 11.74 0 0 0-4.745 4.505 11.39 11.39 0 0 0-1.537 6.29 11.422 11.422 0 0 0 2.149 6.116 11.812 11.812 0 0 0 5.166 4.038 12.102 12.102 0 0 0 6.575.703 11.956 11.956 0 0 0 5.936-2.851 11.545 11.545 0 0 0 3.451-5.517 11.342 11.342 0 0 0-.111-6.466l22.539-60.598 4.297-52.176V268.32c0-.741-.212-1.468-.61-2.099a4.06 4.06 0 0 0-1.648-1.473ZM396.589 264.748s12.419-2.207 15.805 16.557c3.387 18.765 8.812 63.214 8.812 63.214l16.845 57.096a11.735 11.735 0 0 1 4.745 4.505 11.39 11.39 0 0 1 1.537 6.29 11.414 11.414 0 0 1-2.149 6.116 11.812 11.812 0 0 1-5.166 4.038 12.102 12.102 0 0 1-6.575.703 11.956 11.956 0 0 1-5.936-2.851 11.553 11.553 0 0 1-3.451-5.517 11.342 11.342 0 0 1 .111-6.466l-22.539-60.598-4.296-52.176V268.32c0-.741.211-1.468.61-2.099a4.05 4.05 0 0 1 1.647-1.473Z" fill="#72351B"/><path d="m395.643 249.238-23.49-8.59-45.529-.574-19.597 9.164 5.504 30.93s-11.113 18.399 1.123 36.8l2.745 65.567s43.896 24.888 80.948-4.998l-8.374-60.962s14.007-28.284 3.15-38.792l3.52-28.545Z" fill="#B86767"/><path d="m386.076 258.849 9.567-9.611s20.88 10.738 20.45 46.654l-26.339-7.937-3.678-29.106ZM317.655 258.85l-10.165-9.939s-17.935 13.565-17.505 49.48l23.992-10.436 3.678-29.105Z" fill="#B86767"/><path d="M383.916 425.226s-7.317-15.052-19.536-7.836c-12.219 7.215-34.701 19.2-34.701 19.2s-5.258 8.594 6.224 6.333c11.482-2.26 48.368-4.024 48.368-4.024l-.355-13.673Z" fill="#72351B"/><path d="M363.589 156.166c.103-.098.211-.185.313-.284 6.539-6.393 7.864-15.462 2.96-20.257-4.634-4.531-13.17-3.616-19.613 1.893-5.524-5.142-12.931-6.576-17.725-3.026-5.529 4.093-5.486 13.254.096 20.462.382.493.784.96 1.195 1.409-7.428 2.658-13.842 7.484-18.373 13.824-4.532 6.339-6.962 13.887-6.962 21.622v35.923c0 1.054.212 2.097.625 3.07a8.01 8.01 0 0 0 1.778 2.603 8.236 8.236 0 0 0 2.662 1.738 8.368 8.368 0 0 0 3.14.611h67.906c2.103 0 4.12-.817 5.607-2.271a7.664 7.664 0 0 0 2.322-5.481v-36.193c-.001-7.839-2.498-15.482-7.145-21.87-4.647-6.387-11.213-11.201-18.786-13.773Z" fill="#2F2E41"/><path d="M371.359 222.942c12.584-12.304 12.584-32.253 0-44.557-12.585-12.304-32.988-12.304-45.572 0-12.584 12.304-12.584 32.253 0 44.557 12.584 12.304 32.987 12.304 45.572 0Z" fill="#72351B"/><path d="M314.713 180.846c7.364 4.962 16.104 7.603 25.047 7.568a27.187 27.187 0 0 1-10.645 4.282 90.34 90.34 0 0 0 36.098.198 23.712 23.712 0 0 0 7.557-2.537 9.515 9.515 0 0 0 2.996-2.565 9.256 9.256 0 0 0 1.668-3.534c.792-4.424-2.733-8.443-6.397-11.152a47.72 47.72 0 0 0-18.935-8.237 48.225 48.225 0 0 0-20.719.49c-4.43 1.119-8.867 3.011-11.745 6.489-2.877 3.478-3.729 8.84-.988 12.422l-3.937-3.424Z" fill="#2F2E41"/><path d="m142.356 117.974 1.016-1.339 27.053 19.62c-1.471-4.381-6.674-18.269-15.205-23.81-10.191-6.62-17.361-4.561-21.267 1.188-3.906 5.748-3.07 13.009 7.121 19.629 8.639 5.612 24.028 4.832 28.517 4.464l-27.235-19.752ZM549.392 10.557l1.256 1.127-22.771 24.266c4.609-.974 19.278-4.59 25.802-12.308 7.794-9.222 6.445-16.409 1.003-20.805-5.441-4.397-12.914-4.338-20.708 4.883-6.607 7.817-7.414 22.863-7.506 27.267l22.924-24.43ZM182.146 269.655l1.256 1.126-22.771 24.267c4.609-.974 19.278-4.59 25.802-12.309 7.794-9.222 6.445-16.408 1.004-20.805-5.442-4.396-12.914-4.338-20.709 4.884-6.607 7.816-7.413 22.862-7.506 27.267l22.924-24.43ZM374.696 38.365l1.476.834-16.869 28.505c4.285-1.925 17.807-8.555 22.471-17.47 5.571-10.65 2.666-17.382-3.619-20.525-6.285-3.143-13.568-1.507-19.139 9.144-4.723 9.028-2.185 23.889-1.302 28.209l16.982-28.697ZM532.331 216.65l1.475.835-16.869 28.505c4.285-1.925 17.808-8.555 22.471-17.47 5.572-10.651 2.666-17.383-3.618-20.525-6.285-3.143-13.568-1.507-19.14 9.143-4.723 9.029-2.185 23.889-1.302 28.209l16.983-28.697Z" fill="#CEE5D0"/></svg>