<svg width="354" height="491" fill="none" xmlns="http://www.w3.org/2000/svg"><path opacity=".747" fill-rule="evenodd" clip-rule="evenodd" d="m157.114 459.223-2.566-1.26c-41.98-20.728-87.415-48.236-113.723-93.272C14.47 319.555 7.24 256.887 3.056 199.298l-.252-3.519C-1.393 137.132-2.76 84.252 12.463 49.84 27.629 15.454 59.384-.465 98.323.01c38.937.475 85.106 17.447 124.543 59.187 39.492 41.714 72.254 108.195 96.456 175.876 24.202 67.68 39.855 136.431 31.398 182.116-8.563 45.609-41.228 68.025-76.844 72.329-35.561 4.28-74.127-9.526-116.762-30.295Z" fill="#CEE5D0" fill-opacity=".5"/><path fill-rule="evenodd" clip-rule="evenodd" d="M292.785 292.035c-6.284 29.707-27.815 90.828-75.106 85.131-48.921-5.901-84.227-37.972-89.169-91.176-14.222 2.258-17.577-34.69-13.616-46.559 3.964-11.887 16.905-4.935 16.905-4.935l-.201 3.223a220.075 220.075 0 0 1 2.028-9.124c21.371-87.404 81.228-83.938 81.228-83.938 109.985 5.715 84.212 117.677 77.931 147.378Z" fill="#57331F"/><path fill-rule="evenodd" clip-rule="evenodd" d="M305.531 265.747c0-14.415-3.213-32.668 5.433-39.875 8.646-7.208 27.378-19.461 16.571-34.599-10.807-15.136 1.441-44.689-17.291-48.292-18.733-3.604-19.523-9.534-24.567-23.23-5.042-13.695-26.463-2.868-35.258-9.782-8.297-6.52-18.216-17.761-41.185-6.224-12.369 6.213-33.481-17.933-48.852 16.171-9.857 21.872-20.287 2.718-34.551 14.082-16.956 13.507-.456 33.25-15.586 43.34-15.13 10.091-1.953 21.662-7.397 33.034-8.98 18.763 6.38 84.695 16.466 90.461 10.088 5.767 15.305 15.471 15.305 15.471s-4.652-15.805-5.798-30.222c0 0-7.797 1.946-12.052-11.985s-5.767-37.673 3.44-40.348c9.207-2.673 10.928 4.816 10.928 4.816s3.023 11.477 1.273 20.23c-1.751 8.755 3.937 14.008 7 .876s18.376-13.569 15.313-31.515c-3.063-17.946 3.063-28.451 15.314-33.703 12.25-5.252 15.751-31.953 26.25-29.327 10.502 2.627 22.314-8.754 38.503-.875 16.188 7.879 14.875 18.822 28.877 21.447 14 2.627 21.437 11.381 21.437 18.822 0 7.441 9.626 10.067 12.251 20.572 2.625 10.505.325 41.653-5.167 67.807 0 0 13.343-12.736 13.343-27.152Z" fill="#A29483"/><path fill-rule="evenodd" clip-rule="evenodd" d="M205.955 322.788s8.888 21.141 27.428 13.101l-27.428-13.101ZM175.946 257.874s8.785-10.543 16.718-14.991c4.899-2.745 35.134-8.622 36.239-2.408 1.077 6.055-2.033 6.264-14.087 8.233-12.055 1.968-17.703 2.455-24.037 5.44-6.336 2.986-13.492 7.053-14.833 3.726ZM292.569 265.294s1.113-6.393-.42-10.567c-1.534-4.173-20.516-21.543-26.086-20.031-8.849 2.402-5.66 6.654 5.542 14.21 9.008 6.077 12.6 8.416 15.998 12.698 4.643 5.849 4.295 4.633 4.966 3.69Z" fill="#000"/><path d="m249.941 248.883 2.928.942-.286.92a213.189 213.189 0 0 0-3.082 11.215 158.505 158.505 0 0 0-2.072 9.65l-.159.907c-1.336 7.789-1.524 13.737-.331 16.935l.07.182c6.824 16.931-2.442 25.517-21.892 19.505l-.593-.187.937-2.937c17.521 5.623 24.547-.712 18.697-15.226-1.61-3.995-1.362-10.774.245-19.725a161.593 161.593 0 0 1 2.112-9.84 217.452 217.452 0 0 1 2.085-7.853l.267-.928c.161-.552.314-1.074.461-1.563l.375-1.236.238-.761ZM174.034 366.844l1.504-2.688.549.299.504.269c.762.402 1.63.846 2.595 1.322l.419.206a136.793 136.793 0 0 0 10.659 4.65c8.8 3.403 17.494 5.726 25.584 6.479 3.665.342 7.14.35 10.393 0l.648-.075.376 3.061c-3.671.453-7.582.468-11.702.085-8.407-.784-17.363-3.176-26.405-6.673a139.798 139.798 0 0 1-10.9-4.755l-1.255-.622a97.866 97.866 0 0 1-1.501-.77l-.87-.461-.598-.327Z" fill="#000"/><path fill-rule="evenodd" clip-rule="evenodd" d="M215.119 269.399a2.288 2.288 0 0 1-1.558-.609c-.03-.026-3.832-3.412-9.321-3.207-5.679.21-9.45 2.997-9.487 3.025a2.31 2.31 0 0 1-2.792-3.681c.197-.151 4.902-3.699 12.108-3.966 7.417-.268 12.401 4.23 12.609 4.421a2.316 2.316 0 0 1 .14 3.268 2.295 2.295 0 0 1-1.699.749ZM279.775 276.448a2.296 2.296 0 0 1-1.558-.609c-.029-.027-3.832-3.417-9.321-3.207-5.665.209-9.442 2.99-9.478 3.018a2.302 2.302 0 0 1-3.233-.433 2.317 2.317 0 0 1 .431-3.241c.197-.151 4.904-3.7 12.11-3.967 7.413-.266 12.4 4.23 12.608 4.422a2.315 2.315 0 0 1-1.559 4.017Z" fill="#000"/><path fill-rule="evenodd" clip-rule="evenodd" d="M135.977 285.078c0 4.455-3.617 8.066-8.08 8.066-4.462 0-8.08-3.611-8.08-8.066 0-4.456 3.618-8.067 8.08-8.067 4.463 0 8.08 3.611 8.08 8.067Z" fill="#B86767"/></svg>