<svg width="512" height="512" fill="none" xmlns="http://www.w3.org/2000/svg"><path d="M256 59.976c-101.585 0-189.35 44.532-230.712 109.073C9.082 194.335 3.09 222.693 3.09 252.648c0 33.083 11.091 64.212 30.611 91.412a25.642 25.642 0 0 1 4.796 14.963l.997 93.954c-.004 11.852 8.666 19.296 18.97 13.438l68.875-41.361a25.705 25.705 0 0 1 21.01-1.989c32.193 10.985 67.942 17.104 105.591 17.104 107.689 0 201.908-44.894 239.719-115.768 11.83-22.178 18.34-46.393 18.34-71.753 0-106.41-114.615-192.672-256-192.672Z" fill="#F7D59C"/><path d="M273.513 414.413c-37.648 0-91.604-4.769-123.797-15.755a25.709 25.709 0 0 0-21.01 1.989l-58.277 30.817c-3.388 1.791-7.476-.612-7.557-4.445l-1.71-80.36a25.64 25.64 0 0 0-4.796-14.963c-19.52-27.199-38.853-76.871-38.853-109.954 0-20.876 4.43-40.972 12.59-59.799C10.9 188.976 0 219.852 0 252.648c0 33.083 11.092 64.212 30.612 91.412a25.642 25.642 0 0 1 4.795 14.963l-.033 98.074c-.004 11.853 12.787 19.297 23.09 13.439l70.936-40.331a25.707 25.707 0 0 1 21.011-1.989c32.193 10.985 67.941 17.103 105.59 17.103 113.647 0 209.979-55.74 243.41-132.872-43.103 60.676-128.088 101.966-225.898 101.966Z" fill="#B86767"/><path d="m312.41 166.082-34.97.013c-.543 0-12.463 16.003-12.463 16.202v123.23c0 8.955 4.169 13.125 13.123 13.125 8.955 0 16.214-4.169 16.214-13.125v-37.4c6.698-.034 13.901-.064 18.096-.064 28.488 0 51.666-22.875 51.666-50.99 0-28.116-23.177-50.991-51.666-50.991Zm0 69.551c-3.539 0-9.173.022-14.855.048a3.092 3.092 0 0 1-3.106-3.076c-.027-5.946-.05-11.882-.05-15.532 0-3.146-.013-9.239-.029-15.461a3.09 3.09 0 0 1 3.091-3.099h14.949c10.428 0 19.238 8.499 19.238 18.56 0 10.06-8.81 18.56-19.238 18.56Z" fill="#696867"/><path d="M293.553 307.322c-8.954 0-16.214-7.26-16.214-16.216v-123.23c0-.199.023-.391.03-.588.012-.337.017-.674.05-1.008l.021-.183c-.321.013-15.062.768-15.554 16.202v123.23c0 8.955 7.26 16.215 16.214 16.215 8.36 0 15.237-6.328 16.114-14.455-.22.008-.437.033-.661.033Z" fill="#696867"/><path d="M213.053 319.684c-26.928 0-46.775-19.85-46.775-46.78 0-14.9 4.647-28.264 15.2-37.229 8.519-7.239 19.546-11.611 31.575-11.611 26.928 0 48.834 21.91 48.834 48.84a48.59 48.59 0 0 1-9.566 29.005c-8.905 12.025-23.191 17.775-39.268 17.775Zm0-62.996c-8.94 0-16.214 7.274-16.214 16.215 0 8.941 7.273 16.215 16.214 16.215 8.94 0 16.214-7.274 16.214-16.215 0-8.941-7.274-16.215-16.214-16.215ZM414.592 319.793c-17.905-.109-34.673-4.015-48.26-19.009-6.013-6.635-5.509-16.891 1.126-22.905 1.659-1.503 1.484-2.599 3.472-3.295 5.965-2.084 12.86-.557 17.371 4.421 7.343 8.102 18.662 10.476 26.292 10.416 2.081-.016 3.937-.196 5.592-.504 11.709-2.177 15.445-10.796 15.67-13.72.097-1.262.941-14.037-10.664-15.838-16.294-2.529-36.18-6.938-49.902-22.564-9.065-10.32-13.58-23.177-10.127-36.87 2.344-9.291 7.653-17.324 15.169-23.281 3.915-3.103 8.429-5.642 13.434-7.503 24.977-9.285 51.755 5.363 54.726 7.064 6.992 4.003 9.875 12.423 7.144 19.732-.305.815-1.066 1.182-1.512 1.962-4.437 7.753-13.629 10.454-21.392 6.049-4.203-2.347-18.119-8.668-27.288-5.26-3.152 1.171-5.853 3.684-7.322 5.809a10.282 10.282 0 0 0-1.517 3.36c-.855 3.392-.044 7.249 2.018 9.597 5.974 6.803 14.857 9.295 29.157 11.514 24.108 3.742 40.235 24.233 38.347 48.723-.658 8.542-3.766 17.345-9.391 24.822-8.383 11.142-22.354 17.28-42.143 17.28Z" fill="#696867"/><path d="M397.629 205.286c-.001.003.003.003.002.006 1.414-2.507 3.898-4.438 7.433-5.751 9.169-3.407 23.175 2.498 27.377 4.845 7.764 4.404 17.632 1.702 22.069-6.051a16.3 16.3 0 0 0 1.308-2.926c.006-.02.015-.038.022-.058-4.203 1.393-8.948 1.087-13.098-1.267-4.202-2.347-18.209-8.253-27.377-4.845-4.658 1.732-13.869 5.263-17.736 16.047ZM424.894 311.551c-17.906-.109-36.733-6.075-50.32-21.069-4.062-4.483-5.139-10.615-3.372-15.978a16.144 16.144 0 0 0-5.804 3.375c-6.636 6.014-7.139 16.269-1.126 22.905 13.587 14.994 32.415 20.96 50.32 21.069 20.15 0 34.258-8.506 42.586-19.959-8.139 5.892-18.875 9.657-32.284 9.657Z" fill="#696867"/><path d="M422.806 261.017c11.605 1.801 11.086 12.919 10.989 14.181-.234 3.026-2.021 12.15-14.873 13.924 26.303 5.133 28.934-16.435 28.013-24.195-.15-1.256-2.222-12.411-13.827-14.212-16.294-2.529-34.826-6.534-48.548-22.16-9.064-10.32-12.528-25.232-9.096-38.931 2.295-9.16 6.578-14.271 6.577-14.271a89.124 89.124 0 0 0-1.667 1.259c-1.393 1.102-11.427 8.816-15.212 23.314-3.568 13.664.032 28.61 9.096 38.931 13.722 15.624 32.254 19.631 48.548 22.16ZM223.355 311.442c-26.928 0-48.835-21.91-48.835-48.84 0-10.843 3.556-20.869 9.557-28.983-12.037 8.904-19.859 23.196-19.859 39.285 0 26.931 21.907 48.84 48.835 48.84 16.085 0 30.374-7.821 39.277-19.858-8.111 6-18.135 9.556-28.975 9.556Z" fill="#696867"/><path d="M123.545 319.684c-42.91 0-75.761-32.855-75.761-75.771 0-21.122 6.396-40.306 20.1-54.343 14.141-14.484 33.87-23.488 55.661-23.488 42.912 0 77.822 34.915 77.822 77.831 0 24.238-11.136 45.924-28.559 60.21-13.427 11.007-30.586 15.561-49.263 15.561Zm0-121.171c-25.03 0-45.394 20.365-45.394 45.4 0 25.034 20.364 45.4 45.394 45.4 25.032 0 45.395-20.366 45.395-45.4 0-25.035-20.363-45.4-45.395-45.4Z" fill="#696867"/><path d="M133.847 311.442c-42.91 0-77.822-34.915-77.822-77.831 0-18.843 6.734-36.14 17.915-49.62-17.225 14.288-28.216 35.844-28.216 59.922 0 42.916 34.91 77.831 77.821 77.831 24.072 0 45.622-10.989 59.908-28.211-13.477 11.178-30.769 17.909-49.606 17.909Z" fill="#696867"/><path d="M256 397.008c11.471 0 20.771-9.301 20.771-20.774s-9.3-20.773-20.771-20.773-20.771 9.3-20.771 20.773c0 11.473 9.3 20.774 20.771 20.774ZM183.302 397.008c11.471 0 20.771-9.301 20.771-20.774s-9.3-20.773-20.771-20.773-20.77 9.3-20.77 20.773c0 11.473 9.299 20.774 20.77 20.774Z" fill="#CEE5D0"/><path d="M198.755 381.554c-11.471 0-20.771-9.3-20.771-20.773 0-1.638.209-3.225.568-4.754-9.178 2.151-16.02 10.371-16.02 20.206 0 11.474 9.299 20.774 20.77 20.774 9.833 0 18.051-6.841 20.203-16.02a20.773 20.773 0 0 1-4.75.567Z" fill="#696867"/><path d="M328.698 397.008c11.471 0 20.77-9.301 20.77-20.774s-9.299-20.773-20.77-20.773-20.771 9.3-20.771 20.773c0 11.473 9.3 20.774 20.771 20.774Z" fill="#CEE5D0"/><path d="M271.453 381.554c-11.471 0-20.771-9.3-20.771-20.773 0-1.638.209-3.225.568-4.754-9.178 2.151-16.021 10.371-16.021 20.206 0 11.474 9.3 20.774 20.771 20.774 9.833 0 18.051-6.841 20.203-16.02a20.773 20.773 0 0 1-4.75.567ZM344.15 381.554c-11.471 0-20.77-9.3-20.77-20.773 0-1.638.209-3.225.568-4.754-9.178 2.151-16.021 10.371-16.021 20.206 0 11.474 9.3 20.774 20.771 20.774 9.833 0 18.051-6.841 20.203-16.02a20.782 20.782 0 0 1-4.751.567Z" fill="#696867"/><path d="M394.573 491.398a7.726 7.726 0 0 1-2.759-14.946c31.244-11.935 59.61-27.998 84.309-47.742a7.727 7.727 0 1 1 9.65 12.07c-25.949 20.744-55.706 37.602-88.444 50.107a7.676 7.676 0 0 1-2.756.511ZM38.565 72.55a7.727 7.727 0 0 1-4.636-13.913c19.479-14.578 41.1-27.154 64.266-37.376a7.727 7.727 0 0 1 6.239 14.138c-22.097 9.75-42.703 21.732-61.246 35.61a7.69 7.69 0 0 1-4.623 1.541ZM15.398 138.782c-1.694 0-3.4-.555-4.825-1.697a7.726 7.726 0 0 1-1.2-10.86c37.434-46.73 94.08-80.778 159.501-95.87a7.728 7.728 0 0 1 3.474 15.057C110.3 59.727 56.704 91.857 21.434 135.886a7.714 7.714 0 0 1-6.036 2.896ZM305.28 480.223a7.727 7.727 0 0 1-.764-15.414c75.986-7.628 144.137-41.547 186.979-93.058a7.727 7.727 0 0 1 11.88 9.882c-45.412 54.6-117.331 90.522-197.316 98.552a8.188 8.188 0 0 1-.779.038Z" fill="#B86767"/></svg>