<svg width="697" height="445" fill="none" xmlns="http://www.w3.org/2000/svg"><g clip-path="url(#a)"><path d="M397.068 385.608c-4.819-6.184-11.344-10.71-19.546-12.403-7.152-1.477-14.507-1.226-21.777-1.174l-91.932.649c-7.874.056-15.422 6.307-15.057 13.799.363 7.428 6.617 13.858 15.057 13.798l80.789-.571c6.348-.045 12.701-.15 19.05-.131 1.426.005 2.846.073 4.27.088.345.004.594.001.77-.006.044.013.081.024.139.038.743.187 1.505.316 2.253.494-.262.007.484.434.859.578.052.093.162.259.345.514.256.439 1.014 1.775 1.045 1.733a58.372 58.372 0 0 1 2.811 8.1c1.749 6.078 2.134 7.348 2.386 13.05.318 7.203 6.697 14.141 15.056 13.798 7.885-.323 15.398-6.073 15.057-13.798-.576-13.017-3.069-27.639-11.575-38.556Z" fill="#CEE5D0"/><path d="M269.217 416.746c-1.727-9.59-3.421-19.186-5.181-28.769-1.786-9.723-5.434-18.626-13.69-25.008-2.206-1.705-4.493-3.296-6.79-4.883a192.744 192.744 0 0 1-2.413-1.687l-.119-.085a70.093 70.093 0 0 0-.335-.261c-3.441-2.669-6.766-5.456-9.933-8.42a133.268 133.268 0 0 1-9.968-10.39c-.108-.125-.687-.811-1.068-1.258-.355-.448-1.003-1.257-1.112-1.398a131.63 131.63 0 0 1-14.561-23.662 104.25 104.25 0 0 1-1.005-2.171l-.352-.887c-.698-1.758-1.394-3.513-2.032-5.292a121.741 121.741 0 0 1-5.355-20.291c-.028-.166-.197-1.247-.297-1.858-.073-.614-.21-1.7-.229-1.868a124.977 124.977 0 0 1-.684-9.874c-.116-4.06-.036-8.12.238-12.179a132.382 132.382 0 0 1 .694-7.176l.059-.36c.203-1.255.416-2.508.654-3.757a127.723 127.723 0 0 1 6.846-23.442c-.025.061 1.113-2.601 1.128-2.691 4.512-9.77 11.892-18.676 11.902-29.775.007-7.514-6.93-14.712-15.056-14.365-4.052.14-7.886 1.715-10.695 4.395-2.809 2.68-4.372 6.254-4.362 9.97l-.001.452-.196.602c-.88 1.753-1.958 3.418-2.924 5.127-2.645 4.677-4.902 9.507-7.047 14.409a129.303 129.303 0 0 0-8.026 24.689 144.14 144.14 0 0 0-.911 56.09c5.838 32.609 25.09 63.825 51.854 84.807a211.02 211.02 0 0 0 10.107 7.414c.476.329 2.448 1.754 1.58 1.063 1.866 1.459 2.651 2.194 3.131 3.268l.292 1.045c.337 1.212.658 2.421.925 3.65 2.329 10.738 3.949 21.656 5.894 32.463 1.338 7.426 11.314 12.259 18.522 10.034 8.39-2.591 11.949-9.715 10.516-17.671Z" fill="#CEE5D0"/><path d="M398.591 444.597c-6.323.015-12.395-2.269-16.883-6.351-4.488-4.083-7.026-9.63-7.057-15.424v-15.74c-17.982 1.844-79.558 1.417-97.208-1.182v16.292c-.048 5.79-2.591 11.329-7.075 15.408-4.485 4.079-10.547 6.368-16.865 6.368-6.319 0-12.381-2.289-16.865-6.368-4.485-4.079-7.028-9.618-7.075-15.408v-31.988c-23.907-12.171-43.836-29.967-57.731-51.553-13.896-21.586-21.254-46.179-21.316-71.241 0-42.974 21.251-83.061 58.305-109.985 24.092-17.564 53.364-28.128 84.056-30.333a174.79 174.79 0 0 1 12.458-.451c14.447 0 79.629 2.045 95.983 6.357l37.291-33.91a4.033 4.033 0 0 1 2.011-.99 4.248 4.248 0 0 1 2.271.208 3.812 3.812 0 0 1 1.776 1.313 3.33 3.33 0 0 1 .656 2.004v5.392l7.261-6.591a4.027 4.027 0 0 1 2.009-.99 4.24 4.24 0 0 1 2.27.207 3.817 3.817 0 0 1 1.778 1.314 3.33 3.33 0 0 1 .656 2.004v60.251c18.713 15.46 32.974 34.911 41.522 56.63 8.548 21.719 11.118 45.034 7.481 67.881-3.636 22.846-13.366 44.518-28.327 63.095-14.961 18.576-34.691 33.483-57.442 43.401v28.605c-.031 5.794-2.569 11.341-7.057 15.424-4.488 4.082-10.56 6.366-16.883 6.351Zm-22.058-39.471v17.696c.048 5.332 2.393 10.432 6.524 14.187 4.132 3.756 9.715 5.863 15.534 5.863 5.819 0 11.403-2.107 15.534-5.863 4.132-3.755 6.476-8.855 6.524-14.187v-29.695l.537-.234c25.528-11.101 47.2-28.469 62.608-50.175 19.634-27.699 27.8-60.924 23.019-93.662-4.781-32.739-22.194-62.827-49.085-84.819l-.313-.257v-61.021c.007-.37-.11-.734-.336-1.042a1.97 1.97 0 0 0-.926-.679 2.203 2.203 0 0 0-1.19-.113c-.4.072-.766.254-1.051.521l-10.471 9.504v-9.527a1.701 1.701 0 0 0-.337-1.042 1.953 1.953 0 0 0-.926-.68 2.2 2.2 0 0 0-1.192-.112c-.4.074-.767.256-1.052.524l-38.09 34.637-.541-.156c-15.204-4.361-81.412-6.428-95.968-6.428-4.052 0-8.194.15-12.311.446-30.318 2.178-59.234 12.613-83.033 29.965-36.601 26.594-57.593 66.189-57.593 108.633.062 24.84 7.382 49.212 21.197 70.584 13.815 21.371 33.622 38.964 57.364 50.948l.486.247v33.003c.048 5.332 2.394 10.431 6.525 14.185 4.131 3.755 9.714 5.862 15.533 5.862 5.818 0 11.401-2.107 15.533-5.862 4.131-3.754 6.476-8.853 6.525-14.185v-18.357l1.115.192c15.861 2.735 82.652 3.167 98.794 1.226l1.063-.127Z" fill="#B86767"/><path d="M331.364.723c-17.119.006-33.563 6.116-45.852 17.037-12.289 10.921-19.459 25.796-19.993 41.476a63.23 63.23 0 0 0-.028 1.855c0 11.939 3.864 23.61 11.102 33.538 7.238 9.927 17.526 17.665 29.562 22.234 12.037 4.569 25.282 5.764 38.06 3.435 12.778-2.329 24.515-8.079 33.728-16.521 9.212-8.443 15.486-19.2 18.027-30.91 2.542-11.71 1.238-23.848-3.748-34.878-4.986-11.03-13.429-20.46-24.262-27.092C357.128 4.263 344.392.723 331.364.723Zm0 119.01c-16.966-.016-33.232-6.2-45.229-17.194-11.996-10.994-18.744-25.9-18.762-41.449 0-.802.019-1.595.057-2.38.51-11.487 4.693-22.584 12.029-31.91s17.501-16.47 29.232-20.544c11.731-4.074 24.51-4.898 36.748-2.369 12.238 2.529 23.395 8.298 32.084 16.591 8.688 8.293 14.525 18.744 16.785 30.053 2.259 11.308.841 22.976-4.077 33.552-4.919 10.577-13.121 19.595-23.587 25.933-10.467 6.338-22.735 9.718-35.28 9.717Z" fill="#F7D59C"/><path d="M386.885 61.09c0 13.495-5.85 26.437-16.262 35.979-10.412 9.542-24.534 14.903-39.259 14.903-14.725 0-28.847-5.361-39.26-14.903-10.412-9.542-16.261-22.484-16.261-35.979 0-1.612.084-3.199.244-4.769 1.338-13.023 8.098-25.074 18.876-33.65 10.779-8.577 24.747-13.02 39.006-12.405 14.258.613 27.711 6.236 37.564 15.7 9.854 9.465 15.352 22.043 15.352 35.124Z" fill="#F7D59C"/><path d="M157.009 224.299c-13.129-1.778-25.686-6.129-36.815-12.757a88.8 88.8 0 0 1-15.22-11.408c-4.543-4.247-8.89-9.073-11.14-14.729-2.165-5.232-2.053-11.027.312-16.186 2.333-5.128 6.789-9.199 12.392-11.32 5.636-2.06 12.446-2.28 17.932-.024 2.614 1.05 4.876 2.718 6.553 4.834a9.536 9.536 0 0 1 1.704 3.241 6.082 6.082 0 0 1 .085 3.242 7.574 7.574 0 0 1-1.664 2.913 8.427 8.427 0 0 1-2.828 2.023 24.202 24.202 0 0 1-7.672 2.144c-2.691.336-6.557.642-8.721-1.338a4.02 4.02 0 0 1-1.028-1.389c-.163-.401-.219-.832-.163-1.257-.031.187.131-.408.122-.384-.035.088-.183.302.028-.027.066-.109.139-.213.219-.313-.071.085-.228.226.052-.017.232-.232.53-.401.861-.486.13-.035.262-.063.393-.095.332-.084-.331.004.008-.006.131-.004.264-.001.395-.006.333-.014-.329-.083-.01-.01.124.029.247.057.369.092.266.076-.188-.179-.008.012.211.224-.221-.217.018-.001.119.108.232.221.337.34.415.376.976.587 1.56.587.583 0 1.144-.211 1.559-.587.402-.385.626-.897.626-1.429a1.98 1.98 0 0 0-.626-1.43c-2.175-2.471-6.471-1.86-8.672.228-2.806 2.664-1.694 6.885 1.035 9.209 3.09 2.631 7.467 2.814 11.442 2.373a30.043 30.043 0 0 0 9.663-2.503c3.012-1.356 5.367-3.688 6.61-6.544.561-1.524.763-3.14.591-4.741a10.697 10.697 0 0 0-1.585-4.546c-3.509-6.046-10.776-9.146-17.959-9.683a30.432 30.432 0 0 0-10.941 1.204c-3.525 1.06-6.784 2.75-9.591 4.973-5.41 4.463-8.742 10.661-9.305 17.312-.628 6.896 2.292 13.593 6.548 19.158 4.456 5.654 9.774 10.694 15.79 14.965 11.763 8.606 25.56 14.569 40.288 17.413 1.752.331 3.513.615 5.284.851a2.462 2.462 0 0 0 1.661-.213 2.136 2.136 0 0 0 1.052-1.199 1.888 1.888 0 0 0-.214-1.532 2.2 2.2 0 0 0-1.327-.954Z" fill="#CEE5D0"/><path d="M367.222 136.441a791.813 791.813 0 0 0-57.528 1.343c-6.534.391-12.187 2.507-12.187 6.064 0 2.974 5.608 6.458 12.187 6.064a792.116 792.116 0 0 1 57.528-1.342c15.691.203 15.682-11.926 0-12.129Z" fill="#CCC"/><path d="M338.79 147.969c-2.079 0-50.915-.071-50.915-6.253 0-6.181 48.836-6.253 50.915-6.253 2.079 0 50.915.072 50.915 6.253 0 6.182-48.836 6.253-50.915 6.253Zm-49.005-6.253c1.336 1.874 19.287 4.529 49.005 4.529 29.718 0 47.669-2.655 49.006-4.529-1.337-1.874-19.288-4.528-49.006-4.528s-47.669 2.654-49.005 4.528ZM493.735 310.488c10.811-.275 24.266-.619 34.631-7.558 3.086-2.151 5.622-4.895 7.43-8.039 1.808-3.143 2.844-6.611 3.035-10.161.211-5.48-1.949-10.263-6.084-13.465-5.414-4.193-13.319-5.176-21.839-2.881l8.827-59.116-6.48-.813-10.377 69.497 5.411-2.275c6.274-2.637 14.885-3.979 20.236.165a10.586 10.586 0 0 1 2.992 3.935 9.748 9.748 0 0 1 .778 4.743 17.26 17.26 0 0 1-2.28 7.562c-1.344 2.341-3.222 4.39-5.507 6.007-8.067 5.4-18.791 6.096-30.955 6.408l.182 5.991ZM475.819 214.366h-35.225v5.994h35.225v-5.994Z" fill="#CEE5D0"/><path d="M695.88 445H1.12a1.173 1.173 0 0 1-.79-.302.984.984 0 0 1-.327-.725c0-.272.118-.532.327-.725.21-.192.494-.301.79-.302h694.76c.297 0 .582.108.792.301.21.193.328.454.328.726a.985.985 0 0 1-.328.726c-.21.193-.495.301-.792.301Z" fill="#F7D59C"/><path d="m338.488 55.664 2.4-.576c.64 0 .96.384.96 1.152 0 .704-.288 1.568-.864 2.592-.576.96-1.28 1.44-2.112 1.44-3.072 0-6.912-.16-11.52-.48l-.672 7.2a48.81 48.81 0 0 0 4.416.192 39.78 39.78 0 0 0 4.128-.192c1.216-.128 2.144-.288 2.784-.48.704-.256 1.184-.384 1.44-.384.512 0 .768.256.768.768 0 3.008-1.12 4.512-3.36 4.512-1.344 0-4.896-.32-10.656-.96-.64 3.52-1.216 5.856-1.728 7.008l5.664.864c6.336.96 10.976 1.44 13.92 1.44 1.28 0 1.92.992 1.92 2.976 0 .768-.416 1.6-1.248 2.496-.768.832-1.632 1.248-2.592 1.248-4.736 0-11.456-1.6-20.16-4.8-2.24 2.688-4.96 4.032-8.16 4.032-1.28 0-2.496-.416-3.648-1.248-1.088-.832-1.632-1.984-1.632-3.456 0-1.536.544-2.688 1.632-3.456 1.088-.832 2.432-1.248 4.032-1.248s3.168.128 4.704.384c.32-1.216.64-3.36.96-6.432l-3.744.384c-2.496 0-3.744-.704-3.744-2.112 0-1.472 2.144-2.208 6.432-2.208h1.44l.576-6.72-5.568.576c-1.28 0-1.92-.512-1.92-1.536 0-.704.256-1.408.768-2.112.512-.704.96-1.056 1.344-1.056.384 0 .704.064.96.192.704.192 2.272.352 4.704.48.896-9.792 3.68-15.936 8.352-18.432 1.984-1.088 4.48-1.632 7.488-1.632 3.072 0 5.536.864 7.392 2.592 1.856 1.664 2.784 3.936 2.784 6.816 0 1.088-.32 1.984-.96 2.688-.576.704-1.312 1.056-2.208 1.056-.896 0-1.568-.224-2.016-.672a2.293 2.293 0 0 1-.576-1.536l.48-2.688c0-1.728-.544-3.104-1.632-4.128-1.024-1.088-2.24-1.632-3.648-1.632s-2.56.224-3.456.672c-.832.384-1.536 1.024-2.112 1.92a18.337 18.337 0 0 0-1.44 2.688c-.384.832-.704 1.952-.96 3.36a320.224 320.224 0 0 1-.48 3.264c-.128.768-.256 1.856-.384 3.264-.064 1.408-.128 2.272-.192 2.592h1.632c4.8 0 7.904-.224 9.312-.672ZM317.272 80.24c-1.6-.448-2.912-.672-3.936-.672-.96 0-1.44.384-1.44 1.152 0 .448.224.864.672 1.248.448.384 1.088.576 1.92.576.896 0 1.824-.768 2.784-2.304Z" fill="#B86767"/></g><defs><clipPath id="a"><path fill="#fff" d="M0 0h697v445H0z"/></clipPath></defs></svg>