<svg width="697" height="445" viewBox="0 0 697 445" fill="none" xmlns="http://www.w3.org/2000/svg">
<g clip-path="url(#clip0)">
<path d="M397.068 385.608C392.249 379.424 385.724 374.898 377.522 373.205C370.37 371.728 363.015 371.979 355.745 372.031L263.813 372.68C255.939 372.736 248.391 378.987 248.756 386.479C249.119 393.907 255.373 400.337 263.813 400.277C290.743 400.087 317.672 399.896 344.602 399.706C350.95 399.661 357.303 399.556 363.652 399.575C365.078 399.58 366.498 399.648 367.922 399.663C368.267 399.667 368.516 399.664 368.692 399.657C368.736 399.67 368.773 399.681 368.831 399.695C369.574 399.882 370.336 400.011 371.084 400.189C370.822 400.196 371.568 400.623 371.943 400.767C371.995 400.86 372.105 401.026 372.288 401.281C372.544 401.72 373.302 403.056 373.333 403.014C374.471 405.652 375.41 408.358 376.144 411.114C377.893 417.192 378.278 418.462 378.53 424.164C378.848 431.367 385.227 438.305 393.586 437.962C401.471 437.639 408.984 431.889 408.643 424.164C408.067 411.147 405.574 396.525 397.068 385.608Z" fill="#CEE5D0"/>
<path d="M269.217 416.746C267.49 407.156 265.796 397.56 264.036 387.977C262.25 378.254 258.602 369.351 250.346 362.969C248.14 361.264 245.853 359.673 243.556 358.086C242.748 357.528 241.942 356.969 241.143 356.399C241.096 356.365 241.065 356.344 241.024 356.314C240.936 356.245 240.831 356.163 240.689 356.053C237.248 353.384 233.923 350.597 230.756 347.633C227.944 345.002 225.254 342.258 222.687 339.402C222.046 338.689 221.413 337.969 220.788 337.243C220.68 337.118 220.101 336.432 219.72 335.985C219.365 335.537 218.717 334.728 218.608 334.587C217.878 333.641 217.161 332.686 216.456 331.722C211.661 325.138 207.508 318.178 204.047 310.925C203.704 310.206 203.369 309.482 203.042 308.754C202.954 308.532 202.84 308.247 202.69 307.867C201.992 306.109 201.296 304.354 200.658 302.575C199.303 298.797 198.138 294.963 197.163 291.074C196.681 289.153 196.248 287.223 195.862 285.283C195.663 284.285 195.477 283.286 195.303 282.284C195.275 282.118 195.106 281.037 195.006 280.426C194.933 279.812 194.796 278.726 194.777 278.558C194.667 277.548 194.569 276.537 194.484 275.525C194.291 273.249 194.161 270.968 194.093 268.684C193.977 264.624 194.057 260.564 194.331 256.505C194.487 254.224 194.71 251.95 194.984 249.679C195 249.54 195.013 249.429 195.025 249.329C195.042 249.227 195.061 249.112 195.084 248.969C195.287 247.714 195.5 246.461 195.738 245.212C196.641 240.469 197.816 235.773 199.257 231.143C199.939 228.953 200.68 226.782 201.48 224.627C201.837 223.671 202.205 222.719 202.584 221.77C202.559 221.831 203.697 219.169 203.712 219.079C208.224 209.309 215.604 200.403 215.614 189.304C215.621 181.79 208.684 174.592 200.558 174.939C196.506 175.079 192.672 176.654 189.863 179.334C187.054 182.014 185.491 185.588 185.501 189.304C185.501 189.473 185.5 189.617 185.5 189.756C185.424 189.99 185.361 190.186 185.304 190.358C184.424 192.111 183.346 193.776 182.38 195.485C179.735 200.162 177.478 204.992 175.333 209.894C171.823 217.876 169.135 226.141 167.307 234.583C163.332 253.078 163.024 272.078 166.396 290.673C172.234 323.282 191.486 354.498 218.25 375.48C220.573 377.301 222.952 379.06 225.354 380.785C226.347 381.498 227.35 382.198 228.357 382.894C228.833 383.223 230.805 384.648 229.937 383.957C231.803 385.416 232.588 386.151 233.068 387.225C233.137 387.473 233.232 387.81 233.36 388.27C233.697 389.482 234.018 390.691 234.285 391.92C236.614 402.658 238.234 413.576 240.179 424.383C241.517 431.809 251.493 436.642 258.701 434.417C267.091 431.826 270.65 424.702 269.217 416.746Z" fill="#CEE5D0"/>
<path d="M398.591 444.597C392.268 444.612 386.196 442.328 381.708 438.246C377.22 434.163 374.682 428.616 374.651 422.822V407.082C356.669 408.926 295.093 408.499 277.443 405.9V422.192C277.395 427.982 274.852 433.521 270.368 437.6C265.883 441.679 259.821 443.968 253.503 443.968C247.184 443.968 241.122 441.679 236.638 437.6C232.153 433.521 229.61 427.982 229.563 422.192V390.204C205.656 378.033 185.727 360.237 171.832 338.651C157.936 317.065 150.578 292.472 150.516 267.41C150.516 224.436 171.767 184.349 208.821 157.425C232.913 139.861 262.185 129.297 292.877 127.092C297.043 126.793 301.234 126.641 305.335 126.641C319.782 126.641 384.964 128.686 401.318 132.998L438.609 99.0875C439.157 98.5822 439.857 98.238 440.62 98.0987C441.383 97.9595 442.173 98.0315 442.891 98.3056C443.614 98.5692 444.233 99.0271 444.667 99.6192C445.101 100.211 445.33 100.91 445.323 101.623V107.015L452.584 100.424C453.131 99.9183 453.831 99.5735 454.593 99.434C455.355 99.2945 456.145 99.3665 456.863 99.6409C457.586 99.9044 458.206 100.362 458.641 100.955C459.075 101.547 459.304 102.246 459.297 102.959V163.21C478.01 178.67 492.271 198.121 500.819 219.84C509.367 241.559 511.937 264.874 508.3 287.721C504.664 310.567 494.934 332.239 479.973 350.816C465.012 369.392 445.282 384.299 422.531 394.217V422.822C422.5 428.616 419.962 434.163 415.474 438.246C410.986 442.328 404.914 444.612 398.591 444.597V444.597ZM376.533 405.126V422.822C376.581 428.154 378.926 433.254 383.057 437.009C387.189 440.765 392.772 442.872 398.591 442.872C404.41 442.872 409.994 440.765 414.125 437.009C418.257 433.254 420.601 428.154 420.649 422.822V393.127L421.186 392.893C446.714 381.792 468.386 364.424 483.794 342.718C503.428 315.019 511.594 281.794 506.813 249.056C502.032 216.317 484.619 186.229 457.728 164.237L457.415 163.98V102.959C457.422 102.589 457.305 102.225 457.079 101.917C456.853 101.61 456.53 101.373 456.153 101.238C455.778 101.092 455.363 101.052 454.963 101.125C454.563 101.197 454.197 101.379 453.912 101.646L443.441 111.15V101.623C443.448 101.252 443.33 100.888 443.104 100.581C442.879 100.273 442.555 100.036 442.178 99.9019C441.802 99.7552 441.387 99.716 440.986 99.7893C440.586 99.8626 440.219 100.045 439.934 100.313L401.844 134.95L401.303 134.794C386.099 130.433 319.891 128.366 305.335 128.366C301.283 128.366 297.141 128.516 293.024 128.812C262.706 130.99 233.79 141.425 209.991 158.777C173.39 185.371 152.398 224.966 152.398 267.41C152.46 292.25 159.78 316.622 173.595 337.994C187.41 359.365 207.217 376.958 230.959 388.942L231.445 389.189V422.192C231.493 427.524 233.839 432.623 237.97 436.377C242.101 440.132 247.684 442.239 253.503 442.239C259.321 442.239 264.904 440.132 269.036 436.377C273.167 432.623 275.512 427.524 275.561 422.192V403.835L276.676 404.027C292.537 406.762 359.328 407.194 375.47 405.253L376.533 405.126Z" fill="#B86767"/>
<path d="M331.364 0.7229C314.245 0.728967 297.801 6.83916 285.512 17.7602C273.223 28.6812 266.053 43.556 265.519 59.2363C265.501 59.8486 265.491 60.4695 265.491 61.0905C265.491 73.03 269.355 84.7015 276.593 94.6288C283.831 104.556 294.119 112.294 306.155 116.863C318.192 121.432 331.437 122.627 344.215 120.298C356.993 117.969 368.73 112.219 377.943 103.777C387.155 95.3342 393.429 84.5777 395.97 72.8676C398.512 61.1574 397.208 49.0195 392.222 37.9888C387.236 26.9581 378.793 17.5299 367.96 10.8967C357.128 4.2634 344.392 0.7229 331.364 0.7229V0.7229ZM331.364 119.733C314.398 119.717 298.132 113.533 286.135 102.539C274.139 91.5451 267.391 76.6385 267.373 61.0905C267.373 60.2884 267.392 59.495 267.43 58.7102C267.94 47.223 272.123 36.1264 279.459 26.8003C286.795 17.4742 296.96 10.3301 308.691 6.2562C320.422 2.18233 333.201 1.35846 345.439 3.88707C357.677 6.41567 368.834 12.1852 377.523 20.4782C386.211 28.7712 392.048 39.2218 394.308 50.5305C396.567 61.8392 395.149 73.5072 390.231 84.0834C385.312 94.6597 377.11 103.678 366.644 110.016C356.177 116.354 343.909 119.734 331.364 119.733V119.733Z" fill="#F7D59C"/>
<path d="M386.885 61.0905C386.885 74.585 381.035 87.5269 370.623 97.0689C360.211 106.611 346.089 111.972 331.364 111.972C316.639 111.972 302.517 106.611 292.104 97.0689C281.692 87.5269 275.843 74.585 275.843 61.0905C275.843 59.4778 275.927 57.891 276.087 56.3215C277.425 43.2978 284.185 31.2468 294.963 22.6705C305.742 14.0943 319.71 9.65183 333.969 10.2656C348.227 10.8793 361.68 16.502 371.533 25.9663C381.387 35.4306 386.885 48.0093 386.885 61.0905V61.0905Z" fill="#F7D59C"/>
<path d="M157.009 224.299C143.88 222.521 131.323 218.17 120.194 211.542C114.681 208.261 109.577 204.435 104.974 200.134C100.431 195.887 96.0844 191.061 93.8341 185.405C91.669 180.173 91.7806 174.378 94.1458 169.219C96.4787 164.091 100.935 160.02 106.538 157.899C112.174 155.839 118.984 155.619 124.47 157.875C127.084 158.925 129.346 160.593 131.023 162.709C131.803 163.685 132.381 164.783 132.727 165.95C133.048 167.008 133.078 168.122 132.812 169.192C132.49 170.261 131.923 171.254 131.148 172.105C130.374 172.956 129.409 173.646 128.32 174.128C125.922 175.255 123.324 175.981 120.648 176.272C117.957 176.608 114.091 176.914 111.927 174.934C111.481 174.542 111.131 174.069 110.899 173.545C110.736 173.144 110.68 172.713 110.736 172.288C110.705 172.475 110.867 171.88 110.858 171.904C110.823 171.992 110.675 172.206 110.886 171.877C110.952 171.768 111.025 171.664 111.105 171.564C111.034 171.649 110.877 171.79 111.157 171.547C111.389 171.315 111.687 171.146 112.018 171.061C112.148 171.026 112.28 170.998 112.411 170.966C112.743 170.882 112.08 170.97 112.419 170.96C112.55 170.956 112.683 170.959 112.814 170.954C113.147 170.94 112.485 170.871 112.804 170.944C112.928 170.973 113.051 171.001 113.173 171.036C113.439 171.112 112.985 170.857 113.165 171.048C113.376 171.272 112.944 170.831 113.183 171.047C113.302 171.155 113.415 171.268 113.52 171.387C113.935 171.763 114.496 171.974 115.08 171.974C115.663 171.974 116.224 171.763 116.639 171.387C117.041 171.002 117.265 170.49 117.265 169.958C117.265 169.425 117.041 168.913 116.639 168.528C114.464 166.057 110.168 166.668 107.967 168.756C105.161 171.42 106.273 175.641 109.002 177.965C112.092 180.596 116.469 180.779 120.444 180.338C123.803 180.043 127.076 179.195 130.107 177.835C133.119 176.479 135.474 174.147 136.717 171.291C137.278 169.767 137.48 168.151 137.308 166.55C137.137 164.949 136.597 163.399 135.723 162.004C132.214 155.958 124.947 152.858 117.764 152.321C114.066 152.055 110.347 152.464 106.823 153.525C103.298 154.585 100.039 156.275 97.2317 158.498C91.8217 162.961 88.4903 169.159 87.9265 175.81C87.2995 182.706 90.219 189.403 94.4754 194.968C98.9314 200.622 104.249 205.662 110.265 209.933C122.028 218.539 135.825 224.502 150.553 227.346C152.305 227.677 154.066 227.961 155.837 228.197C156.4 228.322 156.994 228.246 157.498 227.984C158.002 227.721 158.379 227.293 158.55 226.785C158.701 226.269 158.624 225.718 158.336 225.253C158.048 224.787 157.571 224.445 157.009 224.299L157.009 224.299Z" fill="#CEE5D0"/>
<path d="M367.222 136.441C347.986 136.193 328.81 136.64 309.694 137.784C303.16 138.175 297.507 140.291 297.507 143.848C297.507 146.822 303.115 150.306 309.694 149.912C328.8 148.769 347.976 148.322 367.222 148.57C382.913 148.773 382.904 136.644 367.222 136.441Z" fill="#CCCCCC"/>
<path d="M338.79 147.969C336.711 147.969 287.875 147.898 287.875 141.716C287.875 135.535 336.711 135.463 338.79 135.463C340.869 135.463 389.705 135.535 389.705 141.716C389.705 147.898 340.869 147.969 338.79 147.969ZM289.785 141.716C291.121 143.59 309.072 146.245 338.79 146.245C368.508 146.245 386.459 143.59 387.796 141.716C386.459 139.842 368.508 137.188 338.79 137.188C309.072 137.188 291.121 139.842 289.785 141.716V141.716Z" fill="#CEE5D0"/>
<path d="M493.735 310.488C504.546 310.213 518.001 309.869 528.366 302.93C531.452 300.779 533.988 298.035 535.796 294.891C537.604 291.748 538.64 288.28 538.831 284.73C539.042 279.25 536.882 274.467 532.747 271.265C527.333 267.072 519.428 266.089 510.908 268.384L519.735 209.268L513.255 208.455L502.878 277.952L508.289 275.677C514.563 273.04 523.174 271.698 528.525 275.842C529.839 276.926 530.863 278.272 531.517 279.777C532.17 281.282 532.437 282.905 532.295 284.52C532.136 287.161 531.359 289.74 530.015 292.082C528.671 294.423 526.793 296.472 524.508 298.089C516.441 303.489 505.717 304.185 493.553 304.497L493.735 310.488Z" fill="#CEE5D0"/>
<path d="M475.819 214.366H440.594V220.36H475.819V214.366Z" fill="#CEE5D0"/>
<path d="M695.88 445H1.12065C0.824045 444.999 0.539888 444.891 0.330459 444.698C0.121031 444.506 0.00341797 444.245 0.00341797 443.973C0.00341797 443.701 0.121031 443.441 0.330459 443.248C0.539888 443.056 0.824045 442.947 1.12065 442.946H695.88C696.177 442.946 696.462 443.054 696.672 443.247C696.882 443.44 697 443.701 697 443.973C697 444.245 696.882 444.507 696.672 444.699C696.462 444.892 696.177 445 695.88 445V445Z" fill="#F7D59C"/>
<path d="M338.488 55.664L340.888 55.088C341.528 55.088 341.848 55.472 341.848 56.24C341.848 56.944 341.56 57.808 340.984 58.832C340.408 59.792 339.704 60.272 338.872 60.272C335.8 60.272 331.96 60.112 327.352 59.792L326.68 66.992C328.088 67.12 329.56 67.184 331.096 67.184C332.632 67.184 334.008 67.12 335.224 66.992C336.44 66.864 337.368 66.704 338.008 66.512C338.712 66.256 339.192 66.128 339.448 66.128C339.96 66.128 340.216 66.384 340.216 66.896C340.216 69.904 339.096 71.408 336.856 71.408C335.512 71.408 331.96 71.088 326.2 70.448C325.56 73.968 324.984 76.304 324.472 77.456L330.136 78.32C336.472 79.28 341.112 79.76 344.056 79.76C345.336 79.76 345.976 80.752 345.976 82.736C345.976 83.504 345.56 84.336 344.728 85.232C343.96 86.064 343.096 86.48 342.136 86.48C337.4 86.48 330.68 84.88 321.976 81.68C319.736 84.368 317.016 85.712 313.816 85.712C312.536 85.712 311.32 85.296 310.168 84.464C309.08 83.632 308.536 82.48 308.536 81.008C308.536 79.472 309.08 78.32 310.168 77.552C311.256 76.72 312.6 76.304 314.2 76.304C315.8 76.304 317.368 76.432 318.904 76.688C319.224 75.472 319.544 73.328 319.864 70.256L316.12 70.64C313.624 70.64 312.376 69.936 312.376 68.528C312.376 67.056 314.52 66.32 318.808 66.32H320.248L320.824 59.6L315.256 60.176C313.976 60.176 313.336 59.664 313.336 58.64C313.336 57.936 313.592 57.232 314.104 56.528C314.616 55.824 315.064 55.472 315.448 55.472C315.832 55.472 316.152 55.536 316.408 55.664C317.112 55.856 318.68 56.016 321.112 56.144C322.008 46.352 324.792 40.208 329.464 37.712C331.448 36.624 333.944 36.08 336.952 36.08C340.024 36.08 342.488 36.944 344.344 38.672C346.2 40.336 347.128 42.608 347.128 45.488C347.128 46.576 346.808 47.472 346.168 48.176C345.592 48.88 344.856 49.232 343.96 49.232C343.064 49.232 342.392 49.008 341.944 48.56C341.56 48.112 341.368 47.6 341.368 47.024L341.848 44.336C341.848 42.608 341.304 41.232 340.216 40.208C339.192 39.12 337.976 38.576 336.568 38.576C335.16 38.576 334.008 38.8 333.112 39.248C332.28 39.632 331.576 40.272 331 41.168C330.424 42.064 329.944 42.96 329.56 43.856C329.176 44.688 328.856 45.808 328.6 47.216C328.408 48.56 328.248 49.648 328.12 50.48C327.992 51.248 327.864 52.336 327.736 53.744C327.672 55.152 327.608 56.016 327.544 56.336H329.176C333.976 56.336 337.08 56.112 338.488 55.664ZM317.272 80.24C315.672 79.792 314.36 79.568 313.336 79.568C312.376 79.568 311.896 79.952 311.896 80.72C311.896 81.168 312.12 81.584 312.568 81.968C313.016 82.352 313.656 82.544 314.488 82.544C315.384 82.544 316.312 81.776 317.272 80.24Z" fill="#B86767"/>
</g>
<defs>
<clipPath id="clip0">
<rect width="697" height="445" fill="white"/>
</clipPath>
</defs>
</svg>
