<svg width="100" height="100" fill="none" xmlns="http://www.w3.org/2000/svg"><path d="M50 0C22.387 0 0 22.386 0 50s22.387 50 50 50 50-22.386 50-50S77.613 0 50 0Zm5.754 66.608c-4.626 0-8.975-2.5-10.465-5.34 0 0-2.488 9.868-3.01 11.771-1.856 6.732-7.311 13.465-7.736 14.017-.295.383-.95.264-1.017-.246-.115-.857-1.509-9.35.13-16.275l5.507-23.34S37.8 44.462 37.8 40.419c0-6.347 3.678-11.086 8.26-11.086 3.894 0 5.774 2.925 5.774 6.43 0 3.917-2.492 9.773-3.778 15.199-1.075 4.543 2.276 8.25 6.757 8.25 8.116 0 13.578-10.423 13.578-22.774 0-9.385-6.318-16.413-17.82-16.413-12.988 0-21.089 9.688-21.089 20.513 0 3.73 1.103 6.364 2.828 8.4.79.935.903 1.312.616 2.386-.208.788-.675 2.685-.874 3.435-.285 1.086-1.163 1.473-2.146 1.073-5.98-2.442-8.77-8.995-8.77-16.362 0-12.167 10.26-26.756 30.611-26.756 16.353 0 27.116 11.832 27.116 24.536.001 16.806-9.342 29.359-23.108 29.359Z" fill="#F7D59C"/></svg>