<svg width="100" height="100" viewBox="0 0 100 100" fill="none" xmlns="http://www.w3.org/2000/svg">
<path d="M50 0C22.3867 0 0 22.3857 0 50C0 77.6143 22.3867 100 50 100C77.6133 100 100 77.6143 100 50C100 22.3857 77.6133 0 50 0ZM55.7535 66.6077C51.1284 66.6077 46.7785 64.1074 45.289 61.2685C45.289 61.2685 42.801 71.1356 42.2783 73.0394C40.4235 79.7708 34.9678 86.5043 34.5432 87.0558C34.2476 87.4394 33.5939 87.3197 33.5263 86.8102C33.4107 85.9529 32.0174 77.4609 33.6563 70.535C34.4757 67.0568 39.1632 47.1959 39.1632 47.1959C39.1632 47.1959 37.7985 44.4614 37.7985 40.4184C37.7985 34.0706 41.4772 29.332 46.0583 29.332C49.9529 29.332 51.8332 32.2568 51.8332 35.7627C51.8332 39.6788 49.3412 45.5345 48.0552 50.9606C46.98 55.5038 50.3315 59.2102 54.8123 59.2102C62.9279 59.2102 68.3898 48.7877 68.3898 36.4368C68.3898 27.0517 62.0716 20.0235 50.5708 20.0235C37.5816 20.0235 29.4813 29.7125 29.4813 40.5371C29.4813 44.267 30.5841 46.9013 32.309 48.9361C33.0997 49.8721 33.2123 50.2486 32.9248 51.3228C32.7171 52.1115 32.2496 54.0082 32.0512 54.7581C31.7657 55.8445 30.888 56.2312 29.9049 55.8312C23.9243 53.3893 21.1355 46.8358 21.1355 39.4691C21.1355 27.3023 31.3954 12.713 51.7463 12.713C68.0992 12.713 78.8624 24.5453 78.8624 37.2491C78.8634 54.0552 69.5202 66.6077 55.7535 66.6077Z" fill="#F7D59C"/>
</svg>
