<svg width="728" height="479" viewBox="0 0 728 479" fill="none" xmlns="http://www.w3.org/2000/svg">
<g clip-path="url(#clip0)">
<path d="M339.188 254.483C314.022 254.483 289.421 247.02 268.496 233.039C247.571 219.057 231.263 199.185 221.632 175.935C212.001 152.684 209.482 127.1 214.391 102.418C219.301 77.7354 231.419 55.0632 249.214 37.2682C267.01 19.4732 289.682 7.3546 314.364 2.44496C339.047 -2.46467 364.631 0.0551357 387.881 9.68573C411.131 19.3163 431.004 35.6252 444.985 56.5499C458.966 77.4746 466.429 102.075 466.429 127.241C466.391 160.976 452.973 193.318 429.119 217.173C405.265 241.027 372.922 254.445 339.188 254.483ZM339.188 3.41318C314.697 3.41318 290.756 10.6756 270.392 24.282C250.029 37.8884 234.158 57.2277 224.785 79.8544C215.413 102.481 212.961 127.379 217.739 151.399C222.517 175.419 234.31 197.483 251.628 214.801C268.946 232.119 291.01 243.912 315.03 248.69C339.05 253.468 363.948 251.016 386.575 241.644C409.201 232.271 428.541 216.4 442.147 196.037C455.753 175.673 463.016 151.732 463.016 127.241C462.979 94.4115 449.921 62.9369 426.706 39.7226C403.492 16.5084 372.018 3.45029 339.188 3.41318ZM334.919 206.546L317.833 202.312L323.466 179.765C320.913 179.121 318.345 178.455 315.797 177.773L310.157 200.386L293.09 196.151L298.794 173.251C298.127 173.078 297.459 172.903 296.79 172.728C294.787 172.204 292.756 171.672 290.64 171.153L270.761 166.192L278.971 147.229L280.391 147.607C282.356 148.128 284.432 148.67 286.162 149.111L285.922 148.751L290.461 150.112C290.877 150.25 291.317 150.303 291.755 150.269C292.192 150.235 292.618 150.114 293.009 149.914C293.399 149.713 293.746 149.438 294.029 149.102C294.312 148.767 294.525 148.379 294.657 147.96L303.252 113.5L303.244 113.497L310.05 86.2188C310.185 83.0174 308.504 81.0225 304.914 80.1234L301.083 79.1626L301.178 79.1018C299.367 78.6626 297.092 78.1293 294.949 77.6402L293.252 77.2527L297.755 59.1963L318.406 64.3543C320.723 64.9226 323.098 65.484 325.531 66.0384L331.187 43.3965L348.271 47.6304L342.746 69.7982C343.718 70.0248 344.69 70.249 345.66 70.4706C347.273 70.8414 348.879 71.2097 350.47 71.593L355.965 49.5594L373.117 53.7891L367.465 76.587C381.012 81.4442 397.633 90.1753 394.735 109.608L394.596 110.536L394.432 110.608C392.74 120.448 387.747 126.998 379.561 130.135C391.512 137.774 394.783 148.762 389.572 163.61C381.34 187.149 360.421 187.145 340.643 183.599L334.919 206.546ZM321.974 199.822L332.432 202.413L338.11 179.654L339.692 179.953C366.707 185.057 380.226 179.995 386.351 162.482C391.447 147.963 387.684 138.012 374.511 131.161L370.407 129.027L374.913 127.985C384.327 125.806 389.656 119.654 391.205 109.175L391.342 108.247L391.482 108.185C393.01 95.0859 384.759 86.1506 364.879 79.2961L363.403 78.7878L368.982 56.2842L358.453 53.6885L352.956 75.7255L351.3 75.3114C349.192 74.7839 347.05 74.2923 344.896 73.7981C343.358 73.4448 341.815 73.0907 340.275 72.7215L338.6 72.3199L344.133 50.122L333.673 47.5296L328.032 70.1099L326.402 69.7391C323.389 69.0533 320.445 68.3692 317.586 67.6676L300.241 63.3345L297.406 74.7005C300.239 75.2607 303.041 75.9703 305.8 76.8262C310.952 78.1386 313.739 81.6876 313.45 86.5723L313.402 86.8848L307.354 111.123L307.374 111.132L306.968 112.671L306.888 112.651L306.857 112.749L306.951 112.773L297.941 148.884C297.687 149.739 297.266 150.534 296.702 151.225C296.137 151.915 295.442 152.486 294.655 152.905C293.868 153.323 293.005 153.581 292.117 153.663C291.23 153.746 290.335 153.65 289.484 153.383L289.489 153.367C288.184 153.192 285.765 152.563 280.935 151.282L275.492 163.856L291.459 167.84C293.586 168.361 295.635 168.897 297.654 169.426C298.869 169.744 300.073 170.06 301.28 170.368L302.924 170.787L297.227 193.662L307.67 196.253L313.328 173.571L315.009 174.026C318.632 175.009 322.312 175.964 325.946 176.867L327.605 177.279L321.974 199.822ZM344.596 165.293C336.337 165.293 327.282 162.913 321.455 161.383C320.446 161.118 319.546 160.881 318.778 160.691L317.117 160.281L325.504 126.636L327.163 127.054C328.1 127.29 329.25 127.548 330.554 127.842C340.05 129.981 355.943 133.561 361.645 142.815C363.312 145.488 364.001 148.657 363.592 151.782H363.727L363.234 153.901C362.831 155.697 362.062 157.391 360.976 158.878C359.89 160.365 358.51 161.613 356.921 162.543C353.517 164.56 349.178 165.293 344.596 165.293ZM321.253 157.801C321.594 157.89 321.951 157.984 322.322 158.081C330.29 160.177 346.869 164.53 355.181 159.607C357.33 158.367 358.93 156.36 359.66 153.989L359.888 153.075C360.3 151.661 360.41 150.177 360.212 148.718C360.014 147.259 359.512 145.858 358.739 144.605C353.791 136.575 338.187 133.06 329.804 131.172C329.162 131.027 328.556 130.89 327.994 130.761L321.253 157.801ZM350.802 120.264C344.019 120.264 336.771 118.334 332.084 117.087C331.222 116.858 330.454 116.653 329.801 116.491L328.143 116.08L335.793 85.2749L337.449 85.6857C338.217 85.8765 339.156 86.084 340.221 86.319C348.012 88.0388 361.051 90.9187 365.993 98.9307C367.56 101.463 368.197 104.461 367.796 107.411H367.928L367.5 109.532C367.122 111.256 366.392 112.883 365.357 114.313C364.322 115.743 363.004 116.944 361.484 117.842C358.2 119.579 354.514 120.414 350.802 120.264ZM332.275 113.606C332.496 113.665 332.725 113.726 332.962 113.789C339.867 115.625 352.72 119.047 359.751 114.902C361.558 113.855 362.949 112.217 363.691 110.264L364.088 108.698C364.49 107.373 364.609 105.978 364.437 104.604C364.264 103.23 363.805 101.908 363.088 100.723C358.904 93.9393 346.272 91.1503 339.486 89.652C339.067 89.5595 338.667 89.4712 338.288 89.3862L332.275 113.606Z" fill="#3F3D56"/>
<path d="M404.68 227.212C405.589 225.934 406.784 224.886 408.17 224.151C409.556 223.417 411.095 223.017 412.663 222.982C414.231 222.948 415.785 223.281 417.202 223.954C418.618 224.627 419.858 225.622 420.822 226.86L454.656 215.36L449.965 233.327L418.555 241.493C416.589 242.826 414.216 243.423 411.853 243.181C409.49 242.939 407.287 241.872 405.632 240.168C403.977 238.465 402.974 236.232 402.8 233.863C402.626 231.494 403.292 229.139 404.68 227.212V227.212Z" fill="#A36125"/>
<path d="M670.431 476.923C672.925 450.07 679.811 423.809 690.816 399.188C693.883 392.337 697.259 385.636 700.944 379.086C701.89 377.4 699.3 375.886 698.353 377.572C684.954 401.428 675.567 427.325 670.567 454.227C669.176 461.739 668.131 469.305 667.431 476.923C667.253 478.845 670.255 478.833 670.431 476.923V476.923Z" fill="#CEE5D0"/>
<path d="M708.21 383.897C718.703 383.897 727.21 375.39 727.21 364.897C727.21 354.404 718.703 345.897 708.21 345.897C697.716 345.897 689.21 354.404 689.21 364.897C689.21 375.39 697.716 383.897 708.21 383.897Z" fill="#CEE5D0"/>
<path d="M672.375 477.428C673.992 460.007 678.46 442.97 685.599 426.997C687.589 422.552 689.779 418.205 692.17 413.956C692.289 413.734 692.318 413.474 692.25 413.231C692.182 412.987 692.022 412.78 691.804 412.653C691.586 412.525 691.327 412.488 691.082 412.548C690.836 412.607 690.624 412.76 690.489 412.974C681.796 428.451 675.707 445.251 672.463 462.704C671.561 467.577 670.883 472.485 670.429 477.428C670.313 478.674 672.26 478.667 672.375 477.428H672.375Z" fill="#CEE5D0"/>
<path d="M696.883 417.077C703.691 417.077 709.21 411.559 709.21 404.751C709.21 397.944 703.691 392.425 696.883 392.425C690.076 392.425 684.557 397.944 684.557 404.751C684.557 411.559 690.076 417.077 696.883 417.077Z" fill="#CEE5D0"/>
<path d="M669.918 476.264C660.479 461.533 653.523 445.352 649.328 428.367C648.163 423.638 647.216 418.864 646.487 414.043C646.445 413.794 646.308 413.571 646.105 413.422C645.901 413.272 645.648 413.207 645.397 413.241C645.147 413.274 644.92 413.404 644.763 413.602C644.607 413.8 644.533 414.051 644.558 414.302C647.223 431.852 652.755 448.845 660.932 464.6C663.218 468.998 665.702 473.285 668.384 477.461C669.06 478.515 670.59 477.312 669.918 476.264V476.264Z" fill="#CEE5D0"/>
<path d="M644.542 416.212C651.35 416.212 656.869 410.694 656.869 403.886C656.869 397.078 651.35 391.56 644.542 391.56C637.735 391.56 632.216 397.078 632.216 403.886C632.216 410.694 637.735 416.212 644.542 416.212Z" fill="#CEE5D0"/>
<path d="M571.31 298.525C572.119 297.298 572.65 295.908 572.864 294.454C573.078 292.999 572.971 291.516 572.55 290.107C572.129 288.699 571.404 287.4 570.426 286.302C569.449 285.204 568.243 284.333 566.892 283.752L569.483 248.111L553.28 257.183L553.304 289.638C552.478 291.971 552.536 294.526 553.468 296.819C554.4 299.112 556.14 300.983 558.36 302.079C560.579 303.174 563.123 303.418 565.51 302.763C567.897 302.108 569.961 300.6 571.31 298.525V298.525Z" fill="#A36125"/>
<path d="M567.279 159.979L571.71 273.397L553.71 272.397L549.71 153.397L553.506 151.611C554.95 150.931 556.54 150.62 558.134 150.704C559.728 150.789 561.276 151.267 562.64 152.096C564.004 152.924 565.141 154.078 565.951 155.454C566.761 156.829 567.217 158.384 567.279 159.979V159.979Z" fill="#B86767"/>
<path d="M511.612 466.235L499.352 466.234L493.52 418.946L511.614 418.947L511.612 466.235Z" fill="#A36125"/>
<path d="M490.595 462.731H514.239V477.618H475.708C475.708 475.663 476.093 473.727 476.841 471.921C477.589 470.115 478.686 468.474 480.068 467.092C481.451 465.709 483.092 464.613 484.898 463.865C486.704 463.116 488.64 462.731 490.595 462.731V462.731Z" fill="#2F2E41"/>
<path d="M613.615 451.583L602.489 456.734L577.329 416.272L593.749 408.671L613.615 451.583Z" fill="#A36125"/>
<path d="M593.071 457.234L614.527 447.301L620.781 460.81L585.816 476.997C584.157 473.414 583.99 469.319 585.35 465.613C586.711 461.906 589.488 458.892 593.071 457.234V457.234Z" fill="#2F2E41"/>
<path d="M482.502 311.908L495.146 456.197L512.146 454.197L524.71 322.397L594.146 448.197L612.146 443.197C612.146 443.197 554.21 269.897 549.71 255.397C544.777 239.502 505.71 233.397 505.71 233.397L504.21 231.897C487.423 254.495 480.699 283.815 482.502 311.908Z" fill="#2F2E41"/>
<path d="M549.859 139.093C563.424 139.093 574.42 128.096 574.42 114.531C574.42 100.967 563.424 89.9705 549.859 89.9705C536.294 89.9705 525.298 100.967 525.298 114.531C525.298 128.096 536.294 139.093 549.859 139.093Z" fill="#A36125"/>
<path d="M565.279 161.922L548.209 250.892C548.209 250.892 522.269 245.712 513.029 239.472C509.369 236.992 506.049 234.432 503.249 232.112C502.699 231.662 502.179 231.212 501.669 230.782C497.049 226.832 494.209 223.892 494.209 223.892C494.209 223.892 495.689 216.642 497.499 208.062C499.519 198.452 501.969 187.162 503.219 182.552C505.969 172.442 515.409 160.662 522.769 152.642C525.434 149.734 528.84 147.605 532.622 146.485C536.404 145.365 540.42 145.295 544.239 146.282L557.559 149.722C560.156 150.392 562.4 152.027 563.835 154.294C565.269 156.56 565.786 159.288 565.279 161.922V161.922Z" fill="#B86767"/>
<path opacity="0.2" d="M523.999 200.782C523.999 200.782 514.819 219.862 501.669 230.782C497.049 226.832 494.209 223.892 494.209 223.892C494.209 223.892 495.689 216.642 497.499 208.062C508.519 202.242 519.879 198.572 523.999 200.782Z" fill="black"/>
<path d="M540.279 165.857C539.373 165.395 538.425 165.018 537.448 164.733C535.454 164.186 533.355 164.143 531.341 164.607C529.326 165.072 527.457 166.029 525.903 167.393L471.946 206.916L429.031 221.351L436.785 239.691L500.761 224.067L543.191 186.36C544.651 184.96 545.757 183.232 546.417 181.32C547.078 179.407 547.274 177.365 546.99 175.362C546.705 173.359 545.948 171.453 544.781 169.8C543.615 168.147 542.071 166.796 540.279 165.857V165.857Z" fill="#B86767"/>
<path d="M551.313 138.867C554.808 133.634 557.567 126.379 553.718 121.401C549.919 116.486 542.426 117.21 536.608 115.036C528.504 112.007 523.804 102.487 525.269 93.9603C526.735 85.434 533.58 78.3659 541.733 75.4739C549.887 72.5819 559.082 73.5224 567.066 76.8527C576.896 80.9524 585.328 88.883 588.863 98.929C592.399 108.975 590.509 121.037 583.174 128.759C575.31 137.037 562.968 139.243 551.551 139.109" fill="#2F2E41"/>
<path d="M589.881 109.907C590.882 115.498 597.015 118.673 602.652 119.371C608.289 120.069 614.12 119.174 619.607 120.64C629.281 123.225 635.662 132.528 639.174 141.906C642.686 151.283 644.244 161.404 648.807 170.317C653.37 179.231 662.217 187.089 672.196 186.255C670.241 191.176 666.815 195.375 662.386 198.278C657.957 201.181 652.74 202.646 647.447 202.474C642.154 202.303 637.043 200.502 632.812 197.319C628.58 194.135 625.433 189.723 623.801 184.686C620.136 173.369 624.344 159.873 617.933 149.852C614.386 144.307 608.26 141.045 602.354 138.139C596.447 135.233 590.248 132.25 586.288 126.991C582.328 121.733 581.537 113.429 586.417 109.011" fill="#2F2E41"/>
<path d="M709.485 478.145H389.191C388.875 478.145 388.572 478.019 388.349 477.796C388.125 477.572 388 477.27 388 476.954C388 476.638 388.125 476.335 388.349 476.112C388.572 475.889 388.875 475.763 389.191 475.763H709.485C709.8 475.763 710.103 475.889 710.327 476.112C710.55 476.335 710.675 476.638 710.675 476.954C710.675 477.27 710.55 477.572 710.327 477.796C710.103 478.019 709.8 478.145 709.485 478.145V478.145Z" fill="#F7D59C"/>
<path d="M321.485 478.145H1.19069C0.874901 478.145 0.572035 478.019 0.34874 477.796C0.125444 477.572 0 477.27 0 476.954C0 476.638 0.125444 476.335 0.34874 476.112C0.572035 475.889 0.874901 475.763 1.19069 475.763H321.485C321.8 475.763 322.103 475.889 322.327 476.112C322.55 476.335 322.675 476.638 322.675 476.954C322.675 477.27 322.55 477.572 322.327 477.796C322.103 478.019 321.8 478.145 321.485 478.145V478.145Z" fill="#F7D59C"/>
<path d="M205.801 465.134L217.522 461.537L209.226 414.618L191.928 419.927L205.801 465.134Z" fill="#72351B"/>
<path d="M243.465 465.483L206.63 476.788L202.262 462.556L224.865 455.619C228.64 454.461 232.72 454.849 236.208 456.699C239.696 458.549 242.306 461.709 243.465 465.483V465.483Z" fill="#2F2E41"/>
<path d="M101.803 465.403H114.063L119.895 418.115L101.801 418.116L101.803 465.403Z" fill="#72351B"/>
<path d="M137.707 476.786L99.1765 476.788L99.1758 461.901L122.82 461.9C126.768 461.9 130.555 463.468 133.346 466.259C136.138 469.051 137.707 472.838 137.707 476.786V476.786Z" fill="#2F2E41"/>
<path d="M104.924 308.326C103.916 307.443 103.115 306.35 102.576 305.124C102.037 303.898 101.773 302.568 101.803 301.229C101.834 299.89 102.157 298.574 102.751 297.373C103.345 296.173 104.195 295.117 105.242 294.281L114.747 174.586L134.078 179.416L118.6 296.174C119.889 298.025 120.454 300.284 120.189 302.523C119.923 304.763 118.845 306.827 117.159 308.325C115.474 309.823 113.297 310.65 111.042 310.65C108.787 310.651 106.61 309.824 104.924 308.326V308.326Z" fill="#72351B"/>
<path d="M150.634 129.162C164.199 129.162 175.195 118.166 175.195 104.601C175.195 91.0361 164.199 80.0398 150.634 80.0398C137.07 80.0398 126.073 91.0361 126.073 104.601C126.073 118.166 137.07 129.162 150.634 129.162Z" fill="#72351B"/>
<path d="M117.088 176.96C111.251 168.947 111.071 157.911 117.359 150.247C121.462 145.245 128.325 141.242 139.784 141.242C170.327 141.242 181.912 165.466 181.912 165.466C181.912 165.466 194.551 188.637 187.178 209.701C179.806 230.765 179.806 232.871 179.806 232.871L131.358 228.658C131.358 228.658 139.531 207.772 117.088 176.96Z" fill="#B86767"/>
<path d="M102.148 197.928L112.585 163.782C113.284 161.496 114.477 159.391 116.079 157.616C117.681 155.842 119.653 154.44 121.856 153.511C124.059 152.583 126.439 152.149 128.828 152.241C131.217 152.334 133.557 152.95 135.682 154.045V154.045C139.369 155.955 142.191 159.195 143.577 163.108C144.963 167.021 144.81 171.316 143.147 175.12L129.878 205.338L102.148 197.928Z" fill="#B86767"/>
<path d="M178.752 227.605L219.827 440.352L197.71 446.671L143.997 306.595L119.773 449.831L96.6026 452.99C96.6026 452.99 86.4389 263.472 131.358 228.658L178.752 227.605Z" fill="#2F2E41"/>
<path d="M233.959 205.523C233.603 205.947 233.281 206.398 232.996 206.872L183.461 209.274L173.923 180.154L157.361 188.026L172.948 231.397L234.211 219.416C235.65 220.988 237.534 222.084 239.612 222.559C241.689 223.034 243.863 222.865 245.842 222.075C247.821 221.284 249.513 219.91 250.693 218.135C251.872 216.36 252.483 214.268 252.444 212.137C252.406 210.006 251.719 207.937 250.476 206.206C249.233 204.475 247.493 203.163 245.486 202.445C243.479 201.727 241.301 201.637 239.242 202.187C237.183 202.736 235.34 203.9 233.959 205.523V205.523Z" fill="#72351B"/>
<path d="M149.898 168.525C149.618 166.15 149.864 163.743 150.617 161.474C151.37 159.205 152.613 157.129 154.256 155.393C155.9 153.657 157.905 152.303 160.13 151.427C162.355 150.551 164.744 150.174 167.131 150.323V150.323C171.274 150.589 175.161 152.421 178.004 155.447C180.846 158.472 182.432 162.466 182.439 166.618V199.62L154.07 203.985L149.898 168.525Z" fill="#B86767"/>
<path d="M156.036 129.385C152.35 129.369 149.506 125.487 149.671 121.805C149.836 118.122 152.31 114.882 155.29 112.712C158.27 110.542 161.764 109.22 165.088 107.624C168.411 106.029 171.705 104.039 173.757 100.976C174.996 98.9718 175.736 96.6989 175.914 94.3488C176.092 91.9987 175.703 89.6403 174.78 87.4719C172.871 83.135 169.592 79.5436 165.447 77.2477C159.279 73.6721 152.001 72.5213 145.03 74.0196C138.142 75.5309 127.876 79.7148 123.84 85.4981L119.632 96.9559C115.344 102.112 118.664 109.769 121.3 115.936C123.935 122.102 129.548 126.741 135.881 128.947C142.306 131.012 149.184 131.218 155.722 129.542" fill="#2F2E41"/>
<path d="M133.589 91.2243C131.78 88.325 128.645 86.481 125.403 85.3988C121.648 84.1451 117.654 83.7751 113.733 84.3176C109.811 84.86 106.068 86.3003 102.794 88.5262C99.5198 90.7522 96.8038 93.7037 94.8573 97.1511C92.9107 100.598 91.7861 104.449 91.571 108.402C91.2275 114.716 93.2047 120.891 94.3665 127.107C95.5283 133.323 95.7594 140.188 92.332 145.503C89.7215 149.551 85.3681 152.099 81.0712 154.275C77.4899 156.089 73.6161 157.791 69.618 157.43C65.62 157.068 61.6016 153.902 61.7077 149.889C60.3693 152.766 59.4656 155.826 59.0261 158.969C58.7448 162.125 59.5227 165.53 61.8021 167.731C65.1152 170.93 70.3646 170.696 74.9178 170.005C84.7747 168.511 94.756 165.71 102.543 159.485C110.331 153.26 115.498 143.01 113.447 133.254C112.591 129.178 110.577 125.458 108.95 121.624C107.324 117.79 106.054 113.597 106.801 109.5C107.243 107.389 108.143 105.401 109.438 103.677C110.733 101.952 112.39 100.532 114.293 99.5183C118.142 97.517 122.547 96.8491 126.816 97.6193C129.615 98.0786 133.11 98.7918 134.77 96.4919C135.21 95.7633 135.435 94.925 135.418 94.0741C135.402 93.2231 135.145 92.3942 134.677 91.6833C133.719 90.2771 132.499 89.0685 131.084 88.1237" fill="#2F2E41"/>
<path d="M453 127C453 157.5 440.884 186.75 419.317 208.317C397.751 229.884 368.5 242 338 242C307.5 242 278.249 229.884 256.683 208.317C235.116 186.75 223 157.5 223 127C223 123.355 223.175 119.768 223.506 116.221C226.278 86.7853 240.279 59.5479 262.604 40.1641C284.929 20.7804 313.862 10.7396 343.395 12.1267C372.929 13.5139 400.793 26.2223 421.203 47.6132C441.613 69.0041 453 97.434 453 127V127Z" fill="#F7D59C"/>
<path d="M353.6 106.8L358.6 105.6C359.933 105.6 360.6 106.4 360.6 108C360.6 109.467 360 111.267 358.8 113.4C357.6 115.4 356.133 116.4 354.4 116.4C348 116.4 340 116.067 330.4 115.4L329 130.4C331.933 130.667 335 130.8 338.2 130.8C341.4 130.8 344.267 130.667 346.8 130.4C349.333 130.133 351.267 129.8 352.6 129.4C354.067 128.867 355.067 128.6 355.6 128.6C356.667 128.6 357.2 129.133 357.2 130.2C357.2 136.467 354.867 139.6 350.2 139.6C347.4 139.6 340 138.933 328 137.6C326.667 144.933 325.467 149.8 324.4 152.2L336.2 154C349.4 156 359.067 157 365.2 157C367.867 157 369.2 159.067 369.2 163.2C369.2 164.8 368.333 166.533 366.6 168.4C365 170.133 363.2 171 361.2 171C351.333 171 337.333 167.667 319.2 161C314.533 166.6 308.867 169.4 302.2 169.4C299.533 169.4 297 168.533 294.6 166.8C292.333 165.067 291.2 162.667 291.2 159.6C291.2 156.4 292.333 154 294.6 152.4C296.867 150.667 299.667 149.8 303 149.8C306.333 149.8 309.6 150.067 312.8 150.6C313.467 148.067 314.133 143.6 314.8 137.2L307 138C301.8 138 299.2 136.533 299.2 133.6C299.2 130.533 303.667 129 312.6 129H315.6L316.8 115L305.2 116.2C302.533 116.2 301.2 115.133 301.2 113C301.2 111.533 301.733 110.067 302.8 108.6C303.867 107.133 304.8 106.4 305.6 106.4C306.4 106.4 307.067 106.533 307.6 106.8C309.067 107.2 312.333 107.533 317.4 107.8C319.267 87.4 325.067 74.6 334.8 69.4C338.933 67.1333 344.133 66 350.4 66C356.8 66 361.933 67.8 365.8 71.4C369.667 74.8667 371.6 79.6 371.6 85.6C371.6 87.8667 370.933 89.7333 369.6 91.2C368.4 92.6667 366.867 93.4 365 93.4C363.133 93.4 361.733 92.9333 360.8 92C360 91.0667 359.6 90 359.6 88.8L360.6 83.2C360.6 79.6 359.467 76.7333 357.2 74.6C355.067 72.3333 352.533 71.2 349.6 71.2C346.667 71.2 344.267 71.6667 342.4 72.6C340.667 73.4 339.2 74.7333 338 76.6C336.8 78.4667 335.8 80.3333 335 82.2C334.2 83.9333 333.533 86.2667 333 89.2C332.6 92 332.267 94.2667 332 96C331.733 97.6 331.467 99.8667 331.2 102.8C331.067 105.733 330.933 107.533 330.8 108.2H334.2C344.2 108.2 350.667 107.733 353.6 106.8ZM309.4 158C306.067 157.067 303.333 156.6 301.2 156.6C299.2 156.6 298.2 157.4 298.2 159C298.2 159.933 298.667 160.8 299.6 161.6C300.533 162.4 301.867 162.8 303.6 162.8C305.467 162.8 307.4 161.2 309.4 158Z" fill="#B86767"/>
</g>
<defs>
<clipPath id="clip0">
<rect width="727.21" height="478.36" fill="white"/>
</clipPath>
</defs>
</svg>
