<svg width="728" height="479" fill="none" xmlns="http://www.w3.org/2000/svg"><g clip-path="url(#a)"><path d="M339.188 254.483a127.247 127.247 0 0 1-117.556-78.548 127.245 127.245 0 0 1 27.582-138.667A127.248 127.248 0 0 1 387.881 9.686a127.24 127.24 0 0 1 78.548 117.555 127.388 127.388 0 0 1-127.241 127.242Zm0-251.07a123.832 123.832 0 0 0-114.403 76.441 123.83 123.83 0 0 0 217.362 116.183 123.835 123.835 0 0 0 20.869-68.796A123.965 123.965 0 0 0 339.188 3.413Zm-4.269 203.133-17.086-4.234 5.633-22.547a550.194 550.194 0 0 1-7.669-1.992l-5.64 22.613-17.067-4.235 5.704-22.9c-.667-.173-1.335-.348-2.004-.523-2.003-.524-4.034-1.056-6.15-1.575l-19.879-4.961 8.21-18.963 1.42.378c1.965.521 4.041 1.063 5.771 1.504l-.24-.36 4.539 1.361a3.299 3.299 0 0 0 2.548-.198 3.321 3.321 0 0 0 1.648-1.954l8.595-34.46-.008-.003 6.806-27.278c.135-3.202-1.546-5.197-5.136-6.096l-3.831-.96.095-.061c-1.811-.44-4.086-.973-6.229-1.462l-1.697-.387 4.503-18.057 20.651 5.158c2.317.569 4.692 1.13 7.125 1.684l5.656-22.641 17.084 4.233-5.525 22.168c.972.227 1.944.451 2.914.673 1.613.37 3.219.739 4.81 1.122l5.495-22.034 17.152 4.23-5.652 22.798c13.547 4.857 30.168 13.588 27.27 33.021l-.139.928-.164.072c-1.692 9.84-6.685 16.39-14.871 19.527 11.951 7.639 15.222 18.627 10.011 33.475-8.232 23.539-29.151 23.535-48.929 19.989l-5.724 22.947Zm-12.945-6.724 10.458 2.591 5.678-22.759 1.582.299c27.015 5.104 40.534.042 46.659-17.471 5.096-14.519 1.333-24.47-11.84-31.321l-4.104-2.134 4.506-1.042c9.414-2.179 14.743-8.331 16.292-18.81l.137-.928.14-.062c1.528-13.1-6.723-22.034-26.603-28.889l-1.476-.508 5.579-22.504-10.529-2.596-5.497 22.037-1.656-.414c-2.108-.527-4.25-1.019-6.404-1.513-1.538-.353-3.081-.707-4.621-1.076l-1.675-.402 5.533-22.198-10.46-2.592-5.641 22.58-1.63-.37a540.123 540.123 0 0 1-8.816-2.072l-17.345-4.334-2.835 11.367a82.05 82.05 0 0 1 8.394 2.125c5.152 1.313 7.939 4.862 7.65 9.746l-.048.313-6.048 24.238.02.009-.406 1.539-.08-.02-.031.098.094.024-9.01 36.111a6.734 6.734 0 0 1-3.286 4.021 6.731 6.731 0 0 1-5.171.478l.005-.016c-1.305-.175-3.724-.804-8.554-2.085l-5.443 12.574 15.967 3.984c2.127.521 4.176 1.057 6.195 1.586 1.215.318 2.419.634 3.626.942l1.644.419-5.697 22.875 10.443 2.591 5.658-22.682 1.681.455c3.623.983 7.303 1.938 10.937 2.841l1.659.412-5.631 22.543Zm22.622-34.529c-8.259 0-17.314-2.38-23.141-3.91-1.009-.265-1.909-.502-2.677-.692l-1.661-.41 8.387-33.645 1.659.418c.937.236 2.087.494 3.391.788 9.496 2.139 25.389 5.719 31.091 14.973a13.608 13.608 0 0 1 1.947 8.967h.135l-.493 2.119a13.422 13.422 0 0 1-6.313 8.642c-3.404 2.017-7.743 2.75-12.325 2.75Zm-23.343-7.492 1.069.28c7.968 2.096 24.547 6.449 32.859 1.526a9.823 9.823 0 0 0 4.479-5.618l.228-.914a10.517 10.517 0 0 0-1.149-8.47c-4.948-8.03-20.552-11.545-28.935-13.433-.642-.145-1.248-.282-1.81-.411l-6.741 27.04Zm29.549-37.537c-6.783 0-14.031-1.93-18.718-3.177-.862-.229-1.63-.434-2.283-.596l-1.658-.411 7.65-30.805 1.656.41c.768.191 1.707.399 2.772.634 7.791 1.72 20.83 4.6 25.772 12.612a12.831 12.831 0 0 1 1.803 8.48h.132l-.428 2.121a12.847 12.847 0 0 1-6.016 8.31 21.03 21.03 0 0 1-10.682 2.422Zm-18.527-6.658.687.183c6.905 1.836 19.758 5.258 26.789 1.113a9.091 9.091 0 0 0 3.94-4.638l.397-1.566a9.877 9.877 0 0 0-1-7.975c-4.184-6.784-16.816-9.573-23.602-11.071-.419-.093-.819-.18-1.198-.266l-6.013 24.22Z" fill="#3F3D56"/><path d="M404.68 227.212a10.074 10.074 0 0 1 7.983-4.23 10.07 10.07 0 0 1 8.159 3.878l33.834-11.5-4.691 17.967-31.41 8.166a10.107 10.107 0 0 1-12.923-1.325 10.111 10.111 0 0 1-.952-12.956Z" fill="#A36125"/><path d="M670.431 476.923a246.315 246.315 0 0 1 20.385-77.735 245.842 245.842 0 0 1 10.128-20.102c.946-1.686-1.644-3.2-2.591-1.514a249.71 249.71 0 0 0-27.786 76.655 250.46 250.46 0 0 0-3.136 22.696c-.178 1.922 2.824 1.91 3 0Z" fill="#CEE5D0"/><path d="M708.21 383.897c10.493 0 19-8.507 19-19s-8.507-19-19-19c-10.494 0-19 8.507-19 19s8.506 19 19 19ZM672.375 477.428a159.785 159.785 0 0 1 13.224-50.431c1.99-4.445 4.18-8.792 6.571-13.041a.978.978 0 0 0-.366-1.303.97.97 0 0 0-.722-.105.968.968 0 0 0-.593.426 161.997 161.997 0 0 0-18.026 49.73 162.525 162.525 0 0 0-2.034 14.724c-.116 1.246 1.831 1.239 1.946 0Z" fill="#CEE5D0"/><path d="M696.883 417.077c6.808 0 12.327-5.518 12.327-12.326 0-6.807-5.519-12.326-12.327-12.326-6.807 0-12.326 5.519-12.326 12.326 0 6.808 5.519 12.326 12.326 12.326ZM669.918 476.264a159.802 159.802 0 0 1-20.59-47.897 159.617 159.617 0 0 1-2.841-14.324.97.97 0 0 0-1.09-.802.972.972 0 0 0-.839 1.061 161.977 161.977 0 0 0 16.374 50.298 162.323 162.323 0 0 0 7.452 12.861c.676 1.054 2.206-.149 1.534-1.197Z" fill="#CEE5D0"/><path d="M644.542 416.212c6.808 0 12.327-5.518 12.327-12.326 0-6.808-5.519-12.326-12.327-12.326-6.807 0-12.326 5.518-12.326 12.326 0 6.808 5.519 12.326 12.326 12.326Z" fill="#CEE5D0"/><path d="M571.31 298.525a10.058 10.058 0 0 0-4.418-14.773l2.591-35.641-16.203 9.072.024 32.455a10.11 10.11 0 0 0 18.006 8.887Z" fill="#A36125"/><path d="m567.279 159.979 4.431 113.418-18-1-4-119 3.796-1.786a9.668 9.668 0 0 1 9.134.485 9.66 9.66 0 0 1 4.639 7.883Z" fill="#B86767"/><path d="m511.612 466.235-12.26-.001-5.832-47.288 18.094.001-.002 47.288Z" fill="#A36125"/><path d="M490.595 462.731h23.644v14.887h-38.531a14.889 14.889 0 0 1 14.887-14.887Z" fill="#2F2E41"/><path d="m613.615 451.583-11.126 5.151-25.16-40.462 16.42-7.601 19.866 42.912Z" fill="#A36125"/><path d="m593.071 457.234 21.456-9.933 6.254 13.509-34.965 16.187a14.888 14.888 0 0 1 7.255-19.763ZM482.502 311.908l12.644 144.289 17-2 12.564-131.8 69.436 125.8 18-5s-57.936-173.3-62.436-187.8c-4.933-15.895-44-22-44-22l-1.5-1.5c-16.787 22.598-23.511 51.918-21.708 80.011Z" fill="#2F2E41"/><path d="M549.859 139.093c13.565 0 24.561-10.997 24.561-24.562 0-13.564-10.996-24.56-24.561-24.56s-24.561 10.996-24.561 24.56c0 13.565 10.996 24.562 24.561 24.562Z" fill="#A36125"/><path d="m565.279 161.922-17.07 88.97s-25.94-5.18-35.18-11.42c-3.66-2.48-6.98-5.04-9.78-7.36-.55-.45-1.07-.9-1.58-1.33-4.62-3.95-7.46-6.89-7.46-6.89s1.48-7.25 3.29-15.83c2.02-9.61 4.47-20.9 5.72-25.51 2.75-10.11 12.19-21.89 19.55-29.91a21.739 21.739 0 0 1 21.47-6.36l13.32 3.44a10.546 10.546 0 0 1 7.72 12.2Z" fill="#B86767"/><path opacity=".2" d="M523.999 200.782s-9.18 19.08-22.33 30c-4.62-3.95-7.46-6.89-7.46-6.89s1.48-7.25 3.29-15.83c11.02-5.82 22.38-9.49 26.5-7.28Z" fill="#000"/><path d="M540.279 165.857a16.252 16.252 0 0 0-2.831-1.124 12.489 12.489 0 0 0-11.545 2.66l-53.957 39.523-42.915 14.435 7.754 18.34 63.976-15.624 42.43-37.707a12.758 12.758 0 0 0 1.59-16.56 12.75 12.75 0 0 0-4.502-3.943Z" fill="#B86767"/><path d="M551.313 138.867c3.495-5.233 6.254-12.488 2.405-17.466-3.799-4.915-11.292-4.191-17.11-6.365-8.104-3.029-12.804-12.549-11.339-21.076 1.466-8.526 8.311-15.594 16.464-18.486 8.154-2.892 17.349-1.952 25.333 1.379 9.83 4.1 18.262 12.03 21.797 22.076 3.536 10.046 1.646 22.108-5.689 29.83-7.864 8.278-20.206 10.484-31.623 10.35" fill="#2F2E41"/><path d="M589.881 109.907c1.001 5.591 7.134 8.766 12.771 9.464 5.637.698 11.468-.197 16.955 1.269 9.674 2.585 16.055 11.888 19.567 21.266 3.512 9.377 5.07 19.498 9.633 28.411 4.563 8.914 13.41 16.772 23.389 15.938a25.727 25.727 0 0 1-24.749 16.219 25.727 25.727 0 0 1-23.646-17.788c-3.665-11.317.543-24.813-5.868-34.834-3.547-5.545-9.673-8.807-15.579-11.713-5.907-2.906-12.106-5.889-16.066-11.148-3.96-5.258-4.751-13.562.129-17.98" fill="#2F2E41"/><path d="M709.485 478.145H389.191a1.191 1.191 0 0 1 0-2.382h320.294a1.19 1.19 0 0 1 0 2.382ZM321.485 478.145H1.191a1.192 1.192 0 0 1 0-2.382h320.294a1.19 1.19 0 0 1 0 2.382Z" fill="#F7D59C"/><path d="m205.801 465.134 11.721-3.597-8.296-46.919-17.298 5.309 13.873 45.207Z" fill="#72351B"/><path d="m243.465 465.483-36.835 11.305-4.368-14.232 22.603-6.937a14.889 14.889 0 0 1 18.6 9.864Z" fill="#2F2E41"/><path d="M101.803 465.403h12.26l5.832-47.288-18.094.001.002 47.287Z" fill="#72351B"/><path d="m137.707 476.786-38.53.002-.001-14.887 23.644-.001a14.887 14.887 0 0 1 14.887 14.886Z" fill="#2F2E41"/><path d="M104.924 308.326a9.154 9.154 0 0 1-3.121-7.097 9.152 9.152 0 0 1 3.439-6.948l9.505-119.695 19.331 4.83L118.6 296.174a9.215 9.215 0 0 1-1.441 12.151 9.207 9.207 0 0 1-6.117 2.325 9.205 9.205 0 0 1-6.118-2.324ZM150.634 129.162c13.565 0 24.561-10.996 24.561-24.561S164.199 80.04 150.634 80.04c-13.564 0-24.561 10.996-24.561 24.561s10.997 24.561 24.561 24.561Z" fill="#72351B"/><path d="M117.088 176.96c-5.837-8.013-6.017-19.049.271-26.713 4.103-5.002 10.966-9.005 22.425-9.005 30.543 0 42.128 24.224 42.128 24.224s12.639 23.171 5.266 44.235c-7.372 21.064-7.372 23.17-7.372 23.17l-48.448-4.213s8.173-20.886-14.27-51.698Z" fill="#B86767"/><path d="m102.148 197.928 10.437-34.146a16.331 16.331 0 0 1 16.243-11.541c2.389.093 4.729.709 6.854 1.804a16.357 16.357 0 0 1 7.465 21.075l-13.269 30.218-27.73-7.41Z" fill="#B86767"/><path d="m178.752 227.605 41.075 212.747-22.117 6.319-53.713-140.076-24.224 143.236-23.17 3.159s-10.164-189.518 34.755-224.332l47.394-1.053Z" fill="#2F2E41"/><path d="M233.959 205.523c-.356.424-.678.875-.963 1.349l-49.535 2.402-9.538-29.12-16.562 7.872 15.587 43.371 61.263-11.981a10.49 10.49 0 0 0 11.631 2.659 10.494 10.494 0 0 0 4.634-15.869 10.496 10.496 0 0 0-16.517-.683Z" fill="#72351B"/><path d="M149.898 168.525a16.32 16.32 0 0 1 10.232-17.098 16.33 16.33 0 0 1 7.001-1.104 16.358 16.358 0 0 1 15.308 16.295v33.002l-28.369 4.365-4.172-35.46Z" fill="#B86767"/><path d="M156.036 129.385c-3.686-.016-6.53-3.898-6.365-7.58.165-3.683 2.639-6.923 5.619-9.093s6.474-3.492 9.798-5.088c3.323-1.595 6.617-3.585 8.669-6.648a14.718 14.718 0 0 0 1.023-13.504 21.668 21.668 0 0 0-9.333-10.224 28.688 28.688 0 0 0-20.417-3.228c-6.888 1.51-17.154 5.695-21.19 11.478l-4.208 11.458c-4.288 5.156-.968 12.813 1.668 18.98 2.635 6.166 8.248 10.805 14.581 13.011a35.794 35.794 0 0 0 19.841.595" fill="#2F2E41"/><path d="M133.589 91.224c-1.809-2.899-4.944-4.743-8.186-5.825A25.72 25.72 0 0 0 94.857 97.15a25.724 25.724 0 0 0-3.286 11.251c-.343 6.314 1.634 12.489 2.796 18.705 1.161 6.216 1.392 13.081-2.035 18.396-2.61 4.048-6.964 6.596-11.26 8.772-3.582 1.814-7.456 3.516-11.454 3.155-3.998-.362-8.016-3.528-7.91-7.541a32.05 32.05 0 0 0-2.682 9.08c-.281 3.156.497 6.561 2.776 8.762 3.313 3.199 8.563 2.965 13.116 2.274 9.857-1.494 19.838-4.295 27.625-10.52 7.788-6.225 12.955-16.475 10.904-26.231-.856-4.076-2.87-7.796-4.497-11.63-1.626-3.834-2.896-8.027-2.149-12.124a14.733 14.733 0 0 1 7.492-9.982 19.603 19.603 0 0 1 12.523-1.899c2.799.46 6.294 1.173 7.954-1.127a4.503 4.503 0 0 0-.093-4.809 13.252 13.252 0 0 0-3.593-3.56" fill="#2F2E41"/><path d="M453 127a114.999 114.999 0 0 1-115 115 114.997 114.997 0 0 1-115-115A115.003 115.003 0 0 1 343.395 12.127 115 115 0 0 1 453 127Z" fill="#F7D59C"/><path d="m353.6 106.8 5-1.2c1.333 0 2 .8 2 2.4 0 1.467-.6 3.267-1.8 5.4-1.2 2-2.667 3-4.4 3-6.4 0-14.4-.333-24-1l-1.4 15c2.933.267 6 .4 9.2.4 3.2 0 6.067-.133 8.6-.4 2.533-.267 4.467-.6 5.8-1 1.467-.533 2.467-.8 3-.8 1.067 0 1.6.533 1.6 1.6 0 6.267-2.333 9.4-7 9.4-2.8 0-10.2-.667-22.2-2-1.333 7.333-2.533 12.2-3.6 14.6l11.8 1.8c13.2 2 22.867 3 29 3 2.667 0 4 2.067 4 6.2 0 1.6-.867 3.333-2.6 5.2-1.6 1.733-3.4 2.6-5.4 2.6-9.867 0-23.867-3.333-42-10-4.667 5.6-10.333 8.4-17 8.4-2.667 0-5.2-.867-7.6-2.6-2.267-1.733-3.4-4.133-3.4-7.2 0-3.2 1.133-5.6 3.4-7.2 2.267-1.733 5.067-2.6 8.4-2.6s6.6.267 9.8.8c.667-2.533 1.333-7 2-13.4l-7.8.8c-5.2 0-7.8-1.467-7.8-4.4 0-3.067 4.467-4.6 13.4-4.6h3l1.2-14-11.6 1.2c-2.667 0-4-1.067-4-3.2 0-1.467.533-2.933 1.6-4.4 1.067-1.467 2-2.2 2.8-2.2.8 0 1.467.133 2 .4 1.467.4 4.733.733 9.8 1 1.867-20.4 7.667-33.2 17.4-38.4 4.133-2.267 9.333-3.4 15.6-3.4 6.4 0 11.533 1.8 15.4 5.4 3.867 3.467 5.8 8.2 5.8 14.2 0 2.267-.667 4.133-2 5.6-1.2 1.467-2.733 2.2-4.6 2.2-1.867 0-3.267-.467-4.2-1.4-.8-.933-1.2-2-1.2-3.2l1-5.6c0-3.6-1.133-6.467-3.4-8.6-2.133-2.267-4.667-3.4-7.6-3.4s-5.333.467-7.2 1.4c-1.733.8-3.2 2.133-4.4 4a38.203 38.203 0 0 0-3 5.6c-.8 1.733-1.467 4.067-2 7-.4 2.8-.733 5.067-1 6.8-.267 1.6-.533 3.867-.8 6.8-.133 2.933-.267 4.733-.4 5.4h3.4c10 0 16.467-.467 19.4-1.4ZM309.4 158c-3.333-.933-6.067-1.4-8.2-1.4-2 0-3 .8-3 2.4 0 .933.467 1.8 1.4 2.6.933.8 2.267 1.2 4 1.2 1.867 0 3.8-1.6 5.8-4.8Z" fill="#B86767"/></g><defs><clipPath id="a"><path fill="#fff" d="M0 0h727.21v478.36H0z"/></clipPath></defs></svg>