<svg width="250" height="250" viewBox="0 0 250 250" fill="none" xmlns="http://www.w3.org/2000/svg">
<g clip-path="url(#clip0)">
<path d="M39.641 41.6983C41.9247 50.3309 39.0666 58.5748 33.2574 60.1118C27.4481 61.6487 20.8875 55.8963 18.6042 47.2631C16.3205 38.6305 19.6538 32.184 25.4631 30.6476C31.2723 29.1111 37.3572 33.0656 39.641 41.6983Z" fill="#FCD295"/>
<path d="M83.0597 27.7548C83.0597 39.1268 76.8561 48.3459 69.2037 48.3459C61.5512 48.3459 55.3477 39.1268 55.3477 27.7548C55.3477 16.3827 61.5512 9.53189 69.2037 9.53189C76.8556 9.53189 83.0597 16.3827 83.0597 27.7548Z" fill="#FCD295"/>
<path d="M111.422 22.4122C111.422 37.5532 103.956 49.8275 94.7472 49.8275C85.5376 49.8275 78.0723 37.5532 78.0723 22.4122C78.0718 7.27125 85.5371 0 94.7467 0C103.956 0 111.422 7.27125 111.422 22.4122Z" fill="#FDDDAF"/>
<path d="M24.2147 56.7125C26.0368 64.6169 23.2023 72.0189 17.8834 73.2456C12.5645 74.4717 6.77484 69.0582 4.95276 61.1533C3.13067 53.2489 6.34484 47.493 11.6637 46.2668C16.9821 45.0402 22.3921 48.8081 24.2147 56.7125Z" fill="#FDDDAF"/>
<path d="M60.2429 34.7409C60.2429 44.752 54.7817 52.8672 48.045 52.8672C41.3084 52.8672 35.8477 44.7515 35.8477 34.7409C35.8477 24.7297 41.3089 18.6992 48.045 18.6992C54.7817 18.6992 60.2429 24.7297 60.2429 34.7409Z" fill="#FDDDAF"/>
<path d="M210.361 41.6983C208.077 50.3309 210.935 58.5748 216.744 60.1117C222.554 61.6487 229.114 55.8962 231.398 47.2631C233.682 38.6304 230.348 32.184 224.539 30.6475C218.729 29.1106 212.644 33.0656 210.361 41.6983Z" fill="#FCD295"/>
<path d="M166.941 27.7548C166.941 39.1268 173.145 48.3459 180.797 48.3459C188.45 48.3459 194.653 39.1268 194.653 27.7548C194.653 16.3827 188.45 9.53189 180.797 9.53189C173.145 9.53189 166.941 16.3827 166.941 27.7548Z" fill="#FCD295"/>
<path d="M138.58 22.4122C138.58 37.5532 146.046 49.8275 155.255 49.8275C164.464 49.8275 171.93 37.5532 171.93 22.4122C171.93 7.27125 164.464 0 155.255 0C146.045 0 138.58 7.27125 138.58 22.4122Z" fill="#FDDDAF"/>
<path d="M225.789 56.7125C223.966 64.6169 226.801 72.0189 232.12 73.2456C237.439 74.4717 243.228 69.0582 245.05 61.1533C246.873 53.2489 243.658 47.493 238.339 46.2668C233.021 45.0402 227.611 48.8081 225.789 56.7125Z" fill="#FDDDAF"/>
<path d="M189.76 34.7409C189.76 44.752 195.221 52.8672 201.958 52.8672C208.694 52.8672 214.156 44.7515 214.156 34.7409C214.156 24.7297 208.694 18.6992 201.958 18.6992C195.221 18.6992 189.76 24.7297 189.76 34.7409Z" fill="#FDDDAF"/>
<path d="M94.8661 128.662C96.7324 122.026 99.0942 114.191 101.319 105.855C105.518 90.1161 108.891 72.4208 105.915 56.8227C105.194 53.0462 104.198 49.4403 102.655 45.9676C97.0644 33.389 69.2865 35.9408 45.4641 44.0801C24.278 51.3192 8.4827 69.5476 11.9886 92.0891C12.0509 92.4899 12.3039 94.0781 12.7037 96.5761L21.784 121.797L20.5181 145.103C23.6156 164.232 26.5954 182.475 27.5706 187.964L35.4921 205.809L40.2468 235.472C43.814 241.331 48.7542 246.063 55.8534 248.416C70.1178 253.145 85.1552 246.871 93.8598 235.097C102.942 222.812 100.136 202.155 96.8863 180.937L88.8104 158.671L94.0152 131.779C94.2329 130.7 94.5764 129.692 94.8661 128.662Z" fill="#FDDDAF"/>
<path d="M94.8647 128.662C96.731 122.026 99.0928 114.191 101.317 105.855L101.49 80.3021L105.913 56.8221C105.193 53.0457 104.197 49.4397 102.653 45.9671C99.222 38.2462 87.43 36.227 73.3256 37.7005C80.2679 38.6687 85.4721 41.2572 87.5658 45.9671C89.1093 49.4397 90.1991 53.094 90.9198 56.8704C93.8961 72.4685 90.5235 90.1638 86.3236 105.902C84.0986 114.239 81.6434 122.026 79.7765 128.662C79.4869 129.692 79.2374 130.748 79.0201 131.826C76.2058 145.789 79.2279 163.59 81.8918 180.985C85.1412 202.202 87.8525 222.812 78.7707 235.096C73.6228 242.06 66.259 247.098 58.1504 249.076C71.7097 252.45 85.6205 246.24 93.8584 235.096C102.94 222.812 100.134 202.155 96.8849 180.937C94.221 163.542 91.1989 145.741 94.0138 131.778C94.2315 130.7 94.575 129.692 94.8647 128.662Z" fill="#FDCD93"/>
<path d="M78.3164 81.2767C78.3164 94.3331 88.4744 105.011 101.318 105.855C105.517 90.1156 108.89 72.4208 105.914 56.8227C104.943 56.7065 103.956 56.6396 102.955 56.6396C89.347 56.6396 78.3164 67.6702 78.3164 81.2767Z" fill="#EFA8BF"/>
<path d="M105.915 56.8227C104.944 56.7065 103.957 56.6396 102.955 56.6396C98.732 56.6396 94.7574 57.7043 91.2827 59.5767C93.154 72.72 90.8713 87.1438 87.5938 100.532C91.4074 103.577 96.1444 105.515 101.318 105.855C105.518 90.1156 108.891 72.4208 105.915 56.8227Z" fill="#EF9BBA"/>
<path d="M42.9126 120.574C42.9126 106.967 31.8821 95.9364 18.275 95.9364C16.2774 95.9364 14.5629 96.127 12.7031 96.5761C14.0741 106.595 17.2279 125.371 20.5175 145.103C33.2565 144.154 42.9126 133.556 42.9126 120.574Z" fill="#FFF2C4"/>
<path d="M70.1094 156.398C70.1094 170.005 81.14 181.035 94.747 181.035C95.4682 181.035 96.1809 180.998 96.8865 180.937C94.2225 163.543 91.2004 145.741 94.0153 131.779C80.7477 132.166 70.1094 143.036 70.1094 156.398Z" fill="#B2E5FB"/>
<path d="M94.0157 131.778C87.8544 131.958 82.2625 134.401 78.0374 138.303C77.1055 149.928 79.1122 163.472 81.1887 176.966C85.0783 179.536 89.7369 181.035 94.748 181.035C95.4692 181.035 96.1818 180.998 96.8874 180.937C94.2234 163.543 91.2009 145.741 94.0157 131.778Z" fill="#91DAFA"/>
<path d="M60.0088 211.254C60.0088 197.647 48.9782 186.616 35.3711 186.616C32.6086 186.616 30.0497 187.126 27.5703 187.965C29.1812 197.035 30.4948 204.644 31.4906 209.668C33.2081 218.333 35.6201 227.874 40.2465 235.472C51.5642 233.246 60.0088 223.224 60.0088 211.254Z" fill="#C1E8A0"/>
<path d="M154.494 128.662C152.628 122.026 150.266 114.191 148.042 105.855L147.641 78.0329L143.445 56.8221C144.166 53.0457 145.162 49.4397 146.705 45.9671C152.296 33.3885 180.074 35.9403 203.896 44.0796C225.082 51.3187 240.877 69.5471 237.372 92.0885C236.87 95.3117 224.031 175.345 221.79 187.964C220.179 197.035 218.771 204.692 217.776 209.715C216.058 218.38 213.74 227.873 209.114 235.472C205.546 241.33 200.606 246.063 193.507 248.416C179.243 253.145 164.205 246.871 155.501 235.096C146.419 222.812 149.225 202.154 152.474 180.937L160.706 157.174L155.346 131.778C155.127 130.7 154.784 129.692 154.494 128.662Z" fill="#FDDDAF"/>
<path d="M203.99 44.0318C189.088 38.9402 172.637 36.0354 161.039 37.6528C169.913 38.5801 179.702 40.8886 188.902 44.0318C210.088 51.2709 225.883 69.4993 222.377 92.0403C221.876 95.2635 209.037 175.296 206.795 187.916C205.185 196.986 203.777 204.644 202.781 209.667C201.064 218.332 198.746 227.825 194.119 235.423C190.552 241.282 185.612 246.014 178.513 248.368C177.748 248.621 176.982 248.836 176.214 249.027C181.816 250.393 187.772 250.3 193.6 248.368C200.7 246.014 205.64 241.282 209.207 235.423L212.84 209.667L221.883 187.916C222.847 182.491 226.169 164.02 229.228 145.135L228.871 115.655L236.881 96.6289C237.288 94.0856 237.402 92.4451 237.465 92.0403C240.971 69.4993 225.176 51.2709 203.99 44.0318Z" fill="#FDCD93"/>
<path d="M171.043 81.2767C171.043 94.3331 160.885 105.011 148.042 105.855C143.842 90.1156 140.47 72.4208 143.446 56.8227C144.417 56.7065 145.403 56.6396 146.405 56.6396C160.013 56.6396 171.043 67.6702 171.043 81.2767Z" fill="#EFA8BF"/>
<path d="M206.445 120.574C206.445 106.967 217.476 95.9364 231.083 95.9364C233.081 95.9364 235.021 96.1803 236.881 96.6294C235.51 106.649 232.517 125.403 229.228 145.135C216.489 144.186 206.445 133.556 206.445 120.574Z" fill="#FFEBA8"/>
<path d="M179.25 156.398C179.25 170.005 168.219 181.035 154.612 181.035C153.891 181.035 153.178 180.998 152.473 180.937C155.136 163.543 158.159 145.741 155.344 131.779C168.612 132.166 179.25 143.036 179.25 156.398Z" fill="#B2E5FB"/>
<path d="M189.352 211.254C189.352 197.647 200.382 186.616 213.989 186.616C216.752 186.616 219.405 187.078 221.885 187.916C220.274 196.987 218.866 204.644 217.87 209.668C216.153 218.333 213.835 227.826 209.208 235.424C197.89 233.197 189.352 223.224 189.352 211.254Z" fill="#A4D978"/>
<path d="M231.082 95.9364C227.732 95.9364 224.539 96.6083 221.627 97.8193C220.339 107.031 217.882 122.522 215.105 139.315C218.967 142.609 223.855 144.734 229.227 145.135C232.517 125.403 235.509 106.649 236.88 96.6294C235.02 96.1803 233.08 95.9364 231.082 95.9364Z" fill="#FDDF7C"/>
<path d="M213.987 186.616C211.351 186.616 208.813 187.035 206.432 187.801C206.553 187.84 206.675 187.876 206.795 187.916C205.184 196.987 203.777 204.644 202.781 209.668C201.5 216.13 199.884 223.052 197.227 229.306C200.513 232.357 204.632 234.524 209.207 235.424C213.834 227.826 216.151 218.332 217.869 209.668C218.865 204.644 220.272 196.986 221.883 187.916C219.403 187.077 216.75 186.616 213.987 186.616Z" fill="#81C573"/>
<path d="M61.7117 139.25C62.1357 139.499 62.5848 139.657 63.0419 139.728C64.527 139.962 66.069 139.288 66.8752 137.912C67.9359 136.119 67.3369 133.805 65.5379 132.749C63.7435 131.693 61.4351 132.293 60.3744 134.086C59.3193 135.88 59.9178 138.194 61.7117 139.25Z" fill="#FDCD93"/>
<path d="M77.0183 187.895C77.1651 187.425 77.2154 186.952 77.1807 186.491C77.0686 184.992 76.0602 183.645 74.5368 183.173C72.5488 182.55 70.433 183.662 69.8154 185.655C69.1973 187.643 70.3088 189.753 72.2968 190.377C74.2844 190.994 76.4007 189.883 77.0183 187.895Z" fill="#FDCD93"/>
<path d="M72.3952 198.887C72.5416 198.416 72.5924 197.943 72.5577 197.482C72.4455 195.983 71.4371 194.636 69.9138 194.165C67.9257 193.541 65.81 194.653 65.1924 196.646C64.5743 198.634 65.6857 200.744 67.6738 201.368C69.6613 201.986 71.7771 200.874 72.3952 198.887Z" fill="#FDCD93"/>
<path d="M65.1457 97.9023C65.5878 97.6855 65.966 97.3969 66.2768 97.0544C67.2876 95.9419 67.5718 94.2833 66.8662 92.8535C65.9509 90.9816 63.6887 90.2111 61.8174 91.1335C59.9495 92.0528 59.1816 94.3109 60.0969 96.1823C61.0157 98.0497 63.2778 98.8216 65.1457 97.9023Z" fill="#FDCD93"/>
<path d="M53.5383 103.757C53.9804 103.541 54.3581 103.252 54.6694 102.909C55.6802 101.796 55.9644 100.138 55.2588 98.7085C54.3435 96.8366 52.0808 96.0661 50.2099 96.9885C48.3421 97.9078 47.5741 100.166 48.4894 102.037C49.4088 103.905 51.6709 104.677 53.5383 103.757Z" fill="#FDCD93"/>
<path d="M54.2648 135.613C54.7069 135.397 55.0851 135.108 55.3959 134.765C56.4068 133.653 56.6909 131.994 55.9853 130.564C55.07 128.692 52.8079 127.922 50.9365 128.844C49.0687 129.763 48.3007 132.022 49.216 133.893C50.1349 135.761 52.397 136.533 54.2648 135.613Z" fill="#FDCD93"/>
<path d="M186.704 139.25C188.498 138.194 189.096 135.88 188.041 134.086C186.98 132.293 184.672 131.694 182.877 132.749C181.078 133.805 180.479 136.119 181.54 137.913C182.347 139.288 183.888 139.962 185.373 139.729C185.831 139.656 186.28 139.5 186.704 139.25Z" fill="#FDCD93"/>
<path d="M197.073 135.477C198.867 134.421 199.465 132.108 198.41 130.313C197.349 128.52 195.041 127.921 193.247 128.976C191.448 130.032 190.849 132.346 191.909 134.14C192.716 135.515 194.257 136.189 195.743 135.956C196.2 135.883 196.649 135.727 197.073 135.477Z" fill="#FDCD93"/>
<path d="M178.602 185.655C177.985 183.662 175.869 182.55 173.881 183.173C172.358 183.645 171.349 184.991 171.237 186.491C171.202 186.952 171.253 187.425 171.4 187.895C172.017 189.883 174.133 190.994 176.121 190.377C178.11 189.753 179.22 187.643 178.602 185.655Z" fill="#FDCD93"/>
<path d="M183.431 196.235C182.813 194.243 180.697 193.131 178.709 193.754C177.186 194.225 176.177 195.572 176.065 197.071C176.031 197.533 176.081 198.005 176.228 198.476C176.845 200.463 178.961 201.575 180.949 200.957C182.938 200.334 184.049 198.223 183.431 196.235Z" fill="#FDCD93"/>
<path d="M183.984 98.7477C185.852 99.6671 188.113 98.8956 189.033 97.0277C189.948 95.1564 189.18 92.8982 187.312 91.9789C185.441 91.0565 183.179 91.8275 182.263 93.6989C181.558 95.1287 181.841 96.7873 182.853 97.8998C183.164 98.2423 183.542 98.531 183.984 98.7477Z" fill="#FDCD93"/>
<path d="M194.871 104.295C196.738 105.214 199 104.443 199.919 102.575C200.835 100.704 200.067 98.4455 198.199 97.5261C196.328 96.6038 194.065 97.3747 193.15 99.2461C192.444 100.676 192.728 102.335 193.739 103.447C194.051 103.79 194.429 104.078 194.871 104.295Z" fill="#FDCD93"/>
</g>
<defs>
<clipPath id="clip0">
<rect width="250" height="250" fill="white"/>
</clipPath>
</defs>
</svg>
