<svg width="627" height="496" fill="none" xmlns="http://www.w3.org/2000/svg"><path fill-rule="evenodd" clip-rule="evenodd" d="M484.637 77.617c-13.709 0-18.695-16.413-26.483-25.42-5.573-6.444-15.084-4.522-17.899-13.544C433.176 15.967 452.123 0 476.84 0c24.718 0 41.384 14.003 44.982 35.054 3.599 21.051-12.467 42.563-37.185 42.563Z" fill="#2C1B18"/><path fill-rule="evenodd" clip-rule="evenodd" d="M447.28 32.547c-6.951 12.957-6.125 45.82 2.859 48.136 3.582.924 11.214-1.338 18.981-6.02l-4.875 34.493h28.789l-9.91-46.194c5.527-6.488 9.267-14.439 8.642-23.348-1.801-25.67-37.535-20.023-44.486-7.066Z" fill="#915B3C"/><path fill-rule="evenodd" clip-rule="evenodd" d="M445.553 32.62c5.506 1.034 16.594 6.29 25.435 13.83a7.491 7.491 0 0 1 3.517-.869c4.079 0 7.385 3.223 7.385 7.198 0 1.622-.551 3.119-1.48 4.323 1.75 2.884 2.944 5.914 3.336 9.03 6.065 0 28.2-22.95 6.149-44.54C467.844 0 435.978 30.821 445.553 32.62Z" fill="#2C1B18"/><path fill-rule="evenodd" clip-rule="evenodd" d="M516.252 208.715c-2.163 29.52-141.498 116.43-142.311 118.868-.361 1.084 14.095 35.343 43.37 102.776l-12.18 4.733c-44.902-71.417-66.2-110.93-63.894-118.54 3.302-10.895 39.338-46.736 108.108-107.523l66.907-.314Z" fill="#915B3C"/><path fill-rule="evenodd" clip-rule="evenodd" d="M516.252 208.715c-2.163 29.52-141.498 116.43-142.311 118.868-.361 1.084 14.095 35.343 43.37 102.776l-12.18 4.733c-44.902-71.417-66.2-110.93-63.894-118.54 3.302-10.895 39.338-46.736 108.108-107.523l66.907-.314Z" fill="#000" fill-opacity=".1"/><path fill-rule="evenodd" clip-rule="evenodd" d="m414.105 415.13-19.885 7.239c-41.932-47.312-58.369-86.348-55.372-106.238 1.998-13.26 37.91-49.041 107.735-107.343h71.095c-2.426 68.363-131.572 119.055-133.3 121.968-1.727 2.914 15.272 31.446 29.727 84.374Z" fill="#7D3336"/><path fill-rule="evenodd" clip-rule="evenodd" d="M421.792 428.034c2.486 2.908 4.033 5.197 4.642 6.868.74 2.033 1.481 5.122 2.223 9.268l-63.575 23.139c-3.64-4.86-3.76-8.156-.359-9.887a375.08 375.08 0 0 0 8.442-4.408l24.754-23.928a1.2 1.2 0 0 1 1.719.054l3.577 3.916c3.854.338 6.812.132 8.872-.618 1.674-.609 3.739-2.126 6.196-4.552a2.4 2.4 0 0 1 3.509.148Z" fill="#000"/><path fill-rule="evenodd" clip-rule="evenodd" d="m500.231 208.715 62.07 149.012 61.005 125.978h-14.393l-157.471-274.99h48.789Z" fill="#915B3C"/><path fill-rule="evenodd" clip-rule="evenodd" d="M624.167 477.889c1.342 3.582 2.013 6.263 2.013 8.041 0 2.163-.36 5.32-1.081 9.469h-67.655c-1.758-5.812-.743-8.95 3.045-9.413a380 380 0 0 0 9.44-1.255l31.445-14.019a1.2 1.2 0 0 1 1.597.638l2.022 4.904c3.506 1.636 6.356 2.454 8.548 2.454 1.781 0 4.241-.72 7.38-2.158a2.397 2.397 0 0 1 3.246 1.339Z" fill="#000"/><path fill-rule="evenodd" clip-rule="evenodd" d="m617.797 457.534-31.982 5.998c-24.728-36.355-128.216-185.422-139.562-254.817h71.198c37.892 50.165 76.775 211.863 100.346 248.819Z" fill="#B86767"/><path fill-rule="evenodd" clip-rule="evenodd" d="m548.248 172.07-26.266.099c28.801 64.814 43.819 98.75 45.052 101.807 2.776 6.878-3.098 17.355-5.609 22.984 8.18 3.661 7.309-9.896 17.629-5.095 9.419 4.382 16.584 12.323 27.467 5.608 1.338-.826 2.804-3.934-.738-6.363-8.826-6.052-21.544-16.644-23.263-20.13-2.343-4.754-13.767-37.724-34.272-98.91ZM325.47 149.118c5.307 4.424 10.691 9.318 9.746 11.679-.946 2.361-5.881 1.482-6.699 5.114-.545 2.421 7.465 2.814 24.029 1.18l38.429 15.235 8.497-21.218-47.36-6.46c-9.474-5.27-18.19-8.838-26.147-10.703-2.24-.065-5.802.749-.495 5.173Z" fill="#784931"/><path fill-rule="evenodd" clip-rule="evenodd" d="m476.301 88.764-20.565 1.37c-5.065 45.823-32.653 74.767-94.422 64.968l-8.206 59.01c57.732 7.461 108.363-15.653 118.74-78.233 2.686-16.2 4.807-33.059 4.453-47.115Z" fill="#95AB97"/><path fill-rule="evenodd" clip-rule="evenodd" d="m486.464 82.766-.016.02-31.16 7.136c0 53.057-16.732 87.101-25.563 126.01l-.265 1.18h84.153c1.186 13.616 1.914 27.61 2.293 41.983h63.011c-14.279-75.972-44.416-134.749-90.412-176.329h-2.041Z" fill="#CEE5D0"/><path fill-rule="evenodd" clip-rule="evenodd" d="M500.336 140.655c2.169 33.396.893 58.881-3.826 76.457l17.103-.001c-2.297-26.379-6.311-51.337-12.834-74.872l-.443-1.584Z" fill="#000" fill-opacity=".1"/><path fill-rule="evenodd" clip-rule="evenodd" d="M189.565 42.747c7.155 13.336 6.304 47.164-2.943 49.548-3.687.95-11.543-1.378-19.538-6.197l5.018 35.504h-29.633l10.201-47.549c-5.689-6.678-9.539-14.862-8.896-24.032 1.854-26.423 38.636-20.61 45.791-7.274Z" fill="#915B3C"/><path fill-rule="evenodd" clip-rule="evenodd" d="M167.163 29c15.89 0 21.914 6.552 22.225 12.347-6.809 1.871-18.707 2.592-35.806 2.47v1.234l14.816 1.235 2.469 7.408c-3.928-.293-6.736 2.401-8.976 6.01a5.938 5.938 0 0 0-3.371-1.071c-3.409 0-6.173 3.04-6.173 6.173 0 3.26 1.539 5.78 3.737 6.849-1.174 2.295-2.354 3.96-3.737 4.263C147.011 75.378 140 62.115 140 51.224 140 39.304 149.485 29 167.163 29Z" fill="#B58143"/><path fill-rule="evenodd" clip-rule="evenodd" d="M64.772 278.668h95.386l12.498 153.102H30.666l34.106-153.102Z" fill="#C5CFD6"/><path fill-rule="evenodd" clip-rule="evenodd" d="M64.772 278.668h29.336l17.559 153.102h-81l34.105-153.102Z" fill="#000" fill-opacity=".1"/><path fill-rule="evenodd" clip-rule="evenodd" d="m268.906 252.44.355-.208c10.207-5.718 26.876 2.047 26.865 10.68-.035 26.131-23.884 149.29-25.129 157.075-1.245 7.786-14.583 9.842-15.36.026-1.236-15.62-3.532-69.692-1.235-94.719.949-10.332 1.97-20.172 2.976-28.95-12.512 22.597-31.866 54.954-58.061 97.069l-14.219-6.496c11.166-36.789 20.322-62.761 27.468-77.917 12.235-25.949 23.708-48.171 28.537-55.998 7.595-12.314 20.817-8.017 27.803-.562Z" fill="#915B3C"/><path fill-rule="evenodd" clip-rule="evenodd" d="m186.114 366.486 48.805-115.614c11.691-18.807 44.472 3.827 40.485 14.735-9.052 24.765-55.089 104.94-57.786 112.319l-31.504-11.44Z" fill="#7D3336"/><path fill-rule="evenodd" clip-rule="evenodd" d="M183.404 379.626c-3.04 2.503-5.018 4.547-5.933 6.132-1.113 1.928-2.417 4.927-3.91 8.998l60.309 34.819c4.559-4.276 5.269-7.596 2.131-9.958-3.138-2.363-5.728-4.355-7.769-5.978l-20.816-28.68a1.236 1.236 0 0 0-1.725-.274l-.028.021-4.325 3.331c-3.968-.347-6.929-1.084-8.884-2.212-1.587-.917-3.41-2.824-5.467-5.722a2.469 2.469 0 0 0-3.583-.477ZM252.514 413.746c-1.381 3.688-2.072 6.447-2.072 8.277 0 2.227.371 5.476 1.113 9.747h69.639c1.809-5.982.765-9.212-3.134-9.689a387.621 387.621 0 0 1-9.717-1.292l-32.368-14.43a1.234 1.234 0 0 0-1.63.625l-.014.032-2.08 5.047c-3.61 1.684-6.543 2.526-8.8 2.526-1.833 0-4.365-.74-7.596-2.221a2.468 2.468 0 0 0-3.341 1.378Z" fill="#000"/><path fill-rule="evenodd" clip-rule="evenodd" d="M299.546 271.795c0 32.802-15.578 109.316-15.588 116.539l-33.516.026c4.906-68.273 6.645-102.777 5.219-103.513-2.14-1.103-87.726 8.545-113.395 8.545-37.014 0-52.326-23.341-53.569-66.581h73.324c14.929 1.598 92.803 17.305 121.723 22.704 12.382 2.312 15.802 13.244 15.802 22.28Z" fill="#B86767"/><path fill-rule="evenodd" clip-rule="evenodd" d="m69.736 189.091 30.659.101c-33.619 66.716-51.148 101.647-52.588 104.793-3.24 7.081 3.616 17.864 6.548 23.659-9.549 3.768-8.531-10.186-20.577-5.244-10.995 4.51-19.358 12.684-32.061 5.772-1.562-.85-3.273-4.05.862-6.55 10.301-6.229 25.147-17.131 27.153-20.72 2.735-4.894 16.07-38.831 40.004-101.811Zm260.034-23.625c-6.194 4.553-12.479 9.591-11.375 12.021 1.103 2.43 6.864 1.526 7.818 5.264.636 2.492-8.713 2.897-28.047 1.215l-44.855 15.682-9.919-21.841 55.281-6.649c11.059-5.425 21.232-9.097 30.52-11.017 2.613-.067 6.771.771.577 5.325Z" fill="#784931"/><path fill-rule="evenodd" clip-rule="evenodd" d="m153.714 103.342 24.005 1.41c5.912 47.167 38.114 76.959 110.213 66.873l9.578 60.741c-67.387 7.68-126.485-16.112-138.597-80.527-3.136-16.676-5.611-34.029-5.199-48.497Z" fill="#BB9C66"/><path fill-rule="evenodd" clip-rule="evenodd" d="m141.852 97.168.019.02 36.371 7.346c0 54.613 19.53 89.655 29.838 129.705l.31 1.215h-98.228c-1.383 14.015-2.233 28.42-2.676 43.214H33.937c16.667-78.2 51.844-138.7 105.533-181.5h2.382Z" fill="#F7D59C"/><path fill-rule="evenodd" clip-rule="evenodd" d="M125.66 156.755c-2.531 34.375-1.042 60.608 4.466 78.699l-19.963-.001c2.68-27.153 7.366-52.842 14.979-77.068l.518-1.63Z" fill="#000" fill-opacity=".1"/></svg>