<svg width="487" height="431" fill="none" xmlns="http://www.w3.org/2000/svg"><path fill-rule="evenodd" clip-rule="evenodd" d="M425.909 67.381c-11.72 0-15.982-14.248-22.64-22.067-4.764-5.595-12.895-3.926-15.301-11.758C381.916 13.86 398.113 0 419.244 0c21.13 0 35.377 12.157 38.454 30.432 3.076 18.274-10.659 36.95-31.789 36.95Z" fill="#2C1B18"/><path fill-rule="evenodd" clip-rule="evenodd" d="M393.973 28.255c-5.942 11.248-5.236 39.778 2.444 41.789 3.063.801 9.587-1.162 16.227-5.227l-4.168 29.944h24.611l-8.472-40.102c4.725-5.632 7.923-12.535 7.388-20.269-1.539-22.285-32.087-17.382-38.03-6.135Z" fill="#915B3C"/><path fill-rule="evenodd" clip-rule="evenodd" d="M392.497 28.319c4.706.897 14.185 5.46 21.743 12.005a6.33 6.33 0 0 1 3.007-.753c3.487 0 6.314 2.797 6.314 6.248a6.175 6.175 0 0 1-1.266 3.752c1.496 2.505 2.517 5.135 2.852 7.84 5.185 0 24.108-19.923 5.257-38.667-18.851-18.744-46.093 8.014-37.907 9.575Z" fill="#2C1B18"/><path fill-rule="evenodd" clip-rule="evenodd" d="m441.291 181.192-37.563 131.444-17.668 98.69h-17.733l17.702-230.134h55.262Z" fill="#915B3C"/><path fill-rule="evenodd" clip-rule="evenodd" d="m441.291 181.192-37.563 131.444-17.668 98.69h-17.733l17.702-230.134h55.262Z" fill="#000" fill-opacity=".1"/><path fill-rule="evenodd" clip-rule="evenodd" d="M458.172 181.192c-2.621 68.284-1.588 105.528-1.001 111.732.587 6.204 3.917 47.754 26.61 120.485h-18.444c-30.053-69.773-40.545-111.323-43.992-120.485-3.447-9.162-13.627-46.406-28.489-111.732h65.316Z" fill="#915B3C"/><path fill-rule="evenodd" clip-rule="evenodd" d="M442.097 181.192c-9.771 45.23-26.67 117.429-50.697 216.597h-25.937c-1.916-101.786 6.234-168.779 20.346-216.597h56.288Z" fill="#7D3336"/><path fill-rule="evenodd" clip-rule="evenodd" d="M458.303 181.192c-2.567 68.284 4.085 135.557 24.692 217.66h-27.673c-30.109-68.731-51.689-135.672-66.437-217.66h69.418Z" fill="#B86767"/><path fill-rule="evenodd" clip-rule="evenodd" d="m486.41 426.946-1.018-16.661c-5.958 1.769-13.421 1.075-22.388-2.083-9.643 6.936-21.781 11.672-36.415 14.208-1.117.194-1.868 1.27-1.677 2.403.012.074.028.147.048.218l1.407 5.039H484.375l2.035-3.124ZM390.018 426.946l-1.017-16.661c-5.959 1.769-13.421 1.075-22.389-2.083-9.642 6.936-21.781 11.672-36.415 14.208-1.117.194-1.867 1.27-1.677 2.403.013.074.029.147.049.218l1.407 5.039H387.983l2.035-3.124Z" fill="#000"/><path fill-rule="evenodd" clip-rule="evenodd" d="M305.362 120.178c-4.443-.929-15.287-9.119-17.156-7.456-2.764 2.46-.299 10.014 2.605 13.772 5.428 7.023 9.922 9.425 21.029 12.57 5.808 1.644 12.087 4.941 18.838 9.888l.89-15.932-15.634-8.722c-2.194-8.477-4.816-12.742-7.867-12.795-2.344-1.107 1.738 9.604-2.705 8.675Zm26.909-36.308c2.871 5.175 5.661 10.748 4.199 12.342-1.463 1.594-5.11-.632-6.855 2.016-1.163 1.766 5.068 4.555 18.692 8.368l25.862 24.047 13.144-14.326-35.593-19.796c-5.918-7.138-11.75-12.681-17.495-16.63-1.755-.744-4.825-1.195-1.954 3.98Z" fill="#784931"/><mask id="a" style="mask-type:alpha" maskUnits="userSpaceOnUse" x="350" y="101" width="60" height="33"><path fill-rule="evenodd" clip-rule="evenodd" d="M403.495 108.038c-12.334 1.849-29.166 1.849-48.448-6.627l-4.45 16.689c13.985 10.235 32.538 17.509 47.33 14.696 11.657-2.218 15.398-17.563 5.568-24.758Z" fill="#fff"/></mask><g mask="url(#a)"><path fill-rule="evenodd" clip-rule="evenodd" d="M404.647 111.907c-12.467-.134-29.091-2.808-46.83-14.242l-6.966 15.776c12.235 12.331 29.44 22.463 44.483 22.034 11.855-.338 17.914-14.9 9.313-23.568Z" fill="#95AB97"/></g><mask id="b" style="mask-type:alpha" maskUnits="userSpaceOnUse" x="310" y="71" width="161" height="152"><path fill-rule="evenodd" clip-rule="evenodd" d="M403.817 71.852c-1.57 20.482-9.471 43.054-15.956 65.354-13.235 3.353-35.43-.6-66.584-11.857-7.727 16.234-11.3 27.808-10.717 34.721 26.729 14.179 49.638 20.499 68.511 20.915-.608 11.368.755 22.189 5.334 32.078 9.413 20.325 64.53 1.501 83.062 5.206 11.606-38.273-10.834-53.828-10.852-78.318-.019-26.818-21.225-68.1-24.345-68.1h-28.453Z" fill="#fff"/></mask><g mask="url(#b)"><path fill-rule="evenodd" clip-rule="evenodd" d="M403.817 71.852c-1.57 20.482-9.471 43.054-15.956 65.354-13.235 3.353-35.43-.6-66.584-11.857-7.727 16.234-11.3 27.808-10.717 34.721 26.729 14.179 49.638 20.499 68.511 20.915-.608 11.368.755 22.189 5.334 32.078 9.413 20.325 64.53 1.501 83.062 5.206 11.606-38.273-10.834-53.828-10.852-78.318-.019-26.818-21.225-68.1-24.345-68.1h-28.453Z" fill="#CEE5D0"/></g><path fill-rule="evenodd" clip-rule="evenodd" d="M142.93 43.775c7.02 13.086 6.186 46.277-2.887 48.616-3.618.933-11.326-1.352-19.171-6.08l4.924 34.836H96.72l10.009-46.654c-5.582-6.553-9.36-14.583-8.728-23.58 1.819-25.926 37.909-20.223 44.929-7.138Z" fill="#57331F"/><path fill-rule="evenodd" clip-rule="evenodd" d="M131.446 29.523c-3.973-1.21-9.741-1.622-12.167-1.344 1.38-3.306 1.928-6.99 1.481-10.577-.434-3.486-1.991-6.454-3.431-9.563-.664-1.434-1.417-2.86-2.539-3.956-1.142-1.117-2.589-1.854-4.106-2.206-1.552-.36-3.175-.33-4.73-.003-.688.144-1.305.459-1.979.633-.691.18-1.026-.253-1.528-.687C101.239.773 99.467.256 97.939.07c-1.715-.207-3.494.051-5.13.615-1.592.549-3.121 1.44-4.272 2.739-.513.578-.978 1.235-1.28 1.962-.124.298-.145.474-.442.583-.275.102-.597.104-.881.2-2.745.93-5.092 3.051-6.37 5.774-.745 1.59-1.099 4.386-1.002 7.521.097 3.136 2.928 11.316 5.576 14.3 2.363 2.663 5.837 4.42 9.19 5.19-2.226 2.544-3.707 5.722-4.803 8.955a43.82 43.82 0 0 0-2.198 10.877c-.258 3.532-.282 7.267.546 10.723.775 3.233 2.431 5.884 5.196 7.567 1.267.77 2.63 1.35 4 1.878 1.352.522 2.706 1.029 4.122 1.321 2.678.554 5.763.459 7.826-1.673.744-.768 1.562-1.734 2.104-2.673.195-.338.313-.558.076-.888-.284-.396-.743-.698-1.108-1.008-2.079-1.762-3.367-4.116-3.691-6.913-.329-2.837.433-6.5 3.192-7.738 3.405-1.529 7.156.226 10.183 1.861 1.286-4.54 3.928-8.628 8.069-10.71 4.581-2.305 9.839-2.574 14.547-4.551 1.227-.515 2.476-1.1 3.38-2.15.377-.438.82-1.008.971-1.588.198-.762-.294-1.4-.674-1.995-2.013-3.15-9.648-9.515-13.62-10.727Z" fill="#000"/><path fill-rule="evenodd" clip-rule="evenodd" d="M44.17 272.581h93.592l12.263 150.222H10.706L44.17 272.581Z" fill="#C5CFD6"/><path fill-rule="evenodd" clip-rule="evenodd" d="M44.17 272.581h28.785l17.228 150.222H10.706L44.17 272.581Z" fill="#000" fill-opacity=".1"/><path fill-rule="evenodd" clip-rule="evenodd" d="M245.841 267.132c6.151 15.929 16.891 68.267 29.795 147.321l-14.75 4.304c-15.522-34.355-26.748-64.27-31.254-80.054-7.715-27.025-13.584-50.805-15.068-59.686-3.537-21.177 27.212-22.41 31.277-11.885Zm-46.535 44.409c-44.905 6.463-108.567 13.137-114.015 13.886-7.635 1.05-13.405-10.949-4.455-14.487 14.242-5.629 64.116-23.246 88.17-28.23a1309.315 1309.315 0 0 1 19.91-3.965c18.722-3.574 28.422 30.201 10.39 32.796Z" fill="#57331F"/><path fill-rule="evenodd" clip-rule="evenodd" d="M132.534 221.699c74.527 18.991 112.61 31.161 114.25 36.511.018.06.035.12.05.179.038.047.074.095.109.143 14.77 20.312 23.615 119.48 26.518 126.905l-28.302 4.222c-10.826-40.146-45.463-68.113-44.543-116.195a15.69 15.69 0 0 1-.209-4.012l-77.034-39.216v-8.537h9.161Z" fill="#7D3336"/><path fill-rule="evenodd" clip-rule="evenodd" d="M136.629 221.699c10.797 3.102 66.912 26.634 96.027 39.151 19.269 8.283 13.195 38.144 2.284 45.917-.06.477-.257.801-.607.947-58.701 24.329-105.139 11.564-120.652 15.642l-7.175-22.634 23.266-7.982c-7.048-1.411-13.538-2.67-19.092-3.644-35.876-6.292-46.338-25.497-40.152-67.397h66.101Z" fill="#B86767"/><path fill-rule="evenodd" clip-rule="evenodd" d="M85.706 307.343c-3.847.368-6.577.945-8.191 1.733-1.964.957-4.67 2.682-8.117 5.173l29.953 61.414c6.055-.977 8.454-3.288 7.197-6.931a385.035 385.035 0 0 1-3.04-9.125l-1.196-34.751a1.212 1.212 0 0 0-1.253-1.169l-.034.001-5.346.336c-3.038-2.459-5.042-4.683-6.012-6.673-.789-1.617-1.225-4.168-1.308-7.654a2.424 2.424 0 0 0-2.653-2.354ZM253.822 412.387c-1.356 3.618-2.033 6.325-2.033 8.122 0 2.184.364 5.372 1.092 9.563h68.329c1.775-5.87.75-9.039-3.075-9.507a378.415 378.415 0 0 1-9.534-1.268l-31.759-14.158a1.211 1.211 0 0 0-1.6.613l-.013.032-2.042 4.952c-3.541 1.652-6.419 2.478-8.633 2.478-1.799 0-4.284-.726-7.454-2.179a2.423 2.423 0 0 0-3.278 1.352Z" fill="#000"/><path fill-rule="evenodd" clip-rule="evenodd" d="m41.366 207.186 25.317.099c-15.632 50.462-24.071 77.237-25.317 80.325-2.803 6.947 3.129 17.528 5.666 23.214-8.263 3.697-7.382-9.995-17.805-5.146-9.513 4.426-16.75 12.445-27.741 5.663-1.352-.834-2.833-3.973.745-6.426 8.914-6.112 21.76-16.809 23.495-20.33 2.367-4.802 7.58-30.602 15.64-77.399Zm148.373-.98 38.644 28.377c10.481 2.828 19.237 6.347 26.269 10.556 1.661 1.514 3.669 4.579-3.22 4.05-6.889-.53-14.159-.778-15.11 1.572-.95 2.35 3.219 5.16 1.297 8.33-1.281 2.114-7.333-3.186-18.155-15.899l-38.268-15.869 8.543-21.117Z" fill="#57331F"/><path fill-rule="evenodd" clip-rule="evenodd" d="m113.312 100.954 10.475-1.796c38.868 33.576 54.833 98.08 102.476 132.251l-11.468 14.214c-82.651-10.234-103.137-88.913-101.483-144.669Z" fill="#BB9C66"/><path fill-rule="evenodd" clip-rule="evenodd" d="M67.645 232.602h92.692c4.235 0 3.437-6.115 2.825-9.202-7.067-35.617-34.651-74.012-34.651-124.713l-26.736-4.192c-22.115 35.567-29.763 79.357-34.13 138.107Z" fill="#C7D1D9"/><path fill-rule="evenodd" clip-rule="evenodd" d="M99.761 94.495c.903 0 1.731.056 2.482.17l8.375.478c24.014 81.387 30.637 135.687 19.869 162.9l-72.956.002c-4.322 10.079-8.458 18.558-12.408 25.439h-19.88c-1.87-60.492 12.512-111.835 43.147-154.029-3.883-1.115-6.958-3.719-9.225-7.81-9.772-17.633-6.243-27.341 4.2-30.532 10.444-3.192 19.757 3.382 36.396 3.382Z" fill="#F7D59C"/><path fill-rule="evenodd" clip-rule="evenodd" d="m84.606 258.043-27.075.001c5.042-11.757 10.338-25.69 15.887-41.798 2.294 19.195 6.024 33.129 11.188 41.797Z" fill="#000" fill-opacity=".1"/></svg>