<svg width="250" height="250" viewBox="0 0 250 250" fill="none" xmlns="http://www.w3.org/2000/svg">
<path d="M7.8125 179.688H42.9688V238.281H7.8125V179.688Z" fill="#5DC4DD"/>
<path d="M42.9688 230.469H175.781L232 198.848C235.879 196.664 238.281 192.559 238.281 188.105C238.281 181.297 232.766 175.781 225.957 175.781H225.363C223.578 175.781 221.816 176.168 220.199 176.914L171.875 199.219H105.469H138.672C142.422 199.219 145.859 197.695 148.32 195.195L148.359 195.156C150.82 192.695 152.344 189.297 152.344 185.547C152.344 178.672 147.227 172.969 140.625 172.031C140 171.914 139.336 171.875 138.672 171.875H137.461H96.9141H93.75H85.9375L70.3125 187.5H42.9688V230.469Z" fill="#F7D59C"/>
<path d="M242.188 70.3125H207.031V11.7188H242.188V70.3125Z" fill="#5DC4DD"/>
<path d="M207.031 19.5312H74.2188L18 51.1523C14.1211 53.3359 11.7188 57.4414 11.7188 61.8945C11.7188 68.7031 17.2344 74.2188 24.043 74.2188H24.6367C26.4219 74.2188 28.1836 73.832 29.8008 73.0859L78.125 50.7812H144.531H111.328C107.578 50.7812 104.141 52.3047 101.68 54.8047L101.641 54.8438C99.1797 57.3047 97.6562 60.7031 97.6562 64.4531C97.6562 71.3281 102.773 77.0312 109.375 77.9687C110 78.0859 110.664 78.125 111.328 78.125H112.539H153.086H156.25H164.062L179.688 62.5H207.031V19.5312Z" fill="#F7D59C"/>
<path d="M136.719 203.125H109.375C107.219 203.125 105.469 201.375 105.469 199.219C105.469 197.062 107.219 195.312 109.375 195.312H136.719C138.875 195.312 140.625 197.062 140.625 199.219C140.625 201.375 138.875 203.125 136.719 203.125Z" fill="#DD9D8E"/>
<path d="M140.625 54.6875H113.281C111.125 54.6875 109.375 52.9375 109.375 50.7812C109.375 48.625 111.125 46.875 113.281 46.875H140.625C142.781 46.875 144.531 48.625 144.531 50.7812C144.531 52.9375 142.781 54.6875 140.625 54.6875Z" fill="#DD9D8E"/>
<path d="M125 152.344C140.102 152.344 152.344 140.102 152.344 125C152.344 109.898 140.102 97.6562 125 97.6562C109.898 97.6562 97.6562 109.898 97.6562 125C97.6562 140.102 109.898 152.344 125 152.344Z" fill="#EA5B58"/>
<path d="M125 140.625C133.629 140.625 140.625 133.629 140.625 125C140.625 116.371 133.629 109.375 125 109.375C116.371 109.375 109.375 116.371 109.375 125C109.375 133.629 116.371 140.625 125 140.625Z" fill="#F5A947"/>
<path d="M125 132.812C129.315 132.812 132.812 129.315 132.812 125C132.812 120.685 129.315 117.188 125 117.188C120.685 117.188 117.188 120.685 117.188 125C117.188 129.315 120.685 132.812 125 132.812Z" fill="#FFB554"/>
<path d="M100.074 159.996C97.6094 158.238 95.3242 156.211 93.2773 153.973L99.0469 148.699C100.723 150.535 102.594 152.191 104.613 153.629L100.074 159.996ZM87.8867 146.664C86.3516 144.047 85.0977 141.258 84.1563 138.375L91.5781 135.945C92.3516 138.301 93.375 140.578 94.625 142.715L87.8867 146.664ZM82.2656 129.488C82.1133 128.016 82.0312 126.516 82.0312 125C82.0312 123.453 82.1133 121.922 82.2734 120.418L90.043 121.242C89.9102 122.477 89.8438 123.73 89.8438 125C89.8438 126.246 89.9102 127.473 90.0352 128.684L82.2656 129.488ZM91.6055 113.98L84.1875 111.531C85.1367 108.66 86.3945 105.875 87.9336 103.258L94.6719 107.219C93.4102 109.355 92.3789 111.629 91.6055 113.98ZM99.0859 101.246L93.3359 95.957C95.3906 93.7227 97.6797 91.7031 100.145 89.9531L104.668 96.3242C102.648 97.7539 100.773 99.4102 99.0859 101.246Z" fill="#FDB554"/>
<path d="M149.855 160.047L145.332 153.676C147.352 152.242 149.227 150.586 150.914 148.754L156.664 154.043C154.609 156.277 152.32 158.297 149.855 160.047ZM162.066 146.742L155.328 142.781C156.586 140.645 157.617 138.367 158.391 136.02L165.809 138.469C164.867 141.344 163.605 144.125 162.066 146.742ZM167.727 129.582L159.957 128.758C160.09 127.523 160.156 126.27 160.156 125C160.156 123.754 160.09 122.527 159.965 121.316L167.734 120.512C167.887 121.984 167.969 123.484 167.969 125C167.969 126.547 167.887 128.078 167.727 129.582ZM158.422 114.051C157.648 111.695 156.625 109.418 155.375 107.281L162.117 103.332C163.652 105.949 164.906 108.738 165.848 111.621L158.422 114.051ZM150.957 101.297C149.281 99.4609 147.41 97.8047 145.391 96.3672L149.926 90.0039C152.391 91.7617 154.676 93.7891 156.723 96.0273L150.957 101.297Z" fill="#FDB554"/>
<path d="M175.031 155.477L168.367 151.402C169.742 149.152 170.949 146.777 171.957 144.34L179.176 147.328C178.012 150.141 176.617 152.883 175.031 155.477ZM181.996 138.621L174.398 136.805C175.012 134.242 175.426 131.613 175.629 128.984L183.418 129.586C183.18 132.625 182.703 135.664 181.996 138.621ZM175.629 121.051C175.426 118.422 175.016 115.789 174.406 113.227L182.004 111.414C182.711 114.375 183.188 117.414 183.418 120.449L175.629 121.051ZM171.969 105.691C170.965 103.262 169.758 100.887 168.383 98.6289L175.051 94.5586C176.641 97.1641 178.031 99.9063 179.191 102.711L171.969 105.691Z" fill="#FDB554"/>
<path d="M74.9492 155.441C73.3594 152.836 71.9688 150.094 70.8086 147.289L78.0313 144.309C79.0352 146.738 80.2422 149.113 81.6172 151.371L74.9492 155.441ZM67.9961 138.586C67.2891 135.625 66.8125 132.586 66.582 129.551L74.3711 128.953C74.5742 131.582 74.9844 134.215 75.5938 136.777L67.9961 138.586ZM74.375 121.016L66.5859 120.414C66.8242 117.375 67.3008 114.336 68.0078 111.379L75.6055 113.195C74.9922 115.754 74.5781 118.387 74.375 121.016ZM78.043 105.66L70.8242 102.672C71.9883 99.8594 73.3828 97.1172 74.9688 94.5234L81.6328 98.5977C80.2578 100.848 79.0508 103.223 78.043 105.66Z" fill="#FDB554"/>
<path d="M199.219 19.5312H207.031V62.5H199.219V19.5312Z" fill="#DD9D8E"/>
<path d="M42.9688 187.5H50.7812V230.469H42.9688V187.5Z" fill="#DD9D8E"/>
</svg>
