<svg width="50" height="50" fill="none" xmlns="http://www.w3.org/2000/svg"><path d="M49.989 15.32v-.015c0-6.574-5.328-11.903-11.902-11.903-6.574 0-11.902 5.329-11.902 11.902 0 6.574 5.33 11.903 11.902 11.903 1.351 0 2.644-.236 3.854-.65-2.678 15.361-14.657 25.268-3.552 17.115 12.313-9.042 11.614-28.004 11.6-28.351ZM11.902 27.207c1.351 0 2.645-.236 3.855-.65C13.08 41.917 1.1 51.824 12.204 43.671c12.314-9.042 11.614-28.004 11.6-28.351v-.016c0-6.574-5.328-11.903-11.902-11.903C5.33 3.402 0 8.731 0 15.304c0 6.574 5.33 11.903 11.902 11.903Z" fill="#B86767"/></svg>