<svg width="100" height="100" fill="none" xmlns="http://www.w3.org/2000/svg"><path d="M98.402 46.115 62.288 10a5.433 5.433 0 0 0-3.87-1.596c-1.466 0-2.84.566-3.87 1.596l-3.28 3.28a5.433 5.433 0 0 0-1.597 3.87c0 1.465.568 2.886 1.598 3.915L72.337 42.18H5.402C2.385 42.18 0 44.542 0 47.56v4.636c0 3.02 2.385 5.62 5.402 5.62h67.174L51.27 79.049a5.353 5.353 0 0 0-1.598 3.834c0 1.465.567 2.822 1.598 3.852l3.278 3.269a5.428 5.428 0 0 0 3.871 1.592c1.465 0 2.839-.569 3.87-1.6l36.113-36.113A5.436 5.436 0 0 0 100 50a5.436 5.436 0 0 0-1.598-3.886Z" fill="#B86767"/></svg>