<svg width="100" height="100" fill="none" xmlns="http://www.w3.org/2000/svg"><g clip-path="url(#a)"><path d="M93.989 42.98a7.155 7.155 0 0 0-1.238-.09H22.203l1.539-.716a14.308 14.308 0 0 0 4.042-2.862l19.784-19.784a7.405 7.405 0 0 0 1.037-9.48 7.155 7.155 0 0 0-10.732-.93L2.098 44.893a7.155 7.155 0 0 0-.006 10.118l.006.006 35.775 35.775a7.155 7.155 0 0 0 10.732-.716 7.405 7.405 0 0 0-1.037-9.48L27.82 60.776a14.31 14.31 0 0 0-3.578-2.61l-2.146-.967h70.262a7.405 7.405 0 0 0 7.548-6.01 7.155 7.155 0 0 0-5.917-8.208Z" fill="#B86767"/></g><defs><clipPath id="a"><path fill="#fff" d="M0 0h100v100H0z"/></clipPath></defs></svg>