<svg width="697" height="515" fill="none" xmlns="http://www.w3.org/2000/svg"><g clip-path="url(#a)"><path d="M693.139 30.535H3.861a3.859 3.859 0 0 1-2.729-1.136A3.885 3.885 0 0 1 0 26.66V3.874a3.885 3.885 0 0 1 1.132-2.738A3.859 3.859 0 0 1 3.861 0h689.278a3.859 3.859 0 0 1 2.729 1.136A3.883 3.883 0 0 1 697 3.874V26.66a3.883 3.883 0 0 1-1.132 2.738 3.859 3.859 0 0 1-2.729 1.136Z" fill="#E4E4E4"/><path d="M22.406 19.656c3.028 0 5.482-2.463 5.482-5.5 0-3.038-2.454-5.5-5.482-5.5-3.027 0-5.481 2.462-5.481 5.5 0 3.037 2.454 5.5 5.481 5.5ZM43.212 19.656c3.027 0 5.482-2.463 5.482-5.5 0-3.038-2.455-5.5-5.482-5.5s-5.481 2.462-5.481 5.5c0 3.037 2.454 5.5 5.481 5.5ZM64.019 19.656c3.027 0 5.481-2.463 5.481-5.5 0-3.038-2.454-5.5-5.481-5.5-3.028 0-5.482 2.462-5.482 5.5 0 3.037 2.455 5.5 5.482 5.5ZM672.754 10.37h-23.959a1.77 1.77 0 0 1-1.252-.523 1.784 1.784 0 0 1 0-2.515 1.77 1.77 0 0 1 1.252-.523h23.959c.47 0 .921.187 1.254.52a1.785 1.785 0 0 1 .005 2.517 1.771 1.771 0 0 1-1.252.524h-.007ZM672.754 17.048h-23.959a1.77 1.77 0 0 1-1.252-.523 1.784 1.784 0 0 1 0-2.516 1.77 1.77 0 0 1 1.252-.523h23.959c.47 0 .921.187 1.254.52a1.785 1.785 0 0 1 .005 2.517 1.77 1.77 0 0 1-1.252.525h-.007ZM672.754 23.725h-23.959a1.774 1.774 0 0 1-1.774-1.78 1.774 1.774 0 0 1 1.774-1.78h23.959c.471-.002.922.185 1.256.518a1.786 1.786 0 0 1 .005 2.518 1.774 1.774 0 0 1-1.254.524h-.007Z" fill="#B86767"/><path d="M196.539 452.811c2.536-20.463 15.176-40.625 34.626-47.285a95.306 95.306 0 0 0 .005 65.23c2.989 8.112 7.155 16.822 4.343 24.998-1.749 5.087-6.028 8.978-10.811 11.412-4.784 2.434-10.093 3.593-15.335 4.73l-1.032.856c-8.322-18.854-14.333-39.477-11.796-59.941Z" fill="#CEE5D0"/><path d="M231.358 405.913a81.339 81.339 0 0 0-20.12 45.704 35.106 35.106 0 0 0 .396 10.949 20.085 20.085 0 0 0 4.972 9.303c2.241 2.471 4.818 4.737 6.422 7.711a12.318 12.318 0 0 1 .598 10.026c-1.416 4.074-4.206 7.394-7.047 10.546-3.154 3.5-6.486 7.085-7.827 11.725-.162.562-1.022.276-.86-.285 2.333-8.072 10.143-12.658 13.867-19.928 1.738-3.393 2.468-7.332.839-10.913-1.425-3.132-4.081-5.471-6.371-7.953a21.42 21.42 0 0 1-5.2-8.914 32.457 32.457 0 0 1-.814-10.894 78.991 78.991 0 0 1 5.735-23.943 82.677 82.677 0 0 1 14.811-23.815c.387-.435.984.249.599.681Z" fill="#fff"/><path d="M211.482 446.117a12.143 12.143 0 0 1-6.959-4.678 12.21 12.21 0 0 1-2.284-8.085.45.45 0 0 1 .474-.416.453.453 0 0 1 .43.461 11.311 11.311 0 0 0 2.128 7.526 11.246 11.246 0 0 0 6.495 4.329c.567.135.279.997-.284.863ZM215.305 470.767a23.471 23.471 0 0 0 10.452-13.524c.164-.562 1.024-.276.86.285a24.418 24.418 0 0 1-10.904 14.051c-.503.299-.907-.515-.408-.812ZM220.335 421.18a6.847 6.847 0 0 0 6.514-.331c.498-.306.902.508.407.811a7.676 7.676 0 0 1-7.205.383.473.473 0 0 1-.288-.574.455.455 0 0 1 .572-.289Z" fill="#fff"/><path d="M290.453 442.076c-.305.2-.611.399-.917.606a90.59 90.59 0 0 0-11.574 9.067c-.283.253-.566.514-.841.775a95.714 95.714 0 0 0-20.725 28.465 93.04 93.04 0 0 0-5.076 13.178c-1.873 6.236-3.41 13.147-7.118 18.248a15.995 15.995 0 0 1-1.238 1.534h-33.508c-.076-.039-.152-.069-.229-.108l-1.338.062c.054-.238.115-.484.169-.721.03-.138.068-.276.099-.415.023-.092.046-.184.061-.268l.023-.084c.015-.085.039-.161.054-.238.336-1.373.683-2.746 1.039-4.119 0-.008 0-.008.008-.016a136.99 136.99 0 0 1 11.467-30.206c.153-.284.306-.575.474-.859a88.818 88.818 0 0 1 7.943-12.089 78.63 78.63 0 0 1 5.206-5.975 65.06 65.06 0 0 1 16.268-12.227c12.018-6.366 25.932-8.806 38.775-4.917.329.1.65.2.978.307Z" fill="#CEE5D0"/><path d="M290.378 442.503a80.873 80.873 0 0 0-43.49 24.337 34.957 34.957 0 0 0-6.253 8.983 20.112 20.112 0 0 0-1.613 10.431c.307 3.326 1.005 6.693.5 10.036a12.27 12.27 0 0 1-5.538 8.366c-3.575 2.397-7.795 3.363-11.955 4.164-4.619.889-9.43 1.739-13.285 4.633-.467.351-.982-.397-.515-.747 6.706-5.036 15.693-3.979 23.03-7.534 3.423-1.659 6.369-4.364 7.217-8.207.742-3.362.025-6.834-.314-10.199a21.46 21.46 0 0 1 1.198-10.258 32.335 32.335 0 0 1 5.886-9.191 78.6 78.6 0 0 1 18.946-15.652 82.185 82.185 0 0 1 26.116-10.068c.571-.114.637.794.07.906Z" fill="#fff"/><path d="M250.384 462.596a12.208 12.208 0 0 1 .278-15.774c.386-.437 1.082.145.695.583a11.31 11.31 0 0 0-.229 14.674c.372.45-.375.965-.744.517ZM238.645 484.588a23.35 23.35 0 0 0 16.46-4.485c.469-.349.984.398.516.747a24.283 24.283 0 0 1-17.138 4.632c-.58-.065-.415-.959.162-.894ZM272.416 448.034a6.865 6.865 0 0 0 5.4 3.67c.581.058.415.951-.162.895a7.7 7.7 0 0 1-5.983-4.047.474.474 0 0 1 .115-.632.45.45 0 0 1 .63.114Z" fill="#fff"/><path d="M225.918 158.882H115.06a12.913 12.913 0 0 1-9.132-3.802 13.003 13.003 0 0 1-3.789-9.163V85.336a13.003 13.003 0 0 1 3.789-9.163 12.913 12.913 0 0 1 9.132-3.801h110.858c3.426.004 6.71 1.37 9.133 3.8a13.003 13.003 0 0 1 3.789 9.164v60.581a13.003 13.003 0 0 1-3.789 9.163 12.915 12.915 0 0 1-9.133 3.802Z" fill="#E6E6E6"/><path d="M395.166 158.882H284.308a12.913 12.913 0 0 1-9.132-3.802 13.003 13.003 0 0 1-3.789-9.163V85.336a13.003 13.003 0 0 1 3.789-9.163 12.913 12.913 0 0 1 9.132-3.801h110.858c3.426.003 6.71 1.37 9.133 3.8a13.003 13.003 0 0 1 3.789 9.164v60.581a13.003 13.003 0 0 1-3.789 9.163 12.915 12.915 0 0 1-9.133 3.802Z" fill="#F7D59C"/><path d="M564.414 158.882H453.556a12.913 12.913 0 0 1-9.132-3.802 13.003 13.003 0 0 1-3.789-9.163V85.336a13.003 13.003 0 0 1 3.789-9.163 12.913 12.913 0 0 1 9.132-3.801h110.858c3.426.003 6.71 1.37 9.133 3.8a12.998 12.998 0 0 1 3.788 9.164v60.581a12.998 12.998 0 0 1-3.788 9.163 12.915 12.915 0 0 1-9.133 3.802Z" fill="#E6E6E6"/><path d="M225.918 293.864H115.06a12.913 12.913 0 0 1-9.132-3.802 13.003 13.003 0 0 1-3.789-9.163v-60.581a13.003 13.003 0 0 1 3.789-9.163 12.916 12.916 0 0 1 9.132-3.801h110.858a12.918 12.918 0 0 1 9.133 3.801 13.003 13.003 0 0 1 3.789 9.163v60.581a13.003 13.003 0 0 1-3.789 9.163 12.915 12.915 0 0 1-9.133 3.802Z" fill="#F2F2F2"/><path d="M395.166 293.864H284.308a12.913 12.913 0 0 1-9.132-3.802 13.003 13.003 0 0 1-3.789-9.163v-60.581a13.003 13.003 0 0 1 3.789-9.163 12.916 12.916 0 0 1 9.132-3.801h110.858a12.918 12.918 0 0 1 9.133 3.801 13.003 13.003 0 0 1 3.789 9.163v60.581a13.003 13.003 0 0 1-3.789 9.163 12.915 12.915 0 0 1-9.133 3.802Z" fill="#E6E6E6"/><path d="M402.994 305.012c10.935 0 19.799-8.895 19.799-19.866 0-10.972-8.864-19.866-19.799-19.866-10.935 0-19.8 8.894-19.8 19.866 0 10.971 8.865 19.866 19.8 19.866Z" fill="#F7D59C"/><path d="M411.216 283.477h-6.732v-6.754a1.585 1.585 0 0 0-.464-1.124 1.576 1.576 0 0 0-1.12-.465 1.576 1.576 0 0 0-1.12.465 1.604 1.604 0 0 0-.464 1.124v6.754h-6.732a1.594 1.594 0 0 0-1.12.466 1.604 1.604 0 0 0-.464 1.124 1.604 1.604 0 0 0 .464 1.124 1.584 1.584 0 0 0 1.12.465h6.732v6.755A1.589 1.589 0 0 0 402.9 295a1.591 1.591 0 0 0 1.584-1.589v-6.755h6.732a1.576 1.576 0 0 0 1.12-.465 1.585 1.585 0 0 0 .464-1.124 1.59 1.59 0 0 0-1.584-1.59Z" fill="#fff"/><path d="M574.846 173.513c10.935 0 19.799-8.894 19.799-19.866s-8.864-19.866-19.799-19.866c-10.935 0-19.8 8.894-19.8 19.866s8.865 19.866 19.8 19.866Z" fill="#F7D59C"/><path d="M583.068 151.979h-6.732v-6.755a1.59 1.59 0 0 0-1.584-1.589 1.576 1.576 0 0 0-1.12.466 1.589 1.589 0 0 0-.464 1.123v6.755h-6.732a1.576 1.576 0 0 0-1.12.465 1.604 1.604 0 0 0-.464 1.124 1.6 1.6 0 0 0 .464 1.124 1.571 1.571 0 0 0 1.12.466h6.732v6.754a1.6 1.6 0 0 0 .464 1.124 1.571 1.571 0 0 0 1.12.465c.42 0 .823-.167 1.12-.465.297-.298.464-.702.464-1.124v-6.754h6.732a1.594 1.594 0 0 0 1.12-.466 1.6 1.6 0 0 0 .464-1.124 1.585 1.585 0 0 0-.464-1.124 1.595 1.595 0 0 0-1.12-.465Z" fill="#fff"/><path d="M233.746 171.771c10.935 0 19.8-8.894 19.8-19.866 0-10.971-8.865-19.866-19.8-19.866s-19.8 8.895-19.8 19.866c0 10.972 8.865 19.866 19.8 19.866Z" fill="#F7D59C"/><path d="M241.968 150.237h-6.732v-6.754a1.59 1.59 0 0 0-1.584-1.59 1.576 1.576 0 0 0-1.12.466 1.6 1.6 0 0 0-.344.515c-.079.193-.12.4-.12.609v6.754h-6.732a1.576 1.576 0 0 0-1.12.466 1.589 1.589 0 0 0-.464 1.124 1.591 1.591 0 0 0 1.584 1.589h6.732v6.754c0 .209.041.416.12.609a1.6 1.6 0 0 0 .858.86 1.576 1.576 0 0 0 1.726-.345 1.58 1.58 0 0 0 .464-1.124v-6.754h6.732a1.576 1.576 0 0 0 1.12-.466 1.59 1.59 0 0 0 .464-1.124 1.591 1.591 0 0 0-1.584-1.589Z" fill="#fff"/><path d="M381.981 124.462a7.91 7.91 0 0 1-3.162 9.088 7.86 7.86 0 0 1-3.192 1.209l-9.155 62.702-15.018-7.359 15.105-62.589a7.96 7.96 0 0 1 1.59-5.411 7.91 7.91 0 0 1 4.771-2.987 7.89 7.89 0 0 1 5.543.946 7.932 7.932 0 0 1 3.518 4.401ZM272.633 325.28a7.913 7.913 0 0 0 1.212-6.571 7.879 7.879 0 0 0-4.243-5.152l6.177-66.695-12.937 6.653-4.039 64.27a7.962 7.962 0 0 0-.079 5.641 7.933 7.933 0 0 0 3.676 4.27 7.891 7.891 0 0 0 5.574.743 7.913 7.913 0 0 0 4.659-3.159ZM281.471 291.547l55.514-2.142 3.203-57.843h-64.055l5.338 59.985ZM271.167 495.824l9.487-.001 4.512-36.713h-14l.001 36.714Z" fill="#72351B"/><path d="m268.814 491.129 14.996-.899v6.447l14.257 9.879a4.022 4.022 0 0 1 1.514 2.001 4.028 4.028 0 0 1-1.416 4.557 4 4 0 0 1-2.378.783h-17.853l-3.078-6.377-1.201 6.377h-6.732l1.891-22.768Z" fill="#2F2E41"/><path d="m313.361 495.824 9.487-.001 4.512-36.713h-14l.001 36.714Z" fill="#72351B"/><path d="M280.7 277.969s-16.61 13.455-7.605 61.507c-1.371.164.181 2.875.181 2.875l1.299 39.154 1.005 4.487-3.339 7.241 1.376 7.867-4.242 71.403 15.673 2.033 14.998-74.147 2.856-8.337 2.865-7.307-1.545-7.792 1.267-12.094 8.646-40.781 2.117 70.729-2.954 6.752 1.644 7.412-3.662 3.935-1.447 66.176 16.712.784 13.827-66.71-1.072-8.513 1.839-6.294v-14.703l3.151-6.939 6.869-37.836s2.072-29.573-13.047-64.372l-57.412 3.47Z" fill="#2F2E41"/><path d="M287.47 183.489s-20.98 4.163-24.595 22.115c-3.614 17.952-5.94 58.576-5.94 58.576l.791 5.658 20.294 4.721 12.953-56.921-3.503-34.149ZM335.348 189.549s2.127-2.99 14.036-3.451c.49-.019-.117-.995-.117-.995l5.727-28.088 19.087 10.603-3.222 29.446-31.363 35.793-4.148-43.308Z" fill="#B86767"/><path d="M323.451 273.282c-8.985.001-22.511-.994-42.872-4.027a6.215 6.215 0 0 1-3.465-1.753 6.246 6.246 0 0 1-1.755-3.472 4.73 4.73 0 0 1-.791-5.364l.019-.037-.461-.546a5.062 5.062 0 0 1-.336-6.106l-6.306-45.262a19.12 19.12 0 0 1 2.763-12.906 19.012 19.012 0 0 1 10.454-8.013l2.328-.727 8.803-11.554.174.002 28.26.378 9.171 11.685 14.825 3.508.039.226 3.442 19.955c1.79 10.378-2.315 14.461-7.556 23.588l1.538 25.633.698 1.272a3.46 3.46 0 0 1 .367 2.312 3.445 3.445 0 0 1-1.19 2.014c.468 1.341.5 2.796.092 4.156l-.363 1.203c.001.034-.096.523-.879 1.119-1.411 1.076-5.463 2.716-16.999 2.716Z" fill="#B86767"/><path d="m311.008 491.129 14.996-.899v6.447l14.257 9.879a4.022 4.022 0 0 1 1.514 2.001 4.032 4.032 0 0 1-1.415 4.557 4.006 4.006 0 0 1-2.379.783h-17.853l-3.078-6.377-1.201 6.377h-6.732l1.891-22.768Z" fill="#2F2E41"/><path d="M326.758 148.339c1.96-12.119-6.242-23.537-18.32-25.504-12.078-1.966-23.459 6.263-25.419 18.382-1.96 12.119 6.243 23.537 18.321 25.504 12.078 1.966 23.458-6.264 25.418-18.382Z" fill="#72351B"/><path d="M317.844 123.056c-8.12-5.603-15.271-6.457-21.145-4.867a7.725 7.725 0 0 0-3.089-2.752c-4.581-11.583-18.523-18.538-30.488-15.157-12.042 3.403-20.351 16.787-18.085 29.132 1.404 7.652 6.204 14.279 8.134 21.814 3.738 14.588-5.379 31.299-19.64 36.001 13.503 2.721 28.366-5.555 33.21-18.491 2.353-6.283 2.495-13.143 2.794-19.848a66.051 66.051 0 0 1 1.686-13.745 29.466 29.466 0 0 1 2.18-5.852 19.99 19.99 0 0 1 9.553-9.299 7.655 7.655 0 0 0-.271 3.575 7.655 7.655 0 0 0 1.383 3.307c-3.166 3.98-4.89 8.284-4.89 10.862-6.578 12.064 2.829 22.426 14.852 29.026a24.56 24.56 0 0 0 15.738 2.753l.503-2.154.682 1.94 2.275 6.507a110.109 110.109 0 0 1 7.805 4.189c-.979-4.617-1.772-9.225-2.318-13.731-.755-6.132 1.878-15.262 3.777-20.814a32.896 32.896 0 0 0 1.788-10.635v-.159l1.849 5.959 6.731-2.881c-1.252-7.207 0-15.389-15.014-14.68Z" fill="#2F2E41"/><path d="M594.688 515H102.312a1.03 1.03 0 0 1-.727-.305 1.04 1.04 0 0 1 0-1.463 1.03 1.03 0 0 1 .727-.306h492.376a1.034 1.034 0 0 1 1.028 1.037 1.033 1.033 0 0 1-1.028 1.037Z" fill="#F7D59C"/><path d="M231.482 307.622c10.936 0 19.8-8.894 19.8-19.866 0-10.971-8.864-19.866-19.8-19.866-10.935 0-19.799 8.895-19.799 19.866 0 10.972 8.864 19.866 19.799 19.866Z" fill="#E6E6E6"/><path d="M529.389 276.339h-69.446a8.092 8.092 0 0 1-5.721-2.382 8.143 8.143 0 0 1-2.373-5.74v-37.951a8.145 8.145 0 0 1 2.373-5.74 8.091 8.091 0 0 1 5.721-2.381h69.446a8.09 8.09 0 0 1 5.721 2.381 8.146 8.146 0 0 1 2.374 5.74v37.951a8.144 8.144 0 0 1-2.374 5.74 8.09 8.09 0 0 1-5.721 2.382Z" fill="#F2F2F2"/><path d="M530.413 260.923c5.807 0 10.514-4.723 10.514-10.55 0-5.826-4.707-10.55-10.514-10.55-5.808 0-10.515 4.724-10.515 10.55 0 5.827 4.707 10.55 10.515 10.55Z" fill="#F7D59C"/><path d="M534.779 249.487h-3.575V245.9a.84.84 0 0 0-.52-.779.835.835 0 0 0-.916.183.844.844 0 0 0-.247.596v3.587h-3.575a.847.847 0 0 0-.841.844.85.85 0 0 0 .519.78.83.83 0 0 0 .322.065h3.575v3.587c0 .11.022.22.064.323a.856.856 0 0 0 .456.456.835.835 0 0 0 .916-.183.844.844 0 0 0 .247-.596v-3.587h3.575a.847.847 0 0 0 .841-.844.85.85 0 0 0-.519-.78.83.83 0 0 0-.322-.065Z" fill="#fff"/><path d="M557.682 265.569h-57.23a9.157 9.157 0 0 1-6.475-2.695 9.22 9.22 0 0 1-2.687-6.497V222.1c.001-.449.18-.878.496-1.195a1.683 1.683 0 0 1 2.384 0c.317.317.495.746.496 1.195v9.18l66.476 6.063a5.06 5.06 0 0 1 3.525 1.519 5.099 5.099 0 0 1 1.455 3.561c0 .105-.01.209-.029.312l-3.35 17.926a5.096 5.096 0 0 1-1.543 3.479 5.065 5.065 0 0 1-3.518 1.429Zm-63.016-30.888v21.695a5.82 5.82 0 0 0 1.697 4.103 5.781 5.781 0 0 0 4.089 1.703h57.23a1.693 1.693 0 0 0 1.688-1.694c0-.105.01-.209.029-.312l3.342-17.884a1.693 1.693 0 0 0-1.683-1.563c-.051 0-.102-.002-.153-.007l-66.239-6.041ZM485.245 281.376a2.818 2.818 0 0 0 2.813-2.823 2.818 2.818 0 0 0-2.813-2.823 2.818 2.818 0 0 0-2.813 2.823 2.818 2.818 0 0 0 2.813 2.823ZM555.432 281.376a2.818 2.818 0 0 0 2.813-2.823 2.818 2.818 0 0 0-2.813-2.823 2.818 2.818 0 0 0-2.813 2.823 2.818 2.818 0 0 0 2.813 2.823Z" fill="#F7D59C"/><path d="M558.245 275.731h-75.251c-.447 0-.877-.179-1.193-.496a1.697 1.697 0 0 1 0-2.395 1.682 1.682 0 0 1 1.193-.496h75.251c.448 0 .877.178 1.194.496a1.696 1.696 0 0 1-1.194 2.891ZM497.479 223.229h-14.628a1.685 1.685 0 0 1-1.191-.497 1.697 1.697 0 0 1 0-2.393 1.685 1.685 0 0 1 1.191-.497h14.628a1.69 1.69 0 0 1 1.685 1.693 1.69 1.69 0 0 1-1.685 1.694Z" fill="#F7D59C"/><path d="M509.215 274.868a1.675 1.675 0 0 1-1.099-.409l-11.095-9.566a1.705 1.705 0 0 1-.586-1.157c-.016-.222.01-.445.079-.657a1.698 1.698 0 0 1 1.479-1.162 1.686 1.686 0 0 1 1.228.407l11.095 9.566a1.698 1.698 0 0 1-.137 2.675 1.68 1.68 0 0 1-.964.303ZM511.553 264.529a1.685 1.685 0 0 1-1.56-1.046 1.69 1.69 0 0 1-.128-.648v-27.186a1.689 1.689 0 0 1 1.688-1.694c.447 0 .877.179 1.193.496.317.318.495.749.495 1.198v27.186a1.695 1.695 0 0 1-1.688 1.694ZM547.209 264.529a1.685 1.685 0 0 1-1.559-1.046 1.691 1.691 0 0 1-.129-.648v-24.928a1.695 1.695 0 0 1 1.688-1.69 1.695 1.695 0 0 1 1.688 1.69v24.928a1.691 1.691 0 0 1-.494 1.198 1.692 1.692 0 0 1-1.194.496Z" fill="#F7D59C"/></g><defs><clipPath id="a"><path fill="#fff" d="M0 0h697v515H0z"/></clipPath></defs></svg>