<svg width="697" height="515" viewBox="0 0 697 515" fill="none" xmlns="http://www.w3.org/2000/svg">
<g clip-path="url(#clip0)">
<path d="M693.139 30.5345H3.86087C2.83724 30.5334 1.85587 30.1249 1.13206 29.3987C0.408246 28.6724 0.00111882 27.6878 0 26.6607V3.87381C0.00111882 2.84676 0.408246 1.86208 1.13206 1.13584C1.85587 0.409605 2.83724 0.00112027 3.86087 0H693.139C694.163 0.00112258 695.144 0.409618 695.868 1.13586C696.592 1.8621 696.999 2.84676 697 3.87381V26.6607C696.999 27.6878 696.592 28.6724 695.868 29.3987C695.144 30.1249 694.163 30.5334 693.139 30.5345Z" fill="#E4E4E4"/>
<path d="M22.4063 19.6557C25.4336 19.6557 27.8877 17.1934 27.8877 14.1559C27.8877 11.1184 25.4336 8.65601 22.4063 8.65601C19.3789 8.65601 16.9248 11.1184 16.9248 14.1559C16.9248 17.1934 19.3789 19.6557 22.4063 19.6557Z" fill="#B86767"/>
<path d="M43.2121 19.6557C46.2394 19.6557 48.6936 17.1934 48.6936 14.1559C48.6936 11.1184 46.2394 8.65601 43.2121 8.65601C40.1848 8.65601 37.7307 11.1184 37.7307 14.1559C37.7307 17.1934 40.1848 19.6557 43.2121 19.6557Z" fill="#B86767"/>
<path d="M64.0189 19.6557C67.0462 19.6557 69.5003 17.1934 69.5003 14.1559C69.5003 11.1184 67.0462 8.65601 64.0189 8.65601C60.9915 8.65601 58.5374 11.1184 58.5374 14.1559C58.5374 17.1934 60.9915 19.6557 64.0189 19.6557Z" fill="#B86767"/>
<path d="M672.754 10.3703H648.795C648.325 10.3693 647.875 10.1812 647.543 9.84736C647.211 9.51353 647.024 9.06121 647.024 8.58962C647.024 8.11804 647.211 7.66573 647.543 7.3319C647.875 6.99807 648.325 6.81 648.795 6.80896H672.754C673.224 6.80862 673.675 6.99562 674.008 7.32887C674.341 7.66213 674.529 8.11438 674.53 8.58629C674.531 9.05819 674.345 9.51115 674.013 9.84566C673.681 10.1802 673.231 10.3689 672.761 10.3703H672.754Z" fill="#B86767"/>
<path d="M672.754 17.0478H648.795C648.325 17.0467 647.875 16.8587 647.543 16.5248C647.211 16.191 647.024 15.7387 647.024 15.2671C647.024 14.7955 647.211 14.3432 647.543 14.0094C647.875 13.6756 648.325 13.4875 648.795 13.4865H672.754C673.224 13.4861 673.675 13.6731 674.008 14.0064C674.341 14.3396 674.529 14.7919 674.53 15.2638C674.531 15.7357 674.345 16.1886 674.013 16.5231C673.681 16.8577 673.231 17.0464 672.761 17.0478H672.754Z" fill="#B86767"/>
<path d="M672.754 23.7254H648.795C648.325 23.7254 647.873 23.5378 647.54 23.2039C647.207 22.8699 647.021 22.417 647.021 21.9447C647.021 21.4725 647.207 21.0196 647.54 20.6856C647.873 20.3517 648.325 20.1641 648.795 20.1641H672.754C673.225 20.1632 673.676 20.3499 674.01 20.6832C674.343 21.0166 674.531 21.4691 674.532 21.9414C674.533 22.4137 674.347 22.8669 674.015 23.2015C673.682 23.5361 673.231 23.7245 672.761 23.7254H672.754Z" fill="#B86767"/>
<path d="M196.539 452.811C199.075 432.348 211.715 412.186 231.165 405.526C223.494 426.589 223.496 449.695 231.17 470.756C234.159 478.868 238.325 487.578 235.513 495.754C233.764 500.841 229.485 504.732 224.702 507.166C219.918 509.6 214.609 510.759 209.367 511.896L208.335 512.752C200.013 493.898 194.002 473.275 196.539 452.811Z" fill="#CEE5D0"/>
<path d="M231.358 405.913C220.031 418.648 212.991 434.639 211.238 451.617C210.796 455.265 210.93 458.96 211.634 462.566C212.434 466.057 214.151 469.269 216.606 471.869C218.847 474.34 221.424 476.606 223.028 479.58C223.826 481.115 224.292 482.801 224.395 484.529C224.498 486.257 224.236 487.987 223.626 489.606C222.21 493.68 219.42 497 216.579 500.152C213.425 503.652 210.093 507.237 208.752 511.877C208.59 512.439 207.73 512.153 207.892 511.592C210.225 503.52 218.035 498.934 221.759 491.664C223.497 488.271 224.227 484.332 222.598 480.751C221.173 477.619 218.517 475.28 216.227 472.798C213.794 470.297 212.009 467.236 211.027 463.884C210.142 460.325 209.867 456.641 210.213 452.99C210.862 444.757 212.797 436.677 215.948 429.047C219.495 420.32 224.504 412.265 230.759 405.232C231.146 404.797 231.743 405.481 231.358 405.913L231.358 405.913Z" fill="white"/>
<path d="M211.482 446.117C208.683 445.435 206.216 443.777 204.523 441.439C202.83 439.101 202.02 436.235 202.239 433.354C202.248 433.236 202.304 433.127 202.392 433.05C202.48 432.972 202.595 432.932 202.713 432.938C202.83 432.944 202.941 432.995 203.021 433.081C203.101 433.167 203.145 433.281 203.143 433.399C202.935 436.082 203.69 438.751 205.271 440.925C206.852 443.099 209.156 444.634 211.766 445.254C212.333 445.389 212.045 446.251 211.482 446.117Z" fill="white"/>
<path d="M215.305 470.767C220.361 467.738 224.093 462.909 225.757 457.243C225.921 456.681 226.781 456.967 226.617 457.528C224.874 463.421 220.98 468.439 215.713 471.579C215.21 471.878 214.806 471.064 215.305 470.767Z" fill="white"/>
<path d="M220.335 421.18C221.364 421.671 222.497 421.897 223.634 421.839C224.771 421.781 225.876 421.441 226.849 420.849C227.347 420.543 227.751 421.357 227.256 421.66C226.178 422.31 224.957 422.684 223.701 422.751C222.445 422.818 221.192 422.575 220.051 422.043C219.94 422.002 219.848 421.92 219.794 421.814C219.741 421.707 219.73 421.584 219.763 421.469C219.801 421.355 219.883 421.261 219.99 421.207C220.097 421.153 220.221 421.143 220.335 421.18Z" fill="white"/>
<path d="M290.453 442.076C290.148 442.276 289.842 442.475 289.536 442.682C285.44 445.385 281.569 448.417 277.962 451.749C277.679 452.002 277.396 452.263 277.121 452.524C268.516 460.643 261.489 470.295 256.396 480.989C254.373 485.246 252.676 489.651 251.32 494.167C249.447 500.403 247.91 507.314 244.202 512.415C243.821 512.951 243.408 513.464 242.964 513.949H209.456C209.38 513.91 209.304 513.88 209.227 513.841L207.889 513.903C207.943 513.665 208.004 513.419 208.058 513.182C208.088 513.044 208.126 512.906 208.157 512.767C208.18 512.675 208.203 512.583 208.218 512.499C208.226 512.468 208.234 512.438 208.241 512.415C208.256 512.33 208.28 512.254 208.295 512.177C208.631 510.804 208.978 509.431 209.334 508.058C209.334 508.05 209.334 508.05 209.342 508.042C211.96 497.554 215.81 487.414 220.809 477.836C220.962 477.552 221.115 477.261 221.283 476.977C223.598 472.737 226.255 468.694 229.226 464.888C230.86 462.81 232.598 460.815 234.432 458.913C239.183 454.007 244.672 449.881 250.7 446.686C262.718 440.32 276.632 437.88 289.475 441.769C289.804 441.869 290.125 441.969 290.453 442.076Z" fill="#CEE5D0"/>
<path d="M290.378 442.503C273.693 445.828 258.476 454.344 246.888 466.84C244.346 469.486 242.236 472.517 240.635 475.823C239.178 479.093 238.622 482.695 239.022 486.254C239.329 489.58 240.027 492.947 239.522 496.29C239.239 497.997 238.599 499.625 237.645 501.067C236.69 502.509 235.442 503.732 233.984 504.656C230.409 507.053 226.189 508.019 222.029 508.82C217.41 509.709 212.599 510.559 208.744 513.453C208.277 513.804 207.762 513.056 208.229 512.706C214.935 507.67 223.922 508.727 231.259 505.172C234.682 503.513 237.628 500.808 238.476 496.965C239.218 493.603 238.501 490.131 238.162 486.766C237.72 483.3 238.132 479.778 239.36 476.508C240.788 473.131 242.779 470.023 245.246 467.317C250.705 461.136 257.098 455.854 264.192 451.665C272.261 446.839 281.094 443.434 290.308 441.597C290.879 441.483 290.945 442.391 290.378 442.503H290.378Z" fill="white"/>
<path d="M250.384 462.596C248.558 460.361 247.583 457.547 247.634 454.658C247.685 451.768 248.758 448.991 250.662 446.822C251.048 446.385 251.744 446.967 251.357 447.405C249.581 449.421 248.582 452.009 248.54 454.699C248.498 457.39 249.416 460.007 251.128 462.079C251.5 462.529 250.753 463.044 250.384 462.596Z" fill="white"/>
<path d="M238.645 484.588C244.499 485.223 250.376 483.622 255.105 480.103C255.574 479.754 256.089 480.501 255.621 480.85C250.693 484.503 244.573 486.157 238.483 485.482C237.903 485.417 238.068 484.523 238.645 484.588Z" fill="white"/>
<path d="M272.416 448.034C272.943 449.047 273.712 449.912 274.654 450.553C275.597 451.193 276.683 451.589 277.816 451.704C278.397 451.762 278.231 452.655 277.654 452.599C276.403 452.465 275.204 452.027 274.161 451.322C273.118 450.616 272.263 449.665 271.671 448.552C271.607 448.452 271.583 448.331 271.604 448.213C271.625 448.096 271.69 447.991 271.786 447.92C271.885 447.852 272.006 447.825 272.124 447.847C272.242 447.868 272.347 447.936 272.416 448.034L272.416 448.034Z" fill="white"/>
<path d="M225.918 158.882H115.06C111.635 158.878 108.35 157.511 105.928 155.08C103.506 152.65 102.143 149.354 102.139 145.917V85.3358C102.143 81.8987 103.506 78.6033 105.928 76.1729C108.35 73.7425 111.635 72.3754 115.06 72.3717H225.918C229.344 72.3755 232.628 73.7425 235.051 76.1729C237.473 78.6033 238.836 81.8986 238.84 85.3358V145.917C238.836 149.354 237.473 152.65 235.051 155.08C232.628 157.511 229.344 158.878 225.918 158.882V158.882Z" fill="#E6E6E6"/>
<path d="M395.166 158.882H284.308C280.883 158.878 277.598 157.511 275.176 155.08C272.754 152.65 271.391 149.354 271.387 145.917V85.3358C271.391 81.8987 272.754 78.6033 275.176 76.1729C277.598 73.7425 280.883 72.3754 284.308 72.3717H395.166C398.592 72.3754 401.876 73.7425 404.299 76.1729C406.721 78.6033 408.084 81.8986 408.088 85.3358V145.917C408.084 149.354 406.721 152.65 404.299 155.08C401.876 157.511 398.592 158.878 395.166 158.882Z" fill="#F7D59C"/>
<path d="M564.414 158.882H453.556C450.131 158.878 446.846 157.511 444.424 155.08C442.002 152.65 440.639 149.354 440.635 145.917V85.3358C440.639 81.8987 442.002 78.6033 444.424 76.1729C446.846 73.7425 450.131 72.3754 453.556 72.3717H564.414C567.84 72.3754 571.124 73.7425 573.547 76.1729C575.969 78.6033 577.332 81.8986 577.335 85.3358V145.917C577.332 149.354 575.969 152.65 573.547 155.08C571.124 157.511 567.84 158.878 564.414 158.882Z" fill="#E6E6E6"/>
<path d="M225.918 293.864H115.06C111.635 293.86 108.35 292.493 105.928 290.062C103.506 287.632 102.143 284.336 102.139 280.899V220.318C102.143 216.881 103.506 213.585 105.928 211.155C108.35 208.725 111.635 207.358 115.06 207.354H225.918C229.344 207.358 232.628 208.725 235.051 211.155C237.473 213.585 238.836 216.881 238.84 220.318V280.899C238.836 284.336 237.473 287.632 235.051 290.062C232.628 292.493 229.344 293.86 225.918 293.864Z" fill="#F2F2F2"/>
<path d="M395.166 293.864H284.308C280.883 293.86 277.598 292.493 275.176 290.062C272.754 287.632 271.391 284.336 271.387 280.899V220.318C271.391 216.881 272.754 213.585 275.176 211.155C277.598 208.725 280.883 207.358 284.308 207.354H395.166C398.592 207.358 401.876 208.725 404.299 211.155C406.721 213.585 408.084 216.881 408.088 220.318V280.899C408.084 284.336 406.721 287.632 404.299 290.062C401.876 292.493 398.592 293.86 395.166 293.864Z" fill="#E6E6E6"/>
<path d="M402.994 305.012C413.929 305.012 422.793 296.117 422.793 285.146C422.793 274.174 413.929 265.28 402.994 265.28C392.059 265.28 383.194 274.174 383.194 285.146C383.194 296.117 392.059 305.012 402.994 305.012Z" fill="#F7D59C"/>
<path d="M411.216 283.477H404.484V276.723C404.484 276.514 404.443 276.308 404.363 276.115C404.284 275.922 404.167 275.747 404.02 275.599C403.873 275.451 403.698 275.334 403.506 275.255C403.314 275.175 403.108 275.134 402.9 275.134V275.134C402.692 275.134 402.486 275.175 402.294 275.255C402.101 275.334 401.927 275.451 401.78 275.599C401.633 275.747 401.516 275.922 401.436 276.115C401.357 276.308 401.316 276.514 401.316 276.723V283.477H394.584C394.376 283.477 394.17 283.519 393.978 283.598C393.785 283.678 393.611 283.795 393.464 283.943C393.317 284.091 393.2 284.266 393.12 284.459C393.041 284.651 393 284.858 393 285.067V285.067C393 285.275 393.041 285.482 393.12 285.675C393.2 285.868 393.317 286.043 393.464 286.191C393.611 286.338 393.785 286.455 393.978 286.535C394.17 286.615 394.376 286.656 394.584 286.656H401.316V293.411C401.316 293.619 401.357 293.826 401.436 294.019C401.516 294.212 401.633 294.387 401.78 294.534C401.927 294.682 402.101 294.799 402.294 294.879C402.486 294.959 402.692 295 402.9 295V295C403.32 295 403.723 294.833 404.02 294.534C404.317 294.236 404.484 293.832 404.484 293.411V286.656H411.216C411.424 286.656 411.63 286.615 411.822 286.535C412.014 286.455 412.189 286.338 412.336 286.191C412.483 286.043 412.6 285.868 412.679 285.675C412.759 285.482 412.8 285.275 412.8 285.067V285.067C412.8 284.858 412.759 284.651 412.679 284.458C412.6 284.266 412.483 284.09 412.336 283.943C412.189 283.795 412.014 283.678 411.822 283.598C411.63 283.518 411.424 283.477 411.216 283.477V283.477L411.216 283.477Z" fill="white"/>
<path d="M574.846 173.513C585.781 173.513 594.645 164.619 594.645 153.647C594.645 142.675 585.781 133.781 574.846 133.781C563.911 133.781 555.046 142.675 555.046 153.647C555.046 164.619 563.911 173.513 574.846 173.513Z" fill="#F7D59C"/>
<path d="M583.068 151.979H576.336V145.224C576.336 145.016 576.295 144.809 576.215 144.616C576.136 144.423 576.019 144.248 575.872 144.101C575.725 143.953 575.55 143.836 575.358 143.756C575.166 143.676 574.96 143.635 574.752 143.635V143.635C574.544 143.635 574.338 143.676 574.146 143.756C573.953 143.836 573.779 143.953 573.632 144.101C573.485 144.248 573.368 144.423 573.288 144.616C573.209 144.809 573.168 145.016 573.168 145.224V151.979H566.436C566.228 151.979 566.022 152.02 565.83 152.1C565.637 152.18 565.463 152.297 565.316 152.444C565.169 152.592 565.052 152.767 564.972 152.96C564.893 153.153 564.852 153.36 564.852 153.568V153.568C564.852 153.777 564.893 153.984 564.972 154.176C565.052 154.369 565.169 154.545 565.316 154.692C565.463 154.84 565.637 154.957 565.83 155.037C566.022 155.117 566.228 155.158 566.436 155.158H573.168V161.912C573.168 162.121 573.209 162.328 573.288 162.52C573.368 162.713 573.485 162.888 573.632 163.036C573.779 163.184 573.953 163.301 574.146 163.381C574.338 163.46 574.544 163.501 574.752 163.501V163.501C575.172 163.501 575.575 163.334 575.872 163.036C576.169 162.738 576.336 162.334 576.336 161.912V155.158H583.068C583.276 155.158 583.482 155.116 583.674 155.037C583.866 154.957 584.041 154.84 584.188 154.692C584.335 154.544 584.451 154.369 584.531 154.176C584.611 153.984 584.652 153.777 584.652 153.568V153.568C584.652 153.359 584.611 153.153 584.531 152.96C584.451 152.767 584.335 152.592 584.188 152.444C584.041 152.297 583.866 152.18 583.674 152.1C583.482 152.02 583.276 151.979 583.068 151.979V151.979L583.068 151.979Z" fill="white"/>
<path d="M233.746 171.771C244.681 171.771 253.546 162.877 253.546 151.905C253.546 140.934 244.681 132.039 233.746 132.039C222.811 132.039 213.946 140.934 213.946 151.905C213.946 162.877 222.811 171.771 233.746 171.771Z" fill="#F7D59C"/>
<path d="M241.968 150.237H235.236V143.483C235.236 143.274 235.195 143.067 235.115 142.874C235.036 142.682 234.919 142.506 234.772 142.359C234.625 142.211 234.45 142.094 234.258 142.014C234.066 141.934 233.86 141.893 233.652 141.893V141.893C233.444 141.893 233.238 141.934 233.046 142.014C232.853 142.094 232.679 142.211 232.532 142.359C232.385 142.506 232.268 142.682 232.188 142.874C232.109 143.067 232.068 143.274 232.068 143.483V143.483V150.237H225.336C225.128 150.237 224.922 150.278 224.73 150.358C224.538 150.438 224.363 150.555 224.216 150.703C224.069 150.85 223.952 151.025 223.872 151.218C223.793 151.411 223.752 151.618 223.752 151.827V151.827C223.752 152.248 223.919 152.652 224.216 152.95C224.513 153.248 224.916 153.416 225.336 153.416H232.068V160.17C232.068 160.379 232.109 160.586 232.188 160.779C232.268 160.971 232.385 161.147 232.532 161.294C232.679 161.442 232.853 161.559 233.046 161.639C233.238 161.719 233.444 161.76 233.652 161.76V161.76C233.86 161.76 234.066 161.719 234.258 161.639C234.45 161.559 234.625 161.442 234.772 161.294C234.919 161.147 235.036 160.971 235.115 160.779C235.195 160.586 235.236 160.379 235.236 160.17V153.416H241.968C242.176 153.416 242.382 153.375 242.574 153.295C242.766 153.215 242.941 153.098 243.088 152.95C243.235 152.803 243.352 152.628 243.431 152.435C243.511 152.242 243.552 152.035 243.552 151.826V151.826C243.552 151.405 243.385 151.001 243.088 150.703C242.791 150.405 242.388 150.237 241.968 150.237V150.237V150.237Z" fill="white"/>
<path d="M381.981 124.462C382.343 125.558 382.46 126.721 382.325 127.867C382.19 129.014 381.806 130.117 381.2 131.099C380.594 132.081 379.781 132.917 378.819 133.55C377.856 134.182 376.766 134.595 375.627 134.759L366.472 197.461L351.454 190.102L366.559 127.513C366.411 125.575 366.977 123.649 368.149 122.102C369.321 120.554 371.019 119.491 372.92 119.115C374.82 118.739 376.793 119.075 378.463 120.061C380.133 121.046 381.385 122.612 381.981 124.462L381.981 124.462Z" fill="#72351B"/>
<path d="M272.633 325.28C273.301 324.34 273.757 323.265 273.966 322.13C274.175 320.994 274.134 319.826 273.845 318.709C273.556 317.591 273.027 316.551 272.294 315.66C271.56 314.77 270.642 314.052 269.602 313.557L275.779 246.862L262.842 253.515L258.803 317.785C258.089 319.592 258.061 321.599 258.724 323.426C259.387 325.253 260.695 326.772 262.4 327.696C264.104 328.62 266.088 328.884 267.974 328.439C269.86 327.994 271.517 326.87 272.633 325.28H272.633Z" fill="#72351B"/>
<path d="M281.471 291.547L336.985 289.405L340.188 231.562H276.133L281.471 291.547Z" fill="#72351B"/>
<path d="M271.167 495.824L280.654 495.823L285.166 459.11H271.166L271.167 495.824Z" fill="#72351B"/>
<path d="M268.814 491.129L283.81 490.23V496.677L298.067 506.556C298.772 507.044 299.302 507.745 299.581 508.557C299.86 509.369 299.873 510.249 299.619 511.068C299.364 511.888 298.855 512.605 298.165 513.114C297.476 513.623 296.643 513.897 295.787 513.897H277.934L274.856 507.52L273.655 513.897H266.923L268.814 491.129Z" fill="#2F2E41"/>
<path d="M313.361 495.824L322.848 495.823L327.36 459.11H313.36L313.361 495.824Z" fill="#72351B"/>
<path d="M280.7 277.969C280.7 277.969 264.09 291.424 273.095 339.476C271.724 339.64 273.276 342.351 273.276 342.351L274.575 381.505L275.58 385.992L272.241 393.233L273.617 401.1L269.375 472.503L285.048 474.536L300.046 400.389L302.902 392.052L305.767 384.745L304.222 376.953L305.489 364.859L314.135 324.078L316.252 394.807L313.298 401.559L314.942 408.971L311.28 412.906L309.833 479.082L326.545 479.866L340.372 413.156L339.3 404.643L341.139 398.349V383.646L344.29 376.707L351.159 338.871C351.159 338.871 353.231 309.298 338.112 274.499L280.7 277.969Z" fill="#2F2E41"/>
<path d="M287.47 183.489C287.47 183.489 266.49 187.652 262.875 205.604C259.261 223.556 256.935 264.18 256.935 264.18L257.726 269.838L278.02 274.559L290.973 217.638L287.47 183.489Z" fill="#B86767"/>
<path d="M335.348 189.549C335.348 189.549 337.475 186.559 349.384 186.098C349.874 186.079 349.267 185.103 349.267 185.103L354.994 157.015L374.081 167.618L370.859 197.064L339.496 232.857L335.348 189.549Z" fill="#B86767"/>
<path d="M323.451 273.282C314.466 273.283 300.94 272.288 280.579 269.255C279.267 269.056 278.053 268.442 277.114 267.502C276.175 266.562 275.56 265.346 275.359 264.03C274.694 263.326 274.262 262.433 274.12 261.473C273.979 260.514 274.135 259.533 274.568 258.666L274.587 258.629L274.126 258.083C273.412 257.242 272.993 256.19 272.933 255.087C272.872 253.984 273.173 252.892 273.79 251.977L267.484 206.715C266.844 202.22 267.824 197.644 270.247 193.809C272.67 189.974 276.377 187.133 280.701 185.796L283.029 185.069L291.832 173.515L292.006 173.517L320.266 173.895L329.437 185.58L344.262 189.088L344.301 189.314L347.743 209.269C349.533 219.647 345.428 223.73 340.187 232.857L341.725 258.49L342.423 259.762C342.81 260.466 342.94 261.284 342.79 262.074C342.64 262.864 342.219 263.577 341.6 264.088C342.068 265.429 342.1 266.884 341.692 268.244L341.329 269.447C341.33 269.481 341.233 269.97 340.45 270.566C339.039 271.642 334.987 273.282 323.451 273.282Z" fill="#B86767"/>
<path d="M311.008 491.129L326.004 490.23V496.677L340.261 506.556C340.966 507.044 341.496 507.745 341.775 508.557C342.054 509.369 342.067 510.249 341.813 511.068C341.558 511.888 341.049 512.605 340.36 513.114C339.67 513.623 338.837 513.897 337.981 513.897H320.128L317.05 507.52L315.849 513.897H309.117L311.008 491.129Z" fill="#2F2E41"/>
<path d="M326.758 148.339C328.718 136.22 320.516 124.802 308.438 122.835C296.36 120.869 284.979 129.098 283.019 141.217C281.059 153.336 289.262 164.754 301.34 166.721C313.418 168.687 324.798 160.457 326.758 148.339Z" fill="#72351B"/>
<path d="M317.844 123.056C309.724 117.453 302.573 116.599 296.699 118.189C295.938 117.007 294.87 116.056 293.61 115.437C289.029 103.854 275.087 96.8985 263.122 100.28C251.08 103.683 242.771 117.067 245.037 129.412C246.441 137.064 251.241 143.691 253.171 151.226C256.909 165.814 247.792 182.525 233.531 187.227C247.034 189.948 261.897 181.672 266.741 168.736C269.094 162.453 269.236 155.593 269.535 148.888C269.614 144.259 270.179 139.652 271.221 135.143C271.739 133.12 272.469 131.158 273.401 129.291C275.431 125.186 278.803 121.904 282.954 119.992C282.582 121.145 282.489 122.371 282.683 123.567C282.876 124.764 283.35 125.897 284.066 126.874C280.9 130.854 279.176 135.158 279.176 137.736C272.598 149.8 282.005 160.162 294.028 166.762C298.824 169.409 304.361 170.377 309.766 169.515L310.269 167.361L310.951 169.301L313.226 175.808C315.851 177.082 318.452 178.478 321.031 179.997C320.052 175.38 319.259 170.772 318.713 166.266C317.958 160.134 320.591 151.004 322.49 145.452C323.667 142.03 324.271 138.436 324.278 134.817V134.658L326.127 140.617L332.858 137.736C331.606 130.529 332.858 122.347 317.844 123.056Z" fill="#2F2E41"/>
<path d="M594.688 515H102.312C102.039 514.999 101.777 514.889 101.585 514.695C101.392 514.5 101.284 514.237 101.284 513.963C101.284 513.689 101.392 513.426 101.585 513.232C101.777 513.037 102.039 512.928 102.312 512.926H594.688C594.961 512.928 595.223 513.037 595.416 513.232C595.608 513.426 595.716 513.689 595.716 513.963C595.716 514.237 595.608 514.5 595.416 514.695C595.223 514.889 594.961 514.999 594.688 515V515Z" fill="#F7D59C"/>
<path d="M231.482 307.622C242.418 307.622 251.282 298.728 251.282 287.756C251.282 276.785 242.418 267.89 231.482 267.89C220.547 267.89 211.683 276.785 211.683 287.756C211.683 298.728 220.547 307.622 231.482 307.622Z" fill="#E6E6E6"/>
<path d="M529.389 276.339H459.943C457.797 276.336 455.74 275.48 454.222 273.957C452.705 272.435 451.851 270.37 451.849 268.217V230.266C451.851 228.113 452.705 226.049 454.222 224.526C455.74 223.004 457.797 222.147 459.943 222.145H529.389C531.535 222.147 533.593 223.004 535.11 224.526C536.628 226.049 537.481 228.113 537.484 230.266V268.217C537.481 270.37 536.628 272.435 535.11 273.957C533.593 275.48 531.535 276.336 529.389 276.339V276.339Z" fill="#F2F2F2"/>
<path d="M530.413 260.923C536.22 260.923 540.927 256.2 540.927 250.373C540.927 244.547 536.22 239.823 530.413 239.823C524.605 239.823 519.898 244.547 519.898 250.373C519.898 256.2 524.605 260.923 530.413 260.923Z" fill="#F7D59C"/>
<path d="M534.779 249.487H531.204V245.9C531.204 245.79 531.182 245.68 531.14 245.577C531.097 245.475 531.036 245.382 530.957 245.304C530.879 245.225 530.787 245.163 530.684 245.121C530.582 245.078 530.473 245.056 530.363 245.056C530.139 245.056 529.925 245.145 529.768 245.304C529.61 245.462 529.521 245.677 529.521 245.9V249.487H525.946C525.723 249.487 525.509 249.576 525.351 249.735C525.194 249.893 525.105 250.108 525.105 250.331V250.331C525.105 250.442 525.127 250.552 525.169 250.654C525.211 250.757 525.273 250.85 525.351 250.928C525.43 251.007 525.522 251.069 525.624 251.111C525.726 251.154 525.836 251.176 525.946 251.176H529.521V254.763C529.521 254.873 529.543 254.983 529.585 255.086C529.628 255.188 529.69 255.281 529.768 255.359C529.846 255.438 529.939 255.5 530.041 255.542C530.143 255.585 530.252 255.607 530.363 255.607V255.607C530.586 255.607 530.8 255.518 530.957 255.359C531.115 255.201 531.204 254.986 531.204 254.763V251.176H534.779C535.002 251.176 535.216 251.087 535.374 250.928C535.531 250.77 535.62 250.555 535.62 250.332V250.332C535.62 250.221 535.598 250.111 535.556 250.009C535.514 249.906 535.452 249.813 535.374 249.735C535.296 249.656 535.203 249.594 535.101 249.552C534.999 249.509 534.889 249.487 534.779 249.487L534.779 249.487Z" fill="white"/>
<path d="M557.682 265.569H500.452C498.023 265.566 495.694 264.597 493.977 262.874C492.259 261.15 491.293 258.814 491.29 256.377V222.1C491.291 221.651 491.47 221.222 491.786 220.905C492.102 220.588 492.531 220.41 492.978 220.41C493.425 220.41 493.854 220.588 494.17 220.905C494.487 221.222 494.665 221.651 494.666 222.1V231.28L561.142 237.343C562.47 237.366 563.735 237.912 564.667 238.862C565.598 239.812 566.12 241.091 566.122 242.423C566.122 242.528 566.112 242.632 566.093 242.735L562.743 260.661C562.697 261.977 562.144 263.224 561.2 264.14C560.256 265.055 558.995 265.567 557.682 265.569V265.569ZM494.666 234.681V256.376C494.668 257.916 495.278 259.391 496.363 260.479C497.448 261.568 498.918 262.18 500.452 262.182H557.682C558.13 262.181 558.559 262.003 558.875 261.685C559.192 261.368 559.37 260.937 559.37 260.488C559.37 260.383 559.38 260.279 559.399 260.176L562.741 242.292C562.708 241.867 562.516 241.47 562.204 241.181C561.892 240.891 561.483 240.73 561.058 240.729C561.007 240.729 560.956 240.727 560.905 240.722L494.666 234.681Z" fill="#F7D59C"/>
<path d="M485.245 281.376C486.799 281.376 488.058 280.112 488.058 278.553C488.058 276.994 486.799 275.73 485.245 275.73C483.691 275.73 482.432 276.994 482.432 278.553C482.432 280.112 483.691 281.376 485.245 281.376Z" fill="#F7D59C"/>
<path d="M555.432 281.376C556.985 281.376 558.245 280.112 558.245 278.553C558.245 276.994 556.985 275.73 555.432 275.73C553.878 275.73 552.619 276.994 552.619 278.553C552.619 280.112 553.878 281.376 555.432 281.376Z" fill="#F7D59C"/>
<path d="M558.245 275.731H482.994C482.547 275.731 482.117 275.552 481.801 275.235C481.484 274.917 481.306 274.486 481.306 274.037C481.306 273.588 481.484 273.157 481.801 272.84C482.117 272.522 482.547 272.344 482.994 272.344H558.245C558.693 272.344 559.122 272.522 559.439 272.84C559.755 273.157 559.933 273.588 559.933 274.037C559.933 274.486 559.755 274.917 559.439 275.235C559.122 275.552 558.693 275.731 558.245 275.731V275.731Z" fill="#F7D59C"/>
<path d="M497.479 223.229H482.851C482.404 223.228 481.975 223.049 481.66 222.732C481.344 222.414 481.167 221.984 481.167 221.535C481.167 221.087 481.344 220.657 481.66 220.339C481.975 220.022 482.404 219.843 482.851 219.842H497.479C497.926 219.843 498.355 220.022 498.671 220.339C498.986 220.657 499.164 221.087 499.164 221.535C499.164 221.984 498.986 222.414 498.671 222.732C498.355 223.049 497.926 223.228 497.479 223.229V223.229Z" fill="#F7D59C"/>
<path d="M509.215 274.868C508.812 274.869 508.421 274.723 508.116 274.459L497.021 264.893C496.852 264.748 496.714 264.571 496.613 264.373C496.513 264.174 496.452 263.958 496.435 263.736C496.419 263.514 496.445 263.291 496.514 263.079C496.584 262.867 496.694 262.671 496.838 262.502C496.983 262.334 497.159 262.195 497.357 262.095C497.556 261.994 497.771 261.934 497.993 261.917C498.214 261.901 498.437 261.928 498.647 261.998C498.858 262.068 499.053 262.178 499.221 262.324L510.316 271.89C510.577 272.116 510.764 272.416 510.85 272.751C510.936 273.086 510.918 273.439 510.798 273.764C510.678 274.088 510.462 274.368 510.179 274.565C509.896 274.763 509.56 274.868 509.215 274.868V274.868Z" fill="#F7D59C"/>
<path d="M511.553 264.529C511.331 264.529 511.112 264.485 510.907 264.4C510.702 264.315 510.516 264.19 510.359 264.033C510.202 263.875 510.078 263.689 509.993 263.483C509.908 263.278 509.865 263.058 509.865 262.835V235.649C509.865 235.2 510.043 234.769 510.359 234.451C510.676 234.134 511.105 233.955 511.553 233.955C512 233.955 512.43 234.134 512.746 234.451C513.063 234.769 513.241 235.2 513.241 235.649V262.835C513.241 263.057 513.197 263.278 513.112 263.483C513.027 263.689 512.903 263.875 512.746 264.033C512.59 264.19 512.404 264.315 512.199 264.4C511.994 264.485 511.775 264.529 511.553 264.529H511.553Z" fill="#F7D59C"/>
<path d="M547.209 264.529C546.987 264.529 546.768 264.485 546.563 264.4C546.358 264.315 546.172 264.19 546.015 264.033C545.859 263.876 545.734 263.689 545.65 263.483C545.565 263.278 545.521 263.058 545.521 262.835V237.907C545.522 237.459 545.7 237.029 546.017 236.712C546.333 236.395 546.762 236.217 547.209 236.217C547.656 236.217 548.085 236.395 548.401 236.712C548.718 237.029 548.896 237.459 548.897 237.907V262.835C548.897 263.058 548.853 263.278 548.768 263.483C548.684 263.689 548.559 263.876 548.403 264.033C548.246 264.19 548.06 264.315 547.855 264.4C547.65 264.485 547.431 264.529 547.209 264.529H547.209Z" fill="#F7D59C"/>
</g>
<defs>
<clipPath id="clip0">
<rect width="697" height="515" fill="white"/>
</clipPath>
</defs>
</svg>
