<svg width="250" height="250" viewBox="0 0 250 250" fill="none" xmlns="http://www.w3.org/2000/svg">
<g clip-path="url(#clip0)">
<path d="M143.215 70.0933V223.479C143.215 233.844 134.811 242.249 124.441 242.249H18.769C8.4043 242.249 0 233.845 0 223.479V70.0933C0 59.7231 8.4043 51.3242 18.769 51.3242H124.44C134.811 51.3242 143.215 59.7236 143.215 70.0933Z" fill="#CF8BFC"/>
<path d="M143.215 70.0933V209.397H107.177C96.8125 209.397 88.4082 200.998 88.4082 190.628V51.3242H124.44C134.811 51.3242 143.215 59.7236 143.215 70.0933Z" fill="#9966CC"/>
<path d="M102.699 177.874C98.4768 182.102 93.6057 185.288 88.408 187.427C72.4724 194.009 53.4631 190.823 40.5149 177.874C23.344 160.703 23.344 132.866 40.5149 115.694C50.4763 105.738 64.0222 101.551 76.9915 103.144C71.4871 104.461 66.2693 107.265 61.97 111.559C49.5833 123.951 49.5833 144.032 61.97 156.419C69.1897 163.639 79.0134 166.651 88.4084 165.457C95.1433 164.609 101.658 161.597 106.83 156.419C111.13 152.125 113.933 146.901 115.245 141.397C116.838 154.372 112.656 167.917 102.699 177.874Z" fill="#F9D366"/>
<path d="M102.7 177.874C98.477 182.102 93.606 185.288 88.4082 187.427V165.457C95.1431 164.609 101.658 161.597 106.83 156.419C111.129 152.125 113.933 146.901 115.245 141.397C116.838 154.372 112.656 167.917 102.7 177.874Z" fill="#DD8833"/>
<path d="M125.558 7.75098H231.23C241.597 7.75098 250.001 16.1548 250.001 26.522V179.908C250.001 190.275 241.597 198.679 231.23 198.679H125.558C115.191 198.679 106.787 190.275 106.787 179.908V26.522C106.787 16.1548 115.191 7.75098 125.558 7.75098Z" fill="#F9D366"/>
<path d="M148.33 103.214L133.299 77.1797H163.361L178.393 51.1445L193.424 77.1797H223.487L208.456 103.214L223.487 129.25H193.424L178.393 155.284L163.361 129.25H133.299L148.33 103.214Z" fill="#CF8BFC"/>
<path d="M212.879 103.214L226.805 79.0942C227.489 77.9097 227.489 76.4492 226.805 75.2646C226.12 74.0801 224.857 73.3501 223.488 73.3501H195.636L181.71 49.23C181.026 48.0449 179.763 47.3154 178.394 47.3154C177.025 47.3154 175.762 48.0449 175.078 49.23L161.152 73.3501H133.3C131.932 73.3501 130.668 74.0801 129.984 75.2646C129.3 76.4492 129.3 77.9097 129.984 79.0942L143.91 103.214L129.984 127.334C129.3 128.519 129.3 129.979 129.984 131.164C130.668 132.349 131.932 133.079 133.3 133.079H161.152L175.078 157.199C175.762 158.383 177.025 159.113 178.394 159.113C179.762 159.113 181.027 158.383 181.71 157.199L195.636 133.079H223.488C224.856 133.079 226.12 132.349 226.805 131.164C227.489 129.979 227.489 128.519 226.805 127.334L212.879 103.214ZM216.856 81.0088L208.457 95.5557L200.058 81.0088H216.856ZM204.036 103.214L191.215 125.42H165.575L152.754 103.214L165.575 81.0088H191.215L204.036 103.214ZM178.394 58.8032L186.793 73.3501H169.996L178.394 58.8032ZM139.933 81.0088H156.73L148.331 95.5557L139.933 81.0088ZM139.933 125.42L148.332 110.873L156.731 125.42H139.933ZM178.394 147.626L169.995 133.079H186.793L178.394 147.626ZM200.058 125.42L208.457 110.873L216.856 125.42H200.058Z" fill="#9966CC"/>
<path d="M150.567 31.2207H145.206V25.8594C145.206 23.7446 143.491 22.0298 141.376 22.0298C139.261 22.0298 137.546 23.7441 137.546 25.8594V31.2207H132.185C130.07 31.2207 128.355 32.9351 128.355 35.0503C128.355 37.1655 130.07 38.8799 132.185 38.8799H137.546V44.2412C137.546 46.356 139.261 48.0708 141.376 48.0708C143.491 48.0708 145.206 46.3564 145.206 44.2412V38.8799H150.567C152.682 38.8799 154.396 37.1655 154.396 35.0503C154.396 32.9351 152.682 31.2207 150.567 31.2207Z" fill="#CF8BFC"/>
<path d="M224.602 167.549H219.241V162.188C219.241 160.073 217.526 158.358 215.411 158.358C213.296 158.358 211.582 160.073 211.582 162.188V167.549H206.22C204.105 167.549 202.391 169.264 202.391 171.379C202.391 173.494 204.105 175.208 206.22 175.208H211.582V180.57C211.582 182.685 213.296 184.399 215.411 184.399C217.526 184.399 219.241 182.685 219.241 180.57V175.208H224.602C226.717 175.208 228.432 173.494 228.432 171.379C228.432 169.264 226.717 167.549 224.602 167.549Z" fill="#CF8BFC"/>
<path d="M43.7798 74.792H38.4185V69.4307C38.4185 67.3159 36.7041 65.6011 34.5889 65.6011C32.4741 65.6011 30.7593 67.3154 30.7593 69.4307V74.792H25.3979C23.2832 74.792 21.5684 76.5063 21.5684 78.6216C21.5684 80.7368 23.2827 82.4512 25.3979 82.4512H30.7593V87.8125C30.7593 89.9272 32.4736 91.6421 34.5889 91.6421C36.7036 91.6421 38.4185 89.9277 38.4185 87.8125V82.4512H43.7798C45.8945 82.4512 47.6094 80.7368 47.6094 78.6216C47.6094 76.5063 45.895 74.792 43.7798 74.792Z" fill="#F9D366"/>
<path d="M117.817 211.121H112.458V205.759C112.458 203.646 110.742 201.93 108.628 201.93C106.509 201.93 104.798 203.645 104.798 205.759V211.121H99.4351C97.3203 211.121 95.6055 212.835 95.6055 214.95C95.6055 217.065 97.3198 218.78 99.4351 218.78H104.798V224.141C104.798 226.255 106.509 227.971 108.628 227.971C110.742 227.971 112.458 226.255 112.458 224.141V218.78H117.817C119.932 218.78 121.646 217.065 121.646 214.95C121.646 212.835 119.932 211.121 117.817 211.121Z" fill="#F9D366"/>
<path d="M112.456 205.759V209.4H107.176C106.37 209.4 105.578 209.349 104.797 209.247V205.759C104.797 203.646 106.507 201.93 108.626 201.93C110.74 201.93 112.456 203.646 112.456 205.759Z" fill="#DDAC33"/>
</g>
<defs>
<clipPath id="clip0">
<rect width="250" height="250" fill="white"/>
</clipPath>
</defs>
</svg>
