<svg width="795" height="396" fill="none" xmlns="http://www.w3.org/2000/svg"><path fill-rule="evenodd" clip-rule="evenodd" d="M130.644 42.84c6.417 11.96 5.654 42.299-2.639 44.437-3.307.852-10.352-1.236-17.523-5.558l4.501 31.842H88.406l9.149-42.644c-5.102-5.99-8.555-13.329-7.978-21.553 1.663-23.698 34.65-18.485 41.067-6.524Z" fill="#804C2D"/><mask id="a" style="mask-type:alpha" maskUnits="userSpaceOnUse" x="73" y="23" width="59" height="59"><path fill-rule="evenodd" clip-rule="evenodd" d="M129.84 36.104c.479-1.38 3.742-5.653-2.069-9.725-1.044-.731-2.769-.002-4.264-.464-1.125-.347-1.504-1.916-2.793-2.19-1.337-.284-2.794 1.003-4.306.89-.926-.07-2.355-1.513-3.319-1.59-1.721-.14-3.285 1.486-4.966 1.59-.974.06-2.105-1.507-3.072-1.59-2.354-.202-4.498.895-6.572 1.228-1.912.307-2.801 4.225-4.21 5.15-4.419 2.906-7.881 3.719-11.467 6.7-4.263 3.546-5.079 6.183-6.845 8.546-1.766 2.362-2.857 10.685-1.827 16.02.608 3.146 2.19 11.74 5.728 15.066 4.84 4.554 14.688 5.903 15.563 5.296 4.048-2.814 13.125-18.378 19.562-23.878 4.733-4.045 11.892-12.504 14.857-21.05Z" fill="#fff"/></mask><g mask="url(#a)" fill-rule="evenodd" clip-rule="evenodd"><path d="M129.84 36.104c.479-1.38 3.742-5.653-2.069-9.725-1.044-.731-2.769-.002-4.264-.464-1.125-.347-1.504-1.916-2.793-2.19-1.337-.284-2.794 1.003-4.306.89-.926-.07-2.355-1.513-3.319-1.59-1.721-.14-3.285 1.486-4.966 1.59-.974.06-2.105-1.507-3.072-1.59-2.354-.202-4.498.895-6.572 1.228-1.912.307-2.801 4.225-4.21 5.15-4.419 2.906-7.881 3.719-11.467 6.7-4.263 3.546-5.079 6.183-6.845 8.546-1.766 2.362-2.857 10.685-1.827 16.02.608 3.146 2.19 11.74 5.728 15.066 4.84 4.554 14.688 5.903 15.563 5.296 4.048-2.814 13.125-18.378 19.562-23.878 4.733-4.045 11.892-12.504 14.857-21.05Z" fill="#FFA434"/><path d="M110.686 21.365c-3.611 15.237-6.411 25.906-8.399 32.008-2.017 6.19-3.66 11.432-5.072 15.723 2.907-6.44 6.647-14.704 10.029-23.18 2.425-6.078 5.004-13.86 7.739-23.348h3.291c-5.185 14.775-9.085 25.093-11.7 30.954-4.208 9.431-7.23 16.592-9.639 21.398 4.034-5.914 10.239-15.561 16.855-28.535 2.507-4.918 5.459-12.448 8.856-22.59l3.063 1.31c-5.142 12.837-9.116 21.789-11.919 26.856-9.14 16.516-17.867 26.48-20.917 29.309-.527.488-.704.603-.578.354-.042-.008-.073-.033-.093-.077-.214.325-.427.61-.641.854-3.076 3.518 4.795-16.094 10.596-36.662 1.777-6.298 3.529-14.308 5.256-24.03l3.273-.344Z" fill="#000" fill-opacity=".2"/></g><path fill-rule="evenodd" clip-rule="evenodd" d="M40.373 251.978h85.547l11.209 137.309H9.786l30.587-137.309Z" fill="#C5CFD6"/><path fill-rule="evenodd" clip-rule="evenodd" d="M40.373 251.978h26.31l15.748 137.309H9.786l30.587-137.309Z" fill="#000" fill-opacity=".1"/><path fill-rule="evenodd" clip-rule="evenodd" d="M269.078 383.751c-21.832-26.66-36.604-46.425-44.316-59.294-13.205-22.035-24.013-41.642-27.424-49.132-8.133-17.86 18.724-26.223 24.802-17.893 9.2 12.609 28.848 52.285 58.943 119.029l-12.005 7.29Z" fill="#804C2D"/><path fill-rule="evenodd" clip-rule="evenodd" d="m224.34 375.999-40.63-102.277c-8.691-18.644 33.276-30.9 39.662-22.223 14.5 19.699 48.962 97.408 53.281 103.277l-52.313 21.223Z" fill="#7D3336"/><path fill-rule="evenodd" clip-rule="evenodd" d="M116.126 355.488c7.915-11.545 36.704-50.387 52.384-66.458 4.506-4.618 8.903-9.05 13.061-13.181 12.36-12.278 36.974 8.358 24.636 19.541-30.725 27.85-75.554 65.446-79.3 68.799-5.25 4.698-15.755-1.445-10.781-8.701Z" fill="#804C2D"/><path fill-rule="evenodd" clip-rule="evenodd" d="M117.977 350.273c-2.726 2.244-4.5 4.078-5.32 5.499-.999 1.73-2.168 4.42-3.507 8.07l54.088 31.228c4.089-3.835 4.726-6.812 1.911-8.931a345.3 345.3 0 0 1-6.967-5.361l-18.67-25.722a1.107 1.107 0 0 0-1.546-.246l-.025.019-3.879 2.987c-3.559-.311-6.215-.972-7.967-1.984-1.424-.822-3.059-2.532-4.904-5.131a2.214 2.214 0 0 0-3.214-.428ZM259.687 379.766c-1.239 3.307-1.858 5.782-1.858 7.424 0 1.996.332 4.91.998 8.741h62.455c1.623-5.365.687-8.262-2.81-8.69a345.523 345.523 0 0 1-8.715-1.159l-29.029-12.941a1.107 1.107 0 0 0-1.462.561l-.012.028-1.866 4.527c-3.237 1.51-5.868 2.265-7.892 2.265-1.644 0-3.915-.664-6.812-1.992a2.214 2.214 0 0 0-2.997 1.236Z" fill="#020000"/><path fill-rule="evenodd" clip-rule="evenodd" d="M169.089 278.831c-33.77-5.502-56.39-9.264-67.859-11.286-32.692-5.765-42.225-23.357-36.589-61.741h60.235c7.971 2.302 41.277 16.539 99.918 42.71 10.551 5.237 8.586 20.68 6.658 25.768-.079.207-17.866 30.685-53.36 91.433l-49.274-31.39 40.364-51.795c1.066-2.147 1.035-3.38-.093-3.699Z" fill="#B86767"/><path fill-rule="evenodd" clip-rule="evenodd" d="m37.81 192.204 23.14.091c-14.288 46.124-22.001 70.598-23.14 73.42-2.562 6.35 2.86 16.021 5.179 21.218-7.552 3.379-6.748-9.136-16.274-4.703-8.696 4.045-15.31 11.375-25.357 5.176-1.235-.762-2.589-3.631.682-5.874 8.147-5.586 19.888-15.364 21.474-18.582 2.164-4.389 6.929-27.971 14.296-70.746Zm139.233-4.316 31.368 30.601c9.127 3.893 16.605 8.192 22.435 12.897 1.311 1.581 2.738 4.611-3.43 3.255-6.168-1.356-12.717-2.504-13.876-.498-1.16 2.005 2.256 5.079.114 7.705-1.428 1.75-6.232-3.817-14.411-16.701l-32.619-19.232 10.419-18.027Z" fill="#804C2D"/><path fill-rule="evenodd" clip-rule="evenodd" d="m103.571 95.104 9.576-1.642c16.485 41.182 45.267 78.601 86.346 112.257l-31.041 37.712c-41.074-47.922-66.392-97.364-64.881-148.327Z" fill="#BB9C66"/><path fill-rule="evenodd" clip-rule="evenodd" d="M61.83 215.436h85.265c-19.754-48.031-29.631-88.832-29.631-122.404L91.744 89.2c-20.213 32.509-25.922 72.535-29.913 126.236Z" fill="#C7D1D9"/><path fill-rule="evenodd" clip-rule="evenodd" d="M92.889 89.2c2.009.069 5.069.193 9.179.373l6.215 17.761c.658 21.655 4.497 65.295 11.518 130.919H63.908c.147 4.533.388 9.107.725 13.725h-41.56C29.29 181.844 51.994 127.584 91.18 89.2l.02.018.01-.018h1.68Z" fill="#F7D59C"/><path fill-rule="evenodd" clip-rule="evenodd" d="m79.548 238.69-15.626-.001c-.684-20.327.542-39.803 3.678-58.428 1.59 28.253 5.574 47.729 11.948 58.429Z" fill="#000" fill-opacity=".1"/><path fill-rule="evenodd" clip-rule="evenodd" d="m76.349 204.362 27.56-12.812v12.812h-27.56Z" fill="#fff" fill-opacity=".2"/><path fill-rule="evenodd" clip-rule="evenodd" d="M655.696 75.231c-13.287 0-18.12-15.908-25.669-24.638-5.401-6.246-14.62-4.384-17.348-13.128C605.817 15.476 624.182 0 648.139 0c23.958 0 40.111 13.573 43.599 33.977 3.488 20.404-12.084 41.255-36.042 41.255Z" fill="#2C1B18"/><path fill-rule="evenodd" clip-rule="evenodd" d="M619.488 31.547c-6.737 12.558-5.937 44.412 2.771 46.657 3.472.895 10.869-1.297 18.398-5.835l-4.726 33.432h27.904l-9.606-44.774c5.357-6.289 8.983-13.995 8.377-22.63-1.746-24.881-36.381-19.408-43.118-6.85Z" fill="#57331F"/><path fill-rule="evenodd" clip-rule="evenodd" d="M617.814 31.618c5.336 1.002 16.083 6.096 24.652 13.404a7.265 7.265 0 0 1 3.41-.841c3.953 0 7.158 3.123 7.158 6.976a6.83 6.83 0 0 1-1.435 4.19c1.696 2.796 2.854 5.733 3.233 8.752 5.879 0 27.333-22.244 5.96-43.171-21.373-20.928-52.259 8.947-42.978 10.69Z" fill="#2C1B18"/><path fill-rule="evenodd" clip-rule="evenodd" d="M714.267 251.132h-89.819l-11.769 144.169h133.703l-32.115-144.169Z" fill="#C5CFD6"/><path fill-rule="evenodd" clip-rule="evenodd" d="M714.267 251.132h-27.624l-16.534 144.169h76.273l-32.115-144.169Z" fill="#000" fill-opacity=".1"/><path fill-rule="evenodd" clip-rule="evenodd" d="m522.047 226.434-.335-.195c-9.611-5.385-25.308 1.927-25.297 10.056.033 24.607 22.49 140.579 23.662 147.911 1.173 7.331 13.733 9.267 14.464.024 1.164-14.709 3.326-65.625 1.163-89.193a1229.335 1229.335 0 0 0-2.802-27.26c11.782 21.278 30.006 51.747 54.672 91.405l13.39-6.117c-10.515-34.643-19.137-59.099-25.865-73.37-11.522-24.435-22.325-45.361-26.872-52.732-7.152-11.594-19.602-7.548-26.18-.529Z" fill="#57331F"/><path fill-rule="evenodd" clip-rule="evenodd" d="M600.006 333.826 554.05 224.958c-11.009-17.71-41.876 3.604-38.122 13.876 8.524 23.32 51.874 98.816 54.413 105.764l29.665-10.772Z" fill="#7D3336"/><path fill-rule="evenodd" clip-rule="evenodd" d="M602.559 346.199c2.862 2.357 4.724 4.282 5.586 5.775 1.049 1.815 2.276 4.64 3.682 8.472l-56.789 32.788c-4.293-4.027-4.962-7.153-2.007-9.377a362.709 362.709 0 0 0 7.316-5.629l19.601-27.007a1.163 1.163 0 0 1 1.624-.258l.026.02 4.073 3.136c3.737-.326 6.525-1.02 8.365-2.083 1.495-.863 3.211-2.659 5.149-5.388a2.326 2.326 0 0 1 3.374-.449ZM537.482 378.329c1.301 3.472 1.951 6.07 1.951 7.794 0 2.096-.349 5.156-1.048 9.178H472.81c-1.704-5.633-.72-8.675 2.951-9.124 3.672-.449 6.722-.855 9.15-1.217l30.479-13.587a1.162 1.162 0 0 1 1.535.588l.013.03 1.959 4.753c3.399 1.586 6.161 2.378 8.286 2.378 1.726 0 4.11-.697 7.152-2.091a2.325 2.325 0 0 1 3.147 1.298Z" fill="#000"/><path fill-rule="evenodd" clip-rule="evenodd" d="M493.194 244.66c0 30.888 14.669 102.938 14.678 109.739l31.561.024c-4.62-64.289-6.258-96.78-4.914-97.472 2.015-1.039 82.606 8.046 106.777 8.046 34.854 0 49.272-21.979 50.442-62.696h-69.045c-14.058 1.504-87.386 16.295-114.619 21.379-11.659 2.177-14.88 12.471-14.88 20.98Z" fill="#B86767"/><path fill-rule="evenodd" clip-rule="evenodd" d="m736.49 175.56-23.824 4.727c23.959 44.652 36.808 68.318 38.547 70.997 3.911 6.028.262 17.076-1.087 22.894 8.458 1.968 5.123-10.762 15.826-8.104 9.77 2.426 18.054 8.652 27.163.255 1.12-1.032 1.94-4.259-1.878-5.914-9.514-4.124-23.57-11.845-25.849-14.842-3.108-4.088-12.74-27.425-28.898-70.013Zm-235.643-35.745.432.633c3.591 5.288 6.951 10.835 5.511 12.679-1.496 1.918-5.832-.199-7.545 2.92-1.142 2.078 6.166 4.565 21.926 7.46l31.551 24.19 13.451-17.233-42.127-18.501c-7.38-7.354-14.506-12.943-21.379-16.768-2.055-.654-5.566-.852-1.82 4.62Z" fill="#57331F"/><path fill-rule="evenodd" clip-rule="evenodd" d="m647.912 86.422-10.053-1.724c-21.897 21.242-30.833 72.274-45.426 79.029-13.797 6.387-33.356.207-56.604-8.138l-7.12 15.907c21.124 22.853 66.124 42.161 84.365 31.138 29.163-17.622 35.896-80.563 34.838-116.212Z" fill="#95AB97"/><path fill-rule="evenodd" clip-rule="evenodd" d="M691.738 212.765h-88.955c-4.065 0-3.299-5.869-2.711-8.831 6.781-34.183 33.254-71.03 33.254-119.688l25.659-4.023c21.223 34.133 28.562 76.159 32.753 132.542Z" fill="#C7D1D9"/><path fill-rule="evenodd" clip-rule="evenodd" d="M650.48 80.223c-23.034 78.522-29.385 130.841-19.051 156.958h80.074c-1.267-19.111-5.329-39.322-10.894-59.028 18.135 32.713 33.378 56.264 45.729 70.654l18.646-3.652c-12.011-74.489-46.792-129.466-104.344-164.932h-10.16Z" fill="#CEE5D0"/><path fill-rule="evenodd" clip-rule="evenodd" d="M342.587 386h-4.274l28.632-190.373h8.548L342.587 386ZM467.719 384.373H472l-27.825-188.746h-8.563l32.107 188.746Z" fill="#EA9800"/><path fill-rule="evenodd" clip-rule="evenodd" d="M317.365 386H313l29.242-190.373h8.728L317.365 386ZM452.606 386h4.364l-29.241-190.373H419L452.606 386Z" fill="#FFB700"/><path fill-rule="evenodd" clip-rule="evenodd" d="M329.612 211.898h121.821V194H329.612v17.898Z" fill="#FFB700"/></svg>