<svg width="32" height="32" fill="none" xmlns="http://www.w3.org/2000/svg"><g clip-path="url(#a)"><path d="M29.432 21.004c-1.959 0-3.883-.306-5.705-.909-.894-.304-1.992-.025-2.537.535l-3.598 2.716c-4.173-2.227-6.743-4.797-8.94-8.938l2.636-3.504c.685-.684.93-1.683.636-2.62a18.196 18.196 0 0 1-.912-5.716A2.57 2.57 0 0 0 8.444 0H2.568A2.57 2.57 0 0 0 0 2.568C0 18.797 13.203 32 29.432 32A2.57 2.57 0 0 0 32 29.432v-5.86a2.57 2.57 0 0 0-2.568-2.568Z" fill="#B86767"/></g><defs><clipPath id="a"><path fill="#fff" d="M0 0h32v32H0z"/></clipPath></defs></svg>