<svg width="870" height="567" fill="none" xmlns="http://www.w3.org/2000/svg"><path opacity=".747" fill-rule="evenodd" clip-rule="evenodd" d="m666.223 271.923-1.26 2.566c-20.728 41.98-48.236 87.415-93.272 113.723-45.136 26.356-107.804 33.586-165.393 37.769l-3.519.252c-58.647 4.197-111.527 5.564-145.939-9.658-34.386-15.167-50.305-46.922-49.83-85.86.475-38.938 17.448-85.107 59.187-124.544 41.714-39.491 108.195-72.254 175.876-96.456 67.68-24.202 136.431-39.855 182.116-31.398 45.609 8.563 68.025 41.228 72.329 76.845 4.28 35.56-9.526 74.126-30.295 116.761Z" fill="#CC857D" fill-opacity=".5"/><path fill-rule="evenodd" clip-rule="evenodd" d="M714.412 145.585c-17.992 0-24.535-20.946-34.756-32.44-7.314-8.224-19.795-5.771-23.489-17.285-9.291-28.951 15.574-49.328 48.012-49.328s54.31 17.871 59.032 44.736c4.723 26.864-16.362 54.317-48.799 54.317Z" fill="#000"/><path fill-rule="evenodd" clip-rule="evenodd" d="M665.386 88.069c-9.122 16.534-8.038 58.474 3.751 61.43 4.702 1.178 14.717-1.709 24.911-7.683l-6.398 44.018h37.781l-13.006-58.951c7.253-8.28 12.162-18.426 11.342-29.795-2.364-32.76-49.259-25.553-58.381-9.02Z" fill="#57331F"/><path fill-rule="evenodd" clip-rule="evenodd" d="M663.119 88.162c7.226 1.319 21.777 8.026 33.379 17.648a10.071 10.071 0 0 1 4.617-1.108c5.352 0 9.692 4.113 9.692 9.185a8.832 8.832 0 0 1-1.943 5.517c2.297 3.681 3.864 7.548 4.378 11.524 7.959 0 37.008-29.287 8.07-56.841-28.939-27.554-70.759 11.78-58.193 14.075Z" fill="#000"/><path fill-rule="evenodd" clip-rule="evenodd" d="M793.715 377.182H672.102L656.166 567h181.032l-43.483-189.818Z" fill="#C5CFD6"/><path fill-rule="evenodd" clip-rule="evenodd" d="M793.715 377.182h-37.403L733.925 567h103.273l-43.483-189.818Z" fill="#000" fill-opacity=".1"/><path fill-rule="evenodd" clip-rule="evenodd" d="m533.452 344.664-.453-.258c-13.014-7.089-34.267 2.538-34.252 13.241.045 32.398 30.45 185.092 32.038 194.744 1.587 9.653 18.593 12.202 19.584.032 1.575-19.366 4.503-86.404 1.574-117.434a1575.583 1575.583 0 0 0-3.794-35.892c15.953 28.016 40.628 68.132 74.025 120.347l18.13-8.054c-14.237-45.612-25.91-77.812-35.021-96.602-15.6-32.172-30.227-59.723-36.384-69.428-9.684-15.266-26.541-9.938-35.447-.696Z" fill="#57331F"/><path fill-rule="evenodd" clip-rule="evenodd" d="m639.008 486.06-62.224-143.34c-14.907-23.317-56.701 4.745-51.617 18.269 11.541 30.704 70.236 130.106 73.674 139.253l40.167-14.182Z" fill="#7D3336"/><path fill-rule="evenodd" clip-rule="evenodd" d="M642.463 502.351c3.876 3.103 6.398 5.637 7.565 7.602 1.419 2.391 3.081 6.109 4.985 11.156l-76.892 43.169c-5.812-5.302-6.718-9.417-2.717-12.346 4.001-2.929 7.303-5.4 9.905-7.411l26.54-35.558a1.605 1.605 0 0 1 2.199-.34l.036.026 5.514 4.129c5.059-.429 8.834-1.343 11.326-2.742 2.024-1.137 4.348-3.501 6.971-7.094 1.007-1.379 2.972-1.703 4.39-.724.061.042.121.086.178.133ZM554.35 544.653c1.762 4.572 2.642 7.993 2.642 10.262 0 2.761-.473 6.789-1.419 12.085h-88.787c-2.307-7.417-.975-11.422 3.996-12.013 4.971-.592 9.101-1.126 12.389-1.602l41.267-17.89c.794-.345 1.725.002 2.079.775l.017.039 2.653 6.258c4.602 2.088 8.341 3.131 11.218 3.131 2.338 0 5.566-.918 9.685-2.754 1.581-.704 3.45-.029 4.174 1.508.031.066.06.133.086.201Z" fill="#000"/><path fill-rule="evenodd" clip-rule="evenodd" d="M494.386 368.661c0 40.668 19.861 135.531 19.874 144.486l42.732.032c-6.255-84.646-8.472-127.424-6.654-128.336 2.729-1.368 111.848 10.594 144.575 10.594 47.191 0 66.714-28.939 68.298-82.548h-93.485c-19.035 1.981-118.32 21.455-155.193 28.149-15.786 2.866-20.147 16.419-20.147 27.623Z" fill="#B86767"/><path fill-rule="evenodd" clip-rule="evenodd" d="m808.91 255.408-34.47.126c26.254 82.714 40.19 126.022 41.809 129.923 3.643 8.779-4.066 22.148-7.362 29.332 10.736 4.672 9.592-12.629 23.135-6.502 12.362 5.593 21.766 15.726 36.048 7.157 1.756-1.054 3.68-5.021-.969-8.121-11.583-7.723-28.274-21.24-30.529-25.689-3.076-6.067-12.296-48.142-27.662-126.226Zm-218.062 38.286-44.593 42.303c-12.975 5.382-23.606 11.325-31.894 17.829-1.863 2.186-3.892 6.374 4.876 4.5 8.769-1.874 18.079-3.463 19.727-.69 1.648 2.773-3.208 7.023-.162 10.652 2.03 2.419 8.859-5.276 20.486-23.087l46.372-26.586-14.812-24.921Z" fill="#57331F"/><path fill-rule="evenodd" clip-rule="evenodd" d="m703.873 160.319-13.613-2.27c-21.443 73.71-131.618 123.954-138.382 151.508-2.48 10.105 4.998 15.214 1.135 18.292l17.693 12.595c2.997-3.4 9.391 2.818 22.743-1.531 13.352-4.35 110.424-91.315 110.424-178.594Z" fill="#95AB97"/><path fill-rule="evenodd" clip-rule="evenodd" d="m728.082 144.93-42.399 2.883c-3.47.236-6.085 3.162-5.843 6.536l1.133 15.682c1.606 97.659-56.445 122.555-43.52 161.715 10.671 32.328 112.807 67.08 130.481 35.391 7.155-12.829 10.401-28.345 10.768-45.214 4.516 12.961 8.089 24.119 10.718 33.473 4.533 16.134 22.109 18.699 22.109 24.914l23.156-6.215c-1.571-8.444 9.345-12.556 6.418-31.421-13.114-84.525-48.349-145.795-105.705-183.81l-.595-8.253c-.243-3.373-3.252-5.917-6.721-5.681Z" fill="#CEE5D0"/><path fill-rule="evenodd" clip-rule="evenodd" d="M189.441 28.912c10.058 18.226 8.863 64.458-4.136 67.716-5.184 1.299-16.227-1.883-27.467-8.47l7.054 48.523h-41.657l14.34-64.984c-7.997-9.126-13.41-20.31-12.505-32.843 2.606-36.112 54.313-28.168 64.371-9.942Z" fill="#915B3C"/><path fill-rule="evenodd" clip-rule="evenodd" d="M193.374 37.096c-.413-2.363-1.421-4.986-2.235-7.221-1.049-2.882-2.637-5.48-4.384-7.928-3.289-4.61-7.235-8.772-11.591-12.227-7.958-6.311-18.088-9.951-28.05-8.769-5.029.597-9.912 2.462-14.068 5.566-3.754 2.805-7.366 6.934-12.227 7.231-5.29.323-10.139-4.217-14.382-7.02-4.783-3.16-9.872-5.464-15.463-6.359C81.608-1.13 72.81 1.946 66.355 9.417c-6.869 7.95-11.862 19.607-7.35 30.14.838 1.958 1.916 3.609 3.464 4.977 1.42 1.255 3.588 2.59 4.164 4.594.611 2.13-1.215 4.88-1.923 6.802-1.015 2.755-1.848 5.646-1.552 8.64.487 4.917 3.665 9.611 7.021 12.843 3.416 3.289 7.62 5.174 12.109 6.044 2.998.58 6.062.9 9.109.683 1.512-.109 2.847-.517 4.312-.842 1.425-.316 2.222.052 3.431.812 5.617 3.53 11.656 4.896 18.142 4.371 5.474-.443 11.783-1.733 16.248-5.379 4.959-4.05 4.86-9.633 3.693-15.6 1.236.596 4.657.965 2.613-1.409-.81-.94-2.34-1.323-3.378-1.876-1.21-.644-2.438-1.476-3.378-2.527-3.792-4.241.038-12.873 4.805-14.295 7.083-2.114 8.669 7.624 13.725 10.143 2.907 1.448 5.948-.531 8.126-2.552 2.917-2.708 4.905-6.295 6.622-9.946 1.414-3.006 2.73-6.054 4.171-9.045.673-1.397 3.003-5.346 1.833-6.925 5.073-.984 10.723 1.066 15.092 3.753 1.806 1.111 3.183 2.336 4.146 4.298.206.42.656 1.67 1.22 1.72 1.05.096.657-1.152.554-1.745Z" fill="#251604"/><path fill-rule="evenodd" clip-rule="evenodd" d="M47.945 347.609h134.091l17.571 209.24H0l47.945-209.24Z" fill="#C5CFD6"/><path fill-rule="evenodd" clip-rule="evenodd" d="M47.945 347.609h41.24l24.684 209.24H0l47.945-209.24Z" fill="#000" fill-opacity=".1"/><path fill-rule="evenodd" clip-rule="evenodd" d="M336.885 340.018c8.813 22.188 24.2 95.088 42.688 205.2l-21.133 5.994c-22.239-47.852-38.322-89.52-44.778-111.504-11.054-37.642-19.463-70.765-21.588-83.135-5.068-29.497 38.987-31.214 44.811-16.555Zm-66.672 61.857c-64.337 9.002-155.547 18.298-163.352 19.341-10.94 1.463-19.207-15.25-6.383-20.178 20.404-7.841 91.86-32.379 126.323-39.321a1911.798 1911.798 0 0 1 28.526-5.522c26.823-4.979 40.72 42.066 14.886 45.68Z" fill="#915B3C"/><path fill-rule="evenodd" clip-rule="evenodd" d="M174.547 276.737c106.777 26.451 161.339 43.403 163.688 50.855.027.083.05.166.072.249.055.065.106.132.156.199 21.161 28.293 33.834 166.42 37.994 176.762l-40.549 5.881c-15.511-55.918-65.137-94.872-63.819-161.844-.356-1.964-.446-3.827-.299-5.589l-110.369-54.622v-11.891h13.126Z" fill="#7D3336"/><path fill-rule="evenodd" clip-rule="evenodd" d="M180.412 276.737c15.47 4.32 95.867 37.098 137.581 54.531 27.607 11.538 18.906 53.131 3.272 63.958-.085.663-.367 1.115-.869 1.318-84.102 33.888-150.635 16.107-172.861 21.788l-10.281-31.527 33.335-11.117c-10.098-1.965-19.397-3.719-27.354-5.076-51.4-8.765-66.39-35.514-57.527-93.875h94.704Z" fill="#B86767"/><path fill-rule="evenodd" clip-rule="evenodd" d="M107.454 396.027c-5.51.512-9.422 1.317-11.735 2.414-2.813 1.334-6.69 3.736-11.63 7.206l42.915 85.542c8.675-1.362 12.112-4.58 10.312-9.655-1.8-5.075-3.252-9.312-4.355-12.71l-1.715-48.404c-.033-.931-.836-1.66-1.794-1.628l-.05.002-7.659.468c-4.352-3.425-7.223-6.523-8.614-9.295-1.13-2.252-1.754-5.806-1.874-10.661-.046-1.864-1.637-3.338-3.554-3.293a2.92 2.92 0 0 0-.247.014ZM348.319 542.34c-1.942 5.04-2.913 8.81-2.913 11.312 0 3.043.522 7.483 1.565 13.321h97.897c2.544-8.176 1.075-12.59-4.406-13.242-5.481-.652-10.034-1.241-13.66-1.766l-45.501-19.721c-.876-.379-1.902.003-2.292.854l-.02.044-2.925 6.898c-5.074 2.301-9.197 3.452-12.369 3.452-2.578 0-6.137-1.012-10.679-3.036-1.742-.777-3.803-.033-4.602 1.662a3.611 3.611 0 0 0-.095.222Z" fill="#000"/><path fill-rule="evenodd" clip-rule="evenodd" d="M339.429 177.867c7.52-1.505 25.876-14.777 29.038-12.082 4.68 3.986.507 16.228-4.408 22.317-9.188 11.381-16.795 15.273-35.596 20.369-9.831 2.665-20.459 8.006-31.886 16.024l-1.507-25.818 26.464-14.134c3.713-13.736 8.152-20.647 13.316-20.733 3.967-1.795-2.942 15.562 4.579 14.057Zm-45.548-58.834c-4.859 8.385-9.582 17.416-7.107 20 2.476 2.583 8.649-1.026 11.602 3.266 1.969 2.861-8.577 7.381-31.638 13.56l-43.776 38.966-22.248-23.214 60.246-32.079c10.019-11.566 19.89-20.548 29.613-26.948 2.971-1.206 8.167-1.935 3.308 6.449Z" fill="#784931"/><mask id="a" style="mask-type:alpha" maskUnits="userSpaceOnUse" x="163" y="147" width="100" height="53"><path fill-rule="evenodd" clip-rule="evenodd" d="M173.325 158.196c20.878 2.995 49.368 2.995 82.005-10.739l7.533 27.043c-23.671 16.586-55.076 28.373-80.113 23.813-19.731-3.592-26.064-28.458-9.425-40.117Z" fill="#fff"/></mask><g mask="url(#a)"><path fill-rule="evenodd" clip-rule="evenodd" d="M171.374 164.465c21.102-.217 49.242-4.55 79.267-23.078l11.792 25.564c-20.711 19.982-49.832 36.399-75.295 35.704-20.066-.548-30.322-24.144-15.764-38.19Z" fill="#BB9C66"/></g><mask id="b" style="mask-type:alpha" maskUnits="userSpaceOnUse" x="59" y="99" width="272" height="245"><path fill-rule="evenodd" clip-rule="evenodd" d="M172.779 99.558c2.657 33.189 16.032 69.767 27.008 105.903 22.402 5.433 59.97-.972 112.703-19.215 13.08 26.307 19.126 45.062 18.139 56.265-45.242 22.976-84.018 33.217-115.963 33.891 1.028 18.42-1.279 35.957-9.03 51.98-15.932 32.936-109.226 2.434-140.594 8.437-19.644-62.02 18.337-87.225 18.368-126.91.034-43.458 35.927-110.351 41.208-110.351h48.161Z" fill="#fff"/></mask><g mask="url(#b)"><path fill-rule="evenodd" clip-rule="evenodd" d="M172.779 99.558c2.657 33.189 16.032 69.767 27.008 105.903 22.402 5.433 59.97-.972 112.703-19.215 13.08 26.307 19.126 45.062 18.139 56.265-45.242 22.976-84.018 33.217-115.963 33.891 1.028 18.42-1.279 35.957-9.03 51.98-15.932 32.936-109.226 2.434-140.594 8.437-19.644-62.02 18.337-87.225 18.368-126.91.034-43.458 35.927-110.351 41.208-110.351h48.161Z" fill="#F7D59C"/></g></svg>