<svg width="100" height="100" fill="none" xmlns="http://www.w3.org/2000/svg"><path d="M50 0C22.39 0 0 22.39 0 50s22.39 50 50 50 50-22.39 50-50S77.61 0 50 0Zm25.084 38.256v6.77a23.57 23.57 0 0 1-9.22-1.858 23.556 23.556 0 0 1-5.236-3.054l.048 20.839c-.02 4.692-1.877 9.1-5.236 12.422a17.82 17.82 0 0 1-9.955 4.978c-.883.13-1.78.198-2.689.198-4.02 0-7.837-1.303-10.959-3.705a18.182 18.182 0 0 1-1.684-1.471c-3.641-3.6-5.52-8.477-5.203-13.609a17.49 17.49 0 0 1 4.412-10.55c3.45-3.864 8.275-6.009 13.434-6.009.908 0 1.806.068 2.689.2V52.872a8.477 8.477 0 0 0-2.661-.428c-4.714 0-8.527 3.845-8.457 8.563.045 3.018 1.694 5.656 4.125 7.11a8.403 8.403 0 0 0 3.86 1.184c1.1.06 2.155-.092 3.133-.415 3.367-1.113 5.797-4.276 5.797-8.007l.011-13.954V21.449h9.324c.009.924.102 1.825.277 2.699a14.42 14.42 0 0 0 5.47 8.693 14.388 14.388 0 0 0 8.693 2.906c.002 0 .03 0 .027-.002v2.511Z" fill="#F7D59C"/></svg>