<svg width="100" height="100" fill="none" xmlns="http://www.w3.org/2000/svg"><path d="M50 0C22.39 0 0 22.39 0 50s22.39 50 50 50 50-22.39 50-50S77.61 0 50 0Zm22.83 38.985c.022.492.032.986.032 1.483 0 15.165-11.543 32.652-32.653 32.653-6.481 0-12.512-1.9-17.59-5.155.897.106 1.811.158 2.736.158a23.027 23.027 0 0 0 14.254-4.912c-5.023-.093-9.26-3.411-10.721-7.971a11.421 11.421 0 0 0 5.183-.197c-5.251-1.051-9.207-5.692-9.207-11.25 0-.052 0-.098.002-.146a11.398 11.398 0 0 0 5.198 1.435 11.466 11.466 0 0 1-5.108-9.553c0-2.103.569-4.073 1.555-5.768 5.66 6.944 14.117 11.51 23.655 11.99a11.468 11.468 0 0 1-.298-2.616c0-6.336 5.14-11.476 11.478-11.476 3.3 0 6.283 1.396 8.377 3.627A23.016 23.016 0 0 0 77.01 28.5a11.521 11.521 0 0 1-5.047 6.348 22.888 22.888 0 0 0 6.59-1.808 23.322 23.322 0 0 1-5.724 5.944Z" fill="#F7D59C"/></svg>