<svg width="432" height="491" fill="none" xmlns="http://www.w3.org/2000/svg"><path opacity=".747" fill-rule="evenodd" clip-rule="evenodd" d="m195.923 31.074 2.566 1.26c41.98 20.728 87.415 48.236 113.723 93.272 26.356 45.136 33.586 107.804 37.769 165.393l.252 3.519c4.197 58.647 5.564 111.527-9.658 145.939-15.167 34.386-46.922 50.305-85.86 49.83-38.938-.475-85.107-17.447-124.544-59.187-39.492-41.714-72.254-108.195-96.456-175.875C9.513 187.544-6.14 118.793 2.317 73.108 10.88 27.499 43.545 5.083 79.162.779c35.56-4.28 74.126 9.526 116.761 30.295Z" fill="#CEE5D0" fill-opacity=".5"/><path fill-rule="evenodd" clip-rule="evenodd" d="M253.202 92.507c97.688-4.941 141.77 65.811 144.621 97.413 1.98 21.937-10.62 47.222-10.62 66.824 0 10.006 11.909 31.487 6.365 46.07-12.34 32.459-38.468 68.483-71.764 68.483-33.295 0-76.627 9.472-113.417-44.715-3.452-5.085-47.113-33.982-51.355-61.44-10.565-68.397 26.466-169.108 96.17-172.635Z" fill="#694D3D"/><path fill-rule="evenodd" clip-rule="evenodd" d="M248.597 48.475c3.493-4.11 9.39-5.755 14.63-5.437 7.612.465 14.231 5.298 21.804 5.656 7.94.378 15.603-2.453 23.563-1.14 4.879.808 9.713 3.135 12.838 7.06 10.828-3.189 22.584 1.035 29.48 10.257 8.508-1.36 17.763 4.436 20.366 12.868 10.809.358 21.011 9.289 22.217 20.48 4.318 1.174 8.069 4.237 10.37 8.287 2.674 4.694 3.119 10.078 2.636 15.369 5.085 2.671 7.669 8.413 8.346 14.486 4.647 3.567 6.664 9.978 5.717 16.031 3.557 2.062 5.395 6.862 5.375 11.145-.019 3.998-1.05 7.539.4 11.397 1.292 3.436 1.756 6.299 1.045 9.899l-.072.35c-.126.587-.232 1.15-.326 1.705a10.425 10.425 0 0 1 2.387 3.223c2.229 4.628 1.897 9.906.197 14.599.745 2.989.65 6.146-.45 9.019 2.06 3.053 3.144 6.798 2.825 10.683a17.598 17.598 0 0 1-5.216 11.125c.78 5.941-1.569 12.361-5.815 16.545.602 3.557.082 7.285-1.809 10.657-1.349 2.403-3.164 4.193-5.258 5.441a17.932 17.932 0 0 1-.834 6.047c-.891 2.822-2.4 5.421-4.387 7.515 1.186 7.795-3.352 16.445-11.338 18.632a7.91 7.91 0 0 1-1.924.282c-.793 7.497-2.526 14.891-5.208 21.913-6.819 17.88-19.219 33.513-35.39 43.266-7.998 4.82-16.982 8.121-26.154 9.5-6.6.995-12.948.75-19.573.073-8.315-.855-16.667-2.135-24.749-4.336l-1.3-.355c-3.351-.923-6.883-1.989-9.786-3.848-3.248-2.082-4.936-5.291-5.684-9.07-.417-2.103.878-4.365 3.117-4.409h.144c.49.011.975-.008 1.467-.04l.37-.026h.019c.026-.007.039-.007.064-.007.219-.033.432-.099.645-.132 2.462-.427 4.616-.004 6.928.788l.29.1c3.893 1.379 7.754 2.659 11.775 3.607 4.158.975 8.366 1.75 12.588 2.36l.419.053.128.02.065.007c.013 0 .026 0 .039.006l1.243.159c.981.12 1.96.226 2.939.332 1.805.186 3.61.331 5.414.438 31.149 1.803 57.31-23.424 65.205-53.669 2.862-10.946 3.048-21.866 2.204-32.792a7.97 7.97 0 0 1-.425-2.645c0-.504.026-1.001.058-1.505-1.05-10.568-2.874-21.143-4.016-31.751-1.333-12.391-2.075-24.855-1.804-37.326.135-6.159.773-12.259 1.611-18.358l.303-2.191a20.559 20.559 0 0 1-10.11-5.281c-6.083 3.613-13.955 3.933-19.959.118-6.729 4.34-16.13 4.734-22.905.49-4.096 3.008-9.256 4.305-14.321 3.164-2.278-.514-4.543-1.624-6.483-3.162a17.985 17.985 0 0 1-4.184.274l-.288.166c-3.216 1.744-6.779 2.891-10.446 2.763-2.714-.094-5.511-.645-8.1-1.687-2.765 1.717-5.792 2.889-9.03 3.31-4.729.613-9.832-.463-13.765-3.222-7.186 4.211-16.026 4.859-23.784 2.03-1.588 2.768-3.787 5.154-6.361 6.994a15.02 15.02 0 0 1 .449 5.252c-.26 2.867-.959 5.437-2.102 7.745 1.205 2.578 1.567 5.743.893 8.92-.961 4.531-3.523 8.473-6.841 11.542-.293 7.231-4.148 14.011-10.421 17.777-.318.19-.634.345-.949.485-.277.39-.608.733-.987 1.022-3.989 3.792-10.303 3.49-15.304 1.348-.096.005-.192.013-.29.015-1.786.047-3.004-.67-3.726-1.724-.728.041-1.45.12-2.178.259-2.656.51-5.569 1.492-7.973 2.765-6.239 3.301-9.126 9.136-9.99 16.15-.94 7.651 1.199 15.448 6.955 20.626 2.796 2.519 6.373 4.097 10.008 4.76 4.016.736 8.308-1.074 11.273 2.473.593.703.999 1.684.677 2.632-1.006 2.957-2.662 4.091-5.253 4.502 3.744 4.568 7.586 8.983 11.839 13.087 4.602 4.449 9.359 8.758 13.51 13.664 4.388 5.191 8.352 10.694 11.104 16.993 1.573 3.62 2.836 7.352 4.196 11.058l.243.646c1.517 3.938 3.535 7.733 1.201 11.845-.929 1.618-3.03 3.182-4.963 2.924-5.446-.716-7.27-4.502-8.946-9.435-1.263-3.726-2.23-7.558-3.589-11.251a43.202 43.202 0 0 0-.823-2.033c-3.14.9-6.592.186-9.394-1.656a22.21 22.21 0 0 1-9.516 1.988c-4.29-.077-8.209-1.303-11.579-3.514-.268-.073-.537-.143-.804-.222-5.126 2.019-11.129 1.658-15.77-1.615a17.064 17.064 0 0 1-6.228-8.098c-3.883-.076-7.725-1.493-10.507-4.326-2.555-2.602-4.048-5.958-4.491-9.446-3.343-.681-6.476-2.343-8.934-5.143-2.052-2.339-3.299-5.317-3.721-8.409-4.07-1.195-7.741-3.929-9.746-7.741-1.866-3.549-2.136-7.399-1.223-10.901l-.237-.35c-4.193-2.257-7.393-5.953-7.721-11.232a13.454 13.454 0 0 1 .46-4.429c-.143-1.591-.051-3.18.354-4.719-5.639-5.642-7.682-14.705-4.621-22.196-5.51-6.1-6.967-15.746-2.926-22.986-2.771-3.448-4.196-7.843-3.957-12.537.296-5.861 2.906-10.979 6.032-15.72-2.32-2.639-3.557-6.318-3.466-9.872.128-5.151 2.79-9.587 6.122-13.26-2.907-9.069.341-18.908 7.476-24.65-1.444-2.446-1.979-5.476-1.508-8.545.825-5.364 4.737-9.017 8.958-11.908-.883-2.956-.651-6.146.755-9.202 1.875-4.077 5.413-6.663 9.106-8.851.954-9.043 10.777-16.767 19.013-12.1-2.043-6.729 3.842-13.995 10.61-14.764 3.312-10.33 14.739-16.84 25.012-14.274 5.253-7.386 15.03-10.23 23.331-7.061 9.127-7.194 20.45-8.261 31.13-4.608ZM183.586 251.29c6.412-.358 11.22 5.026 14.598 9.952 3.171 4.621-4.963 9.5-7.335 4.409-.851-1.817-1.817-3.74-3.113-5.331-.217.314-.409.638-.601.971l-.192.335c-.141.246-.29.498-.412.756.013.047-.181.657-.187.683-.528 1.651-1.682 2.712-3.254 3.282-2.031.729-3.952-.842-4.602-2.685-1.037-2.944 1.372-5.51 3.879-6.677-2.462-.411-4.885.451-6.664 2.4-.244.272-.657.054-.669-.285-.207-4.621 4.491-7.584 8.552-7.81Z" fill="#000"/><path fill-rule="evenodd" clip-rule="evenodd" d="m347.667 310.825.447-.106c3.568-.864 7.001-2.038 10.325.232 3.167 2.162 3.606 6.161 1.139 9.078-2.536 2.999-5.904 2.831-9.46 2.872l-.222.003c-2.952.042-5.954-.003-8.894-.272a82.92 82.92 0 0 1-8.211-1.176l-1.602-.323c-1.638-.34-3.25-.782-4.094-2.409-1.471-2.836 9.464-5.061 10.793-5.45 3.224-.944 6.509-1.688 9.779-2.449ZM353.732 276.634c-1.743 1.856-4.046 3.124-6.631 3.913-6.496 1.983-14.785.926-20.091-1.094-1.101-.419-2.13-1.274-2.721-2.342-.539-.976-.722-2.123-.311-3.294.117-.332.259-.659.402-.98.389-.875 1.183-1.555 2.114-1.944.968-.404 2.068-.487 2.951-.202l.364.118c3.362 1.088 8.876 2.889 13.444 2.54 2.741-.209 5.152-1.203 6.399-3.778.657-1.358.475-2.701-.107-3.93-.879-1.854-2.64-3.467-4.123-4.578-2.09-1.567-4.32-2.193-6.626-2.853a57.71 57.71 0 0 1-2.638-.803 1.58 1.58 0 0 1-.741-.548 1.829 1.829 0 0 1-.354-.862c-.04-.318.01-.635.153-.907a1.38 1.38 0 0 1 .664-.622c4.512-2.075 10.347-.704 14.752 2.561 2.202 1.631 4.038 3.727 5.169 6.069 1.051 2.174 1.497 4.559 1.085 6.991-.46 2.722-1.583 4.873-3.154 6.545ZM279.782 230.331c1.267-.573 2.309 2.111 2.57 2.843l.54 1.519c.88 2.448 1.891 4.938 3.742 6.755 1.549 1.521 4.032 2.811 5.829 1.031 1.705-1.689.874-3.591 1.125-5.663.454-3.747 5.431-7.492 8.424-3.582 6.761 8.835-3.699 21.122-13.334 18.966-4.9-1.096-8.845-5.13-10.465-9.926l-.084-.253c-.97-3.038-1.951-10.058 1.653-11.69ZM367.028 236.484l-.047-.112c-3.22-7.519 8.267-10.75 9.241-3.999l.062.456c.947 7.494-1.049 17.573-9.992 18.32-10.038.84-14.218-10.657-13.321-19.094.161-1.51 1.946-1.719 2.497-.347l.118.3c1.62 4.24 3.159 12.394 8.87 12.385 3.816-.006 3.634-5.292 2.572-7.909ZM374.311 214.718c5.77-.21 5.762 9.06 0 9.199-19.248.465-38.511 1.083-57.765 1.189l-3.5.022c-18.085.124-36.233.378-54.265-1.18-1.539-.133-1.253-2.351.033-2.262 18.905-2.762 38.041-3.569 57.09-4.619 19.451-1.072 38.94-1.639 58.407-2.349Z" fill="#000"/></svg>