<svg width="354" height="491" fill="none" xmlns="http://www.w3.org/2000/svg"><path opacity=".747" fill-rule="evenodd" clip-rule="evenodd" d="m157.114 459.223-2.566-1.26c-41.98-20.728-87.415-48.236-113.723-93.272C14.47 319.555 7.24 256.887 3.056 199.298l-.252-3.519C-1.393 137.132-2.76 84.252 12.463 49.84 27.629 15.454 59.384-.465 98.323.01c38.937.475 85.106 17.447 124.543 59.187 39.492 41.714 72.254 108.195 96.456 175.876 24.202 67.68 39.855 136.431 31.398 182.116-8.563 45.609-41.228 68.025-76.844 72.329-35.561 4.28-74.127-9.526-116.762-30.295Z" fill="#F7D59C" fill-opacity=".5"/><path fill-rule="evenodd" clip-rule="evenodd" d="M222 63.734c40.314 0 72.995 30.164 72.995 67.374l.001 7.418c7.398 1.146 13.034 7.084 13.034 14.238v16.843c0 7.282-5.84 13.305-13.434 14.295-2.693 23.828-18.843 43.962-41.311 53.814l-.001 22.124h5.214c51.832 0 93.851 38.783 93.851 86.624v10.828H91.652v-10.828c0-47.841 42.018-86.624 93.85-86.624h5.214v-22.124c-22.468-9.851-38.619-29.986-41.313-53.815-7.592-.989-13.433-7.012-13.433-14.294v-16.843c0-7.154 5.637-13.093 13.035-14.238v-7.418c0-37.21 32.681-67.374 72.995-67.374Z" fill="#915B3C"/><path fill-rule="evenodd" clip-rule="evenodd" d="M190.714 237.715c9.482 4.158 20.09 6.485 31.286 6.485 11.195 0 21.802-2.326 31.284-6.484v6.419c-8.549 5.357-18.869 8.487-29.98 8.487-12.267 0-23.569-3.815-32.589-10.229l-.001-4.678Z" fill="#000" fill-opacity=".24"/><path fill-rule="evenodd" clip-rule="evenodd" d="M211.572 175.623c0 6.644 5.275 9.625 10.428 9.625 5.153 0 10.428-2.981 10.428-9.625-2.825.88-6.334 1.32-10.527 1.32-4.15 0-7.592-.44-10.329-1.32Z" fill="#000" fill-opacity=".16"/><path fill-rule="evenodd" clip-rule="evenodd" d="M253.127 262.969h5.188c51.574 0 93.382 37.819 93.382 84.472V358H92.303v-10.559l.013-1.397c.825-46.008 42.311-83.075 93.369-83.075h5.187s-.255 14.573 31.117 14.573c31.373 0 31.138-14.573 31.138-14.573Z" fill="#E6985F"/><path fill-rule="evenodd" clip-rule="evenodd" d="m204.203 295.982 17.824-16.568 17.823 16.568 36.437-33.87a101.52 101.52 0 0 0-17.608-1.549h-5.24s.237 15.126-31.45 15.126c-31.688 0-31.429-15.126-31.429-15.126h-5.24c-6.005 0-11.871.54-17.564 1.539l36.447 33.88Z" fill="#fff"/><path fill-rule="evenodd" clip-rule="evenodd" d="M258.68 259.36h-5.213V358H353v-10.96c0-48.425-42.228-87.68-94.32-87.68ZM190.56 259.36h-5.24c-51.571 0-93.474 38.475-94.308 86.23L91 347.04V358h99.56v-98.64Z" fill="#191919"/><path fill-rule="evenodd" clip-rule="evenodd" d="m178.169 259.607-34.857 52.036 29.266 15.926-18.023 23.224L163.12 358h27.44v-98.64s-4.061.051-12.391.247ZM266.032 259.63l34.682 52.013-29.265 15.925 18.024 23.225-8.567 7.206-27.44-.001v-98.64s4.236.076 12.566.272Z" fill="#2B2B2B"/><path fill-rule="evenodd" clip-rule="evenodd" d="m243.924 264.841-16.958 5.858c-.456-1.635-1.934-2.84-3.705-2.84h-2.47c-1.778 0-3.258 1.213-3.709 2.856l-17.006-5.874c-2.71-.833-5.449 1.204-5.449 4.053v15.581c0 2.848 2.739 4.885 5.449 4.052l17.006-5.873c.451 1.642 1.931 2.855 3.709 2.855h2.47c1.771 0 3.248-1.206 3.703-2.839l16.96 5.857c2.71.833 5.449-1.204 5.449-4.052v-15.581c0-2.849-2.739-4.886-5.449-4.053Z" fill="#191919"/><path d="M203.751 200.888c0 6.463 8.027 10.828 18.249 10.828s18.249-4.365 18.249-10.828c0-1.329-1.238-2.406-2.607-2.406-1.685 0-2.437 1.089-2.607 2.406-1.62 3.535-5.627 5.674-13.035 6.016-7.408-.342-11.415-2.481-13.035-6.016-.17-1.317-.922-2.406-2.607-2.406-1.369 0-2.607 1.077-2.607 2.406Z" fill="#000" fill-opacity=".6"/><path fill-rule="evenodd" clip-rule="evenodd" d="M170.069 155.708c2.407-4.57 7.827-7.757 14.127-7.757 6.277 0 11.681 3.164 14.101 7.709.718 1.35-.304 2.455-1.336 1.636-3.195-2.535-7.732-4.119-12.765-4.119-4.876 0-9.286 1.486-12.462 3.884-1.161.876-2.369-.016-1.665-1.353ZM245.672 155.708c2.406-4.57 7.826-7.757 14.126-7.757 6.278 0 11.681 3.164 14.101 7.709.719 1.35-.304 2.455-1.336 1.636-3.195-2.535-7.732-4.119-12.765-4.119-4.876 0-9.286 1.486-12.461 3.884-1.161.876-2.369-.016-1.665-1.353Z" fill="#000" fill-opacity=".6"/><path d="M169.379 139.72c5.103-6.627 19.093-10.344 31.144-7.612 1.398.317 2.81-.473 3.153-1.763.343-1.291-.512-2.594-1.91-2.911-13.995-3.172-30.195 1.132-36.637 9.499-.834 1.083-.559 2.585.614 3.355 1.174.77 2.802.516 3.636-.568ZM274.622 139.72c-5.103-6.627-19.093-10.344-31.144-7.612-1.398.317-2.81-.473-3.154-1.763-.343-1.291.512-2.594 1.91-2.911 13.995-3.172 30.196 1.132 36.638 9.499.834 1.083.559 2.585-.615 3.355s-2.801.516-3.635-.568Z" fill="#000" fill-opacity=".6"/><path fill-rule="evenodd" clip-rule="evenodd" d="M283.741 92.434c-.083-.132-.17-.264-.254-.396.085.132.171.264.254.396Zm.996 1.63Zm.705 1.23c.076.137.154.273.228.409-.074-.136-.152-.272-.228-.41Zm-2.76-4.474c-.086-.128-.175-.254-.262-.382.088.128.176.254.262.382Zm23.616-73.416c-2.135-1.779-5.422-1.622-7.355.345a4.765 4.765 0 0 0-.882 1.29 51.326 51.326 0 0 0-16.975-2.865c-.231 0-.457.013-.686.016-2.389-1.903-3.995-3.021-4.323-3.246-2.314-1.58-5.573-1.13-7.288 1.003a4.487 4.487 0 0 0-.872 3.93 49.867 49.867 0 0 0-11.008 4.34A50.47 50.47 0 0 0 254.851 21c-2.47-1.363-5.663-.622-7.146 1.653-1.18 1.813-.893 4.045.511 5.575-3.163 2.751-5.927 5.89-8.187 9.34-1.503-.597-2.482-.898-2.715-.965-2.739-.792-5.644.606-6.519 3.129s.637 5.227 3.367 6.046c.15.045.676.211 1.49.523a41.103 41.103 0 0 0-2.507 14.122c0 1.272.071 2.528.185 3.773a110.765 110.765 0 0 0-6.731-.48v-.118c0-2.658-2.334-4.812-5.214-4.812-2.879 0-5.214 2.154-5.214 4.812v.118c-4.455.186-8.624.61-12.521 1.246l-.073-.251c-.737-2.57-3.591-4.1-6.374-3.42-2.784.68-4.442 3.315-3.706 5.884l.02.067a70.842 70.842 0 0 0-8.506 3.07l-.223-.578c-.965-2.503-3.944-3.81-6.66-2.919-2.713.892-4.128 3.644-3.163 6.148l.891 2.309a56.611 56.611 0 0 0-8.077 6.432 5.584 5.584 0 0 0-5.022-.192c-2.574 1.193-3.615 4.084-2.325 6.46l.723 1.33a59.98 59.98 0 0 0-4.238 6.728c-1.63-.864-3.702-.9-5.396.096-2.426 1.431-3.138 4.406-1.588 6.646l2.486 3.594a78.375 78.375 0 0 0-2.568 9.439c-1.71-.26-3.519.262-4.751 1.548-1.908 1.991-1.706 5.033.451 6.793l2.775 2.266c-.454 5.486-.331 10.003-.132 12.758 1.029 14.286 10.099 14.121 10.099-.518 0-1.443.113-3.026.355-4.703.331.06.665.095 1 .095 1.442 0 2.877-.549 3.908-1.625 1.908-1.99 1.705-5.031-.451-6.792l-1.674-1.366a39.44 39.44 0 0 1 1.989-3.97 5.668 5.668 0 0 0 1.678.263c.961 0 1.933-.245 2.801-.756 2.427-1.431 3.139-4.406 1.589-6.646l-.347-.501a43.746 43.746 0 0 1 3.152-3.021c.997 1.236 2.558 1.94 4.175 1.94.786 0 1.583-.165 2.334-.512 2.573-1.191 3.614-4.083 2.324-6.459l-.415-.763a57.004 57.004 0 0 1 5.202-2.501l.179.463c.76 1.969 2.769 3.198 4.911 3.198a5.55 5.55 0 0 0 1.75-.281c2.712-.891 4.128-3.644 3.162-6.147l-.193-.5a85.077 85.077 0 0 1 6.261-1.323l.131.458c.62 2.157 2.729 3.582 5.037 3.582.442 0 .892-.052 1.339-.161 2.514-.615 4.093-2.826 3.833-5.141 1.257-.09 2.547-.158 3.86-.21.064 2.608 2.362 4.706 5.202 4.706s5.138-2.098 5.202-4.706c1.492.06 2.948.141 4.366.248-.238 2.302 1.34 4.492 3.841 5.103.447.109.897.161 1.339.161 2.307 0 4.417-1.425 5.036-3.582l.107-.371a83.21 83.21 0 0 1 6.236 1.363l-.143.373c-.967 2.503.448 5.256 3.161 6.147a5.548 5.548 0 0 0 1.749.281c2.144 0 4.153-1.229 4.913-3.198l.104-.271a56.567 56.567 0 0 1 5.154 2.533l-.293.539c-1.291 2.376-.249 5.268 2.325 6.459.75.347 1.548.512 2.334.512 1.501 0 2.952-.609 3.952-1.686 1.139 1 2.19 2.028 3.161 3.076l-.133.192c-1.55 2.24-.838 5.215 1.587 6.646.87.511 1.841.756 2.802.756.417 0 .83-.048 1.233-.138a39.474 39.474 0 0 1 2.053 4.157l-1.292 1.054c-2.157 1.761-2.359 4.802-.451 6.792 1.03 1.076 2.466 1.625 3.906 1.625.166 0 .331-.026.497-.04.237 1.657.347 3.221.347 4.648 0 14.639 9.069 14.804 10.099.518.193-2.69.318-7.056-.1-12.367l3.255-2.657c2.158-1.76 2.36-4.802.452-6.793-1.352-1.411-3.396-1.896-5.241-1.444a78.664 78.664 0 0 0-2.424-9.046l2.219-3.207c.712 1.737 2.482 3.012 4.62 3.108.087.005.173.006.26.006 2.762 0 5.066-2.002 5.204-4.575.043-.801.071-1.597.091-2.387a48.623 48.623 0 0 0 7.726-4.562c.878.926 2.136 1.545 3.571 1.635.12.007.241.01.359.01 2.717 0 5.009-1.945 5.198-4.485.151-2.048.176-4.058.149-6.046 2.906-3.7 5.215-7.825 6.776-12.264.424.104.862.176 1.321.176.057 0 .116 0 .175-.002 2.878-.087 5.133-2.313 5.039-4.97-1.072-30.028-25.874-51.018-26.929-51.896Z" fill="#4A312C"/><path fill-rule="evenodd" clip-rule="evenodd" d="M221.385 58.785c-2.879 0-5.214 2.155-5.214 4.813v31.57c0 2.657 2.335 4.812 5.214 4.812 2.88 0 5.214-2.155 5.214-4.813v-31.57c0-2.657-2.334-4.812-5.214-4.812ZM203.577 64.711c-.736-2.57-3.591-4.099-6.375-3.42-2.783.68-4.442 3.315-3.704 5.884l8.616 30.028c.619 2.158 2.729 3.582 5.038 3.582.442 0 .89-.052 1.337-.161 2.784-.68 4.442-3.315 3.706-5.885l-8.618-30.028ZM184.788 69.734c-.965-2.503-3.944-3.81-6.66-2.919-2.713.892-4.128 3.645-3.163 6.15l11.127 28.833c.76 1.969 2.769 3.199 4.911 3.199a5.6 5.6 0 0 0 1.75-.28c2.712-.893 4.128-3.646 3.162-6.15l-11.127-28.833ZM169.755 83.659c-1.289-2.376-4.424-3.334-6.998-2.147-2.573 1.193-3.615 4.084-2.324 6.46l11.37 20.94c.915 1.684 2.755 2.658 4.665 2.658.786 0 1.584-.165 2.333-.512 2.575-1.191 3.615-4.083 2.326-6.459l-11.372-20.94ZM158.722 97.593c-1.55-2.24-4.772-2.895-7.201-1.466-2.427 1.43-3.137 4.406-1.587 6.646l10.765 15.559c.995 1.437 2.679 2.222 4.399 2.222.961 0 1.934-.244 2.802-.757 2.427-1.43 3.137-4.406 1.587-6.646l-10.765-15.558ZM152.459 116.937c-2.156-1.761-5.451-1.576-7.359.416-1.909 1.991-1.707 5.033.451 6.793l10.645 8.69a5.447 5.447 0 0 0 3.453 1.208c1.442 0 2.877-.549 3.907-1.624 1.908-1.991 1.706-5.032-.451-6.793l-10.646-8.69ZM246.08 61.29c-2.783-.678-5.637.852-6.375 3.421l-8.616 30.029c-.737 2.568.921 5.203 3.706 5.884.447.11.895.161 1.337.161 2.309 0 4.419-1.424 5.037-3.581l8.617-30.029c.737-2.57-.921-5.204-3.706-5.884Z" fill="#000" fill-opacity=".24"/><path fill-rule="evenodd" clip-rule="evenodd" d="M280.526 81.513a5.547 5.547 0 0 0-2.71-.479c-10.122-35.136-39.077-44.017-40.502-44.43-2.739-.794-5.644.606-6.519 3.127-.874 2.524.638 5.229 3.367 6.047.927.278 15.856 4.997 26.384 21.568-.914.555-1.657 1.363-2.05 2.387l-11.127 28.835c-.967 2.504.449 5.256 3.161 6.148.579.19 1.169.28 1.749.28 2.145 0 4.153-1.228 4.913-3.199l10.128-26.25a56.423 56.423 0 0 1 7.868 6.36c-.676.44-1.262 1.02-1.659 1.752l-11.372 20.94c-1.29 2.376-.249 5.267 2.324 6.46.751.346 1.549.51 2.334.51 1.911 0 3.75-.972 4.666-2.657l11.37-20.94c1.29-2.376.249-5.268-2.325-6.46ZM290.824 116.937l-10.646 8.69c-2.156 1.761-2.359 4.802-.451 6.793 1.03 1.075 2.467 1.624 3.907 1.624a5.445 5.445 0 0 0 3.453-1.208l10.645-8.69c2.158-1.76 2.36-4.802.451-6.793-1.907-1.992-5.203-2.177-7.359-.416Z" fill="#000" fill-opacity=".24"/><path fill-rule="evenodd" clip-rule="evenodd" d="M254.851 21c-2.47-1.364-5.663-.623-7.145 1.652-1.48 2.276-.683 5.231 1.782 6.602.438.243 42.126 23.966 42.985 67.392a5.09 5.09 0 0 0-.711-.519c-2.429-1.43-5.651-.775-7.201 1.466l-10.765 15.558c-1.55 2.24-.838 5.216 1.587 6.646.87.513 1.841.758 2.801.758 1.721 0 3.405-.786 4.4-2.223l10.154-14.677c.712 1.737 2.482 3.013 4.619 3.11.088.004.174.006.261.006 2.762 0 5.066-2.003 5.204-4.577 2.798-52.52-45.897-80.048-47.971-81.195Z" fill="#000" fill-opacity=".24"/><path fill-rule="evenodd" clip-rule="evenodd" d="M276.077 12.944c-2.314-1.58-5.572-1.13-7.288 1.002-1.714 2.133-1.229 5.147 1.08 6.731.425.293 42.548 29.7 39.493 71.075-.195 2.652 1.976 4.947 4.849 5.13.119.006.239.01.358.01 2.718 0 5.009-1.945 5.198-4.485 3.447-46.698-41.763-78.147-43.69-79.463ZM306.298 17.403c-2.135-1.778-5.423-1.621-7.356.347-1.93 1.967-1.766 5.01.364 6.794.227.189 22.575 19.211 23.498 45.074.092 2.603 2.409 4.655 5.208 4.655l.175-.002c2.878-.088 5.133-2.313 5.039-4.97-1.071-30.028-25.873-51.02-26.928-51.898Z" fill="#000" fill-opacity=".24"/></svg>