<svg width="354" height="491" viewBox="0 0 354 491" fill="none" xmlns="http://www.w3.org/2000/svg">
<path opacity="0.74707" fill-rule="evenodd" clip-rule="evenodd" d="M157.114 459.223L154.548 457.963C112.568 437.235 67.1335 409.727 40.8251 364.691C14.4692 319.555 7.23931 256.887 3.05629 199.298L2.8039 195.779C-1.39329 137.132 -2.75968 84.252 12.4626 49.84C27.629 15.4538 59.3844 -0.464654 98.3224 0.0103147C137.26 0.485285 183.429 17.4575 222.866 59.1973C262.358 100.911 295.12 167.392 319.322 235.073C343.524 302.753 359.177 371.504 350.72 417.189C342.157 462.798 309.492 485.214 273.876 489.518C238.315 493.798 199.749 479.992 157.114 459.223Z" fill="#F7D59C" fill-opacity="0.5"/>
<path fill-rule="evenodd" clip-rule="evenodd" d="M222 63.7338C262.314 63.7338 294.995 93.8982 294.995 131.108L294.996 138.526C302.394 139.672 308.03 145.61 308.03 152.764V169.607C308.03 176.889 302.19 182.912 294.596 183.902C291.903 207.73 275.753 227.864 253.285 237.716L253.284 259.84H258.498C310.33 259.84 352.349 298.623 352.349 346.464V357.292H91.6515V346.464C91.6515 298.623 133.67 259.84 185.502 259.84H190.716L190.716 237.716C168.248 227.865 152.097 207.73 149.403 183.901C141.811 182.912 135.97 176.889 135.97 169.607V152.764C135.97 145.61 141.607 139.671 149.005 138.526L149.005 131.108C149.005 93.8982 181.686 63.7338 222 63.7338Z" fill="#915B3C"/>
<path fill-rule="evenodd" clip-rule="evenodd" d="M190.714 237.715C200.196 241.873 210.804 244.2 222 244.2C233.195 244.2 243.802 241.874 253.284 237.716L253.284 244.135C244.735 249.492 234.415 252.622 223.304 252.622C211.037 252.622 199.735 248.807 190.715 242.393L190.714 237.715Z" fill="black" fill-opacity="0.24"/>
<path fill-rule="evenodd" clip-rule="evenodd" d="M211.572 175.623C211.572 182.267 216.847 185.248 222 185.248C227.153 185.248 232.428 182.267 232.428 175.623C229.603 176.503 226.094 176.943 221.901 176.943C217.751 176.943 214.309 176.503 211.572 175.623Z" fill="black" fill-opacity="0.16"/>
<path fill-rule="evenodd" clip-rule="evenodd" d="M253.127 262.969H258.315C309.889 262.969 351.697 300.788 351.697 347.441V358H92.3029V347.441L92.3158 346.044C93.1407 300.036 134.627 262.969 185.685 262.969H190.872C190.872 262.969 190.617 277.542 221.989 277.542C253.362 277.542 253.127 262.969 253.127 262.969Z" fill="#E6985F"/>
<path fill-rule="evenodd" clip-rule="evenodd" d="M204.203 295.982L222.027 279.414L239.85 295.982L276.287 262.112C270.581 261.108 264.7 260.563 258.679 260.563H253.439C253.439 260.563 253.676 275.689 221.989 275.689C190.301 275.689 190.56 260.563 190.56 260.563H185.32C179.315 260.563 173.449 261.103 167.756 262.102L204.203 295.982Z" fill="white"/>
<path fill-rule="evenodd" clip-rule="evenodd" d="M258.68 259.36H253.467V358H353V347.04C353 298.615 310.772 259.36 258.68 259.36Z" fill="#191919"/>
<path fill-rule="evenodd" clip-rule="evenodd" d="M190.56 259.36H185.32C133.749 259.36 91.8463 297.835 91.0118 345.59L91 347.04V358H190.56V259.36Z" fill="#191919"/>
<path fill-rule="evenodd" clip-rule="evenodd" d="M178.169 259.607L143.312 311.643L172.578 327.569L154.555 350.793L163.12 358H190.56V259.36C190.56 259.36 186.499 259.411 178.169 259.607Z" fill="#2B2B2B"/>
<path fill-rule="evenodd" clip-rule="evenodd" d="M266.032 259.63L300.714 311.643L271.449 327.568L289.473 350.793L280.906 357.999L253.466 357.998V259.358C253.466 259.358 257.702 259.434 266.032 259.63Z" fill="#2B2B2B"/>
<path fill-rule="evenodd" clip-rule="evenodd" d="M243.924 264.841L226.966 270.699C226.51 269.064 225.032 267.859 223.261 267.859H220.791C219.013 267.859 217.533 269.072 217.082 270.715L200.076 264.841C197.366 264.008 194.627 266.045 194.627 268.894V284.475C194.627 287.323 197.366 289.36 200.076 288.527L217.082 282.654C217.533 284.296 219.013 285.509 220.791 285.509H223.261C225.032 285.509 226.509 284.303 226.964 282.67L243.924 288.527C246.634 289.36 249.373 287.323 249.373 284.475V268.894C249.373 266.045 246.634 264.008 243.924 264.841Z" fill="#191919"/>
<path d="M203.751 200.888C203.751 207.351 211.778 211.716 222 211.716C232.222 211.716 240.249 207.351 240.249 200.888C240.249 199.559 239.011 198.482 237.642 198.482C235.957 198.482 235.205 199.571 235.035 200.888C233.415 204.423 229.408 206.562 222 206.904C214.592 206.562 210.585 204.423 208.965 200.888C208.795 199.571 208.043 198.482 206.358 198.482C204.989 198.482 203.751 199.559 203.751 200.888Z" fill="black" fill-opacity="0.6"/>
<path fill-rule="evenodd" clip-rule="evenodd" d="M170.069 155.708C172.476 151.138 177.896 147.951 184.196 147.951C190.473 147.951 195.877 151.115 198.297 155.66C199.015 157.01 197.993 158.115 196.961 157.296C193.766 154.761 189.229 153.177 184.196 153.177C179.32 153.177 174.91 154.663 171.734 157.061C170.573 157.937 169.365 157.045 170.069 155.708Z" fill="black" fill-opacity="0.6"/>
<path fill-rule="evenodd" clip-rule="evenodd" d="M245.672 155.708C248.078 151.138 253.498 147.951 259.798 147.951C266.076 147.951 271.479 151.115 273.899 155.66C274.618 157.01 273.595 158.115 272.563 157.296C269.368 154.761 264.831 153.177 259.798 153.177C254.922 153.177 250.512 154.663 247.337 157.061C246.176 157.937 244.968 157.045 245.672 155.708Z" fill="black" fill-opacity="0.6"/>
<path d="M169.379 139.72C174.482 133.093 188.472 129.376 200.523 132.108C201.921 132.425 203.333 131.635 203.676 130.345C204.019 129.054 203.164 127.751 201.766 127.434C187.771 124.262 171.571 128.566 165.129 136.933C164.295 138.016 164.57 139.518 165.743 140.288C166.917 141.058 168.545 140.804 169.379 139.72Z" fill="black" fill-opacity="0.6"/>
<path d="M274.622 139.72C269.519 133.093 255.529 129.376 243.478 132.108C242.08 132.425 240.668 131.635 240.324 130.345C239.981 129.054 240.836 127.751 242.234 127.434C256.229 124.262 272.43 128.566 278.872 136.933C279.706 138.016 279.431 139.518 278.257 140.288C277.083 141.058 275.456 140.804 274.622 139.72Z" fill="black" fill-opacity="0.6"/>
<path fill-rule="evenodd" clip-rule="evenodd" d="M283.741 92.4341C283.658 92.3018 283.571 92.1695 283.487 92.0383C283.572 92.1695 283.658 92.3018 283.741 92.4341ZM284.737 94.0632C284.656 93.9272 284.574 93.79 284.491 93.6541C284.574 93.79 284.656 93.9272 284.737 94.0632ZM285.442 95.2939C285.518 95.4311 285.596 95.567 285.67 95.703C285.596 95.567 285.518 95.4311 285.442 95.2939ZM282.682 90.8196C282.596 90.692 282.507 90.5657 282.42 90.4382C282.508 90.5657 282.596 90.692 282.682 90.8196ZM306.298 17.4035C304.163 15.6253 300.876 15.7817 298.943 17.7488C298.559 18.141 298.282 18.5802 298.061 19.0386C292.784 17.1918 287.065 16.174 281.086 16.174C280.855 16.174 280.629 16.1872 280.4 16.1896C278.011 14.2875 276.405 13.1686 276.077 12.9436C273.763 11.3639 270.504 11.8139 268.789 13.947C267.847 15.12 267.59 16.5565 267.917 17.8776C264.022 18.9026 260.331 20.3692 256.909 22.2172C255.795 21.5278 255.067 21.1187 254.851 20.9996C252.381 19.6365 249.188 20.3776 247.705 22.6527C246.525 24.4658 246.812 26.6975 248.216 28.2279C245.053 30.9794 242.289 34.1171 240.029 37.5688C238.526 36.9709 237.547 36.6701 237.314 36.6027C234.575 35.8111 231.67 37.2091 230.795 39.732C229.92 42.2549 231.432 44.9595 234.162 45.7776C234.312 45.8233 234.838 45.9894 235.652 46.301C234.034 50.738 233.145 55.4831 233.145 60.4231C233.145 61.6947 233.216 62.9508 233.33 64.196C231.164 63.9734 228.919 63.8122 226.599 63.716V63.5981C226.599 60.9404 224.265 58.7856 221.385 58.7856C218.506 58.7856 216.171 60.9404 216.171 63.5981V63.716C211.716 63.9024 207.547 64.3259 203.65 64.9624L203.577 64.7109C202.84 62.1411 199.986 60.6119 197.203 61.2905C194.419 61.9715 192.761 64.6063 193.497 67.1749L193.517 67.2423C190.49 68.129 187.654 69.154 185.011 70.3114L184.788 69.7339C183.823 67.2314 180.844 65.9237 178.128 66.8152C175.415 67.7067 174 70.4594 174.965 72.963L175.856 75.2718C172.859 77.2449 170.176 79.4045 167.779 81.7036C166.299 80.8819 164.415 80.7472 162.757 81.5123C160.183 82.7046 159.142 85.5957 160.432 87.9718L161.155 89.3025C159.563 91.4921 158.154 93.7443 156.917 96.0302C155.287 95.1664 153.215 95.1303 151.521 96.1265C149.095 97.557 148.383 100.532 149.933 102.772L152.419 106.366C151.323 109.572 150.485 112.746 149.851 115.805C148.141 115.545 146.332 116.067 145.1 117.353C143.192 119.344 143.394 122.386 145.551 124.146L148.326 126.412C147.872 131.898 147.995 136.415 148.194 139.17C149.223 153.456 158.293 153.291 158.293 138.652C158.293 137.209 158.406 135.626 158.648 133.949C158.979 134.009 159.313 134.044 159.648 134.044C161.09 134.044 162.525 133.495 163.556 132.419C165.464 130.429 165.261 127.388 163.105 125.627L161.431 124.261C162.002 122.944 162.658 121.617 163.42 120.291C163.961 120.459 164.527 120.554 165.098 120.554C166.059 120.554 167.031 120.309 167.899 119.798C170.326 118.367 171.038 115.392 169.488 113.152L169.141 112.651C170.115 111.623 171.157 110.612 172.293 109.63C173.29 110.866 174.851 111.57 176.468 111.57C177.254 111.57 178.051 111.405 178.802 111.058C181.375 109.867 182.416 106.975 181.126 104.599L180.711 103.836C182.333 102.948 184.068 102.114 185.913 101.335L186.092 101.798C186.852 103.767 188.861 104.996 191.003 104.996C191.584 104.996 192.174 104.907 192.753 104.715C195.465 103.824 196.881 101.071 195.915 98.5676L195.722 98.0683C197.705 97.5642 199.799 97.1275 201.983 96.7449L202.114 97.2033C202.734 99.3604 204.843 100.785 207.151 100.785C207.593 100.785 208.043 100.733 208.49 100.624C211.004 100.009 212.583 97.7976 212.323 95.4828C213.58 95.3926 214.87 95.3252 216.183 95.2735C216.247 97.8806 218.545 99.9788 221.385 99.9788C224.225 99.9788 226.523 97.8806 226.587 95.2735C228.079 95.3324 229.535 95.4142 230.953 95.5213C230.715 97.8229 232.293 100.013 234.794 100.624C235.241 100.733 235.691 100.785 236.133 100.785C238.44 100.785 240.55 99.3604 241.169 97.2033L241.276 96.8315C243.456 97.2249 245.535 97.6785 247.512 98.1946L247.369 98.5676C246.402 101.071 247.817 103.824 250.53 104.715C251.109 104.907 251.699 104.996 252.279 104.996C254.423 104.996 256.432 103.767 257.192 101.798L257.296 101.527C259.125 102.318 260.844 103.162 262.45 104.06L262.157 104.599C260.866 106.975 261.908 109.867 264.482 111.058C265.232 111.405 266.03 111.57 266.816 111.57C268.317 111.57 269.768 110.961 270.768 109.884C271.907 110.884 272.958 111.912 273.929 112.96L273.796 113.152C272.246 115.392 272.958 118.367 275.383 119.798C276.253 120.309 277.224 120.554 278.185 120.554C278.602 120.554 279.015 120.506 279.418 120.416C280.21 121.806 280.887 123.194 281.471 124.573L280.179 125.627C278.022 127.388 277.82 130.429 279.728 132.419C280.758 133.495 282.194 134.044 283.634 134.044C283.8 134.044 283.965 134.018 284.131 134.004C284.368 135.661 284.478 137.225 284.478 138.652C284.478 153.291 293.547 153.456 294.577 139.17C294.77 136.48 294.895 132.114 294.477 126.803L297.732 124.146C299.89 122.386 300.092 119.344 298.184 117.353C296.832 115.942 294.788 115.457 292.943 115.909C292.338 112.977 291.547 109.937 290.519 106.863L292.738 103.656C293.45 105.393 295.22 106.668 297.358 106.764C297.445 106.769 297.531 106.77 297.618 106.77C300.38 106.77 302.684 104.768 302.822 102.195C302.865 101.394 302.893 100.598 302.913 99.808C305.652 98.5134 308.238 96.9831 310.639 95.2458C311.517 96.1722 312.775 96.7906 314.21 96.8808C314.33 96.8881 314.451 96.8917 314.569 96.8917C317.286 96.8917 319.578 94.9462 319.767 92.4065C319.918 90.3576 319.943 88.3484 319.916 86.3597C322.822 82.6601 325.131 78.5346 326.692 74.0964C327.116 74.1998 327.554 74.272 328.013 74.272C328.07 74.272 328.129 74.272 328.188 74.2696C331.066 74.183 333.321 71.9573 333.227 69.3008C332.155 39.2724 307.353 18.2818 306.298 17.4035Z" fill="#4A312C"/>
<path fill-rule="evenodd" clip-rule="evenodd" d="M221.385 58.7854C218.506 58.7854 216.171 60.9402 216.171 63.5978V95.1674C216.171 97.825 218.506 99.9798 221.385 99.9798C224.265 99.9798 226.599 97.825 226.599 95.1674V63.5978C226.599 60.9402 224.265 58.7854 221.385 58.7854Z" fill="black" fill-opacity="0.24"/>
<path fill-rule="evenodd" clip-rule="evenodd" d="M203.577 64.7111C202.841 62.1412 199.986 60.6121 197.202 61.2906C194.419 61.9716 192.76 64.6064 193.498 67.175L202.114 97.2034C202.733 99.3606 204.843 100.785 207.152 100.785C207.594 100.785 208.042 100.733 208.489 100.624C211.273 99.9441 212.931 97.3093 212.195 94.7394L203.577 64.7111Z" fill="black" fill-opacity="0.24"/>
<path fill-rule="evenodd" clip-rule="evenodd" d="M184.788 69.7338C183.823 67.2313 180.844 65.9235 178.128 66.815C175.415 67.7065 174 70.4605 174.965 72.9641L186.092 101.798C186.852 103.767 188.861 104.997 191.003 104.997C191.584 104.997 192.175 104.907 192.753 104.717C195.465 103.824 196.881 101.071 195.915 98.5675L184.788 69.7338Z" fill="black" fill-opacity="0.24"/>
<path fill-rule="evenodd" clip-rule="evenodd" d="M169.755 83.6588C168.466 81.2827 165.331 80.325 162.757 81.5125C160.184 82.7047 159.142 85.5958 160.433 87.9719L171.803 108.912C172.718 110.596 174.558 111.57 176.468 111.57C177.254 111.57 178.052 111.405 178.801 111.058C181.376 109.867 182.416 106.975 181.127 104.599L169.755 83.6588Z" fill="black" fill-opacity="0.24"/>
<path fill-rule="evenodd" clip-rule="evenodd" d="M158.722 97.5926C157.172 95.3524 153.95 94.6979 151.521 96.1272C149.094 97.5577 148.384 100.533 149.934 102.773L160.699 118.332C161.694 119.769 163.378 120.554 165.098 120.554C166.059 120.554 167.032 120.31 167.9 119.797C170.327 118.367 171.037 115.391 169.487 113.151L158.722 97.5926Z" fill="black" fill-opacity="0.24"/>
<path fill-rule="evenodd" clip-rule="evenodd" d="M152.459 116.937C150.303 115.176 147.008 115.361 145.1 117.353C143.191 119.344 143.393 122.386 145.551 124.146L156.196 132.836C157.188 133.647 158.421 134.044 159.649 134.044C161.091 134.044 162.526 133.495 163.556 132.42C165.464 130.429 165.262 127.388 163.105 125.627L152.459 116.937Z" fill="black" fill-opacity="0.24"/>
<path fill-rule="evenodd" clip-rule="evenodd" d="M246.08 61.2909C243.297 60.6123 240.443 62.1415 239.705 64.7113L231.089 94.7397C230.352 97.3083 232.01 99.9431 234.795 100.624C235.242 100.734 235.69 100.785 236.132 100.785C238.441 100.785 240.551 99.3608 241.169 97.2036L249.786 67.1753C250.523 64.6054 248.865 61.9706 246.08 61.2909Z" fill="black" fill-opacity="0.24"/>
<path fill-rule="evenodd" clip-rule="evenodd" d="M280.526 81.5128C279.655 81.111 278.722 80.9726 277.816 81.034C267.694 45.8984 238.739 37.0171 237.314 36.6032C234.575 35.8104 231.67 37.2096 230.795 39.7313C229.921 42.2554 231.433 44.96 234.162 45.7781C235.089 46.056 250.018 50.7746 260.546 67.3462C259.632 67.9009 258.889 68.7093 258.496 69.7332L247.369 98.5681C246.402 101.072 247.818 103.824 250.53 104.716C251.109 104.906 251.699 104.996 252.279 104.996C254.424 104.996 256.432 103.768 257.192 101.797L267.32 75.5478C270.236 77.5041 272.85 79.6384 275.188 81.9062C274.512 82.3478 273.926 82.9265 273.529 83.6592L262.157 104.599C260.867 106.975 261.908 109.866 264.481 111.059C265.232 111.405 266.03 111.569 266.815 111.569C268.726 111.569 270.565 110.597 271.481 108.912L282.851 87.9723C284.141 85.5962 283.1 82.7039 280.526 81.5128Z" fill="black" fill-opacity="0.24"/>
<path fill-rule="evenodd" clip-rule="evenodd" d="M290.824 116.937L280.178 125.627C278.022 127.388 277.819 130.429 279.727 132.42C280.757 133.495 282.194 134.044 283.634 134.044C284.863 134.044 286.095 133.647 287.087 132.836L297.732 124.146C299.89 122.386 300.092 119.344 298.183 117.353C296.276 115.361 292.98 115.176 290.824 116.937Z" fill="black" fill-opacity="0.24"/>
<path fill-rule="evenodd" clip-rule="evenodd" d="M254.851 20.9992C252.381 19.636 249.188 20.3771 247.706 22.6522C246.226 24.9285 247.023 27.8833 249.488 29.2537C249.926 29.4967 291.614 53.2196 292.473 96.6458C292.253 96.4593 292.022 96.28 291.762 96.1272C289.333 94.6979 286.111 95.3524 284.561 97.5926L273.796 113.151C272.246 115.391 272.958 118.367 275.383 119.797C276.253 120.31 277.224 120.555 278.184 120.555C279.905 120.555 281.589 119.769 282.584 118.332L292.738 103.655C293.45 105.392 295.22 106.668 297.357 106.765C297.445 106.769 297.531 106.771 297.618 106.771C300.38 106.771 302.684 104.768 302.822 102.194C305.62 49.674 256.925 22.1457 254.851 20.9992Z" fill="black" fill-opacity="0.24"/>
<path fill-rule="evenodd" clip-rule="evenodd" d="M276.077 12.9439C273.763 11.3642 270.505 11.8141 268.789 13.9461C267.075 16.0792 267.56 19.0929 269.869 20.6774C270.294 20.9698 312.417 50.3762 309.362 91.7522C309.167 94.4039 311.338 96.6994 314.211 96.8811C314.33 96.8883 314.45 96.8919 314.569 96.8919C317.287 96.8919 319.578 94.9465 319.767 92.4067C323.214 45.7093 278.004 14.2601 276.077 12.9439Z" fill="black" fill-opacity="0.24"/>
<path fill-rule="evenodd" clip-rule="evenodd" d="M306.298 17.4033C304.163 15.6251 300.875 15.7815 298.942 17.7498C297.012 19.7169 297.176 22.7595 299.306 24.5437C299.533 24.7326 321.881 43.755 322.804 69.6182C322.896 72.2205 325.213 74.273 328.012 74.273C328.07 74.273 328.128 74.2718 328.187 74.2706C331.065 74.1828 333.32 71.9582 333.226 69.3017C332.155 39.2734 307.353 18.2816 306.298 17.4033Z" fill="black" fill-opacity="0.24"/>
</svg>
