<svg width="75" height="75" viewBox="0 0 75 75" fill="none" xmlns="http://www.w3.org/2000/svg">
<g clip-path="url(#clip0)">
<path d="M73.867 37.6465C73.867 57.7314 57.585 74.0135 37.5 74.0135C17.415 74.0135 1.13297 57.7314 1.13297 37.6465C1.13297 17.5615 17.415 1.27945 37.5 1.27945C57.585 1.27945 73.867 17.5615 73.867 37.6465Z" fill="#CEE5D0"/>
<path d="M63.1365 11.9854C56.2815 5.13094 47.168 1.35611 37.4743 1.35611C27.6867 1.35611 19.7239 9.3973 19.7239 19.2816C19.7239 29.1658 27.6867 37.207 37.4743 37.207C47.5445 37.207 55.7373 45.4799 55.7373 55.6486C55.7373 61.1652 53.3106 66.3511 49.0803 69.8765L50.1251 71.6801C55.022 69.8627 59.3994 67.0463 63.1365 63.3098C69.9909 56.4548 73.7658 47.3413 73.7658 37.6476C73.7658 27.9533 69.9909 18.8398 63.1365 11.9854Z" fill="#696867"/>
<path d="M63.1365 11.9854C56.2815 5.13094 47.168 1.35611 37.4743 1.35611C36.8494 1.35611 36.232 1.3893 35.6232 1.45281C44.3075 2.08281 52.3859 5.76666 58.6052 11.9854C65.4596 18.8398 69.2345 27.9533 69.2345 37.6476C69.2345 47.3413 65.4596 56.4548 58.6052 63.3093C55.8151 66.0993 52.6674 68.3756 49.2136 70.1065L50.1251 71.6801C55.022 69.8622 59.3994 67.0463 63.1365 63.3093C69.9909 56.4548 73.7658 47.3413 73.7658 37.6476C73.7658 27.9533 69.9909 18.8398 63.1365 11.9854Z" fill="#544F4F"/>
<path d="M43.3599 56.0263C43.3599 58.4542 41.3921 60.4225 38.9643 60.4225C36.5364 60.4225 34.568 58.4542 34.568 56.0263C34.568 53.5984 36.5364 51.6306 38.9643 51.6306C41.3921 51.6306 43.3599 53.5984 43.3599 56.0263Z" fill="#696867"/>
<path d="M38.9643 51.6306C38.1352 51.6306 37.3604 51.8601 36.6983 52.2589C37.9749 53.0285 38.8287 54.4276 38.8287 56.0263C38.8287 57.6256 37.9749 59.0246 36.6983 59.7937C37.3604 60.1925 38.1352 60.4225 38.9643 60.4225C41.3916 60.4225 43.36 58.4542 43.36 56.0263C43.36 53.599 41.3916 51.6306 38.9643 51.6306Z" fill="#544F4F"/>
<path d="M43.3599 17.8694C43.3599 20.2967 41.3921 22.2651 38.9643 22.2651C36.5364 22.2651 34.568 20.2967 34.568 17.8694C34.568 15.4415 36.5364 13.4731 38.9643 13.4731C41.3921 13.4731 43.3599 15.4415 43.3599 17.8694Z" fill="#F9F9ED"/>
<path d="M38.9643 13.4731C38.1352 13.4731 37.3604 13.7032 36.6983 14.102C37.9749 14.871 38.8287 16.2701 38.8287 17.8694C38.8287 19.4681 37.9749 20.8672 36.6983 21.6368C37.3604 22.0356 38.1352 22.2651 38.9643 22.2651C41.3916 22.2651 43.36 20.2973 43.36 17.8694C43.36 15.4415 41.3916 13.4731 38.9643 13.4731Z" fill="#ECECEC"/>
<path d="M68.8454 17.054C68.5009 16.5316 67.7988 16.3868 67.2758 16.7307C66.7534 17.0746 66.6086 17.7773 66.9525 18.2997C70.7348 24.0463 72.7341 30.736 72.7341 37.6465C72.7341 47.0581 69.0691 55.9061 62.4144 62.5608C58.7723 66.2035 54.4716 68.9472 49.7829 70.6879C54.0779 67.1087 56.8199 61.6951 56.8199 55.6475C56.8199 44.8957 48.1533 36.1485 37.5 36.1485C28.2955 36.1485 20.8065 28.5816 20.8065 19.2804C20.8065 9.97925 28.2955 2.41184 37.5 2.41184C47.7671 2.41184 57.502 6.8779 64.2088 14.665C64.6168 15.1394 65.332 15.1926 65.8064 14.784C66.2802 14.3761 66.3334 13.6608 65.9254 13.1865C58.7883 4.89922 48.4274 0.146484 37.5 0.146484C27.4836 0.146484 18.0662 4.0472 10.9835 11.13C3.90072 18.2127 0 27.63 0 37.6465C0 38.5471 0.0320435 39.4575 0.0961304 40.3519C0.138473 40.9487 0.635719 41.4042 1.22509 41.4042C1.25198 41.4042 1.27945 41.4036 1.30692 41.4013C1.93062 41.3567 2.4004 40.8148 2.35634 40.1911C2.29626 39.3499 2.26536 38.4939 2.26536 37.6465C2.26536 28.2349 5.9309 19.3869 12.5856 12.7321C16.2884 9.02882 20.6709 6.25305 25.4511 4.51813C21.2339 8.03032 18.5411 13.3438 18.5411 19.2804C18.5411 29.8307 27.0458 38.4138 37.5 38.4138C46.9042 38.4138 54.5546 46.1449 54.5546 55.6475C54.5546 65.1495 46.9042 72.8806 37.5 72.8806C29.3106 72.8806 21.3341 70.0092 15.0387 64.7947C8.82454 59.6472 4.533 52.4815 2.95486 44.6182C2.83184 44.0048 2.23446 43.6077 1.62163 43.7302C1.00765 43.8538 0.610542 44.4506 0.733566 45.064C2.41356 53.4348 6.98032 61.0617 13.5933 66.5394C20.2944 72.0898 28.7842 75.1459 37.5 75.1459C47.5164 75.1459 56.9338 71.2458 64.0165 64.1624C71.0993 57.0797 75 47.6629 75 37.6465C75 30.2919 72.8714 23.1714 68.8454 17.054Z" fill="#F7D59C"/>
<path d="M44.4929 56.0263C44.4929 52.9776 42.0124 50.4976 38.9637 50.4976C35.9156 50.4976 33.4351 52.9776 33.4351 56.0263C33.4351 59.075 35.9156 61.5549 38.9637 61.5549C42.0124 61.5549 44.4929 59.075 44.4929 56.0263ZM35.701 56.0263C35.701 54.2272 37.1647 52.7635 38.9643 52.7635C40.7633 52.7635 42.227 54.2272 42.227 56.0263C42.227 57.8258 40.7633 59.2895 38.9643 59.2895C37.1647 59.2895 35.701 57.8258 35.701 56.0263Z" fill="#18191B"/>
<path d="M33.4356 17.8694C33.4356 20.9175 35.9156 23.398 38.9643 23.398C42.013 23.398 44.4929 20.9175 44.4929 17.8694C44.4929 14.8207 42.013 12.3401 38.9643 12.3401C35.9156 12.3401 33.4356 14.8207 33.4356 17.8694ZM42.227 17.8694C42.227 19.6684 40.7633 21.1321 38.9637 21.1321C37.1647 21.1321 35.701 19.6684 35.701 17.8694C35.701 16.0698 37.1647 14.6061 38.9637 14.6061C40.7633 14.6061 42.227 16.0698 42.227 17.8694Z" fill="#18191B"/>
</g>
<defs>
<clipPath id="clip0">
<rect width="75" height="75" fill="white"/>
</clipPath>
</defs>
</svg>
